<?xml version="1.0" encoding="UTF-8"?>
<!DOCTYPE svg PUBLIC "-//W3C//DTD SVG 1.1//EN" "http://www.w3.org/Graphics/SVG/1.1/DTD/svg11.dtd">
<svg xmlns="http://www.w3.org/2000/svg" version="1.1" width="98px" height="116px" style="shape-rendering:geometricPrecision; text-rendering:geometricPrecision; image-rendering:optimizeQuality; fill-rule:evenodd; clip-rule:evenodd" xmlns:xlink="http://www.w3.org/1999/xlink">
<g><path style="opacity:1" fill="#f1786b" d="M 45.5,0.5 C 51.1359,2.32207 56.4693,4.6554 61.5,7.5C 62.953,10.3937 65.2864,12.0603 68.5,12.5C 68.8212,14.0481 69.8212,14.7148 71.5,14.5C 74.5739,19.6448 77.4072,24.9781 80,30.5C 80.8159,31.8228 81.9826,32.4894 83.5,32.5C 84.9179,34.3079 86.9179,34.9746 89.5,34.5C 91.081,36.3026 93.081,37.6359 95.5,38.5C 95.5,39.1667 95.5,39.8333 95.5,40.5C 96.3874,49.8006 96.7208,59.1339 96.5,68.5C 89.1971,75.6337 81.6971,82.6337 74,89.5C 73.5065,91.1341 73.3398,92.8008 73.5,94.5C 72.7784,94.9175 72.2784,95.5842 72,96.5C 71.5008,101.155 71.3342,105.821 71.5,110.5C 70.1667,110.5 68.8333,110.5 67.5,110.5C 62.3814,109.897 57.7147,110.564 53.5,112.5C 48.3814,111.897 43.7147,112.564 39.5,114.5C 25.7982,89.7631 13.1316,64.4298 1.5,38.5C 6.10885,35.5865 10.7755,32.5865 15.5,29.5C 25.2906,19.3719 35.2906,9.70526 45.5,0.5 Z"/></g>
<g><path style="opacity:1" fill="#f3c2bc" d="M 95.5,40.5 C 96.1667,41.1667 96.8333,41.8333 97.5,42.5C 97.5,51.1667 97.5,59.8333 97.5,68.5C 97.1667,68.5 96.8333,68.5 96.5,68.5C 96.7208,59.1339 96.3874,49.8006 95.5,40.5 Z"/></g>
<g><path style="opacity:1" fill="#fefdfd" d="M -0.5,-0.5 C 32.1667,-0.5 64.8333,-0.5 97.5,-0.5C 97.5,13.8333 97.5,28.1667 97.5,42.5C 96.8333,41.8333 96.1667,41.1667 95.5,40.5C 95.5,39.8333 95.5,39.1667 95.5,38.5C 94.3662,35.9662 92.3662,34.6329 89.5,34.5C 87.7857,33.2616 85.7857,32.595 83.5,32.5C 81.9826,32.4894 80.8159,31.8228 80,30.5C 77.4072,24.9781 74.5739,19.6448 71.5,14.5C 71.0269,13.0937 70.0269,12.427 68.5,12.5C 66.4504,10.4525 64.117,8.78588 61.5,7.5C 56.4693,4.6554 51.1359,2.32207 45.5,0.5C 44.0783,0.708577 42.745,1.20858 41.5,2C 28.0208,14.2355 14.3542,26.2355 0.5,38C 0.728446,38.3988 1.06178,38.5654 1.5,38.5C 13.1316,64.4298 25.7982,89.7631 39.5,114.5C 45.0687,114.624 50.402,113.957 55.5,112.5C 59.7051,112.283 63.7051,111.617 67.5,110.5C 68.8333,110.5 70.1667,110.5 71.5,110.5C 72.6649,105.367 73.3315,100.034 73.5,94.5C 73.3398,92.8008 73.5065,91.1341 74,89.5C 81.6971,82.6337 89.1971,75.6337 96.5,68.5C 96.8333,68.5 97.1667,68.5 97.5,68.5C 97.5,84.1667 97.5,99.8333 97.5,115.5C 64.8333,115.5 32.1667,115.5 -0.5,115.5C -0.5,76.8333 -0.5,38.1667 -0.5,-0.5 Z"/></g>
<g><path style="opacity:1" fill="#a17e7b" d="M 89.5,34.5 C 92.3662,34.6329 94.3662,35.9662 95.5,38.5C 93.081,37.6359 91.081,36.3026 89.5,34.5 Z"/></g>
<g><path style="opacity:1" fill="#c7867e" d="M 83.5,32.5 C 85.7857,32.595 87.7857,33.2616 89.5,34.5C 86.9179,34.9746 84.9179,34.3079 83.5,32.5 Z"/></g>
<g><path style="opacity:1" fill="#7d736e" d="M 45.5,0.5 C 35.2906,9.70526 25.2906,19.3719 15.5,29.5C 10.7755,32.5865 6.10885,35.5865 1.5,38.5C 1.06178,38.5654 0.728446,38.3988 0.5,38C 14.3542,26.2355 28.0208,14.2355 41.5,2C 42.745,1.20858 44.0783,0.708577 45.5,0.5 Z"/></g>
<g><path style="opacity:1" fill="#b2837e" d="M 68.5,12.5 C 70.0269,12.427 71.0269,13.0937 71.5,14.5C 69.8212,14.7148 68.8212,14.0481 68.5,12.5 Z"/></g>
<g><path style="opacity:1" fill="#98726e" d="M 61.5,7.5 C 64.117,8.78588 66.4504,10.4525 68.5,12.5C 65.2864,12.0603 62.953,10.3937 61.5,7.5 Z"/></g>
<g><path style="opacity:1" fill="#9e8c89" d="M 73.5,94.5 C 73.3315,100.034 72.6649,105.367 71.5,110.5C 71.3342,105.821 71.5008,101.155 72,96.5C 72.2784,95.5842 72.7784,94.9175 73.5,94.5 Z"/></g>
<g><path style="opacity:1" fill="#c18781" d="M 67.5,110.5 C 63.7051,111.617 59.7051,112.283 55.5,112.5C 54.8333,112.5 54.1667,112.5 53.5,112.5C 57.7147,110.564 62.3814,109.897 67.5,110.5 Z"/></g>
<g><path style="opacity:1" fill="#828282" d="M 53.5,112.5 C 54.1667,112.5 54.8333,112.5 55.5,112.5C 50.402,113.957 45.0687,114.624 39.5,114.5C 43.7147,112.564 48.3814,111.897 53.5,112.5 Z"/></g>
</svg>
