<?xml version="1.0" encoding="UTF-8"?>
<!DOCTYPE svg PUBLIC "-//W3C//DTD SVG 1.1//EN" "http://www.w3.org/Graphics/SVG/1.1/DTD/svg11.dtd">
<svg xmlns="http://www.w3.org/2000/svg" version="1.1" width="497px" height="670px" style="shape-rendering:geometricPrecision; text-rendering:geometricPrecision; image-rendering:optimizeQuality; fill-rule:evenodd; clip-rule:evenodd" xmlns:xlink="http://www.w3.org/1999/xlink">
<g><path style="opacity:1" fill="#fefefe" d="M -0.5,-0.5 C 45.5,-0.5 91.5,-0.5 137.5,-0.5C 137.5,-0.166667 137.5,0.166667 137.5,0.5C 131.727,0.437587 126.061,1.10425 120.5,2.5C 118.597,2.79586 116.93,3.46253 115.5,4.5C 103.335,6.5325 91.3349,9.19917 79.5,12.5C 77.9731,12.427 76.9731,13.0937 76.5,14.5C 72.9206,14.3163 69.5873,14.983 66.5,16.5C 61.8785,18.6229 57.2118,20.6229 52.5,22.5C 51.7025,22.9569 51.3691,23.6236 51.5,24.5C 50.8333,24.5 50.1667,24.5 49.5,24.5C 46.5663,25.4668 43.8996,26.8001 41.5,28.5C 40.2905,28.9321 39.2905,29.5987 38.5,30.5C 37.0048,30.9887 35.6715,31.6554 34.5,32.5C 32.8684,32.8247 31.8684,33.8247 31.5,35.5C 28.4973,44.4767 25.8307,53.4767 23.5,62.5C 16.5251,70.4757 9.19177,78.1423 1.5,85.5C 0.833333,85.5 0.166667,85.5 -0.5,85.5C -0.5,56.8333 -0.5,28.1667 -0.5,-0.5 Z"/></g>
<g><path style="opacity:1" fill="#fefefe" d="M 137.5,-0.5 C 257.167,-0.5 376.833,-0.5 496.5,-0.5C 496.5,98.1667 496.5,196.833 496.5,295.5C 495.833,295.5 495.167,295.5 494.5,295.5C 494.5,295.167 494.5,294.833 494.5,294.5C 494.333,290.821 492.666,288.154 489.5,286.5C 489.5,285.833 489.5,285.167 489.5,284.5C 489.011,283.005 488.345,281.671 487.5,280.5C 487.011,279.005 486.345,277.671 485.5,276.5C 482.696,273.713 479.363,271.713 475.5,270.5C 474.833,270.5 474.167,270.5 473.5,270.5C 473.5,269.167 472.833,268.5 471.5,268.5C 470.833,268.5 470.167,268.5 469.5,268.5C 469.586,267.504 469.252,266.671 468.5,266C 464.833,265.667 461.167,265.333 457.5,265C 455.035,264.368 453.369,262.868 452.5,260.5C 454.076,258.021 455.076,255.354 455.5,252.5C 456.167,252.5 456.833,252.5 457.5,252.5C 460.315,248.789 460.981,244.789 459.5,240.5C 459.011,239.005 458.345,237.671 457.5,236.5C 456.675,233.516 455.341,230.849 453.5,228.5C 453.5,227.167 453.5,225.833 453.5,224.5C 452.948,217.686 452.281,211.019 451.5,204.5C 449.523,202.047 446.856,200.714 443.5,200.5C 440.67,200.306 438.004,199.639 435.5,198.5C 435.027,197.094 434.027,196.427 432.5,196.5C 431.662,196.158 431.328,195.492 431.5,194.5C 431.068,193.29 430.401,192.29 429.5,191.5C 429.5,191.167 429.5,190.833 429.5,190.5C 429.011,189.005 428.345,187.671 427.5,186.5C 427.011,185.005 426.345,183.671 425.5,182.5C 425.101,178.989 424.434,175.656 423.5,172.5C 421.411,170.746 419.078,169.413 416.5,168.5C 416.5,167.167 415.833,166.5 414.5,166.5C 414.167,166.5 413.833,166.5 413.5,166.5C 413.5,165.167 412.833,164.5 411.5,164.5C 407.404,162.787 403.07,162.121 398.5,162.5C 397.005,162.989 395.671,163.655 394.5,164.5C 392.571,165.006 390.905,166.006 389.5,167.5C 388.817,167.137 388.15,166.804 387.5,166.5C 386.167,166.5 385.5,165.833 385.5,164.5C 385.011,163.005 384.345,161.671 383.5,160.5C 383.068,159.29 382.401,158.29 381.5,157.5C 381.5,157.167 381.5,156.833 381.5,156.5C 381.223,154.272 380.223,152.605 378.5,151.5C 378.5,150.5 378.5,149.5 378.5,148.5C 378.5,146.833 378.5,145.167 378.5,143.5C 372.967,143.041 368.3,144.707 364.5,148.5C 363.167,148.5 361.833,148.5 360.5,148.5C 357.465,149.734 354.465,149.734 351.5,148.5C 348.67,148.306 346.004,147.639 343.5,146.5C 342.73,144.065 341.063,142.731 338.5,142.5C 338.167,142.5 337.833,142.5 337.5,142.5C 337.288,140.616 336.288,139.283 334.5,138.5C 329.309,134.815 323.976,131.482 318.5,128.5C 317.778,127.449 316.778,126.782 315.5,126.5C 314.128,123.466 311.794,121.466 308.5,120.5C 306.463,118.798 304.797,116.798 303.5,114.5C 298.919,110.925 294.586,106.925 290.5,102.5C 286.796,101.767 283.129,101.1 279.5,100.5C 278.833,100.5 278.167,100.5 277.5,100.5C 275.996,96.8177 273.996,93.4844 271.5,90.5C 269.33,88.9138 266.996,87.5804 264.5,86.5C 264.586,85.5041 264.252,84.6708 263.5,84C 255.605,84.0042 247.938,82.8376 240.5,80.5C 240.167,80.5 239.833,80.5 239.5,80.5C 239.5,79.1667 238.833,78.5 237.5,78.5C 235.118,76.9539 232.451,76.2872 229.5,76.5C 227.786,75.2616 225.786,74.595 223.5,74.5C 221.185,76.1417 218.851,77.8084 216.5,79.5C 215.151,79.1543 213.817,78.821 212.5,78.5C 211.122,77.4549 210.122,76.1216 209.5,74.5C 208.73,72.0646 207.063,70.7313 204.5,70.5C 203.833,70.5 203.167,70.5 202.5,70.5C 202.5,69.1667 201.833,68.5 200.5,68.5C 199.833,68.5 199.167,68.5 198.5,68.5C 195.957,66.1149 193.624,63.4483 191.5,60.5C 191.225,54.9014 188.225,52.2347 182.5,52.5C 181.199,51.36 180.032,50.0267 179,48.5C 178.667,45.1667 178.333,41.8333 178,38.5C 175.905,36.9107 174.405,34.9107 173.5,32.5C 172.47,29.8962 172.47,27.2295 173.5,24.5C 173.5,23.1667 173.5,21.8333 173.5,20.5C 173.5,19.5 173.5,18.5 173.5,17.5C 171.179,16.5233 168.846,15.5233 166.5,14.5C 166.167,14.5 165.833,14.5 165.5,14.5C 165.5,13.1667 164.833,12.5 163.5,12.5C 162.833,12.5 162.167,12.5 161.5,12.5C 156.637,11.7344 151.637,11.0678 146.5,10.5C 145.833,10.5 145.167,10.5 144.5,10.5C 144.5,9.16667 143.833,8.5 142.5,8.5C 141.662,8.15829 141.328,7.49162 141.5,6.5C 141.144,4.81018 140.144,3.81018 138.5,3.5C 137.89,2.60895 137.557,1.60895 137.5,0.5C 137.5,0.166667 137.5,-0.166667 137.5,-0.5 Z"/></g>
<g><path style="opacity:1" fill="#8a9fdd" d="M 137.5,0.5 C 137.557,1.60895 137.89,2.60895 138.5,3.5C 138.856,5.18982 139.856,6.18982 141.5,6.5C 141.328,7.49162 141.662,8.15829 142.5,8.5C 143.833,8.5 144.5,9.16667 144.5,10.5C 145.167,10.5 145.833,10.5 146.5,10.5C 146.611,11.1174 146.944,11.6174 147.5,12C 152.155,12.4992 156.821,12.6658 161.5,12.5C 162.167,12.5 162.833,12.5 163.5,12.5C 164.833,12.5 165.5,13.1667 165.5,14.5C 165.833,14.5 166.167,14.5 166.5,14.5C 168.546,16.7601 170.88,18.7601 173.5,20.5C 173.5,21.8333 173.5,23.1667 173.5,24.5C 172.102,25.7767 171.436,27.4434 171.5,29.5C 171.64,31.0296 172.307,32.0296 173.5,32.5C 174.405,34.9107 175.905,36.9107 178,38.5C 178.333,41.8333 178.667,45.1667 179,48.5C 180.032,50.0267 181.199,51.36 182.5,52.5C 184.116,53.9892 186.116,54.9892 188.5,55.5C 188.784,57.7594 189.784,59.4261 191.5,60.5C 192.061,64.6624 194.394,67.3291 198.5,68.5C 199.167,68.5 199.833,68.5 200.5,68.5C 201.833,68.5 202.5,69.1667 202.5,70.5C 203.167,70.5 203.833,70.5 204.5,70.5C 205.656,72.3873 207.323,73.7206 209.5,74.5C 210.122,76.1216 211.122,77.4549 212.5,78.5C 213.152,79.7251 214.319,80.3917 216,80.5C 218.878,79.7679 221.378,78.4345 223.5,76.5C 225.5,76.5 227.5,76.5 229.5,76.5C 232.451,76.2872 235.118,76.9539 237.5,78.5C 238.833,78.5 239.5,79.1667 239.5,80.5C 239.833,80.5 240.167,80.5 240.5,80.5C 241.678,81.9986 243.345,82.9986 245.5,83.5C 252.006,84.0068 258.339,85.0068 264.5,86.5C 266.996,87.5804 269.33,88.9138 271.5,90.5C 271.238,91.9778 271.571,93.3112 272.5,94.5C 273.728,97.0125 275.395,99.0125 277.5,100.5C 278.167,100.5 278.833,100.5 279.5,100.5C 282.403,102.104 285.737,103.104 289.5,103.5C 292.833,106.833 296.167,110.167 299.5,113.5C 300.689,114.429 302.022,114.762 303.5,114.5C 304.797,116.798 306.463,118.798 308.5,120.5C 310.498,122.827 312.832,124.827 315.5,126.5C 316.778,126.782 317.778,127.449 318.5,128.5C 324.565,133.436 330.899,138.102 337.5,142.5C 337.833,142.5 338.167,142.5 338.5,142.5C 339.656,144.387 341.323,145.721 343.5,146.5C 346.004,147.639 348.67,148.306 351.5,148.5C 352.334,149.748 353.667,150.415 355.5,150.5C 356.833,150.333 358.167,150.167 359.5,150C 360.056,149.617 360.389,149.117 360.5,148.5C 361.833,148.5 363.167,148.5 364.5,148.5C 368.58,146.458 372.913,145.125 377.5,144.5C 377.232,146.099 377.566,147.432 378.5,148.5C 378.5,149.5 378.5,150.5 378.5,151.5C 378.777,153.728 379.777,155.395 381.5,156.5C 381.5,156.833 381.5,157.167 381.5,157.5C 381.285,159.179 381.952,160.179 383.5,160.5C 383.157,162.483 383.824,163.817 385.5,164.5C 385.5,165.833 386.167,166.5 387.5,166.5C 387.62,167.586 388.287,168.253 389.5,168.5C 391.731,167.691 393.398,166.357 394.5,164.5C 396.483,164.843 397.817,164.176 398.5,162.5C 403.07,162.121 407.404,162.787 411.5,164.5C 412.833,164.5 413.5,165.167 413.5,166.5C 413.833,166.5 414.167,166.5 414.5,166.5C 415.833,166.5 416.5,167.167 416.5,168.5C 419.078,169.413 421.411,170.746 423.5,172.5C 423.336,175.187 423.503,177.854 424,180.5C 424.278,181.416 424.778,182.082 425.5,182.5C 425.157,184.483 425.824,185.817 427.5,186.5C 427.157,188.483 427.824,189.817 429.5,190.5C 429.5,190.833 429.5,191.167 429.5,191.5C 429.285,193.179 429.952,194.179 431.5,194.5C 431.328,195.492 431.662,196.158 432.5,196.5C 432.973,197.906 433.973,198.573 435.5,198.5C 438.004,199.639 440.67,200.306 443.5,200.5C 445.843,202.189 448.51,203.523 451.5,204.5C 451.334,210.509 451.501,216.509 452,222.5C 452.278,223.416 452.778,224.082 453.5,224.5C 453.5,225.833 453.5,227.167 453.5,228.5C 453.819,231.806 455.153,234.473 457.5,236.5C 457.157,238.483 457.824,239.817 459.5,240.5C 459.428,244.626 458.761,248.626 457.5,252.5C 456.833,252.5 456.167,252.5 455.5,252.5C 452.427,255.634 451.427,259.301 452.5,263.5C 453.665,264.584 454.998,265.417 456.5,266C 461.052,266.115 465.385,266.948 469.5,268.5C 470.167,268.5 470.833,268.5 471.5,268.5C 472.833,268.5 473.5,269.167 473.5,270.5C 474.167,270.5 474.833,270.5 475.5,270.5C 477.359,272.13 479.359,273.796 481.5,275.5C 482.689,276.429 484.022,276.762 485.5,276.5C 485.157,278.483 485.824,279.817 487.5,280.5C 487.157,282.483 487.824,283.817 489.5,284.5C 489.5,285.167 489.5,285.833 489.5,286.5C 491.17,289.175 492.836,291.841 494.5,294.5C 494.5,294.833 494.5,295.167 494.5,295.5C 495.833,298.167 495.833,300.833 494.5,303.5C 494.5,303.833 494.5,304.167 494.5,304.5C 493.069,305.78 492.402,307.447 492.5,309.5C 491.434,311.701 490.767,314.035 490.5,316.5C 486.653,322.559 486.653,328.559 490.5,334.5C 491.015,336.894 491.681,339.228 492.5,341.5C 493.071,342.973 493.071,344.64 492.5,346.5C 491.122,347.545 490.122,348.878 489.5,350.5C 486.446,350.354 484.446,351.687 483.5,354.5C 480.465,354.521 478.132,355.854 476.5,358.5C 477.157,370.471 477.157,382.471 476.5,394.5C 473.468,398.812 472.802,403.479 474.5,408.5C 478.571,413.049 483.571,416.382 489.5,418.5C 489.557,419.609 489.89,420.609 490.5,421.5C 491.833,423.5 491.833,425.5 490.5,427.5C 490.5,427.833 490.5,428.167 490.5,428.5C 488.493,432.936 488.159,437.603 489.5,442.5C 485.194,446.25 481.194,450.25 477.5,454.5C 476.833,454.5 476.167,454.5 475.5,454.5C 468.768,457.555 462.434,456.888 456.5,452.5C 454.625,453.409 453.292,454.743 452.5,456.5C 449.627,458.103 446.627,459.436 443.5,460.5C 435.285,466.287 435.952,471.287 445.5,475.5C 448.086,476.48 450.753,476.813 453.5,476.5C 454.918,478.308 456.918,478.975 459.5,478.5C 463.784,477.923 466.784,479.59 468.5,483.5C 467.82,484.86 467.153,486.193 466.5,487.5C 466.5,487.833 466.5,488.167 466.5,488.5C 464.929,491.996 463.595,495.663 462.5,499.5C 462.5,499.833 462.5,500.167 462.5,500.5C 461.662,500.842 461.328,501.508 461.5,502.5C 459.547,508.074 458.88,514.074 459.5,520.5C 459.736,523.609 459.403,526.609 458.5,529.5C 458.5,531.5 458.5,533.5 458.5,535.5C 458.454,542.258 459.787,548.592 462.5,554.5C 462.5,554.833 462.5,555.167 462.5,555.5C 462.856,557.19 463.856,558.19 465.5,558.5C 466.324,561.764 466.658,565.098 466.5,568.5C 465.167,569.833 463.833,571.167 462.5,572.5C 461.366,574.966 461.199,577.633 462,580.5C 462.383,581.056 462.883,581.389 463.5,581.5C 463.077,583.781 463.744,585.448 465.5,586.5C 465.354,589.554 466.687,591.554 469.5,592.5C 469.328,593.492 469.662,594.158 470.5,594.5C 472.027,597.068 474.361,598.401 477.5,598.5C 478.167,600.5 479.5,601.833 481.5,602.5C 481.157,604.483 481.824,605.817 483.5,606.5C 485.085,611.678 485.752,617.012 485.5,622.5C 483.856,622.81 482.856,623.81 482.5,625.5C 482.5,625.833 482.5,626.167 482.5,626.5C 480.992,628.181 479.992,630.181 479.5,632.5C 478.414,632.62 477.747,633.287 477.5,634.5C 478.046,636.135 478.38,637.801 478.5,639.5C 479.747,642.799 479.747,646.133 478.5,649.5C 478.5,649.833 478.5,650.167 478.5,650.5C 476.992,652.181 475.992,654.181 475.5,656.5C 473.539,657.46 471.873,658.793 470.5,660.5C 468.72,661.99 468.054,663.99 468.5,666.5C 467.5,666.5 466.5,666.5 465.5,666.5C 461.486,666.334 457.486,666.501 453.5,667C 452.944,667.383 452.611,667.883 452.5,668.5C 449.5,668.5 446.5,668.5 443.5,668.5C 443.833,651.154 443.5,633.821 442.5,616.5C 441.735,615.388 440.735,614.721 439.5,614.5C 438.167,614.5 436.833,614.5 435.5,614.5C 432.813,614.336 430.146,614.503 427.5,615C 426.944,615.383 426.611,615.883 426.5,616.5C 425.167,616.5 423.833,616.5 422.5,616.5C 420.821,616.285 419.821,616.952 419.5,618.5C 417.5,618.5 415.5,618.5 413.5,618.5C 410.302,617.964 407.635,618.631 405.5,620.5C 403.833,620.5 402.167,620.5 400.5,620.5C 397.612,619.99 395.279,620.656 393.5,622.5C 388.002,622.048 382.668,622.714 377.5,624.5C 372.787,619.435 368.787,613.768 365.5,607.5C 359.091,600.26 353.258,592.593 348,584.5C 346.754,576.201 345.921,567.868 345.5,559.5C 346.551,558.778 347.218,557.778 347.5,556.5C 350.922,553.809 354.255,551.142 357.5,548.5C 358.043,548.44 358.376,548.107 358.5,547.5C 352.833,529.5 347.167,511.5 341.5,493.5C 340.833,493.167 340.167,492.833 339.5,492.5C 331.82,494.956 324.154,497.456 316.5,500C 309.511,501.665 302.511,503.165 295.5,504.5C 294.204,499.938 293.538,495.271 293.5,490.5C 288.037,490.689 282.704,491.355 277.5,492.5C 275.473,492.338 273.473,492.505 271.5,493C 270.944,493.383 270.611,493.883 270.5,494.5C 262.177,493.95 254.51,495.616 247.5,499.5C 245.621,500.341 243.621,500.675 241.5,500.5C 239.517,500.157 238.183,500.824 237.5,502.5C 236.5,502.5 235.5,502.5 234.5,502.5C 227.903,504.473 221.57,506.806 215.5,509.5C 213.621,510.341 211.621,510.675 209.5,510.5C 207.971,511.347 206.304,512.014 204.5,512.5C 200.599,510.771 197.433,508.104 195,504.5C 193.828,492.312 192.328,480.312 190.5,468.5C 189.89,467.609 189.557,466.609 189.5,465.5C 187.867,461.536 185.2,458.536 181.5,456.5C 180.622,453.944 179.289,451.61 177.5,449.5C 176.412,448.066 175.078,447.066 173.5,446.5C 168.915,439.067 164.082,431.733 159,424.5C 156.934,410.874 155.101,397.207 153.5,383.5C 153.36,381.97 152.693,380.97 151.5,380.5C 151.5,379.833 151.5,379.167 151.5,378.5C 153.984,372.569 152.318,368.569 146.5,366.5C 144.849,364.876 142.849,363.543 140.5,362.5C 137.082,358.688 136.749,354.688 139.5,350.5C 140.167,350.5 140.833,350.5 141.5,350.5C 143.301,349.281 144.301,347.448 144.5,345C 144.252,343.251 143.252,342.418 141.5,342.5C 141.672,341.508 141.338,340.842 140.5,340.5C 139.77,339.288 138.77,338.288 137.5,337.5C 138.73,334.524 138.73,331.524 137.5,328.5C 138.225,327.133 138.892,325.8 139.5,324.5C 140.167,324.5 140.833,324.5 141.5,324.5C 143.134,323.419 144.467,322.085 145.5,320.5C 146.833,320.5 147.5,319.833 147.5,318.5C 149.078,315.672 150.411,312.672 151.5,309.5C 151.5,309.167 151.5,308.833 151.5,308.5C 152.013,305.517 151.347,302.517 149.5,299.5C 146.361,295.679 142.694,292.679 138.5,290.5C 138.5,289.5 138.5,288.5 138.5,287.5C 138.5,286.167 138.5,284.833 138.5,283.5C 138.665,280.482 138.498,277.482 138,274.5C 137.021,268.22 135.521,262.22 133.5,256.5C 132.508,256.672 131.842,256.338 131.5,255.5C 120.42,250.78 110.42,244.113 101.5,235.5C 100.339,233.115 99.3385,230.781 98.5,228.5C 98.5,228.167 98.5,227.833 98.5,227.5C 98.6103,222.967 96.9436,219.3 93.5,216.5C 91.8784,215.878 90.5451,214.878 89.5,213.5C 86.5051,210.857 84.5051,207.523 83.5,203.5C 78.9509,200.005 74.6176,196.338 70.5,192.5C 67.2743,187.053 64.2743,181.387 61.5,175.5C 61.0431,174.702 60.3764,174.369 59.5,174.5C 59.5,174.167 59.5,173.833 59.5,173.5C 58.3752,170.096 56.3752,167.263 53.5,165C 48.9403,161.718 43.9403,159.551 38.5,158.5C 34.8325,155.374 30.4992,153.374 25.5,152.5C 25.5,151.833 25.5,151.167 25.5,150.5C 23.5487,147.87 21.5487,145.204 19.5,142.5C 21.8042,135.803 19.4709,131.803 12.5,130.5C 8.12969,127.418 6.12969,123.085 6.5,117.5C 6.85499,113.079 7.68832,108.746 9,104.5C 11.4355,96.0368 8.60215,90.3701 0.5,87.5C 0.862734,86.8165 1.19607,86.1499 1.5,85.5C 9.19177,78.1423 16.5251,70.4757 23.5,62.5C 24.8923,60.7274 26.059,58.7274 27,56.5C 28.6703,48.18 31.1703,40.18 34.5,32.5C 36.4832,32.8432 37.8166,32.1765 38.5,30.5C 40.1788,30.7148 41.1788,30.0481 41.5,28.5C 44.8992,28.3915 47.5659,27.0582 49.5,24.5C 50.1667,24.5 50.8333,24.5 51.5,24.5C 55.4555,22.8595 59.4555,21.1928 63.5,19.5C 64.9935,18.8589 65.9935,17.8589 66.5,16.5C 69.5873,14.983 72.9206,14.3163 76.5,14.5C 78.1788,14.7148 79.1788,14.0481 79.5,12.5C 91.3349,9.19917 103.335,6.5325 115.5,4.5C 117.698,4.87988 119.365,4.21321 120.5,2.5C 126.061,1.10425 131.727,0.437587 137.5,0.5 Z"/></g>
<g><path style="opacity:1" fill="#9ea8c2" d="M 120.5,2.5 C 119.365,4.21321 117.698,4.87988 115.5,4.5C 116.93,3.46253 118.597,2.79586 120.5,2.5 Z"/></g>
<g><path style="opacity:1" fill="#b8bcc7" d="M 138.5,3.5 C 140.144,3.81018 141.144,4.81018 141.5,6.5C 139.856,6.18982 138.856,5.18982 138.5,3.5 Z"/></g>
<g><path style="opacity:1" fill="#a6adc4" d="M 142.5,8.5 C 143.833,8.5 144.5,9.16667 144.5,10.5C 143.167,10.5 142.5,9.83333 142.5,8.5 Z"/></g>
<g><path style="opacity:1" fill="#9ea8c4" d="M 146.5,10.5 C 151.637,11.0678 156.637,11.7344 161.5,12.5C 156.821,12.6658 152.155,12.4992 147.5,12C 146.944,11.6174 146.611,11.1174 146.5,10.5 Z"/></g>
<g><path style="opacity:1" fill="#a5acc3" d="M 79.5,12.5 C 79.1788,14.0481 78.1788,14.7148 76.5,14.5C 76.9731,13.0937 77.9731,12.427 79.5,12.5 Z"/></g>
<g><path style="opacity:1" fill="#a5abc3" d="M 163.5,12.5 C 164.833,12.5 165.5,13.1667 165.5,14.5C 164.167,14.5 163.5,13.8333 163.5,12.5 Z"/></g>
<g><path style="opacity:1" fill="#afb5c6" d="M 166.5,14.5 C 168.846,15.5233 171.179,16.5233 173.5,17.5C 173.5,18.5 173.5,19.5 173.5,20.5C 170.88,18.7601 168.546,16.7601 166.5,14.5 Z"/></g>
<g><path style="opacity:1" fill="#aeb4c7" d="M 66.5,16.5 C 65.9935,17.8589 64.9935,18.8589 63.5,19.5C 59.4555,21.1928 55.4555,22.8595 51.5,24.5C 51.3691,23.6236 51.7025,22.9569 52.5,22.5C 57.2118,20.6229 61.8785,18.6229 66.5,16.5 Z"/></g>
<g><path style="opacity:1" fill="#babdc9" d="M 49.5,24.5 C 47.5659,27.0582 44.8992,28.3915 41.5,28.5C 43.8996,26.8001 46.5663,25.4668 49.5,24.5 Z"/></g>
<g><path style="opacity:1" fill="#b6bcc7" d="M 41.5,28.5 C 41.1788,30.0481 40.1788,30.7148 38.5,30.5C 39.2905,29.5987 40.2905,28.9321 41.5,28.5 Z"/></g>
<g><path style="opacity:1" fill="#bcbfca" d="M 38.5,30.5 C 37.8166,32.1765 36.4832,32.8432 34.5,32.5C 35.6715,31.6554 37.0048,30.9887 38.5,30.5 Z"/></g>
<g><path style="opacity:1" fill="#b8bcc7" d="M 173.5,24.5 C 172.47,27.2295 172.47,29.8962 173.5,32.5C 172.307,32.0296 171.64,31.0296 171.5,29.5C 171.436,27.4434 172.102,25.7767 173.5,24.5 Z"/></g>
<g><path style="opacity:1" fill="#bdc1ca" d="M 34.5,32.5 C 31.1703,40.18 28.6703,48.18 27,56.5C 26.059,58.7274 24.8923,60.7274 23.5,62.5C 25.8307,53.4767 28.4973,44.4767 31.5,35.5C 31.8684,33.8247 32.8684,32.8247 34.5,32.5 Z"/></g>
<g><path style="opacity:1" fill="#b3b8c6" d="M 182.5,52.5 C 188.225,52.2347 191.225,54.9014 191.5,60.5C 189.784,59.4261 188.784,57.7594 188.5,55.5C 186.116,54.9892 184.116,53.9892 182.5,52.5 Z"/></g>
<g><path style="opacity:1" fill="#bbbeca" d="M 191.5,60.5 C 193.624,63.4483 195.957,66.1149 198.5,68.5C 194.394,67.3291 192.061,64.6624 191.5,60.5 Z"/></g>
<g><path style="opacity:1" fill="#a7aec4" d="M 200.5,68.5 C 201.833,68.5 202.5,69.1667 202.5,70.5C 201.167,70.5 200.5,69.8333 200.5,68.5 Z"/></g>
<g><path style="opacity:1" fill="#b5bac7" d="M 204.5,70.5 C 207.063,70.7313 208.73,72.0646 209.5,74.5C 207.323,73.7206 205.656,72.3873 204.5,70.5 Z"/></g>
<g><path style="opacity:1" fill="#9aa5c6" d="M 223.5,74.5 C 225.786,74.595 227.786,75.2616 229.5,76.5C 227.5,76.5 225.5,76.5 223.5,76.5C 223.5,75.8333 223.5,75.1667 223.5,74.5 Z"/></g>
<g><path style="opacity:1" fill="#c0c3cc" d="M 223.5,74.5 C 223.5,75.1667 223.5,75.8333 223.5,76.5C 221.378,78.4345 218.878,79.7679 216,80.5C 214.319,80.3917 213.152,79.7251 212.5,78.5C 213.817,78.821 215.151,79.1543 216.5,79.5C 218.851,77.8084 221.185,76.1417 223.5,74.5 Z"/></g>
<g><path style="opacity:1" fill="#a3adc2" d="M 237.5,78.5 C 238.833,78.5 239.5,79.1667 239.5,80.5C 238.167,80.5 237.5,79.8333 237.5,78.5 Z"/></g>
<g><path style="opacity:1" fill="#c6c8cf" d="M 240.5,80.5 C 247.938,82.8376 255.605,84.0042 263.5,84C 264.252,84.6708 264.586,85.5041 264.5,86.5C 258.339,85.0068 252.006,84.0068 245.5,83.5C 243.345,82.9986 241.678,81.9986 240.5,80.5 Z"/></g>
<g><path style="opacity:1" fill="#fefefe" d="M -0.5,89.5 C 3.4162,89.9713 6.24953,91.9713 8,95.5C 6.68824,104.764 6.02158,114.097 6,123.5C 6.62653,127.292 8.79319,129.626 12.5,130.5C 15.1998,132.419 17.5332,134.752 19.5,137.5C 17.4485,143.672 19.4485,148.005 25.5,150.5C 25.5,151.167 25.5,151.833 25.5,152.5C 29.6027,154.874 33.936,156.874 38.5,158.5C 43.2165,160.701 47.8832,163.201 52.5,166C 54.9565,168.437 57.2898,170.937 59.5,173.5C 59.5,173.833 59.5,174.167 59.5,174.5C 62.4867,180.473 65.4867,186.473 68.5,192.5C 68.9569,193.298 69.6236,193.631 70.5,193.5C 70.5106,195.017 71.1772,196.184 72.5,197C 79.1294,199.795 83.4628,204.628 85.5,211.5C 86.5237,212.853 87.857,213.52 89.5,213.5C 90.5451,214.878 91.8784,215.878 93.5,216.5C 95.2104,220.191 96.8771,223.857 98.5,227.5C 98.5,227.833 98.5,228.167 98.5,228.5C 98.4526,234.07 100.786,238.403 105.5,241.5C 110.709,245.548 116.042,249.381 121.5,253C 124.779,254.149 128.113,254.982 131.5,255.5C 131.842,256.338 132.508,256.672 133.5,256.5C 134.862,265.688 136.529,274.688 138.5,283.5C 138.5,284.833 138.5,286.167 138.5,287.5C 137.566,288.568 137.232,289.901 137.5,291.5C 144.713,295.048 149.38,300.715 151.5,308.5C 151.5,308.833 151.5,309.167 151.5,309.5C 148.841,311.824 147.508,314.824 147.5,318.5C 147.5,319.833 146.833,320.5 145.5,320.5C 144.292,321.234 142.959,321.567 141.5,321.5C 141.5,322.5 141.5,323.5 141.5,324.5C 140.833,324.5 140.167,324.5 139.5,324.5C 137.62,325.078 136.62,326.412 136.5,328.5C 137.675,331.517 137.675,334.517 136.5,337.5C 137.1,339.468 138.433,340.468 140.5,340.5C 141.338,340.842 141.672,341.508 141.5,342.5C 143.294,344.893 143.294,347.56 141.5,350.5C 140.833,350.5 140.167,350.5 139.5,350.5C 138.85,350.804 138.183,351.137 137.5,351.5C 135.145,359.797 138.145,364.797 146.5,366.5C 148.134,367.972 149.634,369.638 151,371.5C 150.895,374.028 151.062,376.362 151.5,378.5C 151.5,379.167 151.5,379.833 151.5,380.5C 153.773,395.444 155.94,410.444 158,425.5C 159.167,427.833 160.333,430.167 161.5,432.5C 165.554,437.272 169.554,441.939 173.5,446.5C 175.697,450.238 178.364,453.571 181.5,456.5C 183.875,459.869 186.542,462.869 189.5,465.5C 189.557,466.609 189.89,467.609 190.5,468.5C 191.289,480.877 192.455,493.21 194,505.5C 195.983,507.984 198.15,510.317 200.5,512.5C 203.106,513.652 205.773,513.818 208.5,513C 209.252,512.329 209.586,511.496 209.5,510.5C 211.621,510.675 213.621,510.341 215.5,509.5C 221.117,508.133 226.783,506.633 232.5,505C 233.381,504.292 234.047,503.458 234.5,502.5C 235.5,502.5 236.5,502.5 237.5,502.5C 238.995,502.011 240.329,501.345 241.5,500.5C 243.621,500.675 245.621,500.341 247.5,499.5C 255.377,496.983 263.377,495.317 271.5,494.5C 273.379,493.659 275.379,493.325 277.5,493.5C 282.693,493.56 287.693,492.893 292.5,491.5C 292.538,496.271 293.204,500.938 294.5,505.5C 310.171,503.381 325.171,499.381 339.5,493.5C 345.774,511.721 351.774,530.055 357.5,548.5C 353.029,549.737 349.696,552.403 347.5,556.5C 347.218,557.778 346.551,558.778 345.5,559.5C 344.84,560.964 344.507,562.631 344.5,564.5C 345.251,571.51 346.085,578.51 347,585.5C 352.289,593.617 358.122,601.284 364.5,608.5C 367.833,613.833 371.167,619.167 374.5,624.5C 375.5,624.833 376.5,625.167 377.5,625.5C 383.239,624.113 388.905,623.113 394.5,622.5C 396.5,621.833 398.5,621.167 400.5,620.5C 402.167,620.5 403.833,620.5 405.5,620.5C 408.28,619.922 410.947,619.255 413.5,618.5C 415.5,618.5 417.5,618.5 419.5,618.5C 421.027,618.573 422.027,617.906 422.5,616.5C 423.833,616.5 425.167,616.5 426.5,616.5C 429.655,616.01 432.655,615.344 435.5,614.5C 436.833,614.5 438.167,614.5 439.5,614.5C 439.415,615.995 440.081,616.995 441.5,617.5C 442.5,634.821 442.833,652.154 442.5,669.5C 294.833,669.5 147.167,669.5 -0.5,669.5C -0.5,476.167 -0.5,282.833 -0.5,89.5 Z"/></g>
<g><path style="opacity:1" fill="#c1c4cc" d="M 271.5,90.5 C 273.996,93.4844 275.996,96.8177 277.5,100.5C 275.395,99.0125 273.728,97.0125 272.5,94.5C 271.571,93.3112 271.238,91.9778 271.5,90.5 Z"/></g>
<g><path style="opacity:1" fill="#c5c7cc" d="M -0.5,85.5 C 0.166667,85.5 0.833333,85.5 1.5,85.5C 1.19607,86.1499 0.862734,86.8165 0.5,87.5C 8.60215,90.3701 11.4355,96.0368 9,104.5C 7.68832,108.746 6.85499,113.079 6.5,117.5C 6.12969,123.085 8.12969,127.418 12.5,130.5C 8.79319,129.626 6.62653,127.292 6,123.5C 6.02158,114.097 6.68824,104.764 8,95.5C 6.24953,91.9713 3.4162,89.9713 -0.5,89.5C -0.5,88.1667 -0.5,86.8333 -0.5,85.5 Z"/></g>
<g><path style="opacity:1" fill="#b8bcc9" d="M 279.5,100.5 C 283.129,101.1 286.796,101.767 290.5,102.5C 294.586,106.925 298.919,110.925 303.5,114.5C 302.022,114.762 300.689,114.429 299.5,113.5C 296.167,110.167 292.833,106.833 289.5,103.5C 285.737,103.104 282.403,102.104 279.5,100.5 Z"/></g>
<g><path style="opacity:1" fill="#b3b8c7" d="M 308.5,120.5 C 311.794,121.466 314.128,123.466 315.5,126.5C 312.832,124.827 310.498,122.827 308.5,120.5 Z"/></g>
<g><path style="opacity:1" fill="#b9bcc9" d="M 318.5,128.5 C 323.976,131.482 329.309,134.815 334.5,138.5C 336.288,139.283 337.288,140.616 337.5,142.5C 330.899,138.102 324.565,133.436 318.5,128.5 Z"/></g>
<g><path style="opacity:1" fill="#aab1c6" d="M 338.5,142.5 C 341.063,142.731 342.73,144.065 343.5,146.5C 341.323,145.721 339.656,144.387 338.5,142.5 Z"/></g>
<g><path style="opacity:1" fill="#b9bcc9" d="M 378.5,148.5 C 377.566,147.432 377.232,146.099 377.5,144.5C 372.913,145.125 368.58,146.458 364.5,148.5C 368.3,144.707 372.967,143.041 378.5,143.5C 378.5,145.167 378.5,146.833 378.5,148.5 Z"/></g>
<g><path style="opacity:1" fill="#c0c3cb" d="M 12.5,130.5 C 19.4709,131.803 21.8042,135.803 19.5,142.5C 21.5487,145.204 23.5487,147.87 25.5,150.5C 19.4485,148.005 17.4485,143.672 19.5,137.5C 17.5332,134.752 15.1998,132.419 12.5,130.5 Z"/></g>
<g><path style="opacity:1" fill="#9fa8c2" d="M 351.5,148.5 C 354.465,149.734 357.465,149.734 360.5,148.5C 360.389,149.117 360.056,149.617 359.5,150C 358.167,150.167 356.833,150.333 355.5,150.5C 353.667,150.415 352.334,149.748 351.5,148.5 Z"/></g>
<g><path style="opacity:1" fill="#bfc1ca" d="M 25.5,152.5 C 30.4992,153.374 34.8325,155.374 38.5,158.5C 33.936,156.874 29.6027,154.874 25.5,152.5 Z"/></g>
<g><path style="opacity:1" fill="#c1c3ca" d="M 378.5,151.5 C 380.223,152.605 381.223,154.272 381.5,156.5C 379.777,155.395 378.777,153.728 378.5,151.5 Z"/></g>
<g><path style="opacity:1" fill="#bbbec7" d="M 381.5,157.5 C 382.401,158.29 383.068,159.29 383.5,160.5C 381.952,160.179 381.285,159.179 381.5,157.5 Z"/></g>
<g><path style="opacity:1" fill="#bcc0ca" d="M 38.5,158.5 C 43.9403,159.551 48.9403,161.718 53.5,165C 56.3752,167.263 58.3752,170.096 59.5,173.5C 57.2898,170.937 54.9565,168.437 52.5,166C 47.8832,163.201 43.2165,160.701 38.5,158.5 Z"/></g>
<g><path style="opacity:1" fill="#bbbec8" d="M 383.5,160.5 C 384.345,161.671 385.011,163.005 385.5,164.5C 383.824,163.817 383.157,162.483 383.5,160.5 Z"/></g>
<g><path style="opacity:1" fill="#bdc1ca" d="M 398.5,162.5 C 397.817,164.176 396.483,164.843 394.5,164.5C 395.671,163.655 397.005,162.989 398.5,162.5 Z"/></g>
<g><path style="opacity:1" fill="#a4abc3" d="M 411.5,164.5 C 412.833,164.5 413.5,165.167 413.5,166.5C 412.167,166.5 411.5,165.833 411.5,164.5 Z"/></g>
<g><path style="opacity:1" fill="#aab1c5" d="M 394.5,164.5 C 393.398,166.357 391.731,167.691 389.5,168.5C 388.287,168.253 387.62,167.586 387.5,166.5C 388.15,166.804 388.817,167.137 389.5,167.5C 390.905,166.006 392.571,165.006 394.5,164.5 Z"/></g>
<g><path style="opacity:1" fill="#a6adc4" d="M 414.5,166.5 C 415.833,166.5 416.5,167.167 416.5,168.5C 415.167,168.5 414.5,167.833 414.5,166.5 Z"/></g>
<g><path style="opacity:1" fill="#c7c7cc" d="M 423.5,172.5 C 424.434,175.656 425.101,178.989 425.5,182.5C 424.778,182.082 424.278,181.416 424,180.5C 423.503,177.854 423.336,175.187 423.5,172.5 Z"/></g>
<g><path style="opacity:1" fill="#cdcdd0" d="M 59.5,174.5 C 60.3764,174.369 61.0431,174.702 61.5,175.5C 64.2743,181.387 67.2743,187.053 70.5,192.5C 70.5,192.833 70.5,193.167 70.5,193.5C 69.6236,193.631 68.9569,193.298 68.5,192.5C 65.4867,186.473 62.4867,180.473 59.5,174.5 Z"/></g>
<g><path style="opacity:1" fill="#bbbec8" d="M 425.5,182.5 C 426.345,183.671 427.011,185.005 427.5,186.5C 425.824,185.817 425.157,184.483 425.5,182.5 Z"/></g>
<g><path style="opacity:1" fill="#bbbfc9" d="M 427.5,186.5 C 428.345,187.671 429.011,189.005 429.5,190.5C 427.824,189.817 427.157,188.483 427.5,186.5 Z"/></g>
<g><path style="opacity:1" fill="#bbbec7" d="M 429.5,191.5 C 430.401,192.29 431.068,193.29 431.5,194.5C 429.952,194.179 429.285,193.179 429.5,191.5 Z"/></g>
<g><path style="opacity:1" fill="#9ca5c0" d="M 432.5,196.5 C 434.027,196.427 435.027,197.094 435.5,198.5C 433.973,198.573 432.973,197.906 432.5,196.5 Z"/></g>
<g><path style="opacity:1" fill="#b9bdc8" d="M 70.5,192.5 C 74.6176,196.338 78.9509,200.005 83.5,203.5C 84.5051,207.523 86.5051,210.857 89.5,213.5C 87.857,213.52 86.5237,212.853 85.5,211.5C 83.4628,204.628 79.1294,199.795 72.5,197C 71.1772,196.184 70.5106,195.017 70.5,193.5C 70.5,193.167 70.5,192.833 70.5,192.5 Z"/></g>
<g><path style="opacity:1" fill="#b5bac8" d="M 443.5,200.5 C 446.856,200.714 449.523,202.047 451.5,204.5C 448.51,203.523 445.843,202.189 443.5,200.5 Z"/></g>
<g><path style="opacity:1" fill="#ced1d2" d="M 451.5,204.5 C 452.281,211.019 452.948,217.686 453.5,224.5C 452.778,224.082 452.278,223.416 452,222.5C 451.501,216.509 451.334,210.509 451.5,204.5 Z"/></g>
<g><path style="opacity:1" fill="#b5bac7" d="M 93.5,216.5 C 96.9436,219.3 98.6103,222.967 98.5,227.5C 96.8771,223.857 95.2104,220.191 93.5,216.5 Z"/></g>
<g><path style="opacity:1" fill="#babfcb" d="M 453.5,228.5 C 455.341,230.849 456.675,233.516 457.5,236.5C 455.153,234.473 453.819,231.806 453.5,228.5 Z"/></g>
<g><path style="opacity:1" fill="#bfc2cb" d="M 98.5,228.5 C 99.3385,230.781 100.339,233.115 101.5,235.5C 110.42,244.113 120.42,250.78 131.5,255.5C 128.113,254.982 124.779,254.149 121.5,253C 116.042,249.381 110.709,245.548 105.5,241.5C 100.786,238.403 98.4526,234.07 98.5,228.5 Z"/></g>
<g><path style="opacity:1" fill="#bbbeca" d="M 457.5,236.5 C 458.345,237.671 459.011,239.005 459.5,240.5C 457.824,239.817 457.157,238.483 457.5,236.5 Z"/></g>
<g><path style="opacity:1" fill="#bfc4cb" d="M 459.5,240.5 C 460.981,244.789 460.315,248.789 457.5,252.5C 458.761,248.626 459.428,244.626 459.5,240.5 Z"/></g>
<g><path style="opacity:1" fill="#bbbec7" d="M 133.5,256.5 C 135.521,262.22 137.021,268.22 138,274.5C 138.498,277.482 138.665,280.482 138.5,283.5C 136.529,274.688 134.862,265.688 133.5,256.5 Z"/></g>
<g><path style="opacity:1" fill="#c5c7ce" d="M 455.5,252.5 C 455.076,255.354 454.076,258.021 452.5,260.5C 453.369,262.868 455.035,264.368 457.5,265C 461.167,265.333 464.833,265.667 468.5,266C 469.252,266.671 469.586,267.504 469.5,268.5C 465.385,266.948 461.052,266.115 456.5,266C 454.998,265.417 453.665,264.584 452.5,263.5C 451.427,259.301 452.427,255.634 455.5,252.5 Z"/></g>
<g><path style="opacity:1" fill="#a4acc3" d="M 471.5,268.5 C 472.833,268.5 473.5,269.167 473.5,270.5C 472.167,270.5 471.5,269.833 471.5,268.5 Z"/></g>
<g><path style="opacity:1" fill="#b7bbc9" d="M 475.5,270.5 C 479.363,271.713 482.696,273.713 485.5,276.5C 484.022,276.762 482.689,276.429 481.5,275.5C 479.359,273.796 477.359,272.13 475.5,270.5 Z"/></g>
<g><path style="opacity:1" fill="#bcc1ca" d="M 485.5,276.5 C 486.345,277.671 487.011,279.005 487.5,280.5C 485.824,279.817 485.157,278.483 485.5,276.5 Z"/></g>
<g><path style="opacity:1" fill="#bdc1ca" d="M 487.5,280.5 C 488.345,281.671 489.011,283.005 489.5,284.5C 487.824,283.817 487.157,282.483 487.5,280.5 Z"/></g>
<g><path style="opacity:1" fill="#c6c9ce" d="M 489.5,286.5 C 492.666,288.154 494.333,290.821 494.5,294.5C 492.836,291.841 491.17,289.175 489.5,286.5 Z"/></g>
<g><path style="opacity:1" fill="#c2c4cb" d="M 138.5,287.5 C 138.5,288.5 138.5,289.5 138.5,290.5C 142.694,292.679 146.361,295.679 149.5,299.5C 151.347,302.517 152.013,305.517 151.5,308.5C 149.38,300.715 144.713,295.048 137.5,291.5C 137.232,289.901 137.566,288.568 138.5,287.5 Z"/></g>
<g><path style="opacity:1" fill="#cccfd0" d="M 494.5,295.5 C 495.167,295.5 495.833,295.5 496.5,295.5C 496.5,298.167 496.5,300.833 496.5,303.5C 495.833,303.5 495.167,303.5 494.5,303.5C 495.833,300.833 495.833,298.167 494.5,295.5 Z"/></g>
<g><path style="opacity:1" fill="#fefefe" d="M 494.5,303.5 C 495.167,303.5 495.833,303.5 496.5,303.5C 496.5,425.5 496.5,547.5 496.5,669.5C 482.167,669.5 467.833,669.5 453.5,669.5C 453.5,669.167 453.5,668.833 453.5,668.5C 457.4,667.57 461.4,667.237 465.5,667.5C 466.833,667.5 468.167,667.5 469.5,667.5C 469.448,665.097 469.781,662.764 470.5,660.5C 471.873,658.793 473.539,657.46 475.5,656.5C 477.539,655.089 478.539,653.089 478.5,650.5C 478.5,650.167 478.5,649.833 478.5,649.5C 479.117,649.389 479.617,649.056 480,648.5C 480.167,647 480.333,645.5 480.5,644C 480.431,642.014 479.765,640.514 478.5,639.5C 478.38,637.801 478.046,636.135 477.5,634.5C 477.747,633.287 478.414,632.62 479.5,632.5C 481.539,631.089 482.539,629.089 482.5,626.5C 482.5,626.167 482.5,625.833 482.5,625.5C 484.144,625.19 485.144,624.19 485.5,622.5C 487.172,616.896 486.505,611.563 483.5,606.5C 483.011,605.005 482.345,603.671 481.5,602.5C 479.5,601.833 478.167,600.5 477.5,598.5C 475.435,596.784 473.102,595.451 470.5,594.5C 469.662,594.158 469.328,593.492 469.5,592.5C 468.14,590.46 466.807,588.46 465.5,586.5C 464.952,584.374 464.285,582.374 463.5,580.5C 462.631,578.283 462.298,575.95 462.5,573.5C 464.929,572.735 466.262,571.069 466.5,568.5C 466.658,565.098 466.324,561.764 465.5,558.5C 465.144,556.81 464.144,555.81 462.5,555.5C 462.5,555.167 462.5,554.833 462.5,554.5C 461.342,548.009 460.009,541.675 458.5,535.5C 458.5,533.5 458.5,531.5 458.5,529.5C 459.748,528.666 460.415,527.333 460.5,525.5C 461.167,517.157 461.834,508.823 462.5,500.5C 462.5,500.167 462.5,499.833 462.5,499.5C 465.149,496.496 466.482,492.829 466.5,488.5C 466.5,488.167 466.5,487.833 466.5,487.5C 470.435,484.76 470.435,481.76 466.5,478.5C 464.257,477.526 461.924,477.192 459.5,477.5C 458.041,477.567 456.708,477.234 455.5,476.5C 449.353,476.265 444.019,473.931 439.5,469.5C 439.167,468.833 438.833,468.167 438.5,467.5C 440.192,465.149 441.858,462.815 443.5,460.5C 446.627,459.436 449.627,458.103 452.5,456.5C 455.567,454.008 458.567,454.174 461.5,457C 465.871,457.828 470.205,457.661 474.5,456.5C 474.863,455.817 475.196,455.15 475.5,454.5C 476.167,454.5 476.833,454.5 477.5,454.5C 481.347,451.377 485.347,448.377 489.5,445.5C 489.192,439.868 489.525,434.201 490.5,428.5C 490.5,428.167 490.5,427.833 490.5,427.5C 491.693,427.03 492.36,426.03 492.5,424.5C 492.36,422.97 491.693,421.97 490.5,421.5C 489.89,420.609 489.557,419.609 489.5,418.5C 489.196,417.85 488.863,417.183 488.5,416.5C 483.108,414.48 478.442,411.48 474.5,407.5C 474.276,402.941 474.942,398.608 476.5,394.5C 478.039,391.135 478.706,387.469 478.5,383.5C 478.161,377.133 477.494,370.799 476.5,364.5C 476.907,359.768 479.24,356.435 483.5,354.5C 485.54,353.14 487.54,351.807 489.5,350.5C 490.122,348.878 491.122,347.545 492.5,346.5C 494.851,344.583 494.851,342.916 492.5,341.5C 491.681,339.228 491.015,336.894 490.5,334.5C 489.842,331.844 489.175,329.178 488.5,326.5C 489.38,323.198 490.046,319.865 490.5,316.5C 490.767,314.035 491.434,311.701 492.5,309.5C 493.931,308.22 494.598,306.553 494.5,304.5C 494.5,304.167 494.5,303.833 494.5,303.5 Z"/></g>
<g><path style="opacity:1" fill="#bcc0c8" d="M 494.5,304.5 C 494.598,306.553 493.931,308.22 492.5,309.5C 492.402,307.447 493.069,305.78 494.5,304.5 Z"/></g>
<g><path style="opacity:1" fill="#bcc0c9" d="M 151.5,309.5 C 150.411,312.672 149.078,315.672 147.5,318.5C 147.508,314.824 148.841,311.824 151.5,309.5 Z"/></g>
<g><path style="opacity:1" fill="#b2b7c7" d="M 145.5,320.5 C 144.467,322.085 143.134,323.419 141.5,324.5C 141.5,323.5 141.5,322.5 141.5,321.5C 142.959,321.567 144.292,321.234 145.5,320.5 Z"/></g>
<g><path style="opacity:1" fill="#bec3cc" d="M 139.5,324.5 C 138.892,325.8 138.225,327.133 137.5,328.5C 138.73,331.524 138.73,334.524 137.5,337.5C 138.77,338.288 139.77,339.288 140.5,340.5C 138.433,340.468 137.1,339.468 136.5,337.5C 137.675,334.517 137.675,331.517 136.5,328.5C 136.62,326.412 137.62,325.078 139.5,324.5 Z"/></g>
<g><path style="opacity:1" fill="#c0c3ca" d="M 490.5,316.5 C 490.046,319.865 489.38,323.198 488.5,326.5C 489.175,329.178 489.842,331.844 490.5,334.5C 486.653,328.559 486.653,322.559 490.5,316.5 Z"/></g>
<g><path style="opacity:1" fill="#bbbcc5" d="M 492.5,341.5 C 494.851,342.916 494.851,344.583 492.5,346.5C 493.071,344.64 493.071,342.973 492.5,341.5 Z"/></g>
<g><path style="opacity:1" fill="#b8bdc9" d="M 141.5,342.5 C 143.252,342.418 144.252,343.251 144.5,345C 144.301,347.448 143.301,349.281 141.5,350.5C 143.294,347.56 143.294,344.893 141.5,342.5 Z"/></g>
<g><path style="opacity:1" fill="#cbcccf" d="M 489.5,350.5 C 487.54,351.807 485.54,353.14 483.5,354.5C 484.446,351.687 486.446,350.354 489.5,350.5 Z"/></g>
<g><path style="opacity:1" fill="#c0c3ca" d="M 139.5,350.5 C 136.749,354.688 137.082,358.688 140.5,362.5C 142.849,363.543 144.849,364.876 146.5,366.5C 138.145,364.797 135.145,359.797 137.5,351.5C 138.183,351.137 138.85,350.804 139.5,350.5 Z"/></g>
<g><path style="opacity:1" fill="#bbbdc6" d="M 483.5,354.5 C 479.24,356.435 476.907,359.768 476.5,364.5C 477.494,370.799 478.161,377.133 478.5,383.5C 478.706,387.469 478.039,391.135 476.5,394.5C 477.157,382.471 477.157,370.471 476.5,358.5C 478.132,355.854 480.465,354.521 483.5,354.5 Z"/></g>
<g><path style="opacity:1" fill="#b7bbc5" d="M 146.5,366.5 C 152.318,368.569 153.984,372.569 151.5,378.5C 151.062,376.362 150.895,374.028 151,371.5C 149.634,369.638 148.134,367.972 146.5,366.5 Z"/></g>
<g><path style="opacity:1" fill="#9fa9c6" d="M 476.5,394.5 C 474.942,398.608 474.276,402.941 474.5,407.5C 474.5,407.833 474.5,408.167 474.5,408.5C 472.802,403.479 473.468,398.812 476.5,394.5 Z"/></g>
<g><path style="opacity:1" fill="#b8bcc9" d="M 474.5,408.5 C 474.5,408.167 474.5,407.833 474.5,407.5C 478.442,411.48 483.108,414.48 488.5,416.5C 488.863,417.183 489.196,417.85 489.5,418.5C 483.571,416.382 478.571,413.049 474.5,408.5 Z"/></g>
<g><path style="opacity:1" fill="#c9cacd" d="M 490.5,421.5 C 491.693,421.97 492.36,422.97 492.5,424.5C 492.36,426.03 491.693,427.03 490.5,427.5C 491.833,425.5 491.833,423.5 490.5,421.5 Z"/></g>
<g><path style="opacity:1" fill="#bdc1ca" d="M 151.5,380.5 C 152.693,380.97 153.36,381.97 153.5,383.5C 155.101,397.207 156.934,410.874 159,424.5C 164.082,431.733 168.915,439.067 173.5,446.5C 169.554,441.939 165.554,437.272 161.5,432.5C 160.333,430.167 159.167,427.833 158,425.5C 155.94,410.444 153.773,395.444 151.5,380.5 Z"/></g>
<g><path style="opacity:1" fill="#babec8" d="M 490.5,428.5 C 489.525,434.201 489.192,439.868 489.5,445.5C 485.347,448.377 481.347,451.377 477.5,454.5C 481.194,450.25 485.194,446.25 489.5,442.5C 488.159,437.603 488.493,432.936 490.5,428.5 Z"/></g>
<g><path style="opacity:1" fill="#bfc2ca" d="M 173.5,446.5 C 175.078,447.066 176.412,448.066 177.5,449.5C 179.289,451.61 180.622,453.944 181.5,456.5C 178.364,453.571 175.697,450.238 173.5,446.5 Z"/></g>
<g><path style="opacity:1" fill="#b6bac7" d="M 475.5,454.5 C 475.196,455.15 474.863,455.817 474.5,456.5C 470.205,457.661 465.871,457.828 461.5,457C 458.567,454.174 455.567,454.008 452.5,456.5C 453.292,454.743 454.625,453.409 456.5,452.5C 462.434,456.888 468.768,457.555 475.5,454.5 Z"/></g>
<g><path style="opacity:1" fill="#c4c6cc" d="M 181.5,456.5 C 185.2,458.536 187.867,461.536 189.5,465.5C 186.542,462.869 183.875,459.869 181.5,456.5 Z"/></g>
<g><path style="opacity:1" fill="#bdc0ca" d="M 443.5,460.5 C 441.858,462.815 440.192,465.149 438.5,467.5C 438.833,468.167 439.167,468.833 439.5,469.5C 444.019,473.931 449.353,476.265 455.5,476.5C 454.833,476.5 454.167,476.5 453.5,476.5C 450.753,476.813 448.086,476.48 445.5,475.5C 435.952,471.287 435.285,466.287 443.5,460.5 Z"/></g>
<g><path style="opacity:1" fill="#9aa6c6" d="M 453.5,476.5 C 454.167,476.5 454.833,476.5 455.5,476.5C 456.708,477.234 458.041,477.567 459.5,477.5C 459.5,477.833 459.5,478.167 459.5,478.5C 456.918,478.975 454.918,478.308 453.5,476.5 Z"/></g>
<g><path style="opacity:1" fill="#bcc0c9" d="M 459.5,478.5 C 459.5,478.167 459.5,477.833 459.5,477.5C 461.924,477.192 464.257,477.526 466.5,478.5C 470.435,481.76 470.435,484.76 466.5,487.5C 467.153,486.193 467.82,484.86 468.5,483.5C 466.784,479.59 463.784,477.923 459.5,478.5 Z"/></g>
<g><path style="opacity:1" fill="#9fa8c3" d="M 277.5,492.5 C 277.5,492.833 277.5,493.167 277.5,493.5C 275.379,493.325 273.379,493.659 271.5,494.5C 271.167,494.5 270.833,494.5 270.5,494.5C 270.611,493.883 270.944,493.383 271.5,493C 273.473,492.505 275.473,492.338 277.5,492.5 Z"/></g>
<g><path style="opacity:1" fill="#b9bec7" d="M 466.5,488.5 C 466.482,492.829 465.149,496.496 462.5,499.5C 463.595,495.663 464.929,491.996 466.5,488.5 Z"/></g>
<g><path style="opacity:1" fill="#c3c5cd" d="M 270.5,494.5 C 270.833,494.5 271.167,494.5 271.5,494.5C 263.377,495.317 255.377,496.983 247.5,499.5C 254.51,495.616 262.177,493.95 270.5,494.5 Z"/></g>
<g><path style="opacity:1" fill="#9fa9c4" d="M 241.5,500.5 C 240.329,501.345 238.995,502.011 237.5,502.5C 238.183,500.824 239.517,500.157 241.5,500.5 Z"/></g>
<g><path style="opacity:1" fill="#bfc2ca" d="M 190.5,468.5 C 192.328,480.312 193.828,492.312 195,504.5C 197.433,508.104 200.599,510.771 204.5,512.5C 206.304,512.014 207.971,511.347 209.5,510.5C 209.586,511.496 209.252,512.329 208.5,513C 205.773,513.818 203.106,513.652 200.5,512.5C 198.15,510.317 195.983,507.984 194,505.5C 192.455,493.21 191.289,480.877 190.5,468.5 Z"/></g>
<g><path style="opacity:1" fill="#bbbfca" d="M 234.5,502.5 C 234.047,503.458 233.381,504.292 232.5,505C 226.783,506.633 221.117,508.133 215.5,509.5C 221.57,506.806 227.903,504.473 234.5,502.5 Z"/></g>
<g><path style="opacity:1" fill="#919fc8" d="M 461.5,502.5 C 460.872,508.601 460.205,514.601 459.5,520.5C 458.88,514.074 459.547,508.074 461.5,502.5 Z"/></g>
<g><path style="opacity:1" fill="#b6bac5" d="M 462.5,500.5 C 461.834,508.823 461.167,517.157 460.5,525.5C 460.415,527.333 459.748,528.666 458.5,529.5C 459.403,526.609 459.736,523.609 459.5,520.5C 460.205,514.601 460.872,508.601 461.5,502.5C 461.328,501.508 461.662,500.842 462.5,500.5 Z"/></g>
<g><path style="opacity:1" fill="#babec8" d="M 357.5,548.5 C 351.774,530.055 345.774,511.721 339.5,493.5C 325.171,499.381 310.171,503.381 294.5,505.5C 293.204,500.938 292.538,496.271 292.5,491.5C 287.693,492.893 282.693,493.56 277.5,493.5C 277.5,493.167 277.5,492.833 277.5,492.5C 282.704,491.355 288.037,490.689 293.5,490.5C 293.538,495.271 294.204,499.938 295.5,504.5C 302.511,503.165 309.511,501.665 316.5,500C 324.154,497.456 331.82,494.956 339.5,492.5C 340.167,492.833 340.833,493.167 341.5,493.5C 347.167,511.5 352.833,529.5 358.5,547.5C 358.376,548.107 358.043,548.44 357.5,548.5 Z"/></g>
<g><path style="opacity:1" fill="#bec2c9" d="M 458.5,535.5 C 460.009,541.675 461.342,548.009 462.5,554.5C 459.787,548.592 458.454,542.258 458.5,535.5 Z"/></g>
<g><path style="opacity:1" fill="#babec9" d="M 357.5,548.5 C 354.255,551.142 350.922,553.809 347.5,556.5C 349.696,552.403 353.029,549.737 357.5,548.5 Z"/></g>
<g><path style="opacity:1" fill="#b8bdc7" d="M 462.5,555.5 C 464.144,555.81 465.144,556.81 465.5,558.5C 463.856,558.19 462.856,557.19 462.5,555.5 Z"/></g>
<g><path style="opacity:1" fill="#bfc2c9" d="M 466.5,568.5 C 466.262,571.069 464.929,572.735 462.5,573.5C 462.5,573.167 462.5,572.833 462.5,572.5C 463.833,571.167 465.167,569.833 466.5,568.5 Z"/></g>
<g><path style="opacity:1" fill="#96a2c4" d="M 462.5,572.5 C 462.5,572.833 462.5,573.167 462.5,573.5C 462.298,575.95 462.631,578.283 463.5,580.5C 463.5,580.833 463.5,581.167 463.5,581.5C 462.883,581.389 462.383,581.056 462,580.5C 461.199,577.633 461.366,574.966 462.5,572.5 Z"/></g>
<g><path style="opacity:1" fill="#c0c5cb" d="M 463.5,580.5 C 464.285,582.374 464.952,584.374 465.5,586.5C 463.744,585.448 463.077,583.781 463.5,581.5C 463.5,581.167 463.5,580.833 463.5,580.5 Z"/></g>
<g><path style="opacity:1" fill="#babdc8" d="M 345.5,559.5 C 345.921,567.868 346.754,576.201 348,584.5C 353.258,592.593 359.091,600.26 365.5,607.5C 368.787,613.768 372.787,619.435 377.5,624.5C 382.668,622.714 388.002,622.048 393.5,622.5C 393.833,622.5 394.167,622.5 394.5,622.5C 388.905,623.113 383.239,624.113 377.5,625.5C 376.5,625.167 375.5,624.833 374.5,624.5C 371.167,619.167 367.833,613.833 364.5,608.5C 358.122,601.284 352.289,593.617 347,585.5C 346.085,578.51 345.251,571.51 344.5,564.5C 344.507,562.631 344.84,560.964 345.5,559.5 Z"/></g>
<g><path style="opacity:1" fill="#babec8" d="M 465.5,586.5 C 466.807,588.46 468.14,590.46 469.5,592.5C 466.687,591.554 465.354,589.554 465.5,586.5 Z"/></g>
<g><path style="opacity:1" fill="#b9bcc9" d="M 470.5,594.5 C 473.102,595.451 475.435,596.784 477.5,598.5C 474.361,598.401 472.027,597.068 470.5,594.5 Z"/></g>
<g><path style="opacity:1" fill="#bbbec8" d="M 481.5,602.5 C 482.345,603.671 483.011,605.005 483.5,606.5C 481.824,605.817 481.157,604.483 481.5,602.5 Z"/></g>
<g><path style="opacity:1" fill="#c8cacd" d="M 483.5,606.5 C 486.505,611.563 487.172,616.896 485.5,622.5C 485.752,617.012 485.085,611.678 483.5,606.5 Z"/></g>
<g><path style="opacity:1" fill="#9fa8c3" d="M 435.5,614.5 C 432.655,615.344 429.655,616.01 426.5,616.5C 426.611,615.883 426.944,615.383 427.5,615C 430.146,614.503 432.813,614.336 435.5,614.5 Z"/></g>
<g><path style="opacity:1" fill="#a0a8c1" d="M 422.5,616.5 C 422.027,617.906 421.027,618.573 419.5,618.5C 419.821,616.952 420.821,616.285 422.5,616.5 Z"/></g>
<g><path style="opacity:1" fill="#9fa9c4" d="M 413.5,618.5 C 410.947,619.255 408.28,619.922 405.5,620.5C 407.635,618.631 410.302,617.964 413.5,618.5 Z"/></g>
<g><path style="opacity:1" fill="#a2aac4" d="M 400.5,620.5 C 398.5,621.167 396.5,621.833 394.5,622.5C 394.167,622.5 393.833,622.5 393.5,622.5C 395.279,620.656 397.612,619.99 400.5,620.5 Z"/></g>
<g><path style="opacity:1" fill="#bfc1c9" d="M 439.5,614.5 C 440.735,614.721 441.735,615.388 442.5,616.5C 443.5,633.821 443.833,651.154 443.5,668.5C 446.5,668.5 449.5,668.5 452.5,668.5C 452.833,668.5 453.167,668.5 453.5,668.5C 453.5,668.833 453.5,669.167 453.5,669.5C 449.833,669.5 446.167,669.5 442.5,669.5C 442.833,652.154 442.5,634.821 441.5,617.5C 440.081,616.995 439.415,615.995 439.5,614.5 Z"/></g>
<g><path style="opacity:1" fill="#bfc2c9" d="M 485.5,622.5 C 485.144,624.19 484.144,625.19 482.5,625.5C 482.856,623.81 483.856,622.81 485.5,622.5 Z"/></g>
<g><path style="opacity:1" fill="#c0c3ca" d="M 482.5,626.5 C 482.539,629.089 481.539,631.089 479.5,632.5C 479.992,630.181 480.992,628.181 482.5,626.5 Z"/></g>
<g><path style="opacity:1" fill="#c2c4ca" d="M 478.5,639.5 C 479.765,640.514 480.431,642.014 480.5,644C 480.333,645.5 480.167,647 480,648.5C 479.617,649.056 479.117,649.389 478.5,649.5C 479.747,646.133 479.747,642.799 478.5,639.5 Z"/></g>
<g><path style="opacity:1" fill="#bbbdc7" d="M 478.5,650.5 C 478.539,653.089 477.539,655.089 475.5,656.5C 475.992,654.181 476.992,652.181 478.5,650.5 Z"/></g>
<g><path style="opacity:1" fill="#9fa8c3" d="M 465.5,666.5 C 465.5,666.833 465.5,667.167 465.5,667.5C 461.4,667.237 457.4,667.57 453.5,668.5C 453.167,668.5 452.833,668.5 452.5,668.5C 452.611,667.883 452.944,667.383 453.5,667C 457.486,666.501 461.486,666.334 465.5,666.5 Z"/></g>
<g><path style="opacity:1" fill="#c2c4cb" d="M 470.5,660.5 C 469.781,662.764 469.448,665.097 469.5,667.5C 468.167,667.5 466.833,667.5 465.5,667.5C 465.5,667.167 465.5,666.833 465.5,666.5C 466.5,666.5 467.5,666.5 468.5,666.5C 468.054,663.99 468.72,661.99 470.5,660.5 Z"/></g>
</svg>
