<?xml version="1.0" encoding="UTF-8"?>
<!DOCTYPE svg PUBLIC "-//W3C//DTD SVG 1.1//EN" "http://www.w3.org/Graphics/SVG/1.1/DTD/svg11.dtd">
<svg xmlns="http://www.w3.org/2000/svg" version="1.1" width="381px" height="436px" style="shape-rendering:geometricPrecision; text-rendering:geometricPrecision; image-rendering:optimizeQuality; fill-rule:evenodd; clip-rule:evenodd" xmlns:xlink="http://www.w3.org/1999/xlink">
<g><path style="opacity:1" fill="#fefefe" d="M -0.5,-0.5 C 126.5,-0.5 253.5,-0.5 380.5,-0.5C 380.5,91.5 380.5,183.5 380.5,275.5C 375.758,272.6 371.425,269.1 367.5,265C 357.908,261.076 351.408,254.242 348,244.5C 347.489,237.781 346.655,231.114 345.5,224.5C 345.232,219.653 345.898,214.986 347.5,210.5C 348.252,208.239 349.252,206.073 350.5,204C 350.002,201.523 349.669,199.023 349.5,196.5C 350.475,191.447 351.308,186.447 352,181.5C 345.605,167.497 339.105,153.497 332.5,139.5C 328.068,131.097 321.068,126.097 311.5,124.5C 307.893,123.511 304.226,123.177 300.5,123.5C 298.84,119.122 299.507,115.122 302.5,111.5C 301.873,110.583 301.539,109.583 301.5,108.5C 301.5,107.5 301.5,106.5 301.5,105.5C 297.537,104.509 293.537,103.509 289.5,102.5C 286.57,101.547 284.237,99.8802 282.5,97.5C 279.956,96.2921 278.622,94.2921 278.5,91.5C 274.548,88.1917 270.548,84.8584 266.5,81.5C 264.604,79.1632 263.27,76.4965 262.5,73.5C 262.461,72.4168 262.127,71.4168 261.5,70.5C 257.638,68.3775 254.305,65.7108 251.5,62.5C 247.695,52.0009 243.362,41.6676 238.5,31.5C 234.895,28.3555 230.895,25.6889 226.5,23.5C 223.56,20.0405 221.56,16.0405 220.5,11.5C 220.461,10.4168 220.127,9.41683 219.5,8.5C 181.839,7.5001 144.173,7.16677 106.5,7.5C 94.3962,5.45526 82.3962,3.12193 70.5,0.5C 70.3505,1.55198 70.5172,2.55198 71,3.5C 80.2445,15.656 89.2445,27.9893 98,40.5C 98.49,41.7932 98.6567,43.1266 98.5,44.5C 97.1266,44.3433 95.7932,44.51 94.5,45C 89.3231,47.4242 84.1564,49.9242 79,52.5C 77.5899,58.7742 76.4232,65.1075 75.5,71.5C 75.9569,72.2975 76.6236,72.6309 77.5,72.5C 77.5,73.5 77.5,74.5 77.5,75.5C 85.2814,78.5571 92.948,81.8904 100.5,85.5C 102.148,100.977 103.315,116.643 104,132.5C 108.415,153.072 112.248,173.739 115.5,194.5C 116.267,199.868 117.601,204.868 119.5,209.5C 121.444,218.322 123.777,226.989 126.5,235.5C 125.3,239.357 122.634,241.357 118.5,241.5C 114.753,242.081 111.086,243.081 107.5,244.5C 105.345,245.001 103.678,246.001 102.5,247.5C 91.6013,252.552 82.6013,260.052 75.5,270C 58.6464,283.345 39.6464,292.179 18.5,296.5C 18.5,297.5 18.5,298.5 18.5,299.5C 18.1433,301.589 17.4767,303.589 16.5,305.5C 14.41,307.247 12.7433,309.247 11.5,311.5C 8.31204,313.69 5.14537,316.024 2,318.5C 2.16398,326.162 2.66398,333.829 3.5,341.5C 2.5795,349.567 1.74617,357.567 1,365.5C 3.62595,368.231 6.79261,370.064 10.5,371C 12.3513,372.684 14.018,374.517 15.5,376.5C 20.3192,386.315 25.3192,395.981 30.5,405.5C 35.0512,408.364 39.3845,411.697 43.5,415.5C 41.0135,424.194 44.0135,429.361 52.5,431C 53.6853,432.353 55.0186,433.52 56.5,434.5C 58.5193,432.81 60.5193,431.144 62.5,429.5C 67.279,426.785 71.9456,424.118 76.5,421.5C 76.8333,421.5 77.1667,421.5 77.5,421.5C 83.9203,419.533 90.2536,417.2 96.5,414.5C 98.3316,413.943 99.6649,412.943 100.5,411.5C 105.17,409.72 109.17,407.054 112.5,403.5C 116.833,398.5 121.5,393.833 126.5,389.5C 127.675,389.719 128.675,389.386 129.5,388.5C 133.919,384.081 138.252,379.748 142.5,375.5C 146.83,370.337 151.664,365.67 157,361.5C 159.04,363.37 160.873,365.37 162.5,367.5C 165.118,372.451 168.784,376.451 173.5,379.5C 176.529,382.859 179.529,386.192 182.5,389.5C 185.086,394.09 188.42,398.09 192.5,401.5C 193.265,401.923 194.098,402.257 195,402.5C 198.504,400.327 202.004,398.16 205.5,396C 210.369,390.963 215.369,386.13 220.5,381.5C 225.134,378.86 229.134,375.527 232.5,371.5C 234.011,370.498 235.678,369.831 237.5,369.5C 238.227,364.677 236.227,361.677 231.5,360.5C 230.873,359.583 230.539,358.583 230.5,357.5C 237.455,352.286 244.788,347.62 252.5,343.5C 271.913,332.107 291.246,320.773 310.5,309.5C 320.69,305.742 330.69,301.408 340.5,296.5C 344.955,294.618 348.955,292.285 352.5,289.5C 352.833,289.5 353.167,289.5 353.5,289.5C 360.999,286.914 367.999,283.581 374.5,279.5C 376.216,278.029 378.216,277.029 380.5,276.5C 380.5,329.5 380.5,382.5 380.5,435.5C 253.5,435.5 126.5,435.5 -0.5,435.5C -0.5,290.167 -0.5,144.833 -0.5,-0.5 Z"/></g>
<g><path style="opacity:1" fill="#d8ec6e" d="M 106.5,7.5 C 143.669,8.16667 181.002,8.83333 218.5,9.5C 218.855,10.5223 219.522,11.189 220.5,11.5C 221.56,16.0405 223.56,20.0405 226.5,23.5C 226.5,24.5 226.5,25.5 226.5,26.5C 230.721,27.6097 234.721,29.2764 238.5,31.5C 243.362,41.6676 247.695,52.0009 251.5,62.5C 251.539,63.5832 251.873,64.5832 252.5,65.5C 255.894,68.1998 259.227,70.8664 262.5,73.5C 263.27,76.4965 264.604,79.1632 266.5,81.5C 266.48,83.143 267.147,84.4763 268.5,85.5C 271.677,87.8427 275.01,89.8427 278.5,91.5C 278.622,94.2921 279.956,96.2921 282.5,97.5C 282.48,99.143 283.147,100.476 284.5,101.5C 290.456,103.391 296.122,105.724 301.5,108.5C 301.539,109.583 301.873,110.583 302.5,111.5C 299.507,115.122 298.84,119.122 300.5,123.5C 313.536,124.018 324.203,129.351 332.5,139.5C 339.105,153.497 345.605,167.497 352,181.5C 351.308,186.447 350.475,191.447 349.5,196.5C 349.669,199.023 350.002,201.523 350.5,204C 349.252,206.073 348.252,208.239 347.5,210.5C 345.453,212.626 344.453,215.292 344.5,218.5C 344.505,220.696 344.838,222.696 345.5,224.5C 346.655,231.114 347.489,237.781 348,244.5C 351.408,254.242 357.908,261.076 367.5,265C 371.425,269.1 375.758,272.6 380.5,275.5C 380.5,275.833 380.5,276.167 380.5,276.5C 378.216,277.029 376.216,278.029 374.5,279.5C 367.063,282.053 360.063,285.386 353.5,289.5C 353.167,289.5 352.833,289.5 352.5,289.5C 338.189,295.657 324.189,302.324 310.5,309.5C 290.199,319.259 270.866,330.592 252.5,343.5C 244.788,347.62 237.455,352.286 230.5,357.5C 229.522,357.811 228.855,358.478 228.5,359.5C 230.657,361.412 232.991,363.079 235.5,364.5C 236.429,365.689 236.762,367.022 236.5,368.5C 234.381,368.468 233.048,369.468 232.5,371.5C 227.882,374.12 223.882,377.453 220.5,381.5C 215.369,386.13 210.369,390.963 205.5,396C 202.004,398.16 198.504,400.327 195,402.5C 194.098,402.257 193.265,401.923 192.5,401.5C 189.931,396.925 186.598,392.925 182.5,389.5C 179.529,386.192 176.529,382.859 173.5,379.5C 170.174,375.174 166.507,371.174 162.5,367.5C 160.873,365.37 159.04,363.37 157,361.5C 151.664,365.67 146.83,370.337 142.5,375.5C 136.556,379.443 131.222,384.109 126.5,389.5C 121.5,393.833 116.833,398.5 112.5,403.5C 108.06,405.571 104.06,408.238 100.5,411.5C 92.5686,414.404 84.902,417.737 77.5,421.5C 77.1667,421.5 76.8333,421.5 76.5,421.5C 70.8729,422.642 66.2062,425.309 62.5,429.5C 60.5193,431.144 58.5193,432.81 56.5,434.5C 55.0186,433.52 53.6853,432.353 52.5,431C 44.0135,429.361 41.0135,424.194 43.5,415.5C 40.5878,410.247 36.2544,406.914 30.5,405.5C 25.3192,395.981 20.3192,386.315 15.5,376.5C 14.018,374.517 12.3513,372.684 10.5,371C 6.79261,370.064 3.62595,368.231 1,365.5C 1.74617,357.567 2.5795,349.567 3.5,341.5C 2.66398,333.829 2.16398,326.162 2,318.5C 5.14537,316.024 8.31204,313.69 11.5,311.5C 17.0453,309.038 19.3786,305.038 18.5,299.5C 18.5,298.5 18.5,297.5 18.5,296.5C 39.6464,292.179 58.6464,283.345 75.5,270C 82.6013,260.052 91.6013,252.552 102.5,247.5C 108.053,245.874 113.386,243.874 118.5,241.5C 122.634,241.357 125.3,239.357 126.5,235.5C 123.777,226.989 121.444,218.322 119.5,209.5C 119.054,204.175 117.721,199.175 115.5,194.5C 112.248,173.739 108.415,153.072 104,132.5C 103.315,116.643 102.148,100.977 100.5,85.5C 92.9955,80.9135 85.3288,76.5801 77.5,72.5C 76.6236,72.6309 75.9569,72.2975 75.5,71.5C 76.4232,65.1075 77.5899,58.7742 79,52.5C 84.1564,49.9242 89.3231,47.4242 94.5,45C 95.7932,44.51 97.1266,44.3433 98.5,44.5C 98.6567,43.1266 98.49,41.7932 98,40.5C 89.2445,27.9893 80.2445,15.656 71,3.5C 70.5172,2.55198 70.3505,1.55198 70.5,0.5C 82.3962,3.12193 94.3962,5.45526 106.5,7.5 Z"/></g>
<g><path style="opacity:1" fill="#e0e8b9" d="M 106.5,7.5 C 144.173,7.16677 181.839,7.5001 219.5,8.5C 220.127,9.41683 220.461,10.4168 220.5,11.5C 219.522,11.189 218.855,10.5223 218.5,9.5C 181.002,8.83333 143.669,8.16667 106.5,7.5 Z"/></g>
<g><path style="opacity:1" fill="#d9dbca" d="M 226.5,23.5 C 230.895,25.6889 234.895,28.3555 238.5,31.5C 234.721,29.2764 230.721,27.6097 226.5,26.5C 226.5,25.5 226.5,24.5 226.5,23.5 Z"/></g>
<g><path style="opacity:1" fill="#d6d9c2" d="M 251.5,62.5 C 254.305,65.7108 257.638,68.3775 261.5,70.5C 262.127,71.4168 262.461,72.4168 262.5,73.5C 259.227,70.8664 255.894,68.1998 252.5,65.5C 251.873,64.5832 251.539,63.5832 251.5,62.5 Z"/></g>
<g><path style="opacity:1" fill="#d6d9c7" d="M 77.5,72.5 C 85.3288,76.5801 92.9955,80.9135 100.5,85.5C 92.948,81.8904 85.2814,78.5571 77.5,75.5C 77.5,74.5 77.5,73.5 77.5,72.5 Z"/></g>
<g><path style="opacity:1" fill="#d7dac6" d="M 266.5,81.5 C 270.548,84.8584 274.548,88.1917 278.5,91.5C 275.01,89.8427 271.677,87.8427 268.5,85.5C 267.147,84.4763 266.48,83.143 266.5,81.5 Z"/></g>
<g><path style="opacity:1" fill="#d7dac7" d="M 282.5,97.5 C 284.237,99.8802 286.57,101.547 289.5,102.5C 293.537,103.509 297.537,104.509 301.5,105.5C 301.5,106.5 301.5,107.5 301.5,108.5C 296.122,105.724 290.456,103.391 284.5,101.5C 283.147,100.476 282.48,99.143 282.5,97.5 Z"/></g>
<g><path style="opacity:1" fill="#d7d9c9" d="M 300.5,123.5 C 304.226,123.177 307.893,123.511 311.5,124.5C 321.068,126.097 328.068,131.097 332.5,139.5C 324.203,129.351 313.536,124.018 300.5,123.5 Z"/></g>
<g><path style="opacity:1" fill="#d4d6c8" d="M 115.5,194.5 C 117.721,199.175 119.054,204.175 119.5,209.5C 117.601,204.868 116.267,199.868 115.5,194.5 Z"/></g>
<g><path style="opacity:1" fill="#d2d5c3" d="M 347.5,210.5 C 345.898,214.986 345.232,219.653 345.5,224.5C 344.838,222.696 344.505,220.696 344.5,218.5C 344.453,215.292 345.453,212.626 347.5,210.5 Z"/></g>
<g><path style="opacity:1" fill="#d6d9ca" d="M 118.5,241.5 C 113.386,243.874 108.053,245.874 102.5,247.5C 103.678,246.001 105.345,245.001 107.5,244.5C 111.086,243.081 114.753,242.081 118.5,241.5 Z"/></g>
<g><path style="opacity:1" fill="#d7d9cc" d="M 374.5,279.5 C 367.999,283.581 360.999,286.914 353.5,289.5C 360.063,285.386 367.063,282.053 374.5,279.5 Z"/></g>
<g><path style="opacity:1" fill="#d7d9cc" d="M 352.5,289.5 C 348.955,292.285 344.955,294.618 340.5,296.5C 330.69,301.408 320.69,305.742 310.5,309.5C 324.189,302.324 338.189,295.657 352.5,289.5 Z"/></g>
<g><path style="opacity:1" fill="#d3d5c8" d="M 18.5,299.5 C 19.3786,305.038 17.0453,309.038 11.5,311.5C 12.7433,309.247 14.41,307.247 16.5,305.5C 17.4767,303.589 18.1433,301.589 18.5,299.5 Z"/></g>
<g><path style="opacity:1" fill="#d7d9c9" d="M 310.5,309.5 C 291.246,320.773 271.913,332.107 252.5,343.5C 270.866,330.592 290.199,319.259 310.5,309.5 Z"/></g>
<g><path style="opacity:1" fill="#d7d9c9" d="M 230.5,357.5 C 230.539,358.583 230.873,359.583 231.5,360.5C 236.227,361.677 238.227,364.677 237.5,369.5C 235.678,369.831 234.011,370.498 232.5,371.5C 233.048,369.468 234.381,368.468 236.5,368.5C 236.762,367.022 236.429,365.689 235.5,364.5C 232.991,363.079 230.657,361.412 228.5,359.5C 228.855,358.478 229.522,357.811 230.5,357.5 Z"/></g>
<g><path style="opacity:1" fill="#d3d5cb" d="M 162.5,367.5 C 166.507,371.174 170.174,375.174 173.5,379.5C 168.784,376.451 165.118,372.451 162.5,367.5 Z"/></g>
<g><path style="opacity:1" fill="#d5d7c9" d="M 232.5,371.5 C 229.134,375.527 225.134,378.86 220.5,381.5C 223.882,377.453 227.882,374.12 232.5,371.5 Z"/></g>
<g><path style="opacity:1" fill="#d5d6cb" d="M 142.5,375.5 C 138.252,379.748 133.919,384.081 129.5,388.5C 128.675,389.386 127.675,389.719 126.5,389.5C 131.222,384.109 136.556,379.443 142.5,375.5 Z"/></g>
<g><path style="opacity:1" fill="#d4d6c8" d="M 182.5,389.5 C 186.598,392.925 189.931,396.925 192.5,401.5C 188.42,398.09 185.086,394.09 182.5,389.5 Z"/></g>
<g><path style="opacity:1" fill="#d4d6c9" d="M 30.5,405.5 C 36.2544,406.914 40.5878,410.247 43.5,415.5C 39.3845,411.697 35.0512,408.364 30.5,405.5 Z"/></g>
<g><path style="opacity:1" fill="#d7d9ca" d="M 112.5,403.5 C 109.17,407.054 105.17,409.72 100.5,411.5C 104.06,408.238 108.06,405.571 112.5,403.5 Z"/></g>
<g><path style="opacity:1" fill="#d8dacc" d="M 100.5,411.5 C 99.6649,412.943 98.3316,413.943 96.5,414.5C 90.2536,417.2 83.9203,419.533 77.5,421.5C 84.902,417.737 92.5686,414.404 100.5,411.5 Z"/></g>
<g><path style="opacity:1" fill="#d8dac9" d="M 76.5,421.5 C 71.9456,424.118 67.279,426.785 62.5,429.5C 66.2062,425.309 70.8729,422.642 76.5,421.5 Z"/></g>
</svg>
