<?xml version="1.0" encoding="UTF-8"?>
<!DOCTYPE svg PUBLIC "-//W3C//DTD SVG 1.1//EN" "http://www.w3.org/Graphics/SVG/1.1/DTD/svg11.dtd">
<svg xmlns="http://www.w3.org/2000/svg" version="1.1" width="620px" height="702px" style="shape-rendering:geometricPrecision; text-rendering:geometricPrecision; image-rendering:optimizeQuality; fill-rule:evenodd; clip-rule:evenodd" xmlns:xlink="http://www.w3.org/1999/xlink">
<g><path style="opacity:1" fill="#fcfcfd" d="M -0.5,-0.5 C 25.8333,-0.5 52.1667,-0.5 78.5,-0.5C 54.0419,17.5829 30.0419,36.2496 6.5,55.5C 3.97634,56.5923 1.64301,57.9257 -0.5,59.5C -0.5,39.5 -0.5,19.5 -0.5,-0.5 Z"/></g>
<g><path style="opacity:1" fill="#fefefe" d="M 82.5,-0.5 C 261.5,-0.5 440.5,-0.5 619.5,-0.5C 619.5,220.5 619.5,441.5 619.5,662.5C 614.242,655.568 608.575,648.901 602.5,642.5C 601.725,640.612 601.725,638.612 602.5,636.5C 604.997,634.836 607.663,633.503 610.5,632.5C 610.768,629.881 610.435,627.381 609.5,625C 604.946,623.724 600.613,621.891 596.5,619.5C 592.654,616.075 588.321,613.409 583.5,611.5C 575.716,608.628 568.05,605.628 560.5,602.5C 556.939,601.77 553.273,601.103 549.5,600.5C 541.39,598.057 536.39,592.724 534.5,584.5C 533.952,582.374 533.285,580.374 532.5,578.5C 532.338,576.473 532.505,574.473 533,572.5C 535.397,566.038 537.564,559.371 539.5,552.5C 542.416,547.58 546.082,543.247 550.5,539.5C 554.993,537.421 559.326,535.088 563.5,532.5C 564.493,527.88 564.827,523.214 564.5,518.5C 559.96,516.624 555.96,513.958 552.5,510.5C 551.793,507.214 551.46,503.881 551.5,500.5C 552.461,498.735 552.795,496.735 552.5,494.5C 549.833,490.5 546.5,487.167 542.5,484.5C 540.978,481.971 539.311,479.471 537.5,477C 530.358,472.64 524.358,467.14 519.5,460.5C 518.52,457.914 518.187,455.247 518.5,452.5C 519.451,451.081 519.784,449.415 519.5,447.5C 516.721,447.721 514.054,447.388 511.5,446.5C 510.5,446.5 509.5,446.5 508.5,446.5C 506.716,433.795 504.716,421.128 502.5,408.5C 502.667,405.833 502.833,403.167 503,400.5C 506.426,392.65 510.093,384.983 514,377.5C 515.725,371.692 515.558,366.025 513.5,360.5C 514.09,355.36 513.09,350.693 510.5,346.5C 510.5,345.833 510.5,345.167 510.5,344.5C 510.156,341.438 509.489,338.438 508.5,335.5C 507.817,335.137 507.15,334.804 506.5,334.5C 499.943,324.052 494.443,313.052 490,301.5C 486.287,296.358 481.454,292.692 475.5,290.5C 469.639,292.718 463.972,295.385 458.5,298.5C 456.746,308.411 456.079,318.411 456.5,328.5C 455.675,332.647 455.175,336.981 455,341.5C 453.69,342.897 452.19,343.897 450.5,344.5C 445.833,344.5 441.167,344.5 436.5,344.5C 432.395,345.109 428.395,345.775 424.5,346.5C 419.833,346.5 415.167,346.5 410.5,346.5C 405.731,347.117 401.064,347.784 396.5,348.5C 391.167,348.5 385.833,348.5 380.5,348.5C 376.546,349.765 372.546,349.765 368.5,348.5C 367.169,340.47 367.169,332.47 368.5,324.5C 369.016,319.088 371.683,315.421 376.5,313.5C 377.675,313.719 378.675,313.386 379.5,312.5C 383.833,308.167 388.167,303.833 392.5,299.5C 393.386,298.675 393.719,297.675 393.5,296.5C 394.434,295.432 394.768,294.099 394.5,292.5C 395.776,291.614 395.776,290.614 394.5,289.5C 384.783,279.448 374.783,269.782 364.5,260.5C 358.575,253.572 352.242,246.905 345.5,240.5C 344.085,236.591 343.085,232.591 342.5,228.5C 341.725,226.612 341.725,224.612 342.5,222.5C 346.705,217.812 350.705,212.812 354.5,207.5C 342.241,198.884 329.575,190.884 316.5,183.5C 313.414,179.743 309.748,176.743 305.5,174.5C 301.572,168.97 297.905,163.304 294.5,157.5C 293.674,153.861 293.007,150.194 292.5,146.5C 295.162,138.797 295.162,131.13 292.5,123.5C 290.993,122.611 289.66,121.611 288.5,120.5C 288.5,119.167 288.5,117.833 288.5,116.5C 291.189,108.917 293.189,101.084 294.5,93C 294.684,87.0677 293.351,81.5677 290.5,76.5C 289.329,75.6554 287.995,74.9887 286.5,74.5C 284.5,74.5 282.5,74.5 280.5,74.5C 277.947,73.7451 275.28,73.0784 272.5,72.5C 269.5,72.5 266.5,72.5 263.5,72.5C 262.659,70.6208 262.325,68.6208 262.5,66.5C 262.5,65.8333 262.5,65.1667 262.5,64.5C 263.533,63.0883 264.199,61.4216 264.5,59.5C 264.547,57.9623 263.88,56.9623 262.5,56.5C 262.5,55.8333 262.5,55.1667 262.5,54.5C 262.011,53.0048 261.345,51.6715 260.5,50.5C 258.507,43.179 254.841,36.8456 249.5,31.5C 246.226,35.4503 242.893,39.4503 239.5,43.5C 235.524,46.4751 231.857,49.8084 228.5,53.5C 222.609,55.8081 216.609,57.4747 210.5,58.5C 209.005,58.9887 207.671,59.6554 206.5,60.5C 205.167,60.5 203.833,60.5 202.5,60.5C 191.661,61.1816 180.995,62.515 170.5,64.5C 166.167,64.5 161.833,64.5 157.5,64.5C 153.063,65.1132 148.73,65.7798 144.5,66.5C 135.878,68.428 129.878,65.428 126.5,57.5C 121.435,51.7927 115.768,46.7927 109.5,42.5C 106.249,37.2446 102.249,32.5779 97.5,28.5C 93.3598,18.3677 88.3598,8.70104 82.5,-0.5 Z"/></g>
<g><path style="opacity:1" fill="#b152e9" d="M 78.5,-0.5 C 79.8333,-0.5 81.1667,-0.5 82.5,-0.5C 88.3598,8.70104 93.3598,18.3677 97.5,28.5C 102.249,32.5779 106.249,37.2446 109.5,42.5C 115.768,46.7927 121.435,51.7927 126.5,57.5C 129.878,65.428 135.878,68.428 144.5,66.5C 149.294,67.0969 153.627,66.4302 157.5,64.5C 161.833,64.5 166.167,64.5 170.5,64.5C 181.541,63.9362 192.208,62.6028 202.5,60.5C 203.833,60.5 205.167,60.5 206.5,60.5C 208.483,60.8432 209.817,60.1765 210.5,58.5C 216.609,57.4747 222.609,55.8081 228.5,53.5C 231.857,49.8084 235.524,46.4751 239.5,43.5C 242.893,39.4503 246.226,35.4503 249.5,31.5C 254.841,36.8456 258.507,43.179 260.5,50.5C 260.157,52.4832 260.824,53.8166 262.5,54.5C 262.5,55.1667 262.5,55.8333 262.5,56.5C 263.254,59.0777 263.254,61.7444 262.5,64.5C 262.5,65.1667 262.5,65.8333 262.5,66.5C 259.739,68.9873 260.073,70.9873 263.5,72.5C 266.5,72.5 269.5,72.5 272.5,72.5C 274.635,74.369 277.302,75.0356 280.5,74.5C 282.5,74.5 284.5,74.5 286.5,74.5C 287.183,76.1765 288.517,76.8432 290.5,76.5C 293.351,81.5677 294.684,87.0677 294.5,93C 293.189,101.084 291.189,108.917 288.5,116.5C 287.609,117.261 286.942,118.261 286.5,119.5C 286.957,120.298 287.624,120.631 288.5,120.5C 289.66,121.611 290.993,122.611 292.5,123.5C 295.162,131.13 295.162,138.797 292.5,146.5C 293.007,150.194 293.674,153.861 294.5,157.5C 297.905,163.304 301.572,168.97 305.5,174.5C 309.748,176.743 313.414,179.743 316.5,183.5C 329.575,190.884 342.241,198.884 354.5,207.5C 350.705,212.812 346.705,217.812 342.5,222.5C 340.084,224.705 340.084,226.705 342.5,228.5C 343.085,232.591 344.085,236.591 345.5,240.5C 352.242,246.905 358.575,253.572 364.5,260.5C 374.5,271.167 384.5,281.833 394.5,292.5C 394.768,294.099 394.434,295.432 393.5,296.5C 387.833,302.167 382.167,307.833 376.5,313.5C 371.683,315.421 369.016,319.088 368.5,324.5C 367.176,328.107 366.509,332.107 366.5,336.5C 366.667,340.5 366.833,344.5 367,348.5C 369.041,349.752 371.375,350.419 374,350.5C 376.61,350.467 378.777,349.8 380.5,348.5C 385.833,348.5 391.167,348.5 396.5,348.5C 401.619,349.103 406.285,348.436 410.5,346.5C 415.167,346.5 419.833,346.5 424.5,346.5C 428.971,347.089 432.971,346.423 436.5,344.5C 441.167,344.5 445.833,344.5 450.5,344.5C 452.766,344.859 454.599,344.192 456,342.5C 456.499,337.845 456.666,333.179 456.5,328.5C 456.079,318.411 456.746,308.411 458.5,298.5C 463.972,295.385 469.639,292.718 475.5,290.5C 481.454,292.692 486.287,296.358 490,301.5C 494.443,313.052 499.943,324.052 506.5,334.5C 507.831,337.905 509.164,341.238 510.5,344.5C 510.5,345.167 510.5,345.833 510.5,346.5C 511.666,351.234 512.666,355.9 513.5,360.5C 515.558,366.025 515.725,371.692 514,377.5C 510.093,384.983 506.426,392.65 503,400.5C 502.833,403.167 502.667,405.833 502.5,408.5C 504.716,421.128 506.716,433.795 508.5,446.5C 509.5,446.5 510.5,446.5 511.5,446.5C 513.279,448.344 515.612,449.01 518.5,448.5C 518.5,449.833 518.5,451.167 518.5,452.5C 518.187,455.247 518.52,457.914 519.5,460.5C 524.358,467.14 530.358,472.64 537.5,477C 539.311,479.471 540.978,481.971 542.5,484.5C 545.167,488.5 548.5,491.833 552.5,494.5C 552.795,496.735 552.461,498.735 551.5,500.5C 550.844,501.622 550.511,502.955 550.5,504.5C 550.361,506.883 551.028,508.883 552.5,510.5C 555.96,513.958 559.96,516.624 564.5,518.5C 564.827,523.214 564.493,527.88 563.5,532.5C 559.326,535.088 554.993,537.421 550.5,539.5C 546.082,543.247 542.416,547.58 539.5,552.5C 537.564,559.371 535.397,566.038 533,572.5C 532.505,574.473 532.338,576.473 532.5,578.5C 532.025,581.082 532.692,583.082 534.5,584.5C 536.39,592.724 541.39,598.057 549.5,600.5C 552.684,602.414 556.351,603.08 560.5,602.5C 568.05,605.628 575.716,608.628 583.5,611.5C 588.321,613.409 592.654,616.075 596.5,619.5C 600.613,621.891 604.946,623.724 609.5,625C 610.435,627.381 610.768,629.881 610.5,632.5C 607.663,633.503 604.997,634.836 602.5,636.5C 600.084,638.705 600.084,640.705 602.5,642.5C 608.575,648.901 614.242,655.568 619.5,662.5C 619.5,663.833 619.5,665.167 619.5,666.5C 614.268,672.296 610.602,678.962 608.5,686.5C 603.317,688.361 597.983,689.695 592.5,690.5C 589.612,689.99 587.279,690.656 585.5,692.5C 583.167,692.5 580.833,692.5 578.5,692.5C 572.751,692.402 567.085,693.069 561.5,694.5C 559.048,694.21 556.715,693.544 554.5,692.5C 553.287,692.747 552.62,693.414 552.5,694.5C 549.167,694.5 545.833,694.5 542.5,694.5C 539.302,693.964 536.635,694.631 534.5,696.5C 531.167,696.5 527.833,696.5 524.5,696.5C 521.302,695.964 518.635,696.631 516.5,698.5C 513.167,698.5 509.833,698.5 506.5,698.5C 502.988,697.945 499.988,698.612 497.5,700.5C 492.5,700.5 487.5,700.5 482.5,700.5C 482.831,692.472 482.498,684.472 481.5,676.5C 477.51,671.897 472.51,668.897 466.5,667.5C 463.714,665.158 462.047,662.158 461.5,658.5C 459.868,655.854 457.535,654.521 454.5,654.5C 454.666,649.821 454.499,645.155 454,640.5C 452.405,634.944 450.405,629.61 448,624.5C 445.534,619.53 441.701,616.197 436.5,614.5C 436.064,611.394 434.731,608.727 432.5,606.5C 429.864,602.863 426.864,599.529 423.5,596.5C 416.551,593.692 409.885,590.359 403.5,586.5C 403.167,585.667 402.833,584.833 402.5,584C 403.403,581.921 404.069,579.754 404.5,577.5C 400.713,567.96 397.046,558.293 393.5,548.5C 387.167,542.167 380.833,535.833 374.5,529.5C 367.001,527.323 359.334,525.989 351.5,525.5C 348.06,522.54 344.394,519.873 340.5,517.5C 335.167,516.833 329.833,516.167 324.5,515.5C 320.555,513.642 316.555,511.976 312.5,510.5C 301.09,512.482 289.757,513.149 278.5,512.5C 272.729,511.887 267.396,512.554 262.5,514.5C 260.697,516.081 259.364,518.081 258.5,520.5C 256.5,521.167 255.167,522.5 254.5,524.5C 252.396,524.201 250.396,524.534 248.5,525.5C 244.839,531.486 241.172,537.486 237.5,543.5C 236.614,542.675 236.281,541.675 236.5,540.5C 236.665,537.15 236.498,533.817 236,530.5C 235.722,529.584 235.222,528.918 234.5,528.5C 233.782,524.758 231.782,521.758 228.5,519.5C 224.379,517.719 220.379,515.719 216.5,513.5C 214.168,507.494 210.834,502.16 206.5,497.5C 201.872,494.537 197.539,491.204 193.5,487.5C 187.991,485.83 182.991,483.163 178.5,479.5C 176.96,478.468 176.46,477.135 177,475.5C 195.407,464.045 213.907,452.712 232.5,441.5C 263.679,425.958 295.013,410.625 326.5,395.5C 325.105,392.41 323.105,389.743 320.5,387.5C 315.716,383.693 310.716,380.36 305.5,377.5C 301.875,374.878 298.542,371.878 295.5,368.5C 295.5,368.167 295.5,367.833 295.5,367.5C 293.322,361.94 291.989,356.274 291.5,350.5C 290.944,346.16 290.277,341.827 289.5,337.5C 289.849,333.141 291.516,329.474 294.5,326.5C 296.584,324.007 296.917,321.34 295.5,318.5C 294.011,314.405 294.511,310.405 297,306.5C 297.667,303.833 297.667,301.167 297,298.5C 294.206,293.601 291.706,288.601 289.5,283.5C 288.741,279.55 287.408,275.884 285.5,272.5C 282.468,266.107 279.135,259.774 275.5,253.5C 272.193,251.193 269.193,248.527 266.5,245.5C 259.726,241.163 252.392,238.83 244.5,238.5C 244.259,236.102 244.926,234.102 246.5,232.5C 249.167,230.5 249.167,228.5 246.5,226.5C 245.594,224.583 244.261,222.917 242.5,221.5C 237.951,219.471 233.284,217.805 228.5,216.5C 226.477,213.757 224.477,211.09 222.5,208.5C 222.279,207.265 221.612,206.265 220.5,205.5C 217.237,203.905 214.237,201.905 211.5,199.5C 208.029,191.036 202.696,184.036 195.5,178.5C 195.097,175.514 194.097,172.848 192.5,170.5C 192.799,168.396 192.466,166.396 191.5,164.5C 189.158,159.816 186.825,155.15 184.5,150.5C 183.203,148.202 181.537,146.202 179.5,144.5C 176.092,143.628 173.092,141.961 170.5,139.5C 168.269,134.066 165.603,129.066 162.5,124.5C 125.515,122.506 88.1816,121.84 50.5,122.5C 47.2832,116.934 43.6166,111.6 39.5,106.5C 34.6101,103.546 30.2768,99.8792 26.5,95.5C 25.0499,94.1502 24.3832,92.4835 24.5,90.5C 18.525,89.6432 13.1917,87.3099 8.5,83.5C 7.29629,80.8623 5.62962,78.529 3.5,76.5C 2.5834,71.575 1.25007,66.9084 -0.5,62.5C -0.5,61.5 -0.5,60.5 -0.5,59.5C 1.64301,57.9257 3.97634,56.5923 6.5,55.5C 30.0419,36.2496 54.0419,17.5829 78.5,-0.5 Z"/></g>
<g><path style="opacity:1" fill="#b38fc8" d="M 260.5,50.5 C 261.345,51.6715 262.011,53.0048 262.5,54.5C 260.824,53.8166 260.157,52.4832 260.5,50.5 Z"/></g>
<g><path style="opacity:1" fill="#b391c7" d="M 210.5,58.5 C 209.817,60.1765 208.483,60.8432 206.5,60.5C 207.671,59.6554 209.005,58.9887 210.5,58.5 Z"/></g>
<g><path style="opacity:1" fill="#ae80c9" d="M 262.5,56.5 C 263.88,56.9623 264.547,57.9623 264.5,59.5C 264.199,61.4216 263.533,63.0883 262.5,64.5C 263.254,61.7444 263.254,59.0777 262.5,56.5 Z"/></g>
<g><path style="opacity:1" fill="#ccbcd5" d="M 202.5,60.5 C 192.208,62.6028 181.541,63.9362 170.5,64.5C 180.995,62.515 191.661,61.1816 202.5,60.5 Z"/></g>
<g><path style="opacity:1" fill="#fefefe" d="M -0.5,62.5 C 1.25007,66.9084 2.5834,71.575 3.5,76.5C 5.62962,78.529 7.29629,80.8623 8.5,83.5C 13.1917,87.3099 18.525,89.6432 24.5,90.5C 24.3832,92.4835 25.0499,94.1502 26.5,95.5C 30.2768,99.8792 34.6101,103.546 39.5,106.5C 43.6166,111.6 47.2832,116.934 50.5,122.5C 87.7356,123.173 125.069,123.839 162.5,124.5C 165.603,129.066 168.269,134.066 170.5,139.5C 173.092,141.961 176.092,143.628 179.5,144.5C 180.054,147.391 181.721,149.391 184.5,150.5C 186.825,155.15 189.158,159.816 191.5,164.5C 192.466,166.396 192.799,168.396 192.5,170.5C 192.603,173.636 193.603,176.302 195.5,178.5C 202.696,184.036 208.029,191.036 211.5,199.5C 214.237,201.905 217.237,203.905 220.5,205.5C 221.612,206.265 222.279,207.265 222.5,208.5C 223.052,212.277 225.052,214.944 228.5,216.5C 233.284,217.805 237.951,219.471 242.5,221.5C 244.261,222.917 245.594,224.583 246.5,226.5C 246.5,228.5 246.5,230.5 246.5,232.5C 244.926,234.102 244.259,236.102 244.5,238.5C 252.392,238.83 259.726,241.163 266.5,245.5C 269.193,248.527 272.193,251.193 275.5,253.5C 279.135,259.774 282.468,266.107 285.5,272.5C 285.892,276.692 287.226,280.359 289.5,283.5C 291.706,288.601 294.206,293.601 297,298.5C 297.667,301.167 297.667,303.833 297,306.5C 294.511,310.405 294.011,314.405 295.5,318.5C 295.425,321.206 295.092,323.873 294.5,326.5C 291.516,329.474 289.849,333.141 289.5,337.5C 290.277,341.827 290.944,346.16 291.5,350.5C 291.335,354.182 291.501,357.848 292,361.5C 292.586,364.019 293.753,366.019 295.5,367.5C 295.5,367.833 295.5,368.167 295.5,368.5C 296.662,371.68 298.662,374.347 301.5,376.5C 302.689,377.429 304.022,377.762 305.5,377.5C 310.716,380.36 315.716,383.693 320.5,387.5C 323.105,389.743 325.105,392.41 326.5,395.5C 295.013,410.625 263.679,425.958 232.5,441.5C 213.907,452.712 195.407,464.045 177,475.5C 176.46,477.135 176.96,478.468 178.5,479.5C 182.991,483.163 187.991,485.83 193.5,487.5C 197.539,491.204 201.872,494.537 206.5,497.5C 210.834,502.16 214.168,507.494 216.5,513.5C 220.379,515.719 224.379,517.719 228.5,519.5C 231.782,521.758 233.782,524.758 234.5,528.5C 234.956,532.664 235.622,536.664 236.5,540.5C 236.281,541.675 236.614,542.675 237.5,543.5C 241.172,537.486 244.839,531.486 248.5,525.5C 250.396,524.534 252.396,524.201 254.5,524.5C 256.287,523.553 257.953,522.387 259.5,521C 259.272,520.601 258.938,520.435 258.5,520.5C 259.364,518.081 260.697,516.081 262.5,514.5C 267.935,513.877 273.268,513.21 278.5,512.5C 289.757,513.149 301.09,512.482 312.5,510.5C 316.555,511.976 320.555,513.642 324.5,515.5C 329.833,516.167 335.167,516.833 340.5,517.5C 344.394,519.873 348.06,522.54 351.5,525.5C 359.334,525.989 367.001,527.323 374.5,529.5C 380.833,535.833 387.167,542.167 393.5,548.5C 397.046,558.293 400.713,567.96 404.5,577.5C 404.069,579.754 403.403,581.921 402.5,584C 402.833,584.833 403.167,585.667 403.5,586.5C 409.885,590.359 416.551,593.692 423.5,596.5C 425.407,600.744 428.407,604.078 432.5,606.5C 434.731,608.727 436.064,611.394 436.5,614.5C 441.701,616.197 445.534,619.53 448,624.5C 450.405,629.61 452.405,634.944 454,640.5C 454.499,645.155 454.666,649.821 454.5,654.5C 457.535,654.521 459.868,655.854 461.5,658.5C 462.047,662.158 463.714,665.158 466.5,667.5C 472.51,668.897 477.51,671.897 481.5,676.5C 482.498,684.472 482.831,692.472 482.5,700.5C 487.5,700.5 492.5,700.5 497.5,700.5C 500.61,699.912 503.61,699.245 506.5,698.5C 509.833,698.5 513.167,698.5 516.5,698.5C 519.28,697.922 521.947,697.255 524.5,696.5C 527.833,696.5 531.167,696.5 534.5,696.5C 537.28,695.922 539.947,695.255 542.5,694.5C 545.833,694.5 549.167,694.5 552.5,694.5C 553.15,694.196 553.817,693.863 554.5,693.5C 556.623,694.694 558.957,695.36 561.5,695.5C 567.319,694.532 572.985,693.532 578.5,692.5C 580.833,692.5 583.167,692.5 585.5,692.5C 587.952,691.935 590.285,691.268 592.5,690.5C 597.983,689.695 603.317,688.361 608.5,686.5C 610.602,678.962 614.268,672.296 619.5,666.5C 619.5,678.167 619.5,689.833 619.5,701.5C 412.833,701.5 206.167,701.5 -0.5,701.5C -0.5,488.5 -0.5,275.5 -0.5,62.5 Z"/></g>
<g><path style="opacity:1" fill="#b38ec9" d="M 157.5,64.5 C 153.627,66.4302 149.294,67.0969 144.5,66.5C 148.73,65.7798 153.063,65.1132 157.5,64.5 Z"/></g>
<g><path style="opacity:1" fill="#ad83c4" d="M 262.5,66.5 C 262.325,68.6208 262.659,70.6208 263.5,72.5C 260.073,70.9873 259.739,68.9873 262.5,66.5 Z"/></g>
<g><path style="opacity:1" fill="#b492c8" d="M 272.5,72.5 C 275.28,73.0784 277.947,73.7451 280.5,74.5C 277.302,75.0356 274.635,74.369 272.5,72.5 Z"/></g>
<g><path style="opacity:1" fill="#b390c8" d="M 286.5,74.5 C 287.995,74.9887 289.329,75.6554 290.5,76.5C 288.517,76.8432 287.183,76.1765 286.5,74.5 Z"/></g>
<g><path style="opacity:1" fill="#ae89c3" d="M 288.5,116.5 C 288.5,117.833 288.5,119.167 288.5,120.5C 287.624,120.631 286.957,120.298 286.5,119.5C 286.942,118.261 287.609,117.261 288.5,116.5 Z"/></g>
<g><path style="opacity:1" fill="#deddde" d="M 50.5,122.5 C 88.1816,121.84 125.515,122.506 162.5,124.5C 125.069,123.839 87.7356,123.173 50.5,122.5 Z"/></g>
<g><path style="opacity:1" fill="#bca5c8" d="M 179.5,144.5 C 181.537,146.202 183.203,148.202 184.5,150.5C 181.721,149.391 180.054,147.391 179.5,144.5 Z"/></g>
<g><path style="opacity:1" fill="#ad82c7" d="M 192.5,170.5 C 194.097,172.848 195.097,175.514 195.5,178.5C 193.603,176.302 192.603,173.636 192.5,170.5 Z"/></g>
<g><path style="opacity:1" fill="#bca5c9" d="M 222.5,208.5 C 224.477,211.09 226.477,213.757 228.5,216.5C 225.052,214.944 223.052,212.277 222.5,208.5 Z"/></g>
<g><path style="opacity:1" fill="#ae82c7" d="M 342.5,222.5 C 341.725,224.612 341.725,226.612 342.5,228.5C 340.084,226.705 340.084,224.705 342.5,222.5 Z"/></g>
<g><path style="opacity:1" fill="#ae87c4" d="M 246.5,226.5 C 249.167,228.5 249.167,230.5 246.5,232.5C 246.5,230.5 246.5,228.5 246.5,226.5 Z"/></g>
<g><path style="opacity:1" fill="#c8bdd0" d="M 364.5,260.5 C 374.783,269.782 384.783,279.448 394.5,289.5C 395.776,290.614 395.776,291.614 394.5,292.5C 384.5,281.833 374.5,271.167 364.5,260.5 Z"/></g>
<g><path style="opacity:1" fill="#b9a4c8" d="M 285.5,272.5 C 287.408,275.884 288.741,279.55 289.5,283.5C 287.226,280.359 285.892,276.692 285.5,272.5 Z"/></g>
<g><path style="opacity:1" fill="#c7bcce" d="M 393.5,296.5 C 393.719,297.675 393.386,298.675 392.5,299.5C 388.167,303.833 383.833,308.167 379.5,312.5C 378.675,313.386 377.675,313.719 376.5,313.5C 382.167,307.833 387.833,302.167 393.5,296.5 Z"/></g>
<g><path style="opacity:1" fill="#ac79c8" d="M 295.5,318.5 C 296.917,321.34 296.584,324.007 294.5,326.5C 295.092,323.873 295.425,321.206 295.5,318.5 Z"/></g>
<g><path style="opacity:1" fill="#ae7dca" d="M 456.5,328.5 C 456.666,333.179 456.499,337.845 456,342.5C 454.599,344.192 452.766,344.859 450.5,344.5C 452.19,343.897 453.69,342.897 455,341.5C 455.175,336.981 455.675,332.647 456.5,328.5 Z"/></g>
<g><path style="opacity:1" fill="#b082ca" d="M 368.5,324.5 C 367.169,332.47 367.169,340.47 368.5,348.5C 372.546,349.765 376.546,349.765 380.5,348.5C 378.777,349.8 376.61,350.467 374,350.5C 371.375,350.419 369.041,349.752 367,348.5C 366.833,344.5 366.667,340.5 366.5,336.5C 366.509,332.107 367.176,328.107 368.5,324.5 Z"/></g>
<g><path style="opacity:1" fill="#c0a7cf" d="M 506.5,334.5 C 507.15,334.804 507.817,335.137 508.5,335.5C 509.489,338.438 510.156,341.438 510.5,344.5C 509.164,341.238 507.831,337.905 506.5,334.5 Z"/></g>
<g><path style="opacity:1" fill="#b492c9" d="M 436.5,344.5 C 432.971,346.423 428.971,347.089 424.5,346.5C 428.395,345.775 432.395,345.109 436.5,344.5 Z"/></g>
<g><path style="opacity:1" fill="#b594c9" d="M 410.5,346.5 C 406.285,348.436 401.619,349.103 396.5,348.5C 401.064,347.784 405.731,347.117 410.5,346.5 Z"/></g>
<g><path style="opacity:1" fill="#c8b0d3" d="M 510.5,346.5 C 513.09,350.693 514.09,355.36 513.5,360.5C 512.666,355.9 511.666,351.234 510.5,346.5 Z"/></g>
<g><path style="opacity:1" fill="#bdb0cb" d="M 291.5,350.5 C 291.989,356.274 293.322,361.94 295.5,367.5C 293.753,366.019 292.586,364.019 292,361.5C 291.501,357.848 291.335,354.182 291.5,350.5 Z"/></g>
<g><path style="opacity:1" fill="#c8becf" d="M 295.5,368.5 C 298.542,371.878 301.875,374.878 305.5,377.5C 304.022,377.762 302.689,377.429 301.5,376.5C 298.662,374.347 296.662,371.68 295.5,368.5 Z"/></g>
<g><path style="opacity:1" fill="#b58fc9" d="M 511.5,446.5 C 514.054,447.388 516.721,447.721 519.5,447.5C 519.784,449.415 519.451,451.081 518.5,452.5C 518.5,451.167 518.5,449.833 518.5,448.5C 515.612,449.01 513.279,448.344 511.5,446.5 Z"/></g>
<g><path style="opacity:1" fill="#c7b8d0" d="M 542.5,484.5 C 546.5,487.167 549.833,490.5 552.5,494.5C 548.5,491.833 545.167,488.5 542.5,484.5 Z"/></g>
<g><path style="opacity:1" fill="#ae7dca" d="M 551.5,500.5 C 551.46,503.881 551.793,507.214 552.5,510.5C 551.028,508.883 550.361,506.883 550.5,504.5C 550.511,502.955 550.844,501.622 551.5,500.5 Z"/></g>
<g><path style="opacity:1" fill="#b592c9" d="M 278.5,512.5 C 273.268,513.21 267.935,513.877 262.5,514.5C 267.396,512.554 272.729,511.887 278.5,512.5 Z"/></g>
<g><path style="opacity:1" fill="#bda2cb" d="M 258.5,520.5 C 258.938,520.435 259.272,520.601 259.5,521C 257.953,522.387 256.287,523.553 254.5,524.5C 255.167,522.5 256.5,521.167 258.5,520.5 Z"/></g>
<g><path style="opacity:1" fill="#ac79c9" d="M 234.5,528.5 C 235.222,528.918 235.722,529.584 236,530.5C 236.498,533.817 236.665,537.15 236.5,540.5C 235.622,536.664 234.956,532.664 234.5,528.5 Z"/></g>
<g><path style="opacity:1" fill="#b28ac9" d="M 532.5,578.5 C 533.285,580.374 533.952,582.374 534.5,584.5C 532.692,583.082 532.025,581.082 532.5,578.5 Z"/></g>
<g><path style="opacity:1" fill="#c5b8cc" d="M 423.5,596.5 C 426.864,599.529 429.864,602.863 432.5,606.5C 428.407,604.078 425.407,600.744 423.5,596.5 Z"/></g>
<g><path style="opacity:1" fill="#b491c9" d="M 549.5,600.5 C 553.273,601.103 556.939,601.77 560.5,602.5C 556.351,603.08 552.684,602.414 549.5,600.5 Z"/></g>
<g><path style="opacity:1" fill="#ae82c7" d="M 602.5,636.5 C 601.725,638.612 601.725,640.612 602.5,642.5C 600.084,640.705 600.084,638.705 602.5,636.5 Z"/></g>
<g><path style="opacity:1" fill="#b28ac8" d="M 592.5,690.5 C 590.285,691.268 587.952,691.935 585.5,692.5C 587.279,690.656 589.612,689.99 592.5,690.5 Z"/></g>
<g><path style="opacity:1" fill="#b492c8" d="M 542.5,694.5 C 539.947,695.255 537.28,695.922 534.5,696.5C 536.635,694.631 539.302,693.964 542.5,694.5 Z"/></g>
<g><path style="opacity:1" fill="#cbbad4" d="M 578.5,692.5 C 572.985,693.532 567.319,694.532 561.5,695.5C 558.957,695.36 556.623,694.694 554.5,693.5C 553.817,693.863 553.15,694.196 552.5,694.5C 552.62,693.414 553.287,692.747 554.5,692.5C 556.715,693.544 559.048,694.21 561.5,694.5C 567.085,693.069 572.751,692.402 578.5,692.5 Z"/></g>
<g><path style="opacity:1" fill="#b492c8" d="M 524.5,696.5 C 521.947,697.255 519.28,697.922 516.5,698.5C 518.635,696.631 521.302,695.964 524.5,696.5 Z"/></g>
<g><path style="opacity:1" fill="#b38cc8" d="M 506.5,698.5 C 503.61,699.245 500.61,699.912 497.5,700.5C 499.988,698.612 502.988,697.945 506.5,698.5 Z"/></g>
</svg>
