<?xml version="1.0" encoding="UTF-8"?>
<!DOCTYPE svg PUBLIC "-//W3C//DTD SVG 1.1//EN" "http://www.w3.org/Graphics/SVG/1.1/DTD/svg11.dtd">
<svg xmlns="http://www.w3.org/2000/svg" version="1.1" width="126px" height="192px" style="shape-rendering:geometricPrecision; text-rendering:geometricPrecision; image-rendering:optimizeQuality; fill-rule:evenodd; clip-rule:evenodd" xmlns:xlink="http://www.w3.org/1999/xlink">
<g><path style="opacity:1" fill="#fefefe" d="M -0.5,0.5 C -0.5,0.166667 -0.5,-0.166667 -0.5,-0.5C 41.5,-0.5 83.5,-0.5 125.5,-0.5C 125.5,62.5 125.5,125.5 125.5,188.5C 122.584,178.811 120.584,168.811 119.5,158.5C 118.629,152.499 117.296,146.833 115.5,141.5C 113.405,130.605 111.405,119.605 109.5,108.5C 110.123,101.745 109.456,95.412 107.5,89.5C 107.5,84.5 107.5,79.5 107.5,74.5C 107.777,69.7668 107.443,65.1001 106.5,60.5C 98.5,56.5 90.5,52.5 82.5,48.5C 81.8333,45.8333 81.1667,43.1667 80.5,40.5C 78.8614,39.6781 77.1947,39.0114 75.5,38.5C 74.8333,38.5 74.5,38.1667 74.5,37.5C 74.2786,36.2652 73.6119,35.2652 72.5,34.5C 69.7476,32.6639 66.7476,31.6639 63.5,31.5C 61.58,30.9348 59.9133,29.9348 58.5,28.5C 54.8711,26.2237 51.2045,23.8903 47.5,21.5C 46.1802,19.1829 44.5136,17.1829 42.5,15.5C 42.4606,14.4168 42.1272,13.4168 41.5,12.5C 36.322,10.2177 30.9887,8.55107 25.5,7.5C 24.791,6.59603 23.791,6.26269 22.5,6.5C 16.8333,3.72217 10.8333,1.72217 4.5,0.5C 3.16667,0.5 1.83333,0.5 0.5,0.5C 0.166667,0.5 -0.166667,0.5 -0.5,0.5 Z"/></g>
<g><path style="opacity:1" fill="#63efcf" d="M 0.5,0.5 C 1.83333,0.5 3.16667,0.5 4.5,0.5C 10.0561,3.24112 16.0561,5.24112 22.5,6.5C 23.791,6.26269 24.791,6.59603 25.5,7.5C 31.4474,9.59241 37.1141,12.2591 42.5,15.5C 44.5136,17.1829 46.1802,19.1829 47.5,21.5C 50.1396,25.4775 53.8063,27.8108 58.5,28.5C 59.9133,29.9348 61.58,30.9348 63.5,31.5C 67.2548,33.2131 70.9215,35.2131 74.5,37.5C 74.5,38.1667 74.8333,38.5 75.5,38.5C 76.3351,39.9432 77.6684,40.9432 79.5,41.5C 80.1667,44.1667 80.8333,46.8333 81.5,49.5C 89.5,53.5 97.5,57.5 105.5,61.5C 106.114,65.9669 106.78,70.3002 107.5,74.5C 107.5,79.5 107.5,84.5 107.5,89.5C 108.13,95.9338 108.797,102.267 109.5,108.5C 111.405,119.605 113.405,130.605 115.5,141.5C 115.854,147.493 117.187,153.16 119.5,158.5C 120.584,168.811 122.584,178.811 125.5,188.5C 125.5,189.5 125.5,190.5 125.5,191.5C 124.833,191.5 124.167,191.5 123.5,191.5C 116.937,187.386 109.937,184.053 102.5,181.5C 100.769,180.793 99.1026,179.793 97.5,178.5C 96.1419,175.487 94.8086,172.487 93.5,169.5C 92.7904,167.254 92.2904,164.92 92,162.5C 91.6174,161.944 91.1174,161.611 90.5,161.5C 90.6522,157.532 89.6522,153.865 87.5,150.5C 86.1585,148.995 84.4918,148.328 82.5,148.5C 82.5,148.167 82.5,147.833 82.5,147.5C 80.3368,145.058 77.6701,143.392 74.5,142.5C 73.3999,139.958 72.0666,137.625 70.5,135.5C 70.3112,131.002 69.3112,126.669 67.5,122.5C 66.9348,120.456 65.9348,118.79 64.5,117.5C 62.6589,113.643 59.9922,110.309 56.5,107.5C 55.675,106.614 54.675,106.281 53.5,106.5C 53.5,106.167 53.5,105.833 53.5,105.5C 53.0248,102.238 52.0248,99.2381 50.5,96.5C 48.8784,95.8776 47.5451,94.8776 46.5,93.5C 45.5818,90.2478 43.5818,87.9145 40.5,86.5C 39.5398,84.5393 38.2065,82.8726 36.5,81.5C 34.9402,79.5712 32.9402,78.2378 30.5,77.5C 28.9402,75.0465 27.9402,72.3798 27.5,69.5C 27.2331,66.6879 26.2331,64.3545 24.5,62.5C 24.5,61.1667 23.8333,60.5 22.5,60.5C 20.2844,58.7675 17.6177,57.7675 14.5,57.5C 9.85121,55.8398 5.85121,53.1731 2.5,49.5C 2.7315,36.8076 2.39817,24.141 1.5,11.5C 0.577339,7.93595 0.244006,4.26928 0.5,0.5 Z"/></g>
<g><path style="opacity:1" fill="#b6dad1" d="M 4.5,0.5 C 10.8333,1.72217 16.8333,3.72217 22.5,6.5C 16.0561,5.24112 10.0561,3.24112 4.5,0.5 Z"/></g>
<g><path style="opacity:1" fill="#c7d3d1" d="M -0.5,0.5 C -0.166667,0.5 0.166667,0.5 0.5,0.5C 0.244006,4.26928 0.577339,7.93595 1.5,11.5C 0.833333,11.5 0.166667,11.5 -0.5,11.5C -0.5,7.83333 -0.5,4.16667 -0.5,0.5 Z"/></g>
<g><path style="opacity:1" fill="#fefefe" d="M -0.5,11.5 C 0.166667,11.5 0.833333,11.5 1.5,11.5C 2.39817,24.141 2.7315,36.8076 2.5,49.5C 2.72211,51.6075 3.72211,53.2742 5.5,54.5C 8.25235,56.3361 11.2524,57.3361 14.5,57.5C 16.7156,59.2325 19.3823,60.2325 22.5,60.5C 23.8333,60.5 24.5,61.1667 24.5,62.5C 24.7669,65.3121 25.7669,67.6455 27.5,69.5C 27.9402,72.3798 28.9402,75.0465 30.5,77.5C 31.8282,79.719 33.8282,81.0523 36.5,81.5C 38.2065,82.8726 39.5398,84.5393 40.5,86.5C 42.155,89.153 44.155,91.4864 46.5,93.5C 47.5451,94.8776 48.8784,95.8776 50.5,96.5C 50.5567,100.029 51.5567,103.029 53.5,105.5C 53.5,105.833 53.5,106.167 53.5,106.5C 57.1667,110.167 60.8333,113.833 64.5,117.5C 66.5304,123.591 68.5304,129.591 70.5,135.5C 71.0147,137.894 71.6814,140.228 72.5,142.5C 75.713,144.302 79.0464,145.968 82.5,147.5C 82.5,147.833 82.5,148.167 82.5,148.5C 86.9369,151.7 89.6036,156.034 90.5,161.5C 90.6614,164.68 91.6614,167.347 93.5,169.5C 94.8086,172.487 96.1419,175.487 97.5,178.5C 99.1026,179.793 100.769,180.793 102.5,181.5C 108.28,184.614 113.947,187.947 119.5,191.5C 79.5,191.5 39.5,191.5 -0.5,191.5C -0.5,131.5 -0.5,71.5 -0.5,11.5 Z"/></g>
<g><path style="opacity:1" fill="#b7d3cc" d="M 25.5,7.5 C 30.9887,8.55107 36.322,10.2177 41.5,12.5C 42.1272,13.4168 42.4606,14.4168 42.5,15.5C 37.1141,12.2591 31.4474,9.59241 25.5,7.5 Z"/></g>
<g><path style="opacity:1" fill="#bed3cf" d="M 47.5,21.5 C 51.2045,23.8903 54.8711,26.2237 58.5,28.5C 53.8063,27.8108 50.1396,25.4775 47.5,21.5 Z"/></g>
<g><path style="opacity:1" fill="#bed4ce" d="M 63.5,31.5 C 66.7476,31.6639 69.7476,32.6639 72.5,34.5C 73.6119,35.2652 74.2786,36.2652 74.5,37.5C 70.9215,35.2131 67.2548,33.2131 63.5,31.5 Z"/></g>
<g><path style="opacity:1" fill="#c2d5d1" d="M 75.5,38.5 C 77.1947,39.0114 78.8614,39.6781 80.5,40.5C 81.1667,43.1667 81.8333,45.8333 82.5,48.5C 90.5,52.5 98.5,56.5 106.5,60.5C 107.443,65.1001 107.777,69.7668 107.5,74.5C 106.78,70.3002 106.114,65.9669 105.5,61.5C 97.5,57.5 89.5,53.5 81.5,49.5C 80.8333,46.8333 80.1667,44.1667 79.5,41.5C 77.6684,40.9432 76.3351,39.9432 75.5,38.5 Z"/></g>
<g><path style="opacity:1" fill="#c1d1cd" d="M 2.5,49.5 C 5.85121,53.1731 9.85121,55.8398 14.5,57.5C 11.2524,57.3361 8.25235,56.3361 5.5,54.5C 3.72211,53.2742 2.72211,51.6075 2.5,49.5 Z"/></g>
<g><path style="opacity:1" fill="#b5d9d0" d="M 14.5,57.5 C 17.6177,57.7675 20.2844,58.7675 22.5,60.5C 19.3823,60.2325 16.7156,59.2325 14.5,57.5 Z"/></g>
<g><path style="opacity:1" fill="#bec8c5" d="M 24.5,62.5 C 26.2331,64.3545 27.2331,66.6879 27.5,69.5C 25.7669,67.6455 24.7669,65.3121 24.5,62.5 Z"/></g>
<g><path style="opacity:1" fill="#b9d0cb" d="M 30.5,77.5 C 32.9402,78.2378 34.9402,79.5712 36.5,81.5C 33.8282,81.0523 31.8282,79.719 30.5,77.5 Z"/></g>
<g><path style="opacity:1" fill="#d3d4d5" d="M 107.5,89.5 C 109.456,95.412 110.123,101.745 109.5,108.5C 108.797,102.267 108.13,95.9338 107.5,89.5 Z"/></g>
<g><path style="opacity:1" fill="#bdcac7" d="M 40.5,86.5 C 43.5818,87.9145 45.5818,90.2478 46.5,93.5C 44.155,91.4864 42.155,89.153 40.5,86.5 Z"/></g>
<g><path style="opacity:1" fill="#b3cdc6" d="M 50.5,96.5 C 52.0248,99.2381 53.0248,102.238 53.5,105.5C 51.5567,103.029 50.5567,100.029 50.5,96.5 Z"/></g>
<g><path style="opacity:1" fill="#b9cbc7" d="M 53.5,106.5 C 54.675,106.281 55.675,106.614 56.5,107.5C 59.9922,110.309 62.6589,113.643 64.5,117.5C 60.8333,113.833 57.1667,110.167 53.5,106.5 Z"/></g>
<g><path style="opacity:1" fill="#b5cbc5" d="M 64.5,117.5 C 65.9348,118.79 66.9348,120.456 67.5,122.5C 69.3112,126.669 70.3112,131.002 70.5,135.5C 68.5304,129.591 66.5304,123.591 64.5,117.5 Z"/></g>
<g><path style="opacity:1" fill="#8fdbc9" d="M 70.5,135.5 C 72.0666,137.625 73.3999,139.958 74.5,142.5C 73.8333,142.5 73.1667,142.5 72.5,142.5C 71.6814,140.228 71.0147,137.894 70.5,135.5 Z"/></g>
<g><path style="opacity:1" fill="#c0d5d1" d="M 115.5,141.5 C 117.296,146.833 118.629,152.499 119.5,158.5C 117.187,153.16 115.854,147.493 115.5,141.5 Z"/></g>
<g><path style="opacity:1" fill="#bfd2ce" d="M 72.5,142.5 C 73.1667,142.5 73.8333,142.5 74.5,142.5C 77.6701,143.392 80.3368,145.058 82.5,147.5C 79.0464,145.968 75.713,144.302 72.5,142.5 Z"/></g>
<g><path style="opacity:1" fill="#b9cdc8" d="M 82.5,148.5 C 84.4918,148.328 86.1585,148.995 87.5,150.5C 89.6522,153.865 90.6522,157.532 90.5,161.5C 89.6036,156.034 86.9369,151.7 82.5,148.5 Z"/></g>
<g><path style="opacity:1" fill="#b1ccc5" d="M 90.5,161.5 C 91.1174,161.611 91.6174,161.944 92,162.5C 92.2904,164.92 92.7904,167.254 93.5,169.5C 91.6614,167.347 90.6614,164.68 90.5,161.5 Z"/></g>
<g><path style="opacity:1" fill="#bed3ce" d="M 102.5,181.5 C 109.937,184.053 116.937,187.386 123.5,191.5C 122.167,191.5 120.833,191.5 119.5,191.5C 113.947,187.947 108.28,184.614 102.5,181.5 Z"/></g>
</svg>
