<?xml version="1.0" encoding="UTF-8"?>
<!DOCTYPE svg PUBLIC "-//W3C//DTD SVG 1.1//EN" "http://www.w3.org/Graphics/SVG/1.1/DTD/svg11.dtd">
<svg xmlns="http://www.w3.org/2000/svg" version="1.1" width="63px" height="86px" style="shape-rendering:geometricPrecision; text-rendering:geometricPrecision; image-rendering:optimizeQuality; fill-rule:evenodd; clip-rule:evenodd" xmlns:xlink="http://www.w3.org/1999/xlink">
<g><path style="opacity:1" fill="#fdfdfd" d="M -0.5,-0.5 C 14.5,-0.5 29.5,-0.5 44.5,-0.5C 40.8064,2.2934 36.8064,4.62674 32.5,6.5C 29.318,7.59446 26.318,8.92779 23.5,10.5C 23.5,10.8333 23.5,11.1667 23.5,11.5C 19.42,12.3753 15.7533,14.0419 12.5,16.5C 10.4001,18.3934 8.06672,20.0601 5.5,21.5C 3.28209,21.6138 1.28209,22.2804 -0.5,23.5C -0.5,15.5 -0.5,7.5 -0.5,-0.5 Z"/></g>
<g><path style="opacity:1" fill="#fbfbfb" d="M 46.5,-0.5 C 51.8333,-0.5 57.1667,-0.5 62.5,-0.5C 62.5,9.16667 62.5,18.8333 62.5,28.5C 62.1667,28.5 61.8333,28.5 61.5,28.5C 60.5386,26.7354 60.2053,24.7354 60.5,22.5C 60.0032,16.1737 58.3366,10.1737 55.5,4.5C 53.8614,3.67806 52.1947,3.01139 50.5,2.5C 48.8784,1.87764 47.5451,0.877641 46.5,-0.5 Z"/></g>
<g><path style="opacity:1" fill="#846d32" d="M 44.5,-0.5 C 45.1667,-0.5 45.8333,-0.5 46.5,-0.5C 47.5451,0.877641 48.8784,1.87764 50.5,2.5C 51.3351,3.94316 52.6684,4.94316 54.5,5.5C 56.857,11.178 58.857,16.8447 60.5,22.5C 60.2053,24.7354 60.5386,26.7354 61.5,28.5C 59.2255,34.267 57.8922,40.267 57.5,46.5C 58.7844,59.1491 59.7844,71.8158 60.5,84.5C 48.7453,81.2492 37.0786,77.5825 25.5,73.5C 23.993,72.6114 22.6597,71.6114 21.5,70.5C 19.9998,66.827 17.9998,63.4937 15.5,60.5C 15.3404,58.847 14.6737,57.5137 13.5,56.5C 13.4606,55.4168 13.1272,54.4168 12.5,53.5C 13.4147,52.6721 14.0814,51.6721 14.5,50.5C 13.3087,47.432 11.642,44.7654 9.5,42.5C 9.3404,40.847 8.67373,39.5137 7.5,38.5C 7.16667,38.5 6.83333,38.5 6.5,38.5C 5.87898,34.5912 4.21231,31.2579 1.5,28.5C 1.46056,27.4168 1.12723,26.4168 0.5,25.5C 2.01542,23.8322 3.68209,22.4989 5.5,21.5C 8.06672,20.0601 10.4001,18.3934 12.5,16.5C 16.58,15.6247 20.2467,13.9581 23.5,11.5C 23.5,11.1667 23.5,10.8333 23.5,10.5C 27.2232,10.4662 30.2232,9.13283 32.5,6.5C 36.8064,4.62674 40.8064,2.2934 44.5,-0.5 Z"/></g>
<g><path style="opacity:1" fill="#b9b4ae" d="M 50.5,2.5 C 52.1947,3.01139 53.8614,3.67806 55.5,4.5C 58.3366,10.1737 60.0032,16.1737 60.5,22.5C 58.857,16.8447 56.857,11.178 54.5,5.5C 52.6684,4.94316 51.3351,3.94316 50.5,2.5 Z"/></g>
<g><path style="opacity:1" fill="#c1bfba" d="M 32.5,6.5 C 30.2232,9.13283 27.2232,10.4662 23.5,10.5C 26.318,8.92779 29.318,7.59446 32.5,6.5 Z"/></g>
<g><path style="opacity:1" fill="#c7c5c2" d="M 23.5,11.5 C 20.2467,13.9581 16.58,15.6247 12.5,16.5C 15.7533,14.0419 19.42,12.3753 23.5,11.5 Z"/></g>
<g><path style="opacity:1" fill="#b8b7af" d="M 5.5,21.5 C 3.68209,22.4989 2.01542,23.8322 0.5,25.5C 1.12723,26.4168 1.46056,27.4168 1.5,28.5C 0.833333,28.1667 0.166667,27.8333 -0.5,27.5C -0.5,26.1667 -0.5,24.8333 -0.5,23.5C 1.28209,22.2804 3.28209,21.6138 5.5,21.5 Z"/></g>
<g><path style="opacity:1" fill="#fefefe" d="M -0.5,27.5 C 0.166667,27.8333 0.833333,28.1667 1.5,28.5C 2.65341,32.1402 4.32007,35.4735 6.5,38.5C 6.83333,38.5 7.16667,38.5 7.5,38.5C 7.22911,40.3797 7.89578,41.713 9.5,42.5C 10.285,45.4033 11.6183,48.07 13.5,50.5C 10.8851,52.6368 10.8851,54.6368 13.5,56.5C 13.2291,58.3797 13.8958,59.713 15.5,60.5C 16.489,64.4842 18.489,67.8176 21.5,70.5C 21.5,71.5 21.5,72.5 21.5,73.5C 32.8816,76.9556 43.8816,80.9556 54.5,85.5C 36.1667,85.5 17.8333,85.5 -0.5,85.5C -0.5,66.1667 -0.5,46.8333 -0.5,27.5 Z"/></g>
<g><path style="opacity:1" fill="#fefffe" d="M 62.5,31.5 C 62.5,49.5 62.5,67.5 62.5,85.5C 62.1667,85.5 61.8333,85.5 61.5,85.5C 60.9265,72.4713 59.9265,59.4713 58.5,46.5C 58.7665,41.0925 60.0999,36.0925 62.5,31.5 Z"/></g>
<g><path style="opacity:1" fill="#b4b2aa" d="M 1.5,28.5 C 4.21231,31.2579 5.87898,34.5912 6.5,38.5C 4.32007,35.4735 2.65341,32.1402 1.5,28.5 Z"/></g>
<g><path style="opacity:1" fill="#a7a497" d="M 7.5,38.5 C 8.67373,39.5137 9.3404,40.847 9.5,42.5C 7.89578,41.713 7.22911,40.3797 7.5,38.5 Z"/></g>
<g><path style="opacity:1" fill="#b2afa7" d="M 9.5,42.5 C 11.642,44.7654 13.3087,47.432 14.5,50.5C 14.0814,51.6721 13.4147,52.6721 12.5,53.5C 13.1272,54.4168 13.4606,55.4168 13.5,56.5C 10.8851,54.6368 10.8851,52.6368 13.5,50.5C 11.6183,48.07 10.285,45.4033 9.5,42.5 Z"/></g>
<g><path style="opacity:1" fill="#a6a094" d="M 13.5,56.5 C 14.6737,57.5137 15.3404,58.847 15.5,60.5C 13.8958,59.713 13.2291,58.3797 13.5,56.5 Z"/></g>
<g><path style="opacity:1" fill="#b1afa6" d="M 15.5,60.5 C 17.9998,63.4937 19.9998,66.827 21.5,70.5C 18.489,67.8176 16.489,64.4842 15.5,60.5 Z"/></g>
<g><path style="opacity:1" fill="#b8b4ad" d="M 61.5,28.5 C 61.8333,28.5 62.1667,28.5 62.5,28.5C 62.5,29.5 62.5,30.5 62.5,31.5C 60.0999,36.0925 58.7665,41.0925 58.5,46.5C 59.9265,59.4713 60.9265,72.4713 61.5,85.5C 59.1667,85.5 56.8333,85.5 54.5,85.5C 43.8816,80.9556 32.8816,76.9556 21.5,73.5C 21.5,72.5 21.5,71.5 21.5,70.5C 22.6597,71.6114 23.993,72.6114 25.5,73.5C 37.0786,77.5825 48.7453,81.2492 60.5,84.5C 59.7844,71.8158 58.7844,59.1491 57.5,46.5C 57.8922,40.267 59.2255,34.267 61.5,28.5 Z"/></g>
</svg>
