<?xml version="1.0" encoding="UTF-8"?>
<!DOCTYPE svg PUBLIC "-//W3C//DTD SVG 1.1//EN" "http://www.w3.org/Graphics/SVG/1.1/DTD/svg11.dtd">
<svg xmlns="http://www.w3.org/2000/svg" version="1.1" width="110px" height="136px" style="shape-rendering:geometricPrecision; text-rendering:geometricPrecision; image-rendering:optimizeQuality; fill-rule:evenodd; clip-rule:evenodd" xmlns:xlink="http://www.w3.org/1999/xlink">
<g><path style="opacity:1" fill="#fefefe" d="M -0.5,-0.5 C 9.16667,-0.5 18.8333,-0.5 28.5,-0.5C 27.6091,2.77806 26.7758,6.11139 26,9.5C 25.5001,21.1619 25.3335,32.8286 25.5,44.5C 24.2817,50.6373 23.4484,56.9706 23,63.5C 22.6162,66.0602 21.7829,68.3936 20.5,70.5C 20.1667,70.5 19.8333,70.5 19.5,70.5C 15.9622,72.0524 12.2955,73.0524 8.5,73.5C 8.66463,76.5184 8.49796,79.5184 8,82.5C 5.14552,91.9402 2.31218,101.273 -0.5,110.5C -0.5,73.5 -0.5,36.5 -0.5,-0.5 Z"/></g>
<g><path style="opacity:1" fill="#c0c0c5" d="M 28.5,-0.5 C 47.1667,-0.5 65.8333,-0.5 84.5,-0.5C 86.309,3.30528 86.809,7.30528 86,11.5C 83.544,13.3213 80.7107,13.988 77.5,13.5C 85.7069,12.7445 87.7069,8.57785 83.5,1C 65.5,0.333333 47.5,0.333333 29.5,1C 28.5447,4.09935 27.7114,7.26602 27,10.5C 26.8306,22.0074 26.3306,33.3407 25.5,44.5C 25.3335,32.8286 25.5001,21.1619 26,9.5C 26.7758,6.11139 27.6091,2.77806 28.5,-0.5 Z"/></g>
<g><path style="opacity:1" fill="#fefefe" d="M 84.5,-0.5 C 92.8333,-0.5 101.167,-0.5 109.5,-0.5C 109.5,16.5 109.5,33.5 109.5,50.5C 107.216,48.1096 105.55,45.2763 104.5,42C 101.518,41.502 98.5184,41.3354 95.5,41.5C 95.5,42.5 95.5,43.5 95.5,44.5C 95.1667,44.5 94.8333,44.5 94.5,44.5C 91.4081,47.3549 87.7414,48.1882 83.5,47C 81.4901,41.9748 79.6567,36.8081 78,31.5C 74.7895,28.9209 71.6229,26.2543 68.5,23.5C 67.1667,22.1667 67.1667,20.8333 68.5,19.5C 71.5555,17.4192 74.5555,15.4192 77.5,13.5C 80.7107,13.988 83.544,13.3213 86,11.5C 86.809,7.30528 86.309,3.30528 84.5,-0.5 Z"/></g>
<g><path style="opacity:1" fill="#353886" d="M 77.5,13.5 C 73.7243,14.2742 70.391,15.9409 67.5,18.5C 66.1667,20.5 66.1667,22.5 67.5,24.5C 70.6229,27.2543 73.7895,29.9209 77,32.5C 78.6567,37.8081 80.4901,42.9748 82.5,48C 85.8333,48.6667 89.1667,48.6667 92.5,48C 93.8228,47.1841 94.4894,46.0174 94.5,44.5C 94.8333,44.5 95.1667,44.5 95.5,44.5C 97.8124,42.6329 100.479,42.1329 103.5,43C 104.903,46.4728 106.57,49.8061 108.5,53C 93.8507,61.955 78.8507,70.455 63.5,78.5C 62.3861,79.723 62.2195,81.0563 63,82.5C 63.8809,85.0139 65.3809,87.0139 67.5,88.5C 67.6596,90.153 68.3263,91.4863 69.5,92.5C 70.9498,96.2096 72.9498,99.5429 75.5,102.5C 75.5394,103.583 75.8728,104.583 76.5,105.5C 74.8164,106.854 74.3164,108.521 75,110.5C 76.8978,114.064 79.0644,117.397 81.5,120.5C 81.6596,122.153 82.3263,123.486 83.5,124.5C 84.0289,126.583 85.0289,128.417 86.5,130C 83.2803,132.751 79.6137,134.251 75.5,134.5C 61.4794,132.332 47.4794,129.832 33.5,127C 23.4234,126.809 13.4234,126.309 3.5,125.5C 2.79105,124.596 1.79105,124.263 0.5,124.5C 0.960623,110.364 3.79396,96.6977 9,83.5C 9.49796,80.5184 9.66463,77.5184 9.5,74.5C 13.4503,74.5124 16.7836,73.1791 19.5,70.5C 19.8333,70.5 20.1667,70.5 20.5,70.5C 22.8275,69.2644 23.9942,67.2644 24,64.5C 24.8314,57.854 25.3314,51.1874 25.5,44.5C 26.3306,33.3407 26.8306,22.0074 27,10.5C 27.7114,7.26602 28.5447,4.09935 29.5,1C 47.5,0.333333 65.5,0.333333 83.5,1C 87.7069,8.57785 85.7069,12.7445 77.5,13.5 Z"/></g>
<g><path style="opacity:1" fill="#b3b3bd" d="M 77.5,13.5 C 74.5555,15.4192 71.5555,17.4192 68.5,19.5C 67.1667,20.8333 67.1667,22.1667 68.5,23.5C 71.6229,26.2543 74.7895,28.9209 78,31.5C 79.6567,36.8081 81.4901,41.9748 83.5,47C 87.7414,48.1882 91.4081,47.3549 94.5,44.5C 94.4894,46.0174 93.8228,47.1841 92.5,48C 89.1667,48.6667 85.8333,48.6667 82.5,48C 80.4901,42.9748 78.6567,37.8081 77,32.5C 73.7895,29.9209 70.6229,27.2543 67.5,24.5C 66.1667,22.5 66.1667,20.5 67.5,18.5C 70.391,15.9409 73.7243,14.2742 77.5,13.5 Z"/></g>
<g><path style="opacity:1" fill="#9d9dae" d="M 25.5,44.5 C 25.3314,51.1874 24.8314,57.854 24,64.5C 23.9942,67.2644 22.8275,69.2644 20.5,70.5C 21.7829,68.3936 22.6162,66.0602 23,63.5C 23.4484,56.9706 24.2817,50.6373 25.5,44.5 Z"/></g>
<g><path style="opacity:1" fill="#acacb9" d="M 109.5,50.5 C 109.5,52.1667 109.5,53.8333 109.5,55.5C 93.8091,63.0727 78.4757,71.406 63.5,80.5C 65.0299,83.104 66.3633,85.7707 67.5,88.5C 65.3809,87.0139 63.8809,85.0139 63,82.5C 62.2195,81.0563 62.3861,79.723 63.5,78.5C 78.8507,70.455 93.8507,61.955 108.5,53C 106.57,49.8061 104.903,46.4728 103.5,43C 100.479,42.1329 97.8124,42.6329 95.5,44.5C 95.5,43.5 95.5,42.5 95.5,41.5C 98.5184,41.3354 101.518,41.502 104.5,42C 105.55,45.2763 107.216,48.1096 109.5,50.5 Z"/></g>
<g><path style="opacity:1" fill="#fefefe" d="M 109.5,55.5 C 109.5,82.1667 109.5,108.833 109.5,135.5C 100.167,135.5 90.8333,135.5 81.5,135.5C 83.6247,133.878 85.6247,132.045 87.5,130C 86.6046,127.709 85.2713,125.876 83.5,124.5C 82.3263,123.486 81.6596,122.153 81.5,120.5C 79.9608,116.287 77.9608,112.287 75.5,108.5C 78.1149,106.363 78.1149,104.363 75.5,102.5C 74.4209,98.5725 72.4209,95.2392 69.5,92.5C 68.3263,91.4863 67.6596,90.153 67.5,88.5C 66.3633,85.7707 65.0299,83.104 63.5,80.5C 78.4757,71.406 93.8091,63.0727 109.5,55.5 Z"/></g>
<g><path style="opacity:1" fill="#a3a3b1" d="M 69.5,92.5 C 72.4209,95.2392 74.4209,98.5725 75.5,102.5C 72.9498,99.5429 70.9498,96.2096 69.5,92.5 Z"/></g>
<g><path style="opacity:1" fill="#b4b4be" d="M 19.5,70.5 C 16.7836,73.1791 13.4503,74.5124 9.5,74.5C 9.66463,77.5184 9.49796,80.5184 9,83.5C 3.79396,96.6977 0.960623,110.364 0.5,124.5C 1.79105,124.263 2.79105,124.596 3.5,125.5C 2.16667,125.5 0.833333,125.5 -0.5,125.5C -0.5,120.5 -0.5,115.5 -0.5,110.5C 2.31218,101.273 5.14552,91.9402 8,82.5C 8.49796,79.5184 8.66463,76.5184 8.5,73.5C 12.2955,73.0524 15.9622,72.0524 19.5,70.5 Z"/></g>
<g><path style="opacity:1" fill="#a2a3b0" d="M 75.5,102.5 C 78.1149,104.363 78.1149,106.363 75.5,108.5C 77.9608,112.287 79.9608,116.287 81.5,120.5C 79.0644,117.397 76.8978,114.064 75,110.5C 74.3164,108.521 74.8164,106.854 76.5,105.5C 75.8728,104.583 75.5394,103.583 75.5,102.5 Z"/></g>
<g><path style="opacity:1" fill="#f9f9f9" d="M -0.5,125.5 C 0.833333,125.5 2.16667,125.5 3.5,125.5C 13.4234,126.309 23.4234,126.809 33.5,127C 47.4794,129.832 61.4794,132.332 75.5,134.5C 75.5,134.833 75.5,135.167 75.5,135.5C 50.1667,135.5 24.8333,135.5 -0.5,135.5C -0.5,132.167 -0.5,128.833 -0.5,125.5 Z"/></g>
<g><path style="opacity:1" fill="#a1a2b0" d="M 83.5,124.5 C 85.2713,125.876 86.6046,127.709 87.5,130C 85.6247,132.045 83.6247,133.878 81.5,135.5C 79.5,135.5 77.5,135.5 75.5,135.5C 75.5,135.167 75.5,134.833 75.5,134.5C 79.6137,134.251 83.2803,132.751 86.5,130C 85.0289,128.417 84.0289,126.583 83.5,124.5 Z"/></g>
</svg>
