<?xml version="1.0" encoding="UTF-8"?>
<!DOCTYPE svg PUBLIC "-//W3C//DTD SVG 1.1//EN" "http://www.w3.org/Graphics/SVG/1.1/DTD/svg11.dtd">
<svg xmlns="http://www.w3.org/2000/svg" version="1.1" width="136px" height="116px" style="shape-rendering:geometricPrecision; text-rendering:geometricPrecision; image-rendering:optimizeQuality; fill-rule:evenodd; clip-rule:evenodd" xmlns:xlink="http://www.w3.org/1999/xlink">
<g><path style="opacity:1" fill="#fcfcfc" d="M -0.5,-0.5 C 28.8333,-0.5 58.1667,-0.5 87.5,-0.5C 87.5,-0.166667 87.5,0.166667 87.5,0.5C 75.2357,6.22006 62.9024,12.2201 50.5,18.5C 37.898,20.0152 25.2313,21.0152 12.5,21.5C 8.32939,23.7317 4.32939,26.0651 0.5,28.5C 0.166667,28.5 -0.166667,28.5 -0.5,28.5C -0.5,18.8333 -0.5,9.16667 -0.5,-0.5 Z"/></g>
<g><path style="opacity:1" fill="#fefefe" d="M 92.5,-0.5 C 106.833,-0.5 121.167,-0.5 135.5,-0.5C 135.5,36.1667 135.5,72.8333 135.5,109.5C 132.559,101.593 129.559,93.5931 126.5,85.5C 126.132,83.8247 125.132,82.8247 123.5,82.5C 123.5,81.8333 123.5,81.1667 123.5,80.5C 123.162,78.146 122.662,75.8127 122,73.5C 111.557,49.0474 101.724,24.3808 92.5,-0.5 Z"/></g>
<g><path style="opacity:1" fill="#8e3c66" d="M 87.5,0.5 C 90.4797,0.241086 92.313,1.57442 93,4.5C 102.384,30.2507 112.551,55.584 123.5,80.5C 123.5,81.1667 123.5,81.8333 123.5,82.5C 127.385,91.6098 130.718,100.943 133.5,110.5C 130.833,111.833 128.167,113.167 125.5,114.5C 121.298,114.183 117.298,114.517 113.5,115.5C 110.833,115.5 108.167,115.5 105.5,115.5C 105.158,114.662 104.492,114.328 103.5,114.5C 102.878,112.878 101.878,111.545 100.5,110.5C 99.209,110.737 98.209,110.404 97.5,109.5C 94.1443,104.487 89.4776,101.487 83.5,100.5C 83.1788,98.9519 82.1788,98.2852 80.5,98.5C 80.3893,97.8826 80.056,97.3826 79.5,97C 76.1832,96.5017 72.8499,96.335 69.5,96.5C 66.8333,96.8333 64.1667,97.1667 61.5,97.5C 61.8245,90.3134 61.4912,83.3134 60.5,76.5C 59.9432,73.9501 58.6099,71.9501 56.5,70.5C 50.2187,67.3129 44.2187,63.6463 38.5,59.5C 37.6016,58.8423 36.6016,58.1757 35.5,57.5C 33.9855,53.1093 32.3188,48.7759 30.5,44.5C 29.7348,43.3881 28.7348,42.7214 27.5,42.5C 25.6363,40.7817 23.3029,39.615 20.5,39C 13.5908,38.2623 7.25745,36.0957 1.5,32.5C 1.16667,31.1667 0.833333,29.8333 0.5,28.5C 4.32939,26.0651 8.32939,23.7317 12.5,21.5C 25.2313,21.0152 37.898,20.0152 50.5,18.5C 62.9024,12.2201 75.2357,6.22006 87.5,0.5 Z"/></g>
<g><path style="opacity:1" fill="#bfb8bb" d="M 87.5,0.5 C 87.5,0.166667 87.5,-0.166667 87.5,-0.5C 89.1667,-0.5 90.8333,-0.5 92.5,-0.5C 101.724,24.3808 111.557,49.0474 122,73.5C 122.662,75.8127 123.162,78.146 123.5,80.5C 112.551,55.584 102.384,30.2507 93,4.5C 92.313,1.57442 90.4797,0.241086 87.5,0.5 Z"/></g>
<g><path style="opacity:1" fill="#fefefe" d="M -0.5,31.5 C 0.166667,31.8333 0.833333,32.1667 1.5,32.5C 7.25745,36.0957 13.5908,38.2623 20.5,39C 23.3029,39.615 25.6363,40.7817 27.5,42.5C 30.3542,47.5477 32.6875,52.8811 34.5,58.5C 35.6888,59.4287 37.0222,59.762 38.5,59.5C 44.2187,63.6463 50.2187,67.3129 56.5,70.5C 57.037,73.0359 58.3703,75.0359 60.5,76.5C 61.4912,83.3134 61.8245,90.3134 61.5,97.5C 64.1667,97.1667 66.8333,96.8333 69.5,96.5C 73.0213,97.3069 76.688,97.9736 80.5,98.5C 82.1788,98.2852 83.1788,98.9519 83.5,100.5C 88.4375,103.109 93.1041,106.109 97.5,109.5C 98.209,110.404 99.209,110.737 100.5,110.5C 100.468,112.619 101.468,113.952 103.5,114.5C 104.492,114.328 105.158,114.662 105.5,115.5C 70.1667,115.5 34.8333,115.5 -0.5,115.5C -0.5,87.5 -0.5,59.5 -0.5,31.5 Z"/></g>
<g><path style="opacity:1" fill="#a08b96" d="M -0.5,28.5 C -0.166667,28.5 0.166667,28.5 0.5,28.5C 0.833333,29.8333 1.16667,31.1667 1.5,32.5C 0.833333,32.1667 0.166667,31.8333 -0.5,31.5C -0.5,30.5 -0.5,29.5 -0.5,28.5 Z"/></g>
<g><path style="opacity:1" fill="#bfb7bb" d="M 27.5,42.5 C 28.7348,42.7214 29.7348,43.3881 30.5,44.5C 32.3188,48.7759 33.9855,53.1093 35.5,57.5C 36.6016,58.1757 37.6016,58.8423 38.5,59.5C 37.0222,59.762 35.6888,59.4287 34.5,58.5C 32.6875,52.8811 30.3542,47.5477 27.5,42.5 Z"/></g>
<g><path style="opacity:1" fill="#ab9aa2" d="M 56.5,70.5 C 58.6099,71.9501 59.9432,73.9501 60.5,76.5C 58.3703,75.0359 57.037,73.0359 56.5,70.5 Z"/></g>
<g><path style="opacity:1" fill="#bab1b5" d="M 123.5,82.5 C 125.132,82.8247 126.132,83.8247 126.5,85.5C 129.559,93.5931 132.559,101.593 135.5,109.5C 135.5,110.5 135.5,111.5 135.5,112.5C 134.833,111.833 134.167,111.167 133.5,110.5C 130.718,100.943 127.385,91.6098 123.5,82.5 Z"/></g>
<g><path style="opacity:1" fill="#886275" d="M 69.5,96.5 C 72.8499,96.335 76.1832,96.5017 79.5,97C 80.056,97.3826 80.3893,97.8826 80.5,98.5C 76.688,97.9736 73.0213,97.3069 69.5,96.5 Z"/></g>
<g><path style="opacity:1" fill="#cac6c8" d="M 83.5,100.5 C 89.4776,101.487 94.1443,104.487 97.5,109.5C 93.1041,106.109 88.4375,103.109 83.5,100.5 Z"/></g>
<g><path style="opacity:1" fill="#ae9fa8" d="M 100.5,110.5 C 101.878,111.545 102.878,112.878 103.5,114.5C 101.468,113.952 100.468,112.619 100.5,110.5 Z"/></g>
<g><path style="opacity:1" fill="#855f72" d="M 133.5,110.5 C 134.167,111.167 134.833,111.833 135.5,112.5C 135.5,112.833 135.5,113.167 135.5,113.5C 132.061,113.253 128.728,113.586 125.5,114.5C 128.167,113.167 130.833,111.833 133.5,110.5 Z"/></g>
<g><path style="opacity:1" fill="#f0f0f0" d="M 135.5,113.5 C 135.5,114.167 135.5,114.833 135.5,115.5C 128.167,115.5 120.833,115.5 113.5,115.5C 117.298,114.517 121.298,114.183 125.5,114.5C 128.728,113.586 132.061,113.253 135.5,113.5 Z"/></g>
</svg>
