<?xml version="1.0" encoding="UTF-8"?>
<!DOCTYPE svg PUBLIC "-//W3C//DTD SVG 1.1//EN" "http://www.w3.org/Graphics/SVG/1.1/DTD/svg11.dtd">
<svg xmlns="http://www.w3.org/2000/svg" version="1.1" width="236px" height="182px" style="shape-rendering:geometricPrecision; text-rendering:geometricPrecision; image-rendering:optimizeQuality; fill-rule:evenodd; clip-rule:evenodd" xmlns:xlink="http://www.w3.org/1999/xlink">
<g><path style="opacity:1" fill="#fefefe" d="M -0.5,-0.5 C 32.1667,-0.5 64.8333,-0.5 97.5,-0.5C 94.2459,3.75951 90.5792,7.75951 86.5,11.5C 85.6143,12.325 85.281,13.325 85.5,14.5C 84.325,14.281 83.325,14.6143 82.5,15.5C 78.7595,19.5792 74.7595,23.2459 70.5,26.5C 65.2191,30.778 60.2191,35.4446 55.5,40.5C 54.675,41.3857 53.675,41.719 52.5,41.5C 52.5,42.5 52.5,43.5 52.5,44.5C 48.4943,46.5049 44.4943,48.5049 40.5,50.5C 31.6747,53.6312 23.0081,56.9645 14.5,60.5C 12.919,62.3026 10.919,63.6359 8.5,64.5C 5.48127,66.8572 2.48127,69.1906 -0.5,71.5C -0.5,47.5 -0.5,23.5 -0.5,-0.5 Z"/></g>
<g><path style="opacity:1" fill="#d3bbb8" d="M 97.5,-0.5 C 99.5,-0.5 101.5,-0.5 103.5,-0.5C 107.185,4.51372 110.852,9.51372 114.5,14.5C 109.827,9.82728 105.161,5.16062 100.5,0.5C 95.1523,4.84956 90.1523,9.51623 85.5,14.5C 85.281,13.325 85.6143,12.325 86.5,11.5C 90.5792,7.75951 94.2459,3.75951 97.5,-0.5 Z"/></g>
<g><path style="opacity:1" fill="#fdfdfd" d="M 103.5,-0.5 C 147.5,-0.5 191.5,-0.5 235.5,-0.5C 235.5,19.1667 235.5,38.8333 235.5,58.5C 234.882,52.8934 233.882,47.2267 232.5,41.5C 231.067,39.8779 229.401,38.5446 227.5,37.5C 223.812,35.7119 220.146,34.0452 216.5,32.5C 216.771,30.6203 216.104,29.287 214.5,28.5C 214.206,25.2459 212.873,22.5792 210.5,20.5C 210.614,17.02 208.948,15.02 205.5,14.5C 203.446,14.6347 201.779,13.968 200.5,12.5C 200.803,9.41245 199.47,7.74578 196.5,7.5C 192.26,5.10652 187.593,3.93986 182.5,4C 177.287,8.4254 171.954,12.5921 166.5,16.5C 159.753,21.577 154.087,27.577 149.5,34.5C 147.003,36.1638 144.337,37.4971 141.5,38.5C 140.735,38.9234 139.902,39.2568 139,39.5C 137.265,37.9174 135.432,36.5841 133.5,35.5C 133.5,34.8333 133.167,34.5 132.5,34.5C 127.963,26.6238 121.963,19.9571 114.5,14.5C 110.852,9.51372 107.185,4.51372 103.5,-0.5 Z"/></g>
<g><path style="opacity:1" fill="#f1786b" d="M 114.5,14.5 C 120.506,21.1724 126.506,27.8391 132.5,34.5C 133.167,34.5 133.5,34.8333 133.5,35.5C 135.346,40.053 138.013,41.053 141.5,38.5C 144.337,37.4971 147.003,36.1638 149.5,34.5C 155.526,28.808 161.193,22.808 166.5,16.5C 171.954,12.5921 177.287,8.4254 182.5,4C 187.593,3.93986 192.26,5.10652 196.5,7.5C 198.074,8.98417 199.407,10.6508 200.5,12.5C 201.779,13.968 203.446,14.6347 205.5,14.5C 207.434,16.2426 209.1,18.2426 210.5,20.5C 211.326,23.4848 212.659,26.1515 214.5,28.5C 214.66,30.153 215.326,31.4863 216.5,32.5C 220.146,34.0452 223.812,35.7119 227.5,37.5C 229.401,38.5446 231.067,39.8779 232.5,41.5C 233.882,47.2267 234.882,52.8934 235.5,58.5C 235.5,60.5 235.5,62.5 235.5,64.5C 234.661,66.7814 233.661,69.1148 232.5,71.5C 230.154,72.8546 228.154,74.5213 226.5,76.5C 221.529,82.1412 216.529,87.8079 211.5,93.5C 210.89,94.391 210.557,95.391 210.5,96.5C 209.326,97.5137 208.66,98.847 208.5,100.5C 208.5,104.5 208.5,108.5 208.5,112.5C 202.074,111.88 196.074,112.547 190.5,114.5C 185.833,114.5 181.167,114.5 176.5,114.5C 173.833,117.167 173.833,119.833 176.5,122.5C 177.167,130.5 177.833,138.5 178.5,146.5C 178.336,149.187 178.503,151.854 179,154.5C 179.278,155.416 179.778,156.082 180.5,156.5C 180.5,159.167 180.5,161.833 180.5,164.5C 181.167,169.833 181.833,175.167 182.5,180.5C 179.167,180.5 175.833,180.5 172.5,180.5C 165.833,180.5 159.167,180.5 152.5,180.5C 146.926,178.547 140.926,177.88 134.5,178.5C 127.833,178.5 121.167,178.5 114.5,178.5C 108.926,176.547 102.926,175.88 96.5,176.5C 95.1667,176.5 93.8333,176.5 92.5,176.5C 92.7406,174.102 92.0739,172.102 90.5,170.5C 90.6716,169.508 90.3382,168.842 89.5,168.5C 89.38,167.414 88.7133,166.747 87.5,166.5C 86.2867,166.747 85.62,167.414 85.5,168.5C 82.5,168.5 79.5,168.5 76.5,168.5C 73.3019,167.964 70.6353,168.631 68.5,170.5C 66.5,170.5 64.5,170.5 62.5,170.5C 59.6122,169.99 57.2789,170.656 55.5,172.5C 45.8005,172.779 36.1339,173.445 26.5,174.5C 26.6917,171.399 27.3584,168.399 28.5,165.5C 31.639,161.679 35.3056,158.679 39.5,156.5C 42.1995,154.135 44.5328,151.468 46.5,148.5C 46.8333,147.5 47.5,146.833 48.5,146.5C 49.6868,144.174 51.0202,141.84 52.5,139.5C 51.3681,137.511 50.0348,135.844 48.5,134.5C 47.8166,132.824 46.4832,132.157 44.5,132.5C 42.5,132.5 40.5,132.5 38.5,132.5C 36.1033,130.954 34.1033,128.954 32.5,126.5C 31.0979,124.049 29.4312,121.716 27.5,119.5C 22.6089,116.611 17.6089,113.945 12.5,111.5C 10.9069,109.946 9.57352,108.279 8.5,106.5C 7.26315,105.035 6.26315,103.368 5.5,101.5C 5.02483,98.2381 4.02483,95.2381 2.5,92.5C 2.5,89.8333 2.5,87.1667 2.5,84.5C 2.97886,80.5656 2.31219,76.8989 0.5,73.5C 3.58275,70.7576 6.24942,67.7576 8.5,64.5C 10.919,63.6359 12.919,62.3026 14.5,60.5C 16.604,60.7989 18.604,60.4656 20.5,59.5C 27.6071,56.9996 34.2737,53.9996 40.5,50.5C 44.4943,48.5049 48.4943,46.5049 52.5,44.5C 59.1712,39.1622 65.1712,33.1622 70.5,26.5C 74.7595,23.2459 78.7595,19.5792 82.5,15.5C 83.325,14.6143 84.325,14.281 85.5,14.5C 90.1523,9.51623 95.1523,4.84956 100.5,0.5C 105.161,5.16062 109.827,9.82728 114.5,14.5 Z"/></g>
<g><path style="opacity:1" fill="#d0b4b1" d="M 196.5,7.5 C 199.47,7.74578 200.803,9.41245 200.5,12.5C 199.407,10.6508 198.074,8.98417 196.5,7.5 Z"/></g>
<g><path style="opacity:1" fill="#d1b1ae" d="M 205.5,14.5 C 208.948,15.02 210.614,17.02 210.5,20.5C 209.1,18.2426 207.434,16.2426 205.5,14.5 Z"/></g>
<g><path style="opacity:1" fill="#d5bebc" d="M 114.5,14.5 C 121.963,19.9571 127.963,26.6238 132.5,34.5C 126.506,27.8391 120.506,21.1724 114.5,14.5 Z"/></g>
<g><path style="opacity:1" fill="#cfada8" d="M 210.5,20.5 C 212.873,22.5792 214.206,25.2459 214.5,28.5C 212.659,26.1515 211.326,23.4848 210.5,20.5 Z"/></g>
<g><path style="opacity:1" fill="#d0bdba" d="M 166.5,16.5 C 161.193,22.808 155.526,28.808 149.5,34.5C 154.087,27.577 159.753,21.577 166.5,16.5 Z"/></g>
<g><path style="opacity:1" fill="#d1a09d" d="M 214.5,28.5 C 216.104,29.287 216.771,30.6203 216.5,32.5C 215.326,31.4863 214.66,30.153 214.5,28.5 Z"/></g>
<g><path style="opacity:1" fill="#d0bdbb" d="M 70.5,26.5 C 65.1712,33.1622 59.1712,39.1622 52.5,44.5C 52.5,43.5 52.5,42.5 52.5,41.5C 53.675,41.719 54.675,41.3857 55.5,40.5C 60.2191,35.4446 65.2191,30.778 70.5,26.5 Z"/></g>
<g><path style="opacity:1" fill="#d1bcb9" d="M 133.5,35.5 C 135.432,36.5841 137.265,37.9174 139,39.5C 139.902,39.2568 140.735,38.9234 141.5,38.5C 138.013,41.053 135.346,40.053 133.5,35.5 Z"/></g>
<g><path style="opacity:1" fill="#d5bcb9" d="M 40.5,50.5 C 34.2737,53.9996 27.6071,56.9996 20.5,59.5C 18.604,60.4656 16.604,60.7989 14.5,60.5C 23.0081,56.9645 31.6747,53.6312 40.5,50.5 Z"/></g>
<g><path style="opacity:1" fill="#d3b5b1" d="M 8.5,64.5 C 6.24942,67.7576 3.58275,70.7576 0.5,73.5C 2.31219,76.8989 2.97886,80.5656 2.5,84.5C 2.10999,81.2033 1.10999,78.2033 -0.5,75.5C -0.5,74.1667 -0.5,72.8333 -0.5,71.5C 2.48127,69.1906 5.48127,66.8572 8.5,64.5 Z"/></g>
<g><path style="opacity:1" fill="#fefefe" d="M 235.5,64.5 C 235.5,103.5 235.5,142.5 235.5,181.5C 218.167,181.5 200.833,181.5 183.5,181.5C 183.504,175.534 182.504,169.867 180.5,164.5C 180.5,161.833 180.5,159.167 180.5,156.5C 180.101,152.989 179.434,149.656 178.5,146.5C 177.833,138.5 177.167,130.5 176.5,122.5C 175.167,119.833 175.167,117.167 176.5,114.5C 181.167,114.5 185.833,114.5 190.5,114.5C 196.601,113.872 202.601,113.205 208.5,112.5C 208.5,108.5 208.5,104.5 208.5,100.5C 210.104,99.713 210.771,98.3797 210.5,96.5C 210.557,95.391 210.89,94.391 211.5,93.5C 216.427,89.5777 221.094,85.2444 225.5,80.5C 226.246,79.2638 226.579,77.9305 226.5,76.5C 228.154,74.5213 230.154,72.8546 232.5,71.5C 233.661,69.1148 234.661,66.7814 235.5,64.5 Z"/></g>
<g><path style="opacity:1" fill="#fdfdfd" d="M -0.5,75.5 C 1.10999,78.2033 2.10999,81.2033 2.5,84.5C 2.5,87.1667 2.5,89.8333 2.5,92.5C 2.55671,96.0287 3.55671,99.0287 5.5,101.5C 6.26315,103.368 7.26315,105.035 8.5,106.5C 8.4287,109.024 9.4287,111.024 11.5,112.5C 15.3789,114.719 19.3789,116.719 23.5,118.5C 26.8786,120.887 29.8786,123.553 32.5,126.5C 32.6461,130.257 34.6461,132.257 38.5,132.5C 40.5,132.5 42.5,132.5 44.5,132.5C 45.6715,133.345 47.0048,134.011 48.5,134.5C 49.6784,138.452 49.6784,142.452 48.5,146.5C 47.5,146.833 46.8333,147.5 46.5,148.5C 43.0663,150.263 40.7329,152.93 39.5,156.5C 35.3056,158.679 31.639,161.679 28.5,165.5C 27.3584,168.399 26.6917,171.399 26.5,174.5C 28.4726,175.163 30.6392,175.496 33,175.5C 40.9642,174.329 48.7975,173.329 56.5,172.5C 58.5,171.833 60.5,171.167 62.5,170.5C 64.5,170.5 66.5,170.5 68.5,170.5C 71.2804,169.922 73.9471,169.255 76.5,168.5C 79.5,168.5 82.5,168.5 85.5,168.5C 86.8333,167.167 88.1667,167.167 89.5,168.5C 90.3382,168.842 90.6716,169.508 90.5,170.5C 90.595,172.786 91.2616,174.786 92.5,176.5C 93.8333,176.5 95.1667,176.5 96.5,176.5C 102.399,177.205 108.399,177.872 114.5,178.5C 121.167,178.5 127.833,178.5 134.5,178.5C 140.399,179.205 146.399,179.872 152.5,180.5C 159.167,180.5 165.833,180.5 172.5,180.5C 172.5,180.833 172.5,181.167 172.5,181.5C 114.833,181.5 57.1667,181.5 -0.5,181.5C -0.5,146.167 -0.5,110.833 -0.5,75.5 Z"/></g>
<g><path style="opacity:1" fill="#d0c1c0" d="M 226.5,76.5 C 226.579,77.9305 226.246,79.2638 225.5,80.5C 221.094,85.2444 216.427,89.5777 211.5,93.5C 216.529,87.8079 221.529,82.1412 226.5,76.5 Z"/></g>
<g><path style="opacity:1" fill="#d3b7b3" d="M 2.5,92.5 C 4.02483,95.2381 5.02483,98.2381 5.5,101.5C 3.55671,99.0287 2.55671,96.0287 2.5,92.5 Z"/></g>
<g><path style="opacity:1" fill="#d1958e" d="M 210.5,96.5 C 210.771,98.3797 210.104,99.713 208.5,100.5C 208.66,98.847 209.326,97.5137 210.5,96.5 Z"/></g>
<g><path style="opacity:1" fill="#d4a7a3" d="M 208.5,112.5 C 202.601,113.205 196.601,113.872 190.5,114.5C 196.074,112.547 202.074,111.88 208.5,112.5 Z"/></g>
<g><path style="opacity:1" fill="#d2bbb9" d="M 8.5,106.5 C 9.57352,108.279 10.9069,109.946 12.5,111.5C 17.6089,113.945 22.6089,116.611 27.5,119.5C 29.4312,121.716 31.0979,124.049 32.5,126.5C 29.8786,123.553 26.8786,120.887 23.5,118.5C 19.3789,116.719 15.3789,114.719 11.5,112.5C 9.4287,111.024 8.4287,109.024 8.5,106.5 Z"/></g>
<g><path style="opacity:1" fill="#d09590" d="M 176.5,114.5 C 175.167,117.167 175.167,119.833 176.5,122.5C 173.833,119.833 173.833,117.167 176.5,114.5 Z"/></g>
<g><path style="opacity:1" fill="#cfb0ac" d="M 32.5,126.5 C 34.1033,128.954 36.1033,130.954 38.5,132.5C 34.6461,132.257 32.6461,130.257 32.5,126.5 Z"/></g>
<g><path style="opacity:1" fill="#d1a6a2" d="M 44.5,132.5 C 46.4832,132.157 47.8166,132.824 48.5,134.5C 47.0048,134.011 45.6715,133.345 44.5,132.5 Z"/></g>
<g><path style="opacity:1" fill="#d4b5b1" d="M 48.5,134.5 C 50.0348,135.844 51.3681,137.511 52.5,139.5C 51.0202,141.84 49.6868,144.174 48.5,146.5C 49.6784,142.452 49.6784,138.452 48.5,134.5 Z"/></g>
<g><path style="opacity:1" fill="#d4958f" d="M 178.5,146.5 C 179.434,149.656 180.101,152.989 180.5,156.5C 179.778,156.082 179.278,155.416 179,154.5C 178.503,151.854 178.336,149.187 178.5,146.5 Z"/></g>
<g><path style="opacity:1" fill="#d0b8b6" d="M 46.5,148.5 C 44.5328,151.468 42.1995,154.135 39.5,156.5C 40.7329,152.93 43.0663,150.263 46.5,148.5 Z"/></g>
<g><path style="opacity:1" fill="#cc928c" d="M 89.5,168.5 C 88.1667,167.167 86.8333,167.167 85.5,168.5C 85.62,167.414 86.2867,166.747 87.5,166.5C 88.7133,166.747 89.38,167.414 89.5,168.5 Z"/></g>
<g><path style="opacity:1" fill="#d4a8a3" d="M 76.5,168.5 C 73.9471,169.255 71.2804,169.922 68.5,170.5C 70.6353,168.631 73.3019,167.964 76.5,168.5 Z"/></g>
<g><path style="opacity:1" fill="#d3a09c" d="M 62.5,170.5 C 60.5,171.167 58.5,171.833 56.5,172.5C 56.1667,172.5 55.8333,172.5 55.5,172.5C 57.2789,170.656 59.6122,169.99 62.5,170.5 Z"/></g>
<g><path style="opacity:1" fill="#d39691" d="M 90.5,170.5 C 92.0739,172.102 92.7406,174.102 92.5,176.5C 91.2616,174.786 90.595,172.786 90.5,170.5 Z"/></g>
<g><path style="opacity:1" fill="#d7c6c4" d="M 55.5,172.5 C 55.8333,172.5 56.1667,172.5 56.5,172.5C 48.7975,173.329 40.9642,174.329 33,175.5C 30.6392,175.496 28.4726,175.163 26.5,174.5C 36.1339,173.445 45.8005,172.779 55.5,172.5 Z"/></g>
<g><path style="opacity:1" fill="#d4a7a3" d="M 96.5,176.5 C 102.926,175.88 108.926,176.547 114.5,178.5C 108.399,177.872 102.399,177.205 96.5,176.5 Z"/></g>
<g><path style="opacity:1" fill="#d4a7a2" d="M 134.5,178.5 C 140.926,177.88 146.926,178.547 152.5,180.5C 146.399,179.872 140.399,179.205 134.5,178.5 Z"/></g>
<g><path style="opacity:1" fill="#d4aca7" d="M 180.5,164.5 C 182.504,169.867 183.504,175.534 183.5,181.5C 179.833,181.5 176.167,181.5 172.5,181.5C 172.5,181.167 172.5,180.833 172.5,180.5C 175.833,180.5 179.167,180.5 182.5,180.5C 181.833,175.167 181.167,169.833 180.5,164.5 Z"/></g>
</svg>
