<?xml version="1.0" encoding="UTF-8"?>
<!DOCTYPE svg PUBLIC "-//W3C//DTD SVG 1.1//EN" "http://www.w3.org/Graphics/SVG/1.1/DTD/svg11.dtd">
<svg xmlns="http://www.w3.org/2000/svg" version="1.1" width="178px" height="128px" style="shape-rendering:geometricPrecision; text-rendering:geometricPrecision; image-rendering:optimizeQuality; fill-rule:evenodd; clip-rule:evenodd" xmlns:xlink="http://www.w3.org/1999/xlink">
<g><path style="opacity:1" fill="#fdfdfc" d="M -0.5,-0.5 C 58.8333,-0.5 118.167,-0.5 177.5,-0.5C 177.5,42.1667 177.5,84.8333 177.5,127.5C 145.833,127.5 114.167,127.5 82.5,127.5C 82.5,127.167 82.5,126.833 82.5,126.5C 84.5,126.5 86.5,126.5 88.5,126.5C 91.6089,124.208 94.9423,122.208 98.5,120.5C 108.992,119.833 119.326,119.167 129.5,118.5C 129.833,117.833 130.167,117.167 130.5,116.5C 133.385,116.806 136.052,116.473 138.5,115.5C 148.493,111.038 158.493,106.704 168.5,102.5C 170.746,100.58 173.413,99.2468 176.5,98.5C 176.5,97.1667 176.5,95.8333 176.5,94.5C 175.649,92.1184 174.316,90.1184 172.5,88.5C 169.932,82.0234 167.932,75.3568 166.5,68.5C 162.848,53.2624 160.515,37.929 159.5,22.5C 158.527,20.0521 158.194,17.3854 158.5,14.5C 153.936,13.7838 149.269,13.1171 144.5,12.5C 137.673,12.7436 131.007,12.7436 124.5,12.5C 118.5,12.5 112.5,12.5 106.5,12.5C 105.486,11.2353 103.986,10.5687 102,10.5C 97.4979,11.749 92.9979,11.749 88.5,10.5C 82.1667,10.5 75.8333,10.5 69.5,10.5C 69.5,9.83333 69.5,9.16667 69.5,8.5C 67.7354,7.53862 65.7354,7.20528 63.5,7.5C 63.7947,5.26465 63.4614,3.26465 62.5,1.5C 61.2067,0.841817 59.7067,0.508484 58,0.5C 55.4563,0.33601 53.2897,1.00268 51.5,2.5C 44.4412,2.66352 37.4412,3.33018 30.5,4.5C 28.7163,5.71994 27.0496,5.71994 25.5,4.5C 25.0831,3.87605 24.4164,3.54272 23.5,3.5C 17.4628,4.99982 11.4628,5.99982 5.5,6.5C 5.5,7.16667 5.16667,7.5 4.5,7.5C 2.83333,7.5 1.16667,7.5 -0.5,7.5C -0.5,4.83333 -0.5,2.16667 -0.5,-0.5 Z"/></g>
<g><path style="opacity:1" fill="#587861" d="M 62.5,1.5 C 62.5,1.83333 62.5,2.16667 62.5,2.5C 58.8333,2.5 55.1667,2.5 51.5,2.5C 53.2897,1.00268 55.4563,0.33601 58,0.5C 59.7067,0.508484 61.2067,0.841817 62.5,1.5 Z"/></g>
<g><path style="opacity:1" fill="#3e7f50" d="M 51.5,2.5 C 55.1667,2.5 58.8333,2.5 62.5,2.5C 62.0254,5.08209 62.6921,7.08209 64.5,8.5C 65.5521,10.256 67.2188,10.9227 69.5,10.5C 75.8333,10.5 82.1667,10.5 88.5,10.5C 94.0738,12.4533 100.074,13.12 106.5,12.5C 112.5,12.5 118.5,12.5 124.5,12.5C 130.75,14.4589 137.416,15.1255 144.5,14.5C 149.167,14.5 153.833,14.5 158.5,14.5C 158.194,17.3854 158.527,20.0521 159.5,22.5C 159.614,36.644 161.114,50.644 164,64.5C 164.122,66.437 164.955,67.7703 166.5,68.5C 167.932,75.3568 169.932,82.0234 172.5,88.5C 172.87,91.267 174.204,93.267 176.5,94.5C 176.5,95.8333 176.5,97.1667 176.5,98.5C 173.413,99.2468 170.746,100.58 168.5,102.5C 164.371,102.874 160.371,103.874 156.5,105.5C 150.256,108.56 144.256,111.893 138.5,115.5C 136.052,116.473 133.385,116.806 130.5,116.5C 120.111,115.859 110.111,116.526 100.5,118.5C 95.4278,119.693 91.4278,122.36 88.5,126.5C 86.5,126.5 84.5,126.5 82.5,126.5C 81.6359,124.081 80.3026,122.081 78.5,120.5C 78.3404,118.847 77.6737,117.514 76.5,116.5C 75.8478,115.275 74.6811,114.608 73,114.5C 71.3189,114.608 70.1522,115.275 69.5,116.5C 66.2391,118.243 63.0724,120.243 60,122.5C 58.167,122.481 56.667,121.815 55.5,120.5C 54.9572,113.425 52.2906,107.425 47.5,102.5C 39.1512,99.745 38.8178,96.5783 46.5,93C 51.0958,92.2324 55.4291,90.7324 59.5,88.5C 59.8333,86.8333 60.1667,85.1667 60.5,83.5C 59.9544,80.4344 59.2877,77.4344 58.5,74.5C 56.4005,66.301 52.7339,58.9676 47.5,52.5C 46.5,51.5 45.5,50.5 44.5,49.5C 41.175,47.1695 37.8417,44.8361 34.5,42.5C 33.6649,41.0568 32.3316,40.0568 30.5,39.5C 27.191,38.2847 23.8577,37.2847 20.5,36.5C 19.2034,34.2024 17.5368,32.2024 15.5,30.5C 11.1667,29.1667 6.83333,27.8333 2.5,26.5C 2.5,23.5 2.5,20.5 2.5,17.5C 2.07248,14.4359 1.40582,11.4359 0.5,8.5C 1.83333,8.5 3.16667,8.5 4.5,8.5C 8.32935,9.06896 11.6627,8.40229 14.5,6.5C 17.1667,6.5 19.8333,6.5 22.5,6.5C 25.6981,7.03562 28.3647,6.36895 30.5,4.5C 37.4412,3.33018 44.4412,2.66352 51.5,2.5 Z"/></g>
<g><path style="opacity:1" fill="#cccccc" d="M 25.5,4.5 C 23.8212,4.28519 22.8212,4.95186 22.5,6.5C 19.8333,6.5 17.1667,6.5 14.5,6.5C 11.5,6.5 8.5,6.5 5.5,6.5C 11.4628,5.99982 17.4628,4.99982 23.5,3.5C 24.4164,3.54272 25.0831,3.87605 25.5,4.5 Z"/></g>
<g><path style="opacity:1" fill="#597962" d="M 25.5,4.5 C 27.0496,5.71994 28.7163,5.71994 30.5,4.5C 28.3647,6.36895 25.6981,7.03562 22.5,6.5C 22.8212,4.95186 23.8212,4.28519 25.5,4.5 Z"/></g>
<g><path style="opacity:1" fill="#597b62" d="M 5.5,6.5 C 8.5,6.5 11.5,6.5 14.5,6.5C 11.6627,8.40229 8.32935,9.06896 4.5,8.5C 4.5,8.16667 4.5,7.83333 4.5,7.5C 5.16667,7.5 5.5,7.16667 5.5,6.5 Z"/></g>
<g><path style="opacity:1" fill="#b6bbb9" d="M 62.5,1.5 C 63.4614,3.26465 63.7947,5.26465 63.5,7.5C 65.7354,7.20528 67.7354,7.53862 69.5,8.5C 67.8333,8.5 66.1667,8.5 64.5,8.5C 62.6921,7.08209 62.0254,5.08209 62.5,2.5C 62.5,2.16667 62.5,1.83333 62.5,1.5 Z"/></g>
<g><path style="opacity:1" fill="#607d68" d="M 64.5,8.5 C 66.1667,8.5 67.8333,8.5 69.5,8.5C 69.5,9.16667 69.5,9.83333 69.5,10.5C 67.2188,10.9227 65.5521,10.256 64.5,8.5 Z"/></g>
<g><path style="opacity:1" fill="#babebb" d="M -0.5,7.5 C 1.16667,7.5 2.83333,7.5 4.5,7.5C 4.5,7.83333 4.5,8.16667 4.5,8.5C 3.16667,8.5 1.83333,8.5 0.5,8.5C 1.40582,11.4359 2.07248,14.4359 2.5,17.5C 1.97789,15.7809 0.977893,14.4475 -0.5,13.5C -0.5,11.5 -0.5,9.5 -0.5,7.5 Z"/></g>
<g><path style="opacity:1" fill="#597962" d="M 88.5,10.5 C 92.9979,11.749 97.4979,11.749 102,10.5C 103.986,10.5687 105.486,11.2353 106.5,12.5C 100.074,13.12 94.0738,12.4533 88.5,10.5 Z"/></g>
<g><path style="opacity:1" fill="#cfd0cf" d="M 144.5,12.5 C 149.269,13.1171 153.936,13.7838 158.5,14.5C 153.833,14.5 149.167,14.5 144.5,14.5C 144.5,13.8333 144.5,13.1667 144.5,12.5 Z"/></g>
<g><path style="opacity:1" fill="#fdfdfd" d="M -0.5,13.5 C 0.977893,14.4475 1.97789,15.7809 2.5,17.5C 2.5,20.5 2.5,23.5 2.5,26.5C 6.83333,27.8333 11.1667,29.1667 15.5,30.5C 16.0545,33.3909 17.7211,35.3909 20.5,36.5C 23.8577,37.2847 27.191,38.2847 30.5,39.5C 32.3316,40.0568 33.6649,41.0568 34.5,42.5C 36.7584,46.3017 40.0918,48.635 44.5,49.5C 45.5,50.5 46.5,51.5 47.5,52.5C 51.1857,59.8714 54.8524,67.2048 58.5,74.5C 59.2877,77.4344 59.9544,80.4344 60.5,83.5C 60.1667,85.1667 59.8333,86.8333 59.5,88.5C 55.4291,90.7324 51.0958,92.2324 46.5,93C 38.8178,96.5783 39.1512,99.745 47.5,102.5C 50.7668,108.235 53.4335,114.235 55.5,120.5C 56.667,121.815 58.167,122.481 60,122.5C 63.0724,120.243 66.2391,118.243 69.5,116.5C 71.7922,115.314 74.1256,115.314 76.5,116.5C 77.6737,117.514 78.3404,118.847 78.5,120.5C 78.8551,123.226 80.1885,125.226 82.5,126.5C 82.5,126.833 82.5,127.167 82.5,127.5C 54.8333,127.5 27.1667,127.5 -0.5,127.5C -0.5,89.5 -0.5,51.5 -0.5,13.5 Z"/></g>
<g><path style="opacity:1" fill="#587a61" d="M 124.5,12.5 C 131.007,12.7436 137.673,12.7436 144.5,12.5C 144.5,13.1667 144.5,13.8333 144.5,14.5C 137.416,15.1255 130.75,14.4589 124.5,12.5 Z"/></g>
<g><path style="opacity:1" fill="#99a59c" d="M 15.5,30.5 C 17.5368,32.2024 19.2034,34.2024 20.5,36.5C 17.7211,35.3909 16.0545,33.3909 15.5,30.5 Z"/></g>
<g><path style="opacity:1" fill="#d2d3d2" d="M 34.5,42.5 C 37.8417,44.8361 41.175,47.1695 44.5,49.5C 40.0918,48.635 36.7584,46.3017 34.5,42.5 Z"/></g>
<g><path style="opacity:1" fill="#a7b0a8" d="M 159.5,22.5 C 160.515,37.929 162.848,53.2624 166.5,68.5C 164.955,67.7703 164.122,66.437 164,64.5C 161.114,50.644 159.614,36.644 159.5,22.5 Z"/></g>
<g><path style="opacity:1" fill="#a5aea8" d="M 47.5,52.5 C 52.7339,58.9676 56.4005,66.301 58.5,74.5C 54.8524,67.2048 51.1857,59.8714 47.5,52.5 Z"/></g>
<g><path style="opacity:1" fill="#b3b9b4" d="M 172.5,88.5 C 174.316,90.1184 175.649,92.1184 176.5,94.5C 174.204,93.267 172.87,91.267 172.5,88.5 Z"/></g>
<g><path style="opacity:1" fill="#a3aca4" d="M 47.5,102.5 C 52.2906,107.425 54.9572,113.425 55.5,120.5C 53.4335,114.235 50.7668,108.235 47.5,102.5 Z"/></g>
<g><path style="opacity:1" fill="#b4bab6" d="M 168.5,102.5 C 158.493,106.704 148.493,111.038 138.5,115.5C 144.256,111.893 150.256,108.56 156.5,105.5C 160.371,103.874 164.371,102.874 168.5,102.5 Z"/></g>
<g><path style="opacity:1" fill="#6f8a76" d="M 76.5,116.5 C 74.1256,115.314 71.7922,115.314 69.5,116.5C 70.1522,115.275 71.3189,114.608 73,114.5C 74.6811,114.608 75.8478,115.275 76.5,116.5 Z"/></g>
<g><path style="opacity:1" fill="#5a7a62" d="M 130.5,116.5 C 130.167,117.167 129.833,117.833 129.5,118.5C 119.833,118.5 110.167,118.5 100.5,118.5C 110.111,116.526 120.111,115.859 130.5,116.5 Z"/></g>
<g><path style="opacity:1" fill="#c7c9c8" d="M 100.5,118.5 C 110.167,118.5 119.833,118.5 129.5,118.5C 119.326,119.167 108.992,119.833 98.5,120.5C 94.9423,122.208 91.6089,124.208 88.5,126.5C 91.4278,122.36 95.4278,119.693 100.5,118.5 Z"/></g>
<g><path style="opacity:1" fill="#babeb9" d="M 78.5,120.5 C 80.3026,122.081 81.6359,124.081 82.5,126.5C 80.1885,125.226 78.8551,123.226 78.5,120.5 Z"/></g>
</svg>
