<?xml version="1.0" encoding="UTF-8"?>
<!DOCTYPE svg PUBLIC "-//W3C//DTD SVG 1.1//EN" "http://www.w3.org/Graphics/SVG/1.1/DTD/svg11.dtd">
<svg xmlns="http://www.w3.org/2000/svg" version="1.1" width="163px" height="218px" style="shape-rendering:geometricPrecision; text-rendering:geometricPrecision; image-rendering:optimizeQuality; fill-rule:evenodd; clip-rule:evenodd" xmlns:xlink="http://www.w3.org/1999/xlink">
<g><path style="opacity:1" fill="#fefefe" d="M -0.5,-0.5 C 53.8333,-0.5 108.167,-0.5 162.5,-0.5C 162.5,52.1667 162.5,104.833 162.5,157.5C 161.833,156.167 161.167,154.833 160.5,153.5C 158.892,150.228 156.892,147.228 154.5,144.5C 146.874,140.08 138.874,136.247 130.5,133C 128.272,130.928 125.939,129.095 123.5,127.5C 123.5,127.167 123.5,126.833 123.5,126.5C 123.293,123.759 122.293,121.426 120.5,119.5C 120.443,118.391 120.11,117.391 119.5,116.5C 119.568,112.43 118.568,108.763 116.5,105.5C 116.443,104.391 116.11,103.391 115.5,102.5C 110.504,98.3909 105.17,94.7243 99.5,91.5C 99.5,91.1667 99.5,90.8333 99.5,90.5C 99.5682,86.4296 98.5682,82.763 96.5,79.5C 94.4706,72.4395 91.1372,66.1061 86.5,60.5C 84.2145,59.2179 82.2145,57.5512 80.5,55.5C 80.4431,54.391 80.1098,53.391 79.5,52.5C 79.179,48.1749 77.179,44.8415 73.5,42.5C 72.5,41.5 71.5,40.5 70.5,39.5C 69.8161,36.1494 67.8161,34.1494 64.5,33.5C 62.4368,32.6285 60.4368,31.4618 58.5,30C 56.9632,28.8904 56.2965,27.3904 56.5,25.5C 55.6063,21.5323 54.773,17.5323 54,13.5C 51.0643,11.9072 47.8976,10.9072 44.5,10.5C 42.079,9.10858 39.4123,8.27525 36.5,8C 34.3501,5.34939 32.0168,2.84939 29.5,0.5C 27.072,3.59765 24.072,5.93098 20.5,7.5C 17.4211,10.0269 15.0878,13.0269 13.5,16.5C 10.4759,18.2064 7.47591,19.8731 4.5,21.5C 4.5,22.5 4.5,23.5 4.5,24.5C 3.22235,24.7822 2.22235,25.4489 1.5,26.5C 0.833333,26.8333 0.166667,27.1667 -0.5,27.5C -0.5,18.1667 -0.5,8.83333 -0.5,-0.5 Z"/></g>
<g><path style="opacity:1" fill="#f39af1" d="M 44.5,10.5 C 47.1204,11.9839 49.9537,13.3172 53,14.5C 53.6667,17.8333 54.3333,21.1667 55,24.5C 55.3826,25.056 55.8826,25.3893 56.5,25.5C 56.2965,27.3904 56.9632,28.8904 58.5,30C 60.4368,31.4618 62.4368,32.6285 64.5,33.5C 66.5,35.5 68.5,37.5 70.5,39.5C 71.5,40.5 72.5,41.5 73.5,42.5C 75.5449,45.8619 77.5449,49.1953 79.5,52.5C 80.1098,53.391 80.4431,54.391 80.5,55.5C 80.9601,58.9568 82.9601,60.6235 86.5,60.5C 91.1372,66.1061 94.4706,72.4395 96.5,79.5C 97.0552,83.3968 98.0552,87.0635 99.5,90.5C 99.5,90.8333 99.5,91.1667 99.5,91.5C 100.09,93.0972 101.09,94.4305 102.5,95.5C 107.01,97.6571 111.344,99.9904 115.5,102.5C 116.11,103.391 116.443,104.391 116.5,105.5C 117.055,109.397 118.055,113.063 119.5,116.5C 120.11,117.391 120.443,118.391 120.5,119.5C 120.707,122.241 121.707,124.574 123.5,126.5C 123.5,126.833 123.5,127.167 123.5,127.5C 124.954,130.123 126.954,132.289 129.5,134C 136.732,136.888 143.732,140.221 150.5,144C 151.793,144.49 153.127,144.657 154.5,144.5C 156.892,147.228 158.892,150.228 160.5,153.5C 160.318,155.591 160.652,157.591 161.5,159.5C 159.345,160.001 157.678,161.001 156.5,162.5C 155.833,162.5 155.167,162.5 154.5,162.5C 141.284,165.767 129.951,172.1 120.5,181.5C 116.5,185.5 112.5,189.5 108.5,193.5C 100.443,198.586 92.4434,203.586 84.5,208.5C 83.8333,208.5 83.1667,208.5 82.5,208.5C 74.4026,211.754 66.0693,214.421 57.5,216.5C 55.3074,216.229 53.6407,215.229 52.5,213.5C 52.0074,211.194 51.6741,208.861 51.5,206.5C 53.0712,203.004 54.4045,199.337 55.5,195.5C 55.5,195.167 55.5,194.833 55.5,194.5C 56.2493,191.799 57.2493,189.132 58.5,186.5C 59.8976,185.223 60.5643,183.557 60.5,181.5C 60.6598,179.645 59.9931,178.312 58.5,177.5C 57.0863,172.407 54.753,167.74 51.5,163.5C 50.2278,158.563 47.2278,155.23 42.5,153.5C 41.1473,151.262 39.1473,149.929 36.5,149.5C 30.7499,144.991 24.0832,143.324 16.5,144.5C 16.3433,143.127 16.51,141.793 17,140.5C 19.6822,137.135 21.8488,133.469 23.5,129.5C 23.5,128.167 23.5,126.833 23.5,125.5C 22.3484,121.855 21.1818,118.188 20,114.5C 19.6174,113.944 19.1174,113.611 18.5,113.5C 17.9448,109.603 16.9448,105.937 15.5,102.5C 15.5,97.5 15.5,92.5 15.5,87.5C 14.3336,85.834 14.3336,84.1673 15.5,82.5C 20.2444,78.0936 24.5777,73.427 28.5,68.5C 30.0481,68.1788 30.7148,67.1788 30.5,65.5C 27.2195,60.2193 23.2195,55.5526 18.5,51.5C 17.8333,50.8333 17.1667,50.1667 16.5,49.5C 13.931,44.9249 10.5976,40.9249 6.5,37.5C 5.5,35.8333 4.16667,34.5 2.5,33.5C 2.51985,31.857 1.85318,30.5237 0.5,29.5C 1.12723,28.5832 1.46056,27.5832 1.5,26.5C 2.22235,25.4489 3.22235,24.7822 4.5,24.5C 7.84294,22.1535 10.8429,19.4868 13.5,16.5C 15.0878,13.0269 17.4211,10.0269 20.5,7.5C 24.072,5.93098 27.072,3.59765 29.5,0.5C 32.0168,2.84939 34.3501,5.34939 36.5,8C 39.4123,8.27525 42.079,9.10858 44.5,10.5 Z"/></g>
<g><path style="opacity:1" fill="#cebecd" d="M 44.5,10.5 C 47.8976,10.9072 51.0643,11.9072 54,13.5C 54.773,17.5323 55.6063,21.5323 56.5,25.5C 55.8826,25.3893 55.3826,25.056 55,24.5C 54.3333,21.1667 53.6667,17.8333 53,14.5C 49.9537,13.3172 47.1204,11.9839 44.5,10.5 Z"/></g>
<g><path style="opacity:1" fill="#d4bfd3" d="M 13.5,16.5 C 10.8429,19.4868 7.84294,22.1535 4.5,24.5C 4.5,23.5 4.5,22.5 4.5,21.5C 7.47591,19.8731 10.4759,18.2064 13.5,16.5 Z"/></g>
<g><path style="opacity:1" fill="#d2bfd1" d="M 1.5,26.5 C 1.46056,27.5832 1.12723,28.5832 0.5,29.5C 1.85318,30.5237 2.51985,31.857 2.5,33.5C 1.77765,32.4489 0.777652,31.7822 -0.5,31.5C -0.5,30.1667 -0.5,28.8333 -0.5,27.5C 0.166667,27.1667 0.833333,26.8333 1.5,26.5 Z"/></g>
<g><path style="opacity:1" fill="#fefefe" d="M -0.5,31.5 C 0.777652,31.7822 1.77765,32.4489 2.5,33.5C 4.16667,34.5 5.5,35.8333 6.5,37.5C 9.08644,42.0896 12.4198,46.0896 16.5,49.5C 17.1667,50.1667 17.8333,50.8333 18.5,51.5C 21.8099,56.806 25.8099,61.4727 30.5,65.5C 30.7148,67.1788 30.0481,68.1788 28.5,68.5C 22.4526,72.8798 17.4526,78.2131 13.5,84.5C 13.6399,86.0296 14.3065,87.0296 15.5,87.5C 15.5,92.5 15.5,97.5 15.5,102.5C 15.4318,106.57 16.4318,110.237 18.5,113.5C 19.097,118.018 20.7637,122.018 23.5,125.5C 23.5,126.833 23.5,128.167 23.5,129.5C 21.2991,131.504 19.2991,133.837 17.5,136.5C 15.8702,139.276 15.2035,142.276 15.5,145.5C 19.5138,145.334 23.5138,145.501 27.5,146C 30.2351,147.915 33.2351,149.082 36.5,149.5C 39.1473,149.929 41.1473,151.262 42.5,153.5C 45.8814,156.545 48.8814,159.878 51.5,163.5C 54.753,167.74 57.0863,172.407 58.5,177.5C 59.8333,180.167 59.8333,182.833 58.5,185.5C 55.925,187.845 54.925,190.845 55.5,194.5C 55.5,194.833 55.5,195.167 55.5,195.5C 52.8514,198.504 51.5181,202.171 51.5,206.5C 51.6741,208.861 52.0074,211.194 52.5,213.5C 52.8333,214.833 53.1667,216.167 53.5,217.5C 35.5,217.5 17.5,217.5 -0.5,217.5C -0.5,155.5 -0.5,93.5 -0.5,31.5 Z"/></g>
<g><path style="opacity:1" fill="#d1c0d0" d="M 64.5,33.5 C 67.8161,34.1494 69.8161,36.1494 70.5,39.5C 68.5,37.5 66.5,35.5 64.5,33.5 Z"/></g>
<g><path style="opacity:1" fill="#cec3ce" d="M 6.5,37.5 C 10.5976,40.9249 13.931,44.9249 16.5,49.5C 12.4198,46.0896 9.08644,42.0896 6.5,37.5 Z"/></g>
<g><path style="opacity:1" fill="#d1c4d0" d="M 73.5,42.5 C 77.179,44.8415 79.179,48.1749 79.5,52.5C 77.5449,49.1953 75.5449,45.8619 73.5,42.5 Z"/></g>
<g><path style="opacity:1" fill="#d4c6d2" d="M 80.5,55.5 C 82.2145,57.5512 84.2145,59.2179 86.5,60.5C 82.9601,60.6235 80.9601,58.9568 80.5,55.5 Z"/></g>
<g><path style="opacity:1" fill="#cfc6ce" d="M 18.5,51.5 C 23.2195,55.5526 27.2195,60.2193 30.5,65.5C 25.8099,61.4727 21.8099,56.806 18.5,51.5 Z"/></g>
<g><path style="opacity:1" fill="#d2c3d1" d="M 28.5,68.5 C 24.5777,73.427 20.2444,78.0936 15.5,82.5C 14.3336,84.1673 14.3336,85.834 15.5,87.5C 14.3065,87.0296 13.6399,86.0296 13.5,84.5C 17.4526,78.2131 22.4526,72.8798 28.5,68.5 Z"/></g>
<g><path style="opacity:1" fill="#cfc5cd" d="M 96.5,79.5 C 98.5682,82.763 99.5682,86.4296 99.5,90.5C 98.0552,87.0635 97.0552,83.3968 96.5,79.5 Z"/></g>
<g><path style="opacity:1" fill="#d1c3d0" d="M 99.5,91.5 C 105.17,94.7243 110.504,98.3909 115.5,102.5C 111.344,99.9904 107.01,97.6571 102.5,95.5C 101.09,94.4305 100.09,93.0972 99.5,91.5 Z"/></g>
<g><path style="opacity:1" fill="#cdc3cc" d="M 15.5,102.5 C 16.9448,105.937 17.9448,109.603 18.5,113.5C 16.4318,110.237 15.4318,106.57 15.5,102.5 Z"/></g>
<g><path style="opacity:1" fill="#cfc5cd" d="M 116.5,105.5 C 118.568,108.763 119.568,112.43 119.5,116.5C 118.055,113.063 117.055,109.397 116.5,105.5 Z"/></g>
<g><path style="opacity:1" fill="#d0c0cf" d="M 18.5,113.5 C 19.1174,113.611 19.6174,113.944 20,114.5C 21.1818,118.188 22.3484,121.855 23.5,125.5C 20.7637,122.018 19.097,118.018 18.5,113.5 Z"/></g>
<g><path style="opacity:1" fill="#d0c4ce" d="M 120.5,119.5 C 122.293,121.426 123.293,123.759 123.5,126.5C 121.707,124.574 120.707,122.241 120.5,119.5 Z"/></g>
<g><path style="opacity:1" fill="#d2c2d2" d="M 23.5,129.5 C 21.8488,133.469 19.6822,137.135 17,140.5C 16.51,141.793 16.3433,143.127 16.5,144.5C 24.0832,143.324 30.7499,144.991 36.5,149.5C 33.2351,149.082 30.2351,147.915 27.5,146C 23.5138,145.501 19.5138,145.334 15.5,145.5C 15.2035,142.276 15.8702,139.276 17.5,136.5C 19.2991,133.837 21.2991,131.504 23.5,129.5 Z"/></g>
<g><path style="opacity:1" fill="#d0c6d0" d="M 123.5,127.5 C 125.939,129.095 128.272,130.928 130.5,133C 138.874,136.247 146.874,140.08 154.5,144.5C 153.127,144.657 151.793,144.49 150.5,144C 143.732,140.221 136.732,136.888 129.5,134C 126.954,132.289 124.954,130.123 123.5,127.5 Z"/></g>
<g><path style="opacity:1" fill="#cfc7cf" d="M 42.5,153.5 C 47.2278,155.23 50.2278,158.563 51.5,163.5C 48.8814,159.878 45.8814,156.545 42.5,153.5 Z"/></g>
<g><path style="opacity:1" fill="#d1c1d1" d="M 160.5,153.5 C 161.167,154.833 161.833,156.167 162.5,157.5C 162.5,158.833 162.5,160.167 162.5,161.5C 160.379,161.325 158.379,161.659 156.5,162.5C 157.678,161.001 159.345,160.001 161.5,159.5C 160.652,157.591 160.318,155.591 160.5,153.5 Z"/></g>
<g><path style="opacity:1" fill="#fefefe" d="M 162.5,161.5 C 162.5,180.167 162.5,198.833 162.5,217.5C 128.833,217.5 95.1667,217.5 61.5,217.5C 67.5152,215.104 73.8485,212.937 80.5,211C 81.3805,210.292 82.0472,209.458 82.5,208.5C 83.1667,208.5 83.8333,208.5 84.5,208.5C 93.5653,205.081 101.565,200.081 108.5,193.5C 113.817,190.849 117.817,186.849 120.5,181.5C 124.943,178.568 129.276,175.401 133.5,172C 139.527,168.907 145.861,166.574 152.5,165C 153.381,164.292 154.047,163.458 154.5,162.5C 155.167,162.5 155.833,162.5 156.5,162.5C 158.379,161.659 160.379,161.325 162.5,161.5 Z"/></g>
<g><path style="opacity:1" fill="#d1c5d0" d="M 154.5,162.5 C 154.047,163.458 153.381,164.292 152.5,165C 145.861,166.574 139.527,168.907 133.5,172C 129.276,175.401 124.943,178.568 120.5,181.5C 129.951,172.1 141.284,165.767 154.5,162.5 Z"/></g>
<g><path style="opacity:1" fill="#d8acd7" d="M 58.5,177.5 C 59.9931,178.312 60.6598,179.645 60.5,181.5C 60.5643,183.557 59.8976,185.223 58.5,186.5C 58.5,186.167 58.5,185.833 58.5,185.5C 59.8333,182.833 59.8333,180.167 58.5,177.5 Z"/></g>
<g><path style="opacity:1" fill="#d2c7d1" d="M 58.5,185.5 C 58.5,185.833 58.5,186.167 58.5,186.5C 57.2493,189.132 56.2493,191.799 55.5,194.5C 54.925,190.845 55.925,187.845 58.5,185.5 Z"/></g>
<g><path style="opacity:1" fill="#d1cbd2" d="M 120.5,181.5 C 117.817,186.849 113.817,190.849 108.5,193.5C 112.5,189.5 116.5,185.5 120.5,181.5 Z"/></g>
<g><path style="opacity:1" fill="#cfc5ce" d="M 55.5,195.5 C 54.4045,199.337 53.0712,203.004 51.5,206.5C 51.5181,202.171 52.8514,198.504 55.5,195.5 Z"/></g>
<g><path style="opacity:1" fill="#cfbfcf" d="M 108.5,193.5 C 101.565,200.081 93.5653,205.081 84.5,208.5C 92.4434,203.586 100.443,198.586 108.5,193.5 Z"/></g>
<g><path style="opacity:1" fill="#d3c5d2" d="M 82.5,208.5 C 82.0472,209.458 81.3805,210.292 80.5,211C 73.8485,212.937 67.5152,215.104 61.5,217.5C 58.8333,217.5 56.1667,217.5 53.5,217.5C 53.1667,216.167 52.8333,214.833 52.5,213.5C 53.6407,215.229 55.3074,216.229 57.5,216.5C 66.0693,214.421 74.4026,211.754 82.5,208.5 Z"/></g>
</svg>
