<?xml version="1.0" encoding="UTF-8"?>
<!DOCTYPE svg PUBLIC "-//W3C//DTD SVG 1.1//EN" "http://www.w3.org/Graphics/SVG/1.1/DTD/svg11.dtd">
<svg xmlns="http://www.w3.org/2000/svg" version="1.1" width="797px" height="1640px" style="shape-rendering:geometricPrecision; text-rendering:geometricPrecision; image-rendering:optimizeQuality; fill-rule:evenodd; clip-rule:evenodd" xmlns:xlink="http://www.w3.org/1999/xlink">
<g><path style="opacity:1" fill="#fefefe" d="M -0.5,-0.5 C 265.167,-0.5 530.833,-0.5 796.5,-0.5C 796.5,423.833 796.5,848.167 796.5,1272.5C 786.052,1264.48 783.052,1254.14 787.5,1241.5C 787.107,1231.41 785.94,1221.41 784,1211.5C 782.946,1208.31 781.446,1205.31 779.5,1202.5C 776.553,1201.58 773.553,1200.91 770.5,1200.5C 770.02,1198 769.02,1195.66 767.5,1193.5C 762.8,1190.3 758.967,1186.3 756,1181.5C 754.564,1175.48 753.064,1169.48 751.5,1163.5C 752.818,1159.06 752.485,1154.73 750.5,1150.5C 753.211,1144.28 755.711,1137.94 758,1131.5C 756.922,1119.39 760.922,1109.39 770,1101.5C 771.796,1096.65 771.296,1091.99 768.5,1087.5C 765.932,1086.72 763.932,1085.22 762.5,1083C 759.749,1074.67 756.583,1066.5 753,1058.5C 748.636,1052.73 744.636,1046.73 741,1040.5C 740.352,1036.12 741.352,1032.12 744,1028.5C 744.524,1023.07 742.857,1018.41 739,1014.5C 738.749,1006.8 736.083,1000.13 731,994.5C 729.777,989.499 727.777,984.832 725,980.5C 723.518,975.224 722.351,969.89 721.5,964.5C 723.77,956.282 726.437,948.282 729.5,940.5C 732.677,937.49 735.677,934.323 738.5,931C 737.481,926.423 738.148,922.09 740.5,918C 738.847,915.437 736.847,913.103 734.5,911C 731.955,906.707 729.788,902.207 728,897.5C 726.852,889.555 728.852,882.555 734,876.5C 733.962,870.762 733.129,865.095 731.5,859.5C 731.833,858.167 732.167,856.833 732.5,855.5C 730.469,851.285 728.635,846.952 727,842.5C 726.691,833.081 726.525,823.748 726.5,814.5C 728.398,805.64 730.398,796.806 732.5,788C 735.505,786.24 738.672,784.74 742,783.5C 743.903,780.829 744.736,777.829 744.5,774.5C 745.5,774.5 746.5,774.5 747.5,774.5C 746.652,766.788 744.485,759.455 741,752.5C 740.667,746.833 740.333,741.167 740,735.5C 739.598,734.128 739.098,732.795 738.5,731.5C 740.664,728.347 740.997,725.014 739.5,721.5C 740.064,719.181 740.564,716.847 741,714.5C 743.537,710.123 745.37,705.456 746.5,700.5C 745.456,696.669 743.956,693.002 742,689.5C 741.868,683.493 741.868,677.493 742,671.5C 741.487,668.973 740.32,666.807 738.5,665C 737.947,659.608 736.613,654.441 734.5,649.5C 735.289,645.927 736.622,642.593 738.5,639.5C 737.723,635.946 736.39,632.613 734.5,629.5C 736.707,626.124 738.707,622.624 740.5,619C 737.447,612.562 737.113,606.062 739.5,599.5C 738.865,595.351 737.865,591.351 736.5,587.5C 739.127,578.151 736.793,570.484 729.5,564.5C 728.075,560.869 728.575,557.536 731,554.5C 731.167,552.167 731.333,549.833 731.5,547.5C 729.268,540.171 727.935,532.504 727.5,524.5C 724.757,522.262 722.591,519.595 721,516.5C 719.201,508.604 716.701,500.937 713.5,493.5C 710.721,491.308 707.721,489.641 704.5,488.5C 697.205,471.521 689.872,454.521 682.5,437.5C 678.664,435.416 674.997,433.083 671.5,430.5C 666.355,424.694 662.022,418.361 658.5,411.5C 652.404,410.287 647.404,407.287 643.5,402.5C 640.975,397.595 638.642,392.595 636.5,387.5C 633.104,383.436 629.104,380.103 624.5,377.5C 621.269,374.773 618.603,371.606 616.5,368C 612.418,366.816 608.418,365.649 604.5,364.5C 603.394,359.173 604.061,354.006 606.5,349C 605.531,345.227 603.865,341.727 601.5,338.5C 601.167,336.5 600.833,334.5 600.5,332.5C 602.06,323.862 603.56,315.196 605,306.5C 606.077,304.422 607.243,302.422 608.5,300.5C 611.279,299.391 612.946,297.391 613.5,294.5C 617.369,293.62 621.036,292.286 624.5,290.5C 627.279,289.391 628.946,287.391 629.5,284.5C 632.842,278.344 636.175,272.011 639.5,265.5C 640.167,264.833 640.833,264.167 641.5,263.5C 645.5,262.833 649.5,262.167 653.5,261.5C 655.984,259.909 656.984,257.575 656.5,254.5C 655.391,246.339 653.558,238.339 651,230.5C 650.667,226.167 650.333,221.833 650,217.5C 647.619,214.071 645.785,210.404 644.5,206.5C 646.535,202.945 647.869,199.112 648.5,195C 648.055,189.774 647.222,184.607 646,179.5C 642.187,169.054 638.187,158.721 634,148.5C 633.313,145.574 631.48,144.241 628.5,144.5C 626.836,139.842 625.169,135.175 623.5,130.5C 624.802,127.428 625.802,124.262 626.5,121C 623.004,116.503 619.504,112.003 616,107.5C 614.748,100.992 615.914,94.9918 619.5,89.5C 618.306,84.4163 616.806,79.4163 615,74.5C 614.952,68.6858 614.119,63.0192 612.5,57.5C 606.134,51.469 600.134,45.1357 594.5,38.5C 597.794,35.5392 599.794,31.8726 600.5,27.5C 596.508,20.184 592.008,13.184 587,6.5C 586.187,4.56429 585.687,2.56429 585.5,0.5C 553.262,21.7887 519.929,41.2887 485.5,59C 409.86,105.182 333.194,149.349 255.5,191.5C 235.262,196.014 214.929,200.014 194.5,203.5C 194.76,199.381 196.26,195.714 199,192.5C 199.667,190.5 199.667,188.5 199,186.5C 194.807,181.452 191.64,175.785 189.5,169.5C 184.158,167.151 178.825,164.818 173.5,162.5C 173.047,155.882 173.047,149.216 173.5,142.5C 129.976,159.784 86.6427,177.45 43.5,195.5C 42.4867,198.459 42.4867,201.459 43.5,204.5C 39.9915,212.009 42.3248,216.676 50.5,218.5C 52.3907,223.678 54.0574,229.011 55.5,234.5C 58.1377,235.704 60.471,237.37 62.5,239.5C 54.7094,242.655 46.7094,245.155 38.5,247C 26.0604,252.97 13.0604,257.47 -0.5,260.5C -0.5,173.5 -0.5,86.5 -0.5,-0.5 Z"/></g>
<g><path style="opacity:1" fill="#3da2ab" d="M 629.5,284.5 C 627.463,286.202 625.797,288.202 624.5,290.5C 621.036,292.286 617.369,293.62 613.5,294.5C 611.463,296.202 609.797,298.202 608.5,300.5C 607.243,302.422 606.077,304.422 605,306.5C 603.56,315.196 602.06,323.862 600.5,332.5C 600.833,334.5 601.167,336.5 601.5,338.5C 603.865,341.727 605.531,345.227 606.5,349C 604.061,354.006 603.394,359.173 604.5,364.5C 608.418,365.649 612.418,366.816 616.5,368C 618.603,371.606 621.269,374.773 624.5,377.5C 629.104,380.103 633.104,383.436 636.5,387.5C 638.642,392.595 640.975,397.595 643.5,402.5C 647.404,407.287 652.404,410.287 658.5,411.5C 662.022,418.361 666.355,424.694 671.5,430.5C 674.997,433.083 678.664,435.416 682.5,437.5C 689.872,454.521 697.205,471.521 704.5,488.5C 707.721,489.641 710.721,491.308 713.5,493.5C 716.701,500.937 719.201,508.604 721,516.5C 722.591,519.595 724.757,522.262 727.5,524.5C 727.935,532.504 729.268,540.171 731.5,547.5C 731.333,549.833 731.167,552.167 731,554.5C 728.575,557.536 728.075,560.869 729.5,564.5C 736.793,570.484 739.127,578.151 736.5,587.5C 737.865,591.351 738.865,595.351 739.5,599.5C 737.113,606.062 737.447,612.562 740.5,619C 738.707,622.624 736.707,626.124 734.5,629.5C 736.39,632.613 737.723,635.946 738.5,639.5C 736.622,642.593 735.289,645.927 734.5,649.5C 736.613,654.441 737.947,659.608 738.5,665C 740.32,666.807 741.487,668.973 742,671.5C 741.868,677.493 741.868,683.493 742,689.5C 743.956,693.002 745.456,696.669 746.5,700.5C 745.37,705.456 743.537,710.123 741,714.5C 740.564,716.847 740.064,719.181 739.5,721.5C 740.997,725.014 740.664,728.347 738.5,731.5C 739.098,732.795 739.598,734.128 740,735.5C 740.333,741.167 740.667,746.833 741,752.5C 744.485,759.455 746.652,766.788 747.5,774.5C 746.5,774.5 745.5,774.5 744.5,774.5C 744.736,777.829 743.903,780.829 742,783.5C 738.672,784.74 735.505,786.24 732.5,788C 730.398,796.806 728.398,805.64 726.5,814.5C 726.525,823.748 726.691,833.081 727,842.5C 728.635,846.952 730.469,851.285 732.5,855.5C 732.167,856.833 731.833,858.167 731.5,859.5C 733.129,865.095 733.962,870.762 734,876.5C 728.852,882.555 726.852,889.555 728,897.5C 729.788,902.207 731.955,906.707 734.5,911C 736.847,913.103 738.847,915.437 740.5,918C 738.148,922.09 737.481,926.423 738.5,931C 735.677,934.323 732.677,937.49 729.5,940.5C 726.437,948.282 723.77,956.282 721.5,964.5C 722.351,969.89 723.518,975.224 725,980.5C 727.777,984.832 729.777,989.499 731,994.5C 736.083,1000.13 738.749,1006.8 739,1014.5C 742.857,1018.41 744.524,1023.07 744,1028.5C 741.352,1032.12 740.352,1036.12 741,1040.5C 744.636,1046.73 748.636,1052.73 753,1058.5C 756.583,1066.5 759.749,1074.67 762.5,1083C 763.932,1085.22 765.932,1086.72 768.5,1087.5C 771.296,1091.99 771.796,1096.65 770,1101.5C 760.922,1109.39 756.922,1119.39 758,1131.5C 755.711,1137.94 753.211,1144.28 750.5,1150.5C 752.485,1154.73 752.818,1159.06 751.5,1163.5C 753.064,1169.48 754.564,1175.48 756,1181.5C 758.967,1186.3 762.8,1190.3 767.5,1193.5C 769.02,1195.66 770.02,1198 770.5,1200.5C 773.553,1200.91 776.553,1201.58 779.5,1202.5C 781.446,1205.31 782.946,1208.31 784,1211.5C 785.94,1221.41 787.107,1231.41 787.5,1241.5C 783.052,1254.14 786.052,1264.48 796.5,1272.5C 796.5,1273.83 796.5,1275.17 796.5,1276.5C 790.983,1278.68 786.65,1282.34 783.5,1287.5C 778.115,1292.56 772.448,1297.22 766.5,1301.5C 743.771,1322.9 721.104,1344.23 698.5,1365.5C 696.199,1369.26 693.533,1372.76 690.5,1376C 686.74,1388.2 688.24,1399.7 695,1410.5C 694.882,1421.83 699.882,1430.16 710,1435.5C 713.596,1449.39 719.096,1462.39 726.5,1474.5C 728.164,1485.81 728.997,1497.14 729,1508.5C 736.793,1519.79 743.96,1531.46 750.5,1543.5C 754.592,1548.53 759.925,1551.2 766.5,1551.5C 768.795,1552.14 770.461,1553.47 771.5,1555.5C 768.698,1562.32 766.365,1569.32 764.5,1576.5C 765.836,1580.32 766.669,1584.32 767,1588.5C 770.453,1594.41 773.62,1600.41 776.5,1606.5C 718.275,1616.96 660.275,1627.96 602.5,1639.5C 601.167,1639.5 599.833,1639.5 598.5,1639.5C 597.5,1634.17 596.5,1628.83 595.5,1623.5C 594.935,1621.05 594.268,1618.71 593.5,1616.5C 592.201,1609.98 590.535,1603.65 588.5,1597.5C 589.055,1593.99 588.388,1590.99 586.5,1588.5C 584.263,1573.74 580.93,1559.41 576.5,1545.5C 577.018,1540.06 576.018,1535.06 573.5,1530.5C 571.494,1520.76 569.494,1511.09 567.5,1501.5C 567.196,1500.85 566.863,1500.18 566.5,1499.5C 567.612,1498.73 568.279,1497.73 568.5,1496.5C 568.833,1496.5 569.167,1496.5 569.5,1496.5C 572.864,1493.47 575.864,1490.14 578.5,1486.5C 593.422,1470.58 608.756,1454.91 624.5,1439.5C 594.159,1374.3 563.993,1308.97 534,1243.5C 534.115,1237.75 534.948,1232.09 536.5,1226.5C 538.942,1220.64 540.275,1214.31 540.5,1207.5C 542.079,1204.72 543.412,1201.72 544.5,1198.5C 535.759,1183.35 526.759,1168.35 517.5,1153.5C 519.024,1146.6 521.357,1139.93 524.5,1133.5C 522.994,1126.61 521.994,1119.61 521.5,1112.5C 520.452,1111.45 519.452,1110.45 518.5,1109.5C 517.713,1106.09 516.379,1103.09 514.5,1100.5C 514.586,1099.5 514.252,1098.67 513.5,1098C 510.454,1098.31 507.454,1098.15 504.5,1097.5C 503.375,1094.54 502.375,1091.54 501.5,1088.5C 498.879,1087.42 496.712,1085.75 495,1083.5C 492.254,1074.47 489.254,1065.47 486,1056.5C 477.048,1048.49 473.882,1038.49 476.5,1026.5C 476.051,1023.68 475.051,1021.18 473.5,1019C 473.741,1017.02 474.408,1015.18 475.5,1013.5C 474.828,1011.47 474.162,1009.47 473.5,1007.5C 472.478,1005.14 470.812,1003.48 468.5,1002.5C 467.804,995.002 463.804,990.002 456.5,987.5C 448.314,986.902 440.314,985.402 432.5,983C 424.686,980.205 421.353,974.705 422.5,966.5C 418.958,966.813 415.625,966.479 412.5,965.5C 410.696,964.838 408.696,964.505 406.5,964.5C 404.048,964.539 402.048,965.206 400.5,966.5C 396.4,966.524 392.4,967.191 388.5,968.5C 350.293,987.605 311.627,1005.6 272.5,1022.5C 270.547,1023.16 268.547,1023.49 266.5,1023.5C 264.385,1016.6 261.718,1009.94 258.5,1003.5C 258,1003.17 257.5,1002.83 257,1002.5C 253.256,1004.42 249.423,1006.09 245.5,1007.5C 242.987,1006.15 241.153,1004.15 240,1001.5C 200.552,903.045 160.219,805.045 119,707.5C 117.061,699.637 114.061,692.304 110,685.5C 88.8736,631.795 67.5402,578.128 46,524.5C 38.2654,509.208 31.2654,493.542 25,477.5C 23.4123,471.562 22.079,465.562 21,459.5C 16.147,408.489 11.147,357.489 6,306.5C 4.63861,293.547 2.47194,280.88 -0.5,268.5C -0.5,265.833 -0.5,263.167 -0.5,260.5C 13.0604,257.47 26.0604,252.97 38.5,247C 46.7094,245.155 54.7094,242.655 62.5,239.5C 60.471,237.37 58.1377,235.704 55.5,234.5C 54.0574,229.011 52.3907,223.678 50.5,218.5C 42.3248,216.676 39.9915,212.009 43.5,204.5C 42.4867,201.459 42.4867,198.459 43.5,195.5C 86.6427,177.45 129.976,159.784 173.5,142.5C 173.047,149.216 173.047,155.882 173.5,162.5C 178.825,164.818 184.158,167.151 189.5,169.5C 191.64,175.785 194.807,181.452 199,186.5C 199.667,188.5 199.667,190.5 199,192.5C 196.26,195.714 194.76,199.381 194.5,203.5C 214.929,200.014 235.262,196.014 255.5,191.5C 333.194,149.349 409.86,105.182 485.5,59C 519.929,41.2887 553.262,21.7887 585.5,0.5C 585.687,2.56429 586.187,4.56429 587,6.5C 592.008,13.184 596.508,20.184 600.5,27.5C 599.794,31.8726 597.794,35.5392 594.5,38.5C 600.134,45.1357 606.134,51.469 612.5,57.5C 614.119,63.0192 614.952,68.6858 615,74.5C 616.806,79.4163 618.306,84.4163 619.5,89.5C 615.914,94.9918 614.748,100.992 616,107.5C 619.504,112.003 623.004,116.503 626.5,121C 625.802,124.262 624.802,127.428 623.5,130.5C 625.169,135.175 626.836,139.842 628.5,144.5C 631.48,144.241 633.313,145.574 634,148.5C 638.187,158.721 642.187,169.054 646,179.5C 647.222,184.607 648.055,189.774 648.5,195C 647.869,199.112 646.535,202.945 644.5,206.5C 645.785,210.404 647.619,214.071 650,217.5C 650.333,221.833 650.667,226.167 651,230.5C 653.558,238.339 655.391,246.339 656.5,254.5C 656.984,257.575 655.984,259.909 653.5,261.5C 649.5,262.167 645.5,262.833 641.5,263.5C 640.833,264.167 640.167,264.833 639.5,265.5C 636.175,272.011 632.842,278.344 629.5,284.5 Z"/></g>
<g><path style="opacity:1" fill="#fefefe" d="M -0.5,268.5 C 2.47194,280.88 4.63861,293.547 6,306.5C 11.147,357.489 16.147,408.489 21,459.5C 22.079,465.562 23.4123,471.562 25,477.5C 31.2654,493.542 38.2654,509.208 46,524.5C 67.5402,578.128 88.8736,631.795 110,685.5C 114.061,692.304 117.061,699.637 119,707.5C 160.219,805.045 200.552,903.045 240,1001.5C 241.153,1004.15 242.987,1006.15 245.5,1007.5C 249.423,1006.09 253.256,1004.42 257,1002.5C 257.5,1002.83 258,1003.17 258.5,1003.5C 261.718,1009.94 264.385,1016.6 266.5,1023.5C 268.547,1023.49 270.547,1023.16 272.5,1022.5C 311.627,1005.6 350.293,987.605 388.5,968.5C 392.4,967.191 396.4,966.524 400.5,966.5C 404.4,965.57 408.4,965.237 412.5,965.5C 415.625,966.479 418.958,966.813 422.5,966.5C 421.353,974.705 424.686,980.205 432.5,983C 440.314,985.402 448.314,986.902 456.5,987.5C 463.804,990.002 467.804,995.002 468.5,1002.5C 469.522,1004.86 471.188,1006.52 473.5,1007.5C 474.162,1009.47 474.828,1011.47 475.5,1013.5C 474.408,1015.18 473.741,1017.02 473.5,1019C 475.051,1021.18 476.051,1023.68 476.5,1026.5C 473.882,1038.49 477.048,1048.49 486,1056.5C 489.254,1065.47 492.254,1074.47 495,1083.5C 496.712,1085.75 498.879,1087.42 501.5,1088.5C 502.375,1091.54 503.375,1094.54 504.5,1097.5C 507.454,1098.15 510.454,1098.31 513.5,1098C 514.252,1098.67 514.586,1099.5 514.5,1100.5C 514.882,1104 516.216,1107 518.5,1109.5C 519.452,1110.45 520.452,1111.45 521.5,1112.5C 521.994,1119.61 522.994,1126.61 524.5,1133.5C 521.357,1139.93 519.024,1146.6 517.5,1153.5C 526.759,1168.35 535.759,1183.35 544.5,1198.5C 543.412,1201.72 542.079,1204.72 540.5,1207.5C 538.799,1213.67 537.466,1220 536.5,1226.5C 534.948,1232.09 534.115,1237.75 534,1243.5C 563.993,1308.97 594.159,1374.3 624.5,1439.5C 608.756,1454.91 593.422,1470.58 578.5,1486.5C 574.407,1488.92 571.407,1492.26 569.5,1496.5C 569.167,1496.5 568.833,1496.5 568.5,1496.5C 565.25,1497.91 564.916,1499.58 567.5,1501.5C 569.494,1511.09 571.494,1520.76 573.5,1530.5C 574.586,1535.58 575.586,1540.58 576.5,1545.5C 580.93,1559.41 584.263,1573.74 586.5,1588.5C 587.088,1591.61 587.755,1594.61 588.5,1597.5C 590.535,1603.65 592.201,1609.98 593.5,1616.5C 592.99,1619.39 593.656,1621.72 595.5,1623.5C 596.5,1628.83 597.5,1634.17 598.5,1639.5C 398.833,1639.5 199.167,1639.5 -0.5,1639.5C -0.5,1182.5 -0.5,725.5 -0.5,268.5 Z"/></g>
<g><path style="opacity:1" fill="#becacb" d="M 629.5,284.5 C 628.946,287.391 627.279,289.391 624.5,290.5C 625.797,288.202 627.463,286.202 629.5,284.5 Z"/></g>
<g><path style="opacity:1" fill="#becacb" d="M 613.5,294.5 C 612.946,297.391 611.279,299.391 608.5,300.5C 609.797,298.202 611.463,296.202 613.5,294.5 Z"/></g>
<g><path style="opacity:1" fill="#91b2b5" d="M 412.5,965.5 C 408.4,965.237 404.4,965.57 400.5,966.5C 402.048,965.206 404.048,964.539 406.5,964.5C 408.696,964.505 410.696,964.838 412.5,965.5 Z"/></g>
<g><path style="opacity:1" fill="#b0c0c2" d="M 468.5,1002.5 C 470.812,1003.48 472.478,1005.14 473.5,1007.5C 471.188,1006.52 469.522,1004.86 468.5,1002.5 Z"/></g>
<g><path style="opacity:1" fill="#c0c9cb" d="M 514.5,1100.5 C 516.379,1103.09 517.713,1106.09 518.5,1109.5C 516.216,1107 514.882,1104 514.5,1100.5 Z"/></g>
<g><path style="opacity:1" fill="#91b2b6" d="M 540.5,1207.5 C 540.275,1214.31 538.942,1220.64 536.5,1226.5C 537.466,1220 538.799,1213.67 540.5,1207.5 Z"/></g>
<g><path style="opacity:1" fill="#fefefe" d="M 796.5,1276.5 C 796.5,1397.5 796.5,1518.5 796.5,1639.5C 731.833,1639.5 667.167,1639.5 602.5,1639.5C 660.275,1627.96 718.275,1616.96 776.5,1606.5C 773.62,1600.41 770.453,1594.41 767,1588.5C 766.669,1584.32 765.836,1580.32 764.5,1576.5C 766.365,1569.32 768.698,1562.32 771.5,1555.5C 770.461,1553.47 768.795,1552.14 766.5,1551.5C 759.925,1551.2 754.592,1548.53 750.5,1543.5C 743.96,1531.46 736.793,1519.79 729,1508.5C 728.997,1497.14 728.164,1485.81 726.5,1474.5C 719.096,1462.39 713.596,1449.39 710,1435.5C 699.882,1430.16 694.882,1421.83 695,1410.5C 688.24,1399.7 686.74,1388.2 690.5,1376C 693.533,1372.76 696.199,1369.26 698.5,1365.5C 721.104,1344.23 743.771,1322.9 766.5,1301.5C 772.448,1297.22 778.115,1292.56 783.5,1287.5C 786.65,1282.34 790.983,1278.68 796.5,1276.5 Z"/></g>
<g><path style="opacity:1" fill="#b6c5c6" d="M 578.5,1486.5 C 575.864,1490.14 572.864,1493.47 569.5,1496.5C 571.407,1492.26 574.407,1488.92 578.5,1486.5 Z"/></g>
<g><path style="opacity:1" fill="#c0c9cb" d="M 568.5,1496.5 C 568.279,1497.73 567.612,1498.73 566.5,1499.5C 566.863,1500.18 567.196,1500.85 567.5,1501.5C 564.916,1499.58 565.25,1497.91 568.5,1496.5 Z"/></g>
<g><path style="opacity:1" fill="#9cb5ba" d="M 573.5,1530.5 C 576.018,1535.06 577.018,1540.06 576.5,1545.5C 575.586,1540.58 574.586,1535.58 573.5,1530.5 Z"/></g>
<g><path style="opacity:1" fill="#b9c5c8" d="M 586.5,1588.5 C 588.388,1590.99 589.055,1593.99 588.5,1597.5C 587.755,1594.61 587.088,1591.61 586.5,1588.5 Z"/></g>
<g><path style="opacity:1" fill="#bec6c9" d="M 593.5,1616.5 C 594.268,1618.71 594.935,1621.05 595.5,1623.5C 593.656,1621.72 592.99,1619.39 593.5,1616.5 Z"/></g>
</svg>
