<?xml version="1.0" encoding="UTF-8"?>
<!DOCTYPE svg PUBLIC "-//W3C//DTD SVG 1.1//EN" "http://www.w3.org/Graphics/SVG/1.1/DTD/svg11.dtd">
<svg xmlns="http://www.w3.org/2000/svg" version="1.1" width="106px" height="210px" style="shape-rendering:geometricPrecision; text-rendering:geometricPrecision; image-rendering:optimizeQuality; fill-rule:evenodd; clip-rule:evenodd" xmlns:xlink="http://www.w3.org/1999/xlink">
<g><path style="opacity:1" fill="#fefffe" d="M -0.5,-0.5 C 13.8333,-0.5 28.1667,-0.5 42.5,-0.5C 42.5,-0.166667 42.5,0.166667 42.5,0.5C 42.5,0.833333 42.5,1.16667 42.5,1.5C 34.7534,3.73117 27.4201,6.73117 20.5,10.5C 20.5,10.8333 20.5,11.1667 20.5,11.5C 13.4402,13.2978 6.44018,15.2978 -0.5,17.5C -0.5,11.5 -0.5,5.5 -0.5,-0.5 Z"/></g>
<g><path style="opacity:1" fill="#fefefe" d="M 49.5,-0.5 C 68.1667,-0.5 86.8333,-0.5 105.5,-0.5C 105.5,65.5 105.5,131.5 105.5,197.5C 98.9071,197.867 93.5738,195.533 89.5,190.5C 88.3771,187.625 87.5438,184.625 87,181.5C 86.6174,180.944 86.1174,180.611 85.5,180.5C 85.6646,177.482 85.498,174.482 85,171.5C 84.6174,170.944 84.1174,170.611 83.5,170.5C 82.1667,167.833 82.1667,165.167 83.5,162.5C 84.1174,162.389 84.6174,162.056 85,161.5C 85.498,158.518 85.6646,155.518 85.5,152.5C 87.1132,152.056 88.2798,151.056 89,149.5C 89.4983,146.183 89.665,142.85 89.5,139.5C 94.1606,140.168 96.1606,138.168 95.5,133.5C 92.8333,133.5 90.1667,133.5 87.5,133.5C 87.5,131.167 87.5,128.833 87.5,126.5C 89.2798,125.01 89.9465,123.01 89.5,120.5C 90.1174,120.389 90.6174,120.056 91,119.5C 92.1345,106.684 91.3012,94.0175 88.5,81.5C 87.6687,74.1892 87.1687,66.8559 87,59.5C 83.9024,52.5186 82.7357,45.1853 83.5,37.5C 82.5,37.5 81.5,37.5 80.5,37.5C 80.5,36.8333 80.1667,36.5 79.5,36.5C 75.7133,35.4057 72.38,33.4057 69.5,30.5C 66.1776,25.1947 62.8442,19.8614 59.5,14.5C 57.9316,11.9933 55.9316,9.99331 53.5,8.5C 51.6671,5.68435 50.3337,2.68435 49.5,-0.5 Z"/></g>
<g><path style="opacity:1" fill="#536280" d="M 42.5,0.5 C 44.5,0.5 46.5,0.5 48.5,0.5C 48.238,1.97782 48.5713,3.31116 49.5,4.5C 50.4095,6.37469 51.7428,7.70803 53.5,8.5C 57.3948,13.9397 61.0614,19.6064 64.5,25.5C 65.9695,27.5129 67.6362,29.1796 69.5,30.5C 71.3012,34.9542 74.6345,36.9542 79.5,36.5C 80.1667,36.5 80.5,36.8333 80.5,37.5C 82.1998,42.2065 83.0331,47.2065 83,52.5C 84,55.1667 85,57.8333 86,60.5C 86.324,70.5625 87.1573,80.5625 88.5,90.5C 88.5394,91.5832 88.8728,92.5832 89.5,93.5C 89.0193,104.569 88.0193,115.569 86.5,126.5C 86.5,129.167 86.5,131.833 86.5,134.5C 89.2469,134.187 91.9135,134.52 94.5,135.5C 93.2882,137.923 91.2882,138.923 88.5,138.5C 88.665,141.85 88.4983,145.183 88,148.5C 86.9152,149.736 86.0819,151.069 85.5,152.5C 84.6768,155.684 84.0101,159.017 83.5,162.5C 82.1667,165.167 82.1667,167.833 83.5,170.5C 84.0101,173.983 84.6768,177.316 85.5,180.5C 85.6832,184.401 87.0165,187.734 89.5,190.5C 89.7221,192.607 90.7221,194.274 92.5,195.5C 96.2842,197.447 100.284,198.78 104.5,199.5C 95.7292,203.312 86.7292,206.312 77.5,208.5C 75.7202,207.01 75.0535,205.01 75.5,202.5C 74.1325,197.433 71.9658,192.767 69,188.5C 67.6548,180.271 64.4881,172.938 59.5,166.5C 59.1667,166.5 58.8333,166.5 58.5,166.5C 58.4786,161.147 56.812,156.48 53.5,152.5C 52.5271,147.239 50.5271,142.572 47.5,138.5C 47.1667,138.5 46.8333,138.5 46.5,138.5C 45.7397,133.428 44.073,128.761 41.5,124.5C 41.1249,122.302 40.4582,120.302 39.5,118.5C 38.6792,114.873 37.3459,111.54 35.5,108.5C 33.871,102.936 31.871,97.603 29.5,92.5C 29.3404,90.847 28.6737,89.5137 27.5,88.5C 26.6792,84.8733 25.3459,81.54 23.5,78.5C 22.6792,74.8733 21.3459,71.54 19.5,68.5C 17.4878,63.0761 15.4878,57.7428 13.5,52.5C 12.8333,51.1667 12.1667,49.8333 11.5,48.5C 10.8951,45.8733 10.3951,43.2066 10,40.5C 9.58309,39.244 8.74975,38.5774 7.5,38.5C 7.12487,36.3024 6.4582,34.3024 5.5,32.5C 4.67921,28.8733 3.34588,25.54 1.5,22.5C 1.5,22.1667 1.5,21.8333 1.5,21.5C 1.19607,20.8501 0.862734,20.1835 0.5,19.5C 7.27196,16.8049 13.9386,14.1383 20.5,11.5C 20.5,11.1667 20.5,10.8333 20.5,10.5C 22.604,10.7989 24.604,10.4656 26.5,9.5C 31.9229,6.80577 37.2563,4.1391 42.5,1.5C 42.5,1.16667 42.5,0.833333 42.5,0.5 Z"/></g>
<g><path style="opacity:1" fill="#bbbbbc" d="M 42.5,0.5 C 42.5,0.166667 42.5,-0.166667 42.5,-0.5C 44.8333,-0.5 47.1667,-0.5 49.5,-0.5C 50.3337,2.68435 51.6671,5.68435 53.5,8.5C 51.7428,7.70803 50.4095,6.37469 49.5,4.5C 48.5713,3.31116 48.238,1.97782 48.5,0.5C 46.5,0.5 44.5,0.5 42.5,0.5 Z"/></g>
<g><path style="opacity:1" fill="#b3b4b5" d="M 42.5,1.5 C 37.2563,4.1391 31.9229,6.80577 26.5,9.5C 24.604,10.4656 22.604,10.7989 20.5,10.5C 27.4201,6.73117 34.7534,3.73117 42.5,1.5 Z"/></g>
<g><path style="opacity:1" fill="#b3b4b5" d="M 20.5,11.5 C 13.9386,14.1383 7.27196,16.8049 0.5,19.5C 0.862734,20.1835 1.19607,20.8501 1.5,21.5C 0.833333,21.5 0.166667,21.5 -0.5,21.5C -0.5,20.1667 -0.5,18.8333 -0.5,17.5C 6.44018,15.2978 13.4402,13.2978 20.5,11.5 Z"/></g>
<g><path style="opacity:1" fill="#b7b8b8" d="M 53.5,8.5 C 55.9316,9.99331 57.9316,11.9933 59.5,14.5C 62.8442,19.8614 66.1776,25.1947 69.5,30.5C 67.6362,29.1796 65.9695,27.5129 64.5,25.5C 61.0614,19.6064 57.3948,13.9397 53.5,8.5 Z"/></g>
<g><path style="opacity:1" fill="#fefefe" d="M -0.5,21.5 C 0.166667,21.5 0.833333,21.5 1.5,21.5C 1.5,21.8333 1.5,22.1667 1.5,22.5C 1.78371,25.6318 2.61704,28.6318 4,31.5C 4.38258,32.056 4.88258,32.3893 5.5,32.5C 5.05351,35.0101 5.72017,37.0101 7.5,38.5C 8.25777,41.4873 9.0911,44.4873 10,47.5C 10.3826,48.056 10.8826,48.3893 11.5,48.5C 12.1667,49.8333 12.8333,51.1667 13.5,52.5C 13.9894,58.5004 15.9894,63.8338 19.5,68.5C 19.7837,71.6318 20.617,74.6318 22,77.5C 22.3826,78.056 22.8826,78.3893 23.5,78.5C 23.7837,81.6318 24.617,84.6318 26,87.5C 26.3826,88.056 26.8826,88.3893 27.5,88.5C 27.2291,90.3797 27.8958,91.713 29.5,92.5C 30.4857,97.6262 31.9857,102.626 34,107.5C 34.3826,108.056 34.8826,108.389 35.5,108.5C 35.7837,111.632 36.617,114.632 38,117.5C 38.3826,118.056 38.8826,118.389 39.5,118.5C 39.0535,121.01 39.7202,123.01 41.5,124.5C 42.5644,129.45 44.2311,134.117 46.5,138.5C 46.8333,138.5 47.1667,138.5 47.5,138.5C 48.1701,143.877 50.1701,148.544 53.5,152.5C 54.3901,157.508 56.0568,162.175 58.5,166.5C 58.8333,166.5 59.1667,166.5 59.5,166.5C 62.9037,173.971 65.737,181.637 68,189.5C 70.2427,194.158 72.7427,198.491 75.5,202.5C 75.0535,205.01 75.7202,207.01 77.5,208.5C 77.5,208.833 77.5,209.167 77.5,209.5C 51.5,209.5 25.5,209.5 -0.5,209.5C -0.5,146.833 -0.5,84.1667 -0.5,21.5 Z"/></g>
<g><path style="opacity:1" fill="#b0b3b2" d="M 1.5,22.5 C 3.34588,25.54 4.67921,28.8733 5.5,32.5C 4.88258,32.3893 4.38258,32.056 4,31.5C 2.61704,28.6318 1.78371,25.6318 1.5,22.5 Z"/></g>
<g><path style="opacity:1" fill="#b8b8b9" d="M 69.5,30.5 C 72.38,33.4057 75.7133,35.4057 79.5,36.5C 74.6345,36.9542 71.3012,34.9542 69.5,30.5 Z"/></g>
<g><path style="opacity:1" fill="#adb0af" d="M 5.5,32.5 C 6.4582,34.3024 7.12487,36.3024 7.5,38.5C 5.72017,37.0101 5.05351,35.0101 5.5,32.5 Z"/></g>
<g><path style="opacity:1" fill="#838991" d="M 7.5,38.5 C 8.74975,38.5774 9.58309,39.244 10,40.5C 10.3951,43.2066 10.8951,45.8733 11.5,48.5C 10.8826,48.3893 10.3826,48.056 10,47.5C 9.0911,44.4873 8.25777,41.4873 7.5,38.5 Z"/></g>
<g><path style="opacity:1" fill="#afb1b1" d="M 13.5,52.5 C 15.4878,57.7428 17.4878,63.0761 19.5,68.5C 15.9894,63.8338 13.9894,58.5004 13.5,52.5 Z"/></g>
<g><path style="opacity:1" fill="#bababa" d="M 80.5,37.5 C 81.5,37.5 82.5,37.5 83.5,37.5C 82.7357,45.1853 83.9024,52.5186 87,59.5C 87.1687,66.8559 87.6687,74.1892 88.5,81.5C 91.3012,94.0175 92.1345,106.684 91,119.5C 90.6174,120.056 90.1174,120.389 89.5,120.5C 90.1181,115.215 90.4515,109.881 90.5,104.5C 90.4933,99.4492 89.8266,94.7825 88.5,90.5C 87.1573,80.5625 86.324,70.5625 86,60.5C 85,57.8333 84,55.1667 83,52.5C 83.0331,47.2065 82.1998,42.2065 80.5,37.5 Z"/></g>
<g><path style="opacity:1" fill="#b1b3b3" d="M 19.5,68.5 C 21.3459,71.54 22.6792,74.8733 23.5,78.5C 22.8826,78.3893 22.3826,78.056 22,77.5C 20.617,74.6318 19.7837,71.6318 19.5,68.5 Z"/></g>
<g><path style="opacity:1" fill="#b2b4b4" d="M 23.5,78.5 C 25.3459,81.54 26.6792,84.8733 27.5,88.5C 26.8826,88.3893 26.3826,88.056 26,87.5C 24.617,84.6318 23.7837,81.6318 23.5,78.5 Z"/></g>
<g><path style="opacity:1" fill="#a6a8a9" d="M 27.5,88.5 C 28.6737,89.5137 29.3404,90.847 29.5,92.5C 27.8958,91.713 27.2291,90.3797 27.5,88.5 Z"/></g>
<g><path style="opacity:1" fill="#b2b4b4" d="M 29.5,92.5 C 31.871,97.603 33.871,102.936 35.5,108.5C 34.8826,108.389 34.3826,108.056 34,107.5C 31.9857,102.626 30.4857,97.6262 29.5,92.5 Z"/></g>
<g><path style="opacity:1" fill="#636a79" d="M 88.5,90.5 C 89.8266,94.7825 90.4933,99.4492 90.5,104.5C 90.4515,109.881 90.1181,115.215 89.5,120.5C 89.9465,123.01 89.2798,125.01 87.5,126.5C 87.1667,126.5 86.8333,126.5 86.5,126.5C 88.0193,115.569 89.0193,104.569 89.5,93.5C 88.8728,92.5832 88.5394,91.5832 88.5,90.5 Z"/></g>
<g><path style="opacity:1" fill="#a5a8a8" d="M 35.5,108.5 C 37.3459,111.54 38.6792,114.873 39.5,118.5C 38.8826,118.389 38.3826,118.056 38,117.5C 36.617,114.632 35.7837,111.632 35.5,108.5 Z"/></g>
<g><path style="opacity:1" fill="#a8abab" d="M 39.5,118.5 C 40.4582,120.302 41.1249,122.302 41.5,124.5C 39.7202,123.01 39.0535,121.01 39.5,118.5 Z"/></g>
<g><path style="opacity:1" fill="#abacae" d="M 41.5,124.5 C 44.073,128.761 45.7397,133.428 46.5,138.5C 44.2311,134.117 42.5644,129.45 41.5,124.5 Z"/></g>
<g><path style="opacity:1" fill="#b0b2b2" d="M 86.5,126.5 C 86.8333,126.5 87.1667,126.5 87.5,126.5C 87.5,128.833 87.5,131.167 87.5,133.5C 90.1667,133.5 92.8333,133.5 95.5,133.5C 96.1606,138.168 94.1606,140.168 89.5,139.5C 89.665,142.85 89.4983,146.183 89,149.5C 88.2798,151.056 87.1132,152.056 85.5,152.5C 86.0819,151.069 86.9152,149.736 88,148.5C 88.4983,145.183 88.665,141.85 88.5,138.5C 91.2882,138.923 93.2882,137.923 94.5,135.5C 91.9135,134.52 89.2469,134.187 86.5,134.5C 86.5,131.833 86.5,129.167 86.5,126.5 Z"/></g>
<g><path style="opacity:1" fill="#7e818b" d="M 47.5,138.5 C 50.5271,142.572 52.5271,147.239 53.5,152.5C 50.1701,148.544 48.1701,143.877 47.5,138.5 Z"/></g>
<g><path style="opacity:1" fill="#a1a4a4" d="M 85.5,152.5 C 85.6646,155.518 85.498,158.518 85,161.5C 84.6174,162.056 84.1174,162.389 83.5,162.5C 84.0101,159.017 84.6768,155.684 85.5,152.5 Z"/></g>
<g><path style="opacity:1" fill="#797c87" d="M 53.5,152.5 C 56.812,156.48 58.4786,161.147 58.5,166.5C 56.0568,162.175 54.3901,157.508 53.5,152.5 Z"/></g>
<g><path style="opacity:1" fill="#a6a9a9" d="M 83.5,170.5 C 84.1174,170.611 84.6174,170.944 85,171.5C 85.498,174.482 85.6646,177.482 85.5,180.5C 84.6768,177.316 84.0101,173.983 83.5,170.5 Z"/></g>
<g><path style="opacity:1" fill="#a8aaaa" d="M 85.5,180.5 C 86.1174,180.611 86.6174,180.944 87,181.5C 87.5438,184.625 88.3771,187.625 89.5,190.5C 87.0165,187.734 85.6832,184.401 85.5,180.5 Z"/></g>
<g><path style="opacity:1" fill="#7a7d88" d="M 59.5,166.5 C 64.4881,172.938 67.6548,180.271 69,188.5C 71.9658,192.767 74.1325,197.433 75.5,202.5C 72.7427,198.491 70.2427,194.158 68,189.5C 65.737,181.637 62.9037,173.971 59.5,166.5 Z"/></g>
<g><path style="opacity:1" fill="#b8b8b9" d="M 89.5,190.5 C 93.5738,195.533 98.9071,197.867 105.5,197.5C 105.5,198.833 105.5,200.167 105.5,201.5C 100.141,202.952 94.8079,204.619 89.5,206.5C 87.3449,207.001 85.6782,208.001 84.5,209.5C 82.1667,209.5 79.8333,209.5 77.5,209.5C 77.5,209.167 77.5,208.833 77.5,208.5C 86.7292,206.312 95.7292,203.312 104.5,199.5C 100.284,198.78 96.2842,197.447 92.5,195.5C 90.7221,194.274 89.7221,192.607 89.5,190.5 Z"/></g>
<g><path style="opacity:1" fill="#fefffe" d="M 105.5,201.5 C 105.5,204.167 105.5,206.833 105.5,209.5C 98.5,209.5 91.5,209.5 84.5,209.5C 85.6782,208.001 87.3449,207.001 89.5,206.5C 94.8079,204.619 100.141,202.952 105.5,201.5 Z"/></g>
</svg>
