<?xml version="1.0" encoding="UTF-8"?>
<!DOCTYPE svg PUBLIC "-//W3C//DTD SVG 1.1//EN" "http://www.w3.org/Graphics/SVG/1.1/DTD/svg11.dtd">
<svg xmlns="http://www.w3.org/2000/svg" version="1.1" width="139px" height="158px" style="shape-rendering:geometricPrecision; text-rendering:geometricPrecision; image-rendering:optimizeQuality; fill-rule:evenodd; clip-rule:evenodd" xmlns:xlink="http://www.w3.org/1999/xlink">
<g><path style="opacity:1" fill="#59c068" d="M 55.5,0.5 C 57.864,7.01275 59.6974,13.6794 61,20.5C 62.7563,24.4263 65.5896,27.0929 69.5,28.5C 71.6098,31.2809 74.2765,33.2809 77.5,34.5C 77.6107,35.1174 77.944,35.6174 78.5,36C 80.4727,36.4955 82.4727,36.6621 84.5,36.5C 85.5,36.5 86.5,36.5 87.5,36.5C 88.9247,38.2535 90.5914,39.9201 92.5,41.5C 93.6921,44.6741 95.0254,47.6741 96.5,50.5C 100.14,56.8126 105.473,60.8126 112.5,62.5C 113.167,63.8333 113.833,65.1667 114.5,66.5C 114.167,66.5 113.833,66.5 113.5,66.5C 109.924,69.5452 109.59,72.8785 112.5,76.5C 112.5,77.1667 112.5,77.8333 112.5,78.5C 113.936,83.8473 114.936,89.1806 115.5,94.5C 116.779,97.4377 118.445,100.104 120.5,102.5C 123.417,106.098 126.417,109.765 129.5,113.5C 131.199,115.857 132.865,118.19 134.5,120.5C 136.03,121.211 137.363,122.211 138.5,123.5C 138.5,124.5 138.5,125.5 138.5,126.5C 135.72,128.798 132.72,130.798 129.5,132.5C 127.449,134.522 125.449,136.522 123.5,138.5C 122.036,140.63 120.036,141.963 117.5,142.5C 115.449,144.522 113.449,146.522 111.5,148.5C 108.236,151.147 104.903,153.814 101.5,156.5C 98.8682,153.983 96.2015,151.649 93.5,149.5C 92.5161,147.52 91.1827,145.853 89.5,144.5C 88.5987,143.71 87.9321,142.71 87.5,141.5C 86.5161,139.52 85.1827,137.853 83.5,136.5C 82.6618,136.158 82.3284,135.492 82.5,134.5C 81.8776,132.878 80.8776,131.545 79.5,130.5C 77.8173,129.147 76.4839,127.48 75.5,125.5C 74.5161,123.52 73.1827,121.853 71.5,120.5C 69.286,116.602 66.6193,112.935 63.5,109.5C 59.8397,104.84 55.8397,100.507 51.5,96.5C 49.9182,93.2459 47.9182,90.2459 45.5,87.5C 44.5161,85.5201 43.1827,83.8534 41.5,82.5C 40.5987,81.7095 39.9321,80.7095 39.5,79.5C 38.7368,77.6316 37.7368,75.9649 36.5,74.5C 35.8333,74.5 35.5,74.1667 35.5,73.5C 34.5161,71.5201 33.1827,69.8534 31.5,68.5C 29.9641,64.954 27.6307,61.954 24.5,59.5C 23.2676,55.3652 21.2676,51.6985 18.5,48.5C 16.8564,48.1898 15.8564,47.1898 15.5,45.5C 13.1359,42.4759 10.8025,39.4759 8.5,36.5C 5.13207,32.7975 2.4654,28.4642 0.5,23.5C 0.833333,22.8333 1.16667,22.1667 1.5,21.5C 9.91367,17.6662 18.5803,14.6662 27.5,12.5C 27.3573,10.7376 27.6906,9.07092 28.5,7.5C 36.6375,1.89962 45.6375,-0.433714 55.5,0.5 Z"/></g>
<g><path style="opacity:1" fill="#fefefe" d="M -0.5,-0.5 C 45.8333,-0.5 92.1667,-0.5 138.5,-0.5C 138.5,40.8333 138.5,82.1667 138.5,123.5C 137.363,122.211 136.03,121.211 134.5,120.5C 134.359,117.032 132.692,114.699 129.5,113.5C 126.417,109.765 123.417,106.098 120.5,102.5C 120.055,99.0579 118.388,96.3912 115.5,94.5C 115.666,90.1539 115.499,85.8206 115,81.5C 114.623,80.0577 113.79,79.0577 112.5,78.5C 112.5,77.8333 112.5,77.1667 112.5,76.5C 112.38,74.8014 112.046,73.1347 111.5,71.5C 112.547,69.9436 113.214,68.2769 113.5,66.5C 113.833,66.5 114.167,66.5 114.5,66.5C 115.679,64.5591 115.013,63.2257 112.5,62.5C 105.473,60.8126 100.14,56.8126 96.5,50.5C 96.4776,43.7614 93.4776,39.0948 87.5,36.5C 86.5,36.5 85.5,36.5 84.5,36.5C 82.3432,35.5933 80.0098,34.9267 77.5,34.5C 74.2765,33.2809 71.6098,31.2809 69.5,28.5C 67.548,26.548 65.548,24.548 63.5,22.5C 61.9398,16.8126 60.2731,11.146 58.5,5.5C 57.9348,3.45647 56.9348,1.7898 55.5,0.5C 45.6375,-0.433714 36.6375,1.89962 28.5,7.5C 27.6906,9.07092 27.3573,10.7376 27.5,12.5C 18.5803,14.6662 9.91367,17.6662 1.5,21.5C 1.16667,22.1667 0.833333,22.8333 0.5,23.5C 2.4654,28.4642 5.13207,32.7975 8.5,36.5C 9.32851,40.6628 11.6618,43.6628 15.5,45.5C 15.8564,47.1898 16.8564,48.1898 18.5,48.5C 19.7219,52.6119 21.7219,56.2786 24.5,59.5C 27.6307,61.954 29.9641,64.954 31.5,68.5C 31.7377,71.0685 33.071,72.7352 35.5,73.5C 35.5,74.1667 35.8333,74.5 36.5,74.5C 36.2591,77.0336 37.2591,78.7002 39.5,79.5C 39.9321,80.7095 40.5987,81.7095 41.5,82.5C 41.7377,85.0685 43.071,86.7352 45.5,87.5C 47.9182,90.2459 49.9182,93.2459 51.5,96.5C 54.436,101.771 58.436,106.104 63.5,109.5C 66.6193,112.935 69.286,116.602 71.5,120.5C 71.7377,123.069 73.071,124.735 75.5,125.5C 76.4839,127.48 77.8173,129.147 79.5,130.5C 79.4677,132.619 80.4677,133.952 82.5,134.5C 82.3284,135.492 82.6618,136.158 83.5,136.5C 83.7377,139.069 85.071,140.735 87.5,141.5C 87.9321,142.71 88.5987,143.71 89.5,144.5C 89.7377,147.069 91.071,148.735 93.5,149.5C 96.2015,151.649 98.8682,153.983 101.5,156.5C 104.903,153.814 108.236,151.147 111.5,148.5C 114.866,147.801 116.866,145.801 117.5,142.5C 120.036,141.963 122.036,140.63 123.5,138.5C 126.866,137.801 128.866,135.801 129.5,132.5C 132.72,130.798 135.72,128.798 138.5,126.5C 138.5,136.833 138.5,147.167 138.5,157.5C 92.1667,157.5 45.8333,157.5 -0.5,157.5C -0.5,104.833 -0.5,52.1667 -0.5,-0.5 Z"/></g>
<g><path style="opacity:1" fill="#a2bea6" d="M 55.5,0.5 C 56.9348,1.7898 57.9348,3.45647 58.5,5.5C 60.2731,11.146 61.9398,16.8126 63.5,22.5C 65.548,24.548 67.548,26.548 69.5,28.5C 65.5896,27.0929 62.7563,24.4263 61,20.5C 59.6974,13.6794 57.864,7.01275 55.5,0.5 Z"/></g>
<g><path style="opacity:1" fill="#91ba96" d="M 77.5,34.5 C 80.0098,34.9267 82.3432,35.5933 84.5,36.5C 82.4727,36.6621 80.4727,36.4955 78.5,36C 77.944,35.6174 77.6107,35.1174 77.5,34.5 Z"/></g>
<g><path style="opacity:1" fill="#aec0b0" d="M 8.5,36.5 C 10.8025,39.4759 13.1359,42.4759 15.5,45.5C 11.6618,43.6628 9.32851,40.6628 8.5,36.5 Z"/></g>
<g><path style="opacity:1" fill="#a7c2ab" d="M 87.5,36.5 C 93.4776,39.0948 96.4776,43.7614 96.5,50.5C 95.0254,47.6741 93.6921,44.6741 92.5,41.5C 90.5914,39.9201 88.9247,38.2535 87.5,36.5 Z"/></g>
<g><path style="opacity:1" fill="#b7c7b8" d="M 18.5,48.5 C 21.2676,51.6985 23.2676,55.3652 24.5,59.5C 21.7219,56.2786 19.7219,52.6119 18.5,48.5 Z"/></g>
<g><path style="opacity:1" fill="#8cb892" d="M 112.5,62.5 C 115.013,63.2257 115.679,64.5591 114.5,66.5C 113.833,65.1667 113.167,63.8333 112.5,62.5 Z"/></g>
<g><path style="opacity:1" fill="#aac1ad" d="M 113.5,66.5 C 113.214,68.2769 112.547,69.9436 111.5,71.5C 112.046,73.1347 112.38,74.8014 112.5,76.5C 109.59,72.8785 109.924,69.5452 113.5,66.5 Z"/></g>
<g><path style="opacity:1" fill="#b5c3b7" d="M 31.5,68.5 C 33.1827,69.8534 34.5161,71.5201 35.5,73.5C 33.071,72.7352 31.7377,71.0685 31.5,68.5 Z"/></g>
<g><path style="opacity:1" fill="#a3bda7" d="M 36.5,74.5 C 37.7368,75.9649 38.7368,77.6316 39.5,79.5C 37.2591,78.7002 36.2591,77.0336 36.5,74.5 Z"/></g>
<g><path style="opacity:1" fill="#b7c4b9" d="M 41.5,82.5 C 43.1827,83.8534 44.5161,85.5201 45.5,87.5C 43.071,86.7352 41.7377,85.0685 41.5,82.5 Z"/></g>
<g><path style="opacity:1" fill="#c1cac2" d="M 112.5,78.5 C 113.79,79.0577 114.623,80.0577 115,81.5C 115.499,85.8206 115.666,90.1539 115.5,94.5C 114.936,89.1806 113.936,83.8473 112.5,78.5 Z"/></g>
<g><path style="opacity:1" fill="#a6c0aa" d="M 115.5,94.5 C 118.388,96.3912 120.055,99.0579 120.5,102.5C 118.445,100.104 116.779,97.4377 115.5,94.5 Z"/></g>
<g><path style="opacity:1" fill="#b9c5bb" d="M 51.5,96.5 C 55.8397,100.507 59.8397,104.84 63.5,109.5C 58.436,106.104 54.436,101.771 51.5,96.5 Z"/></g>
<g><path style="opacity:1" fill="#abc2ae" d="M 129.5,113.5 C 132.692,114.699 134.359,117.032 134.5,120.5C 132.865,118.19 131.199,115.857 129.5,113.5 Z"/></g>
<g><path style="opacity:1" fill="#b5c3b6" d="M 71.5,120.5 C 73.1827,121.853 74.5161,123.52 75.5,125.5C 73.071,124.735 71.7377,123.069 71.5,120.5 Z"/></g>
<g><path style="opacity:1" fill="#9dbaa1" d="M 79.5,130.5 C 80.8776,131.545 81.8776,132.878 82.5,134.5C 80.4677,133.952 79.4677,132.619 79.5,130.5 Z"/></g>
<g><path style="opacity:1" fill="#afc2b1" d="M 129.5,132.5 C 128.866,135.801 126.866,137.801 123.5,138.5C 125.449,136.522 127.449,134.522 129.5,132.5 Z"/></g>
<g><path style="opacity:1" fill="#b5c3b6" d="M 83.5,136.5 C 85.1827,137.853 86.5161,139.52 87.5,141.5C 85.071,140.735 83.7377,139.069 83.5,136.5 Z"/></g>
<g><path style="opacity:1" fill="#b2c4b4" d="M 117.5,142.5 C 116.866,145.801 114.866,147.801 111.5,148.5C 113.449,146.522 115.449,144.522 117.5,142.5 Z"/></g>
<g><path style="opacity:1" fill="#b6c3b7" d="M 89.5,144.5 C 91.1827,145.853 92.5161,147.52 93.5,149.5C 91.071,148.735 89.7377,147.069 89.5,144.5 Z"/></g>
</svg>
