<?xml version="1.0" encoding="UTF-8"?>
<!DOCTYPE svg PUBLIC "-//W3C//DTD SVG 1.1//EN" "http://www.w3.org/Graphics/SVG/1.1/DTD/svg11.dtd">
<svg xmlns="http://www.w3.org/2000/svg" version="1.1" width="750px" height="528px" style="shape-rendering:geometricPrecision; text-rendering:geometricPrecision; image-rendering:optimizeQuality; fill-rule:evenodd; clip-rule:evenodd" xmlns:xlink="http://www.w3.org/1999/xlink">
<g><path style="opacity:1" fill="#fefefe" d="M -0.5,-0.5 C 249.5,-0.5 499.5,-0.5 749.5,-0.5C 749.5,175.5 749.5,351.5 749.5,527.5C 708.167,527.5 666.833,527.5 625.5,527.5C 625.971,523.644 626.638,519.811 627.5,516C 626.28,510.511 625.113,505.011 624,499.5C 623.617,498.944 623.117,498.611 622.5,498.5C 622.455,495.923 623.455,493.923 625.5,492.5C 628.204,492.33 629.871,490.997 630.5,488.5C 636.35,484.813 639.683,479.479 640.5,472.5C 640.5,471.833 640.5,471.167 640.5,470.5C 641.458,470.047 642.292,469.381 643,468.5C 643.361,465.475 643.861,462.475 644.5,459.5C 642.891,448.909 642.058,438.243 642,427.5C 641.1,424.282 639.933,421.282 638.5,418.5C 635.167,417.167 631.833,415.833 628.5,414.5C 625.863,412.54 623.197,410.54 620.5,408.5C 620.5,406.5 620.5,404.5 620.5,402.5C 625.966,394.843 633.299,390.01 642.5,388C 647.045,388.124 651.045,386.957 654.5,384.5C 656.483,384.843 657.817,384.176 658.5,382.5C 663.633,378.93 665.3,374.263 663.5,368.5C 662.533,367.194 661.199,366.527 659.5,366.5C 659.5,365.167 658.833,364.5 657.5,364.5C 656.833,364.5 656.167,364.5 655.5,364.5C 655.5,363.167 654.833,362.5 653.5,362.5C 653.167,362.5 652.833,362.5 652.5,362.5C 651.486,361.326 650.153,360.66 648.5,360.5C 646.081,359.636 644.081,358.303 642.5,356.5C 642.665,352.818 642.499,349.152 642,345.5C 641.861,342.555 640.694,340.221 638.5,338.5C 638.771,336.62 638.104,335.287 636.5,334.5C 636.5,331.167 636.5,327.833 636.5,324.5C 644.078,320.015 648.078,313.348 648.5,304.5C 648.5,301.833 648.5,299.167 648.5,296.5C 648.966,293.376 650.299,290.71 652.5,288.5C 657.392,284.712 659.559,279.712 659,273.5C 656.683,271.684 654.516,269.684 652.5,267.5C 651.334,265.833 651.334,264.166 652.5,262.5C 653.797,260.202 655.463,258.202 657.5,256.5C 660.464,253.979 661.797,250.646 661.5,246.5C 661.333,244.167 661.167,241.833 661,239.5C 659.151,235.802 657.318,232.136 655.5,228.5C 655.623,227.075 655.957,225.742 656.5,224.5C 657.167,222.5 658.5,221.167 660.5,220.5C 663.326,219.113 663.993,217.113 662.5,214.5C 662.5,213.833 662.5,213.167 662.5,212.5C 660.151,208.306 656.485,206.306 651.5,206.5C 650.122,205.455 649.122,204.122 648.5,202.5C 648.5,200.5 648.5,198.5 648.5,196.5C 651.779,191.888 655.779,187.888 660.5,184.5C 661.807,182.54 663.14,180.54 664.5,178.5C 665.833,175.833 667.833,173.833 670.5,172.5C 674.481,171.852 676.815,169.519 677.5,165.5C 675.12,160.088 674.12,154.421 674.5,148.5C 678.375,145.121 682.875,143.454 688,143.5C 693.338,144.764 698.838,145.597 704.5,146C 706.377,147.717 708.377,149.217 710.5,150.5C 711.514,151.674 712.847,152.34 714.5,152.5C 715.167,152.5 715.833,152.5 716.5,152.5C 717.5,153.167 718.5,153.833 719.5,154.5C 722.287,155.477 725.287,155.81 728.5,155.5C 728.489,153.453 728.156,151.453 727.5,149.5C 729.499,146.989 731.499,144.656 733.5,142.5C 734.5,142.5 735.5,142.5 736.5,142.5C 737.404,140.362 738.071,138.029 738.5,135.5C 738.547,133.962 737.88,132.962 736.5,132.5C 734.951,121.906 734.284,111.24 734.5,100.5C 736.104,99.713 736.771,98.3797 736.5,96.5C 738.5,95.1667 740.5,93.8333 742.5,92.5C 746.629,87.7875 748.296,82.4542 747.5,76.5C 746.328,73.3099 745.328,69.9766 744.5,66.5C 743.167,58.5 743.167,50.5 744.5,42.5C 745.167,40.5 745.833,38.5 746.5,36.5C 747.117,36.3893 747.617,36.056 748,35.5C 748.497,33.1902 748.663,30.8568 748.5,28.5C 748.5,26.5 748.5,24.5 748.5,22.5C 748.5,15.1667 748.5,7.83333 748.5,0.5C 746.517,0.156841 745.183,0.823507 744.5,2.5C 742.446,2.36534 740.779,3.03201 739.5,4.5C 737.847,4.6596 736.514,5.32627 735.5,6.5C 733.337,8.0828 731.004,9.41613 728.5,10.5C 727.29,10.9321 726.29,11.5987 725.5,12.5C 723.337,14.0828 721.004,15.4161 718.5,16.5C 717.29,16.9321 716.29,17.5987 715.5,18.5C 713.337,20.0828 711.004,21.4161 708.5,22.5C 707.29,22.9321 706.29,23.5987 705.5,24.5C 703.337,26.0828 701.004,27.4161 698.5,28.5C 697.005,28.9887 695.671,29.6554 694.5,30.5C 692.227,30.9568 690.894,32.2901 690.5,34.5C 689.833,34.5 689.167,34.5 688.5,34.5C 687.005,34.9887 685.671,35.6554 684.5,36.5C 682.227,36.9568 680.894,38.2901 680.5,40.5C 679.833,40.5 679.167,40.5 678.5,40.5C 677.005,40.9887 675.671,41.6554 674.5,42.5C 672.227,42.9568 670.894,44.2901 670.5,46.5C 669.833,46.5 669.167,46.5 668.5,46.5C 667.005,46.9887 665.671,47.6554 664.5,48.5C 662.227,48.9568 660.894,50.2901 660.5,52.5C 658.718,53.7196 656.718,54.3862 654.5,54.5C 652.227,54.9568 650.894,56.2901 650.5,58.5C 649.833,58.5 649.167,58.5 648.5,58.5C 647.005,58.9887 645.671,59.6554 644.5,60.5C 642.227,60.9568 640.894,62.2901 640.5,64.5C 639.833,64.5 639.167,64.5 638.5,64.5C 635.983,65.8927 634.316,67.8927 633.5,70.5C 628.606,71.8108 623.606,72.4775 618.5,72.5C 616.094,70.5715 613.428,70.2382 610.5,71.5C 609.614,72.325 609.281,73.325 609.5,74.5C 606.538,78.7091 604.538,83.3757 603.5,88.5C 601.896,89.287 601.229,90.6203 601.5,92.5C 599.601,96.4039 596.935,99.7372 593.5,102.5C 591.337,104.083 589.004,105.416 586.5,106.5C 585.29,106.932 584.29,107.599 583.5,108.5C 583.167,108.5 582.833,108.5 582.5,108.5C 580.52,109.484 578.853,110.817 577.5,112.5C 574.167,114.5 570.833,116.5 567.5,118.5C 564.802,118.845 562.802,120.178 561.5,122.5C 560.167,122.5 559.5,123.167 559.5,124.5C 558.167,124.5 557.5,125.167 557.5,126.5C 552.906,129.708 547.906,132.208 542.5,134C 536.13,134.641 529.797,135.475 523.5,136.5C 521.06,137.238 519.06,138.571 517.5,140.5C 516.167,140.5 515.5,141.167 515.5,142.5C 514.167,142.5 513.5,143.167 513.5,144.5C 512.167,144.5 511.5,145.167 511.5,146.5C 510.167,146.5 509.5,147.167 509.5,148.5C 508.778,149.551 507.778,150.218 506.5,150.5C 504.52,151.484 502.853,152.817 501.5,154.5C 501.167,154.5 500.833,154.5 500.5,154.5C 498.641,155.848 496.641,157.015 494.5,158C 493.748,158.671 493.414,159.504 493.5,160.5C 492.5,160.5 491.5,160.5 490.5,160.5C 486.6,161.43 482.6,161.763 478.5,161.5C 478.586,165.319 477.919,168.985 476.5,172.5C 475.5,172.5 474.5,172.5 473.5,172.5C 462.551,173.455 451.551,173.789 440.5,173.5C 436.833,173.5 433.167,173.5 429.5,173.5C 429.88,171.302 429.213,169.635 427.5,168.5C 426.449,163.323 424.449,158.657 421.5,154.5C 421.771,152.62 421.104,151.287 419.5,150.5C 419.771,148.62 419.104,147.287 417.5,146.5C 417.771,144.62 417.104,143.287 415.5,142.5C 414.971,140.216 413.971,138.216 412.5,136.5C 411.621,133.299 409.955,130.632 407.5,128.5C 407.771,126.62 407.104,125.287 405.5,124.5C 404.475,121.637 403.142,118.971 401.5,116.5C 401.771,114.62 401.104,113.287 399.5,112.5C 398.339,109.51 396.672,106.843 394.5,104.5C 393.167,104.5 391.833,104.5 390.5,104.5C 389.005,104.989 387.671,105.655 386.5,106.5C 385.005,106.989 383.671,107.655 382.5,108.5C 381.005,108.989 379.671,109.655 378.5,110.5C 375.775,110.937 373.775,112.27 372.5,114.5C 366.054,116.89 359.72,119.556 353.5,122.5C 351.914,123.148 350.247,123.648 348.5,124C 347.748,124.671 347.414,125.504 347.5,126.5C 346.5,126.5 345.5,126.5 344.5,126.5C 343.005,126.989 341.671,127.655 340.5,128.5C 339.005,128.989 337.671,129.655 336.5,130.5C 333.775,130.937 331.775,132.27 330.5,134.5C 322.5,137.833 314.5,141.167 306.5,144.5C 305.005,144.989 303.671,145.655 302.5,146.5C 299.873,146.79 298.206,148.124 297.5,150.5C 292.162,151.67 287.162,153.67 282.5,156.5C 280.901,157.562 279.234,157.562 277.5,156.5C 277.167,156.5 276.833,156.5 276.5,156.5C 276.5,155.167 275.833,154.5 274.5,154.5C 273.222,154.218 272.222,153.551 271.5,152.5C 270.71,151.599 269.71,150.932 268.5,150.5C 267.833,150.5 267.167,150.5 266.5,150.5C 266.5,149.167 265.833,148.5 264.5,148.5C 263.222,148.218 262.222,147.551 261.5,146.5C 259.958,140.799 256.291,138.632 250.5,140C 249.748,140.671 249.414,141.504 249.5,142.5C 248.5,142.5 247.5,142.5 246.5,142.5C 245.005,142.989 243.671,143.655 242.5,144.5C 239.516,145.325 236.849,146.659 234.5,148.5C 232.227,148.957 230.894,150.29 230.5,152.5C 229.833,152.5 229.167,152.5 228.5,152.5C 227.167,152.5 226.5,153.167 226.5,154.5C 225.833,154.5 225.167,154.5 224.5,154.5C 220.913,155.438 218.246,157.438 216.5,160.5C 214.282,160.614 212.282,161.28 210.5,162.5C 209.005,162.989 207.671,163.655 206.5,164.5C 203.683,165.095 201.35,166.428 199.5,168.5C 196.421,171.465 192.754,173.465 188.5,174.5C 187.005,174.989 185.671,175.655 184.5,176.5C 182.227,176.957 180.894,178.29 180.5,180.5C 178.718,181.72 176.718,182.386 174.5,182.5C 173.29,182.932 172.29,183.599 171.5,184.5C 169.337,186.083 167.004,187.416 164.5,188.5C 163.005,188.989 161.671,189.655 160.5,190.5C 158.227,190.957 156.894,192.29 156.5,194.5C 155.833,194.5 155.167,194.5 154.5,194.5C 153.005,194.989 151.671,195.655 150.5,196.5C 149.29,196.932 148.29,197.599 147.5,198.5C 145.337,200.083 143.004,201.416 140.5,202.5C 139.005,202.989 137.671,203.655 136.5,204.5C 134.227,204.957 132.894,206.29 132.5,208.5C 130.282,208.614 128.282,209.28 126.5,210.5C 125.29,210.932 124.29,211.599 123.5,212.5C 121.337,214.083 119.004,215.416 116.5,216.5C 115.005,216.989 113.671,217.655 112.5,218.5C 110.227,218.957 108.894,220.29 108.5,222.5C 106.282,222.614 104.282,223.28 102.5,224.5C 101.29,224.932 100.29,225.599 99.5,226.5C 97.3374,228.083 95.0041,229.416 92.5,230.5C 91.0048,230.989 89.6715,231.655 88.5,232.5C 86.2273,232.957 84.894,234.29 84.5,236.5C 82.2821,236.614 80.2821,237.28 78.5,238.5C 77.2905,238.932 76.2905,239.599 75.5,240.5C 74.5326,241.806 73.1993,242.473 71.5,242.5C 68.9391,243.545 66.6058,244.878 64.5,246.5C 62.2273,246.957 60.894,248.29 60.5,250.5C 58.2821,250.614 56.2821,251.28 54.5,252.5C 53.0048,252.989 51.6715,253.655 50.5,254.5C 48.2273,254.957 46.894,256.29 46.5,258.5C 45.8333,258.5 45.1667,258.5 44.5,258.5C 43.0048,258.989 41.6715,259.655 40.5,260.5C 39.2905,260.932 38.2905,261.599 37.5,262.5C 35.3374,264.083 33.0041,265.416 30.5,266.5C 29.0048,266.989 27.6715,267.655 26.5,268.5C 24.2273,268.957 22.894,270.29 22.5,272.5C 19.0224,273.486 15.6891,274.82 12.5,276.5C 10.2273,276.957 8.89395,278.29 8.5,280.5C 7.83333,280.5 7.16667,280.5 6.5,280.5C 5.00478,280.989 3.67145,281.655 2.5,282.5C 1.60895,283.11 0.608953,283.443 -0.5,283.5C -0.5,188.833 -0.5,94.1667 -0.5,-0.5 Z"/></g>
<g><path style="opacity:1" fill="#91aa61" d="M 744.5,2.5 C 745.833,9.16667 747.167,15.8333 748.5,22.5C 748.5,24.5 748.5,26.5 748.5,28.5C 747.629,31.003 746.963,33.6697 746.5,36.5C 745.833,38.5 745.167,40.5 744.5,42.5C 743.176,46.107 742.509,50.107 742.5,54.5C 742.509,58.893 743.176,62.893 744.5,66.5C 745.328,69.9766 746.328,73.3099 747.5,76.5C 745.833,81.8333 744.167,87.1667 742.5,92.5C 740.5,93.8333 738.5,95.1667 736.5,96.5C 735.326,97.5137 734.66,98.847 734.5,100.5C 734.284,111.24 734.951,121.906 736.5,132.5C 736.982,135.721 736.982,139.054 736.5,142.5C 735.5,142.5 734.5,142.5 733.5,142.5C 727.569,144.084 725.569,147.75 727.5,153.5C 725.257,154.474 722.924,154.808 720.5,154.5C 719.817,152.824 718.483,152.157 716.5,152.5C 715.833,152.5 715.167,152.5 714.5,152.5C 713.817,150.824 712.483,150.157 710.5,150.5C 709.594,148.583 708.261,146.917 706.5,145.5C 703.968,144.881 701.635,143.881 699.5,142.5C 698.833,143.167 698.167,143.833 697.5,144.5C 694.7,143.268 691.7,142.601 688.5,142.5C 682.332,141.403 677.665,143.403 674.5,148.5C 672.979,154.27 673.646,159.937 676.5,165.5C 674.782,168.208 672.782,170.541 670.5,172.5C 667.833,173.833 665.833,175.833 664.5,178.5C 661.687,179.446 660.354,181.446 660.5,184.5C 655.779,187.888 651.779,191.888 648.5,196.5C 646.084,198.705 646.084,200.705 648.5,202.5C 649.122,204.122 650.122,205.455 651.5,206.5C 655.394,207.804 659.061,209.804 662.5,212.5C 662.5,213.167 662.5,213.833 662.5,214.5C 662.386,216.718 661.72,218.718 660.5,220.5C 658.5,221.167 657.167,222.5 656.5,224.5C 655.252,225.334 654.585,226.667 654.5,228.5C 656.037,232.579 657.871,236.579 660,240.5C 660.167,242.5 660.333,244.5 660.5,246.5C 660.343,250.16 659.343,253.493 657.5,256.5C 655.463,258.202 653.797,260.202 652.5,262.5C 651.307,262.97 650.64,263.97 650.5,265.5C 652.379,269.388 655.045,272.721 658.5,275.5C 657.242,280.25 655.242,284.583 652.5,288.5C 650.299,290.71 648.966,293.376 648.5,296.5C 646.777,298.78 646.111,301.447 646.5,304.5C 646.693,308.013 646.026,311.346 644.5,314.5C 641.786,317.871 639.12,321.205 636.5,324.5C 635.252,325.334 634.585,326.667 634.5,328.5C 634.361,330.883 635.028,332.883 636.5,334.5C 636.66,336.153 637.326,337.486 638.5,338.5C 640.614,344.437 641.948,350.437 642.5,356.5C 644.081,358.303 646.081,359.636 648.5,360.5C 649.183,362.176 650.517,362.843 652.5,362.5C 652.833,362.5 653.167,362.5 653.5,362.5C 654.833,362.5 655.5,363.167 655.5,364.5C 656.167,364.5 656.833,364.5 657.5,364.5C 658.833,364.5 659.5,365.167 659.5,366.5C 661.199,366.527 662.533,367.194 663.5,368.5C 663.662,370.527 663.495,372.527 663,374.5C 660.716,376.736 659.216,379.402 658.5,382.5C 657.817,384.176 656.483,384.843 654.5,384.5C 644.589,385.692 635.256,388.692 626.5,393.5C 624.08,395.578 622.08,397.912 620.5,400.5C 617.833,403.167 617.833,405.833 620.5,408.5C 622.025,412.025 624.691,414.025 628.5,414.5C 631.833,415.833 635.167,417.167 638.5,418.5C 638.814,421.947 639.648,425.28 641,428.5C 641.031,438.931 641.864,449.264 643.5,459.5C 642.817,463.275 641.817,466.941 640.5,470.5C 640.5,471.167 640.5,471.833 640.5,472.5C 638.334,475.498 636.667,478.832 635.5,482.5C 633.41,484.247 631.743,486.247 630.5,488.5C 628.539,489.46 626.873,490.793 625.5,492.5C 623.455,493.923 622.455,495.923 622.5,498.5C 623.726,504.184 625.059,509.85 626.5,515.5C 625.51,519.105 624.844,522.772 624.5,526.5C 617.5,526.5 610.5,526.5 603.5,526.5C 603.389,525.883 603.056,525.383 602.5,525C 599.183,524.502 595.85,524.335 592.5,524.5C 588.833,524.5 585.167,524.5 581.5,524.5C 581.389,523.883 581.056,523.383 580.5,523C 577.183,522.502 573.85,522.335 570.5,522.5C 566.5,522.5 562.5,522.5 558.5,522.5C 554.971,520.577 550.971,519.911 546.5,520.5C 542.833,520.5 539.167,520.5 535.5,520.5C 535.389,519.883 535.056,519.383 534.5,519C 531.183,518.502 527.85,518.335 524.5,518.5C 520.5,518.5 516.5,518.5 512.5,518.5C 509.663,516.598 506.329,515.931 502.5,516.5C 498.167,516.5 493.833,516.5 489.5,516.5C 489.389,515.883 489.056,515.383 488.5,515C 485.183,514.502 481.85,514.335 478.5,514.5C 474.833,514.5 471.167,514.5 467.5,514.5C 467.389,513.883 467.056,513.383 466.5,513C 463.183,512.502 459.85,512.335 456.5,512.5C 450.833,512.5 445.167,512.5 439.5,512.5C 439.389,511.883 439.056,511.383 438.5,511C 433.177,510.501 427.844,510.334 422.5,510.5C 416.833,510.5 411.167,510.5 405.5,510.5C 405.389,509.883 405.056,509.383 404.5,509C 399.177,508.501 393.844,508.334 388.5,508.5C 382.833,508.5 377.167,508.5 371.5,508.5C 376.283,489.164 381.283,469.83 386.5,450.5C 384.833,450.5 383.167,450.5 381.5,450.5C 379.579,448.731 377.246,447.397 374.5,446.5C 373.5,446.5 372.5,446.5 371.5,446.5C 370.71,445.599 369.71,444.932 368.5,444.5C 367.5,444.5 366.5,444.5 365.5,444.5C 364.71,443.599 363.71,442.932 362.5,442.5C 361.5,442.5 360.5,442.5 359.5,442.5C 359.389,441.883 359.056,441.383 358.5,441C 349.173,440.5 339.839,440.334 330.5,440.5C 325.833,440.5 321.167,440.5 316.5,440.5C 299.154,440.167 281.821,440.5 264.5,441.5C 263.217,444.635 263.217,447.635 264.5,450.5C 264.5,453.167 264.5,455.833 264.5,458.5C 265.01,461.983 265.677,465.316 266.5,468.5C 266.701,474.509 267.034,480.509 267.5,486.5C 258.527,484.98 249.527,483.647 240.5,482.5C 240.38,481.414 239.713,480.747 238.5,480.5C 237.287,480.747 236.62,481.414 236.5,482.5C 231.833,482.5 227.167,482.5 222.5,482.5C 217.381,481.897 212.715,482.564 208.5,484.5C 203.833,484.5 199.167,484.5 194.5,484.5C 190.486,484.334 186.486,484.501 182.5,485C 181.944,485.383 181.611,485.883 181.5,486.5C 176.5,486.5 171.5,486.5 166.5,486.5C 162.486,486.334 158.486,486.501 154.5,487C 153.944,487.383 153.611,487.883 153.5,488.5C 148.5,488.5 143.5,488.5 138.5,488.5C 134.486,488.334 130.486,488.501 126.5,489C 125.944,489.383 125.611,489.883 125.5,490.5C 120.5,490.5 115.5,490.5 110.5,490.5C 103.825,490.334 97.1583,490.5 90.5,491C 89.944,491.383 89.6107,491.883 89.5,492.5C 67.5,492.5 45.5,492.5 23.5,492.5C 23.821,491.183 24.1543,489.849 24.5,488.5C 23.0667,486.664 22.5667,484.664 23,482.5C 23.8333,480.5 24.6667,478.5 25.5,476.5C 27.59,474.753 29.2567,472.753 30.5,470.5C 32.2821,469.28 34.2821,468.614 36.5,468.5C 40.0433,466.307 40.3766,463.64 37.5,460.5C 38.1667,458.5 38.8333,456.5 39.5,454.5C 41.5,454.5 43.5,454.5 45.5,454.5C 47.984,452.2 49.984,449.533 51.5,446.5C 52.3382,446.158 52.6716,445.492 52.5,444.5C 55.6517,442.883 57.3184,440.216 57.5,436.5C 58.8776,435.455 59.8776,434.122 60.5,432.5C 63.893,430.773 66.2264,428.106 67.5,424.5C 68.1667,423.833 68.8333,423.167 69.5,422.5C 71.5449,421.077 72.5449,419.077 72.5,416.5C 74.4456,415.965 75.4456,414.632 75.5,412.5C 77.5207,410.968 79.0207,408.968 80,406.5C 81.6414,394.99 80.6414,383.656 77,372.5C 76.7756,364.457 76.1089,356.457 75,348.5C 74.5831,347.244 73.7498,346.577 72.5,346.5C 72.6716,345.508 72.3382,344.842 71.5,344.5C 70.9029,341.573 69.2362,339.573 66.5,338.5C 66.5,337.167 65.8333,336.5 64.5,336.5C 64.1788,334.952 63.1788,334.285 61.5,334.5C 61.1667,334.5 60.8333,334.5 60.5,334.5C 59.7352,332.071 58.0685,330.738 55.5,330.5C 54.7777,329.449 53.7777,328.782 52.5,328.5C 52.5,327.167 51.8333,326.5 50.5,326.5C 49.8333,326.5 49.1667,326.5 48.5,326.5C 47.8166,324.824 46.4832,324.157 44.5,324.5C 44.1667,324.5 43.8333,324.5 43.5,324.5C 42.4479,322.744 40.7812,322.077 38.5,322.5C 36.7077,320.431 34.3744,319.097 31.5,318.5C 31.1667,318.5 30.8333,318.5 30.5,318.5C 29.0855,315.418 26.7522,313.418 23.5,312.5C 22.1667,311.167 20.8333,309.833 19.5,308.5C 17.5534,304.22 14.5534,300.887 10.5,298.5C 10.1667,298.5 9.83333,298.5 9.5,298.5C 7.50181,296.173 5.16847,294.173 2.5,292.5C 2.61258,289.951 1.94592,287.618 0.5,285.5C 1.61191,284.735 2.27858,283.735 2.5,282.5C 4.48324,282.843 5.81658,282.176 6.5,280.5C 7.16667,280.5 7.83333,280.5 8.5,280.5C 10.5,279.833 11.8333,278.5 12.5,276.5C 15.6891,274.82 19.0224,273.486 22.5,272.5C 24.5,271.833 25.8333,270.5 26.5,268.5C 28.4832,268.843 29.8166,268.176 30.5,266.5C 33.0041,265.416 35.3374,264.083 37.5,262.5C 39.1788,262.715 40.1788,262.048 40.5,260.5C 42.4832,260.843 43.8166,260.176 44.5,258.5C 45.1667,258.5 45.8333,258.5 46.5,258.5C 48.5,257.833 49.8333,256.5 50.5,254.5C 52.4832,254.843 53.8166,254.176 54.5,252.5C 56.2821,251.28 58.2821,250.614 60.5,250.5C 62.5,249.833 63.8333,248.5 64.5,246.5C 67.6393,246.401 69.9726,245.068 71.5,242.5C 73.1993,242.473 74.5326,241.806 75.5,240.5C 77.1788,240.715 78.1788,240.048 78.5,238.5C 80.2821,237.28 82.2821,236.614 84.5,236.5C 86.5,235.833 87.8333,234.5 88.5,232.5C 90.4832,232.843 91.8166,232.176 92.5,230.5C 95.0041,229.416 97.3374,228.083 99.5,226.5C 101.179,226.715 102.179,226.048 102.5,224.5C 104.282,223.28 106.282,222.614 108.5,222.5C 110.5,221.833 111.833,220.5 112.5,218.5C 114.483,218.843 115.817,218.176 116.5,216.5C 119.004,215.416 121.337,214.083 123.5,212.5C 125.179,212.715 126.179,212.048 126.5,210.5C 128.282,209.28 130.282,208.614 132.5,208.5C 134.5,207.833 135.833,206.5 136.5,204.5C 138.483,204.843 139.817,204.176 140.5,202.5C 143.004,201.416 145.337,200.083 147.5,198.5C 149.179,198.715 150.179,198.048 150.5,196.5C 152.483,196.843 153.817,196.176 154.5,194.5C 155.167,194.5 155.833,194.5 156.5,194.5C 158.5,193.833 159.833,192.5 160.5,190.5C 162.483,190.843 163.817,190.176 164.5,188.5C 167.004,187.416 169.337,186.083 171.5,184.5C 173.179,184.715 174.179,184.048 174.5,182.5C 176.718,182.386 178.718,181.72 180.5,180.5C 182.5,179.833 183.833,178.5 184.5,176.5C 186.483,176.843 187.817,176.176 188.5,174.5C 192.754,173.465 196.421,171.465 199.5,168.5C 202.639,168.401 204.973,167.068 206.5,164.5C 208.483,164.843 209.817,164.176 210.5,162.5C 212.282,161.28 214.282,160.614 216.5,160.5C 219.666,159.06 222.333,157.06 224.5,154.5C 225.167,154.5 225.833,154.5 226.5,154.5C 227.833,154.5 228.5,153.833 228.5,152.5C 229.167,152.5 229.833,152.5 230.5,152.5C 232.5,151.833 233.833,150.5 234.5,148.5C 237.806,148.181 240.473,146.847 242.5,144.5C 244.483,144.843 245.817,144.176 246.5,142.5C 247.5,142.5 248.5,142.5 249.5,142.5C 250.667,141.185 252.167,140.519 254,140.5C 257.011,142.026 259.511,144.026 261.5,146.5C 262.222,147.551 263.222,148.218 264.5,148.5C 265.833,148.5 266.5,149.167 266.5,150.5C 267.167,150.5 267.833,150.5 268.5,150.5C 268.821,152.048 269.821,152.715 271.5,152.5C 272.222,153.551 273.222,154.218 274.5,154.5C 275.833,154.5 276.5,155.167 276.5,156.5C 276.833,156.5 277.167,156.5 277.5,156.5C 277.791,157.649 278.624,158.316 280,158.5C 281.376,158.316 282.209,157.649 282.5,156.5C 287.162,153.67 292.162,151.67 297.5,150.5C 299.677,149.721 301.344,148.387 302.5,146.5C 304.483,146.843 305.817,146.176 306.5,144.5C 314.5,141.167 322.5,137.833 330.5,134.5C 333.172,134.052 335.172,132.719 336.5,130.5C 338.483,130.843 339.817,130.176 340.5,128.5C 342.483,128.843 343.817,128.176 344.5,126.5C 345.5,126.5 346.5,126.5 347.5,126.5C 349.815,125.456 351.815,124.123 353.5,122.5C 359.72,119.556 366.054,116.89 372.5,114.5C 375.172,114.052 377.172,112.719 378.5,110.5C 380.483,110.843 381.817,110.176 382.5,108.5C 384.483,108.843 385.817,108.176 386.5,106.5C 388.483,106.843 389.817,106.176 390.5,104.5C 391.833,104.5 393.167,104.5 394.5,104.5C 394.934,107.934 396.6,110.601 399.5,112.5C 399.66,114.153 400.326,115.486 401.5,116.5C 401.54,119.881 402.873,122.548 405.5,124.5C 405.66,126.153 406.326,127.486 407.5,128.5C 408.195,131.915 409.862,134.582 412.5,136.5C 412.455,139.077 413.455,141.077 415.5,142.5C 415.66,144.153 416.326,145.486 417.5,146.5C 417.66,148.153 418.326,149.486 419.5,150.5C 419.66,152.153 420.326,153.486 421.5,154.5C 422.432,159.689 424.432,164.356 427.5,168.5C 428.15,170.435 428.483,172.435 428.5,174.5C 432.5,174.5 436.5,174.5 440.5,174.5C 451.172,174.667 461.839,174.5 472.5,174C 473.056,173.617 473.389,173.117 473.5,172.5C 474.5,172.5 475.5,172.5 476.5,172.5C 477.586,172.38 478.253,171.713 478.5,170.5C 479.269,167.885 479.603,165.219 479.5,162.5C 483.649,163.08 487.316,162.414 490.5,160.5C 491.5,160.5 492.5,160.5 493.5,160.5C 496.593,159.332 498.926,157.332 500.5,154.5C 500.833,154.5 501.167,154.5 501.5,154.5C 504.069,154.262 505.735,152.929 506.5,150.5C 507.778,150.218 508.778,149.551 509.5,148.5C 510.833,148.5 511.5,147.833 511.5,146.5C 512.833,146.5 513.5,145.833 513.5,144.5C 514.833,144.5 515.5,143.833 515.5,142.5C 516.833,142.5 517.5,141.833 517.5,140.5C 520.172,140.052 522.172,138.719 523.5,136.5C 529.797,135.475 536.13,134.641 542.5,134C 547.906,132.208 552.906,129.708 557.5,126.5C 558.833,126.5 559.5,125.833 559.5,124.5C 560.833,124.5 561.5,123.833 561.5,122.5C 564.036,121.963 566.036,120.63 567.5,118.5C 570.833,116.5 574.167,114.5 577.5,112.5C 580.069,112.262 581.735,110.929 582.5,108.5C 582.833,108.5 583.167,108.5 583.5,108.5C 585.179,108.715 586.179,108.048 586.5,106.5C 589.004,105.416 591.337,104.083 593.5,102.5C 598.35,100.977 601.016,97.6439 601.5,92.5C 602.674,91.4863 603.34,90.153 603.5,88.5C 606.568,84.3563 608.568,79.6897 609.5,74.5C 612.145,72.7581 615.145,72.0914 618.5,72.5C 623.606,72.4775 628.606,71.8108 633.5,70.5C 636.061,69.2386 637.728,67.2386 638.5,64.5C 639.167,64.5 639.833,64.5 640.5,64.5C 642.5,63.8333 643.833,62.5 644.5,60.5C 646.483,60.8432 647.817,60.1765 648.5,58.5C 649.167,58.5 649.833,58.5 650.5,58.5C 652.5,57.8333 653.833,56.5 654.5,54.5C 656.718,54.3862 658.718,53.7196 660.5,52.5C 662.5,51.8333 663.833,50.5 664.5,48.5C 666.483,48.8432 667.817,48.1765 668.5,46.5C 669.167,46.5 669.833,46.5 670.5,46.5C 672.5,45.8333 673.833,44.5 674.5,42.5C 676.483,42.8432 677.817,42.1765 678.5,40.5C 679.167,40.5 679.833,40.5 680.5,40.5C 682.341,39.5977 683.674,38.2644 684.5,36.5C 686.483,36.8432 687.817,36.1765 688.5,34.5C 689.167,34.5 689.833,34.5 690.5,34.5C 692.5,33.8333 693.833,32.5 694.5,30.5C 696.483,30.8432 697.817,30.1765 698.5,28.5C 701.004,27.4161 703.337,26.0828 705.5,24.5C 707.179,24.7148 708.179,24.0481 708.5,22.5C 711.004,21.4161 713.337,20.0828 715.5,18.5C 717.179,18.7148 718.179,18.0481 718.5,16.5C 721.004,15.4161 723.337,14.0828 725.5,12.5C 727.179,12.7148 728.179,12.0481 728.5,10.5C 731.004,9.41613 733.337,8.0828 735.5,6.5C 737.483,6.84316 738.817,6.17649 739.5,4.5C 740.779,3.03201 742.446,2.36534 744.5,2.5 Z"/></g>
<g><path style="opacity:1" fill="#adb5a0" d="M 739.5,4.5 C 738.817,6.17649 737.483,6.84316 735.5,6.5C 736.514,5.32627 737.847,4.6596 739.5,4.5 Z"/></g>
<g><path style="opacity:1" fill="#9ba783" d="M 748.5,22.5 C 747.167,15.8333 745.833,9.16667 744.5,2.5C 745.183,0.823507 746.517,0.156841 748.5,0.5C 748.5,7.83333 748.5,15.1667 748.5,22.5 Z"/></g>
<g><path style="opacity:1" fill="#b6baad" d="M 728.5,10.5 C 728.179,12.0481 727.179,12.7148 725.5,12.5C 726.29,11.5987 727.29,10.9321 728.5,10.5 Z"/></g>
<g><path style="opacity:1" fill="#b6baad" d="M 718.5,16.5 C 718.179,18.0481 717.179,18.7148 715.5,18.5C 716.29,17.5987 717.29,16.9321 718.5,16.5 Z"/></g>
<g><path style="opacity:1" fill="#b7bcb1" d="M 708.5,22.5 C 708.179,24.0481 707.179,24.7148 705.5,24.5C 706.29,23.5987 707.29,22.9321 708.5,22.5 Z"/></g>
<g><path style="opacity:1" fill="#bcc0b4" d="M 698.5,28.5 C 697.817,30.1765 696.483,30.8432 694.5,30.5C 695.671,29.6554 697.005,28.9887 698.5,28.5 Z"/></g>
<g><path style="opacity:1" fill="#a9af9c" d="M 748.5,28.5 C 748.663,30.8568 748.497,33.1902 748,35.5C 747.617,36.056 747.117,36.3893 746.5,36.5C 746.963,33.6697 747.629,31.003 748.5,28.5 Z"/></g>
<g><path style="opacity:1" fill="#a6b095" d="M 694.5,30.5 C 693.833,32.5 692.5,33.8333 690.5,34.5C 690.894,32.2901 692.227,30.9568 694.5,30.5 Z"/></g>
<g><path style="opacity:1" fill="#bcc0b4" d="M 688.5,34.5 C 687.817,36.1765 686.483,36.8432 684.5,36.5C 685.671,35.6554 687.005,34.9887 688.5,34.5 Z"/></g>
<g><path style="opacity:1" fill="#b1b7a6" d="M 684.5,36.5 C 683.674,38.2644 682.341,39.5977 680.5,40.5C 680.894,38.2901 682.227,36.9568 684.5,36.5 Z"/></g>
<g><path style="opacity:1" fill="#bcc0b4" d="M 678.5,40.5 C 677.817,42.1765 676.483,42.8432 674.5,42.5C 675.671,41.6554 677.005,40.9887 678.5,40.5 Z"/></g>
<g><path style="opacity:1" fill="#a6af94" d="M 674.5,42.5 C 673.833,44.5 672.5,45.8333 670.5,46.5C 670.894,44.2901 672.227,42.9568 674.5,42.5 Z"/></g>
<g><path style="opacity:1" fill="#bcc0b4" d="M 668.5,46.5 C 667.817,48.1765 666.483,48.8432 664.5,48.5C 665.671,47.6554 667.005,46.9887 668.5,46.5 Z"/></g>
<g><path style="opacity:1" fill="#a4ae92" d="M 664.5,48.5 C 663.833,50.5 662.5,51.8333 660.5,52.5C 660.894,50.2901 662.227,48.9568 664.5,48.5 Z"/></g>
<g><path style="opacity:1" fill="#d1d2d0" d="M 744.5,42.5 C 743.167,50.5 743.167,58.5 744.5,66.5C 743.176,62.893 742.509,58.893 742.5,54.5C 742.509,50.107 743.176,46.107 744.5,42.5 Z"/></g>
<g><path style="opacity:1" fill="#a6b095" d="M 654.5,54.5 C 653.833,56.5 652.5,57.8333 650.5,58.5C 650.894,56.2901 652.227,54.9568 654.5,54.5 Z"/></g>
<g><path style="opacity:1" fill="#bcc0b4" d="M 648.5,58.5 C 647.817,60.1765 646.483,60.8432 644.5,60.5C 645.671,59.6554 647.005,58.9887 648.5,58.5 Z"/></g>
<g><path style="opacity:1" fill="#a4ae92" d="M 644.5,60.5 C 643.833,62.5 642.5,63.8333 640.5,64.5C 640.894,62.2901 642.227,60.9568 644.5,60.5 Z"/></g>
<g><path style="opacity:1" fill="#a6b095" d="M 638.5,64.5 C 637.728,67.2386 636.061,69.2386 633.5,70.5C 634.316,67.8927 635.983,65.8927 638.5,64.5 Z"/></g>
<g><path style="opacity:1" fill="#a1ac8d" d="M 618.5,72.5 C 615.145,72.0914 612.145,72.7581 609.5,74.5C 609.281,73.325 609.614,72.325 610.5,71.5C 613.428,70.2382 616.094,70.5715 618.5,72.5 Z"/></g>
<g><path style="opacity:1" fill="#a6ad96" d="M 609.5,74.5 C 608.568,79.6897 606.568,84.3563 603.5,88.5C 604.538,83.3757 606.538,78.7091 609.5,74.5 Z"/></g>
<g><path style="opacity:1" fill="#bfc3b8" d="M 747.5,76.5 C 748.296,82.4542 746.629,87.7875 742.5,92.5C 744.167,87.1667 745.833,81.8333 747.5,76.5 Z"/></g>
<g><path style="opacity:1" fill="#aeb1a6" d="M 603.5,88.5 C 603.34,90.153 602.674,91.4863 601.5,92.5C 601.229,90.6203 601.896,89.287 603.5,88.5 Z"/></g>
<g><path style="opacity:1" fill="#b4b8ac" d="M 601.5,92.5 C 601.016,97.6439 598.35,100.977 593.5,102.5C 596.935,99.7372 599.601,96.4039 601.5,92.5 Z"/></g>
<g><path style="opacity:1" fill="#aab29d" d="M 736.5,96.5 C 736.771,98.3797 736.104,99.713 734.5,100.5C 734.66,98.847 735.326,97.5137 736.5,96.5 Z"/></g>
<g><path style="opacity:1" fill="#bcc0b4" d="M 390.5,104.5 C 389.817,106.176 388.483,106.843 386.5,106.5C 387.671,105.655 389.005,104.989 390.5,104.5 Z"/></g>
<g><path style="opacity:1" fill="#abb09f" d="M 394.5,104.5 C 396.672,106.843 398.339,109.51 399.5,112.5C 396.6,110.601 394.934,107.934 394.5,104.5 Z"/></g>
<g><path style="opacity:1" fill="#bcc0b4" d="M 386.5,106.5 C 385.817,108.176 384.483,108.843 382.5,108.5C 383.671,107.655 385.005,106.989 386.5,106.5 Z"/></g>
<g><path style="opacity:1" fill="#b6baad" d="M 586.5,106.5 C 586.179,108.048 585.179,108.715 583.5,108.5C 584.29,107.599 585.29,106.932 586.5,106.5 Z"/></g>
<g><path style="opacity:1" fill="#bcc0b4" d="M 382.5,108.5 C 381.817,110.176 380.483,110.843 378.5,110.5C 379.671,109.655 381.005,108.989 382.5,108.5 Z"/></g>
<g><path style="opacity:1" fill="#c1c4bb" d="M 582.5,108.5 C 581.735,110.929 580.069,112.262 577.5,112.5C 578.853,110.817 580.52,109.484 582.5,108.5 Z"/></g>
<g><path style="opacity:1" fill="#a5af91" d="M 378.5,110.5 C 377.172,112.719 375.172,114.052 372.5,114.5C 373.775,112.27 375.775,110.937 378.5,110.5 Z"/></g>
<g><path style="opacity:1" fill="#adafa4" d="M 399.5,112.5 C 401.104,113.287 401.771,114.62 401.5,116.5C 400.326,115.486 399.66,114.153 399.5,112.5 Z"/></g>
<g><path style="opacity:1" fill="#a6af94" d="M 567.5,118.5 C 566.036,120.63 564.036,121.963 561.5,122.5C 562.802,120.178 564.802,118.845 567.5,118.5 Z"/></g>
<g><path style="opacity:1" fill="#b1b3a9" d="M 401.5,116.5 C 403.142,118.971 404.475,121.637 405.5,124.5C 402.873,122.548 401.54,119.881 401.5,116.5 Z"/></g>
<g><path style="opacity:1" fill="#b6bbad" d="M 353.5,122.5 C 351.815,124.123 349.815,125.456 347.5,126.5C 347.414,125.504 347.748,124.671 348.5,124C 350.247,123.648 351.914,123.148 353.5,122.5 Z"/></g>
<g><path style="opacity:1" fill="#a3ac8e" d="M 561.5,122.5 C 561.5,123.833 560.833,124.5 559.5,124.5C 559.5,123.167 560.167,122.5 561.5,122.5 Z"/></g>
<g><path style="opacity:1" fill="#acaea2" d="M 405.5,124.5 C 407.104,125.287 407.771,126.62 407.5,128.5C 406.326,127.486 405.66,126.153 405.5,124.5 Z"/></g>
<g><path style="opacity:1" fill="#a2ac8e" d="M 559.5,124.5 C 559.5,125.833 558.833,126.5 557.5,126.5C 557.5,125.167 558.167,124.5 559.5,124.5 Z"/></g>
<g><path style="opacity:1" fill="#bcc0b4" d="M 344.5,126.5 C 343.817,128.176 342.483,128.843 340.5,128.5C 341.671,127.655 343.005,126.989 344.5,126.5 Z"/></g>
<g><path style="opacity:1" fill="#acb2a1" d="M 407.5,128.5 C 409.955,130.632 411.621,133.299 412.5,136.5C 409.862,134.582 408.195,131.915 407.5,128.5 Z"/></g>
<g><path style="opacity:1" fill="#b8beb1" d="M 340.5,128.5 C 339.817,130.176 338.483,130.843 336.5,130.5C 337.671,129.655 339.005,128.989 340.5,128.5 Z"/></g>
<g><path style="opacity:1" fill="#a6b092" d="M 336.5,130.5 C 335.172,132.719 333.172,134.052 330.5,134.5C 331.775,132.27 333.775,130.937 336.5,130.5 Z"/></g>
<g><path style="opacity:1" fill="#caccc7" d="M 736.5,132.5 C 737.88,132.962 738.547,133.962 738.5,135.5C 738.071,138.029 737.404,140.362 736.5,142.5C 736.982,139.054 736.982,135.721 736.5,132.5 Z"/></g>
<g><path style="opacity:1" fill="#b8bdb0" d="M 523.5,136.5 C 522.172,138.719 520.172,140.052 517.5,140.5C 519.06,138.571 521.06,137.238 523.5,136.5 Z"/></g>
<g><path style="opacity:1" fill="#afb5a2" d="M 261.5,146.5 C 259.511,144.026 257.011,142.026 254,140.5C 252.167,140.519 250.667,141.185 249.5,142.5C 249.414,141.504 249.748,140.671 250.5,140C 256.291,138.632 259.958,140.799 261.5,146.5 Z"/></g>
<g><path style="opacity:1" fill="#b4b6ad" d="M 412.5,136.5 C 413.971,138.216 414.971,140.216 415.5,142.5C 413.455,141.077 412.455,139.077 412.5,136.5 Z"/></g>
<g><path style="opacity:1" fill="#a0aa8c" d="M 517.5,140.5 C 517.5,141.833 516.833,142.5 515.5,142.5C 515.5,141.167 516.167,140.5 517.5,140.5 Z"/></g>
<g><path style="opacity:1" fill="#bcc1b7" d="M 246.5,142.5 C 245.817,144.176 244.483,144.843 242.5,144.5C 243.671,143.655 245.005,142.989 246.5,142.5 Z"/></g>
<g><path style="opacity:1" fill="#adafa4" d="M 415.5,142.5 C 417.104,143.287 417.771,144.62 417.5,146.5C 416.326,145.486 415.66,144.153 415.5,142.5 Z"/></g>
<g><path style="opacity:1" fill="#a2ac8e" d="M 515.5,142.5 C 515.5,143.833 514.833,144.5 513.5,144.5C 513.5,143.167 514.167,142.5 515.5,142.5 Z"/></g>
<g><path style="opacity:1" fill="#c0c4b9" d="M 710.5,150.5 C 708.377,149.217 706.377,147.717 704.5,146C 698.838,145.597 693.338,144.764 688,143.5C 682.875,143.454 678.375,145.121 674.5,148.5C 677.665,143.403 682.332,141.403 688.5,142.5C 691.7,142.601 694.7,143.268 697.5,144.5C 698.167,143.833 698.833,143.167 699.5,142.5C 701.635,143.881 703.968,144.881 706.5,145.5C 708.261,146.917 709.594,148.583 710.5,150.5 Z"/></g>
<g><path style="opacity:1" fill="#bcc0b4" d="M 306.5,144.5 C 305.817,146.176 304.483,146.843 302.5,146.5C 303.671,145.655 305.005,144.989 306.5,144.5 Z"/></g>
<g><path style="opacity:1" fill="#a0ac8c" d="M 513.5,144.5 C 513.5,145.833 512.833,146.5 511.5,146.5C 511.5,145.167 512.167,144.5 513.5,144.5 Z"/></g>
<g><path style="opacity:1" fill="#bfc2b8" d="M 733.5,142.5 C 731.499,144.656 729.499,146.989 727.5,149.5C 728.156,151.453 728.489,153.453 728.5,155.5C 725.287,155.81 722.287,155.477 719.5,154.5C 719.833,154.5 720.167,154.5 720.5,154.5C 722.924,154.808 725.257,154.474 727.5,153.5C 725.569,147.75 727.569,144.084 733.5,142.5 Z"/></g>
<g><path style="opacity:1" fill="#c1c4bb" d="M 242.5,144.5 C 240.473,146.847 237.806,148.181 234.5,148.5C 236.849,146.659 239.516,145.325 242.5,144.5 Z"/></g>
<g><path style="opacity:1" fill="#abada2" d="M 417.5,146.5 C 419.104,147.287 419.771,148.62 419.5,150.5C 418.326,149.486 417.66,148.153 417.5,146.5 Z"/></g>
<g><path style="opacity:1" fill="#a2ac8e" d="M 511.5,146.5 C 511.5,147.833 510.833,148.5 509.5,148.5C 509.5,147.167 510.167,146.5 511.5,146.5 Z"/></g>
<g><path style="opacity:1" fill="#a2ac90" d="M 264.5,148.5 C 265.833,148.5 266.5,149.167 266.5,150.5C 265.167,150.5 264.5,149.833 264.5,148.5 Z"/></g>
<g><path style="opacity:1" fill="#a8b298" d="M 302.5,146.5 C 301.344,148.387 299.677,149.721 297.5,150.5C 298.206,148.124 299.873,146.79 302.5,146.5 Z"/></g>
<g><path style="opacity:1" fill="#a6b095" d="M 234.5,148.5 C 233.833,150.5 232.5,151.833 230.5,152.5C 230.894,150.29 232.227,148.957 234.5,148.5 Z"/></g>
<g><path style="opacity:1" fill="#bcbfb6" d="M 268.5,150.5 C 269.71,150.932 270.71,151.599 271.5,152.5C 269.821,152.715 268.821,152.048 268.5,150.5 Z"/></g>
<g><path style="opacity:1" fill="#adafa4" d="M 419.5,150.5 C 421.104,151.287 421.771,152.62 421.5,154.5C 420.326,153.486 419.66,152.153 419.5,150.5 Z"/></g>
<g><path style="opacity:1" fill="#a6af98" d="M 710.5,150.5 C 712.483,150.157 713.817,150.824 714.5,152.5C 712.847,152.34 711.514,151.674 710.5,150.5 Z"/></g>
<g><path style="opacity:1" fill="#a0ab8b" d="M 716.5,152.5 C 718.483,152.157 719.817,152.824 720.5,154.5C 720.167,154.5 719.833,154.5 719.5,154.5C 718.5,153.833 717.5,153.167 716.5,152.5 Z"/></g>
<g><path style="opacity:1" fill="#a0aa8c" d="M 228.5,152.5 C 228.5,153.833 227.833,154.5 226.5,154.5C 226.5,153.167 227.167,152.5 228.5,152.5 Z"/></g>
<g><path style="opacity:1" fill="#b6bbae" d="M 506.5,150.5 C 505.735,152.929 504.069,154.262 501.5,154.5C 502.853,152.817 504.52,151.484 506.5,150.5 Z"/></g>
<g><path style="opacity:1" fill="#a9b198" d="M 274.5,154.5 C 275.833,154.5 276.5,155.167 276.5,156.5C 275.167,156.5 274.5,155.833 274.5,154.5 Z"/></g>
<g><path style="opacity:1" fill="#adb59f" d="M 224.5,154.5 C 222.333,157.06 219.666,159.06 216.5,160.5C 218.246,157.438 220.913,155.438 224.5,154.5 Z"/></g>
<g><path style="opacity:1" fill="#9faa89" d="M 277.5,156.5 C 279.234,157.562 280.901,157.562 282.5,156.5C 282.209,157.649 281.376,158.316 280,158.5C 278.624,158.316 277.791,157.649 277.5,156.5 Z"/></g>
<g><path style="opacity:1" fill="#bbc0b2" d="M 500.5,154.5 C 498.926,157.332 496.593,159.332 493.5,160.5C 493.414,159.504 493.748,158.671 494.5,158C 496.641,157.015 498.641,155.848 500.5,154.5 Z"/></g>
<g><path style="opacity:1" fill="#b8bcb0" d="M 674.5,148.5 C 674.12,154.421 675.12,160.088 677.5,165.5C 676.815,169.519 674.481,171.852 670.5,172.5C 672.782,170.541 674.782,168.208 676.5,165.5C 673.646,159.937 672.979,154.27 674.5,148.5 Z"/></g>
<g><path style="opacity:1" fill="#acb39f" d="M 490.5,160.5 C 487.316,162.414 483.649,163.08 479.5,162.5C 479.603,165.219 479.269,167.885 478.5,170.5C 478.253,171.713 477.586,172.38 476.5,172.5C 477.919,168.985 478.586,165.319 478.5,161.5C 482.6,161.763 486.6,161.43 490.5,160.5 Z"/></g>
<g><path style="opacity:1" fill="#bcc0b4" d="M 210.5,162.5 C 209.817,164.176 208.483,164.843 206.5,164.5C 207.671,163.655 209.005,162.989 210.5,162.5 Z"/></g>
<g><path style="opacity:1" fill="#adb0a3" d="M 421.5,154.5 C 424.449,158.657 426.449,163.323 427.5,168.5C 424.432,164.356 422.432,159.689 421.5,154.5 Z"/></g>
<g><path style="opacity:1" fill="#b2b9a7" d="M 206.5,164.5 C 204.973,167.068 202.639,168.401 199.5,168.5C 201.35,166.428 203.683,165.095 206.5,164.5 Z"/></g>
<g><path style="opacity:1" fill="#c8c9c5" d="M 427.5,168.5 C 429.213,169.635 429.88,171.302 429.5,173.5C 433.167,173.5 436.833,173.5 440.5,173.5C 440.5,173.833 440.5,174.167 440.5,174.5C 436.5,174.5 432.5,174.5 428.5,174.5C 428.483,172.435 428.15,170.435 427.5,168.5 Z"/></g>
<g><path style="opacity:1" fill="#9fab89" d="M 473.5,172.5 C 473.389,173.117 473.056,173.617 472.5,174C 461.839,174.5 451.172,174.667 440.5,174.5C 440.5,174.167 440.5,173.833 440.5,173.5C 451.551,173.789 462.551,173.455 473.5,172.5 Z"/></g>
<g><path style="opacity:1" fill="#b8beb1" d="M 188.5,174.5 C 187.817,176.176 186.483,176.843 184.5,176.5C 185.671,175.655 187.005,174.989 188.5,174.5 Z"/></g>
<g><path style="opacity:1" fill="#a3ae90" d="M 184.5,176.5 C 183.833,178.5 182.5,179.833 180.5,180.5C 180.894,178.29 182.227,176.957 184.5,176.5 Z"/></g>
<g><path style="opacity:1" fill="#c7cac3" d="M 664.5,178.5 C 663.14,180.54 661.807,182.54 660.5,184.5C 660.354,181.446 661.687,179.446 664.5,178.5 Z"/></g>
<g><path style="opacity:1" fill="#b5b9ac" d="M 174.5,182.5 C 174.179,184.048 173.179,184.715 171.5,184.5C 172.29,183.599 173.29,182.932 174.5,182.5 Z"/></g>
<g><path style="opacity:1" fill="#bcc0b4" d="M 164.5,188.5 C 163.817,190.176 162.483,190.843 160.5,190.5C 161.671,189.655 163.005,188.989 164.5,188.5 Z"/></g>
<g><path style="opacity:1" fill="#a4ae92" d="M 160.5,190.5 C 159.833,192.5 158.5,193.833 156.5,194.5C 156.894,192.29 158.227,190.957 160.5,190.5 Z"/></g>
<g><path style="opacity:1" fill="#b8beb1" d="M 154.5,194.5 C 153.817,196.176 152.483,196.843 150.5,196.5C 151.671,195.655 153.005,194.989 154.5,194.5 Z"/></g>
<g><path style="opacity:1" fill="#b6baad" d="M 150.5,196.5 C 150.179,198.048 149.179,198.715 147.5,198.5C 148.29,197.599 149.29,196.932 150.5,196.5 Z"/></g>
<g><path style="opacity:1" fill="#a0a98d" d="M 648.5,196.5 C 648.5,198.5 648.5,200.5 648.5,202.5C 646.084,200.705 646.084,198.705 648.5,196.5 Z"/></g>
<g><path style="opacity:1" fill="#bcc0b4" d="M 140.5,202.5 C 139.817,204.176 138.483,204.843 136.5,204.5C 137.671,203.655 139.005,202.989 140.5,202.5 Z"/></g>
<g><path style="opacity:1" fill="#a4af92" d="M 136.5,204.5 C 135.833,206.5 134.5,207.833 132.5,208.5C 132.894,206.29 134.227,204.957 136.5,204.5 Z"/></g>
<g><path style="opacity:1" fill="#b9beaf" d="M 651.5,206.5 C 656.485,206.306 660.151,208.306 662.5,212.5C 659.061,209.804 655.394,207.804 651.5,206.5 Z"/></g>
<g><path style="opacity:1" fill="#b6baad" d="M 126.5,210.5 C 126.179,212.048 125.179,212.715 123.5,212.5C 124.29,211.599 125.29,210.932 126.5,210.5 Z"/></g>
<g><path style="opacity:1" fill="#cecfcb" d="M 662.5,214.5 C 663.993,217.113 663.326,219.113 660.5,220.5C 661.72,218.718 662.386,216.718 662.5,214.5 Z"/></g>
<g><path style="opacity:1" fill="#bcc0b4" d="M 116.5,216.5 C 115.817,218.176 114.483,218.843 112.5,218.5C 113.671,217.655 115.005,216.989 116.5,216.5 Z"/></g>
<g><path style="opacity:1" fill="#a4ae91" d="M 112.5,218.5 C 111.833,220.5 110.5,221.833 108.5,222.5C 108.894,220.29 110.227,218.957 112.5,218.5 Z"/></g>
<g><path style="opacity:1" fill="#b6baad" d="M 102.5,224.5 C 102.179,226.048 101.179,226.715 99.5,226.5C 100.29,225.599 101.29,224.932 102.5,224.5 Z"/></g>
<g><path style="opacity:1" fill="#bcc0b4" d="M 92.5,230.5 C 91.8166,232.176 90.4832,232.843 88.5,232.5C 89.6715,231.655 91.0048,230.989 92.5,230.5 Z"/></g>
<g><path style="opacity:1" fill="#a4ae92" d="M 88.5,232.5 C 87.8333,234.5 86.5,235.833 84.5,236.5C 84.894,234.29 86.2273,232.957 88.5,232.5 Z"/></g>
<g><path style="opacity:1" fill="#b5b9ac" d="M 78.5,238.5 C 78.1788,240.048 77.1788,240.715 75.5,240.5C 76.2905,239.599 77.2905,238.932 78.5,238.5 Z"/></g>
<g><path style="opacity:1" fill="#cdceca" d="M 656.5,224.5 C 655.957,225.742 655.623,227.075 655.5,228.5C 657.318,232.136 659.151,235.802 661,239.5C 661.167,241.833 661.333,244.167 661.5,246.5C 661.797,250.646 660.464,253.979 657.5,256.5C 659.343,253.493 660.343,250.16 660.5,246.5C 660.333,244.5 660.167,242.5 660,240.5C 657.871,236.579 656.037,232.579 654.5,228.5C 654.585,226.667 655.252,225.334 656.5,224.5 Z"/></g>
<g><path style="opacity:1" fill="#c0c4ba" d="M 71.5,242.5 C 69.9726,245.068 67.6393,246.401 64.5,246.5C 66.6058,244.878 68.9391,243.545 71.5,242.5 Z"/></g>
<g><path style="opacity:1" fill="#a4ae92" d="M 64.5,246.5 C 63.8333,248.5 62.5,249.833 60.5,250.5C 60.894,248.29 62.2273,246.957 64.5,246.5 Z"/></g>
<g><path style="opacity:1" fill="#bcc0b4" d="M 54.5,252.5 C 53.8166,254.176 52.4832,254.843 50.5,254.5C 51.6715,253.655 53.0048,252.989 54.5,252.5 Z"/></g>
<g><path style="opacity:1" fill="#a6b095" d="M 50.5,254.5 C 49.8333,256.5 48.5,257.833 46.5,258.5C 46.894,256.29 48.2273,254.957 50.5,254.5 Z"/></g>
<g><path style="opacity:1" fill="#bcc0b4" d="M 44.5,258.5 C 43.8166,260.176 42.4832,260.843 40.5,260.5C 41.6715,259.655 43.0048,258.989 44.5,258.5 Z"/></g>
<g><path style="opacity:1" fill="#b6baad" d="M 40.5,260.5 C 40.1788,262.048 39.1788,262.715 37.5,262.5C 38.2905,261.599 39.2905,260.932 40.5,260.5 Z"/></g>
<g><path style="opacity:1" fill="#bec3b7" d="M 652.5,262.5 C 651.334,264.166 651.334,265.833 652.5,267.5C 654.516,269.684 656.683,271.684 659,273.5C 659.559,279.712 657.392,284.712 652.5,288.5C 655.242,284.583 657.242,280.25 658.5,275.5C 655.045,272.721 652.379,269.388 650.5,265.5C 650.64,263.97 651.307,262.97 652.5,262.5 Z"/></g>
<g><path style="opacity:1" fill="#bcc0b4" d="M 30.5,266.5 C 29.8166,268.176 28.4832,268.843 26.5,268.5C 27.6715,267.655 29.0048,266.989 30.5,266.5 Z"/></g>
<g><path style="opacity:1" fill="#a6b095" d="M 26.5,268.5 C 25.8333,270.5 24.5,271.833 22.5,272.5C 22.894,270.29 24.2273,268.957 26.5,268.5 Z"/></g>
<g><path style="opacity:1" fill="#a6b095" d="M 12.5,276.5 C 11.8333,278.5 10.5,279.833 8.5,280.5C 8.89395,278.29 10.2273,276.957 12.5,276.5 Z"/></g>
<g><path style="opacity:1" fill="#bcc0b4" d="M 6.5,280.5 C 5.81658,282.176 4.48324,282.843 2.5,282.5C 3.67145,281.655 5.00478,280.989 6.5,280.5 Z"/></g>
<g><path style="opacity:1" fill="#b4b9ab" d="M 2.5,282.5 C 2.27858,283.735 1.61191,284.735 0.5,285.5C 1.94592,287.618 2.61258,289.951 2.5,292.5C 1.85706,290.924 0.857056,289.59 -0.5,288.5C -0.5,286.833 -0.5,285.167 -0.5,283.5C 0.608953,283.443 1.60895,283.11 2.5,282.5 Z"/></g>
<g><path style="opacity:1" fill="#fefefe" d="M -0.5,288.5 C 0.857056,289.59 1.85706,290.924 2.5,292.5C 3.59925,295.932 5.93258,297.932 9.5,298.5C 9.83333,298.5 10.1667,298.5 10.5,298.5C 13.1472,302.147 16.1472,305.481 19.5,308.5C 20.8333,309.833 22.1667,311.167 23.5,312.5C 25.5136,314.845 27.847,316.845 30.5,318.5C 30.8333,318.5 31.1667,318.5 31.5,318.5C 33.178,320.852 35.5113,322.186 38.5,322.5C 39.9303,323.537 41.597,324.204 43.5,324.5C 43.8333,324.5 44.1667,324.5 44.5,324.5C 45.5137,325.674 46.847,326.34 48.5,326.5C 49.1667,326.5 49.8333,326.5 50.5,326.5C 51.8333,326.5 52.5,327.167 52.5,328.5C 53.7777,328.782 54.7777,329.449 55.5,330.5C 56.8534,332.183 58.5201,333.516 60.5,334.5C 60.8333,334.5 61.1667,334.5 61.5,334.5C 62.2905,335.401 63.2905,336.068 64.5,336.5C 65.8333,336.5 66.5,337.167 66.5,338.5C 67.8198,340.817 69.4864,342.817 71.5,344.5C 72.3382,344.842 72.6716,345.508 72.5,346.5C 73.9676,349.278 74.801,352.278 75,355.5C 75.2989,369.199 77.1322,382.699 80.5,396C 79.9069,399.151 79.4069,402.318 79,405.5C 77.3983,407.646 76.2317,409.98 75.5,412.5C 74.0256,413.436 73.0256,414.77 72.5,416.5C 71.0292,418.216 70.0292,420.216 69.5,422.5C 68.8333,423.167 68.1667,423.833 67.5,424.5C 64.8633,426.81 62.53,429.476 60.5,432.5C 59.8776,434.122 58.8776,435.455 57.5,436.5C 55.8622,439.092 54.1956,441.759 52.5,444.5C 52.6716,445.492 52.3382,446.158 51.5,446.5C 50.5041,446.414 49.6708,446.748 49,447.5C 47.5502,449.757 46.3835,452.09 45.5,454.5C 43.5,454.5 41.5,454.5 39.5,454.5C 37.0183,456.085 36.3516,458.085 37.5,460.5C 37.2865,462.144 37.6198,463.644 38.5,465C 37.1772,465.816 36.5106,466.983 36.5,468.5C 34.2821,468.614 32.2821,469.28 30.5,470.5C 23.2946,475.3 20.6279,481.967 22.5,490.5C 21.596,491.209 21.2627,492.209 21.5,493.5C 44.6727,493.831 67.6727,493.498 90.5,492.5C 97.2668,491.868 103.933,491.201 110.5,490.5C 115.5,490.5 120.5,490.5 125.5,490.5C 129.973,489.949 134.307,489.283 138.5,488.5C 143.5,488.5 148.5,488.5 153.5,488.5C 157.973,487.949 162.307,487.283 166.5,486.5C 171.5,486.5 176.5,486.5 181.5,486.5C 185.973,485.949 190.307,485.283 194.5,484.5C 199.167,484.5 203.833,484.5 208.5,484.5C 213.305,483.94 217.971,483.273 222.5,482.5C 227.167,482.5 231.833,482.5 236.5,482.5C 237.964,481.595 239.298,481.595 240.5,482.5C 249.527,483.647 258.527,484.98 267.5,486.5C 268.158,485.207 268.492,483.707 268.5,482C 268.12,476.981 267.454,472.148 266.5,467.5C 266.664,464.813 266.497,462.146 266,459.5C 265.617,458.944 265.117,458.611 264.5,458.5C 264.5,455.833 264.5,453.167 264.5,450.5C 264.02,447.315 264.686,444.481 266.5,442C 283.338,441.832 300.005,441.332 316.5,440.5C 321.167,440.5 325.833,440.5 330.5,440.5C 340.037,441.215 349.704,441.882 359.5,442.5C 360.5,442.5 361.5,442.5 362.5,442.5C 362.821,444.048 363.821,444.715 365.5,444.5C 366.5,444.5 367.5,444.5 368.5,444.5C 368.821,446.048 369.821,446.715 371.5,446.5C 372.5,446.5 373.5,446.5 374.5,446.5C 374.369,447.376 374.702,448.043 375.5,448.5C 377.53,449.172 379.53,449.838 381.5,450.5C 382.718,451.161 384.051,451.828 385.5,452.5C 381.199,465.374 377.365,478.374 374,491.5C 372.193,497.392 371.026,503.392 370.5,509.5C 376.5,509.5 382.5,509.5 388.5,509.5C 394.227,509.26 399.894,509.593 405.5,510.5C 411.167,510.5 416.833,510.5 422.5,510.5C 428.032,511.253 433.699,511.92 439.5,512.5C 445.167,512.5 450.833,512.5 456.5,512.5C 460.021,513.307 463.688,513.974 467.5,514.5C 471.167,514.5 474.833,514.5 478.5,514.5C 482.021,515.307 485.688,515.974 489.5,516.5C 493.833,516.5 498.167,516.5 502.5,516.5C 505.725,517.237 509.059,517.903 512.5,518.5C 516.5,518.5 520.5,518.5 524.5,518.5C 528.021,519.307 531.688,519.974 535.5,520.5C 539.167,520.5 542.833,520.5 546.5,520.5C 550.395,521.225 554.395,521.891 558.5,522.5C 562.5,522.5 566.5,522.5 570.5,522.5C 574.021,523.307 577.688,523.974 581.5,524.5C 585.167,524.5 588.833,524.5 592.5,524.5C 595.725,525.237 599.059,525.903 602.5,526.5C 602.5,526.833 602.5,527.167 602.5,527.5C 401.5,527.5 200.5,527.5 -0.5,527.5C -0.5,447.833 -0.5,368.167 -0.5,288.5 Z"/></g>
<g><path style="opacity:1" fill="#adb3a0" d="M 2.5,292.5 C 5.16847,294.173 7.50181,296.173 9.5,298.5C 5.93258,297.932 3.59925,295.932 2.5,292.5 Z"/></g>
<g><path style="opacity:1" fill="#a0aa8e" d="M 648.5,296.5 C 648.5,299.167 648.5,301.833 648.5,304.5C 647.833,304.5 647.167,304.5 646.5,304.5C 646.111,301.447 646.777,298.78 648.5,296.5 Z"/></g>
<g><path style="opacity:1" fill="#b0b6a6" d="M 10.5,298.5 C 14.5534,300.887 17.5534,304.22 19.5,308.5C 16.1472,305.481 13.1472,302.147 10.5,298.5 Z"/></g>
<g><path style="opacity:1" fill="#bec1b9" d="M 23.5,312.5 C 26.7522,313.418 29.0855,315.418 30.5,318.5C 27.847,316.845 25.5136,314.845 23.5,312.5 Z"/></g>
<g><path style="opacity:1" fill="#cbcdc7" d="M 646.5,304.5 C 647.167,304.5 647.833,304.5 648.5,304.5C 648.078,313.348 644.078,320.015 636.5,324.5C 639.12,321.205 641.786,317.871 644.5,314.5C 646.026,311.346 646.693,308.013 646.5,304.5 Z"/></g>
<g><path style="opacity:1" fill="#bcc1b4" d="M 31.5,318.5 C 34.3744,319.097 36.7077,320.431 38.5,322.5C 35.5113,322.186 33.178,320.852 31.5,318.5 Z"/></g>
<g><path style="opacity:1" fill="#b2b8a7" d="M 38.5,322.5 C 40.7812,322.077 42.4479,322.744 43.5,324.5C 41.597,324.204 39.9303,323.537 38.5,322.5 Z"/></g>
<g><path style="opacity:1" fill="#acb39f" d="M 44.5,324.5 C 46.4832,324.157 47.8166,324.824 48.5,326.5C 46.847,326.34 45.5137,325.674 44.5,324.5 Z"/></g>
<g><path style="opacity:1" fill="#a0aa8d" d="M 50.5,326.5 C 51.8333,326.5 52.5,327.167 52.5,328.5C 51.1667,328.5 50.5,327.833 50.5,326.5 Z"/></g>
<g><path style="opacity:1" fill="#9ba783" d="M 636.5,324.5 C 636.5,327.833 636.5,331.167 636.5,334.5C 635.028,332.883 634.361,330.883 634.5,328.5C 634.585,326.667 635.252,325.334 636.5,324.5 Z"/></g>
<g><path style="opacity:1" fill="#cbccc8" d="M 55.5,330.5 C 58.0685,330.738 59.7352,332.071 60.5,334.5C 58.5201,333.516 56.8534,332.183 55.5,330.5 Z"/></g>
<g><path style="opacity:1" fill="#b5b9ae" d="M 61.5,334.5 C 63.1788,334.285 64.1788,334.952 64.5,336.5C 63.2905,336.068 62.2905,335.401 61.5,334.5 Z"/></g>
<g><path style="opacity:1" fill="#a2ad8d" d="M 636.5,334.5 C 638.104,335.287 638.771,336.62 638.5,338.5C 637.326,337.486 636.66,336.153 636.5,334.5 Z"/></g>
<g><path style="opacity:1" fill="#b6baaf" d="M 66.5,338.5 C 69.2362,339.573 70.9029,341.573 71.5,344.5C 69.4864,342.817 67.8198,340.817 66.5,338.5 Z"/></g>
<g><path style="opacity:1" fill="#abb0a0" d="M 638.5,338.5 C 640.694,340.221 641.861,342.555 642,345.5C 642.499,349.152 642.665,352.818 642.5,356.5C 641.948,350.437 640.614,344.437 638.5,338.5 Z"/></g>
<g><path style="opacity:1" fill="#b5bab0" d="M 72.5,346.5 C 73.7498,346.577 74.5831,347.244 75,348.5C 76.1089,356.457 76.7756,364.457 77,372.5C 80.6414,383.656 81.6414,394.99 80,406.5C 79.0207,408.968 77.5207,410.968 75.5,412.5C 76.2317,409.98 77.3983,407.646 79,405.5C 79.4069,402.318 79.9069,399.151 80.5,396C 77.1322,382.699 75.2989,369.199 75,355.5C 74.801,352.278 73.9676,349.278 72.5,346.5 Z"/></g>
<g><path style="opacity:1" fill="#a8b198" d="M 648.5,360.5 C 650.153,360.66 651.486,361.326 652.5,362.5C 650.517,362.843 649.183,362.176 648.5,360.5 Z"/></g>
<g><path style="opacity:1" fill="#a7b097" d="M 653.5,362.5 C 654.833,362.5 655.5,363.167 655.5,364.5C 654.167,364.5 653.5,363.833 653.5,362.5 Z"/></g>
<g><path style="opacity:1" fill="#a6af94" d="M 657.5,364.5 C 658.833,364.5 659.5,365.167 659.5,366.5C 658.167,366.5 657.5,365.833 657.5,364.5 Z"/></g>
<g><path style="opacity:1" fill="#c1c4bb" d="M 663.5,368.5 C 665.3,374.263 663.633,378.93 658.5,382.5C 659.216,379.402 660.716,376.736 663,374.5C 663.495,372.527 663.662,370.527 663.5,368.5 Z"/></g>
<g><path style="opacity:1" fill="#bfc2b7" d="M 654.5,384.5 C 651.045,386.957 647.045,388.124 642.5,388C 633.299,390.01 625.966,394.843 620.5,402.5C 620.5,401.833 620.5,401.167 620.5,400.5C 622.08,397.912 624.08,395.578 626.5,393.5C 635.256,388.692 644.589,385.692 654.5,384.5 Z"/></g>
<g><path style="opacity:1" fill="#9ca788" d="M 620.5,400.5 C 620.5,401.167 620.5,401.833 620.5,402.5C 620.5,404.5 620.5,406.5 620.5,408.5C 617.833,405.833 617.833,403.167 620.5,400.5 Z"/></g>
<g><path style="opacity:1" fill="#c6c9c1" d="M 620.5,408.5 C 623.197,410.54 625.863,412.54 628.5,414.5C 624.691,414.025 622.025,412.025 620.5,408.5 Z"/></g>
<g><path style="opacity:1" fill="#b0b4a7" d="M 75.5,412.5 C 75.4456,414.632 74.4456,415.965 72.5,416.5C 73.0256,414.77 74.0256,413.436 75.5,412.5 Z"/></g>
<g><path style="opacity:1" fill="#c3c5c0" d="M 72.5,416.5 C 72.5449,419.077 71.5449,421.077 69.5,422.5C 70.0292,420.216 71.0292,418.216 72.5,416.5 Z"/></g>
<g><path style="opacity:1" fill="#b5baab" d="M 67.5,424.5 C 66.2264,428.106 63.893,430.773 60.5,432.5C 62.53,429.476 64.8633,426.81 67.5,424.5 Z"/></g>
<g><path style="opacity:1" fill="#b5b9ad" d="M 638.5,418.5 C 639.933,421.282 641.1,424.282 642,427.5C 642.058,438.243 642.891,448.909 644.5,459.5C 643.861,462.475 643.361,465.475 643,468.5C 642.292,469.381 641.458,470.047 640.5,470.5C 641.817,466.941 642.817,463.275 643.5,459.5C 641.864,449.264 641.031,438.931 641,428.5C 639.648,425.28 638.814,421.947 638.5,418.5 Z"/></g>
<g><path style="opacity:1" fill="#9fab8a" d="M 316.5,440.5 C 300.005,441.332 283.338,441.832 266.5,442C 264.686,444.481 264.02,447.315 264.5,450.5C 263.217,447.635 263.217,444.635 264.5,441.5C 281.821,440.5 299.154,440.167 316.5,440.5 Z"/></g>
<g><path style="opacity:1" fill="#9eaa87" d="M 330.5,440.5 C 339.839,440.334 349.173,440.5 358.5,441C 359.056,441.383 359.389,441.883 359.5,442.5C 349.704,441.882 340.037,441.215 330.5,440.5 Z"/></g>
<g><path style="opacity:1" fill="#b5baae" d="M 57.5,436.5 C 57.3184,440.216 55.6517,442.883 52.5,444.5C 54.1956,441.759 55.8622,439.092 57.5,436.5 Z"/></g>
<g><path style="opacity:1" fill="#9ea88c" d="M 362.5,442.5 C 363.71,442.932 364.71,443.599 365.5,444.5C 363.821,444.715 362.821,444.048 362.5,442.5 Z"/></g>
<g><path style="opacity:1" fill="#9ba688" d="M 368.5,444.5 C 369.71,444.932 370.71,445.599 371.5,446.5C 369.821,446.715 368.821,446.048 368.5,444.5 Z"/></g>
<g><path style="opacity:1" fill="#b1b6a6" d="M 51.5,446.5 C 49.984,449.533 47.984,452.2 45.5,454.5C 46.3835,452.09 47.5502,449.757 49,447.5C 49.6708,446.748 50.5041,446.414 51.5,446.5 Z"/></g>
<g><path style="opacity:1" fill="#b3b8a8" d="M 374.5,446.5 C 377.246,447.397 379.579,448.731 381.5,450.5C 379.53,449.838 377.53,449.172 375.5,448.5C 374.702,448.043 374.369,447.376 374.5,446.5 Z"/></g>
<g><path style="opacity:1" fill="#bfc3b8" d="M 381.5,450.5 C 383.167,450.5 384.833,450.5 386.5,450.5C 381.283,469.83 376.283,489.164 371.5,508.5C 377.167,508.5 382.833,508.5 388.5,508.5C 388.5,508.833 388.5,509.167 388.5,509.5C 382.5,509.5 376.5,509.5 370.5,509.5C 371.026,503.392 372.193,497.392 374,491.5C 377.365,478.374 381.199,465.374 385.5,452.5C 384.051,451.828 382.718,451.161 381.5,450.5 Z"/></g>
<g><path style="opacity:1" fill="#adb2a4" d="M 39.5,454.5 C 38.8333,456.5 38.1667,458.5 37.5,460.5C 36.3516,458.085 37.0183,456.085 39.5,454.5 Z"/></g>
<g><path style="opacity:1" fill="#a5ab9a" d="M 264.5,458.5 C 265.117,458.611 265.617,458.944 266,459.5C 266.497,462.146 266.664,464.813 266.5,467.5C 266.5,467.833 266.5,468.167 266.5,468.5C 265.677,465.316 265.01,461.983 264.5,458.5 Z"/></g>
<g><path style="opacity:1" fill="#acb39f" d="M 37.5,460.5 C 40.3766,463.64 40.0433,466.307 36.5,468.5C 36.5106,466.983 37.1772,465.816 38.5,465C 37.6198,463.644 37.2865,462.144 37.5,460.5 Z"/></g>
<g><path style="opacity:1" fill="#b2b7a8" d="M 30.5,470.5 C 29.2567,472.753 27.59,474.753 25.5,476.5C 24.6667,478.5 23.8333,480.5 23,482.5C 22.5667,484.664 23.0667,486.664 24.5,488.5C 24.1543,489.849 23.821,491.183 23.5,492.5C 22.6618,492.158 22.3284,491.492 22.5,490.5C 20.6279,481.967 23.2946,475.3 30.5,470.5 Z"/></g>
<g><path style="opacity:1" fill="#b6bbb0" d="M 266.5,467.5 C 267.454,472.148 268.12,476.981 268.5,482C 268.492,483.707 268.158,485.207 267.5,486.5C 267.034,480.509 266.701,474.509 266.5,468.5C 266.5,468.167 266.5,467.833 266.5,467.5 Z"/></g>
<g><path style="opacity:1" fill="#9faa8b" d="M 240.5,482.5 C 239.298,481.595 237.964,481.595 236.5,482.5C 236.62,481.414 237.287,480.747 238.5,480.5C 239.713,480.747 240.38,481.414 240.5,482.5 Z"/></g>
<g><path style="opacity:1" fill="#9ea988" d="M 222.5,482.5 C 217.971,483.273 213.305,483.94 208.5,484.5C 212.715,482.564 217.381,481.897 222.5,482.5 Z"/></g>
<g><path style="opacity:1" fill="#9eaa89" d="M 194.5,484.5 C 190.307,485.283 185.973,485.949 181.5,486.5C 181.611,485.883 181.944,485.383 182.5,485C 186.486,484.501 190.486,484.334 194.5,484.5 Z"/></g>
<g><path style="opacity:1" fill="#c3c6be" d="M 640.5,472.5 C 639.683,479.479 636.35,484.813 630.5,488.5C 631.743,486.247 633.41,484.247 635.5,482.5C 636.667,478.832 638.334,475.498 640.5,472.5 Z"/></g>
<g><path style="opacity:1" fill="#9faa89" d="M 166.5,486.5 C 162.307,487.283 157.973,487.949 153.5,488.5C 153.611,487.883 153.944,487.383 154.5,487C 158.486,486.501 162.486,486.334 166.5,486.5 Z"/></g>
<g><path style="opacity:1" fill="#9eaa89" d="M 138.5,488.5 C 134.307,489.283 129.973,489.949 125.5,490.5C 125.611,489.883 125.944,489.383 126.5,489C 130.486,488.501 134.486,488.334 138.5,488.5 Z"/></g>
<g><path style="opacity:1" fill="#9faa8a" d="M 110.5,490.5 C 103.933,491.201 97.2668,491.868 90.5,492.5C 90.1667,492.5 89.8333,492.5 89.5,492.5C 89.6107,491.883 89.944,491.383 90.5,491C 97.1583,490.5 103.825,490.334 110.5,490.5 Z"/></g>
<g><path style="opacity:1" fill="#b0b6a4" d="M 630.5,488.5 C 629.871,490.997 628.204,492.33 625.5,492.5C 626.873,490.793 628.539,489.46 630.5,488.5 Z"/></g>
<g><path style="opacity:1" fill="#d6d6d6" d="M 22.5,490.5 C 22.3284,491.492 22.6618,492.158 23.5,492.5C 45.5,492.5 67.5,492.5 89.5,492.5C 89.8333,492.5 90.1667,492.5 90.5,492.5C 67.6727,493.498 44.6727,493.831 21.5,493.5C 21.2627,492.209 21.596,491.209 22.5,490.5 Z"/></g>
<g><path style="opacity:1" fill="#9eaa88" d="M 388.5,509.5 C 388.5,509.167 388.5,508.833 388.5,508.5C 393.844,508.334 399.177,508.501 404.5,509C 405.056,509.383 405.389,509.883 405.5,510.5C 399.894,509.593 394.227,509.26 388.5,509.5 Z"/></g>
<g><path style="opacity:1" fill="#9eaa88" d="M 422.5,510.5 C 427.844,510.334 433.177,510.501 438.5,511C 439.056,511.383 439.389,511.883 439.5,512.5C 433.699,511.92 428.032,511.253 422.5,510.5 Z"/></g>
<g><path style="opacity:1" fill="#9eaa88" d="M 456.5,512.5 C 459.85,512.335 463.183,512.502 466.5,513C 467.056,513.383 467.389,513.883 467.5,514.5C 463.688,513.974 460.021,513.307 456.5,512.5 Z"/></g>
<g><path style="opacity:1" fill="#9eaa89" d="M 478.5,514.5 C 481.85,514.335 485.183,514.502 488.5,515C 489.056,515.383 489.389,515.883 489.5,516.5C 485.688,515.974 482.021,515.307 478.5,514.5 Z"/></g>
<g><path style="opacity:1" fill="#9faa89" d="M 502.5,516.5 C 506.329,515.931 509.663,516.598 512.5,518.5C 509.059,517.903 505.725,517.237 502.5,516.5 Z"/></g>
<g><path style="opacity:1" fill="#9eaa89" d="M 524.5,518.5 C 527.85,518.335 531.183,518.502 534.5,519C 535.056,519.383 535.389,519.883 535.5,520.5C 531.688,519.974 528.021,519.307 524.5,518.5 Z"/></g>
<g><path style="opacity:1" fill="#9da987" d="M 546.5,520.5 C 550.971,519.911 554.971,520.577 558.5,522.5C 554.395,521.891 550.395,521.225 546.5,520.5 Z"/></g>
<g><path style="opacity:1" fill="#9eaa88" d="M 570.5,522.5 C 573.85,522.335 577.183,522.502 580.5,523C 581.056,523.383 581.389,523.883 581.5,524.5C 577.688,523.974 574.021,523.307 570.5,522.5 Z"/></g>
<g><path style="opacity:1" fill="#9da986" d="M 592.5,524.5 C 595.85,524.335 599.183,524.502 602.5,525C 603.056,525.383 603.389,525.883 603.5,526.5C 603.167,526.5 602.833,526.5 602.5,526.5C 599.059,525.903 595.725,525.237 592.5,524.5 Z"/></g>
<g><path style="opacity:1" fill="#bdc1b6" d="M 622.5,498.5 C 623.117,498.611 623.617,498.944 624,499.5C 625.113,505.011 626.28,510.511 627.5,516C 626.638,519.811 625.971,523.644 625.5,527.5C 617.833,527.5 610.167,527.5 602.5,527.5C 602.5,527.167 602.5,526.833 602.5,526.5C 602.833,526.5 603.167,526.5 603.5,526.5C 610.5,526.5 617.5,526.5 624.5,526.5C 624.844,522.772 625.51,519.105 626.5,515.5C 625.059,509.85 623.726,504.184 622.5,498.5 Z"/></g>
</svg>
