<?xml version="1.0" encoding="UTF-8"?>
<!DOCTYPE svg PUBLIC "-//W3C//DTD SVG 1.1//EN" "http://www.w3.org/Graphics/SVG/1.1/DTD/svg11.dtd">
<svg xmlns="http://www.w3.org/2000/svg" version="1.1" width="982px" height="758px" style="shape-rendering:geometricPrecision; text-rendering:geometricPrecision; image-rendering:optimizeQuality; fill-rule:evenodd; clip-rule:evenodd" xmlns:xlink="http://www.w3.org/1999/xlink">
<g><path style="opacity:1" fill="#fefdfe" d="M -0.5,-0.5 C 326.833,-0.5 654.167,-0.5 981.5,-0.5C 981.5,95.1667 981.5,190.833 981.5,286.5C 957.116,274.365 932.783,262.032 908.5,249.5C 907.585,248.672 906.919,247.672 906.5,246.5C 912.925,240.079 918.591,233.079 923.5,225.5C 926.905,223.763 929.238,221.096 930.5,217.5C 943.231,205.438 955.231,192.771 966.5,179.5C 968.288,163.226 969.622,146.893 970.5,130.5C 969.963,124.35 969.296,118.35 968.5,112.5C 968.5,107.167 968.5,101.833 968.5,96.5C 967.963,90.3504 967.296,84.3504 966.5,78.5C 966.5,73.1667 966.5,67.8333 966.5,62.5C 965.167,54.5 965.167,46.5 966.5,38.5C 966.5,33.8333 966.5,29.1667 966.5,24.5C 967.283,20.3066 967.949,15.9732 968.5,11.5C 969.434,10.4324 969.768,9.09903 969.5,7.5C 925.167,7.5 880.833,7.5 836.5,7.5C 820.422,7.81747 804.422,7.48414 788.5,6.5C 772.5,6.5 756.5,6.5 740.5,6.5C 735.731,7.1171 731.064,7.78377 726.5,8.5C 721.833,8.5 717.167,8.5 712.5,8.5C 707.731,9.1171 703.064,9.78377 698.5,10.5C 694.167,10.5 689.833,10.5 685.5,10.5C 681.727,11.1031 678.061,11.7698 674.5,12.5C 669.833,12.5 665.167,12.5 660.5,12.5C 655.484,10.2491 650.151,8.91575 644.5,8.5C 642.5,8.5 640.5,8.5 638.5,8.5C 633.107,6.36359 627.44,5.03025 621.5,4.5C 619.167,4.5 616.833,4.5 614.5,4.5C 613.602,3.84233 612.602,3.17566 611.5,2.5C 607.123,1.77774 602.79,1.11107 598.5,0.5C 597.5,0.5 596.5,0.5 595.5,0.5C 591.063,1.11317 586.73,1.77984 582.5,2.5C 578.167,2.5 573.833,2.5 569.5,2.5C 565.063,3.11317 560.73,3.77984 556.5,4.5C 552.167,4.5 547.833,4.5 543.5,4.5C 539.063,5.11317 534.73,5.77984 530.5,6.5C 526.167,6.5 521.833,6.5 517.5,6.5C 513.063,7.11317 508.73,7.77984 504.5,8.5C 500.167,8.5 495.833,8.5 491.5,8.5C 487.063,9.11317 482.73,9.77984 478.5,10.5C 476.5,10.5 474.5,10.5 472.5,10.5C 468.167,11.8333 463.833,11.8333 459.5,10.5C 456.924,10.5321 454.591,9.86542 452.5,8.5C 448.605,7.77523 444.605,7.10857 440.5,6.5C 428.913,8.40661 417.246,9.73995 405.5,10.5C 401.167,11.8333 396.833,11.8333 392.5,10.5C 383.247,10.885 374.247,9.55168 365.5,6.5C 356.876,8.88186 348.542,11.8819 340.5,15.5C 332.159,25.1732 323.826,34.8399 315.5,44.5C 308.075,56.3569 300.408,68.0236 292.5,79.5C 291.195,82.0531 290.195,84.7198 289.5,87.5C 287.167,88.8333 284.833,88.8333 282.5,87.5C 271.926,83.0915 261.259,78.9248 250.5,75C 243.167,72.9456 235.833,70.7789 228.5,68.5C 221.727,82.9901 214.393,97.3234 206.5,111.5C 204.833,111.833 203.167,112.167 201.5,112.5C 195.47,111.158 189.47,109.825 183.5,108.5C 179.55,106.208 175.217,104.875 170.5,104.5C 169.167,104.5 167.833,104.5 166.5,104.5C 162.478,102.407 158.145,101.074 153.5,100.5C 146.334,99.9575 139.334,98.6242 132.5,96.5C 128.478,94.4071 124.145,93.0738 119.5,92.5C 118.167,92.5 116.833,92.5 115.5,92.5C 111.55,90.208 107.217,88.8747 102.5,88.5C 89.6781,86.5395 77.0114,83.8728 64.5,80.5C 60.5501,78.208 56.2167,76.8747 51.5,76.5C 44.7099,75.8804 38.0433,74.5471 31.5,72.5C 23.7277,75.5545 16.7277,79.8878 10.5,85.5C 6.80749,91.4851 4.14082,97.8185 2.5,104.5C 1.89992,105.9 0.899922,106.9 -0.5,107.5C -0.5,71.5 -0.5,35.5 -0.5,-0.5 Z"/></g>
<g><path style="opacity:1" fill="#8580b4" d="M 595.5,0.5 C 591.627,2.43023 587.294,3.0969 582.5,2.5C 586.73,1.77984 591.063,1.11317 595.5,0.5 Z"/></g>
<g><path style="opacity:1" fill="#b8b4cc" d="M 598.5,0.5 C 602.79,1.11107 607.123,1.77774 611.5,2.5C 612.602,3.17566 613.602,3.84233 614.5,4.5C 608.839,3.57436 603.506,2.24102 598.5,0.5 Z"/></g>
<g><path style="opacity:1" fill="#5749d1" d="M 595.5,0.5 C 596.5,0.5 597.5,0.5 598.5,0.5C 603.506,2.24102 608.839,3.57436 614.5,4.5C 616.833,4.5 619.167,4.5 621.5,4.5C 626.774,6.50133 632.441,7.83467 638.5,8.5C 640.5,8.5 642.5,8.5 644.5,8.5C 649.465,10.3873 654.798,11.7207 660.5,12.5C 665.167,12.5 669.833,12.5 674.5,12.5C 678.649,13.0803 682.316,12.4136 685.5,10.5C 689.833,10.5 694.167,10.5 698.5,10.5C 703.619,11.1031 708.285,10.4364 712.5,8.5C 717.167,8.5 721.833,8.5 726.5,8.5C 731.619,9.1031 736.285,8.43644 740.5,6.5C 756.5,6.5 772.5,6.5 788.5,6.5C 804.132,8.48478 820.132,9.15145 836.5,8.5C 880.846,7.83856 924.846,8.50522 968.5,10.5C 967.778,10.9175 967.278,11.5842 967,12.5C 966.501,16.4862 966.334,20.4862 966.5,24.5C 966.5,29.1667 966.5,33.8333 966.5,38.5C 965.778,38.9175 965.278,39.5842 965,40.5C 964.333,47.1667 964.333,53.8333 965,60.5C 965.278,61.4158 965.778,62.0825 966.5,62.5C 966.5,67.8333 966.5,73.1667 966.5,78.5C 966.334,83.8437 966.501,89.1771 967,94.5C 967.278,95.4158 967.778,96.0825 968.5,96.5C 968.5,101.833 968.5,107.167 968.5,112.5C 968.334,117.844 968.501,123.177 969,128.5C 969.278,129.416 969.778,130.082 970.5,130.5C 969.622,146.893 968.288,163.226 966.5,179.5C 955.231,192.771 943.231,205.438 930.5,217.5C 929.238,221.096 926.905,223.763 923.5,225.5C 918.591,233.079 912.925,240.079 906.5,246.5C 906.919,247.672 907.585,248.672 908.5,249.5C 932.783,262.032 957.116,274.365 981.5,286.5C 981.5,287.167 981.5,287.833 981.5,288.5C 977.391,289.609 975.058,292.275 974.5,296.5C 973.778,296.918 973.278,297.584 973,298.5C 972.501,303.155 972.334,307.821 972.5,312.5C 972.919,318.973 972.253,325.306 970.5,331.5C 968.068,334.98 964.735,336.98 960.5,337.5C 955.543,343.08 951.876,349.413 949.5,356.5C 947.868,359.146 945.535,360.479 942.5,360.5C 938.029,359.911 934.029,360.577 930.5,362.5C 917.659,362.29 912.992,368.624 916.5,381.5C 916.346,389.263 917.013,396.929 918.5,404.5C 919.519,407.794 919.519,411.128 918.5,414.5C 916.249,417.758 913.583,420.758 910.5,423.5C 906.59,425.407 903.256,428.073 900.5,431.5C 895.544,432.494 890.544,432.827 885.5,432.5C 885.03,431.307 884.03,430.64 882.5,430.5C 880.97,430.64 879.97,431.307 879.5,432.5C 878.751,433.531 878.085,434.698 877.5,436C 873.273,436.716 869.94,438.883 867.5,442.5C 865.806,447.209 864.139,451.875 862.5,456.5C 852.862,457.823 844.862,462.156 838.5,469.5C 832.876,472.155 827.543,475.155 822.5,478.5C 820.323,479.279 818.656,480.613 817.5,482.5C 815.678,482.831 814.011,483.498 812.5,484.5C 810.323,485.279 808.656,486.613 807.5,488.5C 805.678,488.831 804.011,489.498 802.5,490.5C 800.323,491.279 798.656,492.613 797.5,494.5C 795.678,494.831 794.011,495.498 792.5,496.5C 790.323,497.279 788.656,498.613 787.5,500.5C 766.402,512.553 745.402,524.887 724.5,537.5C 722.471,539.863 720.138,541.863 717.5,543.5C 711.612,544.807 705.779,544.807 700,543.5C 697.412,544.584 695.245,546.251 693.5,548.5C 689.064,556.467 685.397,564.8 682.5,573.5C 678.732,576.35 674.732,578.683 670.5,580.5C 668.323,581.279 666.656,582.613 665.5,584.5C 665.167,584.5 664.833,584.5 664.5,584.5C 662.081,585.364 660.081,586.697 658.5,588.5C 651.852,591.835 645.852,596.168 640.5,601.5C 636.014,603.772 631.347,605.439 626.5,606.5C 623.612,605.99 621.279,606.656 619.5,608.5C 613.402,608.603 607.735,610.27 602.5,613.5C 595.364,622.268 586.697,629.101 576.5,634C 573.854,634.497 571.187,634.664 568.5,634.5C 566.712,634.215 565.045,634.548 563.5,635.5C 562.787,637.776 562.287,640.109 562,642.5C 561.1,643.77 559.934,644.77 558.5,645.5C 547.186,646.499 535.853,646.832 524.5,646.5C 521.467,646.868 518.8,646.202 516.5,644.5C 507.39,624.946 497.723,605.613 487.5,586.5C 485.314,582.802 482.647,579.468 479.5,576.5C 442.359,595.234 404.692,613.234 366.5,630.5C 361.075,627.661 355.741,624.661 350.5,621.5C 347.114,618.117 344.114,614.451 341.5,610.5C 336.761,614.394 331.428,617.228 325.5,619C 314.512,624.826 303.846,631.159 293.5,638C 291.235,639.118 288.901,639.951 286.5,640.5C 284.323,641.279 282.656,642.613 281.5,644.5C 273.57,648.121 265.904,652.121 258.5,656.5C 256.323,657.279 254.656,658.613 253.5,660.5C 248.262,662.743 243.262,665.409 238.5,668.5C 234.924,669.778 231.924,671.778 229.5,674.5C 223.354,678.074 217.02,681.408 210.5,684.5C 208.323,685.279 206.656,686.613 205.5,688.5C 199.318,692.091 192.984,695.425 186.5,698.5C 184.323,699.279 182.656,700.613 181.5,702.5C 175.354,706.074 169.02,709.408 162.5,712.5C 160.323,713.279 158.656,714.613 157.5,716.5C 146.326,722.252 135.326,728.252 124.5,734.5C 122.323,735.279 120.656,736.613 119.5,738.5C 111.746,742.547 104.08,746.881 96.5,751.5C 92.6864,753.744 88.6864,755.411 84.5,756.5C 83.8926,753.285 82.7259,750.285 81,747.5C 80.9448,732.155 81.4448,716.821 82.5,701.5C 79.9475,696.939 76.6141,692.939 72.5,689.5C 71.3112,688.571 69.9778,688.238 68.5,688.5C 68.7036,686.315 69.3702,684.315 70.5,682.5C 71.2216,682.082 71.7216,681.416 72,680.5C 72.4996,673.842 72.6663,667.175 72.5,660.5C 73.8592,658.482 75.1925,656.482 76.5,654.5C 78.1765,653.817 78.8432,652.483 78.5,650.5C 79.1564,646.636 80.1564,642.803 81.5,639C 80.9717,636.138 80.3051,633.304 79.5,630.5C 76.0152,628.505 72.3486,626.838 68.5,625.5C 66.8149,623.983 65.3149,622.316 64,620.5C 63.6451,613.655 63.1451,606.822 62.5,600C 62.4092,597.225 63.0759,594.725 64.5,592.5C 65.2216,592.082 65.7216,591.416 66,590.5C 66.4988,586.514 66.6655,582.514 66.5,578.5C 65.8931,565.431 64.5597,552.431 62.5,539.5C 56.6036,532.717 51.4369,525.384 47,517.5C 46.2893,508.197 43.1227,499.864 37.5,492.5C 36.7388,487.171 36.0721,481.838 35.5,476.5C 44.1105,460.71 53.7772,445.543 64.5,431C 64.8333,430 65.1667,429 65.5,428C 64.2152,421.966 62.5485,416.133 60.5,410.5C 62.5,410.5 64.5,410.5 66.5,410.5C 66.9704,411.693 67.9704,412.36 69.5,412.5C 71.0296,412.36 72.0296,411.693 72.5,410.5C 78.1066,407.689 81.2733,403.022 82,396.5C 83.0828,383.181 83.9162,369.848 84.5,356.5C 85.7899,354.208 87.4565,352.208 89.5,350.5C 96.3822,346.948 102.716,342.615 108.5,337.5C 112.527,329.158 115.527,320.491 117.5,311.5C 115.436,307.456 114.103,303.123 113.5,298.5C 107.3,292.345 99.9663,288.012 91.5,285.5C 84.0682,281.107 82.5682,275.107 87,267.5C 88.8573,265.482 91.024,263.815 93.5,262.5C 94.2548,259.675 95.2548,257.009 96.5,254.5C 97.3764,254.631 98.0431,254.298 98.5,253.5C 98.0576,252.261 97.3909,251.261 96.5,250.5C 93.3989,246.771 89.3989,244.437 84.5,243.5C 86.4356,240.359 88.4356,237.359 90.5,234.5C 91.3764,234.631 92.0431,234.298 92.5,233.5C 92.0576,232.261 91.3909,231.261 90.5,230.5C 87.6216,226.998 84.2883,226.832 80.5,230C 77.1379,231.293 75.1379,230.293 74.5,227C 76.5676,219.288 80.2342,212.454 85.5,206.5C 86.7795,202.97 86.4462,199.637 84.5,196.5C 79.8602,190.859 74.8602,185.526 69.5,180.5C 68.1826,178.713 68.516,177.046 70.5,175.5C 73.1668,174.366 75.8334,173.366 78.5,172.5C 78.4657,168.37 77.799,164.37 76.5,160.5C 69.9589,158.688 63.9589,155.688 58.5,151.5C 43.094,142.963 26.7607,136.963 9.5,133.5C 8.05207,132.646 6.71874,131.646 5.5,130.5C 4.49864,127.827 2.99864,125.493 1,123.5C 0.503354,121.19 0.336688,118.857 0.5,116.5C 0.534303,112.37 1.20097,108.37 2.5,104.5C 4.14082,97.8185 6.80749,91.4851 10.5,85.5C 16.7277,79.8878 23.7277,75.5545 31.5,72.5C 38.0433,74.5471 44.7099,75.8804 51.5,76.5C 55.462,78.3599 59.7954,79.6932 64.5,80.5C 77.0114,83.8728 89.6781,86.5395 102.5,88.5C 106.462,90.3599 110.795,91.6932 115.5,92.5C 116.833,92.5 118.167,92.5 119.5,92.5C 123.399,94.5692 127.732,95.9025 132.5,96.5C 139.334,98.6242 146.334,99.9575 153.5,100.5C 157.399,102.569 161.732,103.903 166.5,104.5C 167.833,104.5 169.167,104.5 170.5,104.5C 174.462,106.36 178.795,107.693 183.5,108.5C 189.47,109.825 195.47,111.158 201.5,112.5C 203.167,112.167 204.833,111.833 206.5,111.5C 214.393,97.3234 221.727,82.9901 228.5,68.5C 235.833,70.7789 243.167,72.9456 250.5,75C 261.259,78.9248 271.926,83.0915 282.5,87.5C 284.833,88.8333 287.167,88.8333 289.5,87.5C 290.195,84.7198 291.195,82.0531 292.5,79.5C 300.408,68.0236 308.075,56.3569 315.5,44.5C 323.826,34.8399 332.159,25.1732 340.5,15.5C 348.542,11.8819 356.876,8.88186 365.5,6.5C 374.247,9.55168 383.247,10.885 392.5,10.5C 394.223,11.8001 396.39,12.4668 399,12.5C 401.61,12.4668 403.777,11.8001 405.5,10.5C 417.246,9.73995 428.913,8.40661 440.5,6.5C 444.029,8.42277 448.029,9.08943 452.5,8.5C 454.591,9.86542 456.924,10.5321 459.5,10.5C 461.223,11.8001 463.39,12.4668 466,12.5C 468.61,12.4668 470.777,11.8001 472.5,10.5C 474.5,10.5 476.5,10.5 478.5,10.5C 483.294,11.0969 487.627,10.4302 491.5,8.5C 495.833,8.5 500.167,8.5 504.5,8.5C 509.294,9.0969 513.627,8.43023 517.5,6.5C 521.833,6.5 526.167,6.5 530.5,6.5C 535.294,7.0969 539.627,6.43023 543.5,4.5C 547.833,4.5 552.167,4.5 556.5,4.5C 561.294,5.0969 565.627,4.43023 569.5,2.5C 573.833,2.5 578.167,2.5 582.5,2.5C 587.294,3.0969 591.627,2.43023 595.5,0.5 Z"/></g>
<g><path style="opacity:1" fill="#857fb4" d="M 569.5,2.5 C 565.627,4.43023 561.294,5.0969 556.5,4.5C 560.73,3.77984 565.063,3.11317 569.5,2.5 Z"/></g>
<g><path style="opacity:1" fill="#8580b4" d="M 543.5,4.5 C 539.627,6.43023 535.294,7.0969 530.5,6.5C 534.73,5.77984 539.063,5.11317 543.5,4.5 Z"/></g>
<g><path style="opacity:1" fill="#b0acc8" d="M 621.5,4.5 C 627.44,5.03025 633.107,6.36359 638.5,8.5C 632.441,7.83467 626.774,6.50133 621.5,4.5 Z"/></g>
<g><path style="opacity:1" fill="#8984b4" d="M 440.5,6.5 C 444.605,7.10857 448.605,7.77523 452.5,8.5C 448.029,9.08943 444.029,8.42277 440.5,6.5 Z"/></g>
<g><path style="opacity:1" fill="#857fb4" d="M 517.5,6.5 C 513.627,8.43023 509.294,9.0969 504.5,8.5C 508.73,7.77984 513.063,7.11317 517.5,6.5 Z"/></g>
<g><path style="opacity:1" fill="#8883b4" d="M 740.5,6.5 C 736.285,8.43644 731.619,9.1031 726.5,8.5C 731.064,7.78377 735.731,7.1171 740.5,6.5 Z"/></g>
<g><path style="opacity:1" fill="#8984b4" d="M 788.5,6.5 C 804.422,7.48414 820.422,7.81747 836.5,7.5C 836.5,7.83333 836.5,8.16667 836.5,8.5C 820.132,9.15145 804.132,8.48478 788.5,6.5 Z"/></g>
<g><path style="opacity:1" fill="#e0e0e0" d="M 836.5,8.5 C 836.5,8.16667 836.5,7.83333 836.5,7.5C 880.833,7.5 925.167,7.5 969.5,7.5C 969.768,9.09903 969.434,10.4324 968.5,11.5C 968.5,11.1667 968.5,10.8333 968.5,10.5C 924.846,8.50522 880.846,7.83856 836.5,8.5 Z"/></g>
<g><path style="opacity:1" fill="#8580b4" d="M 491.5,8.5 C 487.627,10.4302 483.294,11.0969 478.5,10.5C 482.73,9.77984 487.063,9.11317 491.5,8.5 Z"/></g>
<g><path style="opacity:1" fill="#b4b0ca" d="M 644.5,8.5 C 650.151,8.91575 655.484,10.2491 660.5,12.5C 654.798,11.7207 649.465,10.3873 644.5,8.5 Z"/></g>
<g><path style="opacity:1" fill="#8984b4" d="M 712.5,8.5 C 708.285,10.4364 703.619,11.1031 698.5,10.5C 703.064,9.78377 707.731,9.1171 712.5,8.5 Z"/></g>
<g><path style="opacity:1" fill="#8681b5" d="M 392.5,10.5 C 396.833,11.8333 401.167,11.8333 405.5,10.5C 403.777,11.8001 401.61,12.4668 399,12.5C 396.39,12.4668 394.223,11.8001 392.5,10.5 Z"/></g>
<g><path style="opacity:1" fill="#8681b5" d="M 459.5,10.5 C 463.833,11.8333 468.167,11.8333 472.5,10.5C 470.777,11.8001 468.61,12.4668 466,12.5C 463.39,12.4668 461.223,11.8001 459.5,10.5 Z"/></g>
<g><path style="opacity:1" fill="#847db5" d="M 685.5,10.5 C 682.316,12.4136 678.649,13.0803 674.5,12.5C 678.061,11.7698 681.727,11.1031 685.5,10.5 Z"/></g>
<g><path style="opacity:1" fill="#756eb5" d="M 968.5,10.5 C 968.5,10.8333 968.5,11.1667 968.5,11.5C 967.949,15.9732 967.283,20.3066 966.5,24.5C 966.334,20.4862 966.501,16.4862 967,12.5C 967.278,11.5842 967.778,10.9175 968.5,10.5 Z"/></g>
<g><path style="opacity:1" fill="#766eb5" d="M 966.5,38.5 C 965.167,46.5 965.167,54.5 966.5,62.5C 965.778,62.0825 965.278,61.4158 965,60.5C 964.333,53.8333 964.333,47.1667 965,40.5C 965.278,39.5842 965.778,38.9175 966.5,38.5 Z"/></g>
<g><path style="opacity:1" fill="#b7b3cc" d="M 51.5,76.5 C 56.2167,76.8747 60.5501,78.208 64.5,80.5C 59.7954,79.6932 55.462,78.3599 51.5,76.5 Z"/></g>
<g><path style="opacity:1" fill="#756eb4" d="M 966.5,78.5 C 967.296,84.3504 967.963,90.3504 968.5,96.5C 967.778,96.0825 967.278,95.4158 967,94.5C 966.501,89.1771 966.334,83.8437 966.5,78.5 Z"/></g>
<g><path style="opacity:1" fill="#b8b5cc" d="M 102.5,88.5 C 107.217,88.8747 111.55,90.208 115.5,92.5C 110.795,91.6932 106.462,90.3599 102.5,88.5 Z"/></g>
<g><path style="opacity:1" fill="#b2adca" d="M 119.5,92.5 C 124.145,93.0738 128.478,94.4071 132.5,96.5C 127.732,95.9025 123.399,94.5692 119.5,92.5 Z"/></g>
<g><path style="opacity:1" fill="#aea9c9" d="M 153.5,100.5 C 158.145,101.074 162.478,102.407 166.5,104.5C 161.732,103.903 157.399,102.569 153.5,100.5 Z"/></g>
<g><path style="opacity:1" fill="#b9b5cd" d="M 170.5,104.5 C 175.217,104.875 179.55,106.208 183.5,108.5C 178.795,107.693 174.462,106.36 170.5,104.5 Z"/></g>
<g><path style="opacity:1" fill="#a69fc5" d="M 2.5,104.5 C 1.20097,108.37 0.534303,112.37 0.5,116.5C 0.166667,116.5 -0.166667,116.5 -0.5,116.5C -0.5,113.5 -0.5,110.5 -0.5,107.5C 0.899922,106.9 1.89992,105.9 2.5,104.5 Z"/></g>
<g><path style="opacity:1" fill="#746cb4" d="M 968.5,112.5 C 969.296,118.35 969.963,124.35 970.5,130.5C 969.778,130.082 969.278,129.416 969,128.5C 968.501,123.177 968.334,117.844 968.5,112.5 Z"/></g>
<g><path style="opacity:1" fill="#bcb9cb" d="M 69.5,180.5 C 74.8602,185.526 79.8602,190.859 84.5,196.5C 78.4181,192.088 73.4181,186.754 69.5,180.5 Z"/></g>
<g><path style="opacity:1" fill="#8e88bd" d="M 90.5,230.5 C 91.3909,231.261 92.0576,232.261 92.5,233.5C 92.0431,234.298 91.3764,234.631 90.5,234.5C 90.5,233.167 90.5,231.833 90.5,230.5 Z"/></g>
<g><path style="opacity:1" fill="#8f89bd" d="M 96.5,250.5 C 97.3909,251.261 98.0576,252.261 98.5,253.5C 98.0431,254.298 97.3764,254.631 96.5,254.5C 96.5,253.167 96.5,251.833 96.5,250.5 Z"/></g>
<g><path style="opacity:1" fill="#fefefe" d="M -0.5,116.5 C -0.166667,116.5 0.166667,116.5 0.5,116.5C 0.336688,118.857 0.503354,121.19 1,123.5C 2.99864,125.493 4.49864,127.827 5.5,130.5C 6.71874,131.646 8.05207,132.646 9.5,133.5C 26.7607,136.963 43.094,142.963 58.5,151.5C 63.9589,155.688 69.9589,158.688 76.5,160.5C 77.799,164.37 78.4657,168.37 78.5,172.5C 75.8334,173.366 73.1668,174.366 70.5,175.5C 68.516,177.046 68.1826,178.713 69.5,180.5C 73.4181,186.754 78.4181,192.088 84.5,196.5C 86.4462,199.637 86.7795,202.97 85.5,206.5C 80.2342,212.454 76.5676,219.288 74.5,227C 75.1379,230.293 77.1379,231.293 80.5,230C 84.2883,226.832 87.6216,226.998 90.5,230.5C 90.5,231.833 90.5,233.167 90.5,234.5C 88.4356,237.359 86.4356,240.359 84.5,243.5C 89.3989,244.437 93.3989,246.771 96.5,250.5C 96.5,251.833 96.5,253.167 96.5,254.5C 95.2548,257.009 94.2548,259.675 93.5,262.5C 91.024,263.815 88.8573,265.482 87,267.5C 82.5682,275.107 84.0682,281.107 91.5,285.5C 99.9663,288.012 107.3,292.345 113.5,298.5C 114.103,303.123 115.436,307.456 117.5,311.5C 115.527,320.491 112.527,329.158 108.5,337.5C 102.716,342.615 96.3822,346.948 89.5,350.5C 87.4565,352.208 85.7899,354.208 84.5,356.5C 83.9162,369.848 83.0828,383.181 82,396.5C 81.2733,403.022 78.1066,407.689 72.5,410.5C 70.5,411.833 68.5,411.833 66.5,410.5C 64.5,410.5 62.5,410.5 60.5,410.5C 62.5485,416.133 64.2152,421.966 65.5,428C 65.1667,429 64.8333,430 64.5,431C 53.7772,445.543 44.1105,460.71 35.5,476.5C 36.0721,481.838 36.7388,487.171 37.5,492.5C 43.1227,499.864 46.2893,508.197 47,517.5C 51.4369,525.384 56.6036,532.717 62.5,539.5C 64.5597,552.431 65.8931,565.431 66.5,578.5C 65.659,583.01 64.9924,587.676 64.5,592.5C 63.0759,594.725 62.4092,597.225 62.5,600C 63.1451,606.822 63.6451,613.655 64,620.5C 65.3149,622.316 66.8149,623.983 68.5,625.5C 72.3486,626.838 76.0152,628.505 79.5,630.5C 80.3051,633.304 80.9717,636.138 81.5,639C 80.1564,642.803 79.1564,646.636 78.5,650.5C 77.6554,651.671 76.9887,653.005 76.5,654.5C 75.1925,656.482 73.8592,658.482 72.5,660.5C 71.7306,667.687 71.0639,675.021 70.5,682.5C 69.3702,684.315 68.7036,686.315 68.5,688.5C 69.9778,688.238 71.3112,688.571 72.5,689.5C 76.6141,692.939 79.9475,696.939 82.5,701.5C 81.4448,716.821 80.9448,732.155 81,747.5C 82.7259,750.285 83.8926,753.285 84.5,756.5C 88.6864,755.411 92.6864,753.744 96.5,751.5C 104.08,746.881 111.746,742.547 119.5,738.5C 121.889,738.021 123.556,736.688 124.5,734.5C 135.326,728.252 146.326,722.252 157.5,716.5C 159.889,716.021 161.556,714.688 162.5,712.5C 169.02,709.408 175.354,706.074 181.5,702.5C 183.889,702.021 185.556,700.688 186.5,698.5C 192.984,695.425 199.318,692.091 205.5,688.5C 207.889,688.021 209.556,686.688 210.5,684.5C 217.02,681.408 223.354,678.074 229.5,674.5C 233.081,673.221 236.081,671.221 238.5,668.5C 243.262,665.409 248.262,662.743 253.5,660.5C 255.889,660.021 257.556,658.688 258.5,656.5C 265.904,652.121 273.57,648.121 281.5,644.5C 283.889,644.021 285.556,642.688 286.5,640.5C 288.901,639.951 291.235,639.118 293.5,638C 303.846,631.159 314.512,624.826 325.5,619C 331.428,617.228 336.761,614.394 341.5,610.5C 344.114,614.451 347.114,618.117 350.5,621.5C 355.741,624.661 361.075,627.661 366.5,630.5C 404.692,613.234 442.359,595.234 479.5,576.5C 482.647,579.468 485.314,582.802 487.5,586.5C 497.723,605.613 507.39,624.946 516.5,644.5C 516.5,645.5 516.5,646.5 516.5,647.5C 519.167,647.5 521.833,647.5 524.5,647.5C 536.186,647.832 547.852,647.499 559.5,646.5C 560.5,645.833 561.5,645.167 562.5,644.5C 563.167,641.833 563.833,639.167 564.5,636.5C 565.949,635.828 567.282,635.161 568.5,634.5C 571.187,634.664 573.854,634.497 576.5,634C 586.697,629.101 595.364,622.268 602.5,613.5C 607.735,610.27 613.402,608.603 619.5,608.5C 621.952,607.935 624.285,607.268 626.5,606.5C 631.347,605.439 636.014,603.772 640.5,601.5C 645.852,596.168 651.852,591.835 658.5,588.5C 661.226,588.145 663.226,586.812 664.5,584.5C 664.833,584.5 665.167,584.5 665.5,584.5C 667.889,584.021 669.556,582.688 670.5,580.5C 674.732,578.683 678.732,576.35 682.5,573.5C 685.397,564.8 689.064,556.467 693.5,548.5C 695.245,546.251 697.412,544.584 700,543.5C 705.779,544.807 711.612,544.807 717.5,543.5C 720.138,541.863 722.471,539.863 724.5,537.5C 745.402,524.887 766.402,512.553 787.5,500.5C 789.889,500.021 791.556,498.688 792.5,496.5C 794.011,495.498 795.678,494.831 797.5,494.5C 799.889,494.021 801.556,492.688 802.5,490.5C 804.011,489.498 805.678,488.831 807.5,488.5C 809.889,488.021 811.556,486.688 812.5,484.5C 814.011,483.498 815.678,482.831 817.5,482.5C 819.889,482.021 821.556,480.688 822.5,478.5C 827.543,475.155 832.876,472.155 838.5,469.5C 844.862,462.156 852.862,457.823 862.5,456.5C 864.139,451.875 865.806,447.209 867.5,442.5C 869.94,438.883 873.273,436.716 877.5,436C 878.085,434.698 878.751,433.531 879.5,432.5C 881.5,431.167 883.5,431.167 885.5,432.5C 890.544,432.827 895.544,432.494 900.5,431.5C 903.256,428.073 906.59,425.407 910.5,423.5C 913.583,420.758 916.249,417.758 918.5,414.5C 919.734,412.799 920.401,410.799 920.5,408.5C 920.66,406.645 919.993,405.312 918.5,404.5C 917.013,396.929 916.346,389.263 916.5,381.5C 912.992,368.624 917.659,362.29 930.5,362.5C 934.605,361.891 938.605,361.225 942.5,360.5C 945.535,360.479 947.868,359.146 949.5,356.5C 951.876,349.413 955.543,343.08 960.5,337.5C 964.735,336.98 968.068,334.98 970.5,331.5C 972.253,325.306 972.919,318.973 972.5,312.5C 973.315,307.319 973.982,301.986 974.5,296.5C 975.058,292.275 977.391,289.609 981.5,288.5C 981.5,444.833 981.5,601.167 981.5,757.5C 654.167,757.5 326.833,757.5 -0.5,757.5C -0.5,543.833 -0.5,330.167 -0.5,116.5 Z"/></g>
<g><path style="opacity:1" fill="#756db4" d="M 974.5,296.5 C 973.982,301.986 973.315,307.319 972.5,312.5C 972.334,307.821 972.501,303.155 973,298.5C 973.278,297.584 973.778,296.918 974.5,296.5 Z"/></g>
<g><path style="opacity:1" fill="#8984b4" d="M 942.5,360.5 C 938.605,361.225 934.605,361.891 930.5,362.5C 934.029,360.577 938.029,359.911 942.5,360.5 Z"/></g>
<g><path style="opacity:1" fill="#7e76b8" d="M 918.5,404.5 C 919.993,405.312 920.66,406.645 920.5,408.5C 920.401,410.799 919.734,412.799 918.5,414.5C 919.519,411.128 919.519,407.794 918.5,404.5 Z"/></g>
<g><path style="opacity:1" fill="#8b86b6" d="M 66.5,410.5 C 68.5,411.833 70.5,411.833 72.5,410.5C 72.0296,411.693 71.0296,412.36 69.5,412.5C 67.9704,412.36 66.9704,411.693 66.5,410.5 Z"/></g>
<g><path style="opacity:1" fill="#8078b8" d="M 885.5,432.5 C 883.5,431.167 881.5,431.167 879.5,432.5C 879.97,431.307 880.97,430.64 882.5,430.5C 884.03,430.64 885.03,431.307 885.5,432.5 Z"/></g>
<g><path style="opacity:1" fill="#a5a0c6" d="M 822.5,478.5 C 821.556,480.688 819.889,482.021 817.5,482.5C 818.656,480.613 820.323,479.279 822.5,478.5 Z"/></g>
<g><path style="opacity:1" fill="#a49ec5" d="M 812.5,484.5 C 811.556,486.688 809.889,488.021 807.5,488.5C 808.656,486.613 810.323,485.279 812.5,484.5 Z"/></g>
<g><path style="opacity:1" fill="#a59fc6" d="M 802.5,490.5 C 801.556,492.688 799.889,494.021 797.5,494.5C 798.656,492.613 800.323,491.279 802.5,490.5 Z"/></g>
<g><path style="opacity:1" fill="#a5a0c6" d="M 792.5,496.5 C 791.556,498.688 789.889,500.021 787.5,500.5C 788.656,498.613 790.323,497.279 792.5,496.5 Z"/></g>
<g><path style="opacity:1" fill="#7a72b5" d="M 66.5,578.5 C 66.6655,582.514 66.4988,586.514 66,590.5C 65.7216,591.416 65.2216,592.082 64.5,592.5C 64.9924,587.676 65.659,583.01 66.5,578.5 Z"/></g>
<g><path style="opacity:1" fill="#a59fc6" d="M 670.5,580.5 C 669.556,582.688 667.889,584.021 665.5,584.5C 666.656,582.613 668.323,581.279 670.5,580.5 Z"/></g>
<g><path style="opacity:1" fill="#a7a2c6" d="M 664.5,584.5 C 663.226,586.812 661.226,588.145 658.5,588.5C 660.081,586.697 662.081,585.364 664.5,584.5 Z"/></g>
<g><path style="opacity:1" fill="#847eb6" d="M 626.5,606.5 C 624.285,607.268 621.952,607.935 619.5,608.5C 621.279,606.656 623.612,605.99 626.5,606.5 Z"/></g>
<g><path style="opacity:1" fill="#a49ec5" d="M 286.5,640.5 C 285.556,642.688 283.889,644.021 281.5,644.5C 282.656,642.613 284.323,641.279 286.5,640.5 Z"/></g>
<g><path style="opacity:1" fill="#8f89b7" d="M 516.5,644.5 C 518.8,646.202 521.467,646.868 524.5,646.5C 524.5,646.833 524.5,647.167 524.5,647.5C 521.833,647.5 519.167,647.5 516.5,647.5C 516.5,646.5 516.5,645.5 516.5,644.5 Z"/></g>
<g><path style="opacity:1" fill="#d2d0d9" d="M 568.5,634.5 C 567.282,635.161 565.949,635.828 564.5,636.5C 563.833,639.167 563.167,641.833 562.5,644.5C 561.5,645.167 560.5,645.833 559.5,646.5C 547.852,647.499 536.186,647.832 524.5,647.5C 524.5,647.167 524.5,646.833 524.5,646.5C 535.853,646.832 547.186,646.499 558.5,645.5C 559.934,644.77 561.1,643.77 562,642.5C 562.287,640.109 562.787,637.776 563.5,635.5C 565.045,634.548 566.712,634.215 568.5,634.5 Z"/></g>
<g><path style="opacity:1" fill="#8981b8" d="M 78.5,650.5 C 78.8432,652.483 78.1765,653.817 76.5,654.5C 76.9887,653.005 77.6554,651.671 78.5,650.5 Z"/></g>
<g><path style="opacity:1" fill="#a5a0c6" d="M 258.5,656.5 C 257.556,658.688 255.889,660.021 253.5,660.5C 254.656,658.613 256.323,657.279 258.5,656.5 Z"/></g>
<g><path style="opacity:1" fill="#766db4" d="M 72.5,660.5 C 72.6663,667.175 72.4996,673.842 72,680.5C 71.7216,681.416 71.2216,682.082 70.5,682.5C 71.0639,675.021 71.7306,667.687 72.5,660.5 Z"/></g>
<g><path style="opacity:1" fill="#afa9cc" d="M 238.5,668.5 C 236.081,671.221 233.081,673.221 229.5,674.5C 231.924,671.778 234.924,669.778 238.5,668.5 Z"/></g>
<g><path style="opacity:1" fill="#a59fc6" d="M 210.5,684.5 C 209.556,686.688 207.889,688.021 205.5,688.5C 206.656,686.613 208.323,685.279 210.5,684.5 Z"/></g>
<g><path style="opacity:1" fill="#a59fc6" d="M 186.5,698.5 C 185.556,700.688 183.889,702.021 181.5,702.5C 182.656,700.613 184.323,699.279 186.5,698.5 Z"/></g>
<g><path style="opacity:1" fill="#a59fc6" d="M 162.5,712.5 C 161.556,714.688 159.889,716.021 157.5,716.5C 158.656,714.613 160.323,713.279 162.5,712.5 Z"/></g>
<g><path style="opacity:1" fill="#a49ec5" d="M 124.5,734.5 C 123.556,736.688 121.889,738.021 119.5,738.5C 120.656,736.613 122.323,735.279 124.5,734.5 Z"/></g>
</svg>
