<?xml version="1.0" encoding="UTF-8"?>
<!DOCTYPE svg PUBLIC "-//W3C//DTD SVG 1.1//EN" "http://www.w3.org/Graphics/SVG/1.1/DTD/svg11.dtd">
<svg xmlns="http://www.w3.org/2000/svg" version="1.1" width="639px" height="1148px" style="shape-rendering:geometricPrecision; text-rendering:geometricPrecision; image-rendering:optimizeQuality; fill-rule:evenodd; clip-rule:evenodd" xmlns:xlink="http://www.w3.org/1999/xlink">
<g><path style="opacity:1" fill="#fefffe" d="M -0.5,-0.5 C 81.1667,-0.5 162.833,-0.5 244.5,-0.5C 244.198,2.0593 244.532,4.39263 245.5,6.5C 246.493,19.2583 247.66,31.925 249,44.5C 248.275,45.0585 247.442,45.3918 246.5,45.5C 238.883,43.8086 231.216,42.4752 223.5,41.5C 221.325,41.3178 219.325,40.6511 217.5,39.5C 216.263,39.5565 215.263,40.0565 214.5,41C 205.324,41.1703 196.324,41.6703 187.5,42.5C 183.6,43.4299 179.6,43.7633 175.5,43.5C 161.017,44.4633 146.684,45.4633 132.5,46.5C 128.366,47.4849 124.032,47.8182 119.5,47.5C 102.358,48.6185 85.3581,49.6185 68.5,50.5C 46.3396,51.4974 24.0062,51.8308 1.5,51.5C 0.833333,51.5 0.166667,51.5 -0.5,51.5C -0.5,34.1667 -0.5,16.8333 -0.5,-0.5 Z"/></g>
<g><path style="opacity:1" fill="#cbcbcb" d="M 244.5,-0.5 C 262.167,-0.5 279.833,-0.5 297.5,-0.5C 280.341,0.496655 263.008,0.829988 245.5,0.5C 245.5,2.16667 245.5,3.83333 245.5,5.5C 245.5,5.83333 245.5,6.16667 245.5,6.5C 244.532,4.39263 244.198,2.0593 244.5,-0.5 Z"/></g>
<g><path style="opacity:1" fill="#fefefe" d="M 338.5,-0.5 C 438.5,-0.5 538.5,-0.5 638.5,-0.5C 638.5,54.8333 638.5,110.167 638.5,165.5C 636.824,164.817 636.157,163.483 636.5,161.5C 633.547,161.85 631.213,160.85 629.5,158.5C 626.167,156.5 623.5,153.833 621.5,150.5C 619.958,149.837 618.291,149.17 616.5,148.5C 615.481,146.396 614.481,144.396 613.5,142.5C 612.167,142.5 611.5,141.833 611.5,140.5C 610.226,135.621 610.893,130.955 613.5,126.5C 616.073,124.868 616.739,122.702 615.5,120C 620.202,114.503 619.202,110.503 612.5,108C 598.388,106.231 594.388,98.7307 600.5,85.5C 598.167,85.5 595.833,85.5 593.5,85.5C 589.629,85.815 585.962,85.4816 582.5,84.5C 570.986,83.3934 559.319,82.3934 547.5,81.5C 544.061,81.7471 540.728,81.4137 537.5,80.5C 529.833,79.8333 522.167,79.1667 514.5,78.5C 502.848,77.7719 491.181,76.7719 479.5,75.5C 475.629,75.815 471.962,75.4816 468.5,74.5C 461.167,73.8333 453.833,73.1667 446.5,72.5C 437.167,71.8333 427.833,71.1667 418.5,70.5C 400.988,69.431 383.321,68.431 365.5,67.5C 360.305,67.8205 355.305,67.4872 350.5,66.5C 349.602,65.8423 348.602,65.1757 347.5,64.5C 352.184,47.4285 357.017,30.4285 362,13.5C 362.78,11.6131 362.613,9.94639 361.5,8.5C 354.528,5.46624 347.194,2.96624 339.5,1C 338.944,0.617425 338.611,0.117425 338.5,-0.5 Z"/></g>
<g><path style="opacity:1" fill="#f1a1b4" d="M 297.5,-0.5 C 300.833,-0.5 304.167,-0.5 307.5,-0.5C 317.341,0.166644 327.341,0.833311 337.5,1.5C 345.36,4.45481 353.36,6.78814 361.5,8.5C 356.189,27.7453 351.189,47.0786 346.5,66.5C 347.5,66.5 348.5,66.5 349.5,66.5C 354.396,68.4461 359.729,69.1128 365.5,68.5C 382.803,69.7922 400.137,70.4589 417.5,70.5C 426.44,72.4722 435.773,73.1389 445.5,72.5C 452.424,74.4633 459.757,75.1299 467.5,74.5C 471.029,76.4228 475.029,77.0894 479.5,76.5C 490.659,78.13 501.993,78.7967 513.5,78.5C 520.76,80.4651 528.427,81.1318 536.5,80.5C 536.611,81.1174 536.944,81.6174 537.5,82C 540.817,82.4983 544.15,82.665 547.5,82.5C 558.79,83.7685 570.123,84.4351 581.5,84.5C 585.029,86.4228 589.029,87.0894 593.5,86.5C 595.604,86.2011 597.604,86.5344 599.5,87.5C 593.6,100.261 597.6,107.595 611.5,109.5C 614.068,110.28 616.068,111.78 617.5,114C 616.244,115.845 615.244,117.845 614.5,120C 614.645,120.772 614.978,121.439 615.5,122C 614.418,123.33 613.751,124.83 613.5,126.5C 610.843,129.103 609.51,132.436 609.5,136.5C 609.585,138.333 610.252,139.666 611.5,140.5C 611.5,141.833 612.167,142.5 613.5,142.5C 613.087,148.38 615.753,151.047 621.5,150.5C 623.5,153.833 626.167,156.5 629.5,158.5C 630.122,161.776 632.122,163.109 635.5,162.5C 639.642,174.048 636.642,183.214 626.5,190C 623.963,191.838 621.129,192.671 618,192.5C 608.088,188.892 597.922,187.892 587.5,189.5C 584.615,190.254 582.615,191.92 581.5,194.5C 579.5,195.167 578.167,196.5 577.5,198.5C 576.624,198.369 575.957,198.702 575.5,199.5C 571.415,209.59 568.082,219.924 565.5,230.5C 561.159,232.247 556.659,233.58 552,234.5C 548.915,234.637 546.082,233.97 543.5,232.5C 541.152,232.848 539.818,234.182 539.5,236.5C 535.079,236.891 533.413,239.391 534.5,244C 534.667,245.833 534.833,247.667 535,249.5C 536.333,250.167 537.333,251.167 538,252.5C 538.667,257.833 539.333,263.167 540,268.5C 541.389,271.87 540.556,274.87 537.5,277.5C 530.321,278.442 523.488,280.442 517,283.5C 516.516,285.913 516.85,288.246 518,290.5C 520.265,293.428 522.098,296.595 523.5,300C 520.31,304.349 516.976,308.516 513.5,312.5C 510.06,313.449 508.726,315.782 509.5,319.5C 509.423,323.68 510.757,327.347 513.5,330.5C 513.167,331.167 512.833,331.833 512.5,332.5C 508.325,334.116 504.325,336.116 500.5,338.5C 496.943,346.724 491.276,353.057 483.5,357.5C 482.626,359.747 482.292,362.08 482.5,364.5C 479.428,364.817 476.428,364.484 473.5,363.5C 472.412,362.066 471.078,361.066 469.5,360.5C 469.975,354.886 467.975,350.553 463.5,347.5C 459.795,345.955 457.129,346.955 455.5,350.5C 454.167,350.5 453.5,351.167 453.5,352.5C 452.265,352.721 451.265,353.388 450.5,354.5C 446.082,360.425 442.748,366.925 440.5,374C 442.203,378.7 443.537,383.534 444.5,388.5C 438.67,390.995 432.837,393.662 427,396.5C 424.264,397.761 422.431,399.761 421.5,402.5C 418.973,404.51 417.139,407.177 416,410.5C 415.095,414.819 414.762,419.152 415,423.5C 416.011,424.337 417.178,424.67 418.5,424.5C 419.492,426.026 420.992,426.693 423,426.5C 425.49,425.664 427.99,424.998 430.5,424.5C 432.179,424.285 433.179,424.952 433.5,426.5C 431.396,427.759 429.396,429.259 427.5,431C 426.177,431.816 425.511,432.983 425.5,434.5C 421.732,434.924 419.065,436.924 417.5,440.5C 414.573,447.541 413.24,454.874 413.5,462.5C 414.675,462.281 415.675,462.614 416.5,463.5C 415.877,465.711 414.877,467.711 413.5,469.5C 408.987,471.295 404.32,472.462 399.5,473C 393.629,475.572 390.962,480.072 391.5,486.5C 389.5,487.167 388.167,488.5 387.5,490.5C 384.122,489.891 382.122,491.224 381.5,494.5C 376.294,496.566 373.961,500.566 374.5,506.5C 375.677,512.34 379.01,516.34 384.5,518.5C 384.167,521.167 383.833,523.833 383.5,526.5C 378.085,526.62 373.085,525.287 368.5,522.5C 366.712,523.283 365.712,524.616 365.5,526.5C 363.748,526.418 362.748,527.251 362.5,529C 362.707,530.95 363.707,532.116 365.5,532.5C 365.5,533.833 366.167,534.5 367.5,534.5C 367.966,537.624 369.299,540.29 371.5,542.5C 370.167,542.5 369.5,543.167 369.5,544.5C 364.523,543.826 360.189,545.16 356.5,548.5C 352.502,564.494 348.502,580.494 344.5,596.5C 345.112,599.441 346.779,601.441 349.5,602.5C 349.97,603.693 350.97,604.36 352.5,604.5C 354.5,603.833 356.5,603.167 358.5,602.5C 360.535,603.204 362.535,603.871 364.5,604.5C 366.17,616.187 368.17,627.854 370.5,639.5C 369.985,641.225 369.318,642.892 368.5,644.5C 365.749,646.91 363.415,649.577 361.5,652.5C 359.5,653.167 358.167,654.5 357.5,656.5C 355.414,657.148 354.414,658.648 354.5,661C 354.679,664.602 356.345,667.102 359.5,668.5C 359.5,669.833 360.167,670.5 361.5,670.5C 361.511,672.017 362.177,673.184 363.5,674C 368.357,676.625 372.857,679.792 377,683.5C 377.741,694.038 379.575,704.372 382.5,714.5C 381.096,725.773 379.43,737.106 377.5,748.5C 377.849,751.895 378.515,755.228 379.5,758.5C 380.211,760.545 381.544,761.878 383.5,762.5C 383.906,765.589 385.24,768.255 387.5,770.5C 389.58,778.653 391.58,786.82 393.5,795C 395.692,798.257 397.692,801.423 399.5,804.5C 399.5,805.833 400.167,806.5 401.5,806.5C 401.511,808.017 402.177,809.184 403.5,810C 408.956,813.417 414.956,815.25 421.5,815.5C 424.816,818.825 428.816,820.492 433.5,820.5C 434.141,824.607 435.474,828.44 437.5,832C 439.473,832.495 441.473,832.662 443.5,832.5C 444.303,836.169 443.136,838.836 440,840.5C 439.333,841.167 439.333,841.833 440,842.5C 443.922,845.545 448.088,848.211 452.5,850.5C 455.828,852.986 458.161,856.152 459.5,860C 458.151,864.529 456.151,868.696 453.5,872.5C 452.167,872.5 451.5,873.167 451.5,874.5C 449.508,874.328 447.842,874.995 446.5,876.5C 444.796,880.564 443.129,884.564 441.5,888.5C 438.687,889.446 437.354,891.446 437.5,894.5C 434.527,895.446 433.36,897.446 434,900.5C 437,904.833 440,909.167 443,913.5C 443.601,915.137 444.101,916.803 444.5,918.5C 438.974,925.656 437.474,933.656 440,942.5C 441.797,950.099 445.63,956.432 451.5,961.5C 452.689,962.429 454.022,962.762 455.5,962.5C 479.368,972.557 488.868,990.557 484,1016.5C 482.951,1018.11 481.451,1018.77 479.5,1018.5C 472.825,1018.33 466.158,1018.5 459.5,1019C 458.944,1019.38 458.611,1019.88 458.5,1020.5C 453.229,1023.44 448.896,1027.44 445.5,1032.5C 442.116,1032.86 439.116,1034.2 436.5,1036.5C 435.63,1041.16 434.797,1045.83 434,1050.5C 431.3,1059.93 434.133,1066.93 442.5,1071.5C 444.799,1075.88 446.132,1080.55 446.5,1085.5C 441.27,1095.86 438.27,1106.86 437.5,1118.5C 436.167,1118.5 435.5,1119.17 435.5,1120.5C 431.5,1120.5 429.5,1122.5 429.5,1126.5C 424.63,1132.24 421.297,1138.91 419.5,1146.5C 387.5,1146.5 355.5,1146.5 323.5,1146.5C 323.768,1144.9 323.434,1143.57 322.5,1142.5C 320.76,1122 319.427,1101.33 318.5,1080.5C 313.018,1079.68 308.184,1077.34 304,1073.5C 302.855,1068.92 302.189,1064.25 302,1059.5C 299.346,1057.84 296.513,1056.5 293.5,1055.5C 294.729,1052.3 293.562,1050.3 290,1049.5C 288.66,1045.84 288.493,1042.17 289.5,1038.5C 287.247,1030.65 285.747,1022.65 285,1014.5C 282.122,1012.96 278.955,1011.96 275.5,1011.5C 274.846,1009.14 273.513,1007.48 271.5,1006.5C 271.461,1005.42 271.127,1004.42 270.5,1003.5C 272.371,1000.77 273.371,997.766 273.5,994.5C 273.5,993.167 273.5,991.833 273.5,990.5C 271.5,990.5 269.5,990.5 267.5,990.5C 265.86,987.512 265.026,984.179 265,980.5C 263.641,977.962 261.974,975.629 260,973.5C 260.975,968.593 261.308,963.593 261,958.5C 259.171,956.844 257.837,954.844 257,952.5C 256.184,951.177 255.017,950.511 253.5,950.5C 251.5,947.167 248.833,944.5 245.5,942.5C 246.944,930.716 245.277,919.382 240.5,908.5C 237.977,904.973 234.644,902.639 230.5,901.5C 228.68,896.638 228.18,891.638 229,886.5C 233.47,884.845 237.636,882.512 241.5,879.5C 243.435,876.723 243.935,873.723 243,870.5C 250.126,864.907 251.959,857.907 248.5,849.5C 249.984,846.596 252.317,844.929 255.5,844.5C 256.958,841.276 256.625,838.276 254.5,835.5C 256.045,834.548 257.712,834.215 259.5,834.5C 256.978,816.925 255.144,799.258 254,781.5C 251.033,775.927 247.7,770.594 244,765.5C 243.903,759.954 243.069,754.454 241.5,749C 241.001,746.672 239.668,745.172 237.5,744.5C 237.5,743.167 237.5,741.833 237.5,740.5C 236.5,740.5 235.5,740.5 234.5,740.5C 232.348,730.397 230.014,720.397 227.5,710.5C 224.889,703.125 222.056,695.792 219,688.5C 217.826,683.19 218.993,678.523 222.5,674.5C 223.076,670.512 224.409,666.845 226.5,663.5C 224.563,660.659 223.229,657.659 222.5,654.5C 222.389,653.883 222.056,653.383 221.5,653C 219.527,652.505 217.527,652.338 215.5,652.5C 216.036,649.302 215.369,646.635 213.5,644.5C 212.832,641.664 211.498,639.164 209.5,637C 209.96,635.699 210.294,634.366 210.5,633C 209.759,630.194 208.759,627.527 207.5,625C 208.857,619.906 210.524,614.906 212.5,610C 215.058,607.803 217.225,605.303 219,602.5C 219.22,593.593 221.887,585.593 227,578.5C 227.494,576.866 227.66,575.199 227.5,573.5C 228.806,570.662 229.973,567.662 231,564.5C 231.754,552.698 233.42,541.032 236,529.5C 239.237,526.243 238.903,523.243 235,520.5C 234.187,518.564 233.687,516.564 233.5,514.5C 236.017,510.429 236.017,506.096 233.5,501.5C 234.325,500.614 235.325,500.281 236.5,500.5C 236.662,498.473 236.495,496.473 236,494.5C 233.858,492.382 232.358,489.882 231.5,487C 228.183,486.502 224.85,486.335 221.5,486.5C 221.682,484.325 222.349,482.325 223.5,480.5C 221.167,477.833 218.833,475.167 216.5,472.5C 215.52,469.914 215.187,467.247 215.5,464.5C 216.496,464.586 217.329,464.252 218,463.5C 218.402,462.128 218.902,460.795 219.5,459.5C 217.789,456.19 215.456,453.523 212.5,451.5C 213.922,448.654 213.256,446.32 210.5,444.5C 209.673,440.541 209.173,436.541 209,432.5C 208.261,430.111 207.095,428.111 205.5,426.5C 205.123,424.742 204.456,423.075 203.5,421.5C 199.102,419.976 195.435,417.476 192.5,414C 184.517,410.001 176.184,407.335 167.5,406C 165.652,404.139 165.652,401.972 167.5,399.5C 167.043,398.702 166.376,398.369 165.5,398.5C 162.77,395.438 160.437,392.105 158.5,388.5C 158.389,387.883 158.056,387.383 157.5,387C 152.988,387.383 149.988,385.55 148.5,381.5C 147.675,380.614 146.675,380.281 145.5,380.5C 145.5,379.167 144.833,378.5 143.5,378.5C 141.257,374.342 139.257,370.009 137.5,365.5C 137.043,364.702 136.376,364.369 135.5,364.5C 133.803,362.277 132.469,359.777 131.5,357C 133.267,351.864 134.934,346.698 136.5,341.5C 135.219,338.324 135.219,335.158 136.5,332C 136.293,330.05 135.293,328.884 133.5,328.5C 129.238,326.872 124.571,325.872 119.5,325.5C 116.23,324.745 113.23,323.411 110.5,321.5C 112.247,318.506 113.58,315.339 114.5,312C 112.996,308.665 110.663,306.165 107.5,304.5C 103.362,294.009 99.8615,283.342 97,272.5C 93.6667,267.167 90.3333,261.833 87,256.5C 86.6473,249.816 85.1473,243.482 82.5,237.5C 77.4855,233.886 71.8188,231.886 65.5,231.5C 61.7467,227.075 57.4134,223.408 52.5,220.5C 50.7118,221.283 49.7118,222.616 49.5,224.5C 46.8333,224.5 44.1667,224.5 41.5,224.5C 39.4557,221.769 37.789,218.769 36.5,215.5C 40.6899,208.407 42.5232,200.74 42,192.5C 39.9442,189.443 37.2776,187.109 34,185.5C 32.5262,177.627 30.3596,169.961 27.5,162.5C 31.3016,162.366 34.9682,163.033 38.5,164.5C 40.6926,164.229 42.3593,163.229 43.5,161.5C 44.0967,161.265 44.4301,160.765 44.5,160C 43.1761,155.565 42.6761,151.065 43,146.5C 45.4091,141.595 47.5757,136.595 49.5,131.5C 50.6005,129.723 51.4338,127.723 52,125.5C 54.481,115.094 54.481,104.761 52,94.5C 51.5831,93.244 50.7498,92.5774 49.5,92.5C 49.6715,90.5082 49.0049,88.8415 47.5,87.5C 42.2859,85.8631 36.9525,84.8631 31.5,84.5C 28.4098,84.5217 25.7432,85.1883 23.5,86.5C 21.1103,86.8551 18.777,87.5217 16.5,88.5C 12.505,87.7596 11.005,85.4263 12,81.5C 12.8665,78.4693 14.3665,75.8027 16.5,73.5C 15.6249,71.2275 13.9582,70.2275 11.5,70.5C 11.4606,69.4168 11.1272,68.4168 10.5,67.5C 5.65198,64.3202 2.31865,59.9869 0.5,54.5C 0.542718,53.5836 0.876052,52.9169 1.5,52.5C 24.5246,53.1562 47.1913,52.4895 69.5,50.5C 86.2086,50.6457 102.875,49.979 119.5,48.5C 124.619,49.1031 129.285,48.4364 133.5,46.5C 147.539,46.497 161.539,45.8303 175.5,44.5C 179.514,44.6655 183.514,44.4988 187.5,44C 188.056,43.6174 188.389,43.1174 188.5,42.5C 197.506,42.6664 206.506,42.4998 215.5,42C 216.025,41.3076 216.692,40.8076 217.5,40.5C 219.173,42.0863 221.173,42.7529 223.5,42.5C 231.195,43.5945 238.861,44.9279 246.5,46.5C 247.772,46.4302 248.938,46.0968 250,45.5C 249.111,31.9986 247.611,18.6653 245.5,5.5C 245.5,3.83333 245.5,2.16667 245.5,0.5C 263.008,0.829988 280.341,0.496655 297.5,-0.5 Z"/></g>
<g><path style="opacity:1" fill="#cdc3c5" d="M 307.5,-0.5 C 317.833,-0.5 328.167,-0.5 338.5,-0.5C 338.611,0.117425 338.944,0.617425 339.5,1C 347.194,2.96624 354.528,5.46624 361.5,8.5C 353.36,6.78814 345.36,4.45481 337.5,1.5C 327.341,0.833311 317.341,0.166644 307.5,-0.5 Z"/></g>
<g><path style="opacity:1" fill="#cabfc2" d="M 245.5,5.5 C 247.611,18.6653 249.111,31.9986 250,45.5C 248.938,46.0968 247.772,46.4302 246.5,46.5C 238.861,44.9279 231.195,43.5945 223.5,42.5C 223.5,42.1667 223.5,41.8333 223.5,41.5C 231.216,42.4752 238.883,43.8086 246.5,45.5C 247.442,45.3918 248.275,45.0585 249,44.5C 247.66,31.925 246.493,19.2583 245.5,6.5C 245.5,6.16667 245.5,5.83333 245.5,5.5 Z"/></g>
<g><path style="opacity:1" fill="#d2b8be" d="M 223.5,41.5 C 223.5,41.8333 223.5,42.1667 223.5,42.5C 221.173,42.7529 219.173,42.0863 217.5,40.5C 216.692,40.8076 216.025,41.3076 215.5,42C 206.506,42.4998 197.506,42.6664 188.5,42.5C 188.167,42.5 187.833,42.5 187.5,42.5C 196.324,41.6703 205.324,41.1703 214.5,41C 215.263,40.0565 216.263,39.5565 217.5,39.5C 219.325,40.6511 221.325,41.3178 223.5,41.5 Z"/></g>
<g><path style="opacity:1" fill="#d5aeb8" d="M 187.5,42.5 C 187.833,42.5 188.167,42.5 188.5,42.5C 188.389,43.1174 188.056,43.6174 187.5,44C 183.514,44.4988 179.514,44.6655 175.5,44.5C 175.5,44.1667 175.5,43.8333 175.5,43.5C 179.6,43.7633 183.6,43.4299 187.5,42.5 Z"/></g>
<g><path style="opacity:1" fill="#d2bec2" d="M 175.5,43.5 C 175.5,43.8333 175.5,44.1667 175.5,44.5C 161.539,45.8303 147.539,46.497 133.5,46.5C 133.167,46.5 132.833,46.5 132.5,46.5C 146.684,45.4633 161.017,44.4633 175.5,43.5 Z"/></g>
<g><path style="opacity:1" fill="#d7b1ba" d="M 132.5,46.5 C 132.833,46.5 133.167,46.5 133.5,46.5C 129.285,48.4364 124.619,49.1031 119.5,48.5C 119.5,48.1667 119.5,47.8333 119.5,47.5C 124.032,47.8182 128.366,47.4849 132.5,46.5 Z"/></g>
<g><path style="opacity:1" fill="#d1bfc3" d="M 119.5,47.5 C 119.5,47.8333 119.5,48.1667 119.5,48.5C 102.875,49.979 86.2086,50.6457 69.5,50.5C 69.1667,50.5 68.8333,50.5 68.5,50.5C 85.3581,49.6185 102.358,48.6185 119.5,47.5 Z"/></g>
<g><path style="opacity:1" fill="#d8b0ba" d="M 68.5,50.5 C 68.8333,50.5 69.1667,50.5 69.5,50.5C 47.1913,52.4895 24.5246,53.1562 1.5,52.5C 1.5,52.1667 1.5,51.8333 1.5,51.5C 24.0062,51.8308 46.3396,51.4974 68.5,50.5 Z"/></g>
<g><path style="opacity:1" fill="#c9bbbe" d="M 361.5,8.5 C 362.613,9.94639 362.78,11.6131 362,13.5C 357.017,30.4285 352.184,47.4285 347.5,64.5C 348.602,65.1757 349.602,65.8423 350.5,66.5C 350.167,66.5 349.833,66.5 349.5,66.5C 348.5,66.5 347.5,66.5 346.5,66.5C 351.189,47.0786 356.189,27.7453 361.5,8.5 Z"/></g>
<g><path style="opacity:1" fill="#fefefe" d="M -0.5,57.5 C 2.44144,62.7762 6.44144,67.1095 11.5,70.5C 12.209,71.404 13.209,71.7373 14.5,71.5C 13.6289,74.5645 12.4622,77.5645 11,80.5C 9.48804,85.7103 11.3214,88.7103 16.5,89.5C 19.5838,89.3691 22.2505,88.3691 24.5,86.5C 31.8237,85.2511 39.1571,85.9178 46.5,88.5C 47.6937,89.7992 48.6937,91.1325 49.5,92.5C 51.3682,96.799 52.7016,101.299 53.5,106C 52.5842,114.579 51.2509,123.079 49.5,131.5C 46.395,135.79 43.895,140.457 42,145.5C 41.5152,150.925 42.0152,156.258 43.5,161.5C 41.7231,161.786 40.0564,162.453 38.5,163.5C 34.6827,161.804 30.6827,161.137 26.5,161.5C 29.0959,169.616 31.2625,177.95 33,186.5C 36.2691,188.136 38.9358,190.469 41,193.5C 40.9109,201.268 39.0776,208.601 35.5,215.5C 35.96,219.61 37.96,222.61 41.5,224.5C 44.1667,224.5 46.8333,224.5 49.5,224.5C 50.4822,223.859 51.4822,223.193 52.5,222.5C 57.084,225.08 61.084,228.413 64.5,232.5C 70.8188,232.886 76.4855,234.886 81.5,238.5C 83.9534,244.599 85.4534,250.932 86,257.5C 94.6733,269.486 100.34,282.82 103,297.5C 104.026,300.239 105.526,302.572 107.5,304.5C 109.286,307.125 111.286,309.625 113.5,312C 112.478,314.545 111.312,317.045 110,319.5C 109.219,320.944 109.386,322.277 110.5,323.5C 117.712,326.814 125.378,328.481 133.5,328.5C 134.028,329.721 134.695,330.887 135.5,332C 134.201,335.135 134.201,338.301 135.5,341.5C 133.532,346.571 131.865,351.737 130.5,357C 130.819,360.489 132.485,362.989 135.5,364.5C 137.332,368.479 139.165,372.479 141,376.5C 141.708,377.381 142.542,378.047 143.5,378.5C 144.833,378.5 145.5,379.167 145.5,380.5C 147.306,382.089 148.639,384.089 149.5,386.5C 152.187,387.26 154.853,387.927 157.5,388.5C 158.747,393.008 161.414,396.341 165.5,398.5C 163.32,406.161 166.32,409.327 174.5,408C 180.118,410.332 185.785,412.666 191.5,415C 192.257,416.512 193.257,417.846 194.5,419C 197.053,420.376 199.72,421.543 202.5,422.5C 203.035,424.261 204.035,425.594 205.5,426.5C 206.369,430.163 207.369,433.829 208.5,437.5C 206.479,442.441 207.813,446.108 212.5,448.5C 210.769,453.371 212.436,456.371 217.5,457.5C 217.834,460.188 217.168,462.521 215.5,464.5C 213.457,471.534 215.79,476.867 222.5,480.5C 220.829,482.51 220.162,484.843 220.5,487.5C 223.85,487.335 227.183,487.502 230.5,488C 231.358,490.882 232.858,493.382 235,495.5C 235.49,496.793 235.657,498.127 235.5,499.5C 234.5,499.5 233.5,499.5 232.5,499.5C 233.16,502.825 233.826,506.158 234.5,509.5C 234.408,511.258 234.075,512.924 233.5,514.5C 232.582,518.454 233.582,522.12 236.5,525.5C 234.899,529.312 233.732,533.312 233,537.5C 232.256,549.709 230.423,561.709 227.5,573.5C 225.638,577.231 223.471,580.897 221,584.5C 219.918,591.682 218.418,598.682 216.5,605.5C 214.61,605.297 213.11,605.963 212,607.5C 209.623,613.18 207.789,619.013 206.5,625C 206.977,627.829 207.977,630.495 209.5,633C 209.04,634.301 208.706,635.634 208.5,637C 211.82,642.136 213.82,647.636 214.5,653.5C 216.95,653.298 219.283,653.631 221.5,654.5C 225.036,662.736 223.87,670.402 218,677.5C 217.333,681.5 217.333,685.5 218,689.5C 221.056,696.792 223.889,704.125 226.5,711.5C 229.014,721.397 231.348,731.397 233.5,741.5C 234.5,741.5 235.5,741.5 236.5,741.5C 236.263,742.791 236.596,743.791 237.5,744.5C 240.748,749.421 242.081,754.754 241.5,760.5C 241.692,762.577 242.192,764.577 243,766.5C 246.7,771.594 250.033,776.927 253,782.5C 254.025,799.609 255.858,816.609 258.5,833.5C 256.833,833.5 255.167,833.5 253.5,833.5C 254.051,836.807 254.384,840.14 254.5,843.5C 251.713,843.78 249.547,845.113 248,847.5C 247.841,851.049 248.341,854.549 249.5,858C 247.908,862.475 245.408,866.308 242,869.5C 241.744,872.557 241.244,875.557 240.5,878.5C 236.627,881.516 232.461,883.849 228,885.5C 227.228,890.904 227.561,896.238 229,901.5C 235.367,904.203 239.701,908.87 242,915.5C 242.679,918.55 243.512,921.55 244.5,924.5C 243.379,930.114 243.212,935.78 244,941.5C 244.383,942.056 244.883,942.389 245.5,942.5C 247.5,945.833 250.167,948.5 253.5,950.5C 256.901,954.635 259.234,959.301 260.5,964.5C 258.936,967.708 258.436,971.041 259,974.5C 263.353,978.532 265.353,983.532 265,989.5C 265.417,990.756 266.25,991.423 267.5,991.5C 268.959,991.433 270.292,991.766 271.5,992.5C 271.421,993.93 271.754,995.264 272.5,996.5C 271.222,998.722 270.222,1001.06 269.5,1003.5C 269.453,1005.04 270.12,1006.04 271.5,1006.5C 272.487,1008.47 273.487,1010.47 274.5,1012.5C 277.955,1012.96 281.122,1013.96 284,1015.5C 284.641,1023.35 286.141,1031.02 288.5,1038.5C 287.438,1042.5 287.605,1046.5 289,1050.5C 292.663,1051.83 293.496,1054.16 291.5,1057.5C 295.02,1057.4 298.186,1058.4 301,1060.5C 299.488,1073.13 304.988,1080.13 317.5,1081.5C 318.584,1103.51 319.918,1125.51 321.5,1147.5C 214.167,1147.5 106.833,1147.5 -0.5,1147.5C -0.5,784.167 -0.5,420.833 -0.5,57.5 Z"/></g>
<g><path style="opacity:1" fill="#c9bfc1" d="M -0.5,51.5 C 0.166667,51.5 0.833333,51.5 1.5,51.5C 1.5,51.8333 1.5,52.1667 1.5,52.5C 0.876052,52.9169 0.542718,53.5836 0.5,54.5C 2.31865,59.9869 5.65198,64.3202 10.5,67.5C 11.1272,68.4168 11.4606,69.4168 11.5,70.5C 6.44144,67.1095 2.44144,62.7762 -0.5,57.5C -0.5,55.5 -0.5,53.5 -0.5,51.5 Z"/></g>
<g><path style="opacity:1" fill="#d7b0b9" d="M 349.5,66.5 C 349.833,66.5 350.167,66.5 350.5,66.5C 355.305,67.4872 360.305,67.8205 365.5,67.5C 365.5,67.8333 365.5,68.1667 365.5,68.5C 359.729,69.1128 354.396,68.4461 349.5,66.5 Z"/></g>
<g><path style="opacity:1" fill="#d2bec2" d="M 365.5,68.5 C 365.5,68.1667 365.5,67.8333 365.5,67.5C 383.321,68.431 400.988,69.431 418.5,70.5C 418.167,70.5 417.833,70.5 417.5,70.5C 400.137,70.4589 382.803,69.7922 365.5,68.5 Z"/></g>
<g><path style="opacity:1" fill="#d4b9bf" d="M 417.5,70.5 C 417.833,70.5 418.167,70.5 418.5,70.5C 427.833,71.1667 437.167,71.8333 446.5,72.5C 446.167,72.5 445.833,72.5 445.5,72.5C 435.773,73.1389 426.44,72.4722 417.5,70.5 Z"/></g>
<g><path style="opacity:1" fill="#d3b9bf" d="M 445.5,72.5 C 445.833,72.5 446.167,72.5 446.5,72.5C 453.833,73.1667 461.167,73.8333 468.5,74.5C 468.167,74.5 467.833,74.5 467.5,74.5C 459.757,75.1299 452.424,74.4633 445.5,72.5 Z"/></g>
<g><path style="opacity:1" fill="#d7b0ba" d="M 467.5,74.5 C 467.833,74.5 468.167,74.5 468.5,74.5C 471.962,75.4816 475.629,75.815 479.5,75.5C 479.5,75.8333 479.5,76.1667 479.5,76.5C 475.029,77.0894 471.029,76.4228 467.5,74.5 Z"/></g>
<g><path style="opacity:1" fill="#d1bdc2" d="M 479.5,76.5 C 479.5,76.1667 479.5,75.8333 479.5,75.5C 491.181,76.7719 502.848,77.7719 514.5,78.5C 514.167,78.5 513.833,78.5 513.5,78.5C 501.993,78.7967 490.659,78.13 479.5,76.5 Z"/></g>
<g><path style="opacity:1" fill="#d3babf" d="M 513.5,78.5 C 513.833,78.5 514.167,78.5 514.5,78.5C 522.167,79.1667 529.833,79.8333 537.5,80.5C 537.167,80.5 536.833,80.5 536.5,80.5C 528.427,81.1318 520.76,80.4651 513.5,78.5 Z"/></g>
<g><path style="opacity:1" fill="#d4afb8" d="M 536.5,80.5 C 536.833,80.5 537.167,80.5 537.5,80.5C 540.728,81.4137 544.061,81.7471 547.5,81.5C 547.5,81.8333 547.5,82.1667 547.5,82.5C 544.15,82.665 540.817,82.4983 537.5,82C 536.944,81.6174 536.611,81.1174 536.5,80.5 Z"/></g>
<g><path style="opacity:1" fill="#d1bfc3" d="M 547.5,82.5 C 547.5,82.1667 547.5,81.8333 547.5,81.5C 559.319,82.3934 570.986,83.3934 582.5,84.5C 582.167,84.5 581.833,84.5 581.5,84.5C 570.123,84.4351 558.79,83.7685 547.5,82.5 Z"/></g>
<g><path style="opacity:1" fill="#d1b9bf" d="M 49.5,92.5 C 48.6937,91.1325 47.6937,89.7992 46.5,88.5C 39.1571,85.9178 31.8237,85.2511 24.5,86.5C 24.1667,86.5 23.8333,86.5 23.5,86.5C 25.7432,85.1883 28.4098,84.5217 31.5,84.5C 36.9525,84.8631 42.2859,85.8631 47.5,87.5C 49.0049,88.8415 49.6715,90.5082 49.5,92.5 Z"/></g>
<g><path style="opacity:1" fill="#d6b1b9" d="M 581.5,84.5 C 581.833,84.5 582.167,84.5 582.5,84.5C 585.962,85.4816 589.629,85.815 593.5,85.5C 593.5,85.8333 593.5,86.1667 593.5,86.5C 589.029,87.0894 585.029,86.4228 581.5,84.5 Z"/></g>
<g><path style="opacity:1" fill="#cac4c5" d="M 11.5,70.5 C 13.9582,70.2275 15.6249,71.2275 16.5,73.5C 14.3665,75.8027 12.8665,78.4693 12,81.5C 11.005,85.4263 12.505,87.7596 16.5,88.5C 18.777,87.5217 21.1103,86.8551 23.5,86.5C 23.8333,86.5 24.1667,86.5 24.5,86.5C 22.2505,88.3691 19.5838,89.3691 16.5,89.5C 11.3214,88.7103 9.48804,85.7103 11,80.5C 12.4622,77.5645 13.6289,74.5645 14.5,71.5C 13.209,71.7373 12.209,71.404 11.5,70.5 Z"/></g>
<g><path style="opacity:1" fill="#c7bfc1" d="M 49.5,92.5 C 50.7498,92.5774 51.5831,93.244 52,94.5C 54.481,104.761 54.481,115.094 52,125.5C 51.4338,127.723 50.6005,129.723 49.5,131.5C 51.2509,123.079 52.5842,114.579 53.5,106C 52.7016,101.299 51.3682,96.799 49.5,92.5 Z"/></g>
<g><path style="opacity:1" fill="#ccc0c3" d="M 593.5,86.5 C 593.5,86.1667 593.5,85.8333 593.5,85.5C 595.833,85.5 598.167,85.5 600.5,85.5C 594.388,98.7307 598.388,106.231 612.5,108C 619.202,110.503 620.202,114.503 615.5,120C 616.739,122.702 616.073,124.868 613.5,126.5C 613.751,124.83 614.418,123.33 615.5,122C 614.978,121.439 614.645,120.772 614.5,120C 615.244,117.845 616.244,115.845 617.5,114C 616.068,111.78 614.068,110.28 611.5,109.5C 597.6,107.595 593.6,100.261 599.5,87.5C 597.604,86.5344 595.604,86.2011 593.5,86.5 Z"/></g>
<g><path style="opacity:1" fill="#cbc9c9" d="M 613.5,126.5 C 610.893,130.955 610.226,135.621 611.5,140.5C 610.252,139.666 609.585,138.333 609.5,136.5C 609.51,132.436 610.843,129.103 613.5,126.5 Z"/></g>
<g><path style="opacity:1" fill="#c8c0c1" d="M 49.5,131.5 C 47.5757,136.595 45.4091,141.595 43,146.5C 42.6761,151.065 43.1761,155.565 44.5,160C 44.4301,160.765 44.0967,161.265 43.5,161.5C 42.0152,156.258 41.5152,150.925 42,145.5C 43.895,140.457 46.395,135.79 49.5,131.5 Z"/></g>
<g><path style="opacity:1" fill="#cac0c2" d="M 613.5,142.5 C 614.481,144.396 615.481,146.396 616.5,148.5C 618.291,149.17 619.958,149.837 621.5,150.5C 615.753,151.047 613.087,148.38 613.5,142.5 Z"/></g>
<g><path style="opacity:1" fill="#cabdc0" d="M 43.5,161.5 C 42.3593,163.229 40.6926,164.229 38.5,164.5C 34.9682,163.033 31.3016,162.366 27.5,162.5C 30.3596,169.961 32.5262,177.627 34,185.5C 37.2776,187.109 39.9442,189.443 42,192.5C 42.5232,200.74 40.6899,208.407 36.5,215.5C 37.789,218.769 39.4557,221.769 41.5,224.5C 37.96,222.61 35.96,219.61 35.5,215.5C 39.0776,208.601 40.9109,201.268 41,193.5C 38.9358,190.469 36.2691,188.136 33,186.5C 31.2625,177.95 29.0959,169.616 26.5,161.5C 30.6827,161.137 34.6827,161.804 38.5,163.5C 40.0564,162.453 41.7231,161.786 43.5,161.5 Z"/></g>
<g><path style="opacity:1" fill="#fefefe" d="M 638.5,174.5 C 638.5,498.833 638.5,823.167 638.5,1147.5C 565.833,1147.5 493.167,1147.5 420.5,1147.5C 422.67,1140.16 425.67,1133.16 429.5,1126.5C 430.833,1123.83 432.833,1121.83 435.5,1120.5C 435.5,1119.17 436.167,1118.5 437.5,1118.5C 439.593,1107.21 442.927,1096.21 447.5,1085.5C 447.288,1079.78 445.788,1074.45 443,1069.5C 436.779,1067.44 433.946,1063.1 434.5,1056.5C 435.268,1050.83 436.101,1045.16 437,1039.5C 439.217,1036.32 442.05,1033.99 445.5,1032.5C 450.198,1028.46 454.865,1024.46 459.5,1020.5C 466.078,1019.54 472.745,1019.21 479.5,1019.5C 484.032,1020.12 486.198,1018.12 486,1013.5C 488.733,996.366 483.9,981.866 471.5,970C 466.572,966.707 461.239,964.207 455.5,962.5C 452.248,960.256 449.248,957.589 446.5,954.5C 443.59,948.017 441.256,941.351 439.5,934.5C 440.064,932.181 440.564,929.847 441,927.5C 442.795,924.57 444.295,921.57 445.5,918.5C 445.02,914.892 443.853,911.559 442,908.5C 438.923,905.591 436.423,902.258 434.5,898.5C 435.91,897.431 436.91,896.097 437.5,894.5C 438.807,892.54 440.14,890.54 441.5,888.5C 444.237,885.339 446.237,881.673 447.5,877.5C 448.799,876.306 450.132,875.306 451.5,874.5C 451.5,873.167 452.167,872.5 453.5,872.5C 454.643,872.092 455.643,871.425 456.5,870.5C 457.909,867.032 459.242,863.532 460.5,860C 459.924,856.93 458.591,854.263 456.5,852C 451.831,848.61 446.998,845.443 442,842.5C 441.73,841.068 442.396,840.068 444,839.5C 444.796,836.961 444.629,834.628 443.5,832.5C 441.212,831.926 439.045,830.926 437,829.5C 436.339,826.198 435.172,823.198 433.5,820.5C 429.707,818.942 426.041,816.942 422.5,814.5C 418.5,813.833 414.5,813.167 410.5,812.5C 407.467,810.497 404.467,808.497 401.5,806.5C 400.167,806.5 399.5,805.833 399.5,804.5C 397.882,799.264 395.715,794.264 393,789.5C 391.819,782.759 390.319,776.093 388.5,769.5C 386.768,767.119 385.101,764.786 383.5,762.5C 380.619,758.337 378.953,753.671 378.5,748.5C 380.518,737.12 382.184,725.786 383.5,714.5C 380.704,704.016 378.87,693.349 378,682.5C 372.643,678.311 367.143,674.311 361.5,670.5C 360.167,670.5 359.5,669.833 359.5,668.5C 355.623,664.916 354.957,660.916 357.5,656.5C 358.167,654.5 359.5,653.167 361.5,652.5C 367,649.771 370.333,645.438 371.5,639.5C 369.553,628.814 367.719,618.147 366,607.5C 364.229,601.838 360.395,600.005 354.5,602C 352.977,603.788 351.31,603.955 349.5,602.5C 348.193,600.518 346.859,598.518 345.5,596.5C 349.488,581.548 353.321,566.548 357,551.5C 357.523,549.777 358.523,548.444 360,547.5C 363.206,546.232 366.373,545.232 369.5,544.5C 369.5,543.167 370.167,542.5 371.5,542.5C 372.097,542.265 372.43,541.765 372.5,541C 370.573,538.922 368.906,536.756 367.5,534.5C 366.167,534.5 365.5,533.833 365.5,532.5C 364.972,531.279 364.305,530.113 363.5,529C 364.381,528.292 365.047,527.458 365.5,526.5C 368.684,524.585 372.017,524.751 375.5,527C 378.367,527.801 381.034,527.634 383.5,526.5C 385.118,523.829 385.785,520.829 385.5,517.5C 373.775,511.605 372.441,503.938 381.5,494.5C 383.272,492.71 385.272,491.377 387.5,490.5C 388.167,488.5 389.5,487.167 391.5,486.5C 392.145,480.735 395.145,476.568 400.5,474C 405.32,473.462 409.987,472.295 414.5,470.5C 416.494,467.85 417.494,464.85 417.5,461.5C 416.5,461.5 415.5,461.5 414.5,461.5C 414.563,454.58 415.897,447.914 418.5,441.5C 420.243,438.484 422.577,436.151 425.5,434.5C 428.588,431.733 431.922,429.4 435.5,427.5C 435.5,425.5 435.5,423.5 435.5,421.5C 433.901,421.232 432.568,421.566 431.5,422.5C 430.833,422.5 430.5,422.833 430.5,423.5C 427.568,423.284 424.902,423.951 422.5,425.5C 421.416,425.315 420.416,424.982 419.5,424.5C 418.737,423.732 417.737,423.232 416.5,423C 415.355,415.574 417.021,408.74 421.5,402.5C 428.882,397.038 436.882,392.705 445.5,389.5C 444.985,384.793 444.152,380.126 443,375.5C 442.5,375 442,374.5 441.5,374C 445.108,366.619 449.108,359.452 453.5,352.5C 453.5,351.167 454.167,350.5 455.5,350.5C 457.149,349.527 458.816,348.527 460.5,347.5C 462.5,348.833 464.5,350.167 466.5,351.5C 467.186,354.723 468.186,357.723 469.5,360.5C 470.09,362.097 471.09,363.431 472.5,364.5C 476.107,365.489 479.774,365.823 483.5,365.5C 483.292,363.08 483.626,360.747 484.5,358.5C 492.247,354.083 497.914,347.75 501.5,339.5C 505.784,336.64 510.451,334.64 515.5,333.5C 513.668,328.911 512.001,324.244 510.5,319.5C 510.667,318.167 510.833,316.833 511,315.5C 512.045,314.627 512.878,313.627 513.5,312.5C 518.402,309.431 522.069,305.264 524.5,300C 523.523,296.031 521.69,292.531 519,289.5C 518.212,287.835 517.878,286.169 518,284.5C 524.488,281.442 531.321,279.442 538.5,278.5C 540.678,276.477 542.012,273.977 542.5,271C 540.643,264.658 539.476,258.158 539,251.5C 535.381,247.857 534.548,243.523 536.5,238.5C 537.602,237.824 538.602,237.158 539.5,236.5C 540.815,235.524 542.148,234.524 543.5,233.5C 551.531,236.862 558.865,235.862 565.5,230.5C 566.79,229.942 567.623,228.942 568,227.5C 570.403,217.541 573.57,207.875 577.5,198.5C 578.167,196.5 579.5,195.167 581.5,194.5C 591.503,188.447 601.837,187.947 612.5,193C 626.667,194.308 635.334,188.142 638.5,174.5 Z"/></g>
<g><path style="opacity:1" fill="#cbc0c3" d="M 629.5,158.5 C 631.213,160.85 633.547,161.85 636.5,161.5C 636.157,163.483 636.824,164.817 638.5,165.5C 638.5,168.5 638.5,171.5 638.5,174.5C 635.334,188.142 626.667,194.308 612.5,193C 601.837,187.947 591.503,188.447 581.5,194.5C 582.615,191.92 584.615,190.254 587.5,189.5C 597.922,187.892 608.088,188.892 618,192.5C 621.129,192.671 623.963,191.838 626.5,190C 636.642,183.214 639.642,174.048 635.5,162.5C 632.122,163.109 630.122,161.776 629.5,158.5 Z"/></g>
<g><path style="opacity:1" fill="#c9bdc0" d="M 577.5,198.5 C 573.57,207.875 570.403,217.541 568,227.5C 567.623,228.942 566.79,229.942 565.5,230.5C 568.082,219.924 571.415,209.59 575.5,199.5C 575.957,198.702 576.624,198.369 577.5,198.5 Z"/></g>
<g><path style="opacity:1" fill="#cbc1c3" d="M 565.5,230.5 C 558.865,235.862 551.531,236.862 543.5,233.5C 542.148,234.524 540.815,235.524 539.5,236.5C 539.818,234.182 541.152,232.848 543.5,232.5C 546.082,233.97 548.915,234.637 552,234.5C 556.659,233.58 561.159,232.247 565.5,230.5 Z"/></g>
<g><path style="opacity:1" fill="#cac0c2" d="M 539.5,236.5 C 538.602,237.158 537.602,237.824 536.5,238.5C 534.548,243.523 535.381,247.857 539,251.5C 539.476,258.158 540.643,264.658 542.5,271C 542.012,273.977 540.678,276.477 538.5,278.5C 531.321,279.442 524.488,281.442 518,284.5C 517.878,286.169 518.212,287.835 519,289.5C 521.69,292.531 523.523,296.031 524.5,300C 522.069,305.264 518.402,309.431 513.5,312.5C 516.976,308.516 520.31,304.349 523.5,300C 522.098,296.595 520.265,293.428 518,290.5C 516.85,288.246 516.516,285.913 517,283.5C 523.488,280.442 530.321,278.442 537.5,277.5C 540.556,274.87 541.389,271.87 540,268.5C 539.333,263.167 538.667,257.833 538,252.5C 537.333,251.167 536.333,250.167 535,249.5C 534.833,247.667 534.667,245.833 534.5,244C 533.413,239.391 535.079,236.891 539.5,236.5 Z"/></g>
<g><path style="opacity:1" fill="#c8bebf" d="M 107.5,304.5 C 105.526,302.572 104.026,300.239 103,297.5C 100.34,282.82 94.6733,269.486 86,257.5C 85.4534,250.932 83.9534,244.599 81.5,238.5C 76.4855,234.886 70.8188,232.886 64.5,232.5C 61.084,228.413 57.084,225.08 52.5,222.5C 51.4822,223.193 50.4822,223.859 49.5,224.5C 49.7118,222.616 50.7118,221.283 52.5,220.5C 57.4134,223.408 61.7467,227.075 65.5,231.5C 71.8188,231.886 77.4855,233.886 82.5,237.5C 85.1473,243.482 86.6473,249.816 87,256.5C 90.3333,261.833 93.6667,267.167 97,272.5C 99.8615,283.342 103.362,294.009 107.5,304.5 Z"/></g>
<g><path style="opacity:1" fill="#cac0c2" d="M 107.5,304.5 C 110.663,306.165 112.996,308.665 114.5,312C 113.58,315.339 112.247,318.506 110.5,321.5C 113.23,323.411 116.23,324.745 119.5,325.5C 124.571,325.872 129.238,326.872 133.5,328.5C 125.378,328.481 117.712,326.814 110.5,323.5C 109.386,322.277 109.219,320.944 110,319.5C 111.312,317.045 112.478,314.545 113.5,312C 111.286,309.625 109.286,307.125 107.5,304.5 Z"/></g>
<g><path style="opacity:1" fill="#ccbec1" d="M 513.5,312.5 C 512.878,313.627 512.045,314.627 511,315.5C 510.833,316.833 510.667,318.167 510.5,319.5C 512.001,324.244 513.668,328.911 515.5,333.5C 510.451,334.64 505.784,336.64 501.5,339.5C 497.914,347.75 492.247,354.083 484.5,358.5C 483.626,360.747 483.292,363.08 483.5,365.5C 479.774,365.823 476.107,365.489 472.5,364.5C 471.09,363.431 470.09,362.097 469.5,360.5C 471.078,361.066 472.412,362.066 473.5,363.5C 476.428,364.484 479.428,364.817 482.5,364.5C 482.292,362.08 482.626,359.747 483.5,357.5C 491.276,353.057 496.943,346.724 500.5,338.5C 504.325,336.116 508.325,334.116 512.5,332.5C 512.833,331.833 513.167,331.167 513.5,330.5C 510.757,327.347 509.423,323.68 509.5,319.5C 508.726,315.782 510.06,313.449 513.5,312.5 Z"/></g>
<g><path style="opacity:1" fill="#c8c0c1" d="M 133.5,328.5 C 135.293,328.884 136.293,330.05 136.5,332C 135.219,335.158 135.219,338.324 136.5,341.5C 134.934,346.698 133.267,351.864 131.5,357C 132.469,359.777 133.803,362.277 135.5,364.5C 132.485,362.989 130.819,360.489 130.5,357C 131.865,351.737 133.532,346.571 135.5,341.5C 134.201,338.301 134.201,335.135 135.5,332C 134.695,330.887 134.028,329.721 133.5,328.5 Z"/></g>
<g><path style="opacity:1" fill="#cbb9bd" d="M 469.5,360.5 C 468.186,357.723 467.186,354.723 466.5,351.5C 464.5,350.167 462.5,348.833 460.5,347.5C 458.816,348.527 457.149,349.527 455.5,350.5C 457.129,346.955 459.795,345.955 463.5,347.5C 467.975,350.553 469.975,354.886 469.5,360.5 Z"/></g>
<g><path style="opacity:1" fill="#c9c2c2" d="M 135.5,364.5 C 136.376,364.369 137.043,364.702 137.5,365.5C 139.257,370.009 141.257,374.342 143.5,378.5C 142.542,378.047 141.708,377.381 141,376.5C 139.165,372.479 137.332,368.479 135.5,364.5 Z"/></g>
<g><path style="opacity:1" fill="#c9bdc0" d="M 453.5,352.5 C 449.108,359.452 445.108,366.619 441.5,374C 442,374.5 442.5,375 443,375.5C 444.152,380.126 444.985,384.793 445.5,389.5C 436.882,392.705 428.882,397.038 421.5,402.5C 422.431,399.761 424.264,397.761 427,396.5C 432.837,393.662 438.67,390.995 444.5,388.5C 443.537,383.534 442.203,378.7 440.5,374C 442.748,366.925 446.082,360.425 450.5,354.5C 451.265,353.388 452.265,352.721 453.5,352.5 Z"/></g>
<g><path style="opacity:1" fill="#d0b3ba" d="M 145.5,380.5 C 146.675,380.281 147.675,380.614 148.5,381.5C 149.988,385.55 152.988,387.383 157.5,387C 158.056,387.383 158.389,387.883 158.5,388.5C 158.167,388.5 157.833,388.5 157.5,388.5C 154.853,387.927 152.187,387.26 149.5,386.5C 148.639,384.089 147.306,382.089 145.5,380.5 Z"/></g>
<g><path style="opacity:1" fill="#cbc4c5" d="M 157.5,388.5 C 157.833,388.5 158.167,388.5 158.5,388.5C 160.437,392.105 162.77,395.438 165.5,398.5C 161.414,396.341 158.747,393.008 157.5,388.5 Z"/></g>
<g><path style="opacity:1" fill="#cac4c5" d="M 421.5,402.5 C 417.021,408.74 415.355,415.574 416.5,423C 417.737,423.232 418.737,423.732 419.5,424.5C 419.167,424.5 418.833,424.5 418.5,424.5C 417.178,424.67 416.011,424.337 415,423.5C 414.762,419.152 415.095,414.819 416,410.5C 417.139,407.177 418.973,404.51 421.5,402.5 Z"/></g>
<g><path style="opacity:1" fill="#cababd" d="M 165.5,398.5 C 166.376,398.369 167.043,398.702 167.5,399.5C 165.652,401.972 165.652,404.139 167.5,406C 176.184,407.335 184.517,410.001 192.5,414C 195.435,417.476 199.102,419.976 203.5,421.5C 204.456,423.075 205.123,424.742 205.5,426.5C 204.035,425.594 203.035,424.261 202.5,422.5C 199.72,421.543 197.053,420.376 194.5,419C 193.257,417.846 192.257,416.512 191.5,415C 185.785,412.666 180.118,410.332 174.5,408C 166.32,409.327 163.32,406.161 165.5,398.5 Z"/></g>
<g><path style="opacity:1" fill="#daabb6" d="M 431.5,422.5 C 432.5,422.5 433.5,422.5 434.5,422.5C 434.768,424.099 434.434,425.432 433.5,426.5C 433.179,424.952 432.179,424.285 430.5,424.5C 430.5,424.167 430.5,423.833 430.5,423.5C 430.5,422.833 430.833,422.5 431.5,422.5 Z"/></g>
<g><path style="opacity:1" fill="#cac1c3" d="M 431.5,422.5 C 432.568,421.566 433.901,421.232 435.5,421.5C 435.5,423.5 435.5,425.5 435.5,427.5C 431.922,429.4 428.588,431.733 425.5,434.5C 425.511,432.983 426.177,431.816 427.5,431C 429.396,429.259 431.396,427.759 433.5,426.5C 434.434,425.432 434.768,424.099 434.5,422.5C 433.5,422.5 432.5,422.5 431.5,422.5 Z"/></g>
<g><path style="opacity:1" fill="#d1b3ba" d="M 430.5,423.5 C 430.5,423.833 430.5,424.167 430.5,424.5C 427.99,424.998 425.49,425.664 423,426.5C 420.992,426.693 419.492,426.026 418.5,424.5C 418.833,424.5 419.167,424.5 419.5,424.5C 420.416,424.982 421.416,425.315 422.5,425.5C 424.902,423.951 427.568,423.284 430.5,423.5 Z"/></g>
<g><path style="opacity:1" fill="#cabcbe" d="M 205.5,426.5 C 207.095,428.111 208.261,430.111 209,432.5C 209.173,436.541 209.673,440.541 210.5,444.5C 213.256,446.32 213.922,448.654 212.5,451.5C 215.456,453.523 217.789,456.19 219.5,459.5C 218.902,460.795 218.402,462.128 218,463.5C 217.329,464.252 216.496,464.586 215.5,464.5C 217.168,462.521 217.834,460.188 217.5,457.5C 212.436,456.371 210.769,453.371 212.5,448.5C 207.813,446.108 206.479,442.441 208.5,437.5C 207.369,433.829 206.369,430.163 205.5,426.5 Z"/></g>
<g><path style="opacity:1" fill="#cbc0c2" d="M 425.5,434.5 C 422.577,436.151 420.243,438.484 418.5,441.5C 415.897,447.914 414.563,454.58 414.5,461.5C 415.5,461.5 416.5,461.5 417.5,461.5C 417.494,464.85 416.494,467.85 414.5,470.5C 409.987,472.295 405.32,473.462 400.5,474C 395.145,476.568 392.145,480.735 391.5,486.5C 390.962,480.072 393.629,475.572 399.5,473C 404.32,472.462 408.987,471.295 413.5,469.5C 414.877,467.711 415.877,465.711 416.5,463.5C 415.675,462.614 414.675,462.281 413.5,462.5C 413.24,454.874 414.573,447.541 417.5,440.5C 419.065,436.924 421.732,434.924 425.5,434.5 Z"/></g>
<g><path style="opacity:1" fill="#c9c0c1" d="M 215.5,464.5 C 215.187,467.247 215.52,469.914 216.5,472.5C 218.833,475.167 221.167,477.833 223.5,480.5C 222.349,482.325 221.682,484.325 221.5,486.5C 224.85,486.335 228.183,486.502 231.5,487C 232.358,489.882 233.858,492.382 236,494.5C 236.495,496.473 236.662,498.473 236.5,500.5C 235.325,500.281 234.325,500.614 233.5,501.5C 236.017,506.096 236.017,510.429 233.5,514.5C 234.075,512.924 234.408,511.258 234.5,509.5C 233.826,506.158 233.16,502.825 232.5,499.5C 233.5,499.5 234.5,499.5 235.5,499.5C 235.657,498.127 235.49,496.793 235,495.5C 232.858,493.382 231.358,490.882 230.5,488C 227.183,487.502 223.85,487.335 220.5,487.5C 220.162,484.843 220.829,482.51 222.5,480.5C 215.79,476.867 213.457,471.534 215.5,464.5 Z"/></g>
<g><path style="opacity:1" fill="#cabec1" d="M 387.5,490.5 C 385.272,491.377 383.272,492.71 381.5,494.5C 382.122,491.224 384.122,489.891 387.5,490.5 Z"/></g>
<g><path style="opacity:1" fill="#ccc0c2" d="M 381.5,494.5 C 372.441,503.938 373.775,511.605 385.5,517.5C 385.785,520.829 385.118,523.829 383.5,526.5C 383.833,523.833 384.167,521.167 384.5,518.5C 379.01,516.34 375.677,512.34 374.5,506.5C 373.961,500.566 376.294,496.566 381.5,494.5 Z"/></g>
<g><path style="opacity:1" fill="#c9bbbe" d="M 383.5,526.5 C 381.034,527.634 378.367,527.801 375.5,527C 372.017,524.751 368.684,524.585 365.5,526.5C 365.712,524.616 366.712,523.283 368.5,522.5C 373.085,525.287 378.085,526.62 383.5,526.5 Z"/></g>
<g><path style="opacity:1" fill="#cbc6c7" d="M 365.5,526.5 C 365.047,527.458 364.381,528.292 363.5,529C 364.305,530.113 364.972,531.279 365.5,532.5C 363.707,532.116 362.707,530.95 362.5,529C 362.748,527.251 363.748,526.418 365.5,526.5 Z"/></g>
<g><path style="opacity:1" fill="#cec2c4" d="M 367.5,534.5 C 368.906,536.756 370.573,538.922 372.5,541C 372.43,541.765 372.097,542.265 371.5,542.5C 369.299,540.29 367.966,537.624 367.5,534.5 Z"/></g>
<g><path style="opacity:1" fill="#c9c0c2" d="M 369.5,544.5 C 366.373,545.232 363.206,546.232 360,547.5C 358.523,548.444 357.523,549.777 357,551.5C 353.321,566.548 349.488,581.548 345.5,596.5C 346.859,598.518 348.193,600.518 349.5,602.5C 346.779,601.441 345.112,599.441 344.5,596.5C 348.502,580.494 352.502,564.494 356.5,548.5C 360.189,545.16 364.523,543.826 369.5,544.5 Z"/></g>
<g><path style="opacity:1" fill="#c7bbbd" d="M 233.5,514.5 C 233.687,516.564 234.187,518.564 235,520.5C 238.903,523.243 239.237,526.243 236,529.5C 233.42,541.032 231.754,552.698 231,564.5C 229.973,567.662 228.806,570.662 227.5,573.5C 230.423,561.709 232.256,549.709 233,537.5C 233.732,533.312 234.899,529.312 236.5,525.5C 233.582,522.12 232.582,518.454 233.5,514.5 Z"/></g>
<g><path style="opacity:1" fill="#c9bdbf" d="M 227.5,573.5 C 227.66,575.199 227.494,576.866 227,578.5C 221.887,585.593 219.22,593.593 219,602.5C 217.225,605.303 215.058,607.803 212.5,610C 210.524,614.906 208.857,619.906 207.5,625C 208.759,627.527 209.759,630.194 210.5,633C 210.294,634.366 209.96,635.699 209.5,637C 211.498,639.164 212.832,641.664 213.5,644.5C 214.403,647.391 214.736,650.391 214.5,653.5C 213.82,647.636 211.82,642.136 208.5,637C 208.706,635.634 209.04,634.301 209.5,633C 207.977,630.495 206.977,627.829 206.5,625C 207.789,619.013 209.623,613.18 212,607.5C 213.11,605.963 214.61,605.297 216.5,605.5C 218.418,598.682 219.918,591.682 221,584.5C 223.471,580.897 225.638,577.231 227.5,573.5 Z"/></g>
<g><path style="opacity:1" fill="#cbc3c5" d="M 361.5,652.5 C 363.415,649.577 365.749,646.91 368.5,644.5C 369.318,642.892 369.985,641.225 370.5,639.5C 368.17,627.854 366.17,616.187 364.5,604.5C 362.535,603.871 360.535,603.204 358.5,602.5C 356.5,603.167 354.5,603.833 352.5,604.5C 350.97,604.36 349.97,603.693 349.5,602.5C 351.31,603.955 352.977,603.788 354.5,602C 360.395,600.005 364.229,601.838 366,607.5C 367.719,618.147 369.553,628.814 371.5,639.5C 370.333,645.438 367,649.771 361.5,652.5 Z"/></g>
<g><path style="opacity:1" fill="#d7adb7" d="M 213.5,644.5 C 215.369,646.635 216.036,649.302 215.5,652.5C 217.527,652.338 219.527,652.505 221.5,653C 222.056,653.383 222.389,653.883 222.5,654.5C 222.167,654.5 221.833,654.5 221.5,654.5C 219.283,653.631 216.95,653.298 214.5,653.5C 214.736,650.391 214.403,647.391 213.5,644.5 Z"/></g>
<g><path style="opacity:1" fill="#c9bfc1" d="M 357.5,656.5 C 354.957,660.916 355.623,664.916 359.5,668.5C 356.345,667.102 354.679,664.602 354.5,661C 354.414,658.648 355.414,657.148 357.5,656.5 Z"/></g>
<g><path style="opacity:1" fill="#c8bec0" d="M 221.5,654.5 C 221.833,654.5 222.167,654.5 222.5,654.5C 223.229,657.659 224.563,660.659 226.5,663.5C 224.409,666.845 223.076,670.512 222.5,674.5C 218.993,678.523 217.826,683.19 219,688.5C 222.056,695.792 224.889,703.125 227.5,710.5C 230.014,720.397 232.348,730.397 234.5,740.5C 235.5,740.5 236.5,740.5 237.5,740.5C 237.5,741.833 237.5,743.167 237.5,744.5C 236.596,743.791 236.263,742.791 236.5,741.5C 235.5,741.5 234.5,741.5 233.5,741.5C 231.348,731.397 229.014,721.397 226.5,711.5C 223.889,704.125 221.056,696.792 218,689.5C 217.333,685.5 217.333,681.5 218,677.5C 223.87,670.402 225.036,662.736 221.5,654.5 Z"/></g>
<g><path style="opacity:1" fill="#c8bdbf" d="M 361.5,670.5 C 367.143,674.311 372.643,678.311 378,682.5C 378.87,693.349 380.704,704.016 383.5,714.5C 382.184,725.786 380.518,737.12 378.5,748.5C 378.953,753.671 380.619,758.337 383.5,762.5C 381.544,761.878 380.211,760.545 379.5,758.5C 378.515,755.228 377.849,751.895 377.5,748.5C 379.43,737.106 381.096,725.773 382.5,714.5C 379.575,704.372 377.741,694.038 377,683.5C 372.857,679.792 368.357,676.625 363.5,674C 362.177,673.184 361.511,672.017 361.5,670.5 Z"/></g>
<g><path style="opacity:1" fill="#cbc2c4" d="M 383.5,762.5 C 385.101,764.786 386.768,767.119 388.5,769.5C 390.319,776.093 391.819,782.759 393,789.5C 395.715,794.264 397.882,799.264 399.5,804.5C 397.692,801.423 395.692,798.257 393.5,795C 391.58,786.82 389.58,778.653 387.5,770.5C 385.24,768.255 383.906,765.589 383.5,762.5 Z"/></g>
<g><path style="opacity:1" fill="#cec0c3" d="M 401.5,806.5 C 404.467,808.497 407.467,810.497 410.5,812.5C 414.5,813.167 418.5,813.833 422.5,814.5C 426.041,816.942 429.707,818.942 433.5,820.5C 428.816,820.492 424.816,818.825 421.5,815.5C 414.956,815.25 408.956,813.417 403.5,810C 402.177,809.184 401.511,808.017 401.5,806.5 Z"/></g>
<g><path style="opacity:1" fill="#ccc2c4" d="M 433.5,820.5 C 435.172,823.198 436.339,826.198 437,829.5C 439.045,830.926 441.212,831.926 443.5,832.5C 441.473,832.662 439.473,832.495 437.5,832C 435.474,828.44 434.141,824.607 433.5,820.5 Z"/></g>
<g><path style="opacity:1" fill="#cbbfc2" d="M 443.5,832.5 C 444.629,834.628 444.796,836.961 444,839.5C 442.396,840.068 441.73,841.068 442,842.5C 446.998,845.443 451.831,848.61 456.5,852C 458.591,854.263 459.924,856.93 460.5,860C 459.242,863.532 457.909,867.032 456.5,870.5C 455.643,871.425 454.643,872.092 453.5,872.5C 456.151,868.696 458.151,864.529 459.5,860C 458.161,856.152 455.828,852.986 452.5,850.5C 448.088,848.211 443.922,845.545 440,842.5C 439.333,841.833 439.333,841.167 440,840.5C 443.136,838.836 444.303,836.169 443.5,832.5 Z"/></g>
<g><path style="opacity:1" fill="#cbc4c5" d="M 451.5,874.5 C 450.132,875.306 448.799,876.306 447.5,877.5C 446.237,881.673 444.237,885.339 441.5,888.5C 443.129,884.564 444.796,880.564 446.5,876.5C 447.842,874.995 449.508,874.328 451.5,874.5 Z"/></g>
<g><path style="opacity:1" fill="#c8bcbe" d="M 237.5,744.5 C 239.668,745.172 241.001,746.672 241.5,749C 243.069,754.454 243.903,759.954 244,765.5C 247.7,770.594 251.033,775.927 254,781.5C 255.144,799.258 256.978,816.925 259.5,834.5C 257.712,834.215 256.045,834.548 254.5,835.5C 256.625,838.276 256.958,841.276 255.5,844.5C 252.317,844.929 249.984,846.596 248.5,849.5C 251.959,857.907 250.126,864.907 243,870.5C 243.935,873.723 243.435,876.723 241.5,879.5C 237.636,882.512 233.47,884.845 229,886.5C 228.18,891.638 228.68,896.638 230.5,901.5C 234.644,902.639 237.977,904.973 240.5,908.5C 245.277,919.382 246.944,930.716 245.5,942.5C 244.883,942.389 244.383,942.056 244,941.5C 243.212,935.78 243.379,930.114 244.5,924.5C 243.512,921.55 242.679,918.55 242,915.5C 239.701,908.87 235.367,904.203 229,901.5C 227.561,896.238 227.228,890.904 228,885.5C 232.461,883.849 236.627,881.516 240.5,878.5C 241.244,875.557 241.744,872.557 242,869.5C 245.408,866.308 247.908,862.475 249.5,858C 248.341,854.549 247.841,851.049 248,847.5C 249.547,845.113 251.713,843.78 254.5,843.5C 254.384,840.14 254.051,836.807 253.5,833.5C 255.167,833.5 256.833,833.5 258.5,833.5C 255.858,816.609 254.025,799.609 253,782.5C 250.033,776.927 246.7,771.594 243,766.5C 242.192,764.577 241.692,762.577 241.5,760.5C 242.081,754.754 240.748,749.421 237.5,744.5 Z"/></g>
<g><path style="opacity:1" fill="#ccc8c9" d="M 441.5,888.5 C 440.14,890.54 438.807,892.54 437.5,894.5C 437.354,891.446 438.687,889.446 441.5,888.5 Z"/></g>
<g><path style="opacity:1" fill="#cabec0" d="M 437.5,894.5 C 436.91,896.097 435.91,897.431 434.5,898.5C 436.423,902.258 438.923,905.591 442,908.5C 443.853,911.559 445.02,914.892 445.5,918.5C 444.295,921.57 442.795,924.57 441,927.5C 440.564,929.847 440.064,932.181 439.5,934.5C 441.256,941.351 443.59,948.017 446.5,954.5C 449.248,957.589 452.248,960.256 455.5,962.5C 454.022,962.762 452.689,962.429 451.5,961.5C 445.63,956.432 441.797,950.099 440,942.5C 437.474,933.656 438.974,925.656 444.5,918.5C 444.101,916.803 443.601,915.137 443,913.5C 440,909.167 437,904.833 434,900.5C 433.36,897.446 434.527,895.446 437.5,894.5 Z"/></g>
<g><path style="opacity:1" fill="#cac3c4" d="M 245.5,942.5 C 248.833,944.5 251.5,947.167 253.5,950.5C 250.167,948.5 247.5,945.833 245.5,942.5 Z"/></g>
<g><path style="opacity:1" fill="#c8bfc0" d="M 253.5,950.5 C 255.017,950.511 256.184,951.177 257,952.5C 257.837,954.844 259.171,956.844 261,958.5C 261.308,963.593 260.975,968.593 260,973.5C 261.974,975.629 263.641,977.962 265,980.5C 265.026,984.179 265.86,987.512 267.5,990.5C 267.5,990.833 267.5,991.167 267.5,991.5C 266.25,991.423 265.417,990.756 265,989.5C 265.353,983.532 263.353,978.532 259,974.5C 258.436,971.041 258.936,967.708 260.5,964.5C 259.234,959.301 256.901,954.635 253.5,950.5 Z"/></g>
<g><path style="opacity:1" fill="#cbc2c4" d="M 455.5,962.5 C 461.239,964.207 466.572,966.707 471.5,970C 483.9,981.866 488.733,996.366 486,1013.5C 486.198,1018.12 484.032,1020.12 479.5,1019.5C 479.5,1019.17 479.5,1018.83 479.5,1018.5C 481.451,1018.77 482.951,1018.11 484,1016.5C 488.868,990.557 479.368,972.557 455.5,962.5 Z"/></g>
<g><path style="opacity:1" fill="#dbaab6" d="M 267.5,991.5 C 267.5,991.167 267.5,990.833 267.5,990.5C 269.5,990.5 271.5,990.5 273.5,990.5C 273.5,991.833 273.5,993.167 273.5,994.5C 272.833,993.833 272.167,993.167 271.5,992.5C 270.292,991.766 268.959,991.433 267.5,991.5 Z"/></g>
<g><path style="opacity:1" fill="#c9bec0" d="M 271.5,992.5 C 272.167,993.167 272.833,993.833 273.5,994.5C 273.371,997.766 272.371,1000.77 270.5,1003.5C 271.127,1004.42 271.461,1005.42 271.5,1006.5C 270.12,1006.04 269.453,1005.04 269.5,1003.5C 270.222,1001.06 271.222,998.722 272.5,996.5C 271.754,995.264 271.421,993.93 271.5,992.5 Z"/></g>
<g><path style="opacity:1" fill="#d6b0b9" d="M 479.5,1018.5 C 479.5,1018.83 479.5,1019.17 479.5,1019.5C 472.745,1019.21 466.078,1019.54 459.5,1020.5C 459.167,1020.5 458.833,1020.5 458.5,1020.5C 458.611,1019.88 458.944,1019.38 459.5,1019C 466.158,1018.5 472.825,1018.33 479.5,1018.5 Z"/></g>
<g><path style="opacity:1" fill="#cfc5c7" d="M 458.5,1020.5 C 458.833,1020.5 459.167,1020.5 459.5,1020.5C 454.865,1024.46 450.198,1028.46 445.5,1032.5C 448.896,1027.44 453.229,1023.44 458.5,1020.5 Z"/></g>
<g><path style="opacity:1" fill="#cac0c2" d="M 445.5,1032.5 C 442.05,1033.99 439.217,1036.32 437,1039.5C 436.101,1045.16 435.268,1050.83 434.5,1056.5C 433.946,1063.1 436.779,1067.44 443,1069.5C 445.788,1074.45 447.288,1079.78 447.5,1085.5C 442.927,1096.21 439.593,1107.21 437.5,1118.5C 438.27,1106.86 441.27,1095.86 446.5,1085.5C 446.132,1080.55 444.799,1075.88 442.5,1071.5C 434.133,1066.93 431.3,1059.93 434,1050.5C 434.797,1045.83 435.63,1041.16 436.5,1036.5C 439.116,1034.2 442.116,1032.86 445.5,1032.5 Z"/></g>
<g><path style="opacity:1" fill="#c8bec0" d="M 271.5,1006.5 C 273.513,1007.48 274.846,1009.14 275.5,1011.5C 278.955,1011.96 282.122,1012.96 285,1014.5C 285.747,1022.65 287.247,1030.65 289.5,1038.5C 288.493,1042.17 288.66,1045.84 290,1049.5C 293.562,1050.3 294.729,1052.3 293.5,1055.5C 296.513,1056.5 299.346,1057.84 302,1059.5C 302.189,1064.25 302.855,1068.92 304,1073.5C 308.184,1077.34 313.018,1079.68 318.5,1080.5C 319.427,1101.33 320.76,1122 322.5,1142.5C 322.5,1144.17 322.5,1145.83 322.5,1147.5C 322.167,1147.5 321.833,1147.5 321.5,1147.5C 319.918,1125.51 318.584,1103.51 317.5,1081.5C 304.988,1080.13 299.488,1073.13 301,1060.5C 298.186,1058.4 295.02,1057.4 291.5,1057.5C 293.496,1054.16 292.663,1051.83 289,1050.5C 287.605,1046.5 287.438,1042.5 288.5,1038.5C 286.141,1031.02 284.641,1023.35 284,1015.5C 281.122,1013.96 277.955,1012.96 274.5,1012.5C 273.487,1010.47 272.487,1008.47 271.5,1006.5 Z"/></g>
<g><path style="opacity:1" fill="#cbc2c3" d="M 435.5,1120.5 C 432.833,1121.83 430.833,1123.83 429.5,1126.5C 429.5,1122.5 431.5,1120.5 435.5,1120.5 Z"/></g>
<g><path style="opacity:1" fill="#cac5c7" d="M 429.5,1126.5 C 425.67,1133.16 422.67,1140.16 420.5,1147.5C 420.167,1147.5 419.833,1147.5 419.5,1147.5C 419.5,1147.17 419.5,1146.83 419.5,1146.5C 421.297,1138.91 424.63,1132.24 429.5,1126.5 Z"/></g>
<g><path style="opacity:1" fill="#d8b0ba" d="M 322.5,1142.5 C 323.434,1143.57 323.768,1144.9 323.5,1146.5C 355.5,1146.5 387.5,1146.5 419.5,1146.5C 419.5,1146.83 419.5,1147.17 419.5,1147.5C 387.167,1147.5 354.833,1147.5 322.5,1147.5C 322.5,1145.83 322.5,1144.17 322.5,1142.5 Z"/></g>
</svg>
