<?xml version="1.0" encoding="UTF-8"?>
<!DOCTYPE svg PUBLIC "-//W3C//DTD SVG 1.1//EN" "http://www.w3.org/Graphics/SVG/1.1/DTD/svg11.dtd">
<svg xmlns="http://www.w3.org/2000/svg" version="1.1" width="417px" height="416px" style="shape-rendering:geometricPrecision; text-rendering:geometricPrecision; image-rendering:optimizeQuality; fill-rule:evenodd; clip-rule:evenodd" xmlns:xlink="http://www.w3.org/1999/xlink">
<g><path style="opacity:1" fill="#fefefe" d="M -0.5,-0.5 C 138.5,-0.5 277.5,-0.5 416.5,-0.5C 416.5,138.167 416.5,276.833 416.5,415.5C 409.5,415.5 402.5,415.5 395.5,415.5C 398.625,414.521 401.958,414.187 405.5,414.5C 405.5,411.833 405.5,409.167 405.5,406.5C 401.447,406.359 398.114,404.692 395.5,401.5C 394.311,400.571 392.978,400.238 391.5,400.5C 389.315,394.743 387.982,388.743 387.5,382.5C 388.281,375.59 389.781,368.924 392,362.5C 392.665,357.476 392.498,352.476 391.5,347.5C 393.955,343.541 396.622,339.707 399.5,336C 396.493,328.814 394.326,321.314 393,313.5C 391.588,311.935 390.421,310.269 389.5,308.5C 388.167,305.167 388.167,301.833 389.5,298.5C 392.295,295.691 394.295,292.358 395.5,288.5C 394.167,285.833 394.167,283.167 395.5,280.5C 396.451,278.528 397.451,276.528 398.5,274.5C 404.553,268.95 410.053,262.95 415,256.5C 415.588,248.33 415.088,240.33 413.5,232.5C 414.271,229.154 414.938,225.654 415.5,222C 415.164,220.97 414.497,220.47 413.5,220.5C 413.714,215.694 411.714,212.027 407.5,209.5C 400.243,204.972 392.243,202.472 383.5,202C 381.976,199.642 379.976,197.809 377.5,196.5C 374.756,192.557 372.756,188.224 371.5,183.5C 367.658,180.344 364.658,176.677 362.5,172.5C 363.167,169.833 363.833,167.167 364.5,164.5C 367.977,162.014 370.311,158.681 371.5,154.5C 370.451,152.403 369.451,150.403 368.5,148.5C 367.765,145.098 367.765,141.765 368.5,138.5C 368.36,136.97 367.693,135.97 366.5,135.5C 360.786,131.37 354.452,128.37 347.5,126.5C 345.5,127.833 343.5,127.833 341.5,126.5C 340.833,126.5 340.167,126.5 339.5,126.5C 338.167,123.833 338.167,121.167 339.5,118.5C 341.282,117.28 343.282,116.614 345.5,116.5C 345.866,103.832 346.033,91.1657 346,78.5C 344.647,77.2958 342.981,76.6292 341,76.5C 337.264,77.335 333.764,78.6683 330.5,80.5C 327.465,81.7335 324.465,81.7335 321.5,80.5C 320.833,80.5 320.167,80.5 319.5,80.5C 318.742,75.7291 320.075,71.7291 323.5,68.5C 323.782,67.2223 324.449,66.2223 325.5,65.5C 330.885,62.0767 331.551,58.0767 327.5,53.5C 326.032,52.2209 325.365,50.5542 325.5,48.5C 324.649,46.1184 323.316,44.1184 321.5,42.5C 320.949,39.7332 319.616,37.3999 317.5,35.5C 312.88,34.5067 308.214,34.1734 303.5,34.5C 302.167,35.8333 300.833,35.8333 299.5,34.5C 299.167,34.5 298.833,34.5 298.5,34.5C 298.262,31.9315 296.929,30.2648 294.5,29.5C 294.5,27.5 294.5,25.5 294.5,23.5C 296.344,21.7211 297.01,19.3878 296.5,16.5C 296.571,13.6887 297.238,11.022 298.5,8.5C 297.731,5.88531 297.397,3.21865 297.5,0.5C 292.833,0.5 288.167,0.5 283.5,0.5C 278.26,1.44913 272.927,1.78246 267.5,1.5C 267.263,2.79105 267.596,3.79105 268.5,4.5C 269.833,6.5 269.833,8.5 268.5,10.5C 264.688,11.0264 261.021,11.6931 257.5,12.5C 253.439,13.3483 249.439,14.5149 245.5,16C 239.509,16.4995 233.509,16.6662 227.5,16.5C 218.833,17.8333 210.167,17.8333 201.5,16.5C 196.833,16.5 192.167,16.5 187.5,16.5C 183.605,15.7752 179.605,15.1086 175.5,14.5C 170.167,14.5 164.833,14.5 159.5,14.5C 155.063,15.1132 150.73,15.7798 146.5,16.5C 144.167,16.5 141.833,16.5 139.5,16.5C 136.72,17.0784 134.053,17.7451 131.5,18.5C 128.833,18.5 126.167,18.5 123.5,18.5C 121.694,19.0241 120.028,19.6908 118.5,20.5C 106.986,23.2408 95.319,25.2408 83.5,26.5C 80.3896,27.0885 77.3896,27.7552 74.5,28.5C 70.8333,28.5 67.1667,28.5 63.5,28.5C 60.7196,29.0784 58.0529,29.7451 55.5,30.5C 39.7317,34.6858 23.7317,38.0191 7.5,40.5C 6.00478,40.9887 4.67145,41.6554 3.5,42.5C 2.16667,42.5 0.833333,42.5 -0.5,42.5C -0.5,28.1667 -0.5,13.8333 -0.5,-0.5 Z"/></g>
<g><path style="opacity:1" fill="#8e6dc7" d="M 283.5,0.5 C 288.167,0.5 292.833,0.5 297.5,0.5C 297.397,3.21865 297.731,5.88531 298.5,8.5C 297.238,11.022 296.571,13.6887 296.5,16.5C 295.732,18.7146 295.065,21.0479 294.5,23.5C 294.5,25.5 294.5,27.5 294.5,29.5C 295.484,31.4799 296.817,33.1466 298.5,34.5C 298.833,34.5 299.167,34.5 299.5,34.5C 299.62,35.5862 300.287,36.2528 301.5,36.5C 302.713,36.2528 303.38,35.5862 303.5,34.5C 308.214,34.1734 312.88,34.5067 317.5,35.5C 319.616,37.3999 320.949,39.7332 321.5,42.5C 321.87,45.267 323.204,47.267 325.5,48.5C 325.365,50.5542 326.032,52.2209 327.5,53.5C 327.786,55.2769 328.453,56.9436 329.5,58.5C 327.69,60.6234 326.357,62.9567 325.5,65.5C 324.449,66.2223 323.782,67.2223 323.5,68.5C 321.569,69.2593 320.069,70.5926 319,72.5C 318.199,75.367 318.366,78.0336 319.5,80.5C 320.167,80.5 320.833,80.5 321.5,80.5C 322.514,81.7647 324.014,82.4313 326,82.5C 327.986,82.4313 329.486,81.7647 330.5,80.5C 333.764,78.6683 337.264,77.335 341,76.5C 342.981,76.6292 344.647,77.2958 346,78.5C 346.033,91.1657 345.866,103.832 345.5,116.5C 343.282,116.614 341.282,117.28 339.5,118.5C 336.833,121.167 336.833,123.833 339.5,126.5C 340.167,126.5 340.833,126.5 341.5,126.5C 341.97,127.693 342.97,128.36 344.5,128.5C 346.03,128.36 347.03,127.693 347.5,126.5C 354.452,128.37 360.786,131.37 366.5,135.5C 367.695,137.773 367.695,140.106 366.5,142.5C 366.878,144.717 367.545,146.717 368.5,148.5C 369.451,150.403 370.451,152.403 371.5,154.5C 370.311,158.681 367.977,162.014 364.5,164.5C 361.965,166.846 361.298,169.513 362.5,172.5C 364.658,176.677 367.658,180.344 371.5,183.5C 372.756,188.224 374.756,192.557 377.5,196.5C 379.976,197.809 381.976,199.642 383.5,202C 392.243,202.472 400.243,204.972 407.5,209.5C 411.714,212.027 413.714,215.694 413.5,220.5C 413.5,224.5 413.5,228.5 413.5,232.5C 415.088,240.33 415.588,248.33 415,256.5C 410.053,262.95 404.553,268.95 398.5,274.5C 397.451,276.528 396.451,278.528 395.5,280.5C 392.833,283.167 392.833,285.833 395.5,288.5C 394.295,292.358 392.295,295.691 389.5,298.5C 386.833,301.833 386.833,305.167 389.5,308.5C 390.421,310.269 391.588,311.935 393,313.5C 394.326,321.314 396.493,328.814 399.5,336C 396.622,339.707 393.955,343.541 391.5,347.5C 392.498,352.476 392.665,357.476 392,362.5C 389.781,368.924 388.281,375.59 387.5,382.5C 387.982,388.743 389.315,394.743 391.5,400.5C 392.978,400.238 394.311,400.571 395.5,401.5C 398.114,404.692 401.447,406.359 405.5,406.5C 405.5,409.167 405.5,411.833 405.5,414.5C 401.958,414.187 398.625,414.521 395.5,415.5C 389.5,415.5 383.5,415.5 377.5,415.5C 373.702,414.517 369.702,414.183 365.5,414.5C 361.285,412.564 356.619,411.897 351.5,412.5C 346.5,412.5 341.5,412.5 336.5,412.5C 332.285,410.564 327.619,409.897 322.5,410.5C 317.5,410.5 312.5,410.5 307.5,410.5C 303.893,409.176 299.893,408.509 295.5,408.5C 291.107,408.509 287.107,409.176 283.5,410.5C 271.398,410.945 259.398,410.278 247.5,408.5C 245.429,407.191 242.929,406.525 240,406.5C 237.071,406.525 234.571,407.191 232.5,408.5C 228.774,408.177 225.107,408.511 221.5,409.5C 219.974,411.387 217.974,412.387 215.5,412.5C 213.667,412.415 212.334,411.748 211.5,410.5C 210.257,408.247 208.59,406.247 206.5,404.5C 205.066,405.588 204.066,406.922 203.5,408.5C 201.731,409.421 200.065,410.588 198.5,412C 196.741,412.798 195.074,412.631 193.5,411.5C 191.329,407.156 188.663,403.156 185.5,399.5C 183.604,398.534 181.604,398.201 179.5,398.5C 175.671,397.931 172.337,398.598 169.5,400.5C 160.201,402.05 150.868,403.383 141.5,404.5C 138.918,404.025 136.918,404.692 135.5,406.5C 127.379,408.015 119.379,410.015 111.5,412.5C 111.666,406.491 111.499,400.491 111,394.5C 108.868,388.575 107.034,382.575 105.5,376.5C 101.916,375.454 98.2496,374.621 94.5,374C 90.1571,372.99 86.9904,370.49 85,366.5C 83.0765,358.117 80.2432,350.117 76.5,342.5C 70.9633,338.807 65.63,334.807 60.5,330.5C 59.5451,325.935 58.0451,321.602 56,317.5C 55.5912,309.34 53.5912,301.673 50,294.5C 50.8105,285.225 51.3105,275.892 51.5,266.5C 51.6641,263.813 51.4974,261.146 51,258.5C 50.7216,257.584 50.2216,256.918 49.5,256.5C 48.4389,249.253 46.6055,242.253 44,235.5C 41.4534,225.95 42.2867,216.95 46.5,208.5C 47.6484,204.019 47.8151,199.352 47,194.5C 46.7216,193.584 46.2216,192.918 45.5,192.5C 45.6655,188.486 45.4988,184.486 45,180.5C 43.1146,170.292 40.6146,160.292 37.5,150.5C 37.5,147.833 37.5,145.167 37.5,142.5C 37.6785,139.784 38.1785,137.117 39,134.5C 41.7152,129.065 43.8818,123.398 45.5,117.5C 45.074,113.296 44.4073,109.129 43.5,105C 44.2711,101.52 44.9378,98.0199 45.5,94.5C 40.594,83.4656 34.9274,72.799 28.5,62.5C 26.1667,60.1667 23.8333,57.8333 21.5,55.5C 14.1205,51.7525 6.78716,48.0859 -0.5,44.5C -0.5,43.8333 -0.5,43.1667 -0.5,42.5C 0.833333,42.5 2.16667,42.5 3.5,42.5C 5.48324,42.8432 6.81658,42.1765 7.5,40.5C 23.7317,38.0191 39.7317,34.6858 55.5,30.5C 58.6981,31.0356 61.3647,30.369 63.5,28.5C 67.1667,28.5 70.8333,28.5 74.5,28.5C 78.0122,29.0545 81.0122,28.3878 83.5,26.5C 95.319,25.2408 106.986,23.2408 118.5,20.5C 120.781,20.9227 122.448,20.256 123.5,18.5C 126.167,18.5 128.833,18.5 131.5,18.5C 134.698,19.0356 137.365,18.369 139.5,16.5C 141.833,16.5 144.167,16.5 146.5,16.5C 151.294,17.0969 155.627,16.4302 159.5,14.5C 164.833,14.5 170.167,14.5 175.5,14.5C 179.029,16.4228 183.029,17.0894 187.5,16.5C 192.167,16.5 196.833,16.5 201.5,16.5C 205.445,17.8255 209.778,18.4921 214.5,18.5C 219.222,18.4921 223.555,17.8255 227.5,16.5C 233.509,16.6662 239.509,16.4995 245.5,16C 249.439,14.5149 253.439,13.3483 257.5,12.5C 261.649,13.0803 265.316,12.4136 268.5,10.5C 269.833,8.5 269.833,6.5 268.5,4.5C 273.5,3.16667 278.5,1.83333 283.5,0.5 Z"/></g>
<g><path style="opacity:1" fill="#9e90b5" d="M 283.5,0.5 C 278.5,1.83333 273.5,3.16667 268.5,4.5C 267.596,3.79105 267.263,2.79105 267.5,1.5C 272.927,1.78246 278.26,1.44913 283.5,0.5 Z"/></g>
<g><path style="opacity:1" fill="#9d8eb5" d="M 268.5,10.5 C 265.316,12.4136 261.649,13.0803 257.5,12.5C 261.021,11.6931 264.688,11.0264 268.5,10.5 Z"/></g>
<g><path style="opacity:1" fill="#a093b6" d="M 159.5,14.5 C 155.627,16.4302 151.294,17.0969 146.5,16.5C 150.73,15.7798 155.063,15.1132 159.5,14.5 Z"/></g>
<g><path style="opacity:1" fill="#9f92b6" d="M 175.5,14.5 C 179.605,15.1086 183.605,15.7752 187.5,16.5C 183.029,17.0894 179.029,16.4228 175.5,14.5 Z"/></g>
<g><path style="opacity:1" fill="#a092b6" d="M 139.5,16.5 C 137.365,18.369 134.698,19.0356 131.5,18.5C 134.053,17.7451 136.72,17.0784 139.5,16.5 Z"/></g>
<g><path style="opacity:1" fill="#9f92b6" d="M 201.5,16.5 C 210.167,17.8333 218.833,17.8333 227.5,16.5C 223.555,17.8255 219.222,18.4921 214.5,18.5C 209.778,18.4921 205.445,17.8255 201.5,16.5 Z"/></g>
<g><path style="opacity:1" fill="#bebac6" d="M 296.5,16.5 C 297.01,19.3878 296.344,21.7211 294.5,23.5C 295.065,21.0479 295.732,18.7146 296.5,16.5 Z"/></g>
<g><path style="opacity:1" fill="#a396b7" d="M 123.5,18.5 C 122.448,20.256 120.781,20.9227 118.5,20.5C 120.028,19.6908 121.694,19.0241 123.5,18.5 Z"/></g>
<g><path style="opacity:1" fill="#a195b7" d="M 83.5,26.5 C 81.0122,28.3878 78.0122,29.0545 74.5,28.5C 77.3896,27.7552 80.3896,27.0885 83.5,26.5 Z"/></g>
<g><path style="opacity:1" fill="#a599b9" d="M 63.5,28.5 C 61.3647,30.369 58.6981,31.0356 55.5,30.5C 58.0529,29.7451 60.7196,29.0784 63.5,28.5 Z"/></g>
<g><path style="opacity:1" fill="#bcb7c6" d="M 294.5,29.5 C 296.929,30.2648 298.262,31.9315 298.5,34.5C 296.817,33.1466 295.484,31.4799 294.5,29.5 Z"/></g>
<g><path style="opacity:1" fill="#a093b6" d="M 299.5,34.5 C 300.833,35.8333 302.167,35.8333 303.5,34.5C 303.38,35.5862 302.713,36.2528 301.5,36.5C 300.287,36.2528 299.62,35.5862 299.5,34.5 Z"/></g>
<g><path style="opacity:1" fill="#a093b6" d="M 7.5,40.5 C 6.81658,42.1765 5.48324,42.8432 3.5,42.5C 4.67145,41.6554 6.00478,40.9887 7.5,40.5 Z"/></g>
<g><path style="opacity:1" fill="#fefefe" d="M -0.5,44.5 C 6.78716,48.0859 14.1205,51.7525 21.5,55.5C 23.8333,57.8333 26.1667,60.1667 28.5,62.5C 34.9274,72.799 40.594,83.4656 45.5,94.5C 44.9378,98.0199 44.2711,101.52 43.5,105C 44.4073,109.129 45.074,113.296 45.5,117.5C 43.8818,123.398 41.7152,129.065 39,134.5C 38.1785,137.117 37.6785,139.784 37.5,142.5C 35.0285,145.119 35.0285,147.786 37.5,150.5C 40.6146,160.292 43.1146,170.292 45,180.5C 45.4988,184.486 45.6655,188.486 45.5,192.5C 46.3424,197.787 46.6757,203.12 46.5,208.5C 42.2867,216.95 41.4534,225.95 44,235.5C 46.6055,242.253 48.4389,249.253 49.5,256.5C 49.8994,260.011 50.5661,263.344 51.5,266.5C 51.3105,275.892 50.8105,285.225 50,294.5C 53.5912,301.673 55.5912,309.34 56,317.5C 58.0451,321.602 59.5451,325.935 60.5,330.5C 65.63,334.807 70.9633,338.807 76.5,342.5C 80.2432,350.117 83.0765,358.117 85,366.5C 86.9904,370.49 90.1571,372.99 94.5,374C 98.2496,374.621 101.916,375.454 105.5,376.5C 107.034,382.575 108.868,388.575 111,394.5C 111.499,400.491 111.666,406.491 111.5,412.5C 119.379,410.015 127.379,408.015 135.5,406.5C 137.626,405.952 139.626,405.285 141.5,404.5C 150.868,403.383 160.201,402.05 169.5,400.5C 172.941,399.903 176.275,399.237 179.5,398.5C 181.604,398.201 183.604,398.534 185.5,399.5C 188.663,403.156 191.329,407.156 193.5,411.5C 195.074,412.631 196.741,412.798 198.5,412C 200.065,410.588 201.731,409.421 203.5,408.5C 204.416,408.018 205.416,407.685 206.5,407.5C 208.184,408.527 209.851,409.527 211.5,410.5C 212.334,411.748 213.667,412.415 215.5,412.5C 217.974,412.387 219.974,411.387 221.5,409.5C 225.107,408.511 228.774,408.177 232.5,408.5C 237.531,407.217 242.531,407.217 247.5,408.5C 259.398,410.278 271.398,410.945 283.5,410.5C 291.5,409.167 299.5,409.167 307.5,410.5C 312.5,410.5 317.5,410.5 322.5,410.5C 327.029,411.273 331.695,411.94 336.5,412.5C 341.5,412.5 346.5,412.5 351.5,412.5C 356.064,413.216 360.731,413.883 365.5,414.5C 369.702,414.183 373.702,414.517 377.5,415.5C 251.5,415.5 125.5,415.5 -0.5,415.5C -0.5,291.833 -0.5,168.167 -0.5,44.5 Z"/></g>
<g><path style="opacity:1" fill="#b0a6bf" d="M 321.5,42.5 C 323.316,44.1184 324.649,46.1184 325.5,48.5C 323.204,47.267 321.87,45.267 321.5,42.5 Z"/></g>
<g><path style="opacity:1" fill="#c6c3cd" d="M 327.5,53.5 C 331.551,58.0767 330.885,62.0767 325.5,65.5C 326.357,62.9567 327.69,60.6234 329.5,58.5C 328.453,56.9436 327.786,55.2769 327.5,53.5 Z"/></g>
<g><path style="opacity:1" fill="#b0a6bf" d="M 323.5,68.5 C 320.075,71.7291 318.742,75.7291 319.5,80.5C 318.366,78.0336 318.199,75.367 319,72.5C 320.069,70.5926 321.569,69.2593 323.5,68.5 Z"/></g>
<g><path style="opacity:1" fill="#9c8eb5" d="M 321.5,80.5 C 324.465,81.7335 327.465,81.7335 330.5,80.5C 329.486,81.7647 327.986,82.4313 326,82.5C 324.014,82.4313 322.514,81.7647 321.5,80.5 Z"/></g>
<g><path style="opacity:1" fill="#9281b1" d="M 339.5,118.5 C 338.167,121.167 338.167,123.833 339.5,126.5C 336.833,123.833 336.833,121.167 339.5,118.5 Z"/></g>
<g><path style="opacity:1" fill="#a194b6" d="M 341.5,126.5 C 343.5,127.833 345.5,127.833 347.5,126.5C 347.03,127.693 346.03,128.36 344.5,128.5C 342.97,128.36 341.97,127.693 341.5,126.5 Z"/></g>
<g><path style="opacity:1" fill="#b7b2c2" d="M 366.5,135.5 C 367.693,135.97 368.36,136.97 368.5,138.5C 367.765,141.765 367.765,145.098 368.5,148.5C 367.545,146.717 366.878,144.717 366.5,142.5C 367.695,140.106 367.695,137.773 366.5,135.5 Z"/></g>
<g><path style="opacity:1" fill="#9484b4" d="M 37.5,142.5 C 37.5,145.167 37.5,147.833 37.5,150.5C 35.0285,147.786 35.0285,145.119 37.5,142.5 Z"/></g>
<g><path style="opacity:1" fill="#9584b3" d="M 364.5,164.5 C 363.833,167.167 363.167,169.833 362.5,172.5C 361.298,169.513 361.965,166.846 364.5,164.5 Z"/></g>
<g><path style="opacity:1" fill="#8e7aaf" d="M 45.5,192.5 C 46.2216,192.918 46.7216,193.584 47,194.5C 47.8151,199.352 47.6484,204.019 46.5,208.5C 46.6757,203.12 46.3424,197.787 45.5,192.5 Z"/></g>
<g><path style="opacity:1" fill="#917fb1" d="M 413.5,220.5 C 414.497,220.47 415.164,220.97 415.5,222C 414.938,225.654 414.271,229.154 413.5,232.5C 413.5,228.5 413.5,224.5 413.5,220.5 Z"/></g>
<g><path style="opacity:1" fill="#9684b2" d="M 49.5,256.5 C 50.2216,256.918 50.7216,257.584 51,258.5C 51.4974,261.146 51.6641,263.813 51.5,266.5C 50.5661,263.344 49.8994,260.011 49.5,256.5 Z"/></g>
<g><path style="opacity:1" fill="#917fb1" d="M 395.5,280.5 C 394.167,283.167 394.167,285.833 395.5,288.5C 392.833,285.833 392.833,283.167 395.5,280.5 Z"/></g>
<g><path style="opacity:1" fill="#9281b2" d="M 389.5,298.5 C 388.167,301.833 388.167,305.167 389.5,308.5C 386.833,305.167 386.833,301.833 389.5,298.5 Z"/></g>
<g><path style="opacity:1" fill="#9f92b6" d="M 179.5,398.5 C 176.275,399.237 172.941,399.903 169.5,400.5C 172.337,398.598 175.671,397.931 179.5,398.5 Z"/></g>
<g><path style="opacity:1" fill="#a092b6" d="M 141.5,404.5 C 139.626,405.285 137.626,405.952 135.5,406.5C 136.918,404.692 138.918,404.025 141.5,404.5 Z"/></g>
<g><path style="opacity:1" fill="#c8c3d0" d="M 211.5,410.5 C 209.851,409.527 208.184,408.527 206.5,407.5C 205.416,407.685 204.416,408.018 203.5,408.5C 204.066,406.922 205.066,405.588 206.5,404.5C 208.59,406.247 210.257,408.247 211.5,410.5 Z"/></g>
<g><path style="opacity:1" fill="#9e90b5" d="M 247.5,408.5 C 242.531,407.217 237.531,407.217 232.5,408.5C 234.571,407.191 237.071,406.525 240,406.5C 242.929,406.525 245.429,407.191 247.5,408.5 Z"/></g>
<g><path style="opacity:1" fill="#a092b6" d="M 307.5,410.5 C 299.5,409.167 291.5,409.167 283.5,410.5C 287.107,409.176 291.107,408.509 295.5,408.5C 299.893,408.509 303.893,409.176 307.5,410.5 Z"/></g>
<g><path style="opacity:1" fill="#9f91b6" d="M 322.5,410.5 C 327.619,409.897 332.285,410.564 336.5,412.5C 331.695,411.94 327.029,411.273 322.5,410.5 Z"/></g>
<g><path style="opacity:1" fill="#a093b6" d="M 351.5,412.5 C 356.619,411.897 361.285,412.564 365.5,414.5C 360.731,413.883 356.064,413.216 351.5,412.5 Z"/></g>
</svg>
