<?xml version="1.0" encoding="UTF-8"?>
<!DOCTYPE svg PUBLIC "-//W3C//DTD SVG 1.1//EN" "http://www.w3.org/Graphics/SVG/1.1/DTD/svg11.dtd">
<svg xmlns="http://www.w3.org/2000/svg" version="1.1" width="2095px" height="1320px" style="shape-rendering:geometricPrecision; text-rendering:geometricPrecision; image-rendering:optimizeQuality; fill-rule:evenodd; clip-rule:evenodd" xmlns:xlink="http://www.w3.org/1999/xlink">
<g><path style="opacity:1" fill="#ce9aa7" d="M -0.5,-0.5 C 11.5,-0.5 23.5,-0.5 35.5,-0.5C 35.5,-0.166667 35.5,0.166667 35.5,0.5C 23.4521,-0.145106 11.7854,0.521561 0.5,2.5C 0.166667,2.5 -0.166667,2.5 -0.5,2.5C -0.5,1.5 -0.5,0.5 -0.5,-0.5 Z"/></g>
<g><path style="opacity:1" fill="#eb5f82" d="M 35.5,0.5 C 68.1667,0.5 100.833,0.5 133.5,0.5C 165.816,2.49288 198.483,3.15955 231.5,2.5C 264.167,2.5 296.833,2.5 329.5,2.5C 348.471,4.4876 367.804,5.15427 387.5,4.5C 390.833,4.5 394.167,4.5 397.5,4.5C 399.635,6.36895 402.302,7.03562 405.5,6.5C 408.5,6.5 411.5,6.5 414.5,6.5C 416.988,8.38784 419.988,9.0545 423.5,8.5C 426.5,8.5 429.5,8.5 432.5,8.5C 434.988,10.3878 437.988,11.0545 441.5,10.5C 444.5,10.5 447.5,10.5 450.5,10.5C 452.988,12.3878 455.988,13.0545 459.5,12.5C 462.5,12.5 465.5,12.5 468.5,12.5C 470.988,14.3878 473.988,15.0545 477.5,14.5C 486.167,14.5 494.833,14.5 503.5,14.5C 517.127,16.4824 531.127,17.1491 545.5,16.5C 560.167,16.5 574.833,16.5 589.5,16.5C 603.127,18.4824 617.127,19.1491 631.5,18.5C 646.167,18.5 660.833,18.5 675.5,18.5C 689.795,20.4833 704.462,21.1499 719.5,20.5C 735.5,20.5 751.5,20.5 767.5,20.5C 785.803,22.4871 804.47,23.1538 823.5,22.5C 842.167,22.5 860.833,22.5 879.5,22.5C 899.139,24.488 919.139,25.1547 939.5,24.5C 961.167,24.5 982.833,24.5 1004.5,24.5C 1015.79,26.4784 1027.45,27.1451 1039.5,26.5C 1039.81,51.8594 1039.81,77.1927 1039.5,102.5C 1038.85,114.88 1039.52,126.88 1041.5,138.5C 1041.5,161.167 1041.5,183.833 1041.5,206.5C 1047.75,208.459 1054.42,209.126 1061.5,208.5C 1070.83,208.5 1080.17,208.5 1089.5,208.5C 1089.69,211.33 1090.36,213.996 1091.5,216.5C 1091.16,218.483 1091.82,219.817 1093.5,220.5C 1093.5,221.167 1093.5,221.833 1093.5,222.5C 1093.16,224.483 1093.82,225.817 1095.5,226.5C 1095.5,227.167 1095.5,227.833 1095.5,228.5C 1095.16,230.483 1095.82,231.817 1097.5,232.5C 1098.89,234.921 1099.72,237.588 1100,240.5C 1101.44,242.155 1103.28,242.822 1105.5,242.5C 1107.64,244.369 1110.3,245.036 1113.5,244.5C 1116.5,244.5 1119.5,244.5 1122.5,244.5C 1124.28,246.344 1126.61,247.01 1129.5,246.5C 1132.83,246.5 1136.17,246.5 1139.5,246.5C 1141.64,248.369 1144.3,249.036 1147.5,248.5C 1150.5,248.5 1153.5,248.5 1156.5,248.5C 1158.28,250.344 1160.61,251.01 1163.5,250.5C 1166.83,250.5 1170.17,250.5 1173.5,250.5C 1175.64,252.369 1178.3,253.036 1181.5,252.5C 1184.5,252.5 1187.5,252.5 1190.5,252.5C 1192.28,254.344 1194.61,255.01 1197.5,254.5C 1200.83,254.5 1204.17,254.5 1207.5,254.5C 1209.64,256.369 1212.3,257.036 1215.5,256.5C 1218.5,256.5 1221.5,256.5 1224.5,256.5C 1226.99,258.388 1229.99,259.055 1233.5,258.5C 1236.17,258.5 1238.83,258.5 1241.5,258.5C 1243.64,260.369 1246.3,261.036 1249.5,260.5C 1252.5,260.5 1255.5,260.5 1258.5,260.5C 1260.99,262.388 1263.99,263.055 1267.5,262.5C 1270.17,262.5 1272.83,262.5 1275.5,262.5C 1277.64,264.369 1280.3,265.036 1283.5,264.5C 1286.5,264.5 1289.5,264.5 1292.5,264.5C 1294.99,266.388 1297.99,267.055 1301.5,266.5C 1304.17,266.5 1306.83,266.5 1309.5,266.5C 1311.64,268.369 1314.3,269.036 1317.5,268.5C 1320.5,268.5 1323.5,268.5 1326.5,268.5C 1328.99,270.388 1331.99,271.055 1335.5,270.5C 1338.17,270.5 1340.83,270.5 1343.5,270.5C 1345.64,272.369 1348.3,273.036 1351.5,272.5C 1354.5,272.5 1357.5,272.5 1360.5,272.5C 1362.99,274.388 1365.99,275.055 1369.5,274.5C 1371.83,274.5 1374.17,274.5 1376.5,274.5C 1403.12,280.496 1430.12,285.829 1457.5,290.5C 1459.17,290.5 1460.83,290.5 1462.5,290.5C 1463.55,292.256 1465.22,292.923 1467.5,292.5C 1469.5,292.5 1471.5,292.5 1473.5,292.5C 1478.42,294.562 1483.75,295.895 1489.5,296.5C 1491.17,296.5 1492.83,296.5 1494.5,296.5C 1503.81,299.047 1513.47,301.047 1523.5,302.5C 1525.5,302.5 1527.5,302.5 1529.5,302.5C 1545.83,306.299 1562.49,309.632 1579.5,312.5C 1581.17,312.5 1582.83,312.5 1584.5,312.5C 1585.55,314.256 1587.22,314.923 1589.5,314.5C 1591.5,314.5 1593.5,314.5 1595.5,314.5C 1600.46,316.387 1605.8,317.721 1611.5,318.5C 1613.17,318.5 1614.83,318.5 1616.5,318.5C 1621.77,320.501 1627.44,321.835 1633.5,322.5C 1635.17,322.5 1636.83,322.5 1638.5,322.5C 1639.55,324.256 1641.22,324.923 1643.5,324.5C 1645.5,324.5 1647.5,324.5 1649.5,324.5C 1654.46,326.387 1659.8,327.721 1665.5,328.5C 1667.17,328.5 1668.83,328.5 1670.5,328.5C 1675.77,330.501 1681.44,331.835 1687.5,332.5C 1689.17,332.5 1690.83,332.5 1692.5,332.5C 1693.55,334.256 1695.22,334.923 1697.5,334.5C 1699.5,334.5 1701.5,334.5 1703.5,334.5C 1708.46,336.387 1713.8,337.721 1719.5,338.5C 1721.17,338.5 1722.83,338.5 1724.5,338.5C 1729.77,340.501 1735.44,341.835 1741.5,342.5C 1743.17,342.5 1744.83,342.5 1746.5,342.5C 1747.55,344.256 1749.22,344.923 1751.5,344.5C 1753.5,344.5 1755.5,344.5 1757.5,344.5C 1762.46,346.387 1767.8,347.721 1773.5,348.5C 1775.17,348.5 1776.83,348.5 1778.5,348.5C 1783.77,350.501 1789.44,351.835 1795.5,352.5C 1797.17,352.5 1798.83,352.5 1800.5,352.5C 1801.55,354.256 1803.22,354.923 1805.5,354.5C 1807.5,354.5 1809.5,354.5 1811.5,354.5C 1814.06,356.094 1817.06,357.094 1820.5,357.5C 1829.48,358.498 1838.48,358.832 1847.5,358.5C 1849.17,358.5 1850.83,358.5 1852.5,358.5C 1853.55,360.256 1855.22,360.923 1857.5,360.5C 1859.17,360.5 1860.83,360.5 1862.5,360.5C 1869.77,363.161 1877.44,365.161 1885.5,366.5C 1890.1,367.621 1894.77,368.621 1899.5,369.5C 1932.03,388.446 1966.03,403.446 2001.5,414.5C 2003.72,416.08 2006.38,417.08 2009.5,417.5C 2022.19,419.169 2034.86,420.836 2047.5,422.5C 2050.17,422.5 2052.83,422.5 2055.5,422.5C 2057.64,424.369 2060.3,425.036 2063.5,424.5C 2067.5,424.5 2071.5,424.5 2075.5,424.5C 2078.39,425.01 2080.72,424.344 2082.5,422.5C 2085.85,422.335 2089.18,422.502 2092.5,423C 2093.41,424.699 2093.74,426.533 2093.5,428.5C 2085.97,431.619 2078.64,435.286 2071.5,439.5C 2062.43,446.358 2053.09,452.692 2043.5,458.5C 2039.67,457.931 2036.34,458.598 2033.5,460.5C 2032.4,461.605 2031.73,462.938 2031.5,464.5C 2029.82,465.183 2029.16,466.517 2029.5,468.5C 2029.5,469.167 2029.5,469.833 2029.5,470.5C 2027.82,471.183 2027.16,472.517 2027.5,474.5C 2027.5,475.167 2027.5,475.833 2027.5,476.5C 2025.82,477.183 2025.16,478.517 2025.5,480.5C 2012.78,495.217 2000.11,509.884 1987.5,524.5C 1986.33,525.514 1985.66,526.847 1985.5,528.5C 1982.83,531.167 1980.17,533.833 1977.5,536.5C 1976.33,537.514 1975.66,538.847 1975.5,540.5C 1966.26,549.765 1957.76,559.765 1950,570.5C 1936.01,599.303 1921.84,627.969 1907.5,656.5C 1906.33,657.514 1905.66,658.847 1905.5,660.5C 1904.33,661.514 1903.66,662.847 1903.5,664.5C 1902.33,665.514 1901.66,666.847 1901.5,668.5C 1900.33,669.514 1899.66,670.847 1899.5,672.5C 1890.63,691.26 1881.46,709.927 1872,728.5C 1871.51,729.793 1871.34,731.127 1871.5,732.5C 1869.93,734.102 1869.26,736.102 1869.5,738.5C 1869.5,739.167 1869.5,739.833 1869.5,740.5C 1867.93,742.102 1867.26,744.102 1867.5,746.5C 1867.5,747.167 1867.5,747.833 1867.5,748.5C 1865.93,750.102 1865.26,752.102 1865.5,754.5C 1865.5,755.167 1865.5,755.833 1865.5,756.5C 1863.93,758.102 1863.26,760.102 1863.5,762.5C 1863.5,763.167 1863.5,763.833 1863.5,764.5C 1861.93,766.102 1861.26,768.102 1861.5,770.5C 1861.5,771.167 1861.5,771.833 1861.5,772.5C 1859.93,774.102 1859.26,776.102 1859.5,778.5C 1859.5,779.167 1859.5,779.833 1859.5,780.5C 1857.93,782.102 1857.26,784.102 1857.5,786.5C 1855.71,795.877 1853.71,805.21 1851.5,814.5C 1849.93,816.102 1849.26,818.102 1849.5,820.5C 1849.5,821.167 1849.5,821.833 1849.5,822.5C 1847.93,824.102 1847.26,826.102 1847.5,828.5C 1847.5,829.167 1847.5,829.833 1847.5,830.5C 1845.93,832.102 1845.26,834.102 1845.5,836.5C 1843.71,845.877 1841.71,855.21 1839.5,864.5C 1837.93,866.102 1837.26,868.102 1837.5,870.5C 1837.5,871.167 1837.5,871.833 1837.5,872.5C 1835.93,874.102 1835.26,876.102 1835.5,878.5C 1835.5,879.167 1835.5,879.833 1835.5,880.5C 1833.93,882.102 1833.26,884.102 1833.5,886.5C 1831.71,895.877 1829.71,905.21 1827.5,914.5C 1825.93,916.102 1825.26,918.102 1825.5,920.5C 1825.31,923.983 1824.64,927.316 1823.5,930.5C 1821.93,932.102 1821.26,934.102 1821.5,936.5C 1818.71,949.13 1816.04,961.797 1813.5,974.5C 1811.69,975.918 1811.03,977.918 1811.5,980.5C 1811.5,981.167 1811.5,981.833 1811.5,982.5C 1809.93,984.102 1809.26,986.102 1809.5,988.5C 1809.04,992.538 1808.38,996.538 1807.5,1000.5C 1805.69,1001.92 1805.03,1003.92 1805.5,1006.5C 1805.5,1007.17 1805.5,1007.83 1805.5,1008.5C 1802.83,1011.83 1802.83,1015.17 1805.5,1018.5C 1806.38,1023.8 1807.04,1029.13 1807.5,1034.5C 1807.11,1037.55 1807.78,1040.22 1809.5,1042.5C 1810.3,1048.48 1810.96,1054.48 1811.5,1060.5C 1811.26,1062.9 1811.93,1064.9 1813.5,1066.5C 1813.5,1067.17 1813.5,1067.83 1813.5,1068.5C 1812.96,1071.7 1813.63,1074.36 1815.5,1076.5C 1816.93,1086.49 1818.26,1096.49 1819.5,1106.5C 1819.11,1109.55 1819.78,1112.22 1821.5,1114.5C 1822.91,1123.82 1824.24,1133.16 1825.5,1142.5C 1824.78,1142.92 1824.28,1143.58 1824,1144.5C 1823.5,1149.15 1823.33,1153.82 1823.5,1158.5C 1823.5,1163.17 1823.5,1167.83 1823.5,1172.5C 1821.56,1176.71 1820.9,1181.38 1821.5,1186.5C 1821.5,1195.83 1821.5,1205.17 1821.5,1214.5C 1761.83,1214.5 1702.17,1214.5 1642.5,1214.5C 1634.53,1213.17 1626.19,1212.5 1617.5,1212.5C 1608.81,1212.5 1600.47,1213.17 1592.5,1214.5C 1587.5,1214.5 1582.5,1214.5 1577.5,1214.5C 1572.71,1213.9 1568.37,1214.57 1564.5,1216.5C 1559.5,1216.5 1554.5,1216.5 1549.5,1216.5C 1545.03,1215.91 1541.03,1216.58 1537.5,1218.5C 1528.17,1218.5 1518.83,1218.5 1509.5,1218.5C 1496.54,1215.22 1483.2,1212.55 1469.5,1210.5C 1467.83,1210.5 1466.17,1210.5 1464.5,1210.5C 1459.99,1208.92 1455.15,1207.58 1450,1206.5C 1448.62,1206.68 1447.79,1207.35 1447.5,1208.5C 1442.83,1208.5 1438.17,1208.5 1433.5,1208.5C 1429.03,1207.91 1425.03,1208.58 1421.5,1210.5C 1416.83,1210.5 1412.17,1210.5 1407.5,1210.5C 1403.03,1209.91 1399.03,1210.58 1395.5,1212.5C 1390.83,1212.5 1386.17,1212.5 1381.5,1212.5C 1377.03,1211.91 1373.03,1212.58 1369.5,1214.5C 1350.43,1214.86 1331.43,1216.19 1312.5,1218.5C 1311.32,1217 1309.66,1216 1307.5,1215.5C 1303.22,1214.51 1298.88,1214.17 1294.5,1214.5C 1293.85,1213.27 1292.68,1212.61 1291,1212.5C 1289.32,1212.61 1288.15,1213.27 1287.5,1214.5C 1273.77,1215.23 1260.1,1216.56 1246.5,1218.5C 1242.63,1216.57 1238.29,1215.9 1233.5,1216.5C 1230.32,1215.36 1226.98,1214.69 1223.5,1214.5C 1222.49,1213.24 1220.99,1212.57 1219,1212.5C 1217.01,1212.57 1215.51,1213.24 1214.5,1214.5C 1207.08,1216.75 1199.74,1219.41 1192.5,1222.5C 1189.14,1225.53 1186.14,1228.86 1183.5,1232.5C 1178.09,1238.57 1172.75,1244.57 1167.5,1250.5C 1166.33,1251.51 1165.66,1252.85 1165.5,1254.5C 1165.17,1255.5 1164.5,1256.17 1163.5,1256.5C 1162.33,1257.51 1161.66,1258.85 1161.5,1260.5C 1161.17,1261.5 1160.5,1262.17 1159.5,1262.5C 1158.33,1263.51 1157.66,1264.85 1157.5,1266.5C 1157.17,1267.5 1156.5,1268.17 1155.5,1268.5C 1154.33,1269.51 1153.66,1270.85 1153.5,1272.5C 1150.27,1278.07 1146.61,1283.41 1142.5,1288.5C 1141.7,1290.08 1141.2,1291.74 1141,1293.5C 1140.11,1294.08 1139.11,1294.41 1138,1294.5C 1119.63,1287.96 1101.29,1281.29 1083,1274.5C 1080.23,1277.66 1077.73,1281 1075.5,1284.5C 1074.33,1285.51 1073.66,1286.85 1073.5,1288.5C 1072.33,1289.51 1071.66,1290.85 1071.5,1292.5C 1070.33,1293.51 1069.66,1294.85 1069.5,1296.5C 1066.58,1302.75 1063.24,1308.75 1059.5,1314.5C 1058.33,1315.51 1057.66,1316.85 1057.5,1318.5C 1054.39,1318.74 1051.39,1318.4 1048.5,1317.5C 1042.35,1315.5 1036.02,1313.83 1029.5,1312.5C 1026.76,1312.6 1024.1,1312.27 1021.5,1311.5C 1015.68,1309.54 1009.68,1307.87 1003.5,1306.5C 993.692,1304.11 983.692,1302.11 973.5,1300.5C 969.895,1298.58 965.895,1297.25 961.5,1296.5C 956.784,1296.15 952.117,1295.49 947.5,1294.5C 943.895,1292.58 939.895,1291.25 935.5,1290.5C 930.572,1289.41 925.572,1288.41 920.5,1287.5C 917.032,1286.13 913.366,1285.13 909.5,1284.5C 908.167,1284.5 906.833,1284.5 905.5,1284.5C 901.895,1282.58 897.895,1281.25 893.5,1280.5C 890.393,1280.65 887.393,1280.15 884.5,1279C 885.828,1274.6 885.495,1270.27 883.5,1266C 878.669,1263 874.669,1259.17 871.5,1254.5C 872.371,1252 873.037,1249.33 873.5,1246.5C 873.5,1245.83 873.5,1245.17 873.5,1244.5C 873.34,1242.85 872.674,1241.51 871.5,1240.5C 866.093,1237.09 862.093,1232.42 859.5,1226.5C 858.203,1224.2 856.537,1222.2 854.5,1220.5C 850.429,1217.56 846.263,1214.56 842,1211.5C 838.583,1207.66 837.75,1203.33 839.5,1198.5C 842.167,1197.83 842.167,1197.17 839.5,1196.5C 839.279,1195.27 838.612,1194.27 837.5,1193.5C 834.833,1192.83 832.167,1192.17 829.5,1191.5C 828.544,1189.92 827.877,1188.26 827.5,1186.5C 827.666,1182.49 827.499,1178.49 827,1174.5C 826.722,1173.58 826.222,1172.92 825.5,1172.5C 822.51,1164.63 821.843,1156.63 823.5,1148.5C 824.674,1147.49 825.34,1146.15 825.5,1144.5C 826.634,1141.1 827.968,1137.77 829.5,1134.5C 831.176,1133.82 831.843,1132.48 831.5,1130.5C 832.674,1129.49 833.34,1128.15 833.5,1126.5C 834.295,1122.52 834.962,1118.52 835.5,1114.5C 835.889,1111.45 835.223,1108.78 833.5,1106.5C 833.5,1105.83 833.5,1105.17 833.5,1104.5C 833.975,1101.92 833.308,1099.92 831.5,1098.5C 830.538,1093.01 829.205,1087.68 827.5,1082.5C 827.34,1080.85 826.674,1079.51 825.5,1078.5C 825.34,1076.85 824.674,1075.51 823.5,1074.5C 821.879,1072.74 820.546,1070.74 819.5,1068.5C 819.34,1066.85 818.674,1065.51 817.5,1064.5C 817.34,1062.85 816.674,1061.51 815.5,1060.5C 815.34,1058.85 814.674,1057.51 813.5,1056.5C 813.34,1054.85 812.674,1053.51 811.5,1052.5C 811.34,1050.85 810.674,1049.51 809.5,1048.5C 805.388,1042.06 799.721,1037.4 792.5,1034.5C 786.115,1037.39 779.781,1040.39 773.5,1043.5C 771.74,1046.21 771.073,1049.21 771.5,1052.5C 770.778,1052.92 770.278,1053.58 770,1054.5C 769.5,1061.83 769.334,1069.16 769.5,1076.5C 769.5,1080.5 769.5,1084.5 769.5,1088.5C 768.167,1088.5 766.833,1088.5 765.5,1088.5C 760.706,1087.9 756.373,1088.57 752.5,1090.5C 748.167,1090.5 743.833,1090.5 739.5,1090.5C 734.706,1089.9 730.373,1090.57 726.5,1092.5C 721.5,1092.5 716.5,1092.5 711.5,1092.5C 706.056,1091.89 701.056,1092.56 696.5,1094.5C 693.5,1094.5 690.5,1094.5 687.5,1094.5C 687.5,1087.5 687.5,1080.5 687.5,1073.5C 688.511,1071.63 689.345,1069.63 690,1067.5C 698.011,1060.65 705.844,1053.65 713.5,1046.5C 715.308,1045.08 715.975,1043.08 715.5,1040.5C 704.855,1029.19 694.188,1017.85 683.5,1006.5C 680.864,1002.86 677.864,999.529 674.5,996.5C 674.167,996.5 673.833,996.5 673.5,996.5C 673.34,994.847 672.674,993.514 671.5,992.5C 666.41,990.083 663.743,986.083 663.5,980.5C 663.741,978.102 663.074,976.102 661.5,974.5C 664.113,969.235 667.447,964.569 671.5,960.5C 672.81,958.565 674.143,956.565 675.5,954.5C 675.457,953.584 675.124,952.917 674.5,952.5C 660.505,943.837 646.505,935.17 632.5,926.5C 630.502,924.173 628.168,922.173 625.5,920.5C 624.5,920.167 623.833,919.5 623.5,918.5C 623.34,916.847 622.674,915.514 621.5,914.5C 619.523,911.91 617.523,909.243 615.5,906.5C 615.741,904.102 615.074,902.102 613.5,900.5C 613.153,894.943 613.82,889.61 615.5,884.5C 615.664,881.813 615.497,879.146 615,876.5C 614.722,875.584 614.222,874.918 613.5,874.5C 613.5,872.5 613.5,870.5 613.5,868.5C 612.5,868.5 611.5,868.5 610.5,868.5C 609.85,866.565 609.517,864.565 609.5,862.5C 612.37,855.527 614.37,848.194 615.5,840.5C 615.975,837.918 615.308,835.918 613.5,834.5C 613.5,833.167 613.5,831.833 613.5,830.5C 613.741,828.102 613.074,826.102 611.5,824.5C 611.279,823.265 610.612,822.265 609.5,821.5C 601.001,819 592.335,817.333 583.5,816.5C 583.5,815.167 583.5,813.833 583.5,812.5C 583.5,809.833 583.5,807.167 583.5,804.5C 583.34,802.847 582.674,801.514 581.5,800.5C 580.37,798.685 579.704,796.685 579.5,794.5C 579.34,792.847 578.674,791.514 577.5,790.5C 577.34,788.847 576.674,787.514 575.5,786.5C 574.193,784.518 572.859,782.518 571.5,780.5C 571.34,778.847 570.674,777.514 569.5,776.5C 567.5,773.167 564.833,770.5 561.5,768.5C 559.373,762.518 557.373,756.518 555.5,750.5C 555.34,748.847 554.674,747.514 553.5,746.5C 552.057,745.665 551.057,744.332 550.5,742.5C 549.509,738.555 549.176,734.555 549.5,730.5C 550.693,730.03 551.36,729.03 551.5,727.5C 551.564,725.443 550.898,723.777 549.5,722.5C 548.041,718.539 546.708,714.539 545.5,710.5C 545.843,708.517 545.176,707.183 543.5,706.5C 542.042,703.133 540.376,699.799 538.5,696.5C 535.271,694.728 532.271,692.728 529.5,690.5C 528.162,683.775 527.162,677.109 526.5,670.5C 524.652,665.145 522.985,659.812 521.5,654.5C 521.34,652.847 520.674,651.514 519.5,650.5C 514.193,646.194 509.193,641.527 504.5,636.5C 502.551,634.522 500.551,632.522 498.5,630.5C 495.28,628.798 492.28,626.798 489.5,624.5C 489.34,622.847 488.674,621.514 487.5,620.5C 484.918,617.234 482.251,613.901 479.5,610.5C 479.34,608.847 478.674,607.514 477.5,606.5C 477.34,604.847 476.674,603.514 475.5,602.5C 473.5,599.833 471.5,597.167 469.5,594.5C 469.34,592.847 468.674,591.514 467.5,590.5C 466.5,590.167 465.833,589.5 465.5,588.5C 465.34,586.847 464.674,585.514 463.5,584.5C 462.5,584.167 461.833,583.5 461.5,582.5C 461.34,580.847 460.674,579.514 459.5,578.5C 459.34,576.847 458.674,575.514 457.5,574.5C 457.34,572.847 456.674,571.514 455.5,570.5C 455.34,568.847 454.674,567.514 453.5,566.5C 453.34,564.847 452.674,563.514 451.5,562.5C 451.34,560.847 450.674,559.514 449.5,558.5C 448.37,556.685 447.704,554.685 447.5,552.5C 447.843,550.517 447.176,549.183 445.5,548.5C 445.5,547.833 445.5,547.167 445.5,546.5C 445.843,544.517 445.176,543.183 443.5,542.5C 443.5,541.833 443.5,541.167 443.5,540.5C 443.34,538.847 442.674,537.514 441.5,536.5C 441.34,534.847 440.674,533.514 439.5,532.5C 428.384,523.197 416.384,514.863 403.5,507.5C 397.15,502.807 391.15,497.807 385.5,492.5C 385.34,490.847 384.674,489.514 383.5,488.5C 380.56,485.041 378.56,481.041 377.5,476.5C 374.724,475.588 372.057,474.588 369.5,473.5C 364.908,472.647 360.241,471.647 355.5,470.5C 351.61,469.976 347.944,468.809 344.5,467C 340.129,466.828 335.796,466.328 331.5,465.5C 325.833,462.167 320.167,458.833 314.5,455.5C 307.081,453.247 299.748,450.581 292.5,447.5C 290.61,446.576 289.11,445.243 288,443.5C 287.824,437.887 286.991,432.387 285.5,427C 285.001,424.672 283.668,423.172 281.5,422.5C 281.34,420.847 280.674,419.514 279.5,418.5C 279.34,416.847 278.674,415.514 277.5,414.5C 276.333,412.959 275,411.625 273.5,410.5C 271.365,408.631 268.698,407.964 265.5,408.5C 264.273,403.991 261.607,400.657 257.5,398.5C 256.082,396.692 254.082,396.025 251.5,396.5C 250.167,396.5 248.833,396.5 247.5,396.5C 246.998,393.159 245.664,390.159 243.5,387.5C 237.56,385.364 231.56,383.364 225.5,381.5C 222.355,379.181 219.022,377.181 215.5,375.5C 214.388,374.735 213.721,373.735 213.5,372.5C 212.203,370.202 210.537,368.202 208.5,366.5C 204.121,363.97 200.121,360.803 196.5,357C 193.632,355.617 190.632,354.784 187.5,354.5C 187.5,352.5 187.5,350.5 187.5,348.5C 190.167,345.833 190.167,343.167 187.5,340.5C 187.167,340.5 186.833,340.5 186.5,340.5C 185.534,338.943 184.2,337.61 182.5,336.5C 181.534,334.604 181.201,332.604 181.5,330.5C 183.303,328.919 184.636,326.919 185.5,324.5C 187.017,322.538 187.684,320.205 187.5,317.5C 187.806,312.472 185.473,310.139 180.5,310.5C 179.092,308.868 177.592,307.202 176,305.5C 175.667,299.833 175.333,294.167 175,288.5C 173.533,285.921 172.366,283.254 171.5,280.5C 170.4,274.891 169.067,269.558 167.5,264.5C 167.762,263.022 167.429,261.689 166.5,260.5C 163.836,256.18 160.836,252.18 157.5,248.5C 155.533,245.532 153.2,242.865 150.5,240.5C 147.317,238.505 143.984,236.672 140.5,235C 131.613,234.365 122.78,234.865 114,236.5C 111.31,236.497 108.81,236.164 106.5,235.5C 100.96,232.634 95.9596,228.968 91.5,224.5C 91.3404,222.847 90.6737,221.514 89.5,220.5C 88.0688,219.097 86.9022,217.431 86,215.5C 84.8466,211.213 84.0133,206.879 83.5,202.5C 83.8893,199.447 83.2227,196.78 81.5,194.5C 81.0457,188.879 79.7124,183.546 77.5,178.5C 77.3404,176.847 76.6737,175.514 75.5,174.5C 66.9066,164.904 57.9066,155.571 48.5,146.5C 47.5,144.5 46.5,142.5 45.5,140.5C 46.2255,139.133 46.8921,137.8 47.5,136.5C 49.2101,134.439 50.5434,132.105 51.5,129.5C 49.2948,124.062 46.7948,118.729 44,113.5C 43.5065,111.866 43.3398,110.199 43.5,108.5C 45.0739,106.898 45.7406,104.898 45.5,102.5C 48.9771,99.0261 51.6438,95.0261 53.5,90.5C 56.3126,89.5539 57.646,87.5539 57.5,84.5C 56.5,84.5 55.5,84.5 54.5,84.5C 50.5313,81.4127 46.3647,78.4127 42,75.5C 39.7212,71.8845 37.0545,68.5511 34,65.5C 32.3008,60.8823 30.1342,56.549 27.5,52.5C 27.3404,50.847 26.6737,49.5137 25.5,48.5C 25.3404,46.847 24.6737,45.5137 23.5,44.5C 22.1667,44.5 21.5,43.8333 21.5,42.5C 19.5328,39.5315 17.1995,36.8649 14.5,34.5C 14.1667,34.5 13.8333,34.5 13.5,34.5C 13.3404,32.847 12.6737,31.5137 11.5,30.5C 10.6295,27.8877 9.96283,25.221 9.5,22.5C 9.74061,20.1016 9.07394,18.1016 7.5,16.5C 7.5,15.8333 7.5,15.1667 7.5,14.5C 7.74061,12.1016 7.07394,10.1016 5.5,8.5C 3.98832,6.40402 2.32165,4.40402 0.5,2.5C 11.7854,0.521561 23.4521,-0.145106 35.5,0.5 Z"/></g>
<g><path style="opacity:1" fill="#ce9aa7" d="M 133.5,0.5 C 166.264,1.15982 198.931,1.82648 231.5,2.5C 198.483,3.15955 165.816,2.49288 133.5,0.5 Z"/></g>
<g><path style="opacity:1" fill="#fefefe" d="M 35.5,0.5 C 35.5,0.166667 35.5,-0.166667 35.5,-0.5C 721.833,-0.5 1408.17,-0.5 2094.5,-0.5C 2094.5,439.5 2094.5,879.5 2094.5,1319.5C 1396.17,1319.5 697.833,1319.5 -0.5,1319.5C -0.5,880.5 -0.5,441.5 -0.5,2.5C -0.166667,2.5 0.166667,2.5 0.5,2.5C 2.32165,4.40402 3.98832,6.40402 5.5,8.5C 5.59495,10.7857 6.26162,12.7857 7.5,14.5C 7.5,15.1667 7.5,15.8333 7.5,16.5C 7.59495,18.7857 8.26162,20.7857 9.5,22.5C 9.96283,25.221 10.6295,27.8877 11.5,30.5C 11.2291,32.3797 11.8958,33.713 13.5,34.5C 13.8333,34.5 14.1667,34.5 14.5,34.5C 15.7329,38.0702 18.0663,40.7369 21.5,42.5C 21.5,43.8333 22.1667,44.5 23.5,44.5C 23.2291,46.3797 23.8958,47.713 25.5,48.5C 25.2291,50.3797 25.8958,51.713 27.5,52.5C 30.1342,56.549 32.3008,60.8823 34,65.5C 37.0545,68.5511 39.7212,71.8845 42,75.5C 46.3647,78.4127 50.5313,81.4127 54.5,84.5C 55.0906,85.1515 55.7573,85.8182 56.5,86.5C 55.0905,87.5695 54.0905,88.9028 53.5,90.5C 51.6438,95.0261 48.9771,99.0261 45.5,102.5C 44.2616,104.214 43.595,106.214 43.5,108.5C 43.3398,110.199 43.5065,111.866 44,113.5C 46.7948,118.729 49.2948,124.062 51.5,129.5C 50.5434,132.105 49.2101,134.439 47.5,136.5C 45.6198,137.078 44.6198,138.412 44.5,140.5C 45.2246,142.949 46.2246,145.283 47.5,147.5C 56.5503,156.885 65.8836,165.885 75.5,174.5C 75.2291,176.38 75.8958,177.713 77.5,178.5C 79.7124,183.546 81.0457,188.879 81.5,194.5C 81.8023,197.373 82.469,200.039 83.5,202.5C 84.0133,206.879 84.8466,211.213 86,215.5C 86.9022,217.431 88.0688,219.097 89.5,220.5C 89.2291,222.38 89.8958,223.713 91.5,224.5C 94.8435,230.521 99.8435,234.188 106.5,235.5C 108.81,236.164 111.31,236.497 114,236.5C 122.78,234.865 131.613,234.365 140.5,235C 143.984,236.672 147.317,238.505 150.5,240.5C 151.733,244.07 154.066,246.737 157.5,248.5C 160.836,252.18 163.836,256.18 166.5,260.5C 167.429,261.689 167.762,263.022 167.5,264.5C 168.272,268.75 168.772,273.083 169,277.5C 169.377,278.942 170.21,279.942 171.5,280.5C 172.366,283.254 173.533,285.921 175,288.5C 175.333,294.167 175.667,299.833 176,305.5C 177.592,307.202 179.092,308.868 180.5,310.5C 182.231,311.207 183.897,312.207 185.5,313.5C 186.586,317.155 186.586,320.822 185.5,324.5C 183.188,325.774 181.855,327.774 181.5,330.5C 179.562,335.499 181.229,338.833 186.5,340.5C 186.833,340.5 187.167,340.5 187.5,340.5C 188.833,343.167 188.833,345.833 187.5,348.5C 187.5,350.5 187.5,352.5 187.5,354.5C 190.632,354.784 193.632,355.617 196.5,357C 200.121,360.803 204.121,363.97 208.5,366.5C 209.054,369.391 210.721,371.391 213.5,372.5C 213.721,373.735 214.388,374.735 215.5,375.5C 219.022,377.181 222.355,379.181 225.5,381.5C 231.56,383.364 237.56,385.364 243.5,387.5C 245.664,390.159 246.998,393.159 247.5,396.5C 248.833,396.5 250.167,396.5 251.5,396.5C 253.374,397.285 255.374,397.952 257.5,398.5C 261.607,400.657 264.273,403.991 265.5,408.5C 268.053,409.255 270.72,409.922 273.5,410.5C 275,411.625 276.333,412.959 277.5,414.5C 277.229,416.38 277.896,417.713 279.5,418.5C 279.229,420.38 279.896,421.713 281.5,422.5C 283.668,423.172 285.001,424.672 285.5,427C 286.991,432.387 287.824,437.887 288,443.5C 289.11,445.243 290.61,446.576 292.5,447.5C 299.748,450.581 307.081,453.247 314.5,455.5C 320.167,458.833 325.833,462.167 331.5,465.5C 335.796,466.328 340.129,466.828 344.5,467C 347.944,468.809 351.61,469.976 355.5,470.5C 359.69,473.054 364.357,474.054 369.5,473.5C 372.057,474.588 374.724,475.588 377.5,476.5C 378.56,481.041 380.56,485.041 383.5,488.5C 383.229,490.38 383.896,491.713 385.5,492.5C 391.15,497.807 397.15,502.807 403.5,507.5C 416.384,514.863 428.384,523.197 439.5,532.5C 439.229,534.38 439.896,535.713 441.5,536.5C 441.229,538.38 441.896,539.713 443.5,540.5C 443.5,541.167 443.5,541.833 443.5,542.5C 443.989,543.995 444.655,545.329 445.5,546.5C 445.5,547.167 445.5,547.833 445.5,548.5C 445.989,549.995 446.655,551.329 447.5,552.5C 447.704,554.685 448.37,556.685 449.5,558.5C 449.229,560.38 449.896,561.713 451.5,562.5C 451.229,564.38 451.896,565.713 453.5,566.5C 453.229,568.38 453.896,569.713 455.5,570.5C 456.674,571.514 457.34,572.847 457.5,574.5C 457.229,576.38 457.896,577.713 459.5,578.5C 459.229,580.38 459.896,581.713 461.5,582.5C 461.833,583.5 462.5,584.167 463.5,584.5C 463.229,586.38 463.896,587.713 465.5,588.5C 465.833,589.5 466.5,590.167 467.5,590.5C 467.229,592.38 467.896,593.713 469.5,594.5C 471.5,597.167 473.5,599.833 475.5,602.5C 475.229,604.38 475.896,605.713 477.5,606.5C 477.229,608.38 477.896,609.713 479.5,610.5C 482.251,613.901 484.918,617.234 487.5,620.5C 487.229,622.38 487.896,623.713 489.5,624.5C 492.28,626.798 495.28,628.798 498.5,630.5C 499.134,633.801 501.134,635.801 504.5,636.5C 509.193,641.527 514.193,646.194 519.5,650.5C 519.229,652.38 519.896,653.713 521.5,654.5C 522.985,659.812 524.652,665.145 526.5,670.5C 526.171,676.206 526.505,681.872 527.5,687.5C 528.176,688.602 528.842,689.602 529.5,690.5C 532.271,692.728 535.271,694.728 538.5,696.5C 540.376,699.799 542.042,703.133 543.5,706.5C 543.989,707.995 544.655,709.329 545.5,710.5C 546.708,714.539 548.041,718.539 549.5,722.5C 550.53,725.229 550.53,727.896 549.5,730.5C 549.176,734.555 549.509,738.555 550.5,742.5C 551.057,744.332 552.057,745.665 553.5,746.5C 553.229,748.38 553.896,749.713 555.5,750.5C 557.373,756.518 559.373,762.518 561.5,768.5C 563.5,771.833 566.167,774.5 569.5,776.5C 569.229,778.38 569.896,779.713 571.5,780.5C 572.859,782.518 574.193,784.518 575.5,786.5C 575.229,788.38 575.896,789.713 577.5,790.5C 577.229,792.38 577.896,793.713 579.5,794.5C 579.704,796.685 580.37,798.685 581.5,800.5C 581.229,802.38 581.896,803.713 583.5,804.5C 583.5,807.167 583.5,809.833 583.5,812.5C 582.549,813.919 582.216,815.585 582.5,817.5C 589.477,818.497 596.477,819.497 603.5,820.5C 606.437,821.404 609.104,822.737 611.5,824.5C 611.595,826.786 612.262,828.786 613.5,830.5C 613.5,831.833 613.5,833.167 613.5,834.5C 614.048,836.626 614.715,838.626 615.5,840.5C 614.37,848.194 612.37,855.527 609.5,862.5C 608.861,863.097 608.528,863.93 608.5,865C 608.387,866.699 609.053,867.866 610.5,868.5C 611.5,868.5 612.5,868.5 613.5,868.5C 613.5,870.5 613.5,872.5 613.5,874.5C 613.899,878.011 614.566,881.344 615.5,884.5C 613.82,889.61 613.153,894.943 613.5,900.5C 613.595,902.786 614.262,904.786 615.5,906.5C 617.523,909.243 619.523,911.91 621.5,914.5C 621.229,916.38 621.896,917.713 623.5,918.5C 623.833,919.5 624.5,920.167 625.5,920.5C 626.906,923.572 629.239,925.572 632.5,926.5C 646.505,935.17 660.505,943.837 674.5,952.5C 673.063,954.96 672.063,957.626 671.5,960.5C 667.447,964.569 664.113,969.235 661.5,974.5C 661.595,976.786 662.262,978.786 663.5,980.5C 663.743,986.083 666.41,990.083 671.5,992.5C 671.229,994.38 671.896,995.713 673.5,996.5C 673.833,996.5 674.167,996.5 674.5,996.5C 676.407,1000.74 679.407,1004.08 683.5,1006.5C 694.188,1017.85 704.855,1029.19 715.5,1040.5C 714.715,1042.37 714.048,1044.37 713.5,1046.5C 705.844,1053.65 698.011,1060.65 690,1067.5C 689.345,1069.63 688.511,1071.63 687.5,1073.5C 686.508,1080.65 686.175,1087.98 686.5,1095.5C 690.371,1095.81 694.038,1095.48 697.5,1094.5C 702.167,1093.83 706.833,1093.17 711.5,1092.5C 716.5,1092.5 721.5,1092.5 726.5,1092.5C 730.937,1091.89 735.27,1091.22 739.5,1090.5C 743.833,1090.5 748.167,1090.5 752.5,1090.5C 756.937,1089.89 761.27,1089.22 765.5,1088.5C 766.833,1088.5 768.167,1088.5 769.5,1088.5C 769.5,1084.5 769.5,1080.5 769.5,1076.5C 770.26,1068.64 770.927,1060.64 771.5,1052.5C 771.073,1049.21 771.74,1046.21 773.5,1043.5C 779.781,1040.39 786.115,1037.39 792.5,1034.5C 799.721,1037.4 805.388,1042.06 809.5,1048.5C 809.229,1050.38 809.896,1051.71 811.5,1052.5C 811.229,1054.38 811.896,1055.71 813.5,1056.5C 813.229,1058.38 813.896,1059.71 815.5,1060.5C 815.229,1062.38 815.896,1063.71 817.5,1064.5C 817.229,1066.38 817.896,1067.71 819.5,1068.5C 820.546,1070.74 821.879,1072.74 823.5,1074.5C 823.229,1076.38 823.896,1077.71 825.5,1078.5C 825.229,1080.38 825.896,1081.71 827.5,1082.5C 829.205,1087.68 830.538,1093.01 831.5,1098.5C 832.048,1100.63 832.715,1102.63 833.5,1104.5C 833.5,1105.17 833.5,1105.83 833.5,1106.5C 833.802,1109.37 834.469,1112.04 835.5,1114.5C 834.962,1118.52 834.295,1122.52 833.5,1126.5C 831.896,1127.29 831.229,1128.62 831.5,1130.5C 830.655,1131.67 829.989,1133 829.5,1134.5C 827.968,1137.77 826.634,1141.1 825.5,1144.5C 823.896,1145.29 823.229,1146.62 823.5,1148.5C 821.843,1156.63 822.51,1164.63 825.5,1172.5C 825.992,1177.32 826.659,1181.99 827.5,1186.5C 827.877,1188.26 828.544,1189.92 829.5,1191.5C 832.167,1192.17 834.833,1192.83 837.5,1193.5C 838.612,1194.27 839.279,1195.27 839.5,1196.5C 839.5,1197.17 839.5,1197.83 839.5,1198.5C 837.75,1203.33 838.583,1207.66 842,1211.5C 846.263,1214.56 850.429,1217.56 854.5,1220.5C 855.054,1223.39 856.721,1225.39 859.5,1226.5C 862.093,1232.42 866.093,1237.09 871.5,1240.5C 871.229,1242.38 871.896,1243.71 873.5,1244.5C 873.5,1245.17 873.5,1245.83 873.5,1246.5C 872.883,1246.61 872.383,1246.94 872,1247.5C 871.503,1249.81 871.337,1252.14 871.5,1254.5C 874.669,1259.17 878.669,1263 883.5,1266C 885.495,1270.27 885.828,1274.6 884.5,1279C 887.393,1280.15 890.393,1280.65 893.5,1280.5C 897.115,1282.74 901.115,1284.08 905.5,1284.5C 906.833,1284.5 908.167,1284.5 909.5,1284.5C 912.759,1286.62 916.426,1287.62 920.5,1287.5C 925.572,1288.41 930.572,1289.41 935.5,1290.5C 939.115,1292.74 943.115,1294.08 947.5,1294.5C 952.117,1295.49 956.784,1296.15 961.5,1296.5C 965.115,1298.74 969.115,1300.08 973.5,1300.5C 983.692,1302.11 993.692,1304.11 1003.5,1306.5C 1009.04,1309.39 1015.04,1311.06 1021.5,1311.5C 1024.1,1312.27 1026.76,1312.6 1029.5,1312.5C 1030.4,1313.16 1031.4,1313.82 1032.5,1314.5C 1037.79,1315.86 1043.12,1316.86 1048.5,1317.5C 1051.39,1318.4 1054.39,1318.74 1057.5,1318.5C 1059.1,1317.71 1059.77,1316.38 1059.5,1314.5C 1063.24,1308.75 1066.58,1302.75 1069.5,1296.5C 1071.1,1295.71 1071.77,1294.38 1071.5,1292.5C 1073.1,1291.71 1073.77,1290.38 1073.5,1288.5C 1075.1,1287.71 1075.77,1286.38 1075.5,1284.5C 1077.73,1281 1080.23,1277.66 1083,1274.5C 1101.29,1281.29 1119.63,1287.96 1138,1294.5C 1139.11,1294.41 1140.11,1294.08 1141,1293.5C 1141.2,1291.74 1141.7,1290.08 1142.5,1288.5C 1146.61,1283.41 1150.27,1278.07 1153.5,1272.5C 1155.1,1271.71 1155.77,1270.38 1155.5,1268.5C 1156.5,1268.17 1157.17,1267.5 1157.5,1266.5C 1159.1,1265.71 1159.77,1264.38 1159.5,1262.5C 1160.5,1262.17 1161.17,1261.5 1161.5,1260.5C 1163.1,1259.71 1163.77,1258.38 1163.5,1256.5C 1164.5,1256.17 1165.17,1255.5 1165.5,1254.5C 1167.1,1253.71 1167.77,1252.38 1167.5,1250.5C 1172.75,1244.57 1178.09,1238.57 1183.5,1232.5C 1187.59,1230.08 1190.59,1226.74 1192.5,1222.5C 1199.74,1219.41 1207.08,1216.75 1214.5,1214.5C 1217.5,1213.17 1220.5,1213.17 1223.5,1214.5C 1226.98,1214.69 1230.32,1215.36 1233.5,1216.5C 1237.5,1217.17 1241.5,1217.83 1245.5,1218.5C 1247.47,1219.16 1249.64,1219.5 1252,1219.5C 1264.26,1217.41 1276.43,1215.74 1288.5,1214.5C 1290.39,1213.26 1292.39,1213.26 1294.5,1214.5C 1298.88,1214.17 1303.22,1214.51 1307.5,1215.5C 1309.66,1216 1311.32,1217 1312.5,1218.5C 1314.47,1219.16 1316.64,1219.5 1319,1219.5C 1336.26,1217.14 1353.42,1215.47 1370.5,1214.5C 1374.17,1213.83 1377.83,1213.17 1381.5,1212.5C 1386.17,1212.5 1390.83,1212.5 1395.5,1212.5C 1399.6,1211.89 1403.6,1211.22 1407.5,1210.5C 1412.17,1210.5 1416.83,1210.5 1421.5,1210.5C 1425.6,1209.89 1429.6,1209.22 1433.5,1208.5C 1438.17,1208.5 1442.83,1208.5 1447.5,1208.5C 1448.26,1208.08 1449.1,1207.74 1450,1207.5C 1454.72,1209.09 1459.56,1210.09 1464.5,1210.5C 1466.17,1210.5 1467.83,1210.5 1469.5,1210.5C 1482.57,1214.01 1495.9,1216.68 1509.5,1218.5C 1518.83,1218.5 1528.17,1218.5 1537.5,1218.5C 1541.6,1217.89 1545.6,1217.22 1549.5,1216.5C 1554.5,1216.5 1559.5,1216.5 1564.5,1216.5C 1568.94,1215.89 1573.27,1215.22 1577.5,1214.5C 1582.5,1214.5 1587.5,1214.5 1592.5,1214.5C 1609.17,1213.17 1625.83,1213.17 1642.5,1214.5C 1702.17,1214.5 1761.83,1214.5 1821.5,1214.5C 1821.5,1205.17 1821.5,1195.83 1821.5,1186.5C 1822.22,1181.94 1822.88,1177.27 1823.5,1172.5C 1823.5,1167.83 1823.5,1163.17 1823.5,1158.5C 1824.32,1153.32 1824.98,1147.99 1825.5,1142.5C 1824.24,1133.16 1822.91,1123.82 1821.5,1114.5C 1821.2,1111.63 1820.53,1108.96 1819.5,1106.5C 1818.26,1096.49 1816.93,1086.49 1815.5,1076.5C 1814.92,1073.72 1814.25,1071.05 1813.5,1068.5C 1813.5,1067.83 1813.5,1067.17 1813.5,1066.5C 1813.41,1064.21 1812.74,1062.21 1811.5,1060.5C 1810.96,1054.48 1810.3,1048.48 1809.5,1042.5C 1809.2,1039.63 1808.53,1036.96 1807.5,1034.5C 1807.04,1029.13 1806.38,1023.8 1805.5,1018.5C 1804.17,1015.17 1804.17,1011.83 1805.5,1008.5C 1805.5,1007.83 1805.5,1007.17 1805.5,1006.5C 1806.29,1004.63 1806.95,1002.63 1807.5,1000.5C 1808.38,996.538 1809.04,992.538 1809.5,988.5C 1810.74,986.786 1811.41,984.786 1811.5,982.5C 1811.5,981.833 1811.5,981.167 1811.5,980.5C 1812.29,978.626 1812.95,976.626 1813.5,974.5C 1816.04,961.797 1818.71,949.13 1821.5,936.5C 1822.74,934.786 1823.41,932.786 1823.5,930.5C 1824.64,927.316 1825.31,923.983 1825.5,920.5C 1826.74,918.786 1827.41,916.786 1827.5,914.5C 1829.71,905.21 1831.71,895.877 1833.5,886.5C 1834.74,884.786 1835.41,882.786 1835.5,880.5C 1835.5,879.833 1835.5,879.167 1835.5,878.5C 1836.74,876.786 1837.41,874.786 1837.5,872.5C 1837.5,871.833 1837.5,871.167 1837.5,870.5C 1838.74,868.786 1839.41,866.786 1839.5,864.5C 1841.71,855.21 1843.71,845.877 1845.5,836.5C 1846.74,834.786 1847.41,832.786 1847.5,830.5C 1847.5,829.833 1847.5,829.167 1847.5,828.5C 1848.74,826.786 1849.41,824.786 1849.5,822.5C 1849.5,821.833 1849.5,821.167 1849.5,820.5C 1850.74,818.786 1851.41,816.786 1851.5,814.5C 1853.71,805.21 1855.71,795.877 1857.5,786.5C 1858.74,784.786 1859.41,782.786 1859.5,780.5C 1859.5,779.833 1859.5,779.167 1859.5,778.5C 1860.74,776.786 1861.41,774.786 1861.5,772.5C 1861.5,771.833 1861.5,771.167 1861.5,770.5C 1862.74,768.786 1863.41,766.786 1863.5,764.5C 1863.5,763.833 1863.5,763.167 1863.5,762.5C 1864.74,760.786 1865.41,758.786 1865.5,756.5C 1865.5,755.833 1865.5,755.167 1865.5,754.5C 1866.74,752.786 1867.41,750.786 1867.5,748.5C 1867.5,747.833 1867.5,747.167 1867.5,746.5C 1868.74,744.786 1869.41,742.786 1869.5,740.5C 1869.5,739.833 1869.5,739.167 1869.5,738.5C 1870.74,736.786 1871.41,734.786 1871.5,732.5C 1871.34,731.127 1871.51,729.793 1872,728.5C 1881.46,709.927 1890.63,691.26 1899.5,672.5C 1901.1,671.713 1901.77,670.38 1901.5,668.5C 1903.1,667.713 1903.77,666.38 1903.5,664.5C 1905.1,663.713 1905.77,662.38 1905.5,660.5C 1907.1,659.713 1907.77,658.38 1907.5,656.5C 1921.84,627.969 1936.01,599.303 1950,570.5C 1957.76,559.765 1966.26,549.765 1975.5,540.5C 1977.1,539.713 1977.77,538.38 1977.5,536.5C 1980.17,533.833 1982.83,531.167 1985.5,528.5C 1987.1,527.713 1987.77,526.38 1987.5,524.5C 2000.11,509.884 2012.78,495.217 2025.5,480.5C 2026.34,479.329 2027.01,477.995 2027.5,476.5C 2027.5,475.833 2027.5,475.167 2027.5,474.5C 2028.34,473.329 2029.01,471.995 2029.5,470.5C 2029.5,469.833 2029.5,469.167 2029.5,468.5C 2030.34,467.329 2031.01,465.995 2031.5,464.5C 2031.73,462.938 2032.4,461.605 2033.5,460.5C 2036.94,459.903 2040.27,459.237 2043.5,458.5C 2053.09,452.692 2062.43,446.358 2071.5,439.5C 2078.64,435.286 2085.97,431.619 2093.5,428.5C 2093.74,426.533 2093.41,424.699 2092.5,423C 2089.18,422.502 2085.85,422.335 2082.5,422.5C 2080.05,423.065 2077.71,423.732 2075.5,424.5C 2071.5,424.5 2067.5,424.5 2063.5,424.5C 2060.95,423.745 2058.28,423.078 2055.5,422.5C 2052.83,422.5 2050.17,422.5 2047.5,422.5C 2032.3,419.669 2016.97,417.002 2001.5,414.5C 1966.03,403.446 1932.03,388.446 1899.5,369.5C 1894.77,368.621 1890.1,367.621 1885.5,366.5C 1878.14,363.676 1870.47,361.676 1862.5,360.5C 1860.83,360.5 1859.17,360.5 1857.5,360.5C 1855.97,359.691 1854.31,359.024 1852.5,358.5C 1850.83,358.5 1849.17,358.5 1847.5,358.5C 1835.51,357.984 1823.51,356.651 1811.5,354.5C 1809.5,354.5 1807.5,354.5 1805.5,354.5C 1803.97,353.691 1802.31,353.024 1800.5,352.5C 1798.83,352.5 1797.17,352.5 1795.5,352.5C 1790.11,350.364 1784.44,349.03 1778.5,348.5C 1776.83,348.5 1775.17,348.5 1773.5,348.5C 1768.48,346.249 1763.15,344.916 1757.5,344.5C 1755.5,344.5 1753.5,344.5 1751.5,344.5C 1749.97,343.691 1748.31,343.024 1746.5,342.5C 1744.83,342.5 1743.17,342.5 1741.5,342.5C 1736.11,340.364 1730.44,339.03 1724.5,338.5C 1722.83,338.5 1721.17,338.5 1719.5,338.5C 1714.48,336.249 1709.15,334.916 1703.5,334.5C 1701.5,334.5 1699.5,334.5 1697.5,334.5C 1695.97,333.691 1694.31,333.024 1692.5,332.5C 1690.83,332.5 1689.17,332.5 1687.5,332.5C 1682.11,330.364 1676.44,329.03 1670.5,328.5C 1668.83,328.5 1667.17,328.5 1665.5,328.5C 1660.48,326.249 1655.15,324.916 1649.5,324.5C 1647.5,324.5 1645.5,324.5 1643.5,324.5C 1641.97,323.691 1640.31,323.024 1638.5,322.5C 1636.83,322.5 1635.17,322.5 1633.5,322.5C 1628.11,320.364 1622.44,319.03 1616.5,318.5C 1614.83,318.5 1613.17,318.5 1611.5,318.5C 1606.48,316.249 1601.15,314.916 1595.5,314.5C 1593.5,314.5 1591.5,314.5 1589.5,314.5C 1587.97,313.691 1586.31,313.024 1584.5,312.5C 1582.83,312.5 1581.17,312.5 1579.5,312.5C 1563.13,308.159 1546.46,304.826 1529.5,302.5C 1527.5,302.5 1525.5,302.5 1523.5,302.5C 1514.12,299.579 1504.45,297.579 1494.5,296.5C 1492.83,296.5 1491.17,296.5 1489.5,296.5C 1484.44,294.417 1479.1,293.083 1473.5,292.5C 1471.5,292.5 1469.5,292.5 1467.5,292.5C 1465.97,291.691 1464.31,291.024 1462.5,290.5C 1460.83,290.5 1459.17,290.5 1457.5,290.5C 1430.76,284.363 1403.76,279.03 1376.5,274.5C 1374.17,274.5 1371.83,274.5 1369.5,274.5C 1366.61,273.755 1363.61,273.088 1360.5,272.5C 1357.5,272.5 1354.5,272.5 1351.5,272.5C 1348.95,271.745 1346.28,271.078 1343.5,270.5C 1340.83,270.5 1338.17,270.5 1335.5,270.5C 1332.61,269.755 1329.61,269.088 1326.5,268.5C 1323.5,268.5 1320.5,268.5 1317.5,268.5C 1314.95,267.745 1312.28,267.078 1309.5,266.5C 1306.83,266.5 1304.17,266.5 1301.5,266.5C 1298.61,265.755 1295.61,265.088 1292.5,264.5C 1289.5,264.5 1286.5,264.5 1283.5,264.5C 1280.95,263.745 1278.28,263.078 1275.5,262.5C 1272.83,262.5 1270.17,262.5 1267.5,262.5C 1264.61,261.755 1261.61,261.088 1258.5,260.5C 1255.5,260.5 1252.5,260.5 1249.5,260.5C 1246.95,259.745 1244.28,259.078 1241.5,258.5C 1238.83,258.5 1236.17,258.5 1233.5,258.5C 1230.61,257.755 1227.61,257.088 1224.5,256.5C 1221.5,256.5 1218.5,256.5 1215.5,256.5C 1212.95,255.745 1210.28,255.078 1207.5,254.5C 1204.17,254.5 1200.83,254.5 1197.5,254.5C 1195.29,253.732 1192.95,253.065 1190.5,252.5C 1187.5,252.5 1184.5,252.5 1181.5,252.5C 1178.95,251.745 1176.28,251.078 1173.5,250.5C 1170.17,250.5 1166.83,250.5 1163.5,250.5C 1161.29,249.732 1158.95,249.065 1156.5,248.5C 1153.5,248.5 1150.5,248.5 1147.5,248.5C 1144.95,247.745 1142.28,247.078 1139.5,246.5C 1136.17,246.5 1132.83,246.5 1129.5,246.5C 1127.29,245.732 1124.95,245.065 1122.5,244.5C 1119.5,244.5 1116.5,244.5 1113.5,244.5C 1110.95,243.745 1108.28,243.078 1105.5,242.5C 1103.28,242.822 1101.44,242.155 1100,240.5C 1099.72,237.588 1098.89,234.921 1097.5,232.5C 1097.01,231.005 1096.34,229.671 1095.5,228.5C 1095.5,227.833 1095.5,227.167 1095.5,226.5C 1095.01,225.005 1094.34,223.671 1093.5,222.5C 1093.5,221.833 1093.5,221.167 1093.5,220.5C 1093.01,219.005 1092.34,217.671 1091.5,216.5C 1090.36,213.996 1089.69,211.33 1089.5,208.5C 1080.17,208.5 1070.83,208.5 1061.5,208.5C 1054.93,207.799 1048.27,207.132 1041.5,206.5C 1041.5,183.833 1041.5,161.167 1041.5,138.5C 1040.85,126.402 1040.19,114.402 1039.5,102.5C 1039.81,77.1927 1039.81,51.8594 1039.5,26.5C 1027.93,25.8139 1016.27,25.1473 1004.5,24.5C 982.833,24.5 961.167,24.5 939.5,24.5C 919.598,23.8221 899.598,23.1554 879.5,22.5C 860.833,22.5 842.167,22.5 823.5,22.5C 804.931,21.8213 786.265,21.1546 767.5,20.5C 751.5,20.5 735.5,20.5 719.5,20.5C 704.931,19.818 690.265,19.1513 675.5,18.5C 660.833,18.5 646.167,18.5 631.5,18.5C 617.598,17.8172 603.598,17.1505 589.5,16.5C 574.833,16.5 560.167,16.5 545.5,16.5C 531.598,15.8172 517.598,15.1505 503.5,14.5C 494.833,14.5 486.167,14.5 477.5,14.5C 474.61,13.7552 471.61,13.0885 468.5,12.5C 465.5,12.5 462.5,12.5 459.5,12.5C 456.61,11.7552 453.61,11.0885 450.5,10.5C 447.5,10.5 444.5,10.5 441.5,10.5C 438.61,9.75516 435.61,9.0885 432.5,8.5C 429.5,8.5 426.5,8.5 423.5,8.5C 420.61,7.75516 417.61,7.0885 414.5,6.5C 411.5,6.5 408.5,6.5 405.5,6.5C 402.947,5.74508 400.28,5.07841 397.5,4.5C 394.167,4.5 390.833,4.5 387.5,4.5C 368.265,3.82171 348.931,3.15504 329.5,2.5C 296.833,2.5 264.167,2.5 231.5,2.5C 198.931,1.82648 166.264,1.15982 133.5,0.5C 100.833,0.5 68.1667,0.5 35.5,0.5 Z"/></g>
<g><path style="opacity:1" fill="#ce93a2" d="M 2082.5,422.5 C 2080.72,424.344 2078.39,425.01 2075.5,424.5C 2077.71,423.732 2080.05,423.065 2082.5,422.5 Z"/></g>
<g><path style="opacity:1" fill="#cd9aa7" d="M 2055.5,422.5 C 2058.28,423.078 2060.95,423.745 2063.5,424.5C 2060.3,425.036 2057.64,424.369 2055.5,422.5 Z"/></g>
<g><path style="opacity:1" fill="#c9a3ab" d="M 279.5,418.5 C 280.674,419.514 281.34,420.847 281.5,422.5C 279.896,421.713 279.229,420.38 279.5,418.5 Z"/></g>
<g><path style="opacity:1" fill="#c9a2ad" d="M 277.5,414.5 C 278.674,415.514 279.34,416.847 279.5,418.5C 277.896,417.713 277.229,416.38 277.5,414.5 Z"/></g>
<g><path style="opacity:1" fill="#d5bac0" d="M 2001.5,414.5 C 2016.97,417.002 2032.3,419.669 2047.5,422.5C 2034.86,420.836 2022.19,419.169 2009.5,417.5C 2006.38,417.08 2003.72,416.08 2001.5,414.5 Z"/></g>
<g><path style="opacity:1" fill="#cd9ea9" d="M 265.5,408.5 C 268.698,407.964 271.365,408.631 273.5,410.5C 270.72,409.922 268.053,409.255 265.5,408.5 Z"/></g>
<g><path style="opacity:1" fill="#cc99a6" d="M 251.5,396.5 C 254.082,396.025 256.082,396.692 257.5,398.5C 255.374,397.952 253.374,397.285 251.5,396.5 Z"/></g>
<g><path style="opacity:1" fill="#ccb9bd" d="M 208.5,366.5 C 210.537,368.202 212.203,370.202 213.5,372.5C 210.721,371.391 209.054,369.391 208.5,366.5 Z"/></g>
<g><path style="opacity:1" fill="#d4b6bd" d="M 1862.5,360.5 C 1870.47,361.676 1878.14,363.676 1885.5,366.5C 1877.44,365.161 1869.77,363.161 1862.5,360.5 Z"/></g>
<g><path style="opacity:1" fill="#ce91a0" d="M 1852.5,358.5 C 1854.31,359.024 1855.97,359.691 1857.5,360.5C 1855.22,360.923 1853.55,360.256 1852.5,358.5 Z"/></g>
<g><path style="opacity:1" fill="#d6c0c5" d="M 1811.5,354.5 C 1823.51,356.651 1835.51,357.984 1847.5,358.5C 1838.48,358.832 1829.48,358.498 1820.5,357.5C 1817.06,357.094 1814.06,356.094 1811.5,354.5 Z"/></g>
<g><path style="opacity:1" fill="#ce92a0" d="M 1800.5,352.5 C 1802.31,353.024 1803.97,353.691 1805.5,354.5C 1803.22,354.923 1801.55,354.256 1800.5,352.5 Z"/></g>
<g><path style="opacity:1" fill="#d3b5bc" d="M 1778.5,348.5 C 1784.44,349.03 1790.11,350.364 1795.5,352.5C 1789.44,351.835 1783.77,350.501 1778.5,348.5 Z"/></g>
<g><path style="opacity:1" fill="#d4b8be" d="M 1757.5,344.5 C 1763.15,344.916 1768.48,346.249 1773.5,348.5C 1767.8,347.721 1762.46,346.387 1757.5,344.5 Z"/></g>
<g><path style="opacity:1" fill="#ce91a0" d="M 1746.5,342.5 C 1748.31,343.024 1749.97,343.691 1751.5,344.5C 1749.22,344.923 1747.55,344.256 1746.5,342.5 Z"/></g>
<g><path style="opacity:1" fill="#ca8496" d="M 187.5,340.5 C 190.167,343.167 190.167,345.833 187.5,348.5C 188.833,345.833 188.833,343.167 187.5,340.5 Z"/></g>
<g><path style="opacity:1" fill="#d4b5bc" d="M 1724.5,338.5 C 1730.44,339.03 1736.11,340.364 1741.5,342.5C 1735.44,341.835 1729.77,340.501 1724.5,338.5 Z"/></g>
<g><path style="opacity:1" fill="#d4b8bf" d="M 1703.5,334.5 C 1709.15,334.916 1714.48,336.249 1719.5,338.5C 1713.8,337.721 1708.46,336.387 1703.5,334.5 Z"/></g>
<g><path style="opacity:1" fill="#d4bac0" d="M 181.5,330.5 C 181.201,332.604 181.534,334.604 182.5,336.5C 184.2,337.61 185.534,338.943 186.5,340.5C 181.229,338.833 179.562,335.499 181.5,330.5 Z"/></g>
<g><path style="opacity:1" fill="#ce919f" d="M 1692.5,332.5 C 1694.31,333.024 1695.97,333.691 1697.5,334.5C 1695.22,334.923 1693.55,334.256 1692.5,332.5 Z"/></g>
<g><path style="opacity:1" fill="#d4b5bc" d="M 1670.5,328.5 C 1676.44,329.03 1682.11,330.364 1687.5,332.5C 1681.44,331.835 1675.77,330.501 1670.5,328.5 Z"/></g>
<g><path style="opacity:1" fill="#d4b8be" d="M 1649.5,324.5 C 1655.15,324.916 1660.48,326.249 1665.5,328.5C 1659.8,327.721 1654.46,326.387 1649.5,324.5 Z"/></g>
<g><path style="opacity:1" fill="#d4bbc0" d="M 185.5,324.5 C 184.636,326.919 183.303,328.919 181.5,330.5C 181.855,327.774 183.188,325.774 185.5,324.5 Z"/></g>
<g><path style="opacity:1" fill="#ce91a1" d="M 1638.5,322.5 C 1640.31,323.024 1641.97,323.691 1643.5,324.5C 1641.22,324.923 1639.55,324.256 1638.5,322.5 Z"/></g>
<g><path style="opacity:1" fill="#d3b5bc" d="M 1616.5,318.5 C 1622.44,319.03 1628.11,320.364 1633.5,322.5C 1627.44,321.835 1621.77,320.501 1616.5,318.5 Z"/></g>
<g><path style="opacity:1" fill="#d4b8be" d="M 1595.5,314.5 C 1601.15,314.916 1606.48,316.249 1611.5,318.5C 1605.8,317.721 1600.46,316.387 1595.5,314.5 Z"/></g>
<g><path style="opacity:1" fill="#ce91a1" d="M 1584.5,312.5 C 1586.31,313.024 1587.97,313.691 1589.5,314.5C 1587.22,314.923 1585.55,314.256 1584.5,312.5 Z"/></g>
<g><path style="opacity:1" fill="#d1bcc1" d="M 180.5,310.5 C 185.473,310.139 187.806,312.472 187.5,317.5C 187.684,320.205 187.017,322.538 185.5,324.5C 186.586,320.822 186.586,317.155 185.5,313.5C 183.897,312.207 182.231,311.207 180.5,310.5 Z"/></g>
<g><path style="opacity:1" fill="#d5bbc1" d="M 1529.5,302.5 C 1546.46,304.826 1563.13,308.159 1579.5,312.5C 1562.49,309.632 1545.83,306.299 1529.5,302.5 Z"/></g>
<g><path style="opacity:1" fill="#d4b6bd" d="M 1494.5,296.5 C 1504.45,297.579 1514.12,299.579 1523.5,302.5C 1513.47,301.047 1503.81,299.047 1494.5,296.5 Z"/></g>
<g><path style="opacity:1" fill="#d3b8be" d="M 1473.5,292.5 C 1479.1,293.083 1484.44,294.417 1489.5,296.5C 1483.75,295.895 1478.42,294.562 1473.5,292.5 Z"/></g>
<g><path style="opacity:1" fill="#ce91a1" d="M 1462.5,290.5 C 1464.31,291.024 1465.97,291.691 1467.5,292.5C 1465.22,292.923 1463.55,292.256 1462.5,290.5 Z"/></g>
<g><path style="opacity:1" fill="#d5bdc2" d="M 1376.5,274.5 C 1403.76,279.03 1430.76,284.363 1457.5,290.5C 1430.12,285.829 1403.12,280.496 1376.5,274.5 Z"/></g>
<g><path style="opacity:1" fill="#ce93a2" d="M 1360.5,272.5 C 1363.61,273.088 1366.61,273.755 1369.5,274.5C 1365.99,275.055 1362.99,274.388 1360.5,272.5 Z"/></g>
<g><path style="opacity:1" fill="#cd99a5" d="M 1343.5,270.5 C 1346.28,271.078 1348.95,271.745 1351.5,272.5C 1348.3,273.036 1345.64,272.369 1343.5,270.5 Z"/></g>
<g><path style="opacity:1" fill="#ce94a2" d="M 1326.5,268.5 C 1329.61,269.088 1332.61,269.755 1335.5,270.5C 1331.99,271.055 1328.99,270.388 1326.5,268.5 Z"/></g>
<g><path style="opacity:1" fill="#cd9aa6" d="M 1309.5,266.5 C 1312.28,267.078 1314.95,267.745 1317.5,268.5C 1314.3,269.036 1311.64,268.369 1309.5,266.5 Z"/></g>
<g><path style="opacity:1" fill="#ce94a2" d="M 1292.5,264.5 C 1295.61,265.088 1298.61,265.755 1301.5,266.5C 1297.99,267.055 1294.99,266.388 1292.5,264.5 Z"/></g>
<g><path style="opacity:1" fill="#d8cfd2" d="M 167.5,264.5 C 169.067,269.558 170.4,274.891 171.5,280.5C 170.21,279.942 169.377,278.942 169,277.5C 168.772,273.083 168.272,268.75 167.5,264.5 Z"/></g>
<g><path style="opacity:1" fill="#cd99a6" d="M 1275.5,262.5 C 1278.28,263.078 1280.95,263.745 1283.5,264.5C 1280.3,265.036 1277.64,264.369 1275.5,262.5 Z"/></g>
<g><path style="opacity:1" fill="#ce94a3" d="M 1258.5,260.5 C 1261.61,261.088 1264.61,261.755 1267.5,262.5C 1263.99,263.055 1260.99,262.388 1258.5,260.5 Z"/></g>
<g><path style="opacity:1" fill="#cd99a6" d="M 1241.5,258.5 C 1244.28,259.078 1246.95,259.745 1249.5,260.5C 1246.3,261.036 1243.64,260.369 1241.5,258.5 Z"/></g>
<g><path style="opacity:1" fill="#ce95a3" d="M 1224.5,256.5 C 1227.61,257.088 1230.61,257.755 1233.5,258.5C 1229.99,259.055 1226.99,258.388 1224.5,256.5 Z"/></g>
<g><path style="opacity:1" fill="#cd99a6" d="M 1207.5,254.5 C 1210.28,255.078 1212.95,255.745 1215.5,256.5C 1212.3,257.036 1209.64,256.369 1207.5,254.5 Z"/></g>
<g><path style="opacity:1" fill="#ce93a1" d="M 1190.5,252.5 C 1192.95,253.065 1195.29,253.732 1197.5,254.5C 1194.61,255.01 1192.28,254.344 1190.5,252.5 Z"/></g>
<g><path style="opacity:1" fill="#cc98a5" d="M 1173.5,250.5 C 1176.28,251.078 1178.95,251.745 1181.5,252.5C 1178.3,253.036 1175.64,252.369 1173.5,250.5 Z"/></g>
<g><path style="opacity:1" fill="#ce93a2" d="M 1156.5,248.5 C 1158.95,249.065 1161.29,249.732 1163.5,250.5C 1160.61,251.01 1158.28,250.344 1156.5,248.5 Z"/></g>
<g><path style="opacity:1" fill="#cd99a6" d="M 1139.5,246.5 C 1142.28,247.078 1144.95,247.745 1147.5,248.5C 1144.3,249.036 1141.64,248.369 1139.5,246.5 Z"/></g>
<g><path style="opacity:1" fill="#ce91a1" d="M 1122.5,244.5 C 1124.95,245.065 1127.29,245.732 1129.5,246.5C 1126.61,247.01 1124.28,246.344 1122.5,244.5 Z"/></g>
<g><path style="opacity:1" fill="#cd99a6" d="M 1105.5,242.5 C 1108.28,243.078 1110.95,243.745 1113.5,244.5C 1110.3,245.036 1107.64,244.369 1105.5,242.5 Z"/></g>
<g><path style="opacity:1" fill="#ccb9be" d="M 150.5,240.5 C 153.2,242.865 155.533,245.532 157.5,248.5C 154.066,246.737 151.733,244.07 150.5,240.5 Z"/></g>
<g><path style="opacity:1" fill="#cc95a1" d="M 1095.5,228.5 C 1096.34,229.671 1097.01,231.005 1097.5,232.5C 1095.82,231.817 1095.16,230.483 1095.5,228.5 Z"/></g>
<g><path style="opacity:1" fill="#d0b8be" d="M 91.5,224.5 C 95.9596,228.968 100.96,232.634 106.5,235.5C 99.8435,234.188 94.8435,230.521 91.5,224.5 Z"/></g>
<g><path style="opacity:1" fill="#cb93a1" d="M 1093.5,222.5 C 1094.34,223.671 1095.01,225.005 1095.5,226.5C 1093.82,225.817 1093.16,224.483 1093.5,222.5 Z"/></g>
<g><path style="opacity:1" fill="#c9a1ac" d="M 89.5,220.5 C 90.6737,221.514 91.3404,222.847 91.5,224.5C 89.8958,223.713 89.2291,222.38 89.5,220.5 Z"/></g>
<g><path style="opacity:1" fill="#cb94a1" d="M 1091.5,216.5 C 1092.34,217.671 1093.01,219.005 1093.5,220.5C 1091.82,219.817 1091.16,218.483 1091.5,216.5 Z"/></g>
<g><path style="opacity:1" fill="#ce9aa7" d="M 1041.5,206.5 C 1048.27,207.132 1054.93,207.799 1061.5,208.5C 1054.42,209.126 1047.75,208.459 1041.5,206.5 Z"/></g>
<g><path style="opacity:1" fill="#cb8a9b" d="M 81.5,194.5 C 83.2227,196.78 83.8893,199.447 83.5,202.5C 82.469,200.039 81.8023,197.373 81.5,194.5 Z"/></g>
<g><path style="opacity:1" fill="#c9a2ac" d="M 75.5,174.5 C 76.6737,175.514 77.3404,176.847 77.5,178.5C 75.8958,177.713 75.2291,176.38 75.5,174.5 Z"/></g>
<g><path style="opacity:1" fill="#cebcc0" d="M 47.5,136.5 C 46.8921,137.8 46.2255,139.133 45.5,140.5C 46.5,142.5 47.5,144.5 48.5,146.5C 57.9066,155.571 66.9066,164.904 75.5,174.5C 65.8836,165.885 56.5503,156.885 47.5,147.5C 46.2246,145.283 45.2246,142.949 44.5,140.5C 44.6198,138.412 45.6198,137.078 47.5,136.5 Z"/></g>
<g><path style="opacity:1" fill="#cf8497" d="M 1039.5,102.5 C 1040.19,114.402 1040.85,126.402 1041.5,138.5C 1039.52,126.88 1038.85,114.88 1039.5,102.5 Z"/></g>
<g><path style="opacity:1" fill="#cb8d9c" d="M 45.5,102.5 C 45.7406,104.898 45.0739,106.898 43.5,108.5C 43.595,106.214 44.2616,104.214 45.5,102.5 Z"/></g>
<g><path style="opacity:1" fill="#cbb5ba" d="M 54.5,84.5 C 55.5,84.5 56.5,84.5 57.5,84.5C 57.646,87.5539 56.3126,89.5539 53.5,90.5C 54.0905,88.9028 55.0905,87.5695 56.5,86.5C 55.7573,85.8182 55.0906,85.1515 54.5,84.5 Z"/></g>
<g><path style="opacity:1" fill="#c9a2ad" d="M 25.5,48.5 C 26.6737,49.5137 27.3404,50.847 27.5,52.5C 25.8958,51.713 25.2291,50.3797 25.5,48.5 Z"/></g>
<g><path style="opacity:1" fill="#caa2ab" d="M 23.5,44.5 C 24.6737,45.5137 25.3404,46.847 25.5,48.5C 23.8958,47.713 23.2291,46.3797 23.5,44.5 Z"/></g>
<g><path style="opacity:1" fill="#ccb9be" d="M 14.5,34.5 C 17.1995,36.8649 19.5328,39.5315 21.5,42.5C 18.0663,40.7369 15.7329,38.0702 14.5,34.5 Z"/></g>
<g><path style="opacity:1" fill="#caa2ac" d="M 11.5,30.5 C 12.6737,31.5137 13.3404,32.847 13.5,34.5C 11.8958,33.713 11.2291,32.3797 11.5,30.5 Z"/></g>
<g><path style="opacity:1" fill="#ce99a6" d="M 1004.5,24.5 C 1016.27,25.1473 1027.93,25.8139 1039.5,26.5C 1027.45,27.1451 1015.79,26.4784 1004.5,24.5 Z"/></g>
<g><path style="opacity:1" fill="#ce9aa7" d="M 879.5,22.5 C 899.598,23.1554 919.598,23.8221 939.5,24.5C 919.139,25.1547 899.139,24.488 879.5,22.5 Z"/></g>
<g><path style="opacity:1" fill="#ce9aa7" d="M 767.5,20.5 C 786.265,21.1546 804.931,21.8213 823.5,22.5C 804.47,23.1538 785.803,22.4871 767.5,20.5 Z"/></g>
<g><path style="opacity:1" fill="#ce9aa7" d="M 675.5,18.5 C 690.265,19.1513 704.931,19.818 719.5,20.5C 704.462,21.1499 689.795,20.4833 675.5,18.5 Z"/></g>
<g><path style="opacity:1" fill="#ca8d9c" d="M 7.5,16.5 C 9.07394,18.1016 9.74061,20.1016 9.5,22.5C 8.26162,20.7857 7.59495,18.7857 7.5,16.5 Z"/></g>
<g><path style="opacity:1" fill="#ce9aa7" d="M 589.5,16.5 C 603.598,17.1505 617.598,17.8172 631.5,18.5C 617.127,19.1491 603.127,18.4824 589.5,16.5 Z"/></g>
<g><path style="opacity:1" fill="#ce9aa7" d="M 503.5,14.5 C 517.598,15.1505 531.598,15.8172 545.5,16.5C 531.127,17.1491 517.127,16.4824 503.5,14.5 Z"/></g>
<g><path style="opacity:1" fill="#ce94a3" d="M 468.5,12.5 C 471.61,13.0885 474.61,13.7552 477.5,14.5C 473.988,15.0545 470.988,14.3878 468.5,12.5 Z"/></g>
<g><path style="opacity:1" fill="#ce94a3" d="M 450.5,10.5 C 453.61,11.0885 456.61,11.7552 459.5,12.5C 455.988,13.0545 452.988,12.3878 450.5,10.5 Z"/></g>
<g><path style="opacity:1" fill="#ca8c9c" d="M 5.5,8.5 C 7.07394,10.1016 7.74061,12.1016 7.5,14.5C 6.26162,12.7857 5.59495,10.7857 5.5,8.5 Z"/></g>
<g><path style="opacity:1" fill="#ce94a2" d="M 432.5,8.5 C 435.61,9.0885 438.61,9.75516 441.5,10.5C 437.988,11.0545 434.988,10.3878 432.5,8.5 Z"/></g>
<g><path style="opacity:1" fill="#ce94a2" d="M 414.5,6.5 C 417.61,7.0885 420.61,7.75516 423.5,8.5C 419.988,9.0545 416.988,8.38784 414.5,6.5 Z"/></g>
<g><path style="opacity:1" fill="#cd9aa6" d="M 397.5,4.5 C 400.28,5.07841 402.947,5.74508 405.5,6.5C 402.302,7.03562 399.635,6.36895 397.5,4.5 Z"/></g>
<g><path style="opacity:1" fill="#ce9aa7" d="M 329.5,2.5 C 348.931,3.15504 368.265,3.82171 387.5,4.5C 367.804,5.15427 348.471,4.4876 329.5,2.5 Z"/></g>
<g><path style="opacity:1" fill="#cd9aa7" d="M 2043.5,458.5 C 2040.27,459.237 2036.94,459.903 2033.5,460.5C 2036.34,458.598 2039.67,457.931 2043.5,458.5 Z"/></g>
<g><path style="opacity:1" fill="#c79ca6" d="M 2031.5,464.5 C 2031.01,465.995 2030.34,467.329 2029.5,468.5C 2029.16,466.517 2029.82,465.183 2031.5,464.5 Z"/></g>
<g><path style="opacity:1" fill="#d4bbc0" d="M 355.5,470.5 C 360.241,471.647 364.908,472.647 369.5,473.5C 364.357,474.054 359.69,473.054 355.5,470.5 Z"/></g>
<g><path style="opacity:1" fill="#c79ca6" d="M 2029.5,470.5 C 2029.01,471.995 2028.34,473.329 2027.5,474.5C 2027.16,472.517 2027.82,471.183 2029.5,470.5 Z"/></g>
<g><path style="opacity:1" fill="#c89ca6" d="M 2027.5,476.5 C 2027.01,477.995 2026.34,479.329 2025.5,480.5C 2025.16,478.517 2025.82,477.183 2027.5,476.5 Z"/></g>
<g><path style="opacity:1" fill="#caa2ab" d="M 383.5,488.5 C 384.674,489.514 385.34,490.847 385.5,492.5C 383.896,491.713 383.229,490.38 383.5,488.5 Z"/></g>
<g><path style="opacity:1" fill="#c9a4ae" d="M 1987.5,524.5 C 1987.77,526.38 1987.1,527.713 1985.5,528.5C 1985.66,526.847 1986.33,525.514 1987.5,524.5 Z"/></g>
<g><path style="opacity:1" fill="#caa2ab" d="M 439.5,532.5 C 440.674,533.514 441.34,534.847 441.5,536.5C 439.896,535.713 439.229,534.38 439.5,532.5 Z"/></g>
<g><path style="opacity:1" fill="#c9a2ad" d="M 441.5,536.5 C 442.674,537.514 443.34,538.847 443.5,540.5C 441.896,539.713 441.229,538.38 441.5,536.5 Z"/></g>
<g><path style="opacity:1" fill="#c9a4ac" d="M 1977.5,536.5 C 1977.77,538.38 1977.1,539.713 1975.5,540.5C 1975.66,538.847 1976.33,537.514 1977.5,536.5 Z"/></g>
<g><path style="opacity:1" fill="#c79aa4" d="M 443.5,542.5 C 445.176,543.183 445.843,544.517 445.5,546.5C 444.655,545.329 443.989,543.995 443.5,542.5 Z"/></g>
<g><path style="opacity:1" fill="#c89ca8" d="M 445.5,548.5 C 447.176,549.183 447.843,550.517 447.5,552.5C 446.655,551.329 445.989,549.995 445.5,548.5 Z"/></g>
<g><path style="opacity:1" fill="#c9a2ad" d="M 449.5,558.5 C 450.674,559.514 451.34,560.847 451.5,562.5C 449.896,561.713 449.229,560.38 449.5,558.5 Z"/></g>
<g><path style="opacity:1" fill="#caa2ab" d="M 451.5,562.5 C 452.674,563.514 453.34,564.847 453.5,566.5C 451.896,565.713 451.229,564.38 451.5,562.5 Z"/></g>
<g><path style="opacity:1" fill="#c9a1ac" d="M 453.5,566.5 C 454.674,567.514 455.34,568.847 455.5,570.5C 453.896,569.713 453.229,568.38 453.5,566.5 Z"/></g>
<g><path style="opacity:1" fill="#c9a2ad" d="M 457.5,574.5 C 458.674,575.514 459.34,576.847 459.5,578.5C 457.896,577.713 457.229,576.38 457.5,574.5 Z"/></g>
<g><path style="opacity:1" fill="#caa2ab" d="M 459.5,578.5 C 460.674,579.514 461.34,580.847 461.5,582.5C 459.896,581.713 459.229,580.38 459.5,578.5 Z"/></g>
<g><path style="opacity:1" fill="#caa2ab" d="M 463.5,584.5 C 464.674,585.514 465.34,586.847 465.5,588.5C 463.896,587.713 463.229,586.38 463.5,584.5 Z"/></g>
<g><path style="opacity:1" fill="#caa2ab" d="M 467.5,590.5 C 468.674,591.514 469.34,592.847 469.5,594.5C 467.896,593.713 467.229,592.38 467.5,590.5 Z"/></g>
<g><path style="opacity:1" fill="#caa2ab" d="M 475.5,602.5 C 476.674,603.514 477.34,604.847 477.5,606.5C 475.896,605.713 475.229,604.38 475.5,602.5 Z"/></g>
<g><path style="opacity:1" fill="#c9a2ad" d="M 477.5,606.5 C 478.674,607.514 479.34,608.847 479.5,610.5C 477.896,609.713 477.229,608.38 477.5,606.5 Z"/></g>
<g><path style="opacity:1" fill="#caa2ab" d="M 487.5,620.5 C 488.674,621.514 489.34,622.847 489.5,624.5C 487.896,623.713 487.229,622.38 487.5,620.5 Z"/></g>
<g><path style="opacity:1" fill="#cdb3b9" d="M 498.5,630.5 C 500.551,632.522 502.551,634.522 504.5,636.5C 501.134,635.801 499.134,633.801 498.5,630.5 Z"/></g>
<g><path style="opacity:1" fill="#caa2ab" d="M 519.5,650.5 C 520.674,651.514 521.34,652.847 521.5,654.5C 519.896,653.713 519.229,652.38 519.5,650.5 Z"/></g>
<g><path style="opacity:1" fill="#c7a1aa" d="M 1907.5,656.5 C 1907.77,658.38 1907.1,659.713 1905.5,660.5C 1905.66,658.847 1906.33,657.514 1907.5,656.5 Z"/></g>
<g><path style="opacity:1" fill="#c7a0a9" d="M 1905.5,660.5 C 1905.77,662.38 1905.1,663.713 1903.5,664.5C 1903.66,662.847 1904.33,661.514 1905.5,660.5 Z"/></g>
<g><path style="opacity:1" fill="#c7a0aa" d="M 1903.5,664.5 C 1903.77,666.38 1903.1,667.713 1901.5,668.5C 1901.66,666.847 1902.33,665.514 1903.5,664.5 Z"/></g>
<g><path style="opacity:1" fill="#d8d0d1" d="M 526.5,670.5 C 527.162,677.109 528.162,683.775 529.5,690.5C 528.842,689.602 528.176,688.602 527.5,687.5C 526.505,681.872 526.171,676.206 526.5,670.5 Z"/></g>
<g><path style="opacity:1" fill="#c7a1a9" d="M 1901.5,668.5 C 1901.77,670.38 1901.1,671.713 1899.5,672.5C 1899.66,670.847 1900.33,669.514 1901.5,668.5 Z"/></g>
<g><path style="opacity:1" fill="#c79aa5" d="M 543.5,706.5 C 545.176,707.183 545.843,708.517 545.5,710.5C 544.655,709.329 543.989,707.995 543.5,706.5 Z"/></g>
<g><path style="opacity:1" fill="#cc8898" d="M 549.5,722.5 C 550.898,723.777 551.564,725.443 551.5,727.5C 551.36,729.03 550.693,730.03 549.5,730.5C 550.53,727.896 550.53,725.229 549.5,722.5 Z"/></g>
<g><path style="opacity:1" fill="#c98b9b" d="M 1871.5,732.5 C 1871.41,734.786 1870.74,736.786 1869.5,738.5C 1869.26,736.102 1869.93,734.102 1871.5,732.5 Z"/></g>
<g><path style="opacity:1" fill="#ca8c9b" d="M 1869.5,740.5 C 1869.41,742.786 1868.74,744.786 1867.5,746.5C 1867.26,744.102 1867.93,742.102 1869.5,740.5 Z"/></g>
<g><path style="opacity:1" fill="#c9a2ad" d="M 553.5,746.5 C 554.674,747.514 555.34,748.847 555.5,750.5C 553.896,749.713 553.229,748.38 553.5,746.5 Z"/></g>
<g><path style="opacity:1" fill="#ca8c9b" d="M 1867.5,748.5 C 1867.41,750.786 1866.74,752.786 1865.5,754.5C 1865.26,752.102 1865.93,750.102 1867.5,748.5 Z"/></g>
<g><path style="opacity:1" fill="#ca8c9b" d="M 1865.5,756.5 C 1865.41,758.786 1864.74,760.786 1863.5,762.5C 1863.26,760.102 1863.93,758.102 1865.5,756.5 Z"/></g>
<g><path style="opacity:1" fill="#c98b9b" d="M 1863.5,764.5 C 1863.41,766.786 1862.74,768.786 1861.5,770.5C 1861.26,768.102 1861.93,766.102 1863.5,764.5 Z"/></g>
<g><path style="opacity:1" fill="#cdb5bb" d="M 561.5,768.5 C 564.833,770.5 567.5,773.167 569.5,776.5C 566.167,774.5 563.5,771.833 561.5,768.5 Z"/></g>
<g><path style="opacity:1" fill="#ca8c9b" d="M 1861.5,772.5 C 1861.41,774.786 1860.74,776.786 1859.5,778.5C 1859.26,776.102 1859.93,774.102 1861.5,772.5 Z"/></g>
<g><path style="opacity:1" fill="#c9a2ad" d="M 569.5,776.5 C 570.674,777.514 571.34,778.847 571.5,780.5C 569.896,779.713 569.229,778.38 569.5,776.5 Z"/></g>
<g><path style="opacity:1" fill="#ca8c9b" d="M 1859.5,780.5 C 1859.41,782.786 1858.74,784.786 1857.5,786.5C 1857.26,784.102 1857.93,782.102 1859.5,780.5 Z"/></g>
<g><path style="opacity:1" fill="#caa2ab" d="M 575.5,786.5 C 576.674,787.514 577.34,788.847 577.5,790.5C 575.896,789.713 575.229,788.38 575.5,786.5 Z"/></g>
<g><path style="opacity:1" fill="#c9a2ad" d="M 577.5,790.5 C 578.674,791.514 579.34,792.847 579.5,794.5C 577.896,793.713 577.229,792.38 577.5,790.5 Z"/></g>
<g><path style="opacity:1" fill="#c9a2ad" d="M 581.5,800.5 C 582.674,801.514 583.34,802.847 583.5,804.5C 581.896,803.713 581.229,802.38 581.5,800.5 Z"/></g>
<g><path style="opacity:1" fill="#c98d9b" d="M 1851.5,814.5 C 1851.41,816.786 1850.74,818.786 1849.5,820.5C 1849.26,818.102 1849.93,816.102 1851.5,814.5 Z"/></g>
<g><path style="opacity:1" fill="#d4b9bf" d="M 583.5,812.5 C 583.5,813.833 583.5,815.167 583.5,816.5C 592.335,817.333 601.001,819 609.5,821.5C 610.612,822.265 611.279,823.265 611.5,824.5C 609.104,822.737 606.437,821.404 603.5,820.5C 596.477,819.497 589.477,818.497 582.5,817.5C 582.216,815.585 582.549,813.919 583.5,812.5 Z"/></g>
<g><path style="opacity:1" fill="#ca8c9b" d="M 1849.5,822.5 C 1849.41,824.786 1848.74,826.786 1847.5,828.5C 1847.26,826.102 1847.93,824.102 1849.5,822.5 Z"/></g>
<g><path style="opacity:1" fill="#ca8c9b" d="M 611.5,824.5 C 613.074,826.102 613.741,828.102 613.5,830.5C 612.262,828.786 611.595,826.786 611.5,824.5 Z"/></g>
<g><path style="opacity:1" fill="#ca8c9b" d="M 1847.5,830.5 C 1847.41,832.786 1846.74,834.786 1845.5,836.5C 1845.26,834.102 1845.93,832.102 1847.5,830.5 Z"/></g>
<g><path style="opacity:1" fill="#cc8f9e" d="M 613.5,834.5 C 615.308,835.918 615.975,837.918 615.5,840.5C 614.715,838.626 614.048,836.626 613.5,834.5 Z"/></g>
<g><path style="opacity:1" fill="#cd909e" d="M 609.5,862.5 C 609.517,864.565 609.85,866.565 610.5,868.5C 609.053,867.866 608.387,866.699 608.5,865C 608.528,863.93 608.861,863.097 609.5,862.5 Z"/></g>
<g><path style="opacity:1" fill="#ca8c9b" d="M 1839.5,864.5 C 1839.41,866.786 1838.74,868.786 1837.5,870.5C 1837.26,868.102 1837.93,866.102 1839.5,864.5 Z"/></g>
<g><path style="opacity:1" fill="#ca8c9b" d="M 1837.5,872.5 C 1837.41,874.786 1836.74,876.786 1835.5,878.5C 1835.26,876.102 1835.93,874.102 1837.5,872.5 Z"/></g>
<g><path style="opacity:1" fill="#cc8999" d="M 613.5,874.5 C 614.222,874.918 614.722,875.584 615,876.5C 615.497,879.146 615.664,881.813 615.5,884.5C 614.566,881.344 613.899,878.011 613.5,874.5 Z"/></g>
<g><path style="opacity:1" fill="#ca8c9b" d="M 1835.5,880.5 C 1835.41,882.786 1834.74,884.786 1833.5,886.5C 1833.26,884.102 1833.93,882.102 1835.5,880.5 Z"/></g>
<g><path style="opacity:1" fill="#ca8c9c" d="M 613.5,900.5 C 615.074,902.102 615.741,904.102 615.5,906.5C 614.262,904.786 613.595,902.786 613.5,900.5 Z"/></g>
<g><path style="opacity:1" fill="#caa2ad" d="M 621.5,914.5 C 622.674,915.514 623.34,916.847 623.5,918.5C 621.896,917.713 621.229,916.38 621.5,914.5 Z"/></g>
<g><path style="opacity:1" fill="#ca8c9b" d="M 1827.5,914.5 C 1827.41,916.786 1826.74,918.786 1825.5,920.5C 1825.26,918.102 1825.93,916.102 1827.5,914.5 Z"/></g>
<g><path style="opacity:1" fill="#ceafb6" d="M 625.5,920.5 C 628.168,922.173 630.502,924.173 632.5,926.5C 629.239,925.572 626.906,923.572 625.5,920.5 Z"/></g>
<g><path style="opacity:1" fill="#ca8d9c" d="M 1823.5,930.5 C 1823.41,932.786 1822.74,934.786 1821.5,936.5C 1821.26,934.102 1821.93,932.102 1823.5,930.5 Z"/></g>
<g><path style="opacity:1" fill="#cbabb3" d="M 674.5,952.5 C 675.124,952.917 675.457,953.584 675.5,954.5C 674.143,956.565 672.81,958.565 671.5,960.5C 672.063,957.626 673.063,954.96 674.5,952.5 Z"/></g>
<g><path style="opacity:1" fill="#cb8f9d" d="M 1813.5,974.5 C 1812.95,976.626 1812.29,978.626 1811.5,980.5C 1811.03,977.918 1811.69,975.918 1813.5,974.5 Z"/></g>
<g><path style="opacity:1" fill="#ca8c9c" d="M 661.5,974.5 C 663.074,976.102 663.741,978.102 663.5,980.5C 662.262,978.786 661.595,976.786 661.5,974.5 Z"/></g>
<g><path style="opacity:1" fill="#ca8c9b" d="M 1811.5,982.5 C 1811.41,984.786 1810.74,986.786 1809.5,988.5C 1809.26,986.102 1809.93,984.102 1811.5,982.5 Z"/></g>
<g><path style="opacity:1" fill="#caa4ab" d="M 671.5,992.5 C 672.674,993.514 673.34,994.847 673.5,996.5C 671.896,995.713 671.229,994.38 671.5,992.5 Z"/></g>
<g><path style="opacity:1" fill="#ccb9be" d="M 674.5,996.5 C 677.864,999.529 680.864,1002.86 683.5,1006.5C 679.407,1004.08 676.407,1000.74 674.5,996.5 Z"/></g>
<g><path style="opacity:1" fill="#cb8f9e" d="M 1807.5,1000.5 C 1806.95,1002.63 1806.29,1004.63 1805.5,1006.5C 1805.03,1003.92 1805.69,1001.92 1807.5,1000.5 Z"/></g>
<g><path style="opacity:1" fill="#cb8596" d="M 1805.5,1008.5 C 1804.17,1011.83 1804.17,1015.17 1805.5,1018.5C 1802.83,1015.17 1802.83,1011.83 1805.5,1008.5 Z"/></g>
<g><path style="opacity:1" fill="#cc8c9c" d="M 1807.5,1034.5 C 1808.53,1036.96 1809.2,1039.63 1809.5,1042.5C 1807.78,1040.22 1807.11,1037.55 1807.5,1034.5 Z"/></g>
<g><path style="opacity:1" fill="#cd909f" d="M 715.5,1040.5 C 715.975,1043.08 715.308,1045.08 713.5,1046.5C 714.048,1044.37 714.715,1042.37 715.5,1040.5 Z"/></g>
<g><path style="opacity:1" fill="#c9a2ad" d="M 809.5,1048.5 C 810.674,1049.51 811.34,1050.85 811.5,1052.5C 809.896,1051.71 809.229,1050.38 809.5,1048.5 Z"/></g>
<g><path style="opacity:1" fill="#caa2ab" d="M 811.5,1052.5 C 812.674,1053.51 813.34,1054.85 813.5,1056.5C 811.896,1055.71 811.229,1054.38 811.5,1052.5 Z"/></g>
<g><path style="opacity:1" fill="#c9a2ad" d="M 813.5,1056.5 C 814.674,1057.51 815.34,1058.85 815.5,1060.5C 813.896,1059.71 813.229,1058.38 813.5,1056.5 Z"/></g>
<g><path style="opacity:1" fill="#ce8698" d="M 771.5,1052.5 C 770.927,1060.64 770.26,1068.64 769.5,1076.5C 769.334,1069.16 769.5,1061.83 770,1054.5C 770.278,1053.58 770.778,1052.92 771.5,1052.5 Z"/></g>
<g><path style="opacity:1" fill="#caa4ac" d="M 815.5,1060.5 C 816.674,1061.51 817.34,1062.85 817.5,1064.5C 815.896,1063.71 815.229,1062.38 815.5,1060.5 Z"/></g>
<g><path style="opacity:1" fill="#cb919e" d="M 1811.5,1060.5 C 1812.74,1062.21 1813.41,1064.21 1813.5,1066.5C 1811.93,1064.9 1811.26,1062.9 1811.5,1060.5 Z"/></g>
<g><path style="opacity:1" fill="#c9a2ad" d="M 817.5,1064.5 C 818.674,1065.51 819.34,1066.85 819.5,1068.5C 817.896,1067.71 817.229,1066.38 817.5,1064.5 Z"/></g>
<g><path style="opacity:1" fill="#ce8c9c" d="M 1813.5,1068.5 C 1814.25,1071.05 1814.92,1073.72 1815.5,1076.5C 1813.63,1074.36 1812.96,1071.7 1813.5,1068.5 Z"/></g>
<g><path style="opacity:1" fill="#dddddc" d="M 687.5,1073.5 C 687.5,1080.5 687.5,1087.5 687.5,1094.5C 690.5,1094.5 693.5,1094.5 696.5,1094.5C 696.833,1094.5 697.167,1094.5 697.5,1094.5C 694.038,1095.48 690.371,1095.81 686.5,1095.5C 686.175,1087.98 686.508,1080.65 687.5,1073.5 Z"/></g>
<g><path style="opacity:1" fill="#caa2ab" d="M 823.5,1074.5 C 824.674,1075.51 825.34,1076.85 825.5,1078.5C 823.896,1077.71 823.229,1076.38 823.5,1074.5 Z"/></g>
<g><path style="opacity:1" fill="#caa2ac" d="M 825.5,1078.5 C 826.674,1079.51 827.34,1080.85 827.5,1082.5C 825.896,1081.71 825.229,1080.38 825.5,1078.5 Z"/></g>
<g><path style="opacity:1" fill="#cd95a3" d="M 765.5,1088.5 C 761.27,1089.22 756.937,1089.89 752.5,1090.5C 756.373,1088.57 760.706,1087.9 765.5,1088.5 Z"/></g>
<g><path style="opacity:1" fill="#cd95a3" d="M 739.5,1090.5 C 735.27,1091.22 730.937,1091.89 726.5,1092.5C 730.373,1090.57 734.706,1089.9 739.5,1090.5 Z"/></g>
<g><path style="opacity:1" fill="#ce96a4" d="M 711.5,1092.5 C 706.833,1093.17 702.167,1093.83 697.5,1094.5C 697.167,1094.5 696.833,1094.5 696.5,1094.5C 701.056,1092.56 706.056,1091.89 711.5,1092.5 Z"/></g>
<g><path style="opacity:1" fill="#cc8f9d" d="M 831.5,1098.5 C 833.308,1099.92 833.975,1101.92 833.5,1104.5C 832.715,1102.63 832.048,1100.63 831.5,1098.5 Z"/></g>
<g><path style="opacity:1" fill="#cd8597" d="M 833.5,1106.5 C 835.223,1108.78 835.889,1111.45 835.5,1114.5C 834.469,1112.04 833.802,1109.37 833.5,1106.5 Z"/></g>
<g><path style="opacity:1" fill="#ce8596" d="M 1819.5,1106.5 C 1820.53,1108.96 1821.2,1111.63 1821.5,1114.5C 1819.78,1112.22 1819.11,1109.55 1819.5,1106.5 Z"/></g>
<g><path style="opacity:1" fill="#cb94a0" d="M 833.5,1126.5 C 833.34,1128.15 832.674,1129.49 831.5,1130.5C 831.229,1128.62 831.896,1127.29 833.5,1126.5 Z"/></g>
<g><path style="opacity:1" fill="#cc94a2" d="M 831.5,1130.5 C 831.843,1132.48 831.176,1133.82 829.5,1134.5C 829.989,1133 830.655,1131.67 831.5,1130.5 Z"/></g>
<g><path style="opacity:1" fill="#cd8899" d="M 1825.5,1142.5 C 1824.98,1147.99 1824.32,1153.32 1823.5,1158.5C 1823.33,1153.82 1823.5,1149.15 1824,1144.5C 1824.28,1143.58 1824.78,1142.92 1825.5,1142.5 Z"/></g>
<g><path style="opacity:1" fill="#cc909d" d="M 825.5,1144.5 C 825.34,1146.15 824.674,1147.49 823.5,1148.5C 823.229,1146.62 823.896,1145.29 825.5,1144.5 Z"/></g>
<g><path style="opacity:1" fill="#cf8598" d="M 1823.5,1172.5 C 1822.88,1177.27 1822.22,1181.94 1821.5,1186.5C 1820.9,1181.38 1821.56,1176.71 1823.5,1172.5 Z"/></g>
<g><path style="opacity:1" fill="#cd8899" d="M 825.5,1172.5 C 826.222,1172.92 826.722,1173.58 827,1174.5C 827.499,1178.49 827.666,1182.49 827.5,1186.5C 826.659,1181.99 825.992,1177.32 825.5,1172.5 Z"/></g>
<g><path style="opacity:1" fill="#cb8e9c" d="M 839.5,1196.5 C 842.167,1197.17 842.167,1197.83 839.5,1198.5C 839.5,1197.83 839.5,1197.17 839.5,1196.5 Z"/></g>
<g><path style="opacity:1" fill="#cd9aa6" d="M 1433.5,1208.5 C 1429.6,1209.22 1425.6,1209.89 1421.5,1210.5C 1425.03,1208.58 1429.03,1207.91 1433.5,1208.5 Z"/></g>
<g><path style="opacity:1" fill="#d3b4bb" d="M 1464.5,1210.5 C 1459.56,1210.09 1454.72,1209.09 1450,1207.5C 1449.1,1207.74 1448.26,1208.08 1447.5,1208.5C 1447.79,1207.35 1448.62,1206.68 1450,1206.5C 1455.15,1207.58 1459.99,1208.92 1464.5,1210.5 Z"/></g>
<g><path style="opacity:1" fill="#cd99a6" d="M 1407.5,1210.5 C 1403.6,1211.22 1399.6,1211.89 1395.5,1212.5C 1399.03,1210.58 1403.03,1209.91 1407.5,1210.5 Z"/></g>
<g><path style="opacity:1" fill="#cc93a1" d="M 1223.5,1214.5 C 1220.5,1213.17 1217.5,1213.17 1214.5,1214.5C 1215.51,1213.24 1217.01,1212.57 1219,1212.5C 1220.99,1212.57 1222.49,1213.24 1223.5,1214.5 Z"/></g>
<g><path style="opacity:1" fill="#cc92a0" d="M 1294.5,1214.5 C 1292.39,1213.26 1290.39,1213.26 1288.5,1214.5C 1288.17,1214.5 1287.83,1214.5 1287.5,1214.5C 1288.15,1213.27 1289.32,1212.61 1291,1212.5C 1292.68,1212.61 1293.85,1213.27 1294.5,1214.5 Z"/></g>
<g><path style="opacity:1" fill="#ce99a6" d="M 1381.5,1212.5 C 1377.83,1213.17 1374.17,1213.83 1370.5,1214.5C 1370.17,1214.5 1369.83,1214.5 1369.5,1214.5C 1373.03,1212.58 1377.03,1211.91 1381.5,1212.5 Z"/></g>
<g><path style="opacity:1" fill="#ce97a5" d="M 1642.5,1214.5 C 1625.83,1213.17 1609.17,1213.17 1592.5,1214.5C 1600.47,1213.17 1608.81,1212.5 1617.5,1212.5C 1626.19,1212.5 1634.53,1213.17 1642.5,1214.5 Z"/></g>
<g><path style="opacity:1" fill="#d5bcc1" d="M 1469.5,1210.5 C 1483.2,1212.55 1496.54,1215.22 1509.5,1218.5C 1495.9,1216.68 1482.57,1214.01 1469.5,1210.5 Z"/></g>
<g><path style="opacity:1" fill="#cd96a4" d="M 1577.5,1214.5 C 1573.27,1215.22 1568.94,1215.89 1564.5,1216.5C 1568.37,1214.57 1572.71,1213.9 1577.5,1214.5 Z"/></g>
<g><path style="opacity:1" fill="#cd96a3" d="M 1233.5,1216.5 C 1238.29,1215.9 1242.63,1216.57 1246.5,1218.5C 1246.17,1218.5 1245.83,1218.5 1245.5,1218.5C 1241.5,1217.83 1237.5,1217.17 1233.5,1216.5 Z"/></g>
<g><path style="opacity:1" fill="#d8c6ca" d="M 1287.5,1214.5 C 1287.83,1214.5 1288.17,1214.5 1288.5,1214.5C 1276.43,1215.74 1264.26,1217.41 1252,1219.5C 1249.64,1219.5 1247.47,1219.16 1245.5,1218.5C 1245.83,1218.5 1246.17,1218.5 1246.5,1218.5C 1260.1,1216.56 1273.77,1215.23 1287.5,1214.5 Z"/></g>
<g><path style="opacity:1" fill="#d8c7cb" d="M 1369.5,1214.5 C 1369.83,1214.5 1370.17,1214.5 1370.5,1214.5C 1353.42,1215.47 1336.26,1217.14 1319,1219.5C 1316.64,1219.5 1314.47,1219.16 1312.5,1218.5C 1331.43,1216.19 1350.43,1214.86 1369.5,1214.5 Z"/></g>
<g><path style="opacity:1" fill="#ce9aa7" d="M 1549.5,1216.5 C 1545.6,1217.22 1541.6,1217.89 1537.5,1218.5C 1541.03,1216.58 1545.03,1215.91 1549.5,1216.5 Z"/></g>
<g><path style="opacity:1" fill="#ccb9be" d="M 854.5,1220.5 C 856.537,1222.2 858.203,1224.2 859.5,1226.5C 856.721,1225.39 855.054,1223.39 854.5,1220.5 Z"/></g>
<g><path style="opacity:1" fill="#cebdc1" d="M 1192.5,1222.5 C 1190.59,1226.74 1187.59,1230.08 1183.5,1232.5C 1186.14,1228.86 1189.14,1225.53 1192.5,1222.5 Z"/></g>
<g><path style="opacity:1" fill="#c9a2ac" d="M 871.5,1240.5 C 872.674,1241.51 873.34,1242.85 873.5,1244.5C 871.896,1243.71 871.229,1242.38 871.5,1240.5 Z"/></g>
<g><path style="opacity:1" fill="#c68492" d="M 873.5,1246.5 C 873.037,1249.33 872.371,1252 871.5,1254.5C 871.337,1252.14 871.503,1249.81 872,1247.5C 872.383,1246.94 872.883,1246.61 873.5,1246.5 Z"/></g>
<g><path style="opacity:1" fill="#c7a0aa" d="M 1167.5,1250.5 C 1167.77,1252.38 1167.1,1253.71 1165.5,1254.5C 1165.66,1252.85 1166.33,1251.51 1167.5,1250.5 Z"/></g>
<g><path style="opacity:1" fill="#c7a0aa" d="M 1163.5,1256.5 C 1163.77,1258.38 1163.1,1259.71 1161.5,1260.5C 1161.66,1258.85 1162.33,1257.51 1163.5,1256.5 Z"/></g>
<g><path style="opacity:1" fill="#c7a0aa" d="M 1159.5,1262.5 C 1159.77,1264.38 1159.1,1265.71 1157.5,1266.5C 1157.66,1264.85 1158.33,1263.51 1159.5,1262.5 Z"/></g>
<g><path style="opacity:1" fill="#c7a0aa" d="M 1155.5,1268.5 C 1155.77,1270.38 1155.1,1271.71 1153.5,1272.5C 1153.66,1270.85 1154.33,1269.51 1155.5,1268.5 Z"/></g>
<g><path style="opacity:1" fill="#d5bbc1" d="M 893.5,1280.5 C 897.895,1281.25 901.895,1282.58 905.5,1284.5C 901.115,1284.08 897.115,1282.74 893.5,1280.5 Z"/></g>
<g><path style="opacity:1" fill="#d5bcc1" d="M 909.5,1284.5 C 913.366,1285.13 917.032,1286.13 920.5,1287.5C 916.426,1287.62 912.759,1286.62 909.5,1284.5 Z"/></g>
<g><path style="opacity:1" fill="#c7a0aa" d="M 1075.5,1284.5 C 1075.77,1286.38 1075.1,1287.71 1073.5,1288.5C 1073.66,1286.85 1074.33,1285.51 1075.5,1284.5 Z"/></g>
<g><path style="opacity:1" fill="#c69ea7" d="M 1073.5,1288.5 C 1073.77,1290.38 1073.1,1291.71 1071.5,1292.5C 1071.66,1290.85 1072.33,1289.51 1073.5,1288.5 Z"/></g>
<g><path style="opacity:1" fill="#d5bac0" d="M 935.5,1290.5 C 939.895,1291.25 943.895,1292.58 947.5,1294.5C 943.115,1294.08 939.115,1292.74 935.5,1290.5 Z"/></g>
<g><path style="opacity:1" fill="#c7a0aa" d="M 1071.5,1292.5 C 1071.77,1294.38 1071.1,1295.71 1069.5,1296.5C 1069.66,1294.85 1070.33,1293.51 1071.5,1292.5 Z"/></g>
<g><path style="opacity:1" fill="#d4b9bf" d="M 961.5,1296.5 C 965.895,1297.25 969.895,1298.58 973.5,1300.5C 969.115,1300.08 965.115,1298.74 961.5,1296.5 Z"/></g>
<g><path style="opacity:1" fill="#d6c0c5" d="M 1003.5,1306.5 C 1009.68,1307.87 1015.68,1309.54 1021.5,1311.5C 1015.04,1311.06 1009.04,1309.39 1003.5,1306.5 Z"/></g>
<g><path style="opacity:1" fill="#d5bcc2" d="M 1029.5,1312.5 C 1036.02,1313.83 1042.35,1315.5 1048.5,1317.5C 1043.12,1316.86 1037.79,1315.86 1032.5,1314.5C 1031.4,1313.82 1030.4,1313.16 1029.5,1312.5 Z"/></g>
<g><path style="opacity:1" fill="#c7a1aa" d="M 1059.5,1314.5 C 1059.77,1316.38 1059.1,1317.71 1057.5,1318.5C 1057.66,1316.85 1058.33,1315.51 1059.5,1314.5 Z"/></g>
</svg>
