<?xml version="1.0" encoding="UTF-8"?>
<!DOCTYPE svg PUBLIC "-//W3C//DTD SVG 1.1//EN" "http://www.w3.org/Graphics/SVG/1.1/DTD/svg11.dtd">
<svg xmlns="http://www.w3.org/2000/svg" version="1.1" width="367px" height="466px" style="shape-rendering:geometricPrecision; text-rendering:geometricPrecision; image-rendering:optimizeQuality; fill-rule:evenodd; clip-rule:evenodd" xmlns:xlink="http://www.w3.org/1999/xlink">
<g><path style="opacity:1" fill="#fefefe" d="M -0.5,-0.5 C 121.833,-0.5 244.167,-0.5 366.5,-0.5C 366.5,112.5 366.5,225.5 366.5,338.5C 366.167,338.5 365.833,338.5 365.5,338.5C 364.533,337.194 363.199,336.527 361.5,336.5C 361.027,335.094 360.027,334.427 358.5,334.5C 358.167,334.5 357.833,334.5 357.5,334.5C 357.295,328.944 355.295,324.277 351.5,320.5C 348.835,306.461 346.835,292.461 345.5,278.5C 345.224,273.786 344.558,269.119 343.5,264.5C 344.777,259.561 345.777,254.561 346.5,249.5C 344.767,241.91 344.267,234.243 345,226.5C 346.911,221.024 348.744,215.524 350.5,210C 350.43,209.235 350.097,208.735 349.5,208.5C 348.073,206.852 347.24,204.852 347,202.5C 346.829,194.989 346.329,187.655 345.5,180.5C 345.5,179.5 345.5,178.5 345.5,177.5C 343.784,177.371 342.117,177.038 340.5,176.5C 339.022,175.552 338.022,174.219 337.5,172.5C 338.842,162.03 337.509,151.863 333.5,142C 333.164,140.97 332.497,140.47 331.5,140.5C 330.946,137.609 329.279,135.609 326.5,134.5C 322.274,132.608 318.607,129.941 315.5,126.5C 315.089,121.662 314.422,116.995 313.5,112.5C 313.66,103.469 312.327,94.8027 309.5,86.5C 309.678,82.8776 309.011,79.5443 307.5,76.5C 306.761,62.3429 306.428,48.3429 306.5,34.5C 306.167,34.5 305.833,34.5 305.5,34.5C 304.946,31.6091 303.279,29.6091 300.5,28.5C 298.852,26.5707 297.185,24.5707 295.5,22.5C 296.198,14.9928 296.198,7.65943 295.5,0.5C 290.519,3.92256 285.186,6.92256 279.5,9.5C 276.316,11.1099 272.983,12.1099 269.5,12.5C 265.358,13.0397 261.358,13.7063 257.5,14.5C 253.833,14.5 250.167,14.5 246.5,14.5C 232.402,15.1505 218.402,15.8172 204.5,16.5C 199.5,16.5 194.5,16.5 189.5,16.5C 181.036,17.1098 172.703,17.7765 164.5,18.5C 161.5,18.5 158.5,18.5 155.5,18.5C 152.017,19.0101 148.684,19.6768 145.5,20.5C 142.5,20.5 139.5,20.5 136.5,20.5C 133.72,21.0784 131.053,21.7451 128.5,22.5C 110.37,25.2377 92.37,28.571 74.5,32.5C 72.9731,32.427 71.9731,33.0937 71.5,34.5C 70.8333,34.5 70.1667,34.5 69.5,34.5C 67.8212,34.2852 66.8212,34.9519 66.5,36.5C 65.8333,36.5 65.1667,36.5 64.5,36.5C 62.9731,36.427 61.9731,37.0937 61.5,38.5C 58.9242,38.4679 56.5909,39.1346 54.5,40.5C 52.9731,40.427 51.9731,41.0937 51.5,42.5C 48.9242,42.4679 46.5909,43.1346 44.5,44.5C 42.9731,44.427 41.9731,45.0937 41.5,46.5C 38.9242,46.4679 36.5909,47.1346 34.5,48.5C 32.9731,48.427 31.9731,49.0937 31.5,50.5C 30.8333,50.5 30.1667,50.5 29.5,50.5C 27.5183,50.9954 25.5183,51.4954 23.5,52C 22.7476,52.6708 22.4142,53.5041 22.5,54.5C 15.6261,56.3412 8.62607,57.6745 1.5,58.5C 0.833333,58.5 0.166667,58.5 -0.5,58.5C -0.5,38.8333 -0.5,19.1667 -0.5,-0.5 Z"/></g>
<g><path style="opacity:1" fill="#6b3180" d="M 295.5,0.5 C 294.694,8.00316 294.694,15.3365 295.5,22.5C 297.185,24.5707 298.852,26.5707 300.5,28.5C 301.797,30.7976 303.463,32.7976 305.5,34.5C 305.833,34.5 306.167,34.5 306.5,34.5C 306.218,42.8324 305.885,51.1658 305.5,59.5C 305.305,65.4173 305.971,71.084 307.5,76.5C 307.549,80.0781 308.215,83.4115 309.5,86.5C 310.857,95.2998 312.191,103.966 313.5,112.5C 313.335,116.182 313.501,119.848 314,123.5C 314.232,124.737 314.732,125.737 315.5,126.5C 318.607,129.941 322.274,132.608 326.5,134.5C 327.797,136.798 329.463,138.798 331.5,140.5C 335.725,150.948 337.725,161.614 337.5,172.5C 338.022,174.219 339.022,175.552 340.5,176.5C 342.138,177.832 343.804,179.166 345.5,180.5C 346.329,187.655 346.829,194.989 347,202.5C 347.24,204.852 348.073,206.852 349.5,208.5C 347.825,214.196 345.991,219.862 344,225.5C 343.173,233.599 343.673,241.599 345.5,249.5C 344.593,254.514 343.593,259.514 342.5,264.5C 343.012,269.401 344.012,274.068 345.5,278.5C 345.405,292.943 347.405,306.943 351.5,320.5C 353.806,325.085 355.806,329.752 357.5,334.5C 357.833,334.5 358.167,334.5 358.5,334.5C 358.973,335.906 359.973,336.573 361.5,336.5C 363.199,336.527 364.533,337.194 365.5,338.5C 365.113,343.874 364.446,349.207 363.5,354.5C 362.047,358.291 360.881,362.291 360,366.5C 359.326,368.517 358.159,370.183 356.5,371.5C 353.167,372.167 349.833,372.833 346.5,373.5C 344.813,376.01 342.48,377.51 339.5,378C 319.517,380.996 300.184,385.829 281.5,392.5C 279.801,392.34 278.134,392.506 276.5,393C 273.709,394.789 270.709,396.122 267.5,397C 264.709,398.789 261.709,400.122 258.5,401C 256.907,401.949 255.574,403.115 254.5,404.5C 251.373,405.564 248.373,406.897 245.5,408.5C 243.424,409.647 241.424,410.981 239.5,412.5C 237.162,419.845 234.829,427.179 232.5,434.5C 232.167,435.833 231.833,437.167 231.5,438.5C 230.839,439.718 230.172,441.051 229.5,442.5C 222.092,449.571 215.092,456.905 208.5,464.5C 207.222,464.218 206.222,463.551 205.5,462.5C 205.198,459.627 204.531,456.961 203.5,454.5C 203.23,445.344 200.23,437.344 194.5,430.5C 193.203,428.202 191.537,426.202 189.5,424.5C 185.422,419.751 180.755,415.751 175.5,412.5C 174.055,410.937 172.389,409.604 170.5,408.5C 167.197,406.198 164.197,403.532 161.5,400.5C 160.51,394.848 157.843,390.181 153.5,386.5C 148.5,386.5 143.5,386.5 138.5,386.5C 138.396,381.187 137.063,376.187 134.5,371.5C 130.521,370.495 126.521,370.495 122.5,371.5C 122.197,368.412 123.53,366.746 126.5,366.5C 128.477,361.792 127.143,358.459 122.5,356.5C 118.285,354.564 113.619,353.897 108.5,354.5C 106.164,349.131 103.83,343.797 101.5,338.5C 99.6745,333.516 97.3411,328.849 94.5,324.5C 93.1667,322.5 91.8333,320.5 90.5,318.5C 88.5213,315.188 85.8547,312.521 82.5,310.5C 79.8322,308.663 76.8322,307.496 73.5,307C 67.3292,306.968 61.3292,306.135 55.5,304.5C 55.6657,300.154 55.499,295.821 55,291.5C 54.7679,290.263 54.2679,289.263 53.5,288.5C 53.1667,288.5 52.8333,288.5 52.5,288.5C 51.2102,287.065 49.5435,286.065 47.5,285.5C 45.8892,282.613 44.5559,279.613 43.5,276.5C 42.7348,275.388 41.7348,274.721 40.5,274.5C 40.4894,272.983 39.8228,271.816 38.5,271C 32.1202,269.987 25.7869,268.821 19.5,267.5C 17.1965,265.745 14.5298,264.578 11.5,264C 4.04946,258.841 0.716129,251.675 1.5,242.5C 2.45115,241.081 2.78448,239.415 2.5,237.5C 3.48877,231.155 4.82211,224.822 6.5,218.5C 6.41447,215.116 6.08113,211.783 5.5,208.5C 8.19951,206.135 10.5328,203.468 12.5,200.5C 13.4906,197.756 13.1573,195.089 11.5,192.5C 10.3316,187.676 8.99829,183.009 7.5,178.5C 7.16667,177.167 6.83333,175.833 6.5,174.5C 2.71527,170.467 1.71527,165.8 3.5,160.5C 4.87764,159.455 5.87764,158.122 6.5,156.5C 7.93112,156.119 8.76445,155.119 9,153.5C 8.64756,149.785 8.81423,146.119 9.5,142.5C 10.3777,139.944 11.7111,137.61 13.5,135.5C 18.0769,131.78 22.4103,127.78 26.5,123.5C 27.1799,122.14 27.8466,120.807 28.5,119.5C 29.1627,117.527 29.4961,115.361 29.5,113C 28.9115,107.483 28.2448,101.983 27.5,96.5C 28.9635,89.5489 28.6301,82.5489 26.5,75.5C 24.7853,73.7853 23.1186,72.1186 21.5,70.5C 19.1401,68.1468 16.4735,66.1468 13.5,64.5C 10.9752,63.36 8.30849,62.6933 5.5,62.5C 4.31924,60.9328 2.65257,60.0995 0.5,60C 1.05596,59.6174 1.38929,59.1174 1.5,58.5C 8.62607,57.6745 15.6261,56.3412 22.5,54.5C 24.9885,53.312 27.3218,51.9787 29.5,50.5C 30.1667,50.5 30.8333,50.5 31.5,50.5C 33.0269,50.573 34.0269,49.9063 34.5,48.5C 36.5909,47.1346 38.9242,46.4679 41.5,46.5C 43.0269,46.573 44.0269,45.9063 44.5,44.5C 46.5909,43.1346 48.9242,42.4679 51.5,42.5C 53.0269,42.573 54.0269,41.9063 54.5,40.5C 56.5909,39.1346 58.9242,38.4679 61.5,38.5C 63.0269,38.573 64.0269,37.9063 64.5,36.5C 65.1667,36.5 65.8333,36.5 66.5,36.5C 67.7095,36.0679 68.7095,35.4013 69.5,34.5C 70.1667,34.5 70.8333,34.5 71.5,34.5C 73.0269,34.573 74.0269,33.9063 74.5,32.5C 92.37,28.571 110.37,25.2377 128.5,22.5C 131.698,23.0356 134.365,22.369 136.5,20.5C 139.5,20.5 142.5,20.5 145.5,20.5C 148.518,20.6646 151.518,20.498 154.5,20C 155.056,19.6174 155.389,19.1174 155.5,18.5C 158.5,18.5 161.5,18.5 164.5,18.5C 172.507,18.6664 180.507,18.4997 188.5,18C 189.056,17.6174 189.389,17.1174 189.5,16.5C 194.5,16.5 199.5,16.5 204.5,16.5C 218.873,17.1491 232.873,16.4824 246.5,14.5C 250.167,14.5 253.833,14.5 257.5,14.5C 261.182,14.6653 264.848,14.4986 268.5,14C 269.056,13.6174 269.389,13.1174 269.5,12.5C 272.983,12.1099 276.316,11.1099 279.5,9.5C 285.186,6.92256 290.519,3.92256 295.5,0.5 Z"/></g>
<g><path style="opacity:1" fill="#b0a8b5" d="M 295.5,0.5 C 296.198,7.65943 296.198,14.9928 295.5,22.5C 294.694,15.3365 294.694,8.00316 295.5,0.5 Z"/></g>
<g><path style="opacity:1" fill="#745a7d" d="M 269.5,12.5 C 269.389,13.1174 269.056,13.6174 268.5,14C 264.848,14.4986 261.182,14.6653 257.5,14.5C 261.358,13.7063 265.358,13.0397 269.5,12.5 Z"/></g>
<g><path style="opacity:1" fill="#6f5478" d="M 246.5,14.5 C 232.873,16.4824 218.873,17.1491 204.5,16.5C 218.402,15.8172 232.402,15.1505 246.5,14.5 Z"/></g>
<g><path style="opacity:1" fill="#71567b" d="M 189.5,16.5 C 189.389,17.1174 189.056,17.6174 188.5,18C 180.507,18.4997 172.507,18.6664 164.5,18.5C 172.703,17.7765 181.036,17.1098 189.5,16.5 Z"/></g>
<g><path style="opacity:1" fill="#795f82" d="M 155.5,18.5 C 155.389,19.1174 155.056,19.6174 154.5,20C 151.518,20.498 148.518,20.6646 145.5,20.5C 148.684,19.6768 152.017,19.0101 155.5,18.5 Z"/></g>
<g><path style="opacity:1" fill="#71587b" d="M 136.5,20.5 C 134.365,22.369 131.698,23.0356 128.5,22.5C 131.053,21.7451 133.72,21.0784 136.5,20.5 Z"/></g>
<g><path style="opacity:1" fill="#aca3b0" d="M 300.5,28.5 C 303.279,29.6091 304.946,31.6091 305.5,34.5C 303.463,32.7976 301.797,30.7976 300.5,28.5 Z"/></g>
<g><path style="opacity:1" fill="#948098" d="M 74.5,32.5 C 74.0269,33.9063 73.0269,34.573 71.5,34.5C 71.9731,33.0937 72.9731,32.427 74.5,32.5 Z"/></g>
<g><path style="opacity:1" fill="#917d9b" d="M 69.5,34.5 C 68.7095,35.4013 67.7095,36.0679 66.5,36.5C 66.8212,34.9519 67.8212,34.2852 69.5,34.5 Z"/></g>
<g><path style="opacity:1" fill="#928098" d="M 64.5,36.5 C 64.0269,37.9063 63.0269,38.573 61.5,38.5C 61.9731,37.0937 62.9731,36.427 64.5,36.5 Z"/></g>
<g><path style="opacity:1" fill="#96849a" d="M 54.5,40.5 C 54.0269,41.9063 53.0269,42.573 51.5,42.5C 51.9731,41.0937 52.9731,40.427 54.5,40.5 Z"/></g>
<g><path style="opacity:1" fill="#928098" d="M 44.5,44.5 C 44.0269,45.9063 43.0269,46.573 41.5,46.5C 41.9731,45.0937 42.9731,44.427 44.5,44.5 Z"/></g>
<g><path style="opacity:1" fill="#aca1b2" d="M 306.5,34.5 C 306.428,48.3429 306.761,62.3429 307.5,76.5C 305.971,71.084 305.305,65.4173 305.5,59.5C 305.885,51.1658 306.218,42.8324 306.5,34.5 Z"/></g>
<g><path style="opacity:1" fill="#96849a" d="M 34.5,48.5 C 34.0269,49.9063 33.0269,50.573 31.5,50.5C 31.9731,49.0937 32.9731,48.427 34.5,48.5 Z"/></g>
<g><path style="opacity:1" fill="#b9b0bc" d="M 29.5,50.5 C 27.3218,51.9787 24.9885,53.312 22.5,54.5C 22.4142,53.5041 22.7476,52.6708 23.5,52C 25.5183,51.4954 27.5183,50.9954 29.5,50.5 Z"/></g>
<g><path style="opacity:1" fill="#7b6185" d="M -0.5,58.5 C 0.166667,58.5 0.833333,58.5 1.5,58.5C 1.38929,59.1174 1.05596,59.6174 0.5,60C 2.65257,60.0995 4.31924,60.9328 5.5,62.5C 3.56475,61.8505 1.56475,61.5172 -0.5,61.5C -0.5,60.5 -0.5,59.5 -0.5,58.5 Z"/></g>
<g><path style="opacity:1" fill="#fefefe" d="M -0.5,61.5 C 1.56475,61.5172 3.56475,61.8505 5.5,62.5C 8.30849,62.6933 10.9752,63.36 13.5,64.5C 15.2431,67.5577 17.9098,69.5577 21.5,70.5C 23.1186,72.1186 24.7853,73.7853 26.5,75.5C 28.6301,82.5489 28.9635,89.5489 27.5,96.5C 26.8476,97.4486 26.5143,98.6153 26.5,100C 28.0753,106.402 28.7419,112.902 28.5,119.5C 27.8466,120.807 27.1799,122.14 26.5,123.5C 22.4103,127.78 18.0769,131.78 13.5,135.5C 11.7111,137.61 10.3777,139.944 9.5,142.5C 7.18536,144.922 6.85203,147.755 8.5,151C 7.92312,152.9 7.25645,154.733 6.5,156.5C 5.87764,158.122 4.87764,159.455 3.5,160.5C 2.88258,160.611 2.38258,160.944 2,161.5C 0.379404,167.077 1.8794,171.411 6.5,174.5C 6.83333,175.833 7.16667,177.167 7.5,178.5C 7.44563,183.659 8.77897,188.325 11.5,192.5C 11.5751,195.206 11.9084,197.873 12.5,200.5C 10.5328,203.468 8.19951,206.135 5.5,208.5C 4.99218,211.614 4.99218,214.948 5.5,218.5C 5.44402,221.78 4.61068,224.78 3,227.5C 2.50166,230.817 2.33499,234.15 2.5,237.5C 2.78448,239.415 2.45115,241.081 1.5,242.5C -0.728428,256.622 5.27157,264.955 19.5,267.5C 25.7869,268.821 32.1202,269.987 38.5,271C 39.8228,271.816 40.4894,272.983 40.5,274.5C 42.7937,278.296 44.7937,282.296 46.5,286.5C 48.4109,287.477 50.4109,288.143 52.5,288.5C 52.8333,288.5 53.1667,288.5 53.5,288.5C 53.9525,293.998 54.6191,299.331 55.5,304.5C 61.3292,306.135 67.3292,306.968 73.5,307C 76.8322,307.496 79.8322,308.663 82.5,310.5C 84.4512,313.785 87.1178,316.451 90.5,318.5C 91.8333,320.5 93.1667,322.5 94.5,324.5C 95.793,329.753 98.1263,334.419 101.5,338.5C 102.83,343.475 104.33,348.475 106,353.5C 106.417,354.756 107.25,355.423 108.5,355.5C 113.263,355.226 117.93,355.559 122.5,356.5C 127.143,358.459 128.477,361.792 126.5,366.5C 123.53,366.746 122.197,368.412 122.5,371.5C 126.521,370.495 130.521,370.495 134.5,371.5C 137.063,376.187 138.396,381.187 138.5,386.5C 143.5,386.5 148.5,386.5 153.5,386.5C 156.364,391.134 159.03,395.801 161.5,400.5C 164.197,403.532 167.197,406.198 170.5,408.5C 171.129,410.997 172.796,412.33 175.5,412.5C 180.755,415.751 185.422,419.751 189.5,424.5C 190.054,427.391 191.721,429.391 194.5,430.5C 200.23,437.344 203.23,445.344 203.5,454.5C 203.111,457.553 203.777,460.22 205.5,462.5C 206.222,463.551 207.222,464.218 208.5,464.5C 216.116,457.886 223.449,450.886 230.5,443.5C 231.452,441.955 231.785,440.288 231.5,438.5C 231.833,437.167 232.167,435.833 232.5,434.5C 233.117,434.389 233.617,434.056 234,433.5C 236.269,426.859 238.436,420.192 240.5,413.5C 241.59,412.273 242.924,411.44 244.5,411C 245.252,410.329 245.586,409.496 245.5,408.5C 248.373,406.897 251.373,405.564 254.5,404.5C 263.55,400.407 272.55,396.407 281.5,392.5C 300.184,385.829 319.517,380.996 339.5,378C 342.48,377.51 344.813,376.01 346.5,373.5C 349.833,372.833 353.167,372.167 356.5,371.5C 358.159,370.183 359.326,368.517 360,366.5C 360.881,362.291 362.047,358.291 363.5,354.5C 364.954,351.647 365.954,348.647 366.5,345.5C 366.5,385.5 366.5,425.5 366.5,465.5C 244.167,465.5 121.833,465.5 -0.5,465.5C -0.5,330.833 -0.5,196.167 -0.5,61.5 Z"/></g>
<g><path style="opacity:1" fill="#b5aab9" d="M 13.5,64.5 C 16.4735,66.1468 19.1401,68.1468 21.5,70.5C 17.9098,69.5577 15.2431,67.5577 13.5,64.5 Z"/></g>
<g><path style="opacity:1" fill="#b5afbb" d="M 307.5,76.5 C 309.011,79.5443 309.678,82.8776 309.5,86.5C 308.215,83.4115 307.549,80.0781 307.5,76.5 Z"/></g>
<g><path style="opacity:1" fill="#aea6b3" d="M 309.5,86.5 C 312.327,94.8027 313.66,103.469 313.5,112.5C 312.191,103.966 310.857,95.2998 309.5,86.5 Z"/></g>
<g><path style="opacity:1" fill="#b0a3b4" d="M 27.5,96.5 C 28.2448,101.983 28.9115,107.483 29.5,113C 29.4961,115.361 29.1627,117.527 28.5,119.5C 28.7419,112.902 28.0753,106.402 26.5,100C 26.5143,98.6153 26.8476,97.4486 27.5,96.5 Z"/></g>
<g><path style="opacity:1" fill="#a597aa" d="M 313.5,112.5 C 314.422,116.995 315.089,121.662 315.5,126.5C 314.732,125.737 314.232,124.737 314,123.5C 313.501,119.848 313.335,116.182 313.5,112.5 Z"/></g>
<g><path style="opacity:1" fill="#ada4b0" d="M 326.5,134.5 C 329.279,135.609 330.946,137.609 331.5,140.5C 329.463,138.798 327.797,136.798 326.5,134.5 Z"/></g>
<g><path style="opacity:1" fill="#c9c3cb" d="M 9.5,142.5 C 8.81423,146.119 8.64756,149.785 9,153.5C 8.76445,155.119 7.93112,156.119 6.5,156.5C 7.25645,154.733 7.92312,152.9 8.5,151C 6.85203,147.755 7.18536,144.922 9.5,142.5 Z"/></g>
<g><path style="opacity:1" fill="#a99dae" d="M 331.5,140.5 C 332.497,140.47 333.164,140.97 333.5,142C 337.509,151.863 338.842,162.03 337.5,172.5C 337.725,161.614 335.725,150.948 331.5,140.5 Z"/></g>
<g><path style="opacity:1" fill="#cac5cc" d="M 3.5,160.5 C 1.71527,165.8 2.71527,170.467 6.5,174.5C 1.8794,171.411 0.379404,167.077 2,161.5C 2.38258,160.944 2.88258,160.611 3.5,160.5 Z"/></g>
<g><path style="opacity:1" fill="#bbb2be" d="M 340.5,176.5 C 342.117,177.038 343.784,177.371 345.5,177.5C 345.5,178.5 345.5,179.5 345.5,180.5C 343.804,179.166 342.138,177.832 340.5,176.5 Z"/></g>
<g><path style="opacity:1" fill="#c9c3cb" d="M 7.5,178.5 C 8.99829,183.009 10.3316,187.676 11.5,192.5C 8.77897,188.325 7.44563,183.659 7.5,178.5 Z"/></g>
<g><path style="opacity:1" fill="#b2a7b6" d="M 11.5,192.5 C 13.1573,195.089 13.4906,197.756 12.5,200.5C 11.9084,197.873 11.5751,195.206 11.5,192.5 Z"/></g>
<g><path style="opacity:1" fill="#c4bec6" d="M 5.5,208.5 C 6.08113,211.783 6.41447,215.116 6.5,218.5C 4.82211,224.822 3.48877,231.155 2.5,237.5C 2.33499,234.15 2.50166,230.817 3,227.5C 4.61068,224.78 5.44402,221.78 5.5,218.5C 4.99218,214.948 4.99218,211.614 5.5,208.5 Z"/></g>
<g><path style="opacity:1" fill="#aba1b1" d="M 349.5,208.5 C 350.097,208.735 350.43,209.235 350.5,210C 348.744,215.524 346.911,221.024 345,226.5C 344.267,234.243 344.767,241.91 346.5,249.5C 345.777,254.561 344.777,259.561 343.5,264.5C 344.558,269.119 345.224,273.786 345.5,278.5C 344.012,274.068 343.012,269.401 342.5,264.5C 343.593,259.514 344.593,254.514 345.5,249.5C 343.673,241.599 343.173,233.599 344,225.5C 345.991,219.862 347.825,214.196 349.5,208.5 Z"/></g>
<g><path style="opacity:1" fill="#c2bac4" d="M 1.5,242.5 C 0.716129,251.675 4.04946,258.841 11.5,264C 14.5298,264.578 17.1965,265.745 19.5,267.5C 5.27157,264.955 -0.728428,256.622 1.5,242.5 Z"/></g>
<g><path style="opacity:1" fill="#c0b9c2" d="M 40.5,274.5 C 41.7348,274.721 42.7348,275.388 43.5,276.5C 44.5559,279.613 45.8892,282.613 47.5,285.5C 49.5435,286.065 51.2102,287.065 52.5,288.5C 50.4109,288.143 48.4109,287.477 46.5,286.5C 44.7937,282.296 42.7937,278.296 40.5,274.5 Z"/></g>
<g><path style="opacity:1" fill="#b2aab7" d="M 345.5,278.5 C 346.835,292.461 348.835,306.461 351.5,320.5C 347.405,306.943 345.405,292.943 345.5,278.5 Z"/></g>
<g><path style="opacity:1" fill="#a99bae" d="M 53.5,288.5 C 54.2679,289.263 54.7679,290.263 55,291.5C 55.499,295.821 55.6657,300.154 55.5,304.5C 54.6191,299.331 53.9525,293.998 53.5,288.5 Z"/></g>
<g><path style="opacity:1" fill="#b4abb8" d="M 82.5,310.5 C 85.8547,312.521 88.5213,315.188 90.5,318.5C 87.1178,316.451 84.4512,313.785 82.5,310.5 Z"/></g>
<g><path style="opacity:1" fill="#a99eae" d="M 351.5,320.5 C 355.295,324.277 357.295,328.944 357.5,334.5C 355.806,329.752 353.806,325.085 351.5,320.5 Z"/></g>
<g><path style="opacity:1" fill="#c9c3ca" d="M 94.5,324.5 C 97.3411,328.849 99.6745,333.516 101.5,338.5C 98.1263,334.419 95.793,329.753 94.5,324.5 Z"/></g>
<g><path style="opacity:1" fill="#938399" d="M 358.5,334.5 C 360.027,334.427 361.027,335.094 361.5,336.5C 359.973,336.573 358.973,335.906 358.5,334.5 Z"/></g>
<g><path style="opacity:1" fill="#beb6bf" d="M 101.5,338.5 C 103.83,343.797 106.164,349.131 108.5,354.5C 108.5,354.833 108.5,355.167 108.5,355.5C 107.25,355.423 106.417,354.756 106,353.5C 104.33,348.475 102.83,343.475 101.5,338.5 Z"/></g>
<g><path style="opacity:1" fill="#b9b1bc" d="M 365.5,338.5 C 365.833,338.5 366.167,338.5 366.5,338.5C 366.5,340.833 366.5,343.167 366.5,345.5C 365.954,348.647 364.954,351.647 363.5,354.5C 364.446,349.207 365.113,343.874 365.5,338.5 Z"/></g>
<g><path style="opacity:1" fill="#72587b" d="M 108.5,355.5 C 108.5,355.167 108.5,354.833 108.5,354.5C 113.619,353.897 118.285,354.564 122.5,356.5C 117.93,355.559 113.263,355.226 108.5,355.5 Z"/></g>
<g><path style="opacity:1" fill="#bab1bc" d="M 153.5,386.5 C 157.843,390.181 160.51,394.848 161.5,400.5C 159.03,395.801 156.364,391.134 153.5,386.5 Z"/></g>
<g><path style="opacity:1" fill="#c2bac5" d="M 281.5,392.5 C 272.55,396.407 263.55,400.407 254.5,404.5C 255.574,403.115 256.907,401.949 258.5,401C 261.709,400.122 264.709,398.789 267.5,397C 270.709,396.122 273.709,394.789 276.5,393C 278.134,392.506 279.801,392.34 281.5,392.5 Z"/></g>
<g><path style="opacity:1" fill="#afa4b4" d="M 170.5,408.5 C 172.389,409.604 174.055,410.937 175.5,412.5C 172.796,412.33 171.129,410.997 170.5,408.5 Z"/></g>
<g><path style="opacity:1" fill="#c1b9c3" d="M 245.5,408.5 C 245.586,409.496 245.252,410.329 244.5,411C 242.924,411.44 241.59,412.273 240.5,413.5C 238.436,420.192 236.269,426.859 234,433.5C 233.617,434.056 233.117,434.389 232.5,434.5C 234.829,427.179 237.162,419.845 239.5,412.5C 241.424,410.981 243.424,409.647 245.5,408.5 Z"/></g>
<g><path style="opacity:1" fill="#b3aab6" d="M 189.5,424.5 C 191.537,426.202 193.203,428.202 194.5,430.5C 191.721,429.391 190.054,427.391 189.5,424.5 Z"/></g>
<g><path style="opacity:1" fill="#b7aeb9" d="M 231.5,438.5 C 231.785,440.288 231.452,441.955 230.5,443.5C 223.449,450.886 216.116,457.886 208.5,464.5C 215.092,456.905 222.092,449.571 229.5,442.5C 230.172,441.051 230.839,439.718 231.5,438.5 Z"/></g>
<g><path style="opacity:1" fill="#bcb1be" d="M 203.5,454.5 C 204.531,456.961 205.198,459.627 205.5,462.5C 203.777,460.22 203.111,457.553 203.5,454.5 Z"/></g>
</svg>
