<?xml version="1.0" encoding="UTF-8"?>
<!DOCTYPE svg PUBLIC "-//W3C//DTD SVG 1.1//EN" "http://www.w3.org/Graphics/SVG/1.1/DTD/svg11.dtd">
<svg xmlns="http://www.w3.org/2000/svg" version="1.1" width="315px" height="604px" style="shape-rendering:geometricPrecision; text-rendering:geometricPrecision; image-rendering:optimizeQuality; fill-rule:evenodd; clip-rule:evenodd" xmlns:xlink="http://www.w3.org/1999/xlink">
<g><path style="opacity:1" fill="#fefefe" d="M -0.5,-0.5 C 16.8333,-0.5 34.1667,-0.5 51.5,-0.5C 51.4921,2.54483 51.1587,5.54483 50.5,8.5C 48.8784,9.12236 47.5451,10.1224 46.5,11.5C 44.8333,11.5 43.1667,11.5 41.5,11.5C 40.1245,15.6975 39.4579,20.0309 39.5,24.5C 39.552,26.9029 39.2186,29.2362 38.5,31.5C 37.8335,36.0166 37.1669,40.6833 36.5,45.5C 34.679,46.7277 33.679,48.3944 33.5,50.5C 32.8333,50.5 32.1667,50.5 31.5,50.5C 28.0522,51.02 26.3855,53.02 26.5,56.5C 23.5242,59.0962 21.5242,62.4295 20.5,66.5C 18.8958,67.287 18.2291,68.6203 18.5,70.5C 16.8958,71.287 16.2291,72.6203 16.5,74.5C 14.7356,75.326 13.4023,76.6593 12.5,78.5C 9.68025,79.4647 8.34692,81.4647 8.5,84.5C 6.89578,85.287 6.22911,86.6203 6.5,88.5C 4.89578,89.287 4.22911,90.6203 4.5,92.5C 2.89578,93.287 2.22911,94.6203 2.5,96.5C 1.59334,98.6568 0.926675,100.99 0.5,103.5C 0.166667,103.5 -0.166667,103.5 -0.5,103.5C -0.5,68.8333 -0.5,34.1667 -0.5,-0.5 Z"/></g>
<g><path style="opacity:1" fill="#fefefe" d="M 56.5,0.5 C 56.5,0.166667 56.5,-0.166667 56.5,-0.5C 142.5,-0.5 228.5,-0.5 314.5,-0.5C 314.5,148.5 314.5,297.5 314.5,446.5C 311.29,446.13 308.623,444.797 306.5,442.5C 304.682,441.501 303.015,440.168 301.5,438.5C 302.246,437.264 302.579,435.93 302.5,434.5C 303.921,431.991 305.588,429.657 307.5,427.5C 309.301,426.281 310.301,424.448 310.5,422C 310.43,421.235 310.097,420.735 309.5,420.5C 309.167,420.5 308.833,420.5 308.5,420.5C 305.525,418.008 302.192,416.008 298.5,414.5C 295.69,413.379 293.023,412.045 290.5,410.5C 289.077,408.455 287.077,407.455 284.5,407.5C 280.982,405.14 278.982,401.806 278.5,397.5C 282.155,386.103 283.655,374.436 283,362.5C 281.915,361.264 281.082,359.931 280.5,358.5C 280.771,356.62 280.104,355.287 278.5,354.5C 278.771,352.62 278.104,351.287 276.5,350.5C 276.5,349.833 276.5,349.167 276.5,348.5C 276.771,346.62 276.104,345.287 274.5,344.5C 274.5,343.5 274.5,342.5 274.5,341.5C 271.428,341.183 268.428,341.516 265.5,342.5C 261.357,346.028 256.691,348.694 251.5,350.5C 248.463,351.741 245.463,351.741 242.5,350.5C 241.833,350.5 241.167,350.5 240.5,350.5C 238.94,348.571 236.94,347.238 234.5,346.5C 233.833,346.5 233.167,346.5 232.5,346.5C 229.135,344.673 225.468,343.34 221.5,342.5C 219.395,340.741 217.729,338.741 216.5,336.5C 216.412,333.477 215.412,330.81 213.5,328.5C 204.377,327.926 195.377,326.593 186.5,324.5C 183.721,322.308 180.721,320.641 177.5,319.5C 178.036,316.302 177.369,313.635 175.5,311.5C 173.512,306.543 171.845,301.543 170.5,296.5C 170.771,294.62 170.104,293.287 168.5,292.5C 168.5,291.833 168.5,291.167 168.5,290.5C 168.215,285.141 167.215,280.141 165.5,275.5C 163.895,272.622 162.561,269.622 161.5,266.5C 161.5,263.5 161.5,260.5 161.5,257.5C 162.5,257.5 163.5,257.5 164.5,257.5C 164.5,256.5 164.5,255.5 164.5,254.5C 164.403,249.968 163.403,245.635 161.5,241.5C 152.892,241.392 149.059,237.059 150,228.5C 149.392,226.934 148.558,225.6 147.5,224.5C 147.197,221.412 148.53,219.746 151.5,219.5C 151.5,218.5 151.5,217.5 151.5,216.5C 152.5,216.5 153.5,216.5 154.5,216.5C 154.5,215.167 154.5,213.833 154.5,212.5C 151.376,212.034 148.71,210.701 146.5,208.5C 136.993,204.413 127.66,199.747 118.5,194.5C 117.167,191.833 117.167,189.167 118.5,186.5C 119.404,185.791 119.737,184.791 119.5,183.5C 116.165,182.539 114.499,180.206 114.5,176.5C 118.647,175.691 121.647,173.358 123.5,169.5C 123.132,167.825 122.132,166.825 120.5,166.5C 119.17,164.508 117.836,162.508 116.5,160.5C 117.304,154.353 117.304,148.02 116.5,141.5C 115.431,140.09 114.097,139.09 112.5,138.5C 112.01,132.72 111.01,127.053 109.5,121.5C 106.833,121.5 104.167,121.5 101.5,121.5C 101.366,117.698 102.033,114.032 103.5,110.5C 102.18,105.683 99.0138,103.349 94,103.5C 91.0953,103.876 88.262,104.543 85.5,105.5C 83.3074,105.229 81.6407,104.229 80.5,102.5C 78.3852,96.937 75.7185,91.6037 72.5,86.5C 71.8413,83.5448 71.5079,80.5448 71.5,77.5C 74.2707,75.2724 77.2707,73.2724 80.5,71.5C 80.8333,70.5 81.1667,69.5 81.5,68.5C 81.3601,66.9704 80.6935,65.9704 79.5,65.5C 78.4728,63.816 77.4728,62.1494 76.5,60.5C 76.0074,58.1944 75.6741,55.861 75.5,53.5C 77.9967,51.8362 80.6633,50.5029 83.5,49.5C 83.6641,46.8127 83.4974,44.146 83,41.5C 82.6232,40.0577 81.7899,39.0577 80.5,38.5C 78.659,36.1515 77.3257,33.4848 76.5,30.5C 76.5,29.5 76.5,28.5 76.5,27.5C 81.1859,26.831 83.5193,24.1643 83.5,19.5C 81.7085,19.634 80.0418,19.3007 78.5,18.5C 77.8333,18.5 77.1667,18.5 76.5,18.5C 73.8002,16.5811 71.4668,14.2478 69.5,11.5C 72.41,3.11872 69.41,-0.547945 60.5,0.5C 59.1667,0.5 57.8333,0.5 56.5,0.5 Z"/></g>
<g><path style="opacity:1" fill="#d4c192" d="M 51.5,-0.5 C 53.1667,-0.5 54.8333,-0.5 56.5,-0.5C 56.5,-0.166667 56.5,0.166667 56.5,0.5C 55.1667,0.5 53.8333,0.5 52.5,0.5C 52.8893,3.5533 52.2227,6.21997 50.5,8.5C 51.1587,5.54483 51.4921,2.54483 51.5,-0.5 Z"/></g>
<g><path style="opacity:1" fill="#dfb954" d="M 56.5,0.5 C 57.8333,0.5 59.1667,0.5 60.5,0.5C 62.7171,2.07994 65.3837,3.07994 68.5,3.5C 68.7298,7.15442 69.0631,10.8211 69.5,14.5C 71.5057,16.5078 73.839,17.8412 76.5,18.5C 77.1667,18.5 77.8333,18.5 78.5,18.5C 79.3351,19.9432 80.6684,20.9432 82.5,21.5C 80.7007,24.0404 78.3674,26.0404 75.5,27.5C 73.9084,29.2249 74.2417,30.2249 76.5,30.5C 77.3257,33.4848 78.659,36.1515 80.5,38.5C 82.0233,41.6348 82.69,44.9682 82.5,48.5C 79.7837,49.2013 77.4504,50.5346 75.5,52.5C 74.0829,55.3404 74.4162,58.007 76.5,60.5C 77.4728,62.1494 78.4728,63.816 79.5,65.5C 80.6664,67.166 80.6664,68.8327 79.5,70.5C 76.407,72.0343 73.7403,74.0343 71.5,76.5C 70.8442,77.6216 70.5108,78.9549 70.5,80.5C 70.361,82.8825 71.0277,84.8825 72.5,86.5C 75.7185,91.6037 78.3852,96.937 80.5,102.5C 80.8007,105.359 82.4673,106.693 85.5,106.5C 88.3167,105.763 91.1501,105.096 94,104.5C 98.0617,104.724 100.895,106.724 102.5,110.5C 100.804,114.317 100.137,118.317 100.5,122.5C 103.167,122.5 105.833,122.5 108.5,122.5C 109.598,128.019 110.931,133.352 112.5,138.5C 116.849,143.963 117.516,149.963 114.5,156.5C 114.668,158.171 115.335,159.504 116.5,160.5C 117.836,162.508 119.17,164.508 120.5,166.5C 120.721,167.735 121.388,168.735 122.5,169.5C 120.039,172.31 117.372,174.643 114.5,176.5C 113.609,177.261 112.942,178.261 112.5,179.5C 114.295,182.147 116.295,184.481 118.5,186.5C 115.833,189.167 115.833,191.833 118.5,194.5C 126.693,201.263 136.026,205.93 146.5,208.5C 148.71,210.701 151.376,212.034 154.5,212.5C 154.5,213.833 154.5,215.167 154.5,216.5C 153.5,216.5 152.5,216.5 151.5,216.5C 150.34,217.611 149.007,218.611 147.5,219.5C 146.265,221.316 146.265,222.983 147.5,224.5C 148.558,225.6 149.392,226.934 150,228.5C 149.059,237.059 152.892,241.392 161.5,241.5C 163.403,245.635 164.403,249.968 164.5,254.5C 163.533,255.806 162.199,256.473 160.5,256.5C 160.187,260.042 160.521,263.375 161.5,266.5C 162.561,269.622 163.895,272.622 165.5,275.5C 165.785,280.859 166.785,285.859 168.5,290.5C 168.5,291.167 168.5,291.833 168.5,292.5C 168.66,294.153 169.326,295.486 170.5,296.5C 171.845,301.543 173.512,306.543 175.5,311.5C 176.403,314.391 176.736,317.391 176.5,320.5C 180.651,322.817 184.985,324.817 189.5,326.5C 197.108,327.88 204.775,328.88 212.5,329.5C 213.98,331.84 215.313,334.174 216.5,336.5C 216.521,339.535 217.854,341.868 220.5,343.5C 224.464,344.777 228.464,345.777 232.5,346.5C 233.167,346.5 233.833,346.5 234.5,346.5C 235.828,348.719 237.828,350.052 240.5,350.5C 241.167,350.5 241.833,350.5 242.5,350.5C 243.694,351.777 245.36,352.444 247.5,352.5C 254.542,350.951 260.875,347.951 266.5,343.5C 269.467,342.121 272.134,342.454 274.5,344.5C 274.66,346.153 275.326,347.486 276.5,348.5C 276.5,349.167 276.5,349.833 276.5,350.5C 276.66,352.153 277.326,353.486 278.5,354.5C 278.66,356.153 279.326,357.486 280.5,358.5C 281.082,359.931 281.915,361.264 283,362.5C 283.655,374.436 282.155,386.103 278.5,397.5C 278.982,401.806 280.982,405.14 284.5,407.5C 286.216,408.971 288.216,409.971 290.5,410.5C 293.023,412.045 295.69,413.379 298.5,414.5C 301.132,417.49 304.465,419.49 308.5,420.5C 308.833,420.5 309.167,420.5 309.5,420.5C 308.985,422.894 308.319,425.228 307.5,427.5C 305.588,429.657 303.921,431.991 302.5,434.5C 300.019,436.787 300.019,439.121 302.5,441.5C 303.689,442.429 305.022,442.762 306.5,442.5C 308.623,444.797 311.29,446.13 314.5,446.5C 314.5,447.5 314.5,448.5 314.5,449.5C 313.5,449.5 312.5,449.5 311.5,449.5C 308.535,448.79 305.535,447.79 302.5,446.5C 299.957,448.203 297.29,449.537 294.5,450.5C 294.5,455.167 294.5,459.833 294.5,464.5C 291.833,465.833 289.167,467.167 286.5,468.5C 280.465,468.908 274.465,469.574 268.5,470.5C 268.634,472.292 268.301,473.958 267.5,475.5C 267.5,476.167 267.167,476.5 266.5,476.5C 263.509,477.947 261.509,480.28 260.5,483.5C 261.833,487.5 263.167,491.5 264.5,495.5C 264.029,497.246 263.362,498.913 262.5,500.5C 263.754,502.334 264.421,504.334 264.5,506.5C 263.022,506.238 261.689,506.571 260.5,507.5C 257.794,509.871 255.461,512.537 253.5,515.5C 245.907,518.463 239.573,523.129 234.5,529.5C 231.532,530.824 228.866,532.491 226.5,534.5C 225.778,534.918 225.278,535.584 225,536.5C 224.771,544.547 224.271,552.547 223.5,560.5C 219.356,561.737 215.689,563.737 212.5,566.5C 208.371,566.874 204.371,567.874 200.5,569.5C 192.093,574.224 183.76,578.891 175.5,583.5C 171.233,584.025 167.567,585.692 164.5,588.5C 162.396,588.201 160.396,588.534 158.5,589.5C 151.192,592.983 144.192,596.65 137.5,600.5C 134.77,600.473 132.27,601.14 130,602.5C 128.93,602.472 128.097,602.139 127.5,601.5C 127.025,598.238 126.025,595.238 124.5,592.5C 124.167,592.5 123.833,592.5 123.5,592.5C 121.609,585.754 119.942,579.088 118.5,572.5C 118.5,571.167 118.5,569.833 118.5,568.5C 118.664,565.813 118.497,563.146 118,560.5C 117.722,559.584 117.222,558.918 116.5,558.5C 116.793,550.339 115.793,542.339 113.5,534.5C 116.039,526.954 116.705,519.287 115.5,511.5C 114.167,506.167 114.167,500.833 115.5,495.5C 116.11,494.609 116.443,493.609 116.5,492.5C 117.674,491.486 118.34,490.153 118.5,488.5C 118.5,487.833 118.5,487.167 118.5,486.5C 119.972,484.883 120.639,482.883 120.5,480.5C 119.004,470.445 118.004,460.445 117.5,450.5C 116.607,448.703 115.274,447.37 113.5,446.5C 111.551,444.522 109.551,442.522 107.5,440.5C 107.5,439.167 107.5,437.833 107.5,436.5C 108.162,434.696 108.495,432.696 108.5,430.5C 107.779,425.635 106.779,420.969 105.5,416.5C 104.691,414.972 104.024,413.306 103.5,411.5C 102.847,410.193 102.18,408.86 101.5,407.5C 96.797,402.709 91.797,398.376 86.5,394.5C 84.417,376.316 81.417,358.316 77.5,340.5C 76.188,332.932 76.188,325.265 77.5,317.5C 77.6657,313.154 77.499,308.821 77,304.5C 73.6896,300.022 70.1896,295.689 66.5,291.5C 65.5934,288.579 65.2601,285.579 65.5,282.5C 66.6597,270.674 66.8263,258.674 66,246.5C 65.7216,245.584 65.2216,244.918 64.5,244.5C 60.4026,239.531 55.0693,237.531 48.5,238.5C 48.6641,235.813 48.4974,233.146 48,230.5C 47.7216,229.584 47.2216,228.918 46.5,228.5C 45.0979,226.049 43.4312,223.716 41.5,221.5C 35.8671,217.534 30.5338,213.2 25.5,208.5C 25.1667,206.833 24.8333,205.167 24.5,203.5C 26.1205,195.916 26.7872,188.249 26.5,180.5C 26.8693,174.487 27.036,168.487 27,162.5C 26.5017,160.456 25.335,159.122 23.5,158.5C 21.9726,155.932 19.6393,154.599 16.5,154.5C 16.7406,152.102 16.0739,150.102 14.5,148.5C 13.1667,147.167 11.8333,145.833 10.5,144.5C 9.25665,142.247 7.58999,140.247 5.5,138.5C 1.26369,127.6 -0.402974,116.267 0.5,104.5C 2.22267,102.22 2.88934,99.5533 2.5,96.5C 3.67373,95.4863 4.3404,94.153 4.5,92.5C 5.67373,91.4863 6.3404,90.153 6.5,88.5C 7.67373,87.4863 8.3404,86.153 8.5,84.5C 9.83039,82.5082 11.1637,80.5082 12.5,78.5C 13.4023,76.6593 14.7356,75.326 16.5,74.5C 17.6737,73.4863 18.3404,72.153 18.5,70.5C 19.6737,69.4863 20.3404,68.153 20.5,66.5C 21.5242,62.4295 23.5242,59.0962 26.5,56.5C 27.8998,54.2426 29.5664,52.2426 31.5,50.5C 32.1667,50.5 32.8333,50.5 33.5,50.5C 34.7853,49.2147 36.1186,47.8814 37.5,46.5C 38.4933,41.8804 38.8266,37.2137 38.5,32.5C 40.2227,30.22 40.8893,27.5533 40.5,24.5C 40.5343,20.3705 41.201,16.3705 42.5,12.5C 44.099,12.7678 45.4324,12.4345 46.5,11.5C 47.5451,10.1224 48.8784,9.12236 50.5,8.5C 52.2227,6.21997 52.8893,3.5533 52.5,0.5C 53.8333,0.5 55.1667,0.5 56.5,0.5 Z"/></g>
<g><path style="opacity:1" fill="#d3c5a3" d="M 60.5,0.5 C 69.41,-0.547945 72.41,3.11872 69.5,11.5C 71.4668,14.2478 73.8002,16.5811 76.5,18.5C 73.839,17.8412 71.5057,16.5078 69.5,14.5C 69.0631,10.8211 68.7298,7.15442 68.5,3.5C 65.3837,3.07994 62.7171,2.07994 60.5,0.5 Z"/></g>
<g><path style="opacity:1" fill="#d6d1cc" d="M 46.5,11.5 C 45.4324,12.4345 44.099,12.7678 42.5,12.5C 41.201,16.3705 40.5343,20.3705 40.5,24.5C 40.1667,24.5 39.8333,24.5 39.5,24.5C 39.4579,20.0309 40.1245,15.6975 41.5,11.5C 43.1667,11.5 44.8333,11.5 46.5,11.5 Z"/></g>
<g><path style="opacity:1" fill="#d2cab7" d="M 78.5,18.5 C 80.0418,19.3007 81.7085,19.634 83.5,19.5C 83.5193,24.1643 81.1859,26.831 76.5,27.5C 76.5,28.5 76.5,29.5 76.5,30.5C 74.2417,30.2249 73.9084,29.2249 75.5,27.5C 78.3674,26.0404 80.7007,24.0404 82.5,21.5C 80.6684,20.9432 79.3351,19.9432 78.5,18.5 Z"/></g>
<g><path style="opacity:1" fill="#d1bd8a" d="M 39.5,24.5 C 39.8333,24.5 40.1667,24.5 40.5,24.5C 40.8893,27.5533 40.2227,30.22 38.5,32.5C 38.5,32.1667 38.5,31.8333 38.5,31.5C 39.2186,29.2362 39.552,26.9029 39.5,24.5 Z"/></g>
<g><path style="opacity:1" fill="#d5d0c4" d="M 80.5,38.5 C 81.7899,39.0577 82.6232,40.0577 83,41.5C 83.4974,44.146 83.6641,46.8127 83.5,49.5C 80.6633,50.5029 77.9967,51.8362 75.5,53.5C 75.5,53.1667 75.5,52.8333 75.5,52.5C 77.4504,50.5346 79.7837,49.2013 82.5,48.5C 82.69,44.9682 82.0233,41.6348 80.5,38.5 Z"/></g>
<g><path style="opacity:1" fill="#d3cbbf" d="M 38.5,31.5 C 38.5,31.8333 38.5,32.1667 38.5,32.5C 38.8266,37.2137 38.4933,41.8804 37.5,46.5C 36.1186,47.8814 34.7853,49.2147 33.5,50.5C 33.679,48.3944 34.679,46.7277 36.5,45.5C 37.1669,40.6833 37.8335,36.0166 38.5,31.5 Z"/></g>
<g><path style="opacity:1" fill="#d0c6ae" d="M 31.5,50.5 C 29.5664,52.2426 27.8998,54.2426 26.5,56.5C 26.3855,53.02 28.0522,51.02 31.5,50.5 Z"/></g>
<g><path style="opacity:1" fill="#d1be8a" d="M 75.5,52.5 C 75.5,52.8333 75.5,53.1667 75.5,53.5C 75.6741,55.861 76.0074,58.1944 76.5,60.5C 74.4162,58.007 74.0829,55.3404 75.5,52.5 Z"/></g>
<g><path style="opacity:1" fill="#d4d1c8" d="M 79.5,65.5 C 80.6935,65.9704 81.3601,66.9704 81.5,68.5C 81.1667,69.5 80.8333,70.5 80.5,71.5C 77.2707,73.2724 74.2707,75.2724 71.5,77.5C 71.5,77.1667 71.5,76.8333 71.5,76.5C 73.7403,74.0343 76.407,72.0343 79.5,70.5C 80.6664,68.8327 80.6664,67.166 79.5,65.5 Z"/></g>
<g><path style="opacity:1" fill="#c6b68b" d="M 20.5,66.5 C 20.3404,68.153 19.6737,69.4863 18.5,70.5C 18.2291,68.6203 18.8958,67.287 20.5,66.5 Z"/></g>
<g><path style="opacity:1" fill="#cec09a" d="M 18.5,70.5 C 18.3404,72.153 17.6737,73.4863 16.5,74.5C 16.2291,72.6203 16.8958,71.287 18.5,70.5 Z"/></g>
<g><path style="opacity:1" fill="#d2be8a" d="M 71.5,76.5 C 71.5,76.8333 71.5,77.1667 71.5,77.5C 71.5079,80.5448 71.8413,83.5448 72.5,86.5C 71.0277,84.8825 70.361,82.8825 70.5,80.5C 70.5108,78.9549 70.8442,77.6216 71.5,76.5 Z"/></g>
<g><path style="opacity:1" fill="#d0c7b2" d="M 12.5,78.5 C 11.1637,80.5082 9.83039,82.5082 8.5,84.5C 8.34692,81.4647 9.68025,79.4647 12.5,78.5 Z"/></g>
<g><path style="opacity:1" fill="#cebf9a" d="M 8.5,84.5 C 8.3404,86.153 7.67373,87.4863 6.5,88.5C 6.22911,86.6203 6.89578,85.287 8.5,84.5 Z"/></g>
<g><path style="opacity:1" fill="#cebf99" d="M 6.5,88.5 C 6.3404,90.153 5.67373,91.4863 4.5,92.5C 4.22911,90.6203 4.89578,89.287 6.5,88.5 Z"/></g>
<g><path style="opacity:1" fill="#cec09b" d="M 4.5,92.5 C 4.3404,94.153 3.67373,95.4863 2.5,96.5C 2.22911,94.6203 2.89578,93.287 4.5,92.5 Z"/></g>
<g><path style="opacity:1" fill="#d1bf94" d="M 2.5,96.5 C 2.88934,99.5533 2.22267,102.22 0.5,104.5C 0.5,104.167 0.5,103.833 0.5,103.5C 0.926675,100.99 1.59334,98.6568 2.5,96.5 Z"/></g>
<g><path style="opacity:1" fill="#d7d2c5" d="M 80.5,102.5 C 81.6407,104.229 83.3074,105.229 85.5,105.5C 88.262,104.543 91.0953,103.876 94,103.5C 99.0138,103.349 102.18,105.683 103.5,110.5C 102.033,114.032 101.366,117.698 101.5,121.5C 104.167,121.5 106.833,121.5 109.5,121.5C 111.01,127.053 112.01,132.72 112.5,138.5C 110.931,133.352 109.598,128.019 108.5,122.5C 105.833,122.5 103.167,122.5 100.5,122.5C 100.137,118.317 100.804,114.317 102.5,110.5C 100.895,106.724 98.0617,104.724 94,104.5C 91.1501,105.096 88.3167,105.763 85.5,106.5C 82.4673,106.693 80.8007,105.359 80.5,102.5 Z"/></g>
<g><path style="opacity:1" fill="#fefefe" d="M -0.5,127.5 C 1.17692,131.26 2.84359,135.26 4.5,139.5C 6.22744,141.567 8.22744,143.233 10.5,144.5C 11.8333,145.833 13.1667,147.167 14.5,148.5C 14.9926,150.806 15.3259,153.139 15.5,155.5C 18.3652,155.965 21.0319,156.965 23.5,158.5C 25.335,159.122 26.5017,160.456 27,162.5C 27.036,168.487 26.8693,174.487 26.5,180.5C 25.7089,188.042 24.7089,195.708 23.5,203.5C 23.8333,205.5 24.1667,207.5 24.5,209.5C 32.5395,215.547 39.8729,222.213 46.5,229.5C 46.9896,232.655 47.6562,235.655 48.5,238.5C 55.0693,237.531 60.4026,239.531 64.5,244.5C 65.4418,257.13 65.7751,269.796 65.5,282.5C 65.2601,285.579 65.5934,288.579 66.5,291.5C 70.1896,295.689 73.6896,300.022 77,304.5C 77.499,308.821 77.6657,313.154 77.5,317.5C 76.176,321.107 75.5093,325.107 75.5,329.5C 75.5093,333.893 76.176,337.893 77.5,341.5C 78.6841,352.322 80.5175,362.989 83,373.5C 83.1691,380.191 83.6691,386.858 84.5,393.5C 85.1835,393.863 85.8501,394.196 86.5,394.5C 86.281,395.675 86.6143,396.675 87.5,397.5C 93.536,401.547 98.8693,406.214 103.5,411.5C 104.024,413.306 104.691,414.972 105.5,416.5C 106.403,423.138 107.07,429.804 107.5,436.5C 107.5,437.833 107.5,439.167 107.5,440.5C 108.134,443.801 110.134,445.801 113.5,446.5C 115.274,447.37 116.607,448.703 117.5,450.5C 116.971,460.635 117.637,470.635 119.5,480.5C 119.16,482.512 118.827,484.512 118.5,486.5C 118.5,487.167 118.5,487.833 118.5,488.5C 116.896,489.287 116.229,490.62 116.5,492.5C 116.443,493.609 116.11,494.609 115.5,495.5C 114.188,497.743 113.522,500.41 113.5,503.5C 113.522,506.59 114.188,509.257 115.5,511.5C 116.705,519.287 116.039,526.954 113.5,534.5C 115.793,542.339 116.793,550.339 116.5,558.5C 116.899,562.011 117.566,565.344 118.5,568.5C 118.5,569.833 118.5,571.167 118.5,572.5C 119.001,577.508 119.668,582.508 120.5,587.5C 121.065,589.544 122.065,591.21 123.5,592.5C 123.833,592.5 124.167,592.5 124.5,592.5C 124.557,596.029 125.557,599.029 127.5,601.5C 128.097,602.139 128.93,602.472 130,602.5C 132.27,601.14 134.77,600.473 137.5,600.5C 146.682,596.739 155.682,592.739 164.5,588.5C 167.567,585.692 171.233,584.025 175.5,583.5C 187.497,577 199.831,571.333 212.5,566.5C 215.689,563.737 219.356,561.737 223.5,560.5C 224.117,560.389 224.617,560.056 225,559.5C 225.229,551.453 225.729,543.453 226.5,535.5C 233.252,532.767 238.919,528.434 243.5,522.5C 247.167,520.5 250.833,518.5 254.5,516.5C 256.461,513.537 258.794,510.871 261.5,508.5C 262.689,507.571 264.022,507.238 265.5,507.5C 265.84,504.856 265.173,502.523 263.5,500.5C 264.617,499.051 265.284,497.384 265.5,495.5C 264.566,491.363 263.232,487.363 261.5,483.5C 262.307,481.02 263.974,479.687 266.5,479.5C 266.5,478.5 266.5,477.5 266.5,476.5C 267.167,476.5 267.5,476.167 267.5,475.5C 269.176,474.817 269.843,473.483 269.5,471.5C 275.369,470.968 281.036,469.968 286.5,468.5C 289.167,467.167 291.833,465.833 294.5,464.5C 295.485,460.366 295.818,456.032 295.5,451.5C 298.161,450.841 300.494,449.508 302.5,447.5C 305.212,449.26 308.212,449.927 311.5,449.5C 312.5,449.5 313.5,449.5 314.5,449.5C 314.5,500.833 314.5,552.167 314.5,603.5C 209.5,603.5 104.5,603.5 -0.5,603.5C -0.5,444.833 -0.5,286.167 -0.5,127.5 Z"/></g>
<g><path style="opacity:1" fill="#d2cabb" d="M -0.5,103.5 C -0.166667,103.5 0.166667,103.5 0.5,103.5C 0.5,103.833 0.5,104.167 0.5,104.5C -0.402974,116.267 1.26369,127.6 5.5,138.5C 7.58999,140.247 9.25665,142.247 10.5,144.5C 8.22744,143.233 6.22744,141.567 4.5,139.5C 2.84359,135.26 1.17692,131.26 -0.5,127.5C -0.5,119.5 -0.5,111.5 -0.5,103.5 Z"/></g>
<g><path style="opacity:1" fill="#d4cbb7" d="M 112.5,138.5 C 114.097,139.09 115.431,140.09 116.5,141.5C 117.304,148.02 117.304,154.353 116.5,160.5C 115.335,159.504 114.668,158.171 114.5,156.5C 117.516,149.963 116.849,143.963 112.5,138.5 Z"/></g>
<g><path style="opacity:1" fill="#d5ccb8" d="M 14.5,148.5 C 16.0739,150.102 16.7406,152.102 16.5,154.5C 19.6393,154.599 21.9726,155.932 23.5,158.5C 21.0319,156.965 18.3652,155.965 15.5,155.5C 15.3259,153.139 14.9926,150.806 14.5,148.5 Z"/></g>
<g><path style="opacity:1" fill="#d4cec1" d="M 120.5,166.5 C 122.132,166.825 123.132,167.825 123.5,169.5C 121.647,173.358 118.647,175.691 114.5,176.5C 117.372,174.643 120.039,172.31 122.5,169.5C 121.388,168.735 120.721,167.735 120.5,166.5 Z"/></g>
<g><path style="opacity:1" fill="#d4ccbb" d="M 114.5,176.5 C 114.499,180.206 116.165,182.539 119.5,183.5C 119.737,184.791 119.404,185.791 118.5,186.5C 116.295,184.481 114.295,182.147 112.5,179.5C 112.942,178.261 113.609,177.261 114.5,176.5 Z"/></g>
<g><path style="opacity:1" fill="#cdbb8e" d="M 118.5,186.5 C 117.167,189.167 117.167,191.833 118.5,194.5C 115.833,191.833 115.833,189.167 118.5,186.5 Z"/></g>
<g><path style="opacity:1" fill="#d7d1c4" d="M 118.5,194.5 C 127.66,199.747 136.993,204.413 146.5,208.5C 136.026,205.93 126.693,201.263 118.5,194.5 Z"/></g>
<g><path style="opacity:1" fill="#d1c7b1" d="M 26.5,180.5 C 26.7872,188.249 26.1205,195.916 24.5,203.5C 24.8333,205.167 25.1667,206.833 25.5,208.5C 30.5338,213.2 35.8671,217.534 41.5,221.5C 43.4312,223.716 45.0979,226.049 46.5,228.5C 46.5,228.833 46.5,229.167 46.5,229.5C 39.8729,222.213 32.5395,215.547 24.5,209.5C 24.1667,207.5 23.8333,205.5 23.5,203.5C 24.7089,195.708 25.7089,188.042 26.5,180.5 Z"/></g>
<g><path style="opacity:1" fill="#d0c098" d="M 151.5,216.5 C 151.5,217.5 151.5,218.5 151.5,219.5C 148.53,219.746 147.197,221.412 147.5,224.5C 146.265,222.983 146.265,221.316 147.5,219.5C 149.007,218.611 150.34,217.611 151.5,216.5 Z"/></g>
<g><path style="opacity:1" fill="#d2be8a" d="M 46.5,228.5 C 47.2216,228.918 47.7216,229.584 48,230.5C 48.4974,233.146 48.6641,235.813 48.5,238.5C 47.6562,235.655 46.9896,232.655 46.5,229.5C 46.5,229.167 46.5,228.833 46.5,228.5 Z"/></g>
<g><path style="opacity:1" fill="#d9d5ce" d="M 164.5,254.5 C 164.5,255.5 164.5,256.5 164.5,257.5C 163.5,257.5 162.5,257.5 161.5,257.5C 161.5,260.5 161.5,263.5 161.5,266.5C 160.521,263.375 160.187,260.042 160.5,256.5C 162.199,256.473 163.533,255.806 164.5,254.5 Z"/></g>
<g><path style="opacity:1" fill="#d3d1ce" d="M 64.5,244.5 C 65.2216,244.918 65.7216,245.584 66,246.5C 66.8263,258.674 66.6597,270.674 65.5,282.5C 65.7751,269.796 65.4418,257.13 64.5,244.5 Z"/></g>
<g><path style="opacity:1" fill="#d8d6d3" d="M 165.5,275.5 C 167.215,280.141 168.215,285.141 168.5,290.5C 166.785,285.859 165.785,280.859 165.5,275.5 Z"/></g>
<g><path style="opacity:1" fill="#cec09a" d="M 168.5,292.5 C 170.104,293.287 170.771,294.62 170.5,296.5C 169.326,295.486 168.66,294.153 168.5,292.5 Z"/></g>
<g><path style="opacity:1" fill="#d7d1c3" d="M 175.5,311.5 C 177.369,313.635 178.036,316.302 177.5,319.5C 180.721,320.641 183.721,322.308 186.5,324.5C 195.377,326.593 204.377,327.926 213.5,328.5C 215.412,330.81 216.412,333.477 216.5,336.5C 215.313,334.174 213.98,331.84 212.5,329.5C 204.775,328.88 197.108,327.88 189.5,326.5C 184.985,324.817 180.651,322.817 176.5,320.5C 176.736,317.391 176.403,314.391 175.5,311.5 Z"/></g>
<g><path style="opacity:1" fill="#cecdc8" d="M 77.5,317.5 C 76.188,325.265 76.188,332.932 77.5,340.5C 77.5,340.833 77.5,341.167 77.5,341.5C 76.176,337.893 75.5093,333.893 75.5,329.5C 75.5093,325.107 76.176,321.107 77.5,317.5 Z"/></g>
<g><path style="opacity:1" fill="#d8d0bf" d="M 216.5,336.5 C 217.729,338.741 219.395,340.741 221.5,342.5C 225.468,343.34 229.135,344.673 232.5,346.5C 228.464,345.777 224.464,344.777 220.5,343.5C 217.854,341.868 216.521,339.535 216.5,336.5 Z"/></g>
<g><path style="opacity:1" fill="#d5ccb8" d="M 274.5,344.5 C 272.134,342.454 269.467,342.121 266.5,343.5C 260.875,347.951 254.542,350.951 247.5,352.5C 245.36,352.444 243.694,351.777 242.5,350.5C 245.463,351.741 248.463,351.741 251.5,350.5C 256.691,348.694 261.357,346.028 265.5,342.5C 268.428,341.516 271.428,341.183 274.5,341.5C 274.5,342.5 274.5,343.5 274.5,344.5 Z"/></g>
<g><path style="opacity:1" fill="#d1c6ac" d="M 77.5,340.5 C 81.417,358.316 84.417,376.316 86.5,394.5C 85.8501,394.196 85.1835,393.863 84.5,393.5C 83.6691,386.858 83.1691,380.191 83,373.5C 80.5175,362.989 78.6841,352.322 77.5,341.5C 77.5,341.167 77.5,340.833 77.5,340.5 Z"/></g>
<g><path style="opacity:1" fill="#cebf99" d="M 274.5,344.5 C 276.104,345.287 276.771,346.62 276.5,348.5C 275.326,347.486 274.66,346.153 274.5,344.5 Z"/></g>
<g><path style="opacity:1" fill="#d3cbb9" d="M 234.5,346.5 C 236.94,347.238 238.94,348.571 240.5,350.5C 237.828,350.052 235.828,348.719 234.5,346.5 Z"/></g>
<g><path style="opacity:1" fill="#c7b68e" d="M 276.5,350.5 C 278.104,351.287 278.771,352.62 278.5,354.5C 277.326,353.486 276.66,352.153 276.5,350.5 Z"/></g>
<g><path style="opacity:1" fill="#cebf99" d="M 278.5,354.5 C 280.104,355.287 280.771,356.62 280.5,358.5C 279.326,357.486 278.66,356.153 278.5,354.5 Z"/></g>
<g><path style="opacity:1" fill="#d0c9b8" d="M 86.5,394.5 C 91.797,398.376 96.797,402.709 101.5,407.5C 102.18,408.86 102.847,410.193 103.5,411.5C 98.8693,406.214 93.536,401.547 87.5,397.5C 86.6143,396.675 86.281,395.675 86.5,394.5 Z"/></g>
<g><path style="opacity:1" fill="#d3ccbb" d="M 284.5,407.5 C 287.077,407.455 289.077,408.455 290.5,410.5C 288.216,409.971 286.216,408.971 284.5,407.5 Z"/></g>
<g><path style="opacity:1" fill="#d6cfc1" d="M 298.5,414.5 C 302.192,416.008 305.525,418.008 308.5,420.5C 304.465,419.49 301.132,417.49 298.5,414.5 Z"/></g>
<g><path style="opacity:1" fill="#d2cab5" d="M 105.5,416.5 C 106.779,420.969 107.779,425.635 108.5,430.5C 108.495,432.696 108.162,434.696 107.5,436.5C 107.07,429.804 106.403,423.138 105.5,416.5 Z"/></g>
<g><path style="opacity:1" fill="#d5ccb8" d="M 309.5,420.5 C 310.097,420.735 310.43,421.235 310.5,422C 310.301,424.448 309.301,426.281 307.5,427.5C 308.319,425.228 308.985,422.894 309.5,420.5 Z"/></g>
<g><path style="opacity:1" fill="#d2c8b3" d="M 302.5,434.5 C 302.579,435.93 302.246,437.264 301.5,438.5C 303.015,440.168 304.682,441.501 306.5,442.5C 305.022,442.762 303.689,442.429 302.5,441.5C 300.019,439.121 300.019,436.787 302.5,434.5 Z"/></g>
<g><path style="opacity:1" fill="#d0c8b4" d="M 107.5,440.5 C 109.551,442.522 111.551,444.522 113.5,446.5C 110.134,445.801 108.134,443.801 107.5,440.5 Z"/></g>
<g><path style="opacity:1" fill="#d4c8aa" d="M 311.5,449.5 C 308.212,449.927 305.212,449.26 302.5,447.5C 300.494,449.508 298.161,450.841 295.5,451.5C 295.818,456.032 295.485,460.366 294.5,464.5C 294.5,459.833 294.5,455.167 294.5,450.5C 297.29,449.537 299.957,448.203 302.5,446.5C 305.535,447.79 308.535,448.79 311.5,449.5 Z"/></g>
<g><path style="opacity:1" fill="#d7d2c6" d="M 286.5,468.5 C 281.036,469.968 275.369,470.968 269.5,471.5C 269.843,473.483 269.176,474.817 267.5,475.5C 268.301,473.958 268.634,472.292 268.5,470.5C 274.465,469.574 280.465,468.908 286.5,468.5 Z"/></g>
<g><path style="opacity:1" fill="#d1c4a4" d="M 117.5,450.5 C 118.004,460.445 119.004,470.445 120.5,480.5C 120.639,482.883 119.972,484.883 118.5,486.5C 118.827,484.512 119.16,482.512 119.5,480.5C 117.637,470.635 116.971,460.635 117.5,450.5 Z"/></g>
<g><path style="opacity:1" fill="#c6b68c" d="M 118.5,488.5 C 118.34,490.153 117.674,491.486 116.5,492.5C 116.229,490.62 116.896,489.287 118.5,488.5 Z"/></g>
<g><path style="opacity:1" fill="#cdccc7" d="M 115.5,495.5 C 114.167,500.833 114.167,506.167 115.5,511.5C 114.188,509.257 113.522,506.59 113.5,503.5C 113.522,500.41 114.188,497.743 115.5,495.5 Z"/></g>
<g><path style="opacity:1" fill="#d1caba" d="M 266.5,476.5 C 266.5,477.5 266.5,478.5 266.5,479.5C 263.974,479.687 262.307,481.02 261.5,483.5C 263.232,487.363 264.566,491.363 265.5,495.5C 265.284,497.384 264.617,499.051 263.5,500.5C 265.173,502.523 265.84,504.856 265.5,507.5C 264.022,507.238 262.689,507.571 261.5,508.5C 258.794,510.871 256.461,513.537 254.5,516.5C 250.833,518.5 247.167,520.5 243.5,522.5C 238.919,528.434 233.252,532.767 226.5,535.5C 226.5,535.167 226.5,534.833 226.5,534.5C 228.866,532.491 231.532,530.824 234.5,529.5C 239.573,523.129 245.907,518.463 253.5,515.5C 255.461,512.537 257.794,509.871 260.5,507.5C 261.689,506.571 263.022,506.238 264.5,506.5C 264.421,504.334 263.754,502.334 262.5,500.5C 263.362,498.913 264.029,497.246 264.5,495.5C 263.167,491.5 261.833,487.5 260.5,483.5C 261.509,480.28 263.509,477.947 266.5,476.5 Z"/></g>
<g><path style="opacity:1" fill="#d4c190" d="M 226.5,534.5 C 226.5,534.833 226.5,535.167 226.5,535.5C 225.729,543.453 225.229,551.453 225,559.5C 224.617,560.056 224.117,560.389 223.5,560.5C 224.271,552.547 224.771,544.547 225,536.5C 225.278,535.584 225.778,534.918 226.5,534.5 Z"/></g>
<g><path style="opacity:1" fill="#d5c08e" d="M 116.5,558.5 C 117.222,558.918 117.722,559.584 118,560.5C 118.497,563.146 118.664,565.813 118.5,568.5C 117.566,565.344 116.899,562.011 116.5,558.5 Z"/></g>
<g><path style="opacity:1" fill="#d6d0c3" d="M 212.5,566.5 C 199.831,571.333 187.497,577 175.5,583.5C 183.76,578.891 192.093,574.224 200.5,569.5C 204.371,567.874 208.371,566.874 212.5,566.5 Z"/></g>
<g><path style="opacity:1" fill="#cec6b1" d="M 118.5,572.5 C 119.942,579.088 121.609,585.754 123.5,592.5C 122.065,591.21 121.065,589.544 120.5,587.5C 119.668,582.508 119.001,577.508 118.5,572.5 Z"/></g>
<g><path style="opacity:1" fill="#d6cebe" d="M 164.5,588.5 C 155.682,592.739 146.682,596.739 137.5,600.5C 144.192,596.65 151.192,592.983 158.5,589.5C 160.396,588.534 162.396,588.201 164.5,588.5 Z"/></g>
<g><path style="opacity:1" fill="#cfc7b4" d="M 124.5,592.5 C 126.025,595.238 127.025,598.238 127.5,601.5C 125.557,599.029 124.557,596.029 124.5,592.5 Z"/></g>
</svg>
