<?xml version="1.0" encoding="UTF-8"?>
<!DOCTYPE svg PUBLIC "-//W3C//DTD SVG 1.1//EN" "http://www.w3.org/Graphics/SVG/1.1/DTD/svg11.dtd">
<svg xmlns="http://www.w3.org/2000/svg" version="1.1" width="388px" height="406px" style="shape-rendering:geometricPrecision; text-rendering:geometricPrecision; image-rendering:optimizeQuality; fill-rule:evenodd; clip-rule:evenodd" xmlns:xlink="http://www.w3.org/1999/xlink">
<g><path style="opacity:1" fill="#fefefe" d="M -0.5,-0.5 C 128.833,-0.5 258.167,-0.5 387.5,-0.5C 387.5,108.5 387.5,217.5 387.5,326.5C 385.881,324.881 384.215,323.215 382.5,321.5C 378.5,320.833 374.5,320.167 370.5,319.5C 369.035,314.901 367.702,310.234 366.5,305.5C 358.872,299.707 351.706,293.373 345,286.5C 346.206,276.677 346.706,266.677 346.5,256.5C 347.434,253.344 348.101,250.011 348.5,246.5C 348.799,244.396 348.466,242.396 347.5,240.5C 344.167,238.034 341.167,235.367 338.5,232.5C 337.325,227.99 334.658,224.656 330.5,222.5C 329.257,220.247 327.59,218.247 325.5,216.5C 324.41,213.122 323.41,209.789 322.5,206.5C 321.223,197.79 321.223,189.124 322.5,180.5C 325.195,167.979 331.028,156.979 340,147.5C 340.483,146.552 340.649,145.552 340.5,144.5C 342.104,143.713 342.771,142.38 342.5,140.5C 342.877,138.742 343.544,137.075 344.5,135.5C 348.959,130.699 353.625,126.366 358.5,122.5C 359.216,117.936 359.883,113.269 360.5,108.5C 360.5,106.5 360.5,104.5 360.5,102.5C 361.434,99.3443 362.101,96.0109 362.5,92.5C 364.8,89.1614 367.8,86.4948 371.5,84.5C 373.254,78.5772 372.254,73.2438 368.5,68.5C 368.237,64.6535 366.903,61.3202 364.5,58.5C 361.631,52.873 359.631,46.873 358.5,40.5C 355.778,35.7991 353.111,31.1324 350.5,26.5C 346.5,21.1667 341.833,16.5 336.5,12.5C 334.036,7.76675 330.703,3.76675 326.5,0.5C 324.028,1.9917 321.361,2.65836 318.5,2.5C 316.302,2.87513 314.302,3.5418 312.5,4.5C 311.833,4.5 311.167,4.5 310.5,4.5C 305.731,5.1171 301.064,5.78377 296.5,6.5C 294.5,7.16667 292.5,7.83333 290.5,8.5C 287.833,8.5 285.167,8.5 282.5,8.5C 279.72,9.07841 277.053,9.74508 274.5,10.5C 272.5,10.5 270.5,10.5 268.5,10.5C 265.67,10.9628 263.003,11.6295 260.5,12.5C 257.833,12.5 255.167,12.5 252.5,12.5C 249.72,13.0784 247.053,13.7451 244.5,14.5C 242.508,14.3285 240.842,14.9951 239.5,16.5C 224.167,44.5 208.833,72.5 193.5,100.5C 182.763,111.573 171.763,122.239 160.5,132.5C 156.407,134.922 153.407,138.256 151.5,142.5C 142.572,149.755 133.905,157.422 125.5,165.5C 84.9276,179.743 44.5942,194.243 4.5,209C 5.08557,215.541 4.4189,222.041 2.5,228.5C 1.68729,230.261 0.687286,231.928 -0.5,233.5C -0.5,155.5 -0.5,77.5 -0.5,-0.5 Z"/></g>
<g><path style="opacity:1" fill="#7cb440" d="M 336.5,12.5 C 340.5,17.8333 345.167,22.5 350.5,26.5C 353.111,31.1324 355.778,35.7991 358.5,40.5C 359.631,46.873 361.631,52.873 364.5,58.5C 365.311,62.1103 366.644,65.4437 368.5,68.5C 372.254,73.2438 373.254,78.5772 371.5,84.5C 367.8,86.4948 364.8,89.1614 362.5,92.5C 361.778,92.9175 361.278,93.5842 361,94.5C 360.503,97.146 360.336,99.8127 360.5,102.5C 360.5,104.5 360.5,106.5 360.5,108.5C 358.564,112.715 357.897,117.381 358.5,122.5C 353.625,126.366 348.959,130.699 344.5,135.5C 343.544,137.075 342.877,138.742 342.5,140.5C 341.326,141.514 340.66,142.847 340.5,144.5C 340.649,145.552 340.483,146.552 340,147.5C 331.028,156.979 325.195,167.979 322.5,180.5C 321.176,184.107 320.509,188.107 320.5,192.5C 320.667,196.5 320.833,200.5 321,204.5C 321.278,205.416 321.778,206.082 322.5,206.5C 323.41,209.789 324.41,213.122 325.5,216.5C 327.59,218.247 329.257,220.247 330.5,222.5C 333.227,225.882 335.894,229.215 338.5,232.5C 341.167,235.367 344.167,238.034 347.5,240.5C 348.466,242.396 348.799,244.396 348.5,246.5C 347.778,246.918 347.278,247.584 347,248.5C 346.503,251.146 346.336,253.813 346.5,256.5C 346.706,266.677 346.206,276.677 345,286.5C 351.706,293.373 358.872,299.707 366.5,305.5C 367.702,310.234 369.035,314.901 370.5,319.5C 374.5,320.167 378.5,320.833 382.5,321.5C 384.215,323.215 385.881,324.881 387.5,326.5C 387.5,332.5 387.5,338.5 387.5,344.5C 382.047,348.91 376.047,352.576 369.5,355.5C 344.68,359.553 319.68,361.22 294.5,360.5C 289.381,359.897 284.715,360.564 280.5,362.5C 271.833,362.5 263.167,362.5 254.5,362.5C 251.302,361.964 248.635,362.631 246.5,364.5C 240.074,363.88 234.074,364.547 228.5,366.5C 220.24,366.492 212.24,367.492 204.5,369.5C 204.5,369.833 204.5,370.167 204.5,370.5C 198.23,370.624 192.23,371.624 186.5,373.5C 179.106,375.005 171.606,376.672 164,378.5C 143.857,386.49 124.024,394.49 104.5,402.5C 98.7514,402.402 93.0847,403.069 87.5,404.5C 85.8333,404.167 84.1667,403.833 82.5,403.5C 81.0687,400.453 79.7354,397.453 78.5,394.5C 75.5655,390.725 72.3988,387.058 69,383.5C 68.4436,381.115 68.6103,378.782 69.5,376.5C 72.1995,374.135 74.5328,371.468 76.5,368.5C 78.9163,366.295 78.9163,364.295 76.5,362.5C 75.3702,360.685 74.7036,358.685 74.5,356.5C 73.3159,353.536 73.3159,350.536 74.5,347.5C 74.3601,345.97 73.6935,344.97 72.5,344.5C 66.5266,339.39 59.6933,335.723 52,333.5C 49.6194,334.435 47.1194,334.768 44.5,334.5C 44.5,333.167 44.5,331.833 44.5,330.5C 46.5,329.833 48.5,329.167 50.5,328.5C 52.8261,319.27 53.1594,309.937 51.5,300.5C 52.1633,298.359 52.4966,296.025 52.5,293.5C 52.4714,290.731 51.8048,288.397 50.5,286.5C 49.3461,284.03 47.3461,282.696 44.5,282.5C 40.5677,283.606 36.901,285.272 33.5,287.5C 30.8333,288.833 28.1667,288.833 25.5,287.5C 25.1667,286.833 24.8333,286.167 24.5,285.5C 27.5605,280.796 30.8939,276.463 34.5,272.5C 37.1667,269.833 37.1667,267.167 34.5,264.5C 33.2632,263.035 32.2632,261.368 31.5,259.5C 30.5666,255.955 28.8999,252.955 26.5,250.5C 26.0248,246.691 24.0248,244.025 20.5,242.5C 19.0821,240.692 17.0821,240.025 14.5,240.5C 11.1737,240.354 8.00702,241.021 5,242.5C 3.05841,242.041 1.55841,241.041 0.5,239.5C 0.870005,235.767 1.53667,232.101 2.5,228.5C 4.4189,222.041 5.08557,215.541 4.5,209C 44.5942,194.243 84.9276,179.743 125.5,165.5C 133.905,157.422 142.572,149.755 151.5,142.5C 154.864,139.471 157.864,136.137 160.5,132.5C 171.763,122.239 182.763,111.573 193.5,100.5C 208.833,72.5 224.167,44.5 239.5,16.5C 240.842,14.9951 242.508,14.3285 244.5,14.5C 247.698,15.0356 250.365,14.369 252.5,12.5C 255.167,12.5 257.833,12.5 260.5,12.5C 263.698,13.0356 266.365,12.369 268.5,10.5C 270.5,10.5 272.5,10.5 274.5,10.5C 277.698,11.0356 280.365,10.369 282.5,8.5C 285.167,8.5 287.833,8.5 290.5,8.5C 293.698,9.03562 296.365,8.36895 298.5,6.5C 302.971,7.08943 306.971,6.42277 310.5,4.5C 311.167,4.5 311.833,4.5 312.5,4.5C 315.082,4.97461 317.082,4.30794 318.5,2.5C 321.361,2.65836 324.028,1.9917 326.5,0.5C 330.703,3.76675 334.036,7.76675 336.5,12.5 Z"/></g>
<g><path style="opacity:1" fill="#92b170" d="M 318.5,2.5 C 317.082,4.30794 315.082,4.97461 312.5,4.5C 314.302,3.5418 316.302,2.87513 318.5,2.5 Z"/></g>
<g><path style="opacity:1" fill="#ccd3c5" d="M 310.5,4.5 C 306.971,6.42277 302.971,7.08943 298.5,6.5C 297.833,6.5 297.167,6.5 296.5,6.5C 301.064,5.78377 305.731,5.1171 310.5,4.5 Z"/></g>
<g><path style="opacity:1" fill="#8eb06c" d="M 296.5,6.5 C 297.167,6.5 297.833,6.5 298.5,6.5C 296.365,8.36895 293.698,9.03562 290.5,8.5C 292.5,7.83333 294.5,7.16667 296.5,6.5 Z"/></g>
<g><path style="opacity:1" fill="#a3b88c" d="M 282.5,8.5 C 280.365,10.369 277.698,11.0356 274.5,10.5C 277.053,9.74508 279.72,9.07841 282.5,8.5 Z"/></g>
<g><path style="opacity:1" fill="#91b26c" d="M 268.5,10.5 C 266.365,12.369 263.698,13.0356 260.5,12.5C 263.003,11.6295 265.67,10.9628 268.5,10.5 Z"/></g>
<g><path style="opacity:1" fill="#a3b98c" d="M 252.5,12.5 C 250.365,14.369 247.698,15.0356 244.5,14.5C 247.053,13.7451 249.72,13.0784 252.5,12.5 Z"/></g>
<g><path style="opacity:1" fill="#c3cbbc" d="M 336.5,12.5 C 341.833,16.5 346.5,21.1667 350.5,26.5C 345.167,22.5 340.5,17.8333 336.5,12.5 Z"/></g>
<g><path style="opacity:1" fill="#b3c2a3" d="M 364.5,58.5 C 366.903,61.3202 368.237,64.6535 368.5,68.5C 366.644,65.4437 365.311,62.1103 364.5,58.5 Z"/></g>
<g><path style="opacity:1" fill="#96b07a" d="M 362.5,92.5 C 362.101,96.0109 361.434,99.3443 360.5,102.5C 360.336,99.8127 360.503,97.146 361,94.5C 361.278,93.5842 361.778,92.9175 362.5,92.5 Z"/></g>
<g><path style="opacity:1" fill="#90b270" d="M 360.5,108.5 C 359.883,113.269 359.216,117.936 358.5,122.5C 357.897,117.381 358.564,112.715 360.5,108.5 Z"/></g>
<g><path style="opacity:1" fill="#c2cabb" d="M 160.5,132.5 C 157.864,136.137 154.864,139.471 151.5,142.5C 153.407,138.256 156.407,134.922 160.5,132.5 Z"/></g>
<g><path style="opacity:1" fill="#a3b392" d="M 342.5,140.5 C 342.771,142.38 342.104,143.713 340.5,144.5C 340.66,142.847 341.326,141.514 342.5,140.5 Z"/></g>
<g><path style="opacity:1" fill="#94b275" d="M 322.5,180.5 C 321.223,189.124 321.223,197.79 322.5,206.5C 321.778,206.082 321.278,205.416 321,204.5C 320.833,200.5 320.667,196.5 320.5,192.5C 320.509,188.107 321.176,184.107 322.5,180.5 Z"/></g>
<g><path style="opacity:1" fill="#c6cdc0" d="M 330.5,222.5 C 334.658,224.656 337.325,227.99 338.5,232.5C 335.894,229.215 333.227,225.882 330.5,222.5 Z"/></g>
<g><path style="opacity:1" fill="#b1bda3" d="M 2.5,228.5 C 1.53667,232.101 0.870005,235.767 0.5,239.5C 0.166667,239.5 -0.166667,239.5 -0.5,239.5C -0.5,237.5 -0.5,235.5 -0.5,233.5C 0.687286,231.928 1.68729,230.261 2.5,228.5 Z"/></g>
<g><path style="opacity:1" fill="#fefefe" d="M -0.5,239.5 C -0.166667,239.5 0.166667,239.5 0.5,239.5C 1.55841,241.041 3.05841,242.041 5,242.5C 8.00702,241.021 11.1737,240.354 14.5,240.5C 16.3736,241.285 18.3736,241.952 20.5,242.5C 24.0248,244.025 26.0248,246.691 26.5,250.5C 27.4334,254.045 29.1001,257.045 31.5,259.5C 32.2632,261.368 33.2632,263.035 34.5,264.5C 35.8333,267.167 35.8333,269.833 34.5,272.5C 30.8939,276.463 27.5605,280.796 24.5,285.5C 24.8333,286.167 25.1667,286.833 25.5,287.5C 28.1667,288.833 30.8333,288.833 33.5,287.5C 36.901,285.272 40.5677,283.606 44.5,282.5C 47.3461,282.696 49.3461,284.03 50.5,286.5C 51.441,291.07 51.7744,295.737 51.5,300.5C 53.1594,309.937 52.8261,319.27 50.5,328.5C 48.5,329.167 46.5,329.833 44.5,330.5C 44.5,331.833 44.5,333.167 44.5,334.5C 47.1194,334.768 49.6194,334.435 52,333.5C 59.6933,335.723 66.5266,339.39 72.5,344.5C 73.5369,347.09 73.5369,349.757 72.5,352.5C 72.3402,354.355 73.0069,355.688 74.5,356.5C 74.7036,358.685 75.3702,360.685 76.5,362.5C 77.562,364.099 77.562,365.766 76.5,367.5C 73.3912,369.937 71.0579,372.937 69.5,376.5C 68.6103,378.782 68.4436,381.115 69,383.5C 72.3988,387.058 75.5655,390.725 78.5,394.5C 78.7597,398.424 79.7597,402.091 81.5,405.5C 54.1667,405.5 26.8333,405.5 -0.5,405.5C -0.5,350.167 -0.5,294.833 -0.5,239.5 Z"/></g>
<g><path style="opacity:1" fill="#a2b98b" d="M 14.5,240.5 C 17.0821,240.025 19.0821,240.692 20.5,242.5C 18.3736,241.952 16.3736,241.285 14.5,240.5 Z"/></g>
<g><path style="opacity:1" fill="#8eaf6e" d="M 348.5,246.5 C 348.101,250.011 347.434,253.344 346.5,256.5C 346.336,253.813 346.503,251.146 347,248.5C 347.278,247.584 347.778,246.918 348.5,246.5 Z"/></g>
<g><path style="opacity:1" fill="#b8c1ad" d="M 26.5,250.5 C 28.8999,252.955 30.5666,255.955 31.5,259.5C 29.1001,257.045 27.4334,254.045 26.5,250.5 Z"/></g>
<g><path style="opacity:1" fill="#8dab6e" d="M 34.5,264.5 C 37.1667,267.167 37.1667,269.833 34.5,272.5C 35.8333,269.833 35.8333,267.167 34.5,264.5 Z"/></g>
<g><path style="opacity:1" fill="#c2c6bc" d="M 50.5,286.5 C 51.8048,288.397 52.4714,290.731 52.5,293.5C 52.4966,296.025 52.1633,298.359 51.5,300.5C 51.7744,295.737 51.441,291.07 50.5,286.5 Z"/></g>
<g><path style="opacity:1" fill="#fefefe" d="M 387.5,344.5 C 387.5,364.833 387.5,385.167 387.5,405.5C 289.5,405.5 191.5,405.5 93.5,405.5C 96.8909,403.875 100.558,402.875 104.5,402.5C 124.024,394.49 143.857,386.49 164,378.5C 171.606,376.672 179.106,375.005 186.5,373.5C 192.725,373.11 198.725,372.11 204.5,370.5C 204.5,370.167 204.5,369.833 204.5,369.5C 212.687,368.929 220.687,367.929 228.5,366.5C 234.074,364.547 240.074,363.88 246.5,364.5C 249.28,363.922 251.947,363.255 254.5,362.5C 263.167,362.5 271.833,362.5 280.5,362.5C 285.269,361.883 289.936,361.216 294.5,360.5C 319.68,361.22 344.68,359.553 369.5,355.5C 376.047,352.576 382.047,348.91 387.5,344.5 Z"/></g>
<g><path style="opacity:1" fill="#94b076" d="M 72.5,344.5 C 73.6935,344.97 74.3601,345.97 74.5,347.5C 73.3159,350.536 73.3159,353.536 74.5,356.5C 73.0069,355.688 72.3402,354.355 72.5,352.5C 73.5369,349.757 73.5369,347.09 72.5,344.5 Z"/></g>
<g><path style="opacity:1" fill="#a4ba8d" d="M 294.5,360.5 C 289.936,361.216 285.269,361.883 280.5,362.5C 284.715,360.564 289.381,359.897 294.5,360.5 Z"/></g>
<g><path style="opacity:1" fill="#a4ba8d" d="M 254.5,362.5 C 251.947,363.255 249.28,363.922 246.5,364.5C 248.635,362.631 251.302,361.964 254.5,362.5 Z"/></g>
<g><path style="opacity:1" fill="#96b079" d="M 76.5,362.5 C 78.9163,364.295 78.9163,366.295 76.5,368.5C 76.5,368.167 76.5,367.833 76.5,367.5C 77.562,365.766 77.562,364.099 76.5,362.5 Z"/></g>
<g><path style="opacity:1" fill="#ced4c7" d="M 228.5,366.5 C 220.687,367.929 212.687,368.929 204.5,369.5C 212.24,367.492 220.24,366.492 228.5,366.5 Z"/></g>
<g><path style="opacity:1" fill="#ccd3c4" d="M 204.5,370.5 C 198.725,372.11 192.725,373.11 186.5,373.5C 192.23,371.624 198.23,370.624 204.5,370.5 Z"/></g>
<g><path style="opacity:1" fill="#c1c8ba" d="M 76.5,367.5 C 76.5,367.833 76.5,368.167 76.5,368.5C 74.5328,371.468 72.1995,374.135 69.5,376.5C 71.0579,372.937 73.3912,369.937 76.5,367.5 Z"/></g>
<g><path style="opacity:1" fill="#c6cebd" d="M 78.5,394.5 C 79.7354,397.453 81.0687,400.453 82.5,403.5C 84.1667,403.833 85.8333,404.167 87.5,404.5C 93.0847,403.069 98.7514,402.402 104.5,402.5C 100.558,402.875 96.8909,403.875 93.5,405.5C 89.5,405.5 85.5,405.5 81.5,405.5C 79.7597,402.091 78.7597,398.424 78.5,394.5 Z"/></g>
</svg>
