<?xml version="1.0" encoding="UTF-8"?>
<!DOCTYPE svg PUBLIC "-//W3C//DTD SVG 1.1//EN" "http://www.w3.org/Graphics/SVG/1.1/DTD/svg11.dtd">
<svg xmlns="http://www.w3.org/2000/svg" version="1.1" width="766px" height="812px" style="shape-rendering:geometricPrecision; text-rendering:geometricPrecision; image-rendering:optimizeQuality; fill-rule:evenodd; clip-rule:evenodd" xmlns:xlink="http://www.w3.org/1999/xlink">
<g><path style="opacity:1" fill="#fcfcfc" d="M -0.5,-0.5 C 57.8333,-0.5 116.167,-0.5 174.5,-0.5C 166.048,1.15546 157.381,2.15546 148.5,2.5C 144.5,3.16667 140.5,3.83333 136.5,4.5C 132.167,4.5 127.833,4.5 123.5,4.5C 118.731,5.1171 114.064,5.78377 109.5,6.5C 105.167,6.5 100.833,6.5 96.5,6.5C 92.0268,7.05065 87.6934,7.71731 83.5,8.5C 79.8333,8.5 76.1667,8.5 72.5,8.5C 69.3447,8.98956 66.3447,9.65622 63.5,10.5C 60.8333,10.5 58.1667,10.5 55.5,10.5C 52.3112,10.8583 49.3112,11.525 46.5,12.5C 43.5,12.5 40.5,12.5 37.5,12.5C 34.3896,13.0885 31.3896,13.7552 28.5,14.5C 25.5,14.5 22.5,14.5 19.5,14.5C 16.7196,15.0784 14.0529,15.7451 11.5,16.5C 7.83333,16.5 4.16667,16.5 0.5,16.5C 0.166667,16.5 -0.166667,16.5 -0.5,16.5C -0.5,10.8333 -0.5,5.16667 -0.5,-0.5 Z"/></g>
<g><path style="opacity:1" fill="#fefefe" d="M 196.5,-0.5 C 386.167,-0.5 575.833,-0.5 765.5,-0.5C 765.5,257.5 765.5,515.5 765.5,773.5C 762.66,772.759 760.66,771.092 759.5,768.5C 758.87,766.25 757.87,764.25 756.5,762.5C 755.539,760.735 755.205,758.735 755.5,756.5C 755.405,754.214 754.738,752.214 753.5,750.5C 751.488,747.795 749.488,745.128 747.5,742.5C 747.196,741.85 746.863,741.183 746.5,740.5C 749.982,730.565 748.982,721.232 743.5,712.5C 743.405,710.214 742.738,708.214 741.5,706.5C 741.011,705.005 740.345,703.671 739.5,702.5C 737.335,697.669 733.669,694.669 728.5,693.5C 728.737,692.209 728.404,691.209 727.5,690.5C 726.215,683.063 724.881,675.729 723.5,668.5C 722.952,666.374 722.285,664.374 721.5,662.5C 721.706,659.505 721.04,656.838 719.5,654.5C 714.167,647.833 708.167,641.833 701.5,636.5C 699.5,635.833 698.167,634.5 697.5,632.5C 694.783,630.124 691.783,628.124 688.5,626.5C 687.662,626.158 687.328,625.492 687.5,624.5C 685.488,621.795 683.488,619.128 681.5,616.5C 680.14,614.46 678.807,612.46 677.5,610.5C 675.988,606.799 673.988,603.466 671.5,600.5C 668.817,596.454 666.15,592.454 663.5,588.5C 662.14,586.46 660.807,584.46 659.5,582.5C 654.801,573.101 650.134,563.768 645.5,554.5C 645.267,551.458 644.267,548.792 642.5,546.5C 641.539,544.735 641.205,542.735 641.5,540.5C 639.628,533.965 635.628,529.298 629.5,526.5C 627.54,525.193 625.54,523.86 623.5,522.5C 616.041,517.599 608.374,512.932 600.5,508.5C 599.662,508.158 599.328,507.492 599.5,506.5C 597.435,504.784 595.102,503.451 592.5,502.5C 591.662,502.158 591.328,501.492 591.5,500.5C 589.064,498.984 587.064,496.984 585.5,494.5C 584.167,494.5 583.5,493.833 583.5,492.5C 582.14,490.46 580.807,488.46 579.5,486.5C 579.011,485.005 578.345,483.671 577.5,482.5C 576.933,480.97 576.267,479.47 575.5,478C 568.244,476.043 560.91,474.543 553.5,473.5C 552.833,473.167 552.167,472.833 551.5,472.5C 548.54,470.604 545.207,469.604 541.5,469.5C 540.833,469.5 540.167,469.5 539.5,469.5C 536.763,469.599 534.096,469.265 531.5,468.5C 530.833,468.5 530.167,468.5 529.5,468.5C 529.106,466.29 527.773,464.957 525.5,464.5C 521.149,460.709 516.149,458.042 510.5,456.5C 508.626,455.715 506.626,455.048 504.5,454.5C 504.167,454.5 503.833,454.5 503.5,454.5C 501.972,453.691 500.306,453.024 498.5,452.5C 498.167,452.5 497.833,452.5 497.5,452.5C 492.903,450.998 489.236,448.164 486.5,444C 485.667,438.509 484.834,433.009 484,427.5C 483.623,426.058 482.79,425.058 481.5,424.5C 480.167,424.5 479.5,423.833 479.5,422.5C 477.985,418.79 475.985,415.456 473.5,412.5C 470.713,411.523 467.713,411.19 464.5,411.5C 464.737,410.209 464.404,409.209 463.5,408.5C 463.011,407.005 462.345,405.671 461.5,404.5C 460.718,402.549 459.384,401.049 457.5,400C 454.413,399.741 451.413,399.241 448.5,398.5C 446.358,396.235 444.691,393.568 443.5,390.5C 442.643,389.575 441.643,388.908 440.5,388.5C 437.162,388.935 434.162,388.268 431.5,386.5C 428.656,385.69 425.99,384.356 423.5,382.5C 420.323,380.32 416.989,378.32 413.5,376.5C 412.649,374.118 411.316,372.118 409.5,370.5C 408.833,370.5 408.167,370.5 407.5,370.5C 406.128,367.466 403.794,365.466 400.5,364.5C 399.662,364.158 399.328,363.492 399.5,362.5C 399.196,361.85 398.863,361.183 398.5,360.5C 394.328,358.795 390.328,356.795 386.5,354.5C 385.377,351.202 385.377,347.869 386.5,344.5C 386.38,342.412 385.38,341.078 383.5,340.5C 381.5,339.833 380.167,338.5 379.5,336.5C 378.167,334.5 378.167,332.5 379.5,330.5C 380.345,329.329 381.011,327.995 381.5,326.5C 382.79,325.942 383.623,324.942 384,323.5C 384.658,321.2 385.158,318.867 385.5,316.5C 385.38,314.412 384.38,313.078 382.5,312.5C 382.167,312.5 381.833,312.5 381.5,312.5C 379.54,311.193 377.54,309.86 375.5,308.5C 374.264,301.044 372.931,293.711 371.5,286.5C 368.196,279.952 366.696,272.952 367,265.5C 366.303,263.416 365.136,261.749 363.5,260.5C 362.649,258.118 361.316,256.118 359.5,254.5C 357.488,251.795 355.488,249.128 353.5,246.5C 352.833,246.5 352.167,246.5 351.5,246.5C 351.719,245.325 351.386,244.325 350.5,243.5C 347.965,241.463 345.298,239.63 342.5,238C 336.651,237.182 330.985,237.348 325.5,238.5C 324.167,238.5 322.833,238.5 321.5,238.5C 316.833,239.833 312.167,239.833 307.5,238.5C 304.656,237.69 301.99,236.356 299.5,234.5C 297.5,233.167 295.5,231.833 293.5,230.5C 292.192,228.503 290.859,226.503 289.5,224.5C 288.14,222.46 286.807,220.46 285.5,218.5C 284.115,214.424 282.781,210.424 281.5,206.5C 280.765,198.928 279.432,191.595 277.5,184.5C 276.54,179.914 274.54,175.914 271.5,172.5C 262.167,164.5 253.5,155.833 245.5,146.5C 244.226,144.007 243.56,141.341 243.5,138.5C 245.868,135.789 247.868,132.789 249.5,129.5C 248.941,126.056 247.607,123.056 245.5,120.5C 245.011,119.005 244.345,117.671 243.5,116.5C 240.833,111.833 240.833,107.167 243.5,102.5C 247.181,98.1413 250.514,93.4746 253.5,88.5C 254.713,87.0476 254.38,85.7143 252.5,84.5C 250.05,82.7132 247.384,81.3798 244.5,80.5C 244.167,80.5 243.833,80.5 243.5,80.5C 242.192,78.5034 240.859,76.5034 239.5,74.5C 236.833,73.1667 234.833,71.1667 233.5,68.5C 233.011,67.0048 232.345,65.6715 231.5,64.5C 231.011,63.0048 230.345,61.6715 229.5,60.5C 229.011,59.0048 228.345,57.6715 227.5,56.5C 227.011,55.0048 226.345,53.6715 225.5,52.5C 223.584,47.9327 220.918,43.9327 217.5,40.5C 214.833,39.1667 212.833,37.1667 211.5,34.5C 209.56,31.3041 208.226,27.9708 207.5,24.5C 206.711,17.9749 204.711,11.9749 201.5,6.5C 199.808,4.14851 198.142,1.81518 196.5,-0.5 Z"/></g>
<g><path style="opacity:1" fill="#c28673" d="M 201.5,6.5 C 203.205,12.6783 205.205,18.6783 207.5,24.5C 206.749,28.854 208.083,32.1873 211.5,34.5C 212.833,37.1667 214.833,39.1667 217.5,40.5C 217.877,42.258 218.544,43.9246 219.5,45.5C 221.299,48.163 223.299,50.4963 225.5,52.5C 225.157,54.4832 225.824,55.8166 227.5,56.5C 227.157,58.4832 227.824,59.8166 229.5,60.5C 229.157,62.4832 229.824,63.8166 231.5,64.5C 231.157,66.4832 231.824,67.8166 233.5,68.5C 234.833,71.1667 236.833,73.1667 239.5,74.5C 239.354,77.5539 240.687,79.5539 243.5,80.5C 243.833,80.5 244.167,80.5 244.5,80.5C 247.704,82.9356 250.704,85.6023 253.5,88.5C 250.543,90.1238 248.209,92.4571 246.5,95.5C 244.666,97.4983 243.666,99.8316 243.5,102.5C 242.414,102.62 241.747,103.287 241.5,104.5C 240.167,107.833 240.167,111.167 241.5,114.5C 241.747,115.713 242.414,116.38 243.5,116.5C 243.157,118.483 243.824,119.817 245.5,120.5C 246.195,123.567 247.195,126.567 248.5,129.5C 246.776,131.875 245.11,134.208 243.5,136.5C 240.662,140.489 241.329,143.822 245.5,146.5C 253.5,155.833 262.167,164.5 271.5,172.5C 272.992,176.818 274.992,180.818 277.5,184.5C 277.912,192.118 279.245,199.451 281.5,206.5C 281.224,211.23 282.558,215.23 285.5,218.5C 285.354,221.554 286.687,223.554 289.5,224.5C 289.354,227.554 290.687,229.554 293.5,230.5C 295.5,231.833 297.5,233.167 299.5,234.5C 300.446,237.313 302.446,238.646 305.5,238.5C 307.743,239.812 310.41,240.478 313.5,240.5C 316.59,240.478 319.257,239.812 321.5,238.5C 322.833,238.5 324.167,238.5 325.5,238.5C 335.681,236.829 344.348,239.496 351.5,246.5C 352.167,246.5 352.833,246.5 353.5,246.5C 354.066,250.32 356.066,252.987 359.5,254.5C 359.87,257.267 361.204,259.267 363.5,260.5C 365.98,266.181 367.147,272.181 367,278.5C 368.21,281.541 369.71,284.208 371.5,286.5C 372.141,292.477 372.641,298.477 373,304.5C 373.122,306.437 373.955,307.77 375.5,308.5C 376.446,311.313 378.446,312.646 381.5,312.5C 381.833,312.5 382.167,312.5 382.5,312.5C 383.108,313.8 383.775,315.133 384.5,316.5C 383.804,319.955 382.804,323.288 381.5,326.5C 379.824,327.183 379.157,328.517 379.5,330.5C 378.307,330.97 377.64,331.97 377.5,333.5C 377.64,335.03 378.307,336.03 379.5,336.5C 380.167,338.5 381.5,339.833 383.5,340.5C 384.108,341.8 384.775,343.133 385.5,344.5C 384.245,348.189 384.245,351.855 385.5,355.5C 389.9,358.392 394.567,360.726 399.5,362.5C 399.328,363.492 399.662,364.158 400.5,364.5C 402.498,366.827 404.832,368.827 407.5,370.5C 408.167,370.5 408.833,370.5 409.5,370.5C 409.87,373.267 411.204,375.267 413.5,376.5C 413.721,377.735 414.388,378.735 415.5,379.5C 417.99,381.083 420.657,382.083 423.5,382.5C 425.074,385.708 427.741,387.042 431.5,386.5C 434.162,388.268 437.162,388.935 440.5,388.5C 442.396,391.284 444.063,394.284 445.5,397.5C 446.325,398.386 447.325,398.719 448.5,398.5C 452.881,400.04 457.215,402.04 461.5,404.5C 461.157,406.483 461.824,407.817 463.5,408.5C 463.5,409.833 463.5,411.167 463.5,412.5C 466.833,412.5 470.167,412.5 473.5,412.5C 473.238,413.978 473.571,415.311 474.5,416.5C 475.728,419.013 477.395,421.013 479.5,422.5C 479.5,423.833 480.167,424.5 481.5,424.5C 483.553,431.34 484.886,438.34 485.5,445.5C 488.267,449.885 492.267,452.219 497.5,452.5C 497.833,452.5 498.167,452.5 498.5,452.5C 499.552,454.256 501.219,454.923 503.5,454.5C 503.833,454.5 504.167,454.5 504.5,454.5C 505.918,456.308 507.918,456.975 510.5,456.5C 513.854,459.029 517.521,461.362 521.5,463.5C 522.689,464.429 524.022,464.762 525.5,464.5C 526.167,466.5 527.5,467.833 529.5,468.5C 530.167,468.5 530.833,468.5 531.5,468.5C 532.334,469.748 533.667,470.415 535.5,470.5C 537.045,470.489 538.378,470.156 539.5,469.5C 540.167,469.5 540.833,469.5 541.5,469.5C 544.446,471.479 547.779,472.479 551.5,472.5C 552.167,472.833 552.833,473.167 553.5,473.5C 558.479,475.674 563.812,477.008 569.5,477.5C 572.925,478.242 575.591,479.909 577.5,482.5C 577.157,484.483 577.824,485.817 579.5,486.5C 579.354,489.554 580.687,491.554 583.5,492.5C 583.5,493.833 584.167,494.5 585.5,494.5C 585.751,498.383 587.751,500.383 591.5,500.5C 591.328,501.492 591.662,502.158 592.5,502.5C 594.027,505.068 596.361,506.401 599.5,506.5C 599.328,507.492 599.662,508.158 600.5,508.5C 607.157,514.713 614.824,519.38 623.5,522.5C 624.446,525.313 626.446,526.646 629.5,526.5C 634.157,530.694 638.157,535.36 641.5,540.5C 641.205,542.735 641.539,544.735 642.5,546.5C 642.415,549.649 643.415,552.316 645.5,554.5C 648.649,563.805 652.649,572.805 657.5,581.5C 657.957,582.298 658.624,582.631 659.5,582.5C 659.354,585.554 660.687,587.554 663.5,588.5C 664.303,591.668 665.636,594.668 667.5,597.5C 668.588,598.934 669.922,599.934 671.5,600.5C 672.524,604.57 674.524,607.904 677.5,610.5C 677.354,613.554 678.687,615.554 681.5,616.5C 682.066,620.32 684.066,622.987 687.5,624.5C 687.328,625.492 687.662,626.158 688.5,626.5C 689.925,628.253 691.591,629.92 693.5,631.5C 694.689,632.429 696.022,632.762 697.5,632.5C 698.167,634.5 699.5,635.833 701.5,636.5C 706.833,643.167 712.833,649.167 719.5,654.5C 719.565,657.428 720.232,660.095 721.5,662.5C 721.025,665.082 721.692,667.082 723.5,668.5C 724.165,675.143 724.665,681.809 725,688.5C 725.417,689.756 726.25,690.423 727.5,690.5C 727.5,691.833 727.5,693.167 727.5,694.5C 732.182,696.288 736.182,698.955 739.5,702.5C 739.157,704.483 739.824,705.817 741.5,706.5C 741.259,708.898 741.926,710.898 743.5,712.5C 744.517,717.231 745.85,721.897 747.5,726.5C 746.833,731.167 746.167,735.833 745.5,740.5C 745.747,741.713 746.414,742.38 747.5,742.5C 748.066,746.32 750.066,748.987 753.5,750.5C 753.259,752.898 753.926,754.898 755.5,756.5C 755.205,758.735 755.539,760.735 756.5,762.5C 756.031,765.393 757.031,767.393 759.5,768.5C 759.563,771.908 761.23,774.241 764.5,775.5C 759.544,783.117 753.878,790.117 747.5,796.5C 746.167,796.5 745.5,797.167 745.5,798.5C 736.314,800.734 727.314,803.234 718.5,806C 716.19,806.497 713.857,806.663 711.5,806.5C 707.029,805.911 703.029,806.577 699.5,808.5C 694.833,808.5 690.167,808.5 685.5,808.5C 681.029,807.911 677.029,808.577 673.5,810.5C 668.637,810.181 663.97,810.514 659.5,811.5C 656.833,811.5 654.167,811.5 651.5,811.5C 650.455,810.122 649.122,809.122 647.5,808.5C 647.762,807.022 647.429,805.689 646.5,804.5C 642.833,800.833 639.167,797.167 635.5,793.5C 634.311,792.571 632.978,792.238 631.5,792.5C 631.5,791.167 630.833,790.5 629.5,790.5C 628.287,786.637 626.287,783.304 623.5,780.5C 622.167,779.833 620.833,779.167 619.5,778.5C 616.69,773.001 614.024,767.335 611.5,761.5C 611.043,760.702 610.376,760.369 609.5,760.5C 607.474,754.121 604.14,748.455 599.5,743.5C 596.505,742.331 594.505,743.331 593.5,746.5C 590.361,746.599 588.027,747.932 586.5,750.5C 585.662,750.842 585.328,751.508 585.5,752.5C 582.446,752.354 580.446,753.687 579.5,756.5C 578.167,756.5 577.5,757.167 577.5,758.5C 573.691,758.975 571.025,760.975 569.5,764.5C 568.022,764.238 566.689,764.571 565.5,765.5C 563.591,767.08 561.925,768.747 560.5,770.5C 559.662,770.842 559.328,771.508 559.5,772.5C 555.691,772.975 553.025,774.975 551.5,778.5C 550.022,778.238 548.689,778.571 547.5,779.5C 543.78,781.886 540.78,784.886 538.5,788.5C 535.931,788.738 534.265,790.071 533.5,792.5C 532.167,792.5 531.5,793.167 531.5,794.5C 528.845,794.659 526.512,795.659 524.5,797.5C 520.78,799.886 517.78,802.886 515.5,806.5C 512.056,803.066 508.056,800.4 503.5,798.5C 498.757,797.921 494.09,796.921 489.5,795.5C 487.753,793.41 485.753,791.743 483.5,790.5C 483.279,789.265 482.612,788.265 481.5,787.5C 479.01,785.917 476.343,784.917 473.5,784.5C 473.672,783.508 473.338,782.842 472.5,782.5C 471.448,780.744 469.781,780.077 467.5,780.5C 466.935,775.851 466.435,771.184 466,766.5C 464.504,763.998 462.337,762.331 459.5,761.5C 458.954,760.228 458.621,758.894 458.5,757.5C 459.797,749.826 459.797,742.159 458.5,734.5C 459.932,731.338 460.599,728.005 460.5,724.5C 459.751,717.184 459.418,709.851 459.5,702.5C 465.126,702.542 468.793,699.875 470.5,694.5C 471.5,694.5 472.5,694.5 473.5,694.5C 473.643,692.738 473.309,691.071 472.5,689.5C 476.369,687.097 478.036,683.764 477.5,679.5C 472.267,673.202 465.6,669.535 457.5,668.5C 455.163,664.492 452.83,660.492 450.5,656.5C 450.389,655.883 450.056,655.383 449.5,655C 437.838,654.5 426.171,654.333 414.5,654.5C 391.157,654.833 367.824,654.5 344.5,653.5C 343.585,652.672 342.919,651.672 342.5,650.5C 343.167,648.5 343.833,646.5 344.5,644.5C 344.439,642.347 343.439,641.014 341.5,640.5C 340.167,637.167 338.833,633.833 337.5,630.5C 338.833,630.5 339.5,629.833 339.5,628.5C 341.916,626.705 341.916,624.705 339.5,622.5C 339.167,622.5 338.833,622.5 338.5,622.5C 334.586,618.599 330.086,617.933 325,620.5C 319.803,617.477 314.637,614.477 309.5,611.5C 311.005,610.158 311.672,608.492 311.5,606.5C 314.313,605.554 315.646,603.554 315.5,600.5C 317.176,599.817 317.843,598.483 317.5,596.5C 318.434,595.432 318.768,594.099 318.5,592.5C 308.796,587.706 299.13,582.706 289.5,577.5C 288.5,575.5 287.5,573.5 286.5,571.5C 287.374,569.253 287.708,566.92 287.5,564.5C 291.064,554.934 292.231,544.934 291,534.5C 287.094,528.575 283.928,522.242 281.5,515.5C 280.412,514.066 279.078,513.066 277.5,512.5C 273.741,511.958 271.074,513.292 269.5,516.5C 266.361,516.599 264.027,517.932 262.5,520.5C 262.167,520.5 261.833,520.5 261.5,520.5C 259.517,520.157 258.183,520.824 257.5,522.5C 253.833,522.5 250.167,522.5 246.5,522.5C 244.193,519.629 241.193,517.629 237.5,516.5C 233.462,516.042 229.462,515.376 225.5,514.5C 224.768,510.213 223.435,506.213 221.5,502.5C 220.222,502.218 219.222,501.551 218.5,500.5C 218.389,499.883 218.056,499.383 217.5,499C 208.683,498.891 200.016,497.724 191.5,495.5C 189.5,494.167 187.5,492.833 185.5,491.5C 183.14,481.442 179.64,471.775 175,462.5C 174.667,457.833 174.333,453.167 174,448.5C 171.89,444.614 170.057,440.614 168.5,436.5C 169.013,433.981 170.346,431.981 172.5,430.5C 173.652,427.894 173.818,425.227 173,422.5C 172.203,418.296 170.369,414.629 167.5,411.5C 164.833,410.833 162.167,410.167 159.5,409.5C 158.756,406.557 158.256,403.557 158,400.5C 157.583,399.244 156.75,398.577 155.5,398.5C 155.5,397.167 155.5,395.833 155.5,394.5C 161.149,393.861 163.149,390.861 161.5,385.5C 159.063,383.208 156.396,381.208 153.5,379.5C 146.75,377.361 140.083,375.028 133.5,372.5C 130.9,369.847 128.233,367.18 125.5,364.5C 127.356,361.964 127.689,359.298 126.5,356.5C 125.158,354.995 123.492,354.328 121.5,354.5C 122.232,352.035 123.565,350.035 125.5,348.5C 129.134,348.844 130.8,347.177 130.5,343.5C 129.939,341.275 128.939,339.275 127.5,337.5C 127.043,336.702 126.376,336.369 125.5,336.5C 124.833,334.5 124.167,332.5 123.5,330.5C 125.074,328.898 125.741,326.898 125.5,324.5C 126.036,321.302 125.369,318.635 123.5,316.5C 123.5,315.167 122.833,314.5 121.5,314.5C 119.093,309.49 117.927,304.157 118,298.5C 117.583,297.244 116.75,296.577 115.5,296.5C 115.672,295.508 115.338,294.842 114.5,294.5C 113.01,292.72 111.01,292.054 108.5,292.5C 109.005,289.657 110.005,286.99 111.5,284.5C 111.332,282.829 110.665,281.496 109.5,280.5C 107.5,279.167 105.5,277.833 103.5,276.5C 102.306,275.223 100.64,274.556 98.5,274.5C 95.6172,274.52 93.2839,275.52 91.5,277.5C 90.8333,277.5 90.1667,277.5 89.5,277.5C 88.0716,272.637 86.0716,267.971 83.5,263.5C 83.0431,262.702 82.3764,262.369 81.5,262.5C 79.8568,258.7 79.1901,254.7 79.5,250.5C 81.4832,250.843 82.8166,250.176 83.5,248.5C 84.8333,247.833 86.1667,247.167 87.5,246.5C 89.4086,241.217 88.242,236.55 84,232.5C 83.5065,230.866 83.3398,229.199 83.5,227.5C 86.2669,226.779 88.2669,225.113 89.5,222.5C 90.7048,219.322 90.7048,215.988 89.5,212.5C 87.5797,209.661 85.9131,206.661 84.5,203.5C 86.4005,202.455 88.0672,201.122 89.5,199.5C 90.7349,197.684 90.7349,196.017 89.5,194.5C 89.5,193.167 88.8333,192.5 87.5,192.5C 86.8166,190.824 85.4832,190.157 83.5,190.5C 83.1667,190.5 82.8333,190.5 82.5,190.5C 81.5337,188.943 80.2004,187.61 78.5,186.5C 77.969,183.901 77.8023,181.235 78,178.5C 77.5831,177.244 76.7498,176.577 75.5,176.5C 74.9935,175.141 73.9935,174.141 72.5,173.5C 67.3883,172.576 62.3883,171.576 57.5,170.5C 50.809,160.101 45.9756,148.767 43,136.5C 42.5017,134.456 41.335,133.122 39.5,132.5C 39.646,129.446 38.3126,127.446 35.5,126.5C 35.3337,123.832 34.3337,121.498 32.5,119.5C 27.1335,114.468 22.1335,109.135 17.5,103.5C 13.8459,97.8339 10.5126,92.1673 7.5,86.5C 7.5,82.5 7.5,78.5 7.5,74.5C 8.67373,73.4863 9.3404,72.153 9.5,70.5C 11.5,69.8333 12.8333,68.5 13.5,66.5C 18.3837,62.2678 19.717,56.9345 17.5,50.5C 17.2528,49.2867 16.5862,48.62 15.5,48.5C 14.0778,43.3021 13.2445,37.9688 13,32.5C 12.3257,30.4835 11.1591,28.8168 9.5,27.5C 4.22919,25.5736 1.22919,21.907 0.5,16.5C 4.16667,16.5 7.83333,16.5 11.5,16.5C 14.6981,17.0356 17.3647,16.369 19.5,14.5C 22.5,14.5 25.5,14.5 28.5,14.5C 32.0122,15.0545 35.0122,14.3878 37.5,12.5C 40.5,12.5 43.5,12.5 46.5,12.5C 50.0122,13.0545 53.0122,12.3878 55.5,10.5C 58.1667,10.5 60.8333,10.5 63.5,10.5C 66.1873,10.6641 68.854,10.4974 71.5,10C 72.056,9.61742 72.3893,9.11742 72.5,8.5C 76.1667,8.5 79.8333,8.5 83.5,8.5C 87.5138,8.66551 91.5138,8.49885 95.5,8C 96.056,7.61742 96.3893,7.11742 96.5,6.5C 100.833,6.5 105.167,6.5 109.5,6.5C 114.619,7.1031 119.285,6.43644 123.5,4.5C 127.833,4.5 132.167,4.5 136.5,4.5C 141.294,5.0969 145.627,4.43023 149.5,2.5C 161.542,2.65067 173.542,1.984 185.5,0.5C 188.833,0.833333 192.167,1.16667 195.5,1.5C 197.247,3.58999 199.247,5.25665 201.5,6.5 Z"/></g>
<g><path style="opacity:1" fill="#c2b7b3" d="M 174.5,-0.5 C 181.833,-0.5 189.167,-0.5 196.5,-0.5C 198.142,1.81518 199.808,4.14851 201.5,6.5C 199.247,5.25665 197.247,3.58999 195.5,1.5C 192.167,1.16667 188.833,0.833333 185.5,0.5C 173.542,1.984 161.542,2.65067 149.5,2.5C 149.167,2.5 148.833,2.5 148.5,2.5C 157.381,2.15546 166.048,1.15546 174.5,-0.5 Z"/></g>
<g><path style="opacity:1" fill="#b49a92" d="M 148.5,2.5 C 148.833,2.5 149.167,2.5 149.5,2.5C 145.627,4.43023 141.294,5.0969 136.5,4.5C 140.5,3.83333 144.5,3.16667 148.5,2.5 Z"/></g>
<g><path style="opacity:1" fill="#b39990" d="M 123.5,4.5 C 119.285,6.43644 114.619,7.1031 109.5,6.5C 114.064,5.78377 118.731,5.1171 123.5,4.5 Z"/></g>
<g><path style="opacity:1" fill="#b39890" d="M 96.5,6.5 C 96.3893,7.11742 96.056,7.61742 95.5,8C 91.5138,8.49885 87.5138,8.66551 83.5,8.5C 87.6934,7.71731 92.0268,7.05065 96.5,6.5 Z"/></g>
<g><path style="opacity:1" fill="#b39890" d="M 72.5,8.5 C 72.3893,9.11742 72.056,9.61742 71.5,10C 68.854,10.4974 66.1873,10.6641 63.5,10.5C 66.3447,9.65622 69.3447,8.98956 72.5,8.5 Z"/></g>
<g><path style="opacity:1" fill="#b5968c" d="M 55.5,10.5 C 53.0122,12.3878 50.0122,13.0545 46.5,12.5C 49.3112,11.525 52.3112,10.8583 55.5,10.5 Z"/></g>
<g><path style="opacity:1" fill="#b49b93" d="M 37.5,12.5 C 35.0122,14.3878 32.0122,15.0545 28.5,14.5C 31.3896,13.7552 34.3896,13.0885 37.5,12.5 Z"/></g>
<g><path style="opacity:1" fill="#b49a91" d="M 19.5,14.5 C 17.3647,16.369 14.6981,17.0356 11.5,16.5C 14.0529,15.7451 16.7196,15.0784 19.5,14.5 Z"/></g>
<g><path style="opacity:1" fill="#c7c3c2" d="M 201.5,6.5 C 204.711,11.9749 206.711,17.9749 207.5,24.5C 205.205,18.6783 203.205,12.6783 201.5,6.5 Z"/></g>
<g><path style="opacity:1" fill="#fefefe" d="M -0.5,21.5 C 2.83868,24.8326 6.50534,27.8326 10.5,30.5C 12.1178,34.6444 12.9511,38.9778 13,43.5C 13.7568,45.3146 14.5902,46.9812 15.5,48.5C 18.5477,54.8875 17.881,60.8875 13.5,66.5C 12.8333,68.5 11.5,69.8333 9.5,70.5C 7.89578,71.287 7.22911,72.6203 7.5,74.5C 7.5,78.5 7.5,82.5 7.5,86.5C 10.2612,94.4187 14.0945,101.752 19,108.5C 25.1105,114.103 30.6105,120.103 35.5,126.5C 36.8601,128.54 38.1934,130.54 39.5,132.5C 42.8517,143.06 46.685,153.393 51,163.5C 52.327,166.659 54.4936,168.992 57.5,170.5C 62.3883,171.576 67.3883,172.576 72.5,173.5C 73.9935,174.141 74.9935,175.141 75.5,176.5C 76.1534,177.807 76.8201,179.14 77.5,180.5C 75.0654,185.987 76.7321,189.32 82.5,190.5C 82.8333,190.5 83.1667,190.5 83.5,190.5C 84.6715,191.345 86.0048,192.011 87.5,192.5C 88.8333,192.5 89.5,193.167 89.5,194.5C 89.2715,198.393 87.2715,200.726 83.5,201.5C 83.6091,206.163 85.2757,210.163 88.5,213.5C 89.3022,216.449 89.6355,219.449 89.5,222.5C 88.2669,225.113 86.2669,226.779 83.5,227.5C 81.8629,231.289 82.6962,234.622 86,237.5C 87.1488,240.393 87.6488,243.393 87.5,246.5C 86.1667,247.167 84.8333,247.833 83.5,248.5C 82.0048,248.989 80.6715,249.655 79.5,250.5C 78.3622,253.304 78.1955,256.304 79,259.5C 79.3768,260.942 80.2101,261.942 81.5,262.5C 83.6793,267.021 85.6793,271.688 87.5,276.5C 87.9569,277.298 88.6236,277.631 89.5,277.5C 90.1667,277.5 90.8333,277.5 91.5,277.5C 93.9098,276.611 96.4098,275.945 99,275.5C 100.592,275.605 102.092,275.939 103.5,276.5C 105.5,277.833 107.5,279.167 109.5,280.5C 108.833,284.833 108.167,289.167 107.5,293.5C 109.903,293.448 112.236,293.781 114.5,294.5C 115.338,294.842 115.672,295.508 115.5,296.5C 117.021,300.652 117.854,304.985 118,309.5C 118.697,311.584 119.864,313.251 121.5,314.5C 122.833,314.5 123.5,315.167 123.5,316.5C 124.833,319.167 124.833,321.833 123.5,324.5C 123.5,325.833 123.5,327.167 123.5,328.5C 121.993,331.618 122.66,334.285 125.5,336.5C 126.701,339.068 128.034,341.568 129.5,344C 128.883,346.227 127.549,347.727 125.5,348.5C 123.565,350.035 122.232,352.035 121.5,354.5C 123.479,355.812 125.145,357.479 126.5,359.5C 124.644,362.036 124.311,364.702 125.5,367.5C 128.178,369.184 130.845,370.851 133.5,372.5C 138.826,376.355 144.826,378.855 151.5,380C 155.471,382.142 158.805,384.976 161.5,388.5C 160.11,391.223 158.11,393.223 155.5,394.5C 155.5,395.833 155.5,397.167 155.5,398.5C 156.867,402.38 157.867,406.38 158.5,410.5C 161.702,411.047 164.702,412.047 167.5,413.5C 169.559,418.011 171.226,422.677 172.5,427.5C 171.192,429.641 169.692,431.641 168,433.5C 167.333,435.5 167.333,437.5 168,439.5C 169.667,443.167 171.333,446.833 173,450.5C 173.397,461.617 176.397,471.95 182,481.5C 181.586,488.6 184.419,493.767 190.5,497C 199.786,498.717 209.119,499.883 218.5,500.5C 219.222,501.551 220.222,502.218 221.5,502.5C 221.926,506.902 223.26,510.902 225.5,514.5C 229.462,515.376 233.462,516.042 237.5,516.5C 239.912,519.222 242.912,521.222 246.5,522.5C 250.167,522.5 253.833,522.5 257.5,522.5C 258.995,522.011 260.329,521.345 261.5,520.5C 261.833,520.5 262.167,520.5 262.5,520.5C 265.317,519.905 267.65,518.572 269.5,516.5C 271.074,513.292 273.741,511.958 277.5,512.5C 282.105,519.86 286.272,527.527 290,535.5C 290.701,545.298 289.867,554.964 287.5,564.5C 284.521,569.306 284.854,573.973 288.5,578.5C 296.811,582.99 305.144,587.49 313.5,592C 315.635,592.876 316.969,594.376 317.5,596.5C 316.655,597.671 315.989,599.005 315.5,600.5C 314.193,602.46 312.86,604.46 311.5,606.5C 306.856,611.423 307.856,614.59 314.5,616C 317.558,618.778 321.058,620.611 325,621.5C 326.93,621.092 328.764,620.425 330.5,619.5C 332.974,621.072 335.64,622.072 338.5,622.5C 338.833,622.5 339.167,622.5 339.5,622.5C 339.5,624.5 339.5,626.5 339.5,628.5C 339.5,629.833 338.833,630.5 337.5,630.5C 336.861,631.097 336.528,631.93 336.5,633C 338.025,635.674 339.692,638.174 341.5,640.5C 342.067,642.03 342.733,643.53 343.5,645C 340.923,648.405 340.923,651.738 343.5,655C 367.164,655.5 390.831,655.667 414.5,655.5C 426.247,655.189 437.914,655.522 449.5,656.5C 451.201,661.263 453.868,665.263 457.5,668.5C 460.969,670.681 464.803,672.347 469,673.5C 471.322,675.322 473.489,677.322 475.5,679.5C 476.643,681.959 476.31,684.293 474.5,686.5C 473.675,687.386 472.675,687.719 471.5,687.5C 471.357,689.262 471.691,690.929 472.5,692.5C 471.757,693.182 471.091,693.849 470.5,694.5C 468.068,695.993 466.068,697.993 464.5,700.5C 462.604,701.466 460.604,701.799 458.5,701.5C 458.326,709.356 458.659,717.189 459.5,725C 459.279,728.271 458.612,731.437 457.5,734.5C 458.792,742.163 458.792,749.829 457.5,757.5C 457.59,759.228 457.923,760.894 458.5,762.5C 461.112,763.615 463.279,765.282 465,767.5C 465.435,772.184 465.935,776.851 466.5,781.5C 468.565,781.517 470.565,781.85 472.5,782.5C 473.338,782.842 473.672,783.508 473.5,784.5C 476.662,786.678 479.995,788.678 483.5,790.5C 485.753,791.743 487.753,793.41 489.5,795.5C 494.09,796.921 498.757,797.921 503.5,798.5C 506.409,801.065 509.409,803.731 512.5,806.5C 513.614,807.776 514.614,807.776 515.5,806.5C 521.146,802.845 526.48,798.845 531.5,794.5C 531.5,793.167 532.167,792.5 533.5,792.5C 535.48,791.516 537.147,790.183 538.5,788.5C 543.052,785.397 547.386,782.064 551.5,778.5C 554.197,776.46 556.863,774.46 559.5,772.5C 559.328,771.508 559.662,770.842 560.5,770.5C 563.777,768.885 566.777,766.885 569.5,764.5C 572.197,762.46 574.863,760.46 577.5,758.5C 577.5,757.167 578.167,756.5 579.5,756.5C 581.54,755.14 583.54,753.807 585.5,752.5C 585.328,751.508 585.662,750.842 586.5,750.5C 589.331,749.921 591.664,748.588 593.5,746.5C 595.097,745.91 596.431,744.91 597.5,743.5C 599.167,745.167 600.833,746.833 602.5,748.5C 604.359,752.901 606.693,756.901 609.5,760.5C 612.208,765.251 614.375,770.251 616,775.5C 617.039,776.71 618.206,777.71 619.5,778.5C 620.833,779.167 622.167,779.833 623.5,780.5C 623.421,781.93 623.754,783.264 624.5,784.5C 626.185,786.571 627.852,788.571 629.5,790.5C 630.833,790.5 631.5,791.167 631.5,792.5C 637.5,797.167 642.833,802.5 647.5,808.5C 649.122,809.122 650.455,810.122 651.5,811.5C 434.167,811.5 216.833,811.5 -0.5,811.5C -0.5,548.167 -0.5,284.833 -0.5,21.5 Z"/></g>
<g><path style="opacity:1" fill="#c3bcba" d="M 207.5,24.5 C 208.226,27.9708 209.56,31.3041 211.5,34.5C 208.083,32.1873 206.749,28.854 207.5,24.5 Z"/></g>
<g><path style="opacity:1" fill="#c7c3c2" d="M -0.5,16.5 C -0.166667,16.5 0.166667,16.5 0.5,16.5C 1.22919,21.907 4.22919,25.5736 9.5,27.5C 11.1591,28.8168 12.3257,30.4835 13,32.5C 13.2445,37.9688 14.0778,43.3021 15.5,48.5C 14.5902,46.9812 13.7568,45.3146 13,43.5C 12.9511,38.9778 12.1178,34.6444 10.5,30.5C 6.50534,27.8326 2.83868,24.8326 -0.5,21.5C -0.5,19.8333 -0.5,18.1667 -0.5,16.5 Z"/></g>
<g><path style="opacity:1" fill="#c8c4c3" d="M 217.5,40.5 C 220.918,43.9327 223.584,47.9327 225.5,52.5C 223.299,50.4963 221.299,48.163 219.5,45.5C 218.544,43.9246 217.877,42.258 217.5,40.5 Z"/></g>
<g><path style="opacity:1" fill="#c0b8b4" d="M 225.5,52.5 C 226.345,53.6715 227.011,55.0048 227.5,56.5C 225.824,55.8166 225.157,54.4832 225.5,52.5 Z"/></g>
<g><path style="opacity:1" fill="#c0b7b3" d="M 227.5,56.5 C 228.345,57.6715 229.011,59.0048 229.5,60.5C 227.824,59.8166 227.157,58.4832 227.5,56.5 Z"/></g>
<g><path style="opacity:1" fill="#c5c0bf" d="M 15.5,48.5 C 16.5862,48.62 17.2528,49.2867 17.5,50.5C 19.717,56.9345 18.3837,62.2678 13.5,66.5C 17.881,60.8875 18.5477,54.8875 15.5,48.5 Z"/></g>
<g><path style="opacity:1" fill="#bfb6b1" d="M 229.5,60.5 C 230.345,61.6715 231.011,63.0048 231.5,64.5C 229.824,63.8166 229.157,62.4832 229.5,60.5 Z"/></g>
<g><path style="opacity:1" fill="#c0b7b3" d="M 231.5,64.5 C 232.345,65.6715 233.011,67.0048 233.5,68.5C 231.824,67.8166 231.157,66.4832 231.5,64.5 Z"/></g>
<g><path style="opacity:1" fill="#bfb6b3" d="M 9.5,70.5 C 9.3404,72.153 8.67373,73.4863 7.5,74.5C 7.22911,72.6203 7.89578,71.287 9.5,70.5 Z"/></g>
<g><path style="opacity:1" fill="#bba9a4" d="M 239.5,74.5 C 240.859,76.5034 242.192,78.5034 243.5,80.5C 240.687,79.5539 239.354,77.5539 239.5,74.5 Z"/></g>
<g><path style="opacity:1" fill="#c2b8b5" d="M 244.5,80.5 C 247.384,81.3798 250.05,82.7132 252.5,84.5C 254.38,85.7143 254.713,87.0476 253.5,88.5C 250.704,85.6023 247.704,82.9356 244.5,80.5 Z"/></g>
<g><path style="opacity:1" fill="#c0b7b4" d="M 253.5,88.5 C 250.514,93.4746 247.181,98.1413 243.5,102.5C 243.666,99.8316 244.666,97.4983 246.5,95.5C 248.209,92.4571 250.543,90.1238 253.5,88.5 Z"/></g>
<g><path style="opacity:1" fill="#c0b5b2" d="M 7.5,86.5 C 10.5126,92.1673 13.8459,97.8339 17.5,103.5C 22.1335,109.135 27.1335,114.468 32.5,119.5C 34.3337,121.498 35.3337,123.832 35.5,126.5C 30.6105,120.103 25.1105,114.103 19,108.5C 14.0945,101.752 10.2612,94.4187 7.5,86.5 Z"/></g>
<g><path style="opacity:1" fill="#bfb6b4" d="M 243.5,102.5 C 240.833,107.167 240.833,111.833 243.5,116.5C 242.414,116.38 241.747,115.713 241.5,114.5C 240.167,111.167 240.167,107.833 241.5,104.5C 241.747,103.287 242.414,102.62 243.5,102.5 Z"/></g>
<g><path style="opacity:1" fill="#c0b7b3" d="M 243.5,116.5 C 244.345,117.671 245.011,119.005 245.5,120.5C 243.824,119.817 243.157,118.483 243.5,116.5 Z"/></g>
<g><path style="opacity:1" fill="#c4bebc" d="M 245.5,120.5 C 247.607,123.056 248.941,126.056 249.5,129.5C 247.868,132.789 245.868,135.789 243.5,138.5C 243.5,137.833 243.5,137.167 243.5,136.5C 245.11,134.208 246.776,131.875 248.5,129.5C 247.195,126.567 246.195,123.567 245.5,120.5 Z"/></g>
<g><path style="opacity:1" fill="#c1bbbb" d="M 35.5,126.5 C 38.3126,127.446 39.646,129.446 39.5,132.5C 38.1934,130.54 36.8601,128.54 35.5,126.5 Z"/></g>
<g><path style="opacity:1" fill="#b7a29b" d="M 243.5,136.5 C 243.5,137.167 243.5,137.833 243.5,138.5C 243.56,141.341 244.226,144.007 245.5,146.5C 241.329,143.822 240.662,140.489 243.5,136.5 Z"/></g>
<g><path style="opacity:1" fill="#bcb1ae" d="M 39.5,132.5 C 41.335,133.122 42.5017,134.456 43,136.5C 45.9756,148.767 50.809,160.101 57.5,170.5C 54.4936,168.992 52.327,166.659 51,163.5C 46.685,153.393 42.8517,143.06 39.5,132.5 Z"/></g>
<g><path style="opacity:1" fill="#c0b8b6" d="M 271.5,172.5 C 274.54,175.914 276.54,179.914 277.5,184.5C 274.992,180.818 272.992,176.818 271.5,172.5 Z"/></g>
<g><path style="opacity:1" fill="#bfb3b0" d="M 75.5,176.5 C 76.7498,176.577 77.5831,177.244 78,178.5C 77.8023,181.235 77.969,183.901 78.5,186.5C 80.2004,187.61 81.5337,188.943 82.5,190.5C 76.7321,189.32 75.0654,185.987 77.5,180.5C 76.8201,179.14 76.1534,177.807 75.5,176.5 Z"/></g>
<g><path style="opacity:1" fill="#bfb5b3" d="M 83.5,190.5 C 85.4832,190.157 86.8166,190.824 87.5,192.5C 86.0048,192.011 84.6715,191.345 83.5,190.5 Z"/></g>
<g><path style="opacity:1" fill="#c5bfbe" d="M 277.5,184.5 C 279.432,191.595 280.765,198.928 281.5,206.5C 279.245,199.451 277.912,192.118 277.5,184.5 Z"/></g>
<g><path style="opacity:1" fill="#bdb3b0" d="M 89.5,194.5 C 90.7349,196.017 90.7349,197.684 89.5,199.5C 88.0672,201.122 86.4005,202.455 84.5,203.5C 85.9131,206.661 87.5797,209.661 89.5,212.5C 90.7048,215.988 90.7048,219.322 89.5,222.5C 89.6355,219.449 89.3022,216.449 88.5,213.5C 85.2757,210.163 83.6091,206.163 83.5,201.5C 87.2715,200.726 89.2715,198.393 89.5,194.5 Z"/></g>
<g><path style="opacity:1" fill="#c1b9b7" d="M 281.5,206.5 C 282.781,210.424 284.115,214.424 285.5,218.5C 282.558,215.23 281.224,211.23 281.5,206.5 Z"/></g>
<g><path style="opacity:1" fill="#c7c4c2" d="M 285.5,218.5 C 286.807,220.46 288.14,222.46 289.5,224.5C 286.687,223.554 285.354,221.554 285.5,218.5 Z"/></g>
<g><path style="opacity:1" fill="#bba9a4" d="M 289.5,224.5 C 290.859,226.503 292.192,228.503 293.5,230.5C 290.687,229.554 289.354,227.554 289.5,224.5 Z"/></g>
<g><path style="opacity:1" fill="#c1b4b1" d="M 299.5,234.5 C 301.99,236.356 304.656,237.69 307.5,238.5C 306.833,238.5 306.167,238.5 305.5,238.5C 302.446,238.646 300.446,237.313 299.5,234.5 Z"/></g>
<g><path style="opacity:1" fill="#b4988f" d="M 305.5,238.5 C 306.167,238.5 306.833,238.5 307.5,238.5C 312.167,239.833 316.833,239.833 321.5,238.5C 319.257,239.812 316.59,240.478 313.5,240.5C 310.41,240.478 307.743,239.812 305.5,238.5 Z"/></g>
<g><path style="opacity:1" fill="#bba9a4" d="M 325.5,238.5 C 330.985,237.348 336.651,237.182 342.5,238C 345.298,239.63 347.965,241.463 350.5,243.5C 351.386,244.325 351.719,245.325 351.5,246.5C 344.348,239.496 335.681,236.829 325.5,238.5 Z"/></g>
<g><path style="opacity:1" fill="#bcaea9" d="M 83.5,227.5 C 83.3398,229.199 83.5065,230.866 84,232.5C 88.242,236.55 89.4086,241.217 87.5,246.5C 87.6488,243.393 87.1488,240.393 86,237.5C 82.6962,234.622 81.8629,231.289 83.5,227.5 Z"/></g>
<g><path style="opacity:1" fill="#c0b7b5" d="M 353.5,246.5 C 355.488,249.128 357.488,251.795 359.5,254.5C 356.066,252.987 354.066,250.32 353.5,246.5 Z"/></g>
<g><path style="opacity:1" fill="#c0b5b2" d="M 83.5,248.5 C 82.8166,250.176 81.4832,250.843 79.5,250.5C 80.6715,249.655 82.0048,248.989 83.5,248.5 Z"/></g>
<g><path style="opacity:1" fill="#cccbca" d="M 79.5,250.5 C 79.1901,254.7 79.8568,258.7 81.5,262.5C 80.2101,261.942 79.3768,260.942 79,259.5C 78.1955,256.304 78.3622,253.304 79.5,250.5 Z"/></g>
<g><path style="opacity:1" fill="#c0b7b5" d="M 359.5,254.5 C 361.316,256.118 362.649,258.118 363.5,260.5C 361.204,259.267 359.87,257.267 359.5,254.5 Z"/></g>
<g><path style="opacity:1" fill="#c0b3b0" d="M 81.5,262.5 C 82.3764,262.369 83.0431,262.702 83.5,263.5C 86.0716,267.971 88.0716,272.637 89.5,277.5C 88.6236,277.631 87.9569,277.298 87.5,276.5C 85.6793,271.688 83.6793,267.021 81.5,262.5 Z"/></g>
<g><path style="opacity:1" fill="#bdb3b0" d="M 363.5,260.5 C 365.136,261.749 366.303,263.416 367,265.5C 366.696,272.952 368.196,279.952 371.5,286.5C 369.71,284.208 368.21,281.541 367,278.5C 367.147,272.181 365.98,266.181 363.5,260.5 Z"/></g>
<g><path style="opacity:1" fill="#c2b8b5" d="M 103.5,276.5 C 102.092,275.939 100.592,275.605 99,275.5C 96.4098,275.945 93.9098,276.611 91.5,277.5C 93.2839,275.52 95.6172,274.52 98.5,274.5C 100.64,274.556 102.306,275.223 103.5,276.5 Z"/></g>
<g><path style="opacity:1" fill="#b8a6a0" d="M 109.5,280.5 C 110.665,281.496 111.332,282.829 111.5,284.5C 110.005,286.99 109.005,289.657 108.5,292.5C 111.01,292.054 113.01,292.72 114.5,294.5C 112.236,293.781 109.903,293.448 107.5,293.5C 108.167,289.167 108.833,284.833 109.5,280.5 Z"/></g>
<g><path style="opacity:1" fill="#baafac" d="M 371.5,286.5 C 372.931,293.711 374.264,301.044 375.5,308.5C 373.955,307.77 373.122,306.437 373,304.5C 372.641,298.477 372.141,292.477 371.5,286.5 Z"/></g>
<g><path style="opacity:1" fill="#c3bdbb" d="M 115.5,296.5 C 116.75,296.577 117.583,297.244 118,298.5C 117.927,304.157 119.093,309.49 121.5,314.5C 119.864,313.251 118.697,311.584 118,309.5C 117.854,304.985 117.021,300.652 115.5,296.5 Z"/></g>
<g><path style="opacity:1" fill="#c8c4c3" d="M 375.5,308.5 C 377.54,309.86 379.54,311.193 381.5,312.5C 378.446,312.646 376.446,311.313 375.5,308.5 Z"/></g>
<g><path style="opacity:1" fill="#c1b9b7" d="M 382.5,312.5 C 384.38,313.078 385.38,314.412 385.5,316.5C 385.158,318.867 384.658,321.2 384,323.5C 383.623,324.942 382.79,325.942 381.5,326.5C 382.804,323.288 383.804,319.955 384.5,316.5C 383.775,315.133 383.108,313.8 382.5,312.5 Z"/></g>
<g><path style="opacity:1" fill="#cccccc" d="M 123.5,316.5 C 125.369,318.635 126.036,321.302 125.5,324.5C 124.833,324.5 124.167,324.5 123.5,324.5C 124.833,321.833 124.833,319.167 123.5,316.5 Z"/></g>
<g><path style="opacity:1" fill="#b3948b" d="M 123.5,324.5 C 124.167,324.5 124.833,324.5 125.5,324.5C 125.741,326.898 125.074,328.898 123.5,330.5C 123.5,329.833 123.5,329.167 123.5,328.5C 123.5,327.167 123.5,325.833 123.5,324.5 Z"/></g>
<g><path style="opacity:1" fill="#c9c6c6" d="M 123.5,328.5 C 123.5,329.167 123.5,329.833 123.5,330.5C 124.167,332.5 124.833,334.5 125.5,336.5C 122.66,334.285 121.993,331.618 123.5,328.5 Z"/></g>
<g><path style="opacity:1" fill="#c6c2c0" d="M 381.5,326.5 C 381.011,327.995 380.345,329.329 379.5,330.5C 379.157,328.517 379.824,327.183 381.5,326.5 Z"/></g>
<g><path style="opacity:1" fill="#c7c4c2" d="M 379.5,330.5 C 378.167,332.5 378.167,334.5 379.5,336.5C 378.307,336.03 377.64,335.03 377.5,333.5C 377.64,331.97 378.307,330.97 379.5,330.5 Z"/></g>
<g><path style="opacity:1" fill="#bdb1ad" d="M 125.5,336.5 C 126.376,336.369 127.043,336.702 127.5,337.5C 128.939,339.275 129.939,341.275 130.5,343.5C 130.8,347.177 129.134,348.844 125.5,348.5C 127.549,347.727 128.883,346.227 129.5,344C 128.034,341.568 126.701,339.068 125.5,336.5 Z"/></g>
<g><path style="opacity:1" fill="#c0b5b2" d="M 383.5,340.5 C 385.38,341.078 386.38,342.412 386.5,344.5C 385.377,347.869 385.377,351.202 386.5,354.5C 390.328,356.795 394.328,358.795 398.5,360.5C 398.863,361.183 399.196,361.85 399.5,362.5C 394.567,360.726 389.9,358.392 385.5,355.5C 384.245,351.855 384.245,348.189 385.5,344.5C 384.775,343.133 384.108,341.8 383.5,340.5 Z"/></g>
<g><path style="opacity:1" fill="#c4bcba" d="M 121.5,354.5 C 123.492,354.328 125.158,354.995 126.5,356.5C 127.689,359.298 127.356,361.964 125.5,364.5C 128.233,367.18 130.9,369.847 133.5,372.5C 130.845,370.851 128.178,369.184 125.5,367.5C 124.311,364.702 124.644,362.036 126.5,359.5C 125.145,357.479 123.479,355.812 121.5,354.5 Z"/></g>
<g><path style="opacity:1" fill="#bcada8" d="M 400.5,364.5 C 403.794,365.466 406.128,367.466 407.5,370.5C 404.832,368.827 402.498,366.827 400.5,364.5 Z"/></g>
<g><path style="opacity:1" fill="#c0b8b5" d="M 409.5,370.5 C 411.316,372.118 412.649,374.118 413.5,376.5C 411.204,375.267 409.87,373.267 409.5,370.5 Z"/></g>
<g><path style="opacity:1" fill="#bcaeaa" d="M 133.5,372.5 C 140.083,375.028 146.75,377.361 153.5,379.5C 156.396,381.208 159.063,383.208 161.5,385.5C 163.149,390.861 161.149,393.861 155.5,394.5C 158.11,393.223 160.11,391.223 161.5,388.5C 158.805,384.976 155.471,382.142 151.5,380C 144.826,378.855 138.826,376.355 133.5,372.5 Z"/></g>
<g><path style="opacity:1" fill="#c1b7b3" d="M 413.5,376.5 C 416.989,378.32 420.323,380.32 423.5,382.5C 420.657,382.083 417.99,381.083 415.5,379.5C 414.388,378.735 413.721,377.735 413.5,376.5 Z"/></g>
<g><path style="opacity:1" fill="#c0b3af" d="M 423.5,382.5 C 425.99,384.356 428.656,385.69 431.5,386.5C 427.741,387.042 425.074,385.708 423.5,382.5 Z"/></g>
<g><path style="opacity:1" fill="#c9c6c6" d="M 440.5,388.5 C 441.643,388.908 442.643,389.575 443.5,390.5C 444.691,393.568 446.358,396.235 448.5,398.5C 447.325,398.719 446.325,398.386 445.5,397.5C 444.063,394.284 442.396,391.284 440.5,388.5 Z"/></g>
<g><path style="opacity:1" fill="#c0b5b2" d="M 448.5,398.5 C 451.413,399.241 454.413,399.741 457.5,400C 459.384,401.049 460.718,402.549 461.5,404.5C 457.215,402.04 452.881,400.04 448.5,398.5 Z"/></g>
<g><path style="opacity:1" fill="#c0b7b3" d="M 461.5,404.5 C 462.345,405.671 463.011,407.005 463.5,408.5C 461.824,407.817 461.157,406.483 461.5,404.5 Z"/></g>
<g><path style="opacity:1" fill="#c9c6c5" d="M 463.5,408.5 C 464.404,409.209 464.737,410.209 464.5,411.5C 467.713,411.19 470.713,411.523 473.5,412.5C 470.167,412.5 466.833,412.5 463.5,412.5C 463.5,411.167 463.5,409.833 463.5,408.5 Z"/></g>
<g><path style="opacity:1" fill="#c7c2c1" d="M 473.5,412.5 C 475.985,415.456 477.985,418.79 479.5,422.5C 477.395,421.013 475.728,419.013 474.5,416.5C 473.571,415.311 473.238,413.978 473.5,412.5 Z"/></g>
<g><path style="opacity:1" fill="#beb2ae" d="M 481.5,424.5 C 482.79,425.058 483.623,426.058 484,427.5C 484.834,433.009 485.667,438.509 486.5,444C 489.236,448.164 492.903,450.998 497.5,452.5C 492.267,452.219 488.267,449.885 485.5,445.5C 484.886,438.34 483.553,431.34 481.5,424.5 Z"/></g>
<g><path style="opacity:1" fill="#c8c4c3" d="M 498.5,452.5 C 500.306,453.024 501.972,453.691 503.5,454.5C 501.219,454.923 499.552,454.256 498.5,452.5 Z"/></g>
<g><path style="opacity:1" fill="#c9c5c4" d="M 504.5,454.5 C 506.626,455.048 508.626,455.715 510.5,456.5C 507.918,456.975 505.918,456.308 504.5,454.5 Z"/></g>
<g><path style="opacity:1" fill="#c4bbb9" d="M 510.5,456.5 C 516.149,458.042 521.149,460.709 525.5,464.5C 524.022,464.762 522.689,464.429 521.5,463.5C 517.521,461.362 513.854,459.029 510.5,456.5 Z"/></g>
<g><path style="opacity:1" fill="#bbaaa5" d="M 525.5,464.5 C 527.773,464.957 529.106,466.29 529.5,468.5C 527.5,467.833 526.167,466.5 525.5,464.5 Z"/></g>
<g><path style="opacity:1" fill="#c6bfbc" d="M 531.5,468.5 C 534.096,469.265 536.763,469.599 539.5,469.5C 538.378,470.156 537.045,470.489 535.5,470.5C 533.667,470.415 532.334,469.748 531.5,468.5 Z"/></g>
<g><path style="opacity:1" fill="#c1b6b2" d="M 541.5,469.5 C 545.207,469.604 548.54,470.604 551.5,472.5C 547.779,472.479 544.446,471.479 541.5,469.5 Z"/></g>
<g><path style="opacity:1" fill="#bfb0ab" d="M 553.5,473.5 C 560.91,474.543 568.244,476.043 575.5,478C 576.267,479.47 576.933,480.97 577.5,482.5C 575.591,479.909 572.925,478.242 569.5,477.5C 563.812,477.008 558.479,475.674 553.5,473.5 Z"/></g>
<g><path style="opacity:1" fill="#c0b6b3" d="M 577.5,482.5 C 578.345,483.671 579.011,485.005 579.5,486.5C 577.824,485.817 577.157,484.483 577.5,482.5 Z"/></g>
<g><path style="opacity:1" fill="#c8c4c3" d="M 579.5,486.5 C 580.807,488.46 582.14,490.46 583.5,492.5C 580.687,491.554 579.354,489.554 579.5,486.5 Z"/></g>
<g><path style="opacity:1" fill="#bdafab" d="M 155.5,398.5 C 156.75,398.577 157.583,399.244 158,400.5C 158.256,403.557 158.756,406.557 159.5,409.5C 162.167,410.167 164.833,410.833 167.5,411.5C 170.369,414.629 172.203,418.296 173,422.5C 173.818,425.227 173.652,427.894 172.5,430.5C 170.346,431.981 169.013,433.981 168.5,436.5C 170.057,440.614 171.89,444.614 174,448.5C 174.333,453.167 174.667,457.833 175,462.5C 179.64,471.775 183.14,481.442 185.5,491.5C 187.5,492.833 189.5,494.167 191.5,495.5C 200.016,497.724 208.683,498.891 217.5,499C 218.056,499.383 218.389,499.883 218.5,500.5C 209.119,499.883 199.786,498.717 190.5,497C 184.419,493.767 181.586,488.6 182,481.5C 176.397,471.95 173.397,461.617 173,450.5C 171.333,446.833 169.667,443.167 168,439.5C 167.333,437.5 167.333,435.5 168,433.5C 169.692,431.641 171.192,429.641 172.5,427.5C 171.226,422.677 169.559,418.011 167.5,413.5C 164.702,412.047 161.702,411.047 158.5,410.5C 157.867,406.38 156.867,402.38 155.5,398.5 Z"/></g>
<g><path style="opacity:1" fill="#c3bcba" d="M 585.5,494.5 C 587.064,496.984 589.064,498.984 591.5,500.5C 587.751,500.383 585.751,498.383 585.5,494.5 Z"/></g>
<g><path style="opacity:1" fill="#bfb2ae" d="M 592.5,502.5 C 595.102,503.451 597.435,504.784 599.5,506.5C 596.361,506.401 594.027,505.068 592.5,502.5 Z"/></g>
<g><path style="opacity:1" fill="#c1b8b6" d="M 221.5,502.5 C 223.435,506.213 224.768,510.213 225.5,514.5C 223.26,510.902 221.926,506.902 221.5,502.5 Z"/></g>
<g><path style="opacity:1" fill="#beb0ab" d="M 600.5,508.5 C 608.374,512.932 616.041,517.599 623.5,522.5C 614.824,519.38 607.157,514.713 600.5,508.5 Z"/></g>
<g><path style="opacity:1" fill="#beb2af" d="M 269.5,516.5 C 267.65,518.572 265.317,519.905 262.5,520.5C 264.027,517.932 266.361,516.599 269.5,516.5 Z"/></g>
<g><path style="opacity:1" fill="#bbada8" d="M 237.5,516.5 C 241.193,517.629 244.193,519.629 246.5,522.5C 242.912,521.222 239.912,519.222 237.5,516.5 Z"/></g>
<g><path style="opacity:1" fill="#beb5b2" d="M 261.5,520.5 C 260.329,521.345 258.995,522.011 257.5,522.5C 258.183,520.824 259.517,520.157 261.5,520.5 Z"/></g>
<g><path style="opacity:1" fill="#c8c4c3" d="M 623.5,522.5 C 625.54,523.86 627.54,525.193 629.5,526.5C 626.446,526.646 624.446,525.313 623.5,522.5 Z"/></g>
<g><path style="opacity:1" fill="#c3bbb8" d="M 629.5,526.5 C 635.628,529.298 639.628,533.965 641.5,540.5C 638.157,535.36 634.157,530.694 629.5,526.5 Z"/></g>
<g><path style="opacity:1" fill="#bba9a4" d="M 642.5,546.5 C 644.267,548.792 645.267,551.458 645.5,554.5C 643.415,552.316 642.415,549.649 642.5,546.5 Z"/></g>
<g><path style="opacity:1" fill="#c4bdbb" d="M 277.5,512.5 C 279.078,513.066 280.412,514.066 281.5,515.5C 283.928,522.242 287.094,528.575 291,534.5C 292.231,544.934 291.064,554.934 287.5,564.5C 289.867,554.964 290.701,545.298 290,535.5C 286.272,527.527 282.105,519.86 277.5,512.5 Z"/></g>
<g><path style="opacity:1" fill="#c6c2c1" d="M 645.5,554.5 C 650.134,563.768 654.801,573.101 659.5,582.5C 658.624,582.631 657.957,582.298 657.5,581.5C 652.649,572.805 648.649,563.805 645.5,554.5 Z"/></g>
<g><path style="opacity:1" fill="#bfb2af" d="M 287.5,564.5 C 287.708,566.92 287.374,569.253 286.5,571.5C 287.5,573.5 288.5,575.5 289.5,577.5C 299.13,582.706 308.796,587.706 318.5,592.5C 318.768,594.099 318.434,595.432 317.5,596.5C 316.969,594.376 315.635,592.876 313.5,592C 305.144,587.49 296.811,582.99 288.5,578.5C 284.854,573.973 284.521,569.306 287.5,564.5 Z"/></g>
<g><path style="opacity:1" fill="#c7c4c2" d="M 659.5,582.5 C 660.807,584.46 662.14,586.46 663.5,588.5C 660.687,587.554 659.354,585.554 659.5,582.5 Z"/></g>
<g><path style="opacity:1" fill="#c0b7b4" d="M 317.5,596.5 C 317.843,598.483 317.176,599.817 315.5,600.5C 315.989,599.005 316.655,597.671 317.5,596.5 Z"/></g>
<g><path style="opacity:1" fill="#c1b8b5" d="M 663.5,588.5 C 666.15,592.454 668.817,596.454 671.5,600.5C 669.922,599.934 668.588,598.934 667.5,597.5C 665.636,594.668 664.303,591.668 663.5,588.5 Z"/></g>
<g><path style="opacity:1" fill="#c4bdbb" d="M 315.5,600.5 C 315.646,603.554 314.313,605.554 311.5,606.5C 312.86,604.46 314.193,602.46 315.5,600.5 Z"/></g>
<g><path style="opacity:1" fill="#c7c3c2" d="M 671.5,600.5 C 673.988,603.466 675.988,606.799 677.5,610.5C 674.524,607.904 672.524,604.57 671.5,600.5 Z"/></g>
<g><path style="opacity:1" fill="#c0b6b2" d="M 677.5,610.5 C 678.807,612.46 680.14,614.46 681.5,616.5C 678.687,615.554 677.354,613.554 677.5,610.5 Z"/></g>
<g><path style="opacity:1" fill="#beb0ab" d="M 311.5,606.5 C 311.672,608.492 311.005,610.158 309.5,611.5C 314.637,614.477 319.803,617.477 325,620.5C 330.086,617.933 334.586,618.599 338.5,622.5C 335.64,622.072 332.974,621.072 330.5,619.5C 328.764,620.425 326.93,621.092 325,621.5C 321.058,620.611 317.558,618.778 314.5,616C 307.856,614.59 306.856,611.423 311.5,606.5 Z"/></g>
<g><path style="opacity:1" fill="#c3bdbb" d="M 681.5,616.5 C 683.488,619.128 685.488,621.795 687.5,624.5C 684.066,622.987 682.066,620.32 681.5,616.5 Z"/></g>
<g><path style="opacity:1" fill="#b3958c" d="M 339.5,622.5 C 341.916,624.705 341.916,626.705 339.5,628.5C 339.5,626.5 339.5,624.5 339.5,622.5 Z"/></g>
<g><path style="opacity:1" fill="#bfb3af" d="M 688.5,626.5 C 691.783,628.124 694.783,630.124 697.5,632.5C 696.022,632.762 694.689,632.429 693.5,631.5C 691.591,629.92 689.925,628.253 688.5,626.5 Z"/></g>
<g><path style="opacity:1" fill="#c5c0bd" d="M 337.5,630.5 C 338.833,633.833 340.167,637.167 341.5,640.5C 339.692,638.174 338.025,635.674 336.5,633C 336.528,631.93 336.861,631.097 337.5,630.5 Z"/></g>
<g><path style="opacity:1" fill="#c4bdbb" d="M 701.5,636.5 C 708.167,641.833 714.167,647.833 719.5,654.5C 712.833,649.167 706.833,643.167 701.5,636.5 Z"/></g>
<g><path style="opacity:1" fill="#c0b4b0" d="M 341.5,640.5 C 343.439,641.014 344.439,642.347 344.5,644.5C 343.833,646.5 343.167,648.5 342.5,650.5C 342.919,651.672 343.585,652.672 344.5,653.5C 367.824,654.5 391.157,654.833 414.5,654.5C 414.5,654.833 414.5,655.167 414.5,655.5C 390.831,655.667 367.164,655.5 343.5,655C 340.923,651.738 340.923,648.405 343.5,645C 342.733,643.53 342.067,642.03 341.5,640.5 Z"/></g>
<g><path style="opacity:1" fill="#b39990" d="M 414.5,655.5 C 414.5,655.167 414.5,654.833 414.5,654.5C 426.171,654.333 437.838,654.5 449.5,655C 450.056,655.383 450.389,655.883 450.5,656.5C 450.167,656.5 449.833,656.5 449.5,656.5C 437.914,655.522 426.247,655.189 414.5,655.5 Z"/></g>
<g><path style="opacity:1" fill="#bbafac" d="M 719.5,654.5 C 721.04,656.838 721.706,659.505 721.5,662.5C 720.232,660.095 719.565,657.428 719.5,654.5 Z"/></g>
<g><path style="opacity:1" fill="#c9c7c6" d="M 449.5,656.5 C 449.833,656.5 450.167,656.5 450.5,656.5C 452.83,660.492 455.163,664.492 457.5,668.5C 453.868,665.263 451.201,661.263 449.5,656.5 Z"/></g>
<g><path style="opacity:1" fill="#c8c3c2" d="M 721.5,662.5 C 722.285,664.374 722.952,666.374 723.5,668.5C 721.692,667.082 721.025,665.082 721.5,662.5 Z"/></g>
<g><path style="opacity:1" fill="#bbafac" d="M 723.5,668.5 C 724.881,675.729 726.215,683.063 727.5,690.5C 726.25,690.423 725.417,689.756 725,688.5C 724.665,681.809 724.165,675.143 723.5,668.5 Z"/></g>
<g><path style="opacity:1" fill="#bfb3af" d="M 457.5,668.5 C 465.6,669.535 472.267,673.202 477.5,679.5C 478.036,683.764 476.369,687.097 472.5,689.5C 473.309,691.071 473.643,692.738 473.5,694.5C 472.5,694.5 471.5,694.5 470.5,694.5C 471.091,693.849 471.757,693.182 472.5,692.5C 471.691,690.929 471.357,689.262 471.5,687.5C 472.675,687.719 473.675,687.386 474.5,686.5C 476.31,684.293 476.643,681.959 475.5,679.5C 473.489,677.322 471.322,675.322 469,673.5C 464.803,672.347 460.969,670.681 457.5,668.5 Z"/></g>
<g><path style="opacity:1" fill="#bcada8" d="M 727.5,690.5 C 728.404,691.209 728.737,692.209 728.5,693.5C 733.669,694.669 737.335,697.669 739.5,702.5C 736.182,698.955 732.182,696.288 727.5,694.5C 727.5,693.167 727.5,691.833 727.5,690.5 Z"/></g>
<g><path style="opacity:1" fill="#c0b7b3" d="M 739.5,702.5 C 740.345,703.671 741.011,705.005 741.5,706.5C 739.824,705.817 739.157,704.483 739.5,702.5 Z"/></g>
<g><path style="opacity:1" fill="#c8c5c5" d="M 741.5,706.5 C 742.738,708.214 743.405,710.214 743.5,712.5C 741.926,710.898 741.259,708.898 741.5,706.5 Z"/></g>
<g><path style="opacity:1" fill="#bfb4b2" d="M 743.5,712.5 C 748.982,721.232 749.982,730.565 746.5,740.5C 746.863,741.183 747.196,741.85 747.5,742.5C 746.414,742.38 745.747,741.713 745.5,740.5C 746.167,735.833 746.833,731.167 747.5,726.5C 745.85,721.897 744.517,717.231 743.5,712.5 Z"/></g>
<g><path style="opacity:1" fill="#c3bdbb" d="M 609.5,760.5 C 606.693,756.901 604.359,752.901 602.5,748.5C 600.833,746.833 599.167,745.167 597.5,743.5C 596.431,744.91 595.097,745.91 593.5,746.5C 594.505,743.331 596.505,742.331 599.5,743.5C 604.14,748.455 607.474,754.121 609.5,760.5 Z"/></g>
<g><path style="opacity:1" fill="#c4bebc" d="M 747.5,742.5 C 749.488,745.128 751.488,747.795 753.5,750.5C 750.066,748.987 748.066,746.32 747.5,742.5 Z"/></g>
<g><path style="opacity:1" fill="#bcada9" d="M 593.5,746.5 C 591.664,748.588 589.331,749.921 586.5,750.5C 588.027,747.932 590.361,746.599 593.5,746.5 Z"/></g>
<g><path style="opacity:1" fill="#beb2af" d="M 753.5,750.5 C 754.738,752.214 755.405,754.214 755.5,756.5C 753.926,754.898 753.259,752.898 753.5,750.5 Z"/></g>
<g><path style="opacity:1" fill="#bfb6b3" d="M 470.5,694.5 C 468.793,699.875 465.126,702.542 459.5,702.5C 459.418,709.851 459.751,717.184 460.5,724.5C 460.599,728.005 459.932,731.338 458.5,734.5C 459.797,742.159 459.797,749.826 458.5,757.5C 458.621,758.894 458.954,760.228 459.5,761.5C 462.337,762.331 464.504,763.998 466,766.5C 466.435,771.184 466.935,775.851 467.5,780.5C 469.781,780.077 471.448,780.744 472.5,782.5C 470.565,781.85 468.565,781.517 466.5,781.5C 465.935,776.851 465.435,772.184 465,767.5C 463.279,765.282 461.112,763.615 458.5,762.5C 457.923,760.894 457.59,759.228 457.5,757.5C 458.792,749.829 458.792,742.163 457.5,734.5C 458.612,731.437 459.279,728.271 459.5,725C 458.659,717.189 458.326,709.356 458.5,701.5C 460.604,701.799 462.604,701.466 464.5,700.5C 466.068,697.993 468.068,695.993 470.5,694.5 Z"/></g>
<g><path style="opacity:1" fill="#c8c5c3" d="M 585.5,752.5 C 583.54,753.807 581.54,755.14 579.5,756.5C 580.446,753.687 582.446,752.354 585.5,752.5 Z"/></g>
<g><path style="opacity:1" fill="#c3bbb9" d="M 577.5,758.5 C 574.863,760.46 572.197,762.46 569.5,764.5C 571.025,760.975 573.691,758.975 577.5,758.5 Z"/></g>
<g><path style="opacity:1" fill="#bdb0ac" d="M 569.5,764.5 C 566.777,766.885 563.777,768.885 560.5,770.5C 561.925,768.747 563.591,767.08 565.5,765.5C 566.689,764.571 568.022,764.238 569.5,764.5 Z"/></g>
<g><path style="opacity:1" fill="#bcaca8" d="M 756.5,762.5 C 757.87,764.25 758.87,766.25 759.5,768.5C 757.031,767.393 756.031,765.393 756.5,762.5 Z"/></g>
<g><path style="opacity:1" fill="#c3bbb8" d="M 609.5,760.5 C 610.376,760.369 611.043,760.702 611.5,761.5C 614.024,767.335 616.69,773.001 619.5,778.5C 618.206,777.71 617.039,776.71 616,775.5C 614.375,770.251 612.208,765.251 609.5,760.5 Z"/></g>
<g><path style="opacity:1" fill="#c2bcba" d="M 559.5,772.5 C 556.863,774.46 554.197,776.46 551.5,778.5C 553.025,774.975 555.691,772.975 559.5,772.5 Z"/></g>
<g><path style="opacity:1" fill="#fdfdfd" d="M 765.5,777.5 C 765.5,788.833 765.5,800.167 765.5,811.5C 730.167,811.5 694.833,811.5 659.5,811.5C 663.97,810.514 668.637,810.181 673.5,810.5C 677.605,809.891 681.605,809.225 685.5,808.5C 690.167,808.5 694.833,808.5 699.5,808.5C 703.4,807.57 707.4,807.237 711.5,807.5C 717.003,807.46 722.336,806.626 727.5,805C 732.235,802.899 737.235,801.565 742.5,801C 743.571,800.148 744.571,799.315 745.5,798.5C 745.5,797.167 746.167,796.5 747.5,796.5C 754.569,791.1 760.569,784.767 765.5,777.5 Z"/></g>
<g><path style="opacity:1" fill="#bcaeaa" d="M 551.5,778.5 C 547.386,782.064 543.052,785.397 538.5,788.5C 540.78,784.886 543.78,781.886 547.5,779.5C 548.689,778.571 550.022,778.238 551.5,778.5 Z"/></g>
<g><path style="opacity:1" fill="#bfb3b0" d="M 473.5,784.5 C 476.343,784.917 479.01,785.917 481.5,787.5C 482.612,788.265 483.279,789.265 483.5,790.5C 479.995,788.678 476.662,786.678 473.5,784.5 Z"/></g>
<g><path style="opacity:1" fill="#bfb4b0" d="M 623.5,780.5 C 626.287,783.304 628.287,786.637 629.5,790.5C 627.852,788.571 626.185,786.571 624.5,784.5C 623.754,783.264 623.421,781.93 623.5,780.5 Z"/></g>
<g><path style="opacity:1" fill="#c0b7b4" d="M 759.5,768.5 C 760.66,771.092 762.66,772.759 765.5,773.5C 765.5,774.833 765.5,776.167 765.5,777.5C 760.569,784.767 754.569,791.1 747.5,796.5C 753.878,790.117 759.544,783.117 764.5,775.5C 761.23,774.241 759.563,771.908 759.5,768.5 Z"/></g>
<g><path style="opacity:1" fill="#c8c5c4" d="M 538.5,788.5 C 537.147,790.183 535.48,791.516 533.5,792.5C 534.265,790.071 535.931,788.738 538.5,788.5 Z"/></g>
<g><path style="opacity:1" fill="#c0b8b5" d="M 631.5,792.5 C 632.978,792.238 634.311,792.571 635.5,793.5C 639.167,797.167 642.833,800.833 646.5,804.5C 647.429,805.689 647.762,807.022 647.5,808.5C 642.833,802.5 637.5,797.167 631.5,792.5 Z"/></g>
<g><path style="opacity:1" fill="#beb1ad" d="M 531.5,794.5 C 526.48,798.845 521.146,802.845 515.5,806.5C 517.78,802.886 520.78,799.886 524.5,797.5C 526.512,795.659 528.845,794.659 531.5,794.5 Z"/></g>
<g><path style="opacity:1" fill="#c3b8b5" d="M 745.5,798.5 C 744.571,799.315 743.571,800.148 742.5,801C 737.235,801.565 732.235,802.899 727.5,805C 722.336,806.626 717.003,807.46 711.5,807.5C 711.5,807.167 711.5,806.833 711.5,806.5C 713.857,806.663 716.19,806.497 718.5,806C 727.314,803.234 736.314,800.734 745.5,798.5 Z"/></g>
<g><path style="opacity:1" fill="#beb1ad" d="M 503.5,798.5 C 508.056,800.4 512.056,803.066 515.5,806.5C 514.614,807.776 513.614,807.776 512.5,806.5C 509.409,803.731 506.409,801.065 503.5,798.5 Z"/></g>
<g><path style="opacity:1" fill="#b49990" d="M 711.5,806.5 C 711.5,806.833 711.5,807.167 711.5,807.5C 707.4,807.237 703.4,807.57 699.5,808.5C 703.029,806.577 707.029,805.911 711.5,806.5 Z"/></g>
<g><path style="opacity:1" fill="#b49991" d="M 685.5,808.5 C 681.605,809.225 677.605,809.891 673.5,810.5C 677.029,808.577 681.029,807.911 685.5,808.5 Z"/></g>
</svg>
