<?xml version="1.0" encoding="UTF-8"?>
<!DOCTYPE svg PUBLIC "-//W3C//DTD SVG 1.1//EN" "http://www.w3.org/Graphics/SVG/1.1/DTD/svg11.dtd">
<svg xmlns="http://www.w3.org/2000/svg" version="1.1" width="782px" height="1048px" style="shape-rendering:geometricPrecision; text-rendering:geometricPrecision; image-rendering:optimizeQuality; fill-rule:evenodd; clip-rule:evenodd" xmlns:xlink="http://www.w3.org/1999/xlink">
<g><path style="opacity:1" fill="#fefefe" d="M -0.5,-0.5 C 192.167,-0.5 384.833,-0.5 577.5,-0.5C 576.9,0.899922 575.9,1.89992 574.5,2.5C 571.196,6.80564 567.529,10.8056 563.5,14.5C 557.601,18.3911 552.268,23.0578 547.5,28.5C 546.675,29.3857 545.675,29.719 544.5,29.5C 544.5,30.5 544.5,31.5 544.5,32.5C 540.528,35.4704 536.862,38.8037 533.5,42.5C 526.882,46.7834 521.215,52.1167 516.5,58.5C 511.86,62.1384 507.527,66.1384 503.5,70.5C 502.099,70.9709 500.766,71.6376 499.5,72.5C 493.363,78.2964 487.696,84.2964 482.5,90.5C 479.197,92.8018 476.197,95.4685 473.5,98.5C 467.439,103.245 461.439,107.911 455.5,112.5C 451.441,114.201 447.441,115.868 443.5,117.5C 441.011,117.241 439.344,118.241 438.5,120.5C 437.833,120.5 437.167,120.5 436.5,120.5C 432.919,121.399 429.586,122.732 426.5,124.5C 426.5,124.833 426.5,125.167 426.5,125.5C 423.31,126.181 420.31,127.181 417.5,128.5C 403.619,136.258 389.286,143.258 374.5,149.5C 371.31,150.181 368.31,151.181 365.5,152.5C 355.834,157.999 345.834,162.999 335.5,167.5C 334.167,167.5 332.833,167.5 331.5,167.5C 331.5,164.833 331.5,162.167 331.5,159.5C 330.041,159.567 328.708,159.234 327.5,158.5C 327.167,158.5 326.833,158.5 326.5,158.5C 322.981,157.192 319.315,157.192 315.5,158.5C 312.691,161.038 309.357,162.038 305.5,161.5C 304.766,160.292 304.433,158.959 304.5,157.5C 301.63,152.619 297.964,148.286 293.5,144.5C 287.839,140.499 282.505,136.165 277.5,131.5C 277.5,131.167 277.5,130.833 277.5,130.5C 277.771,128.62 277.104,127.287 275.5,126.5C 274.662,126.158 274.328,125.492 274.5,124.5C 273.272,121.27 270.939,119.604 267.5,119.5C 265.185,118.508 263.518,116.842 262.5,114.5C 262.144,112.81 261.144,111.81 259.5,111.5C 259.5,111.167 259.5,110.833 259.5,110.5C 249.326,109.833 238.992,109.167 228.5,108.5C 225.651,106.277 222.984,103.944 220.5,101.5C 220.123,99.742 219.456,98.0754 218.5,96.5C 211.324,93.5518 203.99,91.2184 196.5,89.5C 194.199,88.9396 191.866,88.4396 189.5,88C 188.944,87.6174 188.611,87.1174 188.5,86.5C 183.652,85.1863 178.652,85.1863 173.5,86.5C 151.596,91.4385 129.929,96.7718 108.5,102.5C 106.833,102.5 105.167,102.5 103.5,102.5C 70.024,109.593 36.6907,116.927 3.5,124.5C 3.5,124.833 3.5,125.167 3.5,125.5C 1.95186,125.821 1.28519,126.821 1.5,128.5C 1.5,128.833 1.5,129.167 1.5,129.5C 0.833333,129.5 0.166667,129.5 -0.5,129.5C -0.5,86.1667 -0.5,42.8333 -0.5,-0.5 Z"/></g>
<g><path style="opacity:1" fill="#d0d4d5" d="M 577.5,-0.5 C 578.833,-0.5 580.167,-0.5 581.5,-0.5C 581.5,0.5 581.5,1.5 581.5,2.5C 580.849,1.90935 580.182,1.24269 579.5,0.5C 578.158,2.00488 576.492,2.67154 574.5,2.5C 575.9,1.89992 576.9,0.899922 577.5,-0.5 Z"/></g>
<g><path style="opacity:1" fill="#fefefe" d="M 581.5,-0.5 C 648.167,-0.5 714.833,-0.5 781.5,-0.5C 781.5,316.167 781.5,632.833 781.5,949.5C 780.833,949.167 780.167,948.833 779.5,948.5C 778.122,947.455 777.122,946.122 776.5,944.5C 774.302,943.835 771.969,943.168 769.5,942.5C 768.412,941.066 767.078,940.066 765.5,939.5C 764.586,936.272 764.253,932.939 764.5,929.5C 763.85,927.565 763.517,925.565 763.5,923.5C 765.339,921.347 766.339,918.68 766.5,915.5C 767.674,914.486 768.34,913.153 768.5,911.5C 768.234,907.429 768.567,903.429 769.5,899.5C 767.652,894.126 765.985,888.793 764.5,883.5C 764.446,881.368 763.446,880.035 761.5,879.5C 761.5,879.167 761.5,878.833 761.5,878.5C 760.247,875.88 758.914,873.213 757.5,870.5C 757.043,869.702 756.376,869.369 755.5,869.5C 755.167,868.833 754.833,868.167 754.5,867.5C 754.446,865.368 753.446,864.035 751.5,863.5C 749.895,860.622 748.561,857.622 747.5,854.5C 746.963,851.964 745.63,849.964 743.5,848.5C 742.833,848.5 742.5,848.167 742.5,847.5C 742.446,845.368 741.446,844.035 739.5,843.5C 739.167,842.833 738.833,842.167 738.5,841.5C 737.85,839.565 737.517,837.565 737.5,835.5C 738.794,833.952 739.461,831.952 739.5,829.5C 739.461,827.048 738.794,825.048 737.5,823.5C 737.5,822.5 737.5,821.5 737.5,820.5C 737.448,818.097 737.781,815.764 738.5,813.5C 739.674,812.486 740.34,811.153 740.5,809.5C 741.749,805.008 743.083,800.508 744.5,796C 739.058,784.404 736.392,772.238 736.5,759.5C 736.34,757.847 735.674,756.514 734.5,755.5C 732.848,751.181 729.848,748.181 725.5,746.5C 724.662,746.158 724.328,745.492 724.5,744.5C 718.91,743.54 713.91,741.207 709.5,737.5C 708.473,735.816 707.473,734.149 706.5,732.5C 703.417,728.765 700.417,725.098 697.5,721.5C 697.167,720.833 696.833,720.167 696.5,719.5C 696.337,716.417 696.003,713.417 695.5,710.5C 694.833,710.5 694.5,710.167 694.5,709.5C 694.887,705.721 696.553,702.721 699.5,700.5C 699.5,698.5 699.5,696.5 699.5,694.5C 700.01,691.612 699.344,689.279 697.5,687.5C 697.33,683.356 697.997,679.356 699.5,675.5C 698.648,671.869 697.981,668.202 697.5,664.5C 698.01,661.612 697.344,659.279 695.5,657.5C 695.167,656.833 694.833,656.167 694.5,655.5C 694.34,653.847 693.674,652.514 692.5,651.5C 691.37,649.685 690.704,647.685 690.5,645.5C 689.96,641.358 689.294,637.358 688.5,633.5C 687.993,632.141 686.993,631.141 685.5,630.5C 676.369,626.601 667.036,623.268 657.5,620.5C 654.827,618.563 652.827,616.23 651.5,613.5C 650.681,611.228 650.015,608.894 649.5,606.5C 650.01,603.612 649.344,601.279 647.5,599.5C 647.5,597.833 647.5,596.167 647.5,594.5C 648.01,591.612 647.344,589.279 645.5,587.5C 645.833,586.167 646.167,584.833 646.5,583.5C 647.674,582.486 648.34,581.153 648.5,579.5C 648.433,578.041 648.766,576.708 649.5,575.5C 651.344,573.721 652.01,571.388 651.5,568.5C 653.234,564.651 652.567,561.318 649.5,558.5C 649.24,551.443 649.573,544.443 650.5,537.5C 650.294,534.505 650.96,531.838 652.5,529.5C 653.674,528.486 654.34,527.153 654.5,525.5C 655.5,524.167 656.5,522.833 657.5,521.5C 659.446,520.965 660.446,519.632 660.5,517.5C 661.6,516.395 662.267,515.062 662.5,513.5C 661.735,510.904 661.401,508.237 661.5,505.5C 663.845,502.805 665.845,499.805 667.5,496.5C 668.833,493.833 668.833,491.167 667.5,488.5C 665.235,483.899 661.901,480.233 657.5,477.5C 654.586,471.845 652.92,465.845 652.5,459.5C 651.974,455.688 651.307,452.021 650.5,448.5C 650.721,445.721 650.388,443.054 649.5,440.5C 649.416,437.318 648.083,434.985 645.5,433.5C 645.5,432.833 645.167,432.5 644.5,432.5C 641.099,424.791 635.099,421.124 626.5,421.5C 625.167,416.833 625.167,412.167 626.5,407.5C 627.674,406.486 628.34,405.153 628.5,403.5C 628.443,401.116 628.777,398.782 629.5,396.5C 628.795,389.357 627.795,382.357 626.5,375.5C 626.125,373.302 625.458,371.302 624.5,369.5C 624.34,367.847 623.674,366.514 622.5,365.5C 622.446,363.368 621.446,362.035 619.5,361.5C 619.5,360.833 619.167,360.5 618.5,360.5C 618.5,359.5 618.5,358.5 618.5,357.5C 617.325,357.719 616.325,357.386 615.5,356.5C 611.008,352.134 607.008,347.468 603.5,342.5C 602.5,341.5 601.5,340.5 600.5,339.5C 600.446,337.368 599.446,336.035 597.5,335.5C 597.5,335.167 597.5,334.833 597.5,334.5C 598.01,331.612 597.344,329.279 595.5,327.5C 594.649,322.239 594.649,316.906 595.5,311.5C 596.693,311.03 597.36,310.03 597.5,308.5C 597.36,306.97 596.693,305.97 595.5,305.5C 594.236,298.123 594.236,290.79 595.5,283.5C 598.582,282.086 600.582,279.752 601.5,276.5C 601.54,273.575 600.707,270.909 599,268.5C 598.667,260.833 598.333,253.167 598,245.5C 597.153,243.146 596.32,240.812 595.5,238.5C 595.598,236.447 594.931,234.78 593.5,233.5C 593.5,233.167 593.5,232.833 593.5,232.5C 592.676,228.054 590.676,224.388 587.5,221.5C 587.5,220.167 587.5,218.833 587.5,217.5C 589.288,216.64 590.955,215.64 592.5,214.5C 592.842,213.662 593.508,213.328 594.5,213.5C 595.5,213.5 596.5,213.5 597.5,213.5C 597.806,210.615 597.473,207.948 596.5,205.5C 591.597,189.856 588.263,173.856 586.5,157.5C 586.34,155.847 585.674,154.514 584.5,153.5C 584.446,151.368 583.446,150.035 581.5,149.5C 580.159,147.166 580.826,145.499 583.5,144.5C 583.723,140.057 583.723,135.39 583.5,130.5C 584.93,126.646 586.597,122.979 588.5,119.5C 589.16,118.036 589.493,116.369 589.5,114.5C 589.444,112.36 588.777,110.694 587.5,109.5C 586.99,106.461 586.323,103.461 585.5,100.5C 583.33,95.6399 582.997,90.6399 584.5,85.5C 584.833,84.5 585.5,83.8333 586.5,83.5C 587.147,82.7261 587.48,81.7261 587.5,80.5C 586.721,77.9557 585.721,75.6224 584.5,73.5C 584.446,71.368 583.446,70.0347 581.5,69.5C 578.047,65.2101 576.38,60.2101 576.5,54.5C 577.581,48.7619 578.914,43.0953 580.5,37.5C 581.475,34.5755 582.475,31.5755 583.5,28.5C 585.339,22.7782 583.506,18.4449 578,15.5C 577.235,13.9343 577.402,12.6009 578.5,11.5C 580.49,9.83655 582.157,7.83655 583.5,5.5C 583.253,4.28665 582.586,3.61998 581.5,3.5C 581.5,3.16667 581.5,2.83333 581.5,2.5C 581.5,1.5 581.5,0.5 581.5,-0.5 Z"/></g>
<g><path style="opacity:1" fill="#78e2ea" d="M 581.5,2.5 C 581.5,2.83333 581.5,3.16667 581.5,3.5C 581.804,4.14987 582.137,4.81654 582.5,5.5C 580.31,7.00688 578.976,9.00688 578.5,11.5C 577.402,12.6009 577.235,13.9343 578,15.5C 583.506,18.4449 585.339,22.7782 583.5,28.5C 581.049,30.896 580.049,33.896 580.5,37.5C 578.914,43.0953 577.581,48.7619 576.5,54.5C 576.38,60.2101 578.047,65.2101 581.5,69.5C 582.026,71.2303 583.026,72.5637 584.5,73.5C 585.167,76.8333 585.833,80.1667 586.5,83.5C 585.5,83.8333 584.833,84.5 584.5,85.5C 583.883,85.6107 583.383,85.944 583,86.5C 582.173,90.5411 582.34,94.5411 583.5,98.5C 584.182,99.2427 584.849,99.9094 585.5,100.5C 586.323,103.461 586.99,106.461 587.5,109.5C 588.414,112.728 588.747,116.061 588.5,119.5C 586.597,122.979 584.93,126.646 583.5,130.5C 582.256,135.035 582.256,139.702 583.5,144.5C 580.826,145.499 580.159,147.166 581.5,149.5C 582.026,151.23 583.026,152.564 584.5,153.5C 584.229,155.38 584.896,156.713 586.5,157.5C 588.263,173.856 591.597,189.856 596.5,205.5C 596.868,208.533 596.202,211.2 594.5,213.5C 593.508,213.328 592.842,213.662 592.5,214.5C 590.011,214.241 588.344,215.241 587.5,217.5C 587.5,218.833 587.5,220.167 587.5,221.5C 589.096,225.418 591.096,229.085 593.5,232.5C 593.5,232.833 593.5,233.167 593.5,233.5C 593.402,235.553 594.069,237.22 595.5,238.5C 596.32,240.812 597.153,243.146 598,245.5C 598.333,253.167 598.667,260.833 599,268.5C 600.707,270.909 601.54,273.575 601.5,276.5C 599.155,278.514 597.155,280.847 595.5,283.5C 594.236,290.79 594.236,298.123 595.5,305.5C 596.833,307.5 596.833,309.5 595.5,311.5C 594.649,316.906 594.649,322.239 595.5,327.5C 596.065,329.952 596.732,332.285 597.5,334.5C 597.5,334.833 597.5,335.167 597.5,335.5C 598.026,337.23 599.026,338.564 600.5,339.5C 601.5,340.5 602.5,341.5 603.5,342.5C 606.671,350.006 611.671,356.006 618.5,360.5C 619.167,360.5 619.5,360.833 619.5,361.5C 620.026,363.23 621.026,364.564 622.5,365.5C 622.229,367.38 622.896,368.713 624.5,369.5C 624.054,372.01 624.72,374.01 626.5,375.5C 627.795,382.357 628.795,389.357 629.5,396.5C 628.777,398.782 628.443,401.116 628.5,403.5C 626.896,404.287 626.229,405.62 626.5,407.5C 625.883,407.611 625.383,407.944 625,408.5C 624.333,412.5 624.333,416.5 625,420.5C 625.383,421.056 625.883,421.389 626.5,421.5C 633.999,422.588 639.999,426.255 644.5,432.5C 645.167,432.5 645.5,432.833 645.5,433.5C 646.596,436.032 647.929,438.365 649.5,440.5C 650.388,443.054 650.721,445.721 650.5,448.5C 650.335,451.85 650.502,455.183 651,458.5C 651.383,459.056 651.883,459.389 652.5,459.5C 652.92,465.845 654.586,471.845 657.5,477.5C 660.492,481.492 663.826,485.158 667.5,488.5C 668.833,491.167 668.833,493.833 667.5,496.5C 664.697,498.627 662.697,501.294 661.5,504.5C 660.366,506.966 660.199,509.633 661,512.5C 661.383,513.056 661.883,513.389 662.5,513.5C 662.267,515.062 661.6,516.395 660.5,517.5C 659.026,518.436 658.026,519.77 657.5,521.5C 656.5,522.833 655.5,524.167 654.5,525.5C 652.896,526.287 652.229,527.62 652.5,529.5C 650.96,531.838 650.294,534.505 650.5,537.5C 649.883,537.611 649.383,537.944 649,538.5C 648.179,545.346 648.346,552.013 649.5,558.5C 652.567,561.318 653.234,564.651 651.5,568.5C 650.732,570.715 650.065,573.048 649.5,575.5C 648.766,576.708 648.433,578.041 648.5,579.5C 646.896,580.287 646.229,581.62 646.5,583.5C 646.167,584.833 645.833,586.167 645.5,587.5C 646.065,589.952 646.732,592.285 647.5,594.5C 647.5,596.167 647.5,597.833 647.5,599.5C 648.065,601.952 648.732,604.285 649.5,606.5C 650.015,608.894 650.681,611.228 651.5,613.5C 651.726,617.092 653.392,619.759 656.5,621.5C 667.408,624.958 678.074,628.958 688.5,633.5C 688.335,637.182 688.501,640.848 689,644.5C 689.383,645.056 689.883,645.389 690.5,645.5C 690.704,647.685 691.37,649.685 692.5,651.5C 692.229,653.38 692.896,654.713 694.5,655.5C 694.833,656.167 695.167,656.833 695.5,657.5C 696.065,659.952 696.732,662.285 697.5,664.5C 697.981,668.202 698.648,671.869 699.5,675.5C 697.997,679.356 697.33,683.356 697.5,687.5C 698.065,689.952 698.732,692.285 699.5,694.5C 699.5,696.5 699.5,698.5 699.5,700.5C 695.756,701.439 693.756,703.939 693.5,708C 693.57,708.765 693.903,709.265 694.5,709.5C 694.5,710.167 694.833,710.5 695.5,710.5C 695.489,712.547 695.156,714.547 694.5,716.5C 694.453,718.038 695.12,719.038 696.5,719.5C 696.833,720.167 697.167,720.833 697.5,721.5C 699.072,726.399 702.072,730.065 706.5,732.5C 707.473,734.149 708.473,735.816 709.5,737.5C 713.019,742.757 718.019,745.09 724.5,744.5C 724.328,745.492 724.662,746.158 725.5,746.5C 728.463,749.463 731.463,752.463 734.5,755.5C 734.229,757.38 734.896,758.713 736.5,759.5C 736.392,772.238 739.058,784.404 744.5,796C 743.083,800.508 741.749,805.008 740.5,809.5C 738.896,810.287 738.229,811.62 738.5,813.5C 737.007,814.312 736.34,815.645 736.5,817.5C 736.52,818.726 736.853,819.726 737.5,820.5C 737.5,821.5 737.5,822.5 737.5,823.5C 738.787,827.268 738.787,830.935 737.5,834.5C 736.853,835.274 736.52,836.274 736.5,837.5C 736.34,839.355 737.007,840.688 738.5,841.5C 738.833,842.167 739.167,842.833 739.5,843.5C 740.026,845.23 741.026,846.564 742.5,847.5C 742.5,848.167 742.833,848.5 743.5,848.5C 744.057,851.05 745.39,853.05 747.5,854.5C 748.561,857.622 749.895,860.622 751.5,863.5C 752.026,865.23 753.026,866.564 754.5,867.5C 754.833,868.167 755.167,868.833 755.5,869.5C 756.769,873.054 758.769,876.054 761.5,878.5C 761.5,878.833 761.5,879.167 761.5,879.5C 762.026,881.23 763.026,882.564 764.5,883.5C 765.985,888.793 767.652,894.126 769.5,899.5C 768.567,903.429 768.234,907.429 768.5,911.5C 766.896,912.287 766.229,913.62 766.5,915.5C 764.98,917.588 763.98,919.922 763.5,922.5C 762.853,923.274 762.52,924.274 762.5,925.5C 762.34,927.355 763.007,928.688 764.5,929.5C 764.253,932.939 764.586,936.272 765.5,939.5C 767.859,943.695 771.525,945.362 776.5,944.5C 777.122,946.122 778.122,947.455 779.5,948.5C 780.299,951.43 780.632,954.43 780.5,957.5C 779.167,958.833 777.833,960.167 776.5,961.5C 773.134,962.199 771.134,964.199 770.5,967.5C 768.912,969.113 767.912,971.113 767.5,973.5C 766.404,976.032 765.071,978.365 763.5,980.5C 762.355,984.311 762.188,988.311 763,992.5C 763.383,993.056 763.883,993.389 764.5,993.5C 764.433,994.959 764.766,996.292 765.5,997.5C 766.484,999.48 767.817,1001.15 769.5,1002.5C 769.5,1002.83 769.5,1003.17 769.5,1003.5C 770.026,1005.23 771.026,1006.56 772.5,1007.5C 772.229,1009.38 772.896,1010.71 774.5,1011.5C 774.054,1014.01 774.72,1016.01 776.5,1017.5C 776.817,1020.57 776.484,1023.57 775.5,1026.5C 774.712,1025.23 773.712,1024.23 772.5,1023.5C 772.167,1022.83 771.833,1022.17 771.5,1021.5C 770.974,1019.77 769.974,1018.44 768.5,1017.5C 768.167,1016.83 767.833,1016.17 767.5,1015.5C 766.974,1013.77 765.974,1012.44 764.5,1011.5C 764.167,1010.83 763.833,1010.17 763.5,1009.5C 762.974,1007.77 761.974,1006.44 760.5,1005.5C 760.167,1004.83 759.833,1004.17 759.5,1003.5C 758.974,1001.77 757.974,1000.44 756.5,999.5C 754.417,996.754 751.75,994.754 748.5,993.5C 746.601,990.6 743.934,988.934 740.5,988.5C 737.594,988.084 734.761,987.418 732,986.5C 729.345,986.124 727.512,987.124 726.5,989.5C 716.973,993.562 706.973,995.229 696.5,994.5C 696.5,994.167 696.5,993.833 696.5,993.5C 693.275,992.763 689.941,992.097 686.5,991.5C 676.427,989.48 666.427,986.814 656.5,983.5C 648.634,980.045 640.634,976.711 632.5,973.5C 629.525,971.008 626.192,969.008 622.5,967.5C 620.272,966.623 618.272,965.29 616.5,963.5C 614.417,960.754 611.75,958.754 608.5,957.5C 608.167,956.5 607.5,955.833 606.5,955.5C 603.562,953.023 600.229,951.023 596.5,949.5C 587.158,948.425 577.825,947.425 568.5,946.5C 561.432,943.928 554.099,941.928 546.5,940.5C 546.03,939.307 545.03,938.64 543.5,938.5C 542.274,938.52 541.274,938.853 540.5,939.5C 538.194,941.139 536.194,943.139 534.5,945.5C 530.881,949.119 527.215,952.785 523.5,956.5C 522.614,957.325 522.281,958.325 522.5,959.5C 519.272,960.414 515.939,960.747 512.5,960.5C 511.082,958.692 509.082,958.025 506.5,958.5C 499.971,956.852 493.305,956.185 486.5,956.5C 481.03,957.395 475.697,958.395 470.5,959.5C 468.052,960.473 465.385,960.806 462.5,960.5C 459.918,960.025 457.918,960.692 456.5,962.5C 449.124,963.062 441.791,964.062 434.5,965.5C 426.528,966.498 418.528,966.831 410.5,966.5C 405.604,964.554 400.271,963.887 394.5,964.5C 387.745,964.793 381.078,964.46 374.5,963.5C 365.822,963.416 357.155,963.083 348.5,962.5C 345.663,960.598 342.329,959.931 338.5,960.5C 332.5,960.5 326.5,960.5 320.5,960.5C 314.926,958.547 308.926,957.88 302.5,958.5C 295.8,958.17 289.134,958.503 282.5,959.5C 278.452,963.548 274.452,967.548 270.5,971.5C 260.833,980.5 251.5,989.833 242.5,999.5C 241.099,999.971 239.766,1000.64 238.5,1001.5C 228.452,1011.55 218.452,1021.55 208.5,1031.5C 203.106,1035.89 198.439,1040.89 194.5,1046.5C 192.97,1045.79 191.637,1044.79 190.5,1043.5C 189.5,1042.17 188.5,1040.83 187.5,1039.5C 186.974,1037.77 185.974,1036.44 184.5,1035.5C 182.37,1029.59 182.036,1023.59 183.5,1017.5C 183.709,1010.28 183.709,1002.95 183.5,995.5C 182.935,993.048 182.268,990.715 181.5,988.5C 180.929,984.542 179.595,980.876 177.5,977.5C 176.974,975.77 175.974,974.436 174.5,973.5C 171.947,972.745 169.28,972.078 166.5,971.5C 165.956,969.284 164.956,967.284 163.5,965.5C 159.56,962.564 155.893,959.231 152.5,955.5C 151.301,949.577 149.968,943.743 148.5,938C 148.434,931.834 148.434,925.668 148.5,919.5C 150.104,918.713 150.771,917.38 150.5,915.5C 152.25,914.341 153.25,912.674 153.5,910.5C 154.268,908.285 154.935,905.952 155.5,903.5C 155.353,898.786 155.686,894.119 156.5,889.5C 158.104,888.713 158.771,887.38 158.5,885.5C 159.167,884.833 159.833,884.167 160.5,883.5C 163.281,881.39 165.281,878.724 166.5,875.5C 169.416,866.97 166.916,860.304 159,855.5C 158.517,854.552 158.351,853.552 158.5,852.5C 158.573,850.973 157.906,849.973 156.5,849.5C 156.567,848.041 156.234,846.708 155.5,845.5C 155.088,843.113 154.088,841.113 152.5,839.5C 152.567,838.041 152.234,836.708 151.5,835.5C 150.974,833.77 149.974,832.436 148.5,831.5C 147.963,828.964 146.63,826.964 144.5,825.5C 143.963,822.964 142.63,820.964 140.5,819.5C 140.771,817.62 140.104,816.287 138.5,815.5C 138.579,814.07 138.246,812.736 137.5,811.5C 138.552,807.73 139.885,804.063 141.5,800.5C 140.981,798.087 140.315,795.754 139.5,793.5C 138.974,791.77 137.974,790.436 136.5,789.5C 135.833,784.492 135,779.492 134,774.5C 133.617,773.944 133.117,773.611 132.5,773.5C 132.167,772.5 131.5,771.833 130.5,771.5C 129.172,768.768 127.839,766.101 126.5,763.5C 126.771,761.62 126.104,760.287 124.5,759.5C 124.771,757.62 124.104,756.287 122.5,755.5C 122.567,754.041 122.234,752.708 121.5,751.5C 120.935,749.048 120.268,746.715 119.5,744.5C 119.41,742.304 119.077,740.137 118.5,738C 118.954,736.061 119.621,734.228 120.5,732.5C 122.476,727.348 124.476,722.014 126.5,716.5C 126.5,716.167 126.5,715.833 126.5,715.5C 128.5,713.5 130.5,711.5 132.5,709.5C 133.167,708.833 133.833,708.167 134.5,707.5C 134.986,705.048 134.986,702.382 134.5,699.5C 134.557,698.391 134.89,697.391 135.5,696.5C 136.38,694.863 137.046,693.03 137.5,691C 137.43,690.235 137.097,689.735 136.5,689.5C 134.833,687.167 132.833,685.167 130.5,683.5C 130.771,681.62 130.104,680.287 128.5,679.5C 128.771,677.62 128.104,676.287 126.5,675.5C 124.987,671.682 124.32,667.682 124.5,663.5C 126.28,662.01 126.946,660.01 126.5,657.5C 127.974,656.564 128.974,655.23 129.5,653.5C 130.939,651.412 131.606,649.079 131.5,646.5C 132.93,644.545 132.597,642.879 130.5,641.5C 129.766,640.292 129.433,638.959 129.5,637.5C 128.785,634.044 128.451,630.711 128.5,627.5C 127.666,624.499 126.333,621.832 124.5,619.5C 123.736,608.488 123.403,597.488 123.5,586.5C 124.268,584.285 124.935,581.952 125.5,579.5C 127.093,573.921 128.093,568.254 128.5,562.5C 131.385,562.806 134.052,562.473 136.5,561.5C 138.104,560.713 138.771,559.38 138.5,557.5C 140.104,556.713 140.771,555.38 140.5,553.5C 141.557,551.059 142.89,548.725 144.5,546.5C 143.455,541.245 141.788,536.245 139.5,531.5C 138.935,529.048 138.268,526.715 137.5,524.5C 137.872,517.7 137.206,511.033 135.5,504.5C 136.828,503.493 137.828,502.16 138.5,500.5C 138.547,498.962 137.88,497.962 136.5,497.5C 136.541,493.384 137.207,489.384 138.5,485.5C 141.372,483.663 142.706,480.997 142.5,477.5C 143.88,477.038 144.547,476.038 144.5,474.5C 143.451,472.403 142.451,470.403 141.5,468.5C 141.5,468.167 141.5,467.833 141.5,467.5C 140.974,465.77 139.974,464.436 138.5,463.5C 138.5,460.167 138.5,456.833 138.5,453.5C 139.993,452.688 140.66,451.355 140.5,449.5C 140.66,447.645 139.993,446.312 138.5,445.5C 138.567,444.041 138.234,442.708 137.5,441.5C 136.974,439.77 135.974,438.436 134.5,437.5C 134.721,434.721 134.388,432.054 133.5,429.5C 132,426.544 131.666,423.544 132.5,420.5C 132.5,420.167 132.5,419.833 132.5,419.5C 134.104,418.713 134.771,417.38 134.5,415.5C 135.097,415.265 135.43,414.765 135.5,414C 135.046,411.97 134.38,410.137 133.5,408.5C 133.5,408.167 133.5,407.833 133.5,407.5C 132.066,403.788 132.733,400.455 135.5,397.5C 135.5,397.167 135.5,396.833 135.5,396.5C 137.345,395.005 137.678,393.338 136.5,391.5C 136.167,389.5 135.833,387.5 135.5,385.5C 134.167,382.167 134.167,378.833 135.5,375.5C 135.961,370.809 135.295,366.142 133.5,361.5C 135.146,354.587 134.48,347.92 131.5,341.5C 130.556,339.312 128.889,337.979 126.5,337.5C 126.5,337.167 126.5,336.833 126.5,336.5C 126.298,334.05 126.631,331.717 127.5,329.5C 127.5,329.167 127.5,328.833 127.5,328.5C 128.648,324.019 128.815,319.352 128,314.5C 127.617,313.944 127.117,313.611 126.5,313.5C 125.514,309.03 125.181,304.363 125.5,299.5C 124.974,297.77 123.974,296.436 122.5,295.5C 121.167,294.167 119.833,292.833 118.5,291.5C 117.009,286.537 115.676,281.537 114.5,276.5C 114.975,273.918 114.308,271.918 112.5,270.5C 111.54,268.539 110.207,266.873 108.5,265.5C 108.167,264.5 107.5,263.833 106.5,263.5C 104.94,261.571 102.94,260.238 100.5,259.5C 100.771,257.62 100.104,256.287 98.5,255.5C 97.6661,252.499 96.3328,249.832 94.5,247.5C 94.0598,244.62 93.0598,241.954 91.5,239.5C 91.0879,237.113 90.0879,235.113 88.5,233.5C 87.2524,230.28 86.2524,226.947 85.5,223.5C 85.0879,221.113 84.0879,219.113 82.5,217.5C 82.7709,215.62 82.1042,214.287 80.5,213.5C 80.7709,211.62 80.1042,210.287 78.5,209.5C 76.9402,207.571 74.9402,206.238 72.5,205.5C 71.3285,204.655 69.9952,203.989 68.5,203.5C 68.1667,202.5 67.5,201.833 66.5,201.5C 65.2809,198.276 63.2809,195.61 60.5,193.5C 59.1228,191.711 58.1228,189.711 57.5,187.5C 56.9744,185.77 55.9744,184.436 54.5,183.5C 53.4863,182.326 52.153,181.66 50.5,181.5C 45.8512,179.84 41.8512,177.173 38.5,173.5C 38.7709,171.62 38.1042,170.287 36.5,169.5C 36.2964,167.315 35.6298,165.315 34.5,163.5C 34.7709,161.62 34.1042,160.287 32.5,159.5C 31.5,157.833 30.1667,156.5 28.5,155.5C 26.417,152.754 23.7503,150.754 20.5,149.5C 20.1667,148.5 19.5,147.833 18.5,147.5C 16.8333,145.833 15.1667,144.167 13.5,142.5C 13.5,142.167 13.5,141.833 13.5,141.5C 11.8771,139.105 9.54374,137.772 6.5,137.5C 1.86908,136.558 0.202415,133.891 1.5,129.5C 1.5,129.167 1.5,128.833 1.5,128.5C 2.40128,127.71 3.06795,126.71 3.5,125.5C 3.5,125.167 3.5,124.833 3.5,124.5C 21.9039,121.337 40.2372,117.67 58.5,113.5C 73.9041,110.416 88.9041,106.749 103.5,102.5C 105.167,102.5 106.833,102.5 108.5,102.5C 130.56,97.8569 152.56,92.8569 174.5,87.5C 179.12,86.5067 183.786,86.1734 188.5,86.5C 188.611,87.1174 188.944,87.6174 189.5,88C 191.866,88.4396 194.199,88.9396 196.5,89.5C 203.313,92.3318 210.313,94.9984 217.5,97.5C 218.035,99.261 219.035,100.594 220.5,101.5C 220.281,102.675 220.614,103.675 221.5,104.5C 223.618,106.023 225.618,107.69 227.5,109.5C 238.146,110.499 248.813,110.832 259.5,110.5C 259.5,110.833 259.5,111.167 259.5,111.5C 259.856,113.19 260.856,114.19 262.5,114.5C 263.518,116.842 265.185,118.508 267.5,119.5C 269.822,121.151 272.155,122.818 274.5,124.5C 274.328,125.492 274.662,126.158 275.5,126.5C 275.66,128.153 276.326,129.486 277.5,130.5C 277.5,130.833 277.5,131.167 277.5,131.5C 281.524,137.189 286.524,141.856 292.5,145.5C 296.548,149.548 300.548,153.548 304.5,157.5C 304.433,158.959 304.766,160.292 305.5,161.5C 306.793,162.158 308.293,162.492 310,162.5C 312.642,162.439 314.809,161.439 316.5,159.5C 319.768,158.513 323.102,158.18 326.5,158.5C 326.833,158.5 327.167,158.5 327.5,158.5C 327.821,160.048 328.821,160.715 330.5,160.5C 330.5,163.167 330.5,165.833 330.5,168.5C 332.415,168.784 334.081,168.451 335.5,167.5C 345.834,162.999 355.834,157.999 365.5,152.5C 368.983,152.673 371.983,151.673 374.5,149.5C 389.286,143.258 403.619,136.258 417.5,128.5C 420.983,128.673 423.983,127.673 426.5,125.5C 426.5,125.167 426.5,124.833 426.5,124.5C 430.437,124.259 433.77,122.926 436.5,120.5C 437.167,120.5 437.833,120.5 438.5,120.5C 440.288,119.64 441.955,118.64 443.5,117.5C 447.441,115.868 451.441,114.201 455.5,112.5C 462.664,109.337 468.664,104.67 473.5,98.5C 476.197,95.4685 479.197,92.8018 482.5,90.5C 489.85,84.1491 496.85,77.4824 503.5,70.5C 507.527,66.1384 511.86,62.1384 516.5,58.5C 522.511,53.4879 528.178,48.1545 533.5,42.5C 536.862,38.8037 540.528,35.4704 544.5,32.5C 551.183,26.8161 557.516,20.8161 563.5,14.5C 567.529,10.8056 571.196,6.80564 574.5,2.5C 576.492,2.67154 578.158,2.00488 579.5,0.5C 580.182,1.24269 580.849,1.90935 581.5,2.5 Z"/></g>
<g><path style="opacity:1" fill="#cdd4d4" d="M 581.5,3.5 C 582.586,3.61998 583.253,4.28665 583.5,5.5C 582.157,7.83655 580.49,9.83655 578.5,11.5C 578.976,9.00688 580.31,7.00688 582.5,5.5C 582.137,4.81654 581.804,4.14987 581.5,3.5 Z"/></g>
<g><path style="opacity:1" fill="#c7d3d4" d="M 563.5,14.5 C 557.516,20.8161 551.183,26.8161 544.5,32.5C 544.5,31.5 544.5,30.5 544.5,29.5C 545.675,29.719 546.675,29.3857 547.5,28.5C 552.268,23.0578 557.601,18.3911 563.5,14.5 Z"/></g>
<g><path style="opacity:1" fill="#d4d5d6" d="M 583.5,28.5 C 582.475,31.5755 581.475,34.5755 580.5,37.5C 580.049,33.896 581.049,30.896 583.5,28.5 Z"/></g>
<g><path style="opacity:1" fill="#c6d3d4" d="M 533.5,42.5 C 528.178,48.1545 522.511,53.4879 516.5,58.5C 521.215,52.1167 526.882,46.7834 533.5,42.5 Z"/></g>
<g><path style="opacity:1" fill="#c4d2d2" d="M 581.5,69.5 C 583.446,70.0347 584.446,71.368 584.5,73.5C 583.026,72.5637 582.026,71.2303 581.5,69.5 Z"/></g>
<g><path style="opacity:1" fill="#c3d2d4" d="M 503.5,70.5 C 496.85,77.4824 489.85,84.1491 482.5,90.5C 487.696,84.2964 493.363,78.2964 499.5,72.5C 500.766,71.6376 502.099,70.9709 503.5,70.5 Z"/></g>
<g><path style="opacity:1" fill="#c8d5d7" d="M 584.5,73.5 C 585.721,75.6224 586.721,77.9557 587.5,80.5C 587.48,81.7261 587.147,82.7261 586.5,83.5C 585.833,80.1667 585.167,76.8333 584.5,73.5 Z"/></g>
<g><path style="opacity:1" fill="#cfd4d5" d="M 584.5,85.5 C 582.997,90.6399 583.33,95.6399 585.5,100.5C 584.849,99.9094 584.182,99.2427 583.5,98.5C 582.34,94.5411 582.173,90.5411 583,86.5C 583.383,85.944 583.883,85.6107 584.5,85.5 Z"/></g>
<g><path style="opacity:1" fill="#c0d7d9" d="M 188.5,86.5 C 183.786,86.1734 179.12,86.5067 174.5,87.5C 152.56,92.8569 130.56,97.8569 108.5,102.5C 129.929,96.7718 151.596,91.4385 173.5,86.5C 178.652,85.1863 183.652,85.1863 188.5,86.5 Z"/></g>
<g><path style="opacity:1" fill="#c5d7d8" d="M 196.5,89.5 C 203.99,91.2184 211.324,93.5518 218.5,96.5C 219.456,98.0754 220.123,99.742 220.5,101.5C 219.035,100.594 218.035,99.261 217.5,97.5C 210.313,94.9984 203.313,92.3318 196.5,89.5 Z"/></g>
<g><path style="opacity:1" fill="#c4d3d5" d="M 473.5,98.5 C 468.664,104.67 462.664,109.337 455.5,112.5C 461.439,107.911 467.439,103.245 473.5,98.5 Z"/></g>
<g><path style="opacity:1" fill="#d1d5d6" d="M 220.5,101.5 C 222.984,103.944 225.651,106.277 228.5,108.5C 238.992,109.167 249.326,109.833 259.5,110.5C 248.813,110.832 238.146,110.499 227.5,109.5C 225.618,107.69 223.618,106.023 221.5,104.5C 220.614,103.675 220.281,102.675 220.5,101.5 Z"/></g>
<g><path style="opacity:1" fill="#cbd3d5" d="M 587.5,109.5 C 588.777,110.694 589.444,112.36 589.5,114.5C 589.493,116.369 589.16,118.036 588.5,119.5C 588.747,116.061 588.414,112.728 587.5,109.5 Z"/></g>
<g><path style="opacity:1" fill="#cfd1d2" d="M 259.5,111.5 C 261.144,111.81 262.144,112.81 262.5,114.5C 260.856,114.19 259.856,113.19 259.5,111.5 Z"/></g>
<g><path style="opacity:1" fill="#bfd7d9" d="M 103.5,102.5 C 88.9041,106.749 73.9041,110.416 58.5,113.5C 40.2372,117.67 21.9039,121.337 3.5,124.5C 36.6907,116.927 70.024,109.593 103.5,102.5 Z"/></g>
<g><path style="opacity:1" fill="#c6d7d8" d="M 443.5,117.5 C 441.955,118.64 440.288,119.64 438.5,120.5C 439.344,118.241 441.011,117.241 443.5,117.5 Z"/></g>
<g><path style="opacity:1" fill="#c5d6d7" d="M 436.5,120.5 C 433.77,122.926 430.437,124.259 426.5,124.5C 429.586,122.732 432.919,121.399 436.5,120.5 Z"/></g>
<g><path style="opacity:1" fill="#d0d3d4" d="M 267.5,119.5 C 270.939,119.604 273.272,121.27 274.5,124.5C 272.155,122.818 269.822,121.151 267.5,119.5 Z"/></g>
<g><path style="opacity:1" fill="#c1d0d2" d="M 3.5,125.5 C 3.06795,126.71 2.40128,127.71 1.5,128.5C 1.28519,126.821 1.95186,125.821 3.5,125.5 Z"/></g>
<g><path style="opacity:1" fill="#cfd5d6" d="M 426.5,125.5 C 423.983,127.673 420.983,128.673 417.5,128.5C 420.31,127.181 423.31,126.181 426.5,125.5 Z"/></g>
<g><path style="opacity:1" fill="#b9d0d3" d="M 275.5,126.5 C 277.104,127.287 277.771,128.62 277.5,130.5C 276.326,129.486 275.66,128.153 275.5,126.5 Z"/></g>
<g><path style="opacity:1" fill="#ced5d6" d="M -0.5,129.5 C 0.166667,129.5 0.833333,129.5 1.5,129.5C 0.202415,133.891 1.86908,136.558 6.5,137.5C 3.92423,137.532 1.5909,136.865 -0.5,135.5C -0.5,133.5 -0.5,131.5 -0.5,129.5 Z"/></g>
<g><path style="opacity:1" fill="#fefefe" d="M -0.5,135.5 C 1.5909,136.865 3.92423,137.532 6.5,137.5C 8.47152,139.239 10.8049,140.572 13.5,141.5C 13.5,141.833 13.5,142.167 13.5,142.5C 13.8333,145.5 15.5,147.167 18.5,147.5C 19.5,147.833 20.1667,148.5 20.5,149.5C 21.9247,151.253 23.5914,152.92 25.5,154.5C 26.325,155.386 27.325,155.719 28.5,155.5C 30.1667,156.5 31.5,157.833 32.5,159.5C 32.6596,161.153 33.3263,162.486 34.5,163.5C 35.6298,165.315 36.2964,167.315 36.5,169.5C 36.6596,171.153 37.3263,172.486 38.5,173.5C 38.7221,175.607 39.7221,177.274 41.5,178.5C 44.2524,180.336 47.2524,181.336 50.5,181.5C 52.153,181.66 53.4863,182.326 54.5,183.5C 54.5544,185.632 55.5544,186.965 57.5,187.5C 58.1228,189.711 59.1228,191.711 60.5,193.5C 61.7376,196.738 63.7376,199.404 66.5,201.5C 67.5,201.833 68.1667,202.5 68.5,203.5C 69.1834,205.176 70.5168,205.843 72.5,205.5C 73.8282,207.719 75.8282,209.052 78.5,209.5C 78.6596,211.153 79.3263,212.486 80.5,213.5C 80.6596,215.153 81.3263,216.486 82.5,217.5C 82.6206,220.105 83.6206,222.105 85.5,223.5C 86.2524,226.947 87.2524,230.28 88.5,233.5C 88.6206,236.105 89.6206,238.105 91.5,239.5C 93.0598,241.954 94.0598,244.62 94.5,247.5C 94.7966,250.76 96.13,253.427 98.5,255.5C 98.6596,257.153 99.3263,258.486 100.5,259.5C 101.828,261.719 103.828,263.052 106.5,263.5C 107.5,263.833 108.167,264.5 108.5,265.5C 109.057,268.05 110.39,270.05 112.5,271.5C 112.796,273.403 113.463,275.07 114.5,276.5C 115.676,281.537 117.009,286.537 118.5,291.5C 118.525,294.179 119.858,295.512 122.5,295.5C 122.554,297.632 123.554,298.965 125.5,299.5C 125.181,304.363 125.514,309.03 126.5,313.5C 127.392,318.438 127.726,323.438 127.5,328.5C 127.5,328.833 127.5,329.167 127.5,329.5C 126.275,330.152 125.608,331.319 125.5,333C 125.514,334.385 125.848,335.551 126.5,336.5C 126.5,336.833 126.5,337.167 126.5,337.5C 127.656,339.387 129.323,340.721 131.5,341.5C 134.48,347.92 135.146,354.587 133.5,361.5C 135.295,366.142 135.961,370.809 135.5,375.5C 134.223,376.694 133.556,378.36 133.5,380.5C 133.556,382.64 134.223,384.306 135.5,385.5C 135.833,387.5 136.167,389.5 136.5,391.5C 135.962,393.117 135.629,394.784 135.5,396.5C 135.5,396.833 135.5,397.167 135.5,397.5C 132.74,398.425 131.407,400.425 131.5,403.5C 131.585,405.333 132.252,406.666 133.5,407.5C 133.5,407.833 133.5,408.167 133.5,408.5C 133.448,410.903 133.781,413.236 134.5,415.5C 133.326,416.514 132.66,417.847 132.5,419.5C 132.5,419.833 132.5,420.167 132.5,420.5C 131.12,420.962 130.453,421.962 130.5,423.5C 130.622,426.126 131.622,428.126 133.5,429.5C 134.388,432.054 134.721,434.721 134.5,437.5C 134.554,439.632 135.554,440.965 137.5,441.5C 138.234,442.708 138.567,444.041 138.5,445.5C 139.833,448.167 139.833,450.833 138.5,453.5C 138.5,456.833 138.5,460.167 138.5,463.5C 138.554,465.632 139.554,466.965 141.5,467.5C 141.5,467.833 141.5,468.167 141.5,468.5C 141.229,470.821 141.896,472.821 143.5,474.5C 142.873,475.417 142.539,476.417 142.5,477.5C 141.189,480.123 139.855,482.789 138.5,485.5C 137.207,489.384 136.541,493.384 136.5,497.5C 136.539,498.583 136.873,499.583 137.5,500.5C 136.147,501.524 135.48,502.857 135.5,504.5C 137.206,511.033 137.872,517.7 137.5,524.5C 136.99,527.388 137.656,529.721 139.5,531.5C 141.788,536.245 143.455,541.245 144.5,546.5C 142.89,548.725 141.557,551.059 140.5,553.5C 139.326,554.514 138.66,555.847 138.5,557.5C 137.326,558.514 136.66,559.847 136.5,561.5C 134.052,562.473 131.385,562.806 128.5,562.5C 128.093,568.254 127.093,573.921 125.5,579.5C 123.656,581.279 122.99,583.612 123.5,586.5C 123.403,597.488 123.736,608.488 124.5,619.5C 124.797,622.76 126.13,625.427 128.5,627.5C 128.005,629.452 127.672,631.452 127.5,633.5C 127.585,635.333 128.252,636.666 129.5,637.5C 129.433,638.959 129.766,640.292 130.5,641.5C 131.038,643.117 131.371,644.784 131.5,646.5C 131.606,649.079 130.939,651.412 129.5,653.5C 127.554,654.035 126.554,655.368 126.5,657.5C 125.542,659.302 124.875,661.302 124.5,663.5C 123.194,666.687 123.194,670.02 124.5,673.5C 125.182,674.243 125.849,674.909 126.5,675.5C 126.66,677.153 127.326,678.486 128.5,679.5C 128.66,681.153 129.326,682.486 130.5,683.5C 132.833,685.167 134.833,687.167 136.5,689.5C 135.781,691.764 135.448,694.097 135.5,696.5C 134.89,697.391 134.557,698.391 134.5,699.5C 133.343,702.026 133.343,704.693 134.5,707.5C 133.833,708.167 133.167,708.833 132.5,709.5C 129.184,710.149 127.184,712.149 126.5,715.5C 126.5,715.833 126.5,716.167 126.5,716.5C 122.952,721.131 120.952,726.465 120.5,732.5C 119.621,734.228 118.954,736.061 118.5,738C 119.077,740.137 119.41,742.304 119.5,744.5C 118.99,747.388 119.656,749.721 121.5,751.5C 122.234,752.708 122.567,754.041 122.5,755.5C 122.66,757.153 123.326,758.486 124.5,759.5C 124.66,761.153 125.326,762.486 126.5,763.5C 127.265,766.096 127.599,768.763 127.5,771.5C 128.5,771.5 129.5,771.5 130.5,771.5C 131.5,771.833 132.167,772.5 132.5,773.5C 133.231,779.091 134.564,784.425 136.5,789.5C 136.554,791.632 137.554,792.965 139.5,793.5C 140.315,795.754 140.981,798.087 141.5,800.5C 139.885,804.063 138.552,807.73 137.5,811.5C 138.246,812.736 138.579,814.07 138.5,815.5C 138.66,817.153 139.326,818.486 140.5,819.5C 141.057,822.05 142.39,824.05 144.5,825.5C 145.057,828.05 146.39,830.05 148.5,831.5C 148.554,833.632 149.554,834.965 151.5,835.5C 152.234,836.708 152.567,838.041 152.5,839.5C 152.621,842.105 153.621,844.105 155.5,845.5C 156.234,846.708 156.567,848.041 156.5,849.5C 156.427,851.027 157.094,852.027 158.5,852.5C 158.351,853.552 158.517,854.552 159,855.5C 166.916,860.304 169.416,866.97 166.5,875.5C 163.738,877.596 161.738,880.262 160.5,883.5C 159.833,884.167 159.167,884.833 158.5,885.5C 157.326,886.514 156.66,887.847 156.5,889.5C 155.686,894.119 155.353,898.786 155.5,903.5C 153.656,905.279 152.99,907.612 153.5,910.5C 153.25,912.674 152.25,914.341 150.5,915.5C 149.326,916.514 148.66,917.847 148.5,919.5C 148.434,925.668 148.434,931.834 148.5,938C 149.968,943.743 151.301,949.577 152.5,955.5C 154.567,960.565 158.233,963.899 163.5,965.5C 164.956,967.284 165.956,969.284 166.5,971.5C 168.635,973.369 171.302,974.036 174.5,973.5C 174.554,975.632 175.554,976.965 177.5,977.5C 179.595,980.876 180.929,984.542 181.5,988.5C 180.99,991.388 181.656,993.721 183.5,995.5C 183.709,1002.95 183.709,1010.28 183.5,1017.5C 182.188,1019.74 181.522,1022.41 181.5,1025.5C 181.833,1028.17 182.167,1030.83 182.5,1033.5C 183.182,1034.24 183.849,1034.91 184.5,1035.5C 184.554,1037.63 185.554,1038.97 187.5,1039.5C 188.5,1040.83 189.5,1042.17 190.5,1043.5C 190.833,1044.83 191.167,1046.17 191.5,1047.5C 127.5,1047.5 63.5,1047.5 -0.5,1047.5C -0.5,743.5 -0.5,439.5 -0.5,135.5 Z"/></g>
<g><path style="opacity:1" fill="#c7d6d6" d="M 583.5,130.5 C 583.723,135.39 583.723,140.057 583.5,144.5C 582.256,139.702 582.256,135.035 583.5,130.5 Z"/></g>
<g><path style="opacity:1" fill="#c7d1d2" d="M 6.5,137.5 C 9.54374,137.772 11.8771,139.105 13.5,141.5C 10.8049,140.572 8.47152,139.239 6.5,137.5 Z"/></g>
<g><path style="opacity:1" fill="#d1d5d5" d="M 13.5,142.5 C 15.1667,144.167 16.8333,145.833 18.5,147.5C 15.5,147.167 13.8333,145.5 13.5,142.5 Z"/></g>
<g><path style="opacity:1" fill="#c4d3d5" d="M 277.5,131.5 C 282.505,136.165 287.839,140.499 293.5,144.5C 297.964,148.286 301.63,152.619 304.5,157.5C 300.548,153.548 296.548,149.548 292.5,145.5C 286.524,141.856 281.524,137.189 277.5,131.5 Z"/></g>
<g><path style="opacity:1" fill="#c4d2d2" d="M 581.5,149.5 C 583.446,150.035 584.446,151.368 584.5,153.5C 583.026,152.564 582.026,151.23 581.5,149.5 Z"/></g>
<g><path style="opacity:1" fill="#c8d2d4" d="M 20.5,149.5 C 23.7503,150.754 26.417,152.754 28.5,155.5C 27.325,155.719 26.325,155.386 25.5,154.5C 23.5914,152.92 21.9247,151.253 20.5,149.5 Z"/></g>
<g><path style="opacity:1" fill="#cfd5d6" d="M 374.5,149.5 C 371.983,151.673 368.983,152.673 365.5,152.5C 368.31,151.181 371.31,150.181 374.5,149.5 Z"/></g>
<g><path style="opacity:1" fill="#c0ced1" d="M 584.5,153.5 C 585.674,154.514 586.34,155.847 586.5,157.5C 584.896,156.713 584.229,155.38 584.5,153.5 Z"/></g>
<g><path style="opacity:1" fill="#c5d7d8" d="M 326.5,158.5 C 323.102,158.18 319.768,158.513 316.5,159.5C 314.809,161.439 312.642,162.439 310,162.5C 308.293,162.492 306.793,162.158 305.5,161.5C 309.357,162.038 312.691,161.038 315.5,158.5C 319.315,157.192 322.981,157.192 326.5,158.5 Z"/></g>
<g><path style="opacity:1" fill="#c3d0d2" d="M 32.5,159.5 C 34.1042,160.287 34.7709,161.62 34.5,163.5C 33.3263,162.486 32.6596,161.153 32.5,159.5 Z"/></g>
<g><path style="opacity:1" fill="#d0d5d6" d="M 327.5,158.5 C 328.708,159.234 330.041,159.567 331.5,159.5C 331.5,162.167 331.5,164.833 331.5,167.5C 332.833,167.5 334.167,167.5 335.5,167.5C 334.081,168.451 332.415,168.784 330.5,168.5C 330.5,165.833 330.5,163.167 330.5,160.5C 328.821,160.715 327.821,160.048 327.5,158.5 Z"/></g>
<g><path style="opacity:1" fill="#c3d0d2" d="M 36.5,169.5 C 38.1042,170.287 38.7709,171.62 38.5,173.5C 37.3263,172.486 36.6596,171.153 36.5,169.5 Z"/></g>
<g><path style="opacity:1" fill="#c8d3d4" d="M 38.5,173.5 C 41.8512,177.173 45.8512,179.84 50.5,181.5C 47.2524,181.336 44.2524,180.336 41.5,178.5C 39.7221,177.274 38.7221,175.607 38.5,173.5 Z"/></g>
<g><path style="opacity:1" fill="#c3d1d2" d="M 54.5,183.5 C 55.9744,184.436 56.9744,185.77 57.5,187.5C 55.5544,186.965 54.5544,185.632 54.5,183.5 Z"/></g>
<g><path style="opacity:1" fill="#cad2d3" d="M 60.5,193.5 C 63.2809,195.61 65.2809,198.276 66.5,201.5C 63.7376,199.404 61.7376,196.738 60.5,193.5 Z"/></g>
<g><path style="opacity:1" fill="#c9d4d4" d="M 68.5,203.5 C 69.9952,203.989 71.3285,204.655 72.5,205.5C 70.5168,205.843 69.1834,205.176 68.5,203.5 Z"/></g>
<g><path style="opacity:1" fill="#cbd3d3" d="M 72.5,205.5 C 74.9402,206.238 76.9402,207.571 78.5,209.5C 75.8282,209.052 73.8282,207.719 72.5,205.5 Z"/></g>
<g><path style="opacity:1" fill="#c4d2d2" d="M 78.5,209.5 C 80.1042,210.287 80.7709,211.62 80.5,213.5C 79.3263,212.486 78.6596,211.153 78.5,209.5 Z"/></g>
<g><path style="opacity:1" fill="#cdd6d7" d="M 596.5,205.5 C 597.473,207.948 597.806,210.615 597.5,213.5C 596.5,213.5 595.5,213.5 594.5,213.5C 596.202,211.2 596.868,208.533 596.5,205.5 Z"/></g>
<g><path style="opacity:1" fill="#c3d0d2" d="M 80.5,213.5 C 82.1042,214.287 82.7709,215.62 82.5,217.5C 81.3263,216.486 80.6596,215.153 80.5,213.5 Z"/></g>
<g><path style="opacity:1" fill="#c7d2d3" d="M 592.5,214.5 C 590.955,215.64 589.288,216.64 587.5,217.5C 588.344,215.241 590.011,214.241 592.5,214.5 Z"/></g>
<g><path style="opacity:1" fill="#c3d4d6" d="M 82.5,217.5 C 84.0879,219.113 85.0879,221.113 85.5,223.5C 83.6206,222.105 82.6206,220.105 82.5,217.5 Z"/></g>
<g><path style="opacity:1" fill="#cdd5d5" d="M 587.5,221.5 C 590.676,224.388 592.676,228.054 593.5,232.5C 591.096,229.085 589.096,225.418 587.5,221.5 Z"/></g>
<g><path style="opacity:1" fill="#c8d2d4" d="M 593.5,233.5 C 594.931,234.78 595.598,236.447 595.5,238.5C 594.069,237.22 593.402,235.553 593.5,233.5 Z"/></g>
<g><path style="opacity:1" fill="#cad1d2" d="M 88.5,233.5 C 90.0879,235.113 91.0879,237.113 91.5,239.5C 89.6206,238.105 88.6206,236.105 88.5,233.5 Z"/></g>
<g><path style="opacity:1" fill="#c5d4d6" d="M 94.5,247.5 C 96.3328,249.832 97.6661,252.499 98.5,255.5C 96.13,253.427 94.7966,250.76 94.5,247.5 Z"/></g>
<g><path style="opacity:1" fill="#c4d2d3" d="M 98.5,255.5 C 100.104,256.287 100.771,257.62 100.5,259.5C 99.3263,258.486 98.6596,257.153 98.5,255.5 Z"/></g>
<g><path style="opacity:1" fill="#c9d4d5" d="M 100.5,259.5 C 102.94,260.238 104.94,261.571 106.5,263.5C 103.828,263.052 101.828,261.719 100.5,259.5 Z"/></g>
<g><path style="opacity:1" fill="#ccd3d4" d="M 108.5,265.5 C 110.207,266.873 111.54,268.539 112.5,270.5C 112.5,270.833 112.5,271.167 112.5,271.5C 110.39,270.05 109.057,268.05 108.5,265.5 Z"/></g>
<g><path style="opacity:1" fill="#9dd7dd" d="M 112.5,270.5 C 114.308,271.918 114.975,273.918 114.5,276.5C 113.463,275.07 112.796,273.403 112.5,271.5C 112.5,271.167 112.5,270.833 112.5,270.5 Z"/></g>
<g><path style="opacity:1" fill="#cdd4d4" d="M 601.5,276.5 C 600.582,279.752 598.582,282.086 595.5,283.5C 597.155,280.847 599.155,278.514 601.5,276.5 Z"/></g>
<g><path style="opacity:1" fill="#c4d2d3" d="M 118.5,291.5 C 119.833,292.833 121.167,294.167 122.5,295.5C 119.858,295.512 118.525,294.179 118.5,291.5 Z"/></g>
<g><path style="opacity:1" fill="#ccd2d3" d="M 122.5,295.5 C 123.974,296.436 124.974,297.77 125.5,299.5C 123.554,298.965 122.554,297.632 122.5,295.5 Z"/></g>
<g><path style="opacity:1" fill="#d1d4d4" d="M 595.5,305.5 C 596.693,305.97 597.36,306.97 597.5,308.5C 597.36,310.03 596.693,311.03 595.5,311.5C 596.833,309.5 596.833,307.5 595.5,305.5 Z"/></g>
<g><path style="opacity:1" fill="#d3d5d6" d="M 126.5,313.5 C 127.117,313.611 127.617,313.944 128,314.5C 128.815,319.352 128.648,324.019 127.5,328.5C 127.726,323.438 127.392,318.438 126.5,313.5 Z"/></g>
<g><path style="opacity:1" fill="#ced5d6" d="M 595.5,327.5 C 597.344,329.279 598.01,331.612 597.5,334.5C 596.732,332.285 596.065,329.952 595.5,327.5 Z"/></g>
<g><path style="opacity:1" fill="#aad7db" d="M 127.5,329.5 C 126.631,331.717 126.298,334.05 126.5,336.5C 125.848,335.551 125.514,334.385 125.5,333C 125.608,331.319 126.275,330.152 127.5,329.5 Z"/></g>
<g><path style="opacity:1" fill="#c4d2d2" d="M 597.5,335.5 C 599.446,336.035 600.446,337.368 600.5,339.5C 599.026,338.564 598.026,337.23 597.5,335.5 Z"/></g>
<g><path style="opacity:1" fill="#c8d2d3" d="M 126.5,337.5 C 128.889,337.979 130.556,339.312 131.5,341.5C 129.323,340.721 127.656,339.387 126.5,337.5 Z"/></g>
<g><path style="opacity:1" fill="#9cd8de" d="M 394.5,343.5 C 395.622,342.844 396.955,342.511 398.5,342.5C 400.333,342.585 401.666,343.252 402.5,344.5C 401.833,344.5 401.167,344.5 400.5,344.5C 398.735,343.539 396.735,343.205 394.5,343.5 Z"/></g>
<g><path style="opacity:1" fill="#fefefe" d="M 394.5,343.5 C 396.735,343.205 398.735,343.539 400.5,344.5C 403.057,345.588 405.724,346.588 408.5,347.5C 408.554,349.632 409.554,350.965 411.5,351.5C 413.19,354.88 414.857,358.213 416.5,361.5C 416.66,363.153 417.326,364.486 418.5,365.5C 418.554,367.632 419.554,368.965 421.5,369.5C 422.5,371.5 423.5,373.5 424.5,375.5C 424.66,377.153 425.326,378.486 426.5,379.5C 426.66,381.153 427.326,382.486 428.5,383.5C 431.008,386.515 433.008,389.848 434.5,393.5C 434.66,395.153 435.326,396.486 436.5,397.5C 437.195,403.607 436.195,409.607 433.5,415.5C 431.621,416.895 430.621,418.895 430.5,421.5C 428.5,422.167 426.5,422.833 424.5,423.5C 424.5,424.5 424.5,425.5 424.5,426.5C 424.167,426.5 423.833,426.5 423.5,426.5C 420.134,427.199 418.134,429.199 417.5,432.5C 414.618,433.379 412.285,435.046 410.5,437.5C 405.345,439.579 400.345,441.912 395.5,444.5C 395.5,445.167 395.5,445.833 395.5,446.5C 395.5,448.5 395.5,450.5 395.5,452.5C 394.9,453.9 393.9,454.9 392.5,455.5C 389.833,456.167 387.167,456.833 384.5,457.5C 380.655,456.057 376.655,454.724 372.5,453.5C 372.31,449.705 371.31,446.372 369.5,443.5C 367.167,438.833 364.833,434.167 362.5,429.5C 362.34,427.847 361.674,426.514 360.5,425.5C 360.446,423.368 359.446,422.035 357.5,421.5C 356.91,418.969 355.41,417.302 353,416.5C 339.861,422.987 326.694,429.32 313.5,435.5C 312.022,435.762 310.689,435.429 309.5,434.5C 307.5,431.167 305.5,427.833 303.5,424.5C 303.043,423.702 302.376,423.369 301.5,423.5C 299.143,418.787 296.81,414.12 294.5,409.5C 294.446,407.368 293.446,406.035 291.5,405.5C 290.046,403.737 290.38,402.403 292.5,401.5C 300.886,397.974 308.886,393.974 316.5,389.5C 318.483,389.843 319.817,389.176 320.5,387.5C 322.483,387.843 323.817,387.176 324.5,385.5C 326.483,385.843 327.817,385.176 328.5,383.5C 328.5,382.167 328.5,380.833 328.5,379.5C 329.232,377.035 330.565,375.035 332.5,373.5C 334.344,372.796 334.844,371.463 334,369.5C 331.487,367.179 329.654,364.512 328.5,361.5C 328.539,360.417 328.873,359.417 329.5,358.5C 337.633,356.896 345.3,354.562 352.5,351.5C 356.121,350.627 359.788,349.961 363.5,349.5C 364.441,351.05 365.107,352.716 365.5,354.5C 365.5,355.5 365.5,356.5 365.5,357.5C 367.781,357.923 369.448,357.256 370.5,355.5C 374.559,353.799 378.559,352.132 382.5,350.5C 382.5,349.833 382.833,349.5 383.5,349.5C 386.639,349.401 388.973,348.068 390.5,345.5C 392.483,345.843 393.817,345.176 394.5,343.5 Z"/></g>
<g><path style="opacity:1" fill="#c9d2d3" d="M 394.5,343.5 C 393.817,345.176 392.483,345.843 390.5,345.5C 391.671,344.655 393.005,343.989 394.5,343.5 Z"/></g>
<g><path style="opacity:1" fill="#c5d7d8" d="M 400.5,344.5 C 401.167,344.5 401.833,344.5 402.5,344.5C 405.077,344.455 407.077,345.455 408.5,347.5C 405.724,346.588 403.057,345.588 400.5,344.5 Z"/></g>
<g><path style="opacity:1" fill="#cad4d4" d="M 363.5,349.5 C 359.788,349.961 356.121,350.627 352.5,351.5C 354.741,350.139 357.241,349.139 360,348.5C 361.385,348.514 362.551,348.848 363.5,349.5 Z"/></g>
<g><path style="opacity:1" fill="#ced5d6" d="M 390.5,345.5 C 388.973,348.068 386.639,349.401 383.5,349.5C 385.606,347.878 387.939,346.545 390.5,345.5 Z"/></g>
<g><path style="opacity:1" fill="#c2cfd1" d="M 408.5,347.5 C 409.974,348.436 410.974,349.77 411.5,351.5C 409.554,350.965 408.554,349.632 408.5,347.5 Z"/></g>
<g><path style="opacity:1" fill="#c2d6d7" d="M 382.5,350.5 C 378.559,352.132 374.559,353.799 370.5,355.5C 373.754,352.211 377.754,350.544 382.5,350.5 Z"/></g>
<g><path style="opacity:1" fill="#c7d4d5" d="M 603.5,342.5 C 607.008,347.468 611.008,352.134 615.5,356.5C 616.325,357.386 617.325,357.719 618.5,357.5C 618.5,358.5 618.5,359.5 618.5,360.5C 611.671,356.006 606.671,350.006 603.5,342.5 Z"/></g>
<g><path style="opacity:1" fill="#c7d5d6" d="M 352.5,351.5 C 345.3,354.562 337.633,356.896 329.5,358.5C 328.873,359.417 328.539,360.417 328.5,361.5C 327.295,360.328 327.295,358.995 328.5,357.5C 336.544,355.489 344.544,353.489 352.5,351.5 Z"/></g>
<g><path style="opacity:1" fill="#d1d4d5" d="M 365.5,354.5 C 366.815,356.599 368.482,356.933 370.5,355.5C 369.448,357.256 367.781,357.923 365.5,357.5C 365.5,356.5 365.5,355.5 365.5,354.5 Z"/></g>
<g><path style="opacity:1" fill="#c4d0d2" d="M 619.5,361.5 C 621.446,362.035 622.446,363.368 622.5,365.5C 621.026,364.564 620.026,363.23 619.5,361.5 Z"/></g>
<g><path style="opacity:1" fill="#c3d0d2" d="M 416.5,361.5 C 418.104,362.287 418.771,363.62 418.5,365.5C 417.326,364.486 416.66,363.153 416.5,361.5 Z"/></g>
<g><path style="opacity:1" fill="#c3d5d6" d="M 328.5,361.5 C 329.654,364.512 331.487,367.179 334,369.5C 334.844,371.463 334.344,372.796 332.5,373.5C 333.532,370.538 332.532,368.204 329.5,366.5C 328.548,364.955 328.215,363.288 328.5,361.5 Z"/></g>
<g><path style="opacity:1" fill="#c3d1d2" d="M 418.5,365.5 C 419.974,366.436 420.974,367.77 421.5,369.5C 419.554,368.965 418.554,367.632 418.5,365.5 Z"/></g>
<g><path style="opacity:1" fill="#c2d1d1" d="M 622.5,365.5 C 623.674,366.514 624.34,367.847 624.5,369.5C 622.896,368.713 622.229,367.38 622.5,365.5 Z"/></g>
<g><path style="opacity:1" fill="#acd2d7" d="M 624.5,369.5 C 625.458,371.302 626.125,373.302 626.5,375.5C 624.72,374.01 624.054,372.01 624.5,369.5 Z"/></g>
<g><path style="opacity:1" fill="#d2d5d5" d="M 135.5,375.5 C 134.167,378.833 134.167,382.167 135.5,385.5C 134.223,384.306 133.556,382.64 133.5,380.5C 133.556,378.36 134.223,376.694 135.5,375.5 Z"/></g>
<g><path style="opacity:1" fill="#c1cecf" d="M 332.5,373.5 C 330.565,375.035 329.232,377.035 328.5,379.5C 327.206,376.128 328.54,374.128 332.5,373.5 Z"/></g>
<g><path style="opacity:1" fill="#c3d1d2" d="M 424.5,375.5 C 426.104,376.287 426.771,377.62 426.5,379.5C 425.326,378.486 424.66,377.153 424.5,375.5 Z"/></g>
<g><path style="opacity:1" fill="#c4d2d3" d="M 426.5,379.5 C 428.104,380.287 428.771,381.62 428.5,383.5C 427.326,382.486 426.66,381.153 426.5,379.5 Z"/></g>
<g><path style="opacity:1" fill="#c9d2d3" d="M 328.5,383.5 C 327.817,385.176 326.483,385.843 324.5,385.5C 325.671,384.655 327.005,383.989 328.5,383.5 Z"/></g>
<g><path style="opacity:1" fill="#c9d2d3" d="M 324.5,385.5 C 323.817,387.176 322.483,387.843 320.5,387.5C 321.671,386.655 323.005,385.989 324.5,385.5 Z"/></g>
<g><path style="opacity:1" fill="#cad2d3" d="M 320.5,387.5 C 319.817,389.176 318.483,389.843 316.5,389.5C 317.671,388.655 319.005,387.989 320.5,387.5 Z"/></g>
<g><path style="opacity:1" fill="#c3d3d4" d="M 316.5,389.5 C 308.886,393.974 300.886,397.974 292.5,401.5C 299.919,396.457 307.919,392.457 316.5,389.5 Z"/></g>
<g><path style="opacity:1" fill="#ccd2d3" d="M 136.5,391.5 C 137.678,393.338 137.345,395.005 135.5,396.5C 135.629,394.784 135.962,393.117 136.5,391.5 Z"/></g>
<g><path style="opacity:1" fill="#c4d2d3" d="M 434.5,393.5 C 436.104,394.287 436.771,395.62 436.5,397.5C 435.326,396.486 434.66,395.153 434.5,393.5 Z"/></g>
<g><path style="opacity:1" fill="#ced4d4" d="M 135.5,397.5 C 132.733,400.455 132.066,403.788 133.5,407.5C 132.252,406.666 131.585,405.333 131.5,403.5C 131.407,400.425 132.74,398.425 135.5,397.5 Z"/></g>
<g><path style="opacity:1" fill="#c3d1d2" d="M 628.5,403.5 C 628.34,405.153 627.674,406.486 626.5,407.5C 626.229,405.62 626.896,404.287 628.5,403.5 Z"/></g>
<g><path style="opacity:1" fill="#c3d0d2" d="M 291.5,405.5 C 293.446,406.035 294.446,407.368 294.5,409.5C 293.026,408.564 292.026,407.23 291.5,405.5 Z"/></g>
<g><path style="opacity:1" fill="#ced3d3" d="M 133.5,408.5 C 134.38,410.137 135.046,411.97 135.5,414C 135.43,414.765 135.097,415.265 134.5,415.5C 133.781,413.236 133.448,410.903 133.5,408.5 Z"/></g>
<g><path style="opacity:1" fill="#cdd4d5" d="M 626.5,407.5 C 625.167,412.167 625.167,416.833 626.5,421.5C 625.883,421.389 625.383,421.056 625,420.5C 624.333,416.5 624.333,412.5 625,408.5C 625.383,407.944 625.883,407.611 626.5,407.5 Z"/></g>
<g><path style="opacity:1" fill="#cad4d4" d="M 433.5,415.5 C 433.088,417.887 432.088,419.887 430.5,421.5C 430.621,418.895 431.621,416.895 433.5,415.5 Z"/></g>
<g><path style="opacity:1" fill="#bfd1d4" d="M 134.5,415.5 C 134.771,417.38 134.104,418.713 132.5,419.5C 132.66,417.847 133.326,416.514 134.5,415.5 Z"/></g>
<g><path style="opacity:1" fill="#b1d5d7" d="M 132.5,420.5 C 131.666,423.544 132,426.544 133.5,429.5C 131.622,428.126 130.622,426.126 130.5,423.5C 130.453,421.962 131.12,420.962 132.5,420.5 Z"/></g>
<g><path style="opacity:1" fill="#c5d2d2" d="M 357.5,421.5 C 359.446,422.035 360.446,423.368 360.5,425.5C 359.026,424.564 358.026,423.23 357.5,421.5 Z"/></g>
<g><path style="opacity:1" fill="#c5d6d7" d="M 430.5,421.5 C 428.618,423.31 426.618,424.977 424.5,426.5C 424.5,425.5 424.5,424.5 424.5,423.5C 426.5,422.833 428.5,422.167 430.5,421.5 Z"/></g>
<g><path style="opacity:1" fill="#c2d5d7" d="M 626.5,421.5 C 635.099,421.124 641.099,424.791 644.5,432.5C 639.999,426.255 633.999,422.588 626.5,421.5 Z"/></g>
<g><path style="opacity:1" fill="#c0ced1" d="M 360.5,425.5 C 361.674,426.514 362.34,427.847 362.5,429.5C 360.896,428.713 360.229,427.38 360.5,425.5 Z"/></g>
<g><path style="opacity:1" fill="#bdd4d6" d="M 423.5,426.5 C 421.551,428.478 419.551,430.478 417.5,432.5C 418.134,429.199 420.134,427.199 423.5,426.5 Z"/></g>
<g><path style="opacity:1" fill="#c6d3d4" d="M 301.5,423.5 C 302.376,423.369 303.043,423.702 303.5,424.5C 305.5,427.833 307.5,431.167 309.5,434.5C 310.689,435.429 312.022,435.762 313.5,435.5C 311.965,436.788 310.299,436.788 308.5,435.5C 305.74,431.742 303.407,427.742 301.5,423.5 Z"/></g>
<g><path style="opacity:1" fill="#c3d1d2" d="M 134.5,437.5 C 135.974,438.436 136.974,439.77 137.5,441.5C 135.554,440.965 134.554,439.632 134.5,437.5 Z"/></g>
<g><path style="opacity:1" fill="#c2d3d4" d="M 645.5,433.5 C 648.083,434.985 649.416,437.318 649.5,440.5C 647.929,438.365 646.596,436.032 645.5,433.5 Z"/></g>
<g><path style="opacity:1" fill="#c0d7d9" d="M 410.5,437.5 C 406.167,441.165 401.167,443.499 395.5,444.5C 400.345,441.912 405.345,439.579 410.5,437.5 Z"/></g>
<g><path style="opacity:1" fill="#a3d4d8" d="M 138.5,445.5 C 139.993,446.312 140.66,447.645 140.5,449.5C 140.66,451.355 139.993,452.688 138.5,453.5C 139.833,450.833 139.833,448.167 138.5,445.5 Z"/></g>
<g><path style="opacity:1" fill="#b0d5d8" d="M 369.5,443.5 C 371.31,446.372 372.31,449.705 372.5,453.5C 371.883,453.389 371.383,453.056 371,452.5C 370.741,449.413 370.241,446.413 369.5,443.5 Z"/></g>
<g><path style="opacity:1" fill="#ccd3d3" d="M 395.5,446.5 C 396.306,447.997 396.972,449.664 397.5,451.5C 397.043,452.298 396.376,452.631 395.5,452.5C 395.5,450.5 395.5,448.5 395.5,446.5 Z"/></g>
<g><path style="opacity:1" fill="#ced6d7" d="M 372.5,453.5 C 376.655,454.724 380.655,456.057 384.5,457.5C 380.6,456.57 376.6,456.237 372.5,456.5C 372.5,455.5 372.5,454.5 372.5,453.5 Z"/></g>
<g><path style="opacity:1" fill="#9ed7dc" d="M 650.5,448.5 C 651.307,452.021 651.974,455.688 652.5,459.5C 651.883,459.389 651.383,459.056 651,458.5C 650.502,455.183 650.335,451.85 650.5,448.5 Z"/></g>
<g><path style="opacity:1" fill="#d0d6d7" d="M 392.5,455.5 C 390.916,456.769 389.083,457.769 387,458.5C 385.93,458.472 385.097,458.139 384.5,457.5C 387.167,456.833 389.833,456.167 392.5,455.5 Z"/></g>
<g><path style="opacity:1" fill="#ccd3d3" d="M 138.5,463.5 C 139.974,464.436 140.974,465.77 141.5,467.5C 139.554,466.965 138.554,465.632 138.5,463.5 Z"/></g>
<g><path style="opacity:1" fill="#b0d5d8" d="M 141.5,468.5 C 142.451,470.403 143.451,472.403 144.5,474.5C 144.547,476.038 143.88,477.038 142.5,477.5C 142.539,476.417 142.873,475.417 143.5,474.5C 141.896,472.821 141.229,470.821 141.5,468.5 Z"/></g>
<g><path style="opacity:1" fill="#c6d4d6" d="M 142.5,477.5 C 142.706,480.997 141.372,483.663 138.5,485.5C 139.855,482.789 141.189,480.123 142.5,477.5 Z"/></g>
<g><path style="opacity:1" fill="#cad5d5" d="M 657.5,477.5 C 661.901,480.233 665.235,483.899 667.5,488.5C 663.826,485.158 660.492,481.492 657.5,477.5 Z"/></g>
<g><path style="opacity:1" fill="#ced4d4" d="M 667.5,496.5 C 665.845,499.805 663.845,502.805 661.5,505.5C 661.5,505.167 661.5,504.833 661.5,504.5C 662.697,501.294 664.697,498.627 667.5,496.5 Z"/></g>
<g><path style="opacity:1" fill="#ccd3d4" d="M 136.5,497.5 C 137.88,497.962 138.547,498.962 138.5,500.5C 137.828,502.16 136.828,503.493 135.5,504.5C 135.48,502.857 136.147,501.524 137.5,500.5C 136.873,499.583 136.539,498.583 136.5,497.5 Z"/></g>
<g><path style="opacity:1" fill="#9ed6dc" d="M 661.5,504.5 C 661.5,504.833 661.5,505.167 661.5,505.5C 661.401,508.237 661.735,510.904 662.5,513.5C 661.883,513.389 661.383,513.056 661,512.5C 660.199,509.633 660.366,506.966 661.5,504.5 Z"/></g>
<g><path style="opacity:1" fill="#c3d2d2" d="M 660.5,517.5 C 660.446,519.632 659.446,520.965 657.5,521.5C 658.026,519.77 659.026,518.436 660.5,517.5 Z"/></g>
<g><path style="opacity:1" fill="#cfd4d5" d="M 137.5,524.5 C 138.268,526.715 138.935,529.048 139.5,531.5C 137.656,529.721 136.99,527.388 137.5,524.5 Z"/></g>
<g><path style="opacity:1" fill="#c4d2d2" d="M 654.5,525.5 C 654.34,527.153 653.674,528.486 652.5,529.5C 652.229,527.62 652.896,526.287 654.5,525.5 Z"/></g>
<g><path style="opacity:1" fill="#9ed9de" d="M 650.5,537.5 C 649.573,544.443 649.24,551.443 649.5,558.5C 648.346,552.013 648.179,545.346 649,538.5C 649.383,537.944 649.883,537.611 650.5,537.5 Z"/></g>
<g><path style="opacity:1" fill="#c0d3d4" d="M 140.5,553.5 C 140.771,555.38 140.104,556.713 138.5,557.5C 138.66,555.847 139.326,554.514 140.5,553.5 Z"/></g>
<g><path style="opacity:1" fill="#c1d3d4" d="M 138.5,557.5 C 138.771,559.38 138.104,560.713 136.5,561.5C 136.66,559.847 137.326,558.514 138.5,557.5 Z"/></g>
<g><path style="opacity:1" fill="#cfd4d4" d="M 651.5,568.5 C 652.01,571.388 651.344,573.721 649.5,575.5C 650.065,573.048 650.732,570.715 651.5,568.5 Z"/></g>
<g><path style="opacity:1" fill="#ced5d5" d="M 125.5,579.5 C 124.935,581.952 124.268,584.285 123.5,586.5C 122.99,583.612 123.656,581.279 125.5,579.5 Z"/></g>
<g><path style="opacity:1" fill="#c4d2d2" d="M 648.5,579.5 C 648.34,581.153 647.674,582.486 646.5,583.5C 646.229,581.62 646.896,580.287 648.5,579.5 Z"/></g>
<g><path style="opacity:1" fill="#cfd5d5" d="M 645.5,587.5 C 647.344,589.279 648.01,591.612 647.5,594.5C 646.732,592.285 646.065,589.952 645.5,587.5 Z"/></g>
<g><path style="opacity:1" fill="#ced4d5" d="M 647.5,599.5 C 649.344,601.279 650.01,603.612 649.5,606.5C 648.732,604.285 648.065,601.952 647.5,599.5 Z"/></g>
<g><path style="opacity:1" fill="#cbd3d4" d="M 124.5,619.5 C 126.333,621.832 127.666,624.499 128.5,627.5C 126.13,625.427 124.797,622.76 124.5,619.5 Z"/></g>
<g><path style="opacity:1" fill="#c3d5d7" d="M 651.5,613.5 C 652.827,616.23 654.827,618.563 657.5,620.5C 667.036,623.268 676.369,626.601 685.5,630.5C 686.993,631.141 687.993,632.141 688.5,633.5C 678.074,628.958 667.408,624.958 656.5,621.5C 653.392,619.759 651.726,617.092 651.5,613.5 Z"/></g>
<g><path style="opacity:1" fill="#ced3d3" d="M 128.5,627.5 C 128.451,630.711 128.785,634.044 129.5,637.5C 128.252,636.666 127.585,635.333 127.5,633.5C 127.672,631.452 128.005,629.452 128.5,627.5 Z"/></g>
<g><path style="opacity:1" fill="#abd6da" d="M 688.5,633.5 C 689.294,637.358 689.96,641.358 690.5,645.5C 689.883,645.389 689.383,645.056 689,644.5C 688.501,640.848 688.335,637.182 688.5,633.5 Z"/></g>
<g><path style="opacity:1" fill="#c6d3d3" d="M 130.5,641.5 C 132.597,642.879 132.93,644.545 131.5,646.5C 131.371,644.784 131.038,643.117 130.5,641.5 Z"/></g>
<g><path style="opacity:1" fill="#bfced0" d="M 692.5,651.5 C 693.674,652.514 694.34,653.847 694.5,655.5C 692.896,654.713 692.229,653.38 692.5,651.5 Z"/></g>
<g><path style="opacity:1" fill="#bfd2d3" d="M 129.5,653.5 C 128.974,655.23 127.974,656.564 126.5,657.5C 126.554,655.368 127.554,654.035 129.5,653.5 Z"/></g>
<g><path style="opacity:1" fill="#d4d5d5" d="M 695.5,657.5 C 697.344,659.279 698.01,661.612 697.5,664.5C 696.732,662.285 696.065,659.952 695.5,657.5 Z"/></g>
<g><path style="opacity:1" fill="#acd3d7" d="M 126.5,657.5 C 126.946,660.01 126.28,662.01 124.5,663.5C 124.875,661.302 125.542,659.302 126.5,657.5 Z"/></g>
<g><path style="opacity:1" fill="#d2d5d5" d="M 124.5,663.5 C 124.32,667.682 124.987,671.682 126.5,675.5C 125.849,674.909 125.182,674.243 124.5,673.5C 123.194,670.02 123.194,666.687 124.5,663.5 Z"/></g>
<g><path style="opacity:1" fill="#c4d2d2" d="M 126.5,675.5 C 128.104,676.287 128.771,677.62 128.5,679.5C 127.326,678.486 126.66,677.153 126.5,675.5 Z"/></g>
<g><path style="opacity:1" fill="#c4d0d2" d="M 128.5,679.5 C 130.104,680.287 130.771,681.62 130.5,683.5C 129.326,682.486 128.66,681.153 128.5,679.5 Z"/></g>
<g><path style="opacity:1" fill="#ced5d5" d="M 697.5,687.5 C 699.344,689.279 700.01,691.612 699.5,694.5C 698.732,692.285 698.065,689.952 697.5,687.5 Z"/></g>
<g><path style="opacity:1" fill="#c9d3d4" d="M 136.5,689.5 C 137.097,689.735 137.43,690.235 137.5,691C 137.046,693.03 136.38,694.863 135.5,696.5C 135.448,694.097 135.781,691.764 136.5,689.5 Z"/></g>
<g><path style="opacity:1" fill="#cfd4d4" d="M 134.5,699.5 C 134.986,702.382 134.986,705.048 134.5,707.5C 133.343,704.693 133.343,702.026 134.5,699.5 Z"/></g>
<g><path style="opacity:1" fill="#c6d1d2" d="M 699.5,700.5 C 696.553,702.721 694.887,705.721 694.5,709.5C 693.903,709.265 693.57,708.765 693.5,708C 693.756,703.939 695.756,701.439 699.5,700.5 Z"/></g>
<g><path style="opacity:1" fill="#c7d4d5" d="M 132.5,709.5 C 130.5,711.5 128.5,713.5 126.5,715.5C 127.184,712.149 129.184,710.149 132.5,709.5 Z"/></g>
<g><path style="opacity:1" fill="#a8d0d3" d="M 695.5,710.5 C 696.003,713.417 696.337,716.417 696.5,719.5C 695.12,719.038 694.453,718.038 694.5,716.5C 695.156,714.547 695.489,712.547 695.5,710.5 Z"/></g>
<g><path style="opacity:1" fill="#aad7db" d="M 126.5,716.5 C 124.476,722.014 122.476,727.348 120.5,732.5C 120.952,726.465 122.952,721.131 126.5,716.5 Z"/></g>
<g><path style="opacity:1" fill="#c8d4d5" d="M 697.5,721.5 C 700.417,725.098 703.417,728.765 706.5,732.5C 702.072,730.065 699.072,726.399 697.5,721.5 Z"/></g>
<g><path style="opacity:1" fill="#c8d5d6" d="M 709.5,737.5 C 713.91,741.207 718.91,743.54 724.5,744.5C 718.019,745.09 713.019,742.757 709.5,737.5 Z"/></g>
<g><path style="opacity:1" fill="#ced4d4" d="M 119.5,744.5 C 120.268,746.715 120.935,749.048 121.5,751.5C 119.656,749.721 118.99,747.388 119.5,744.5 Z"/></g>
<g><path style="opacity:1" fill="#c0d4d6" d="M 725.5,746.5 C 729.848,748.181 732.848,751.181 734.5,755.5C 731.463,752.463 728.463,749.463 725.5,746.5 Z"/></g>
<g><path style="opacity:1" fill="#c3d1d2" d="M 122.5,755.5 C 124.104,756.287 124.771,757.62 124.5,759.5C 123.326,758.486 122.66,757.153 122.5,755.5 Z"/></g>
<g><path style="opacity:1" fill="#c2d2d1" d="M 734.5,755.5 C 735.674,756.514 736.34,757.847 736.5,759.5C 734.896,758.713 734.229,757.38 734.5,755.5 Z"/></g>
<g><path style="opacity:1" fill="#c3d0d1" d="M 124.5,759.5 C 126.104,760.287 126.771,761.62 126.5,763.5C 125.326,762.486 124.66,761.153 124.5,759.5 Z"/></g>
<g><path style="opacity:1" fill="#c3d5d7" d="M 126.5,763.5 C 127.839,766.101 129.172,768.768 130.5,771.5C 129.5,771.5 128.5,771.5 127.5,771.5C 127.599,768.763 127.265,766.096 126.5,763.5 Z"/></g>
<g><path style="opacity:1" fill="#bed5d7" d="M 132.5,773.5 C 133.117,773.611 133.617,773.944 134,774.5C 135,779.492 135.833,784.492 136.5,789.5C 134.564,784.425 133.231,779.091 132.5,773.5 Z"/></g>
<g><path style="opacity:1" fill="#c2cfd1" d="M 136.5,789.5 C 137.974,790.436 138.974,791.77 139.5,793.5C 137.554,792.965 136.554,791.632 136.5,789.5 Z"/></g>
<g><path style="opacity:1" fill="#c4d3d3" d="M 740.5,809.5 C 740.34,811.153 739.674,812.486 738.5,813.5C 738.229,811.62 738.896,810.287 740.5,809.5 Z"/></g>
<g><path style="opacity:1" fill="#cbd3d4" d="M 738.5,813.5 C 737.781,815.764 737.448,818.097 737.5,820.5C 736.853,819.726 736.52,818.726 736.5,817.5C 736.34,815.645 737.007,814.312 738.5,813.5 Z"/></g>
<g><path style="opacity:1" fill="#c4d2d3" d="M 138.5,815.5 C 140.104,816.287 140.771,817.62 140.5,819.5C 139.326,818.486 138.66,817.153 138.5,815.5 Z"/></g>
<g><path style="opacity:1" fill="#ccd3d4" d="M 140.5,819.5 C 142.63,820.964 143.963,822.964 144.5,825.5C 142.39,824.05 141.057,822.05 140.5,819.5 Z"/></g>
<g><path style="opacity:1" fill="#d3d5d5" d="M 737.5,823.5 C 738.794,825.048 739.461,827.048 739.5,829.5C 739.461,831.952 738.794,833.952 737.5,835.5C 737.5,835.167 737.5,834.833 737.5,834.5C 738.787,830.935 738.787,827.268 737.5,823.5 Z"/></g>
<g><path style="opacity:1" fill="#cad1d2" d="M 144.5,825.5 C 146.63,826.964 147.963,828.964 148.5,831.5C 146.39,830.05 145.057,828.05 144.5,825.5 Z"/></g>
<g><path style="opacity:1" fill="#ccd2d3" d="M 148.5,831.5 C 149.974,832.436 150.974,833.77 151.5,835.5C 149.554,834.965 148.554,833.632 148.5,831.5 Z"/></g>
<g><path style="opacity:1" fill="#9fd5db" d="M 737.5,834.5 C 737.5,834.833 737.5,835.167 737.5,835.5C 737.517,837.565 737.85,839.565 738.5,841.5C 737.007,840.688 736.34,839.355 736.5,837.5C 736.52,836.274 736.853,835.274 737.5,834.5 Z"/></g>
<g><path style="opacity:1" fill="#c4d4d6" d="M 152.5,839.5 C 154.088,841.113 155.088,843.113 155.5,845.5C 153.621,844.105 152.621,842.105 152.5,839.5 Z"/></g>
<g><path style="opacity:1" fill="#c3d0d2" d="M 739.5,843.5 C 741.446,844.035 742.446,845.368 742.5,847.5C 741.026,846.564 740.026,845.23 739.5,843.5 Z"/></g>
<g><path style="opacity:1" fill="#a8d5d9" d="M 156.5,849.5 C 157.906,849.973 158.573,850.973 158.5,852.5C 157.094,852.027 156.427,851.027 156.5,849.5 Z"/></g>
<g><path style="opacity:1" fill="#cbd4d5" d="M 743.5,848.5 C 745.63,849.964 746.963,851.964 747.5,854.5C 745.39,853.05 744.057,851.05 743.5,848.5 Z"/></g>
<g><path style="opacity:1" fill="#c4d1d2" d="M 751.5,863.5 C 753.446,864.035 754.446,865.368 754.5,867.5C 753.026,866.564 752.026,865.23 751.5,863.5 Z"/></g>
<g><path style="opacity:1" fill="#c7d4d5" d="M 755.5,869.5 C 756.376,869.369 757.043,869.702 757.5,870.5C 758.914,873.213 760.247,875.88 761.5,878.5C 758.769,876.054 756.769,873.054 755.5,869.5 Z"/></g>
<g><path style="opacity:1" fill="#c6d3d4" d="M 166.5,875.5 C 165.281,878.724 163.281,881.39 160.5,883.5C 161.738,880.262 163.738,877.596 166.5,875.5 Z"/></g>
<g><path style="opacity:1" fill="#c4d2d2" d="M 761.5,879.5 C 763.446,880.035 764.446,881.368 764.5,883.5C 763.026,882.564 762.026,881.23 761.5,879.5 Z"/></g>
<g><path style="opacity:1" fill="#bfd2d4" d="M 158.5,885.5 C 158.771,887.38 158.104,888.713 156.5,889.5C 156.66,887.847 157.326,886.514 158.5,885.5 Z"/></g>
<g><path style="opacity:1" fill="#ced4d5" d="M 155.5,903.5 C 154.935,905.952 154.268,908.285 153.5,910.5C 152.99,907.612 153.656,905.279 155.5,903.5 Z"/></g>
<g><path style="opacity:1" fill="#c4d2d2" d="M 768.5,911.5 C 768.34,913.153 767.674,914.486 766.5,915.5C 766.229,913.62 766.896,912.287 768.5,911.5 Z"/></g>
<g><path style="opacity:1" fill="#bfd1d4" d="M 150.5,915.5 C 150.771,917.38 150.104,918.713 148.5,919.5C 148.66,917.847 149.326,916.514 150.5,915.5 Z"/></g>
<g><path style="opacity:1" fill="#cdd3d4" d="M 766.5,915.5 C 766.339,918.68 765.339,921.347 763.5,923.5C 763.5,923.167 763.5,922.833 763.5,922.5C 763.98,919.922 764.98,917.588 766.5,915.5 Z"/></g>
<g><path style="opacity:1" fill="#a0d6db" d="M 763.5,922.5 C 763.5,922.833 763.5,923.167 763.5,923.5C 763.517,925.565 763.85,927.565 764.5,929.5C 763.007,928.688 762.34,927.355 762.5,925.5C 762.52,924.274 762.853,923.274 763.5,922.5 Z"/></g>
<g><path style="opacity:1" fill="#9cd9de" d="M 540.5,939.5 C 541.274,938.853 542.274,938.52 543.5,938.5C 545.03,938.64 546.03,939.307 546.5,940.5C 544.565,939.85 542.565,939.517 540.5,939.5 Z"/></g>
<g><path style="opacity:1" fill="#fefefe" d="M 540.5,939.5 C 542.565,939.517 544.565,939.85 546.5,940.5C 554.099,941.928 561.432,943.928 568.5,946.5C 577.258,948.478 586.258,949.812 595.5,950.5C 599.089,952.463 602.756,954.13 606.5,955.5C 607.5,955.833 608.167,956.5 608.5,957.5C 609.925,959.253 611.591,960.92 613.5,962.5C 614.325,963.386 615.325,963.719 616.5,963.5C 618.272,965.29 620.272,966.623 622.5,967.5C 625.132,970.49 628.465,972.49 632.5,973.5C 640.634,976.711 648.634,980.045 656.5,983.5C 659.914,986.07 663.914,987.737 668.5,988.5C 674.364,990.407 680.364,991.407 686.5,991.5C 689.337,993.402 692.671,994.069 696.5,993.5C 696.5,993.833 696.5,994.167 696.5,994.5C 705.49,995.945 714.49,995.278 723.5,992.5C 724.993,991.859 725.993,990.859 726.5,989.5C 727.512,987.124 729.345,986.124 732,986.5C 734.761,987.418 737.594,988.084 740.5,988.5C 742.903,990.566 745.57,992.232 748.5,993.5C 749.925,995.253 751.591,996.92 753.5,998.5C 754.325,999.386 755.325,999.719 756.5,999.5C 756.554,1001.63 757.554,1002.97 759.5,1003.5C 759.833,1004.17 760.167,1004.83 760.5,1005.5C 760.554,1007.63 761.554,1008.97 763.5,1009.5C 763.833,1010.17 764.167,1010.83 764.5,1011.5C 764.554,1013.63 765.554,1014.97 767.5,1015.5C 767.833,1016.17 768.167,1016.83 768.5,1017.5C 768.554,1019.63 769.554,1020.97 771.5,1021.5C 771.833,1022.17 772.167,1022.83 772.5,1023.5C 773.712,1024.23 774.712,1025.23 775.5,1026.5C 776.484,1023.57 776.817,1020.57 776.5,1017.5C 776.125,1015.3 775.458,1013.3 774.5,1011.5C 774.34,1009.85 773.674,1008.51 772.5,1007.5C 772.446,1005.37 771.446,1004.03 769.5,1003.5C 769.5,1003.17 769.5,1002.83 769.5,1002.5C 769.262,999.931 767.929,998.265 765.5,997.5C 764.766,996.292 764.433,994.959 764.5,993.5C 763.627,989.232 763.294,984.898 763.5,980.5C 765.071,978.365 766.404,976.032 767.5,973.5C 769.379,972.105 770.379,970.105 770.5,967.5C 772.551,965.478 774.551,963.478 776.5,961.5C 777.833,960.167 779.167,958.833 780.5,957.5C 780.833,957.5 781.167,957.5 781.5,957.5C 781.5,987.5 781.5,1017.5 781.5,1047.5C 585.833,1047.5 390.167,1047.5 194.5,1047.5C 194.5,1047.17 194.5,1046.83 194.5,1046.5C 198.439,1040.89 203.106,1035.89 208.5,1031.5C 209.675,1031.72 210.675,1031.39 211.5,1030.5C 221.919,1020.08 232.252,1009.75 242.5,999.5C 251.5,989.833 260.833,980.5 270.5,971.5C 275.366,968.648 279.7,964.981 283.5,960.5C 289.798,959.504 296.132,959.17 302.5,959.5C 308.591,959.211 314.591,959.545 320.5,960.5C 326.5,960.5 332.5,960.5 338.5,960.5C 341.725,961.237 345.059,961.903 348.5,962.5C 357.155,963.083 365.822,963.416 374.5,963.5C 380.75,965.459 387.416,966.126 394.5,965.5C 399.695,965.179 404.695,965.513 409.5,966.5C 418.009,967.821 426.675,967.821 435.5,966.5C 443.328,965.252 450.995,963.919 458.5,962.5C 459.833,961.833 461.167,961.167 462.5,960.5C 465.385,960.806 468.052,960.473 470.5,959.5C 475.974,959.697 481.308,959.031 486.5,957.5C 493.281,957.294 499.948,957.961 506.5,959.5C 508.099,959.232 509.432,959.566 510.5,960.5C 512.304,961.162 514.304,961.495 516.5,961.5C 518.952,961.461 520.952,960.794 522.5,959.5C 526.119,955.881 529.785,952.215 533.5,948.5C 534.127,947.583 534.461,946.583 534.5,945.5C 536.194,943.139 538.194,941.139 540.5,939.5 Z"/></g>
<g><path style="opacity:1" fill="#c6d8d8" d="M 765.5,939.5 C 767.078,940.066 768.412,941.066 769.5,942.5C 771.969,943.168 774.302,943.835 776.5,944.5C 771.525,945.362 767.859,943.695 765.5,939.5 Z"/></g>
<g><path style="opacity:1" fill="#cad5d6" d="M 534.5,945.5 C 534.461,946.583 534.127,947.583 533.5,948.5C 529.785,952.215 526.119,955.881 522.5,959.5C 522.281,958.325 522.614,957.325 523.5,956.5C 527.215,952.785 530.881,949.119 534.5,945.5 Z"/></g>
<g><path style="opacity:1" fill="#c2d8d9" d="M 568.5,946.5 C 577.825,947.425 587.158,948.425 596.5,949.5C 600.229,951.023 603.562,953.023 606.5,955.5C 602.756,954.13 599.089,952.463 595.5,950.5C 586.258,949.812 577.258,948.478 568.5,946.5 Z"/></g>
<g><path style="opacity:1" fill="#aad7db" d="M 779.5,948.5 C 780.167,948.833 780.833,949.167 781.5,949.5C 781.5,952.167 781.5,954.833 781.5,957.5C 781.167,957.5 780.833,957.5 780.5,957.5C 780.632,954.43 780.299,951.43 779.5,948.5 Z"/></g>
<g><path style="opacity:1" fill="#c9d3d4" d="M 152.5,955.5 C 155.893,959.231 159.56,962.564 163.5,965.5C 158.233,963.899 154.567,960.565 152.5,955.5 Z"/></g>
<g><path style="opacity:1" fill="#b5d9dc" d="M 486.5,956.5 C 486.5,956.833 486.5,957.167 486.5,957.5C 481.308,959.031 475.974,959.697 470.5,959.5C 475.697,958.395 481.03,957.395 486.5,956.5 Z"/></g>
<g><path style="opacity:1" fill="#ced6d7" d="M 486.5,957.5 C 486.5,957.167 486.5,956.833 486.5,956.5C 493.305,956.185 499.971,956.852 506.5,958.5C 506.5,958.833 506.5,959.167 506.5,959.5C 499.948,957.961 493.281,957.294 486.5,957.5 Z"/></g>
<g><path style="opacity:1" fill="#b0dadd" d="M 302.5,959.5 C 302.5,959.167 302.5,958.833 302.5,958.5C 308.926,957.88 314.926,958.547 320.5,960.5C 314.591,959.545 308.591,959.211 302.5,959.5 Z"/></g>
<g><path style="opacity:1" fill="#9ad9dd" d="M 506.5,959.5 C 506.5,959.167 506.5,958.833 506.5,958.5C 509.082,958.025 511.082,958.692 512.5,960.5C 511.833,960.5 511.167,960.5 510.5,960.5C 509.432,959.566 508.099,959.232 506.5,959.5 Z"/></g>
<g><path style="opacity:1" fill="#d0d7d7" d="M 302.5,958.5 C 302.5,958.833 302.5,959.167 302.5,959.5C 296.132,959.17 289.798,959.504 283.5,960.5C 279.7,964.981 275.366,968.648 270.5,971.5C 274.452,967.548 278.452,963.548 282.5,959.5C 289.134,958.503 295.8,958.17 302.5,958.5 Z"/></g>
<g><path style="opacity:1" fill="#b0d9dd" d="M 338.5,960.5 C 342.329,959.931 345.663,960.598 348.5,962.5C 345.059,961.903 341.725,961.237 338.5,960.5 Z"/></g>
<g><path style="opacity:1" fill="#a6dade" d="M 462.5,960.5 C 461.167,961.167 459.833,961.833 458.5,962.5C 457.833,962.5 457.167,962.5 456.5,962.5C 457.918,960.692 459.918,960.025 462.5,960.5 Z"/></g>
<g><path style="opacity:1" fill="#c3d8da" d="M 522.5,959.5 C 520.952,960.794 518.952,961.461 516.5,961.5C 514.304,961.495 512.304,961.162 510.5,960.5C 511.167,960.5 511.833,960.5 512.5,960.5C 515.939,960.747 519.272,960.414 522.5,959.5 Z"/></g>
<g><path style="opacity:1" fill="#c6d4d5" d="M 608.5,957.5 C 611.75,958.754 614.417,960.754 616.5,963.5C 615.325,963.719 614.325,963.386 613.5,962.5C 611.591,960.92 609.925,959.253 608.5,957.5 Z"/></g>
<g><path style="opacity:1" fill="#d4d6d6" d="M 374.5,963.5 C 381.078,964.46 387.745,964.793 394.5,964.5C 394.5,964.833 394.5,965.167 394.5,965.5C 387.416,966.126 380.75,965.459 374.5,963.5 Z"/></g>
<g><path style="opacity:1" fill="#b0dadd" d="M 394.5,965.5 C 394.5,965.167 394.5,964.833 394.5,964.5C 400.271,963.887 405.604,964.554 410.5,966.5C 410.167,966.5 409.833,966.5 409.5,966.5C 404.695,965.513 399.695,965.179 394.5,965.5 Z"/></g>
<g><path style="opacity:1" fill="#c6d3d4" d="M 776.5,961.5 C 774.551,963.478 772.551,965.478 770.5,967.5C 771.134,964.199 773.134,962.199 776.5,961.5 Z"/></g>
<g><path style="opacity:1" fill="#d1d7d7" d="M 456.5,962.5 C 457.167,962.5 457.833,962.5 458.5,962.5C 450.995,963.919 443.328,965.252 435.5,966.5C 426.675,967.821 418.009,967.821 409.5,966.5C 409.833,966.5 410.167,966.5 410.5,966.5C 418.528,966.831 426.528,966.498 434.5,965.5C 441.791,964.062 449.124,963.062 456.5,962.5 Z"/></g>
<g><path style="opacity:1" fill="#ccd6d7" d="M 622.5,967.5 C 626.192,969.008 629.525,971.008 632.5,973.5C 628.465,972.49 625.132,970.49 622.5,967.5 Z"/></g>
<g><path style="opacity:1" fill="#cbd2d3" d="M 770.5,967.5 C 770.379,970.105 769.379,972.105 767.5,973.5C 767.912,971.113 768.912,969.113 770.5,967.5 Z"/></g>
<g><path style="opacity:1" fill="#cfd5d5" d="M 166.5,971.5 C 169.28,972.078 171.947,972.745 174.5,973.5C 171.302,974.036 168.635,973.369 166.5,971.5 Z"/></g>
<g><path style="opacity:1" fill="#c4d1d2" d="M 174.5,973.5 C 175.974,974.436 176.974,975.77 177.5,977.5C 175.554,976.965 174.554,975.632 174.5,973.5 Z"/></g>
<g><path style="opacity:1" fill="#9ed7dc" d="M 763.5,980.5 C 763.294,984.898 763.627,989.232 764.5,993.5C 763.883,993.389 763.383,993.056 763,992.5C 762.188,988.311 762.355,984.311 763.5,980.5 Z"/></g>
<g><path style="opacity:1" fill="#c1d5d7" d="M 656.5,983.5 C 666.427,986.814 676.427,989.48 686.5,991.5C 680.364,991.407 674.364,990.407 668.5,988.5C 663.914,987.737 659.914,986.07 656.5,983.5 Z"/></g>
<g><path style="opacity:1" fill="#ced4d4" d="M 181.5,988.5 C 182.268,990.715 182.935,993.048 183.5,995.5C 181.656,993.721 180.99,991.388 181.5,988.5 Z"/></g>
<g><path style="opacity:1" fill="#c4d5d7" d="M 740.5,988.5 C 743.934,988.934 746.601,990.6 748.5,993.5C 745.57,992.232 742.903,990.566 740.5,988.5 Z"/></g>
<g><path style="opacity:1" fill="#bdd9db" d="M 686.5,991.5 C 689.941,992.097 693.275,992.763 696.5,993.5C 692.671,994.069 689.337,993.402 686.5,991.5 Z"/></g>
<g><path style="opacity:1" fill="#d3d6d7" d="M 726.5,989.5 C 725.993,990.859 724.993,991.859 723.5,992.5C 714.49,995.278 705.49,995.945 696.5,994.5C 706.973,995.229 716.973,993.562 726.5,989.5 Z"/></g>
<g><path style="opacity:1" fill="#c6d3d5" d="M 748.5,993.5 C 751.75,994.754 754.417,996.754 756.5,999.5C 755.325,999.719 754.325,999.386 753.5,998.5C 751.591,996.92 749.925,995.253 748.5,993.5 Z"/></g>
<g><path style="opacity:1" fill="#cdd4d5" d="M 765.5,997.5 C 767.929,998.265 769.262,999.931 769.5,1002.5C 767.817,1001.15 766.484,999.48 765.5,997.5 Z"/></g>
<g><path style="opacity:1" fill="#cdd7d7" d="M 242.5,999.5 C 232.252,1009.75 221.919,1020.08 211.5,1030.5C 210.675,1031.39 209.675,1031.72 208.5,1031.5C 218.452,1021.55 228.452,1011.55 238.5,1001.5C 239.766,1000.64 241.099,999.971 242.5,999.5 Z"/></g>
<g><path style="opacity:1" fill="#c3d0d2" d="M 756.5,999.5 C 757.974,1000.44 758.974,1001.77 759.5,1003.5C 757.554,1002.97 756.554,1001.63 756.5,999.5 Z"/></g>
<g><path style="opacity:1" fill="#c4d1d1" d="M 769.5,1003.5 C 771.446,1004.03 772.446,1005.37 772.5,1007.5C 771.026,1006.56 770.026,1005.23 769.5,1003.5 Z"/></g>
<g><path style="opacity:1" fill="#c3d0d2" d="M 760.5,1005.5 C 761.974,1006.44 762.974,1007.77 763.5,1009.5C 761.554,1008.97 760.554,1007.63 760.5,1005.5 Z"/></g>
<g><path style="opacity:1" fill="#bfcfd1" d="M 772.5,1007.5 C 773.674,1008.51 774.34,1009.85 774.5,1011.5C 772.896,1010.71 772.229,1009.38 772.5,1007.5 Z"/></g>
<g><path style="opacity:1" fill="#c3d0d2" d="M 764.5,1011.5 C 765.974,1012.44 766.974,1013.77 767.5,1015.5C 765.554,1014.97 764.554,1013.63 764.5,1011.5 Z"/></g>
<g><path style="opacity:1" fill="#add4d7" d="M 774.5,1011.5 C 775.458,1013.3 776.125,1015.3 776.5,1017.5C 774.72,1016.01 774.054,1014.01 774.5,1011.5 Z"/></g>
<g><path style="opacity:1" fill="#d2d5d5" d="M 183.5,1017.5 C 182.036,1023.59 182.37,1029.59 184.5,1035.5C 183.849,1034.91 183.182,1034.24 182.5,1033.5C 182.167,1030.83 181.833,1028.17 181.5,1025.5C 181.522,1022.41 182.188,1019.74 183.5,1017.5 Z"/></g>
<g><path style="opacity:1" fill="#c3d0d2" d="M 768.5,1017.5 C 769.974,1018.44 770.974,1019.77 771.5,1021.5C 769.554,1020.97 768.554,1019.63 768.5,1017.5 Z"/></g>
<g><path style="opacity:1" fill="#d1d5d5" d="M 776.5,1017.5 C 777.479,1020.62 777.813,1023.96 777.5,1027.5C 774.454,1027.82 772.787,1026.48 772.5,1023.5C 772.787,1026.48 774.454,1027.82 777.5,1027.5C 777.813,1023.96 777.479,1020.62 776.5,1017.5 Z"/></g>
<g><path style="opacity:1" fill="#c2cfd1" d="M 184.5,1035.5 C 185.974,1036.44 186.974,1037.77 187.5,1039.5C 185.554,1038.97 184.554,1037.63 184.5,1035.5 Z"/></g>
<g><path style="opacity:1" fill="#c7d3d3" d="M 190.5,1043.5 C 191.637,1044.79 192.97,1045.79 194.5,1046.5C 194.5,1046.83 194.5,1047.17 194.5,1047.5C 193.5,1047.5 192.5,1047.5 191.5,1047.5C 191.167,1046.17 190.833,1044.83 190.5,1043.5 Z"/></g>
</svg>
