<?xml version="1.0" encoding="UTF-8"?>
<!DOCTYPE svg PUBLIC "-//W3C//DTD SVG 1.1//EN" "http://www.w3.org/Graphics/SVG/1.1/DTD/svg11.dtd">
<svg xmlns="http://www.w3.org/2000/svg" version="1.1" width="141px" height="110px" style="shape-rendering:geometricPrecision; text-rendering:geometricPrecision; image-rendering:optimizeQuality; fill-rule:evenodd; clip-rule:evenodd" xmlns:xlink="http://www.w3.org/1999/xlink">
<g><path style="opacity:1" fill="#6878f1" d="M 113.5,6.5 C 113.66,8.15298 114.326,9.48631 115.5,10.5C 123.729,24.6175 131.729,38.9508 139.5,53.5C 138.664,58.703 137.33,63.703 135.5,68.5C 134.326,69.5137 133.66,70.847 133.5,72.5C 126.003,79.2759 118.003,85.6092 109.5,91.5C 105.6,93.5261 101.6,95.1928 97.5,96.5C 96.6091,97.2613 95.9424,98.2613 95.5,99.5C 95.9569,100.298 96.6236,100.631 97.5,100.5C 97.5,102.5 97.5,104.5 97.5,106.5C 95.7231,106.786 94.0564,107.453 92.5,108.5C 88.3447,106.775 84.0114,106.109 79.5,106.5C 79.4502,102.306 78.6169,98.3062 77,94.5C 71.8172,85.4626 66.6506,76.4626 61.5,67.5C 59.8333,66.1667 58.1667,66.1667 56.5,67.5C 43.7302,73.9682 30.8969,80.3016 18,86.5C 15.8015,85.1444 13.8015,83.4778 12,81.5C 9.30426,73.4123 5.1376,66.4123 -0.5,60.5C -0.5,59.1667 -0.5,57.8333 -0.5,56.5C 13.0801,51.3998 26.0801,45.0665 38.5,37.5C 37.0541,35.3821 36.3874,33.0488 36.5,30.5C 38.7373,29.551 41.0706,28.8844 43.5,28.5C 43.3337,25.8316 42.3337,23.4983 40.5,21.5C 39.675,20.6143 38.675,20.281 37.5,20.5C 37.0461,18.2589 37.0461,16.2589 37.5,14.5C 39.7812,14.9227 41.4479,14.256 42.5,12.5C 46.3837,12.5762 50.0504,11.9095 53.5,10.5C 55.4832,10.8432 56.8166,10.1765 57.5,8.5C 59.7468,8.08473 61.9135,7.41806 64,6.5C 67.1893,8.19635 69.0226,10.863 69.5,14.5C 71.288,14.7852 72.9547,14.4519 74.5,13.5C 83.6983,8.82201 93.0316,4.48867 102.5,0.5C 105.616,1.14634 108.616,2.14634 111.5,3.5C 112.612,4.26515 113.279,5.26515 113.5,6.5 Z"/></g>
<g><path style="opacity:1" fill="#fcfcfc" d="M -0.5,-0.5 C 46.5,-0.5 93.5,-0.5 140.5,-0.5C 140.5,36.1667 140.5,72.8333 140.5,109.5C 93.5,109.5 46.5,109.5 -0.5,109.5C -0.5,93.1667 -0.5,76.8333 -0.5,60.5C 5.1376,66.4123 9.30426,73.4123 12,81.5C 13.8015,83.4778 15.8015,85.1444 18,86.5C 30.8969,80.3016 43.7302,73.9682 56.5,67.5C 58.1667,66.1667 59.8333,66.1667 61.5,67.5C 66.6506,76.4626 71.8172,85.4626 77,94.5C 78.6169,98.3062 79.4502,102.306 79.5,106.5C 84.0114,106.109 88.3447,106.775 92.5,108.5C 94.0564,107.453 95.7231,106.786 97.5,106.5C 97.5,104.5 97.5,102.5 97.5,100.5C 97.5,99.1667 97.5,97.8333 97.5,96.5C 101.6,95.1928 105.6,93.5261 109.5,91.5C 118.003,85.6092 126.003,79.2759 133.5,72.5C 135.104,71.713 135.771,70.3797 135.5,68.5C 137.33,63.703 138.664,58.703 139.5,53.5C 131.729,38.9508 123.729,24.6175 115.5,10.5C 115.771,8.6203 115.104,7.28696 113.5,6.5C 113.279,5.26515 112.612,4.26515 111.5,3.5C 108.616,2.14634 105.616,1.14634 102.5,0.5C 93.0316,4.48867 83.6983,8.82201 74.5,13.5C 72.9547,14.4519 71.288,14.7852 69.5,14.5C 69.0226,10.863 67.1893,8.19635 64,6.5C 61.9135,7.41806 59.7468,8.08473 57.5,8.5C 56.0048,8.98869 54.6715,9.65536 53.5,10.5C 50.0504,11.9095 46.3837,12.5762 42.5,12.5C 40.6943,13.0241 39.0276,13.6908 37.5,14.5C 37.0461,16.2589 37.0461,18.2589 37.5,20.5C 38.675,20.281 39.675,20.6143 40.5,21.5C 42.3337,23.4983 43.3337,25.8316 43.5,28.5C 41.0706,28.8844 38.7373,29.551 36.5,30.5C 36.3874,33.0488 37.0541,35.3821 38.5,37.5C 26.0801,45.0665 13.0801,51.3998 -0.5,56.5C -0.5,37.5 -0.5,18.5 -0.5,-0.5 Z"/></g>
<g><path style="opacity:1" fill="#9398cd" d="M 42.5,12.5 C 41.4479,14.256 39.7812,14.9227 37.5,14.5C 39.0276,13.6908 40.6943,13.0241 42.5,12.5 Z"/></g>
<g><path style="opacity:1" fill="#9b9fcd" d="M 113.5,6.5 C 115.104,7.28696 115.771,8.6203 115.5,10.5C 114.326,9.48631 113.66,8.15298 113.5,6.5 Z"/></g>
<g><path style="opacity:1" fill="#999ecb" d="M 57.5,8.5 C 56.8166,10.1765 55.4832,10.8432 53.5,10.5C 54.6715,9.65536 56.0048,8.98869 57.5,8.5 Z"/></g>
<g><path style="opacity:1" fill="#8e94cb" d="M 135.5,68.5 C 135.771,70.3797 135.104,71.713 133.5,72.5C 133.66,70.847 134.326,69.5137 135.5,68.5 Z"/></g>
<g><path style="opacity:1" fill="#969cc8" d="M 97.5,96.5 C 97.5,97.8333 97.5,99.1667 97.5,100.5C 96.6236,100.631 95.9569,100.298 95.5,99.5C 95.9424,98.2613 96.6091,97.2613 97.5,96.5 Z"/></g>
</svg>
