<?xml version="1.0" encoding="UTF-8"?>
<!DOCTYPE svg PUBLIC "-//W3C//DTD SVG 1.1//EN" "http://www.w3.org/Graphics/SVG/1.1/DTD/svg11.dtd">
<svg xmlns="http://www.w3.org/2000/svg" version="1.1" width="532px" height="1022px" style="shape-rendering:geometricPrecision; text-rendering:geometricPrecision; image-rendering:optimizeQuality; fill-rule:evenodd; clip-rule:evenodd" xmlns:xlink="http://www.w3.org/1999/xlink">
<g><path style="opacity:1" fill="#5c6eb7" d="M 74.5,16.5 C 84.8893,17.141 94.8893,16.4743 104.5,14.5C 114.297,18.5658 123.964,22.8991 133.5,27.5C 142.465,28.8939 151.465,29.8939 160.5,30.5C 162.635,32.369 165.302,33.0356 168.5,32.5C 171.167,32.5 173.833,32.5 176.5,32.5C 178.635,34.369 181.302,35.0356 184.5,34.5C 187.167,34.5 189.833,34.5 192.5,34.5C 194.635,36.369 197.302,37.0356 200.5,36.5C 213.934,37.3274 227.267,38.9941 240.5,41.5C 241.286,46.9552 244.286,50.6219 249.5,52.5C 250.655,55.4459 250.821,58.4459 250,61.5C 248.471,66.2767 246.638,70.9434 244.5,75.5C 245.269,80.5952 247.936,84.2619 252.5,86.5C 253.334,87.7479 254.667,88.4146 256.5,88.5C 258.333,88.4146 259.666,87.7479 260.5,86.5C 261.735,86.2786 262.735,85.6119 263.5,84.5C 268.42,87.4156 272.753,91.0823 276.5,95.5C 280.122,96.3253 283.789,96.8253 287.5,97C 288.5,97.8333 289.5,98.6667 290.5,99.5C 292.946,105.616 294.612,111.949 295.5,118.5C 299,124.167 302.5,129.833 306,135.5C 308.399,144.693 311.233,153.693 314.5,162.5C 316.973,165.808 319.64,168.975 322.5,172C 320.713,175.745 319.046,179.578 317.5,183.5C 318.167,184.167 318.833,184.833 319.5,185.5C 323.277,186.399 326.944,187.399 330.5,188.5C 334.029,190.423 338.029,191.089 342.5,190.5C 343.497,190.47 344.164,190.97 344.5,192C 343.21,195.181 343.21,198.348 344.5,201.5C 341.261,207.455 339.761,213.788 340,220.5C 341.983,222.984 344.15,225.317 346.5,227.5C 347.638,230.913 348.971,234.246 350.5,237.5C 354.257,240.586 357.257,244.252 359.5,248.5C 361.965,249.922 364.631,250.922 367.5,251.5C 369.126,254.128 371.126,256.461 373.5,258.5C 373.809,261.857 374.142,265.19 374.5,268.5C 380.811,269.958 387.144,271.458 393.5,273C 400.413,278.285 407.747,282.785 415.5,286.5C 416.89,293.199 417.557,299.865 417.5,306.5C 420.399,310.687 422.232,315.353 423,320.5C 424.158,320.998 424.991,321.831 425.5,323C 422.533,330.285 424.2,336.452 430.5,341.5C 429.17,344.501 429.836,346.834 432.5,348.5C 434.635,350.369 437.302,351.036 440.5,350.5C 441.212,352.928 442.212,355.261 443.5,357.5C 442.617,358.548 441.95,359.715 441.5,361C 444.061,366.352 444.061,371.685 441.5,377C 442.164,380.161 443.497,382.994 445.5,385.5C 443.719,388.956 442.719,392.622 442.5,396.5C 440.777,398.78 440.111,401.447 440.5,404.5C 441.224,419.086 437.724,432.42 430,444.5C 429.072,449.855 428.072,455.189 427,460.5C 420.324,467.689 416.49,476.189 415.5,486C 415.826,488.484 416.826,490.651 418.5,492.5C 418.244,493.689 417.911,494.856 417.5,496C 421.588,502.186 423.254,509.019 422.5,516.5C 425.5,516.5 428.5,516.5 431.5,516.5C 431.756,518.937 432.423,521.271 433.5,523.5C 432.225,526.373 431.392,529.373 431,532.5C 427.652,535.345 426.152,539.012 426.5,543.5C 426.667,545.833 426.833,548.167 427,550.5C 431.165,556.499 432.998,563.166 432.5,570.5C 433.822,570.33 434.989,570.663 436,571.5C 436.333,575.167 436.667,578.833 437,582.5C 438.968,586.96 440.302,591.627 441,596.5C 442.454,601.291 445.121,605.291 449,608.5C 450.106,613.769 450.773,619.103 451,624.5C 456.203,631.903 460.036,639.903 462.5,648.5C 463.311,661.395 464.644,674.229 466.5,687C 465.392,689.941 464.059,692.774 462.5,695.5C 462.621,696.894 462.954,698.228 463.5,699.5C 460.748,702.578 458.414,705.911 456.5,709.5C 457.008,712.534 457.675,715.534 458.5,718.5C 456.659,722.183 454.326,725.516 451.5,728.5C 450.513,731.768 450.18,735.102 450.5,738.5C 445.675,739.455 441.342,741.455 437.5,744.5C 437.167,746.833 436.833,749.167 436.5,751.5C 436.459,756.039 437.126,760.372 438.5,764.5C 442.235,765.276 445.569,766.942 448.5,769.5C 450.173,773.816 451.507,778.149 452.5,782.5C 452.17,789.2 452.503,795.866 453.5,802.5C 454.182,803.243 454.849,803.909 455.5,804.5C 458.785,807.785 462.119,811.119 465.5,814.5C 467.393,817.618 468.726,820.951 469.5,824.5C 467.806,827.664 467.306,830.998 468,834.5C 472.284,839.721 474.784,845.721 475.5,852.5C 476.842,854.005 478.508,854.672 480.5,854.5C 480.698,857.906 479.698,860.906 477.5,863.5C 479.892,866.228 481.892,869.228 483.5,872.5C 484.799,873.694 486.132,874.694 487.5,875.5C 488.919,876.451 490.585,876.784 492.5,876.5C 492.111,879.553 492.777,882.22 494.5,884.5C 495.812,891.089 496.479,897.756 496.5,904.5C 496.111,907.553 496.777,910.22 498.5,912.5C 500.308,913.918 500.975,915.918 500.5,918.5C 502.38,918.229 503.713,918.896 504.5,920.5C 505.918,922.308 507.918,922.975 510.5,922.5C 510.194,925.385 510.527,928.052 511.5,930.5C 511.69,934.289 513.357,937.289 516.5,939.5C 519.622,940.561 522.622,941.894 525.5,943.5C 526.127,944.417 526.461,945.417 526.5,946.5C 526.334,953.841 526.5,961.174 527,968.5C 527.278,969.416 527.778,970.082 528.5,970.5C 528.5,975.833 528.5,981.167 528.5,986.5C 528.334,991.844 528.501,997.177 529,1002.5C 529.278,1003.42 529.778,1004.08 530.5,1004.5C 530.5,1005.17 530.5,1005.83 530.5,1006.5C 525.381,1005.9 520.715,1006.56 516.5,1008.5C 510.5,1008.5 504.5,1008.5 498.5,1008.5C 494.671,1007.93 491.337,1008.6 488.5,1010.5C 485.167,1010.5 481.833,1010.5 478.5,1010.5C 475.302,1009.96 472.635,1010.63 470.5,1012.5C 453.833,1012.5 437.167,1012.5 420.5,1012.5C 414.074,1011.88 408.074,1012.55 402.5,1014.5C 398.5,1014.5 394.5,1014.5 390.5,1014.5C 386.671,1013.93 383.337,1014.6 380.5,1016.5C 376.5,1016.5 372.5,1016.5 368.5,1016.5C 351.466,1015.85 334.8,1016.51 318.5,1018.5C 313.833,1018.5 309.167,1018.5 304.5,1018.5C 295.435,1017.86 286.769,1018.53 278.5,1020.5C 277.167,1020.5 275.833,1020.5 274.5,1020.5C 272.365,1018.63 269.698,1017.96 266.5,1018.5C 251.862,1019.56 237.196,1020.23 222.5,1020.5C 219.572,1019.18 216.239,1018.51 212.5,1018.5C 208.761,1018.51 205.428,1019.18 202.5,1020.5C 201.167,1020.5 199.833,1020.5 198.5,1020.5C 198.704,1018.31 199.37,1016.31 200.5,1014.5C 200.975,1011.92 200.308,1009.92 198.5,1008.5C 198.657,1007.13 198.49,1005.79 198,1004.5C 195.019,999.028 191.852,993.694 188.5,988.5C 188.843,986.517 188.176,985.183 186.5,984.5C 186.176,980.445 186.509,976.445 187.5,972.5C 189.637,968.239 191.47,963.905 193,959.5C 201.418,955.648 204.918,949.315 203.5,940.5C 201.833,938.833 200.167,937.167 198.5,935.5C 194.787,934.179 191.454,932.512 188.5,930.5C 189.069,926.671 188.402,923.337 186.5,920.5C 186.476,914.408 187.976,908.742 191,903.5C 191.579,898.473 191.913,893.473 192,888.5C 190.418,883.918 188.918,879.251 187.5,874.5C 182.741,868.417 178.408,862.083 174.5,855.5C 172.108,848.377 168.441,842.043 163.5,836.5C 161.917,834.01 160.917,831.343 160.5,828.5C 162.017,826.538 162.684,824.205 162.5,821.5C 162.684,818.795 162.017,816.462 160.5,814.5C 159.992,811.824 159.825,809.157 160,806.5C 163.545,800.981 166.045,794.981 167.5,788.5C 164.558,780.651 162.225,772.651 160.5,764.5C 161.103,759.381 160.436,754.715 158.5,750.5C 156.968,747.234 155.634,743.901 154.5,740.5C 153.022,740.762 151.689,740.429 150.5,739.5C 146.787,734.412 141.787,731.912 135.5,732C 131.736,726.897 127.57,722.064 123,717.5C 121.369,714.405 119.869,711.238 118.5,708C 119.732,704.672 119.066,701.672 116.5,699C 117.235,695.8 119.235,694.3 122.5,694.5C 122.623,688.399 121.957,682.399 120.5,676.5C 120.449,673.334 121.116,670.334 122.5,667.5C 121.319,663.928 120.652,660.262 120.5,656.5C 120.889,653.447 120.223,650.78 118.5,648.5C 116.634,646.101 115.301,643.435 114.5,640.5C 114.843,638.517 114.176,637.183 112.5,636.5C 112.464,631.07 111.797,625.737 110.5,620.5C 108.143,620.663 105.81,620.497 103.5,620C 94.865,615.517 85.865,612.017 76.5,609.5C 72.2381,599.691 69.5714,589.358 68.5,578.5C 71.672,571.889 73.672,564.889 74.5,557.5C 71.6987,545.48 71.8653,533.48 75,521.5C 78.3173,518.194 81.1506,514.528 83.5,510.5C 84.329,505.533 84.829,500.533 85,495.5C 90.8853,490.882 92.3853,485.215 89.5,478.5C 83.5617,474.072 79.395,468.406 77,461.5C 75.3333,451.167 73.6667,440.833 72,430.5C 68.0432,422.043 61.8765,415.709 53.5,411.5C 51.604,410.534 49.604,410.201 47.5,410.5C 47.3359,407.813 47.5026,405.146 48,402.5C 50.5645,397.864 52.0645,392.864 52.5,387.5C 51.1393,379.142 49.6393,370.808 48,362.5C 45.7481,358.607 43.5814,354.607 41.5,350.5C 38.2202,348.557 35.2202,346.223 32.5,343.5C 29.2113,338.213 25.5447,333.213 21.5,328.5C 17.0959,319.417 16.4292,310.084 19.5,300.5C 17.6729,292.599 17.1729,284.599 18,276.5C 20.6884,273.646 23.1884,270.646 25.5,267.5C 24.7485,265.004 23.7485,262.67 22.5,260.5C 23.1299,252.757 22.4633,245.424 20.5,238.5C 20.6349,235.583 19.9682,232.916 18.5,230.5C 18.8432,228.517 18.1765,227.183 16.5,226.5C 15.9168,222.276 14.0835,218.609 11,215.5C 9.39291,209.082 11.8929,206.749 18.5,208.5C 18.5789,206.334 19.2455,204.334 20.5,202.5C 18.7802,196.566 17.4469,190.566 16.5,184.5C 16.8432,182.517 16.1765,181.183 14.5,180.5C 13.651,175.755 12.4843,171.088 11,166.5C 11.8798,157.007 9.71313,148.341 4.5,140.5C 5.47345,138.608 6.14011,136.608 6.5,134.5C 5.77622,131.173 5.60955,127.839 6,124.5C 8.92178,118.778 11.0884,112.778 12.5,106.5C 10.1646,99.1435 7.83126,91.8102 5.5,84.5C 6.31464,80.6708 7.64798,77.0042 9.5,73.5C 8.37642,67.1399 5.70976,61.4732 1.5,56.5C 0.832359,53.6944 0.165692,51.0277 -0.5,48.5C -0.5,46.5 -0.5,44.5 -0.5,42.5C 1.53198,33.7075 4.19864,25.0408 7.5,16.5C 6.63759,11.7973 4.30426,7.96399 0.5,5C 1.2887,3.37446 2.2887,1.87446 3.5,0.5C 12.5619,10.9616 20.8952,21.9616 28.5,33.5C 31.6673,39.2928 35.6673,39.9595 40.5,35.5C 46.6347,28.4074 54.3014,23.9074 63.5,22C 66.9209,19.6229 70.5876,17.7895 74.5,16.5 Z"/></g>
<g><path style="opacity:1" fill="#fefefe" d="M -0.5,-0.5 C 176.833,-0.5 354.167,-0.5 531.5,-0.5C 531.5,340.167 531.5,680.833 531.5,1021.5C 354.167,1021.5 176.833,1021.5 -0.5,1021.5C -0.5,697.167 -0.5,372.833 -0.5,48.5C 0.165692,51.0277 0.832359,53.6944 1.5,56.5C 5.70976,61.4732 8.37642,67.1399 9.5,73.5C 7.64798,77.0042 6.31464,80.6708 5.5,84.5C 7.83126,91.8102 10.1646,99.1435 12.5,106.5C 11.0884,112.778 8.92178,118.778 6,124.5C 5.60955,127.839 5.77622,131.173 6.5,134.5C 6.14011,136.608 5.47345,138.608 4.5,140.5C 9.71313,148.341 11.8798,157.007 11,166.5C 12.4843,171.088 13.651,175.755 14.5,180.5C 14.9887,181.995 15.6554,183.329 16.5,184.5C 17.4469,190.566 18.7802,196.566 20.5,202.5C 19.2455,204.334 18.5789,206.334 18.5,208.5C 11.8929,206.749 9.39291,209.082 11,215.5C 14.0835,218.609 15.9168,222.276 16.5,226.5C 16.9887,227.995 17.6554,229.329 18.5,230.5C 19.9682,232.916 20.6349,235.583 20.5,238.5C 21.1355,245.933 21.8022,253.266 22.5,260.5C 23.7485,262.67 24.7485,265.004 25.5,267.5C 23.1884,270.646 20.6884,273.646 18,276.5C 17.1729,284.599 17.6729,292.599 19.5,300.5C 16.4292,310.084 17.0959,319.417 21.5,328.5C 25.5447,333.213 29.2113,338.213 32.5,343.5C 35.2202,346.223 38.2202,348.557 41.5,350.5C 43.5814,354.607 45.7481,358.607 48,362.5C 49.6393,370.808 51.1393,379.142 52.5,387.5C 52.0645,392.864 50.5645,397.864 48,402.5C 47.5026,405.146 47.3359,407.813 47.5,410.5C 49.604,410.201 51.604,410.534 53.5,411.5C 61.8765,415.709 68.0432,422.043 72,430.5C 73.6667,440.833 75.3333,451.167 77,461.5C 79.395,468.406 83.5617,474.072 89.5,478.5C 92.3853,485.215 90.8853,490.882 85,495.5C 84.829,500.533 84.329,505.533 83.5,510.5C 81.1506,514.528 78.3173,518.194 75,521.5C 71.8653,533.48 71.6987,545.48 74.5,557.5C 73.672,564.889 71.672,571.889 68.5,578.5C 69.5714,589.358 72.2381,599.691 76.5,609.5C 85.865,612.017 94.865,615.517 103.5,620C 105.81,620.497 108.143,620.663 110.5,620.5C 111.797,625.737 112.464,631.07 112.5,636.5C 112.989,637.995 113.655,639.329 114.5,640.5C 115.301,643.435 116.634,646.101 118.5,648.5C 118.802,651.373 119.469,654.039 120.5,656.5C 120.652,660.262 121.319,663.928 122.5,667.5C 121.116,670.334 120.449,673.334 120.5,676.5C 121.957,682.399 122.623,688.399 122.5,694.5C 119.235,694.3 117.235,695.8 116.5,699C 119.066,701.672 119.732,704.672 118.5,708C 119.869,711.238 121.369,714.405 123,717.5C 127.57,722.064 131.736,726.897 135.5,732C 141.787,731.912 146.787,734.412 150.5,739.5C 151.689,740.429 153.022,740.762 154.5,740.5C 155.634,743.901 156.968,747.234 158.5,750.5C 159.117,755.269 159.784,759.936 160.5,764.5C 162.225,772.651 164.558,780.651 167.5,788.5C 166.045,794.981 163.545,800.981 160,806.5C 159.825,809.157 159.992,811.824 160.5,814.5C 161.833,819.167 161.833,823.833 160.5,828.5C 160.917,831.343 161.917,834.01 163.5,836.5C 168.441,842.043 172.108,848.377 174.5,855.5C 178.408,862.083 182.741,868.417 187.5,874.5C 188.918,879.251 190.418,883.918 192,888.5C 191.913,893.473 191.579,898.473 191,903.5C 187.976,908.742 186.476,914.408 186.5,920.5C 186.159,924.16 186.825,927.493 188.5,930.5C 191.454,932.512 194.787,934.179 198.5,935.5C 200.167,937.167 201.833,938.833 203.5,940.5C 204.918,949.315 201.418,955.648 193,959.5C 191.47,963.905 189.637,968.239 187.5,972.5C 186.509,976.445 186.176,980.445 186.5,984.5C 186.989,985.995 187.655,987.329 188.5,988.5C 191.852,993.694 195.019,999.028 198,1004.5C 198.49,1005.79 198.657,1007.13 198.5,1008.5C 198.595,1010.79 199.262,1012.79 200.5,1014.5C 199.37,1016.31 198.704,1018.31 198.5,1020.5C 199.833,1020.5 201.167,1020.5 202.5,1020.5C 209.167,1019.17 215.833,1019.17 222.5,1020.5C 237.196,1020.23 251.862,1019.56 266.5,1018.5C 269.053,1019.25 271.72,1019.92 274.5,1020.5C 275.833,1020.5 277.167,1020.5 278.5,1020.5C 287.266,1019.86 295.932,1019.19 304.5,1018.5C 309.167,1018.5 313.833,1018.5 318.5,1018.5C 335.265,1017.85 351.931,1017.18 368.5,1016.5C 372.5,1016.5 376.5,1016.5 380.5,1016.5C 383.941,1015.9 387.275,1015.24 390.5,1014.5C 394.5,1014.5 398.5,1014.5 402.5,1014.5C 408.601,1013.87 414.601,1013.2 420.5,1012.5C 437.167,1012.5 453.833,1012.5 470.5,1012.5C 473.28,1011.92 475.947,1011.25 478.5,1010.5C 481.833,1010.5 485.167,1010.5 488.5,1010.5C 491.941,1009.9 495.275,1009.24 498.5,1008.5C 504.5,1008.5 510.5,1008.5 516.5,1008.5C 521.269,1007.88 525.936,1007.22 530.5,1006.5C 530.5,1005.83 530.5,1005.17 530.5,1004.5C 529.963,998.35 529.296,992.35 528.5,986.5C 528.5,981.167 528.5,975.833 528.5,970.5C 527.234,965.505 527.234,960.505 528.5,955.5C 528.009,952.326 527.343,949.326 526.5,946.5C 526.461,945.417 526.127,944.417 525.5,943.5C 522.622,941.894 519.622,940.561 516.5,939.5C 513.357,937.289 511.69,934.289 511.5,930.5C 511.5,927.5 511.5,924.5 511.5,921.5C 509.05,921.702 506.717,921.369 504.5,920.5C 503.713,918.896 502.38,918.229 500.5,918.5C 500.975,915.918 500.308,913.918 498.5,912.5C 498.198,909.627 497.531,906.961 496.5,904.5C 496.479,897.756 495.812,891.089 494.5,884.5C 493.841,881.545 493.508,878.545 493.5,875.5C 491.5,875.5 489.5,875.5 487.5,875.5C 486.132,874.694 484.799,873.694 483.5,872.5C 481.892,869.228 479.892,866.228 477.5,863.5C 479.698,860.906 480.698,857.906 480.5,854.5C 478.508,854.672 476.842,854.005 475.5,852.5C 474.784,845.721 472.284,839.721 468,834.5C 467.306,830.998 467.806,827.664 469.5,824.5C 468.726,820.951 467.393,817.618 465.5,814.5C 462.119,811.119 458.785,807.785 455.5,804.5C 454.044,797.139 453.044,789.806 452.5,782.5C 451.507,778.149 450.173,773.816 448.5,769.5C 445.569,766.942 442.235,765.276 438.5,764.5C 437.126,760.372 436.459,756.039 436.5,751.5C 436.833,749.167 437.167,746.833 437.5,744.5C 441.342,741.455 445.675,739.455 450.5,738.5C 450.18,735.102 450.513,731.768 451.5,728.5C 454.326,725.516 456.659,722.183 458.5,718.5C 457.675,715.534 457.008,712.534 456.5,709.5C 458.414,705.911 460.748,702.578 463.5,699.5C 462.954,698.228 462.621,696.894 462.5,695.5C 464.059,692.774 465.392,689.941 466.5,687C 464.644,674.229 463.311,661.395 462.5,648.5C 460.036,639.903 456.203,631.903 451,624.5C 450.773,619.103 450.106,613.769 449,608.5C 445.121,605.291 442.454,601.291 441,596.5C 440.302,591.627 438.968,586.96 437,582.5C 436.667,578.833 436.333,575.167 436,571.5C 434.989,570.663 433.822,570.33 432.5,570.5C 432.998,563.166 431.165,556.499 427,550.5C 426.833,548.167 426.667,545.833 426.5,543.5C 426.152,539.012 427.652,535.345 431,532.5C 431.392,529.373 432.225,526.373 433.5,523.5C 432.423,521.271 431.756,518.937 431.5,516.5C 428.5,516.5 425.5,516.5 422.5,516.5C 423.254,509.019 421.588,502.186 417.5,496C 417.911,494.856 418.244,493.689 418.5,492.5C 416.826,490.651 415.826,488.484 415.5,486C 416.49,476.189 420.324,467.689 427,460.5C 428.072,455.189 429.072,449.855 430,444.5C 437.724,432.42 441.224,419.086 440.5,404.5C 441.531,402.039 442.198,399.373 442.5,396.5C 442.719,392.622 443.719,388.956 445.5,385.5C 443.497,382.994 442.164,380.161 441.5,377C 444.061,371.685 444.061,366.352 441.5,361C 441.95,359.715 442.617,358.548 443.5,357.5C 442.212,355.261 441.212,352.928 440.5,350.5C 437.947,349.745 435.28,349.078 432.5,348.5C 429.836,346.834 429.17,344.501 430.5,341.5C 424.2,336.452 422.533,330.285 425.5,323C 424.991,321.831 424.158,320.998 423,320.5C 422.232,315.353 420.399,310.687 417.5,306.5C 417.557,299.865 416.89,293.199 415.5,286.5C 407.747,282.785 400.413,278.285 393.5,273C 387.144,271.458 380.811,269.958 374.5,268.5C 374.142,265.19 373.809,261.857 373.5,258.5C 371.126,256.461 369.126,254.128 367.5,251.5C 364.631,250.922 361.965,249.922 359.5,248.5C 357.257,244.252 354.257,240.586 350.5,237.5C 348.971,234.246 347.638,230.913 346.5,227.5C 344.15,225.317 341.983,222.984 340,220.5C 339.761,213.788 341.261,207.455 344.5,201.5C 343.21,198.348 343.21,195.181 344.5,192C 344.164,190.97 343.497,190.47 342.5,190.5C 338.605,189.775 334.605,189.109 330.5,188.5C 326.944,187.399 323.277,186.399 319.5,185.5C 318.833,184.833 318.167,184.167 317.5,183.5C 319.046,179.578 320.713,175.745 322.5,172C 319.64,168.975 316.973,165.808 314.5,162.5C 311.233,153.693 308.399,144.693 306,135.5C 302.5,129.833 299,124.167 295.5,118.5C 294.612,111.949 292.946,105.616 290.5,99.5C 289.5,98.6667 288.5,97.8333 287.5,97C 283.789,96.8253 280.122,96.3253 276.5,95.5C 272.753,91.0823 268.42,87.4156 263.5,84.5C 262.735,85.6119 261.735,86.2786 260.5,86.5C 257.833,87.8333 255.167,87.8333 252.5,86.5C 247.936,84.2619 245.269,80.5952 244.5,75.5C 246.638,70.9434 248.471,66.2767 250,61.5C 250.821,58.4459 250.655,55.4459 249.5,52.5C 244.286,50.6219 241.286,46.9552 240.5,41.5C 227.267,38.9941 213.934,37.3274 200.5,36.5C 197.947,35.7451 195.28,35.0784 192.5,34.5C 189.833,34.5 187.167,34.5 184.5,34.5C 181.947,33.7451 179.28,33.0784 176.5,32.5C 173.833,32.5 171.167,32.5 168.5,32.5C 165.947,31.7451 163.28,31.0784 160.5,30.5C 151.465,29.8939 142.465,28.8939 133.5,27.5C 123.964,22.8991 114.297,18.5658 104.5,14.5C 94.4013,15.144 84.4013,15.8106 74.5,16.5C 70.5876,17.7895 66.9209,19.6229 63.5,22C 54.3014,23.9074 46.6347,28.4074 40.5,35.5C 35.6673,39.9595 31.6673,39.2928 28.5,33.5C 20.8952,21.9616 12.5619,10.9616 3.5,0.5C 2.2887,1.87446 1.2887,3.37446 0.5,5C 4.30426,7.96399 6.63759,11.7973 7.5,16.5C 4.19864,25.0408 1.53198,33.7075 -0.5,42.5C -0.5,28.1667 -0.5,13.8333 -0.5,-0.5 Z"/></g>
<g><path style="opacity:1" fill="#888fac" d="M 192.5,34.5 C 195.28,35.0784 197.947,35.7451 200.5,36.5C 197.302,37.0356 194.635,36.369 192.5,34.5 Z"/></g>
<g><path style="opacity:1" fill="#888fac" d="M 176.5,32.5 C 179.28,33.0784 181.947,33.7451 184.5,34.5C 181.302,35.0356 178.635,34.369 176.5,32.5 Z"/></g>
<g><path style="opacity:1" fill="#868eaa" d="M 160.5,30.5 C 163.28,31.0784 165.947,31.7451 168.5,32.5C 165.302,33.0356 162.635,32.369 160.5,30.5 Z"/></g>
<g><path style="opacity:1" fill="#8890ac" d="M 104.5,14.5 C 94.8893,16.4743 84.8893,17.141 74.5,16.5C 84.4013,15.8106 94.4013,15.144 104.5,14.5 Z"/></g>
<g><path style="opacity:1" fill="#848caa" d="M 252.5,86.5 C 255.167,87.8333 257.833,87.8333 260.5,86.5C 259.666,87.7479 258.333,88.4146 256.5,88.5C 254.667,88.4146 253.334,87.7479 252.5,86.5 Z"/></g>
<g><path style="opacity:1" fill="#9298b1" d="M 14.5,180.5 C 16.1765,181.183 16.8432,182.517 16.5,184.5C 15.6554,183.329 14.9887,181.995 14.5,180.5 Z"/></g>
<g><path style="opacity:1" fill="#8990ac" d="M 330.5,188.5 C 334.605,189.109 338.605,189.775 342.5,190.5C 338.029,191.089 334.029,190.423 330.5,188.5 Z"/></g>
<g><path style="opacity:1" fill="#9498b2" d="M 16.5,226.5 C 18.1765,227.183 18.8432,228.517 18.5,230.5C 17.6554,229.329 16.9887,227.995 16.5,226.5 Z"/></g>
<g><path style="opacity:1" fill="#737ca5" d="M 20.5,238.5 C 22.4633,245.424 23.1299,252.757 22.5,260.5C 21.8022,253.266 21.1355,245.933 20.5,238.5 Z"/></g>
<g><path style="opacity:1" fill="#878eab" d="M 432.5,348.5 C 435.28,349.078 437.947,349.745 440.5,350.5C 437.302,351.036 434.635,350.369 432.5,348.5 Z"/></g>
<g><path style="opacity:1" fill="#7b82a8" d="M 442.5,396.5 C 442.198,399.373 441.531,402.039 440.5,404.5C 440.111,401.447 440.777,398.78 442.5,396.5 Z"/></g>
<g><path style="opacity:1" fill="#9398b1" d="M 112.5,636.5 C 114.176,637.183 114.843,638.517 114.5,640.5C 113.655,639.329 112.989,637.995 112.5,636.5 Z"/></g>
<g><path style="opacity:1" fill="#7780a6" d="M 118.5,648.5 C 120.223,650.78 120.889,653.447 120.5,656.5C 119.469,654.039 118.802,651.373 118.5,648.5 Z"/></g>
<g><path style="opacity:1" fill="#6c77a1" d="M 158.5,750.5 C 160.436,754.715 161.103,759.381 160.5,764.5C 159.784,759.936 159.117,755.269 158.5,750.5 Z"/></g>
<g><path style="opacity:1" fill="#cfd2d6" d="M 452.5,782.5 C 453.044,789.806 454.044,797.139 455.5,804.5C 454.849,803.909 454.182,803.243 453.5,802.5C 452.503,795.866 452.17,789.2 452.5,782.5 Z"/></g>
<g><path style="opacity:1" fill="#737ca5" d="M 160.5,814.5 C 162.017,816.462 162.684,818.795 162.5,821.5C 162.684,824.205 162.017,826.538 160.5,828.5C 161.833,823.833 161.833,819.167 160.5,814.5 Z"/></g>
<g><path style="opacity:1" fill="#7a82a8" d="M 487.5,875.5 C 489.5,875.5 491.5,875.5 493.5,875.5C 493.508,878.545 493.841,881.545 494.5,884.5C 492.777,882.22 492.111,879.553 492.5,876.5C 490.585,876.784 488.919,876.451 487.5,875.5 Z"/></g>
<g><path style="opacity:1" fill="#7b83a8" d="M 496.5,904.5 C 497.531,906.961 498.198,909.627 498.5,912.5C 496.777,910.22 496.111,907.553 496.5,904.5 Z"/></g>
<g><path style="opacity:1" fill="#cbcdd4" d="M 504.5,920.5 C 506.717,921.369 509.05,921.702 511.5,921.5C 511.5,924.5 511.5,927.5 511.5,930.5C 510.527,928.052 510.194,925.385 510.5,922.5C 507.918,922.975 505.918,922.308 504.5,920.5 Z"/></g>
<g><path style="opacity:1" fill="#7f88a9" d="M 186.5,920.5 C 188.402,923.337 189.069,926.671 188.5,930.5C 186.825,927.493 186.159,924.16 186.5,920.5 Z"/></g>
<g><path style="opacity:1" fill="#717ca4" d="M 526.5,946.5 C 527.343,949.326 528.009,952.326 528.5,955.5C 527.234,960.505 527.234,965.505 528.5,970.5C 527.778,970.082 527.278,969.416 527,968.5C 526.5,961.174 526.334,953.841 526.5,946.5 Z"/></g>
<g><path style="opacity:1" fill="#9297b0" d="M 186.5,984.5 C 188.176,985.183 188.843,986.517 188.5,988.5C 187.655,987.329 186.989,985.995 186.5,984.5 Z"/></g>
<g><path style="opacity:1" fill="#6e78a3" d="M 528.5,986.5 C 529.296,992.35 529.963,998.35 530.5,1004.5C 529.778,1004.08 529.278,1003.42 529,1002.5C 528.501,997.177 528.334,991.844 528.5,986.5 Z"/></g>
<g><path style="opacity:1" fill="#878eab" d="M 530.5,1006.5 C 525.936,1007.22 521.269,1007.88 516.5,1008.5C 520.715,1006.56 525.381,1005.9 530.5,1006.5 Z"/></g>
<g><path style="opacity:1" fill="#888fac" d="M 498.5,1008.5 C 495.275,1009.24 491.941,1009.9 488.5,1010.5C 491.337,1008.6 494.671,1007.93 498.5,1008.5 Z"/></g>
<g><path style="opacity:1" fill="#7f87a9" d="M 198.5,1008.5 C 200.308,1009.92 200.975,1011.92 200.5,1014.5C 199.262,1012.79 198.595,1010.79 198.5,1008.5 Z"/></g>
<g><path style="opacity:1" fill="#878eab" d="M 478.5,1010.5 C 475.947,1011.25 473.28,1011.92 470.5,1012.5C 472.635,1010.63 475.302,1009.96 478.5,1010.5 Z"/></g>
<g><path style="opacity:1" fill="#888fac" d="M 420.5,1012.5 C 414.601,1013.2 408.601,1013.87 402.5,1014.5C 408.074,1012.55 414.074,1011.88 420.5,1012.5 Z"/></g>
<g><path style="opacity:1" fill="#8990ac" d="M 390.5,1014.5 C 387.275,1015.24 383.941,1015.9 380.5,1016.5C 383.337,1014.6 386.671,1013.93 390.5,1014.5 Z"/></g>
<g><path style="opacity:1" fill="#888fac" d="M 368.5,1016.5 C 351.931,1017.18 335.265,1017.85 318.5,1018.5C 334.8,1016.51 351.466,1015.85 368.5,1016.5 Z"/></g>
<g><path style="opacity:1" fill="#8990ac" d="M 222.5,1020.5 C 215.833,1019.17 209.167,1019.17 202.5,1020.5C 205.428,1019.18 208.761,1018.51 212.5,1018.5C 216.239,1018.51 219.572,1019.18 222.5,1020.5 Z"/></g>
<g><path style="opacity:1" fill="#8b91ad" d="M 266.5,1018.5 C 269.698,1017.96 272.365,1018.63 274.5,1020.5C 271.72,1019.92 269.053,1019.25 266.5,1018.5 Z"/></g>
<g><path style="opacity:1" fill="#898fac" d="M 304.5,1018.5 C 295.932,1019.19 287.266,1019.86 278.5,1020.5C 286.769,1018.53 295.435,1017.86 304.5,1018.5 Z"/></g>
</svg>
