<?xml version="1.0" encoding="UTF-8"?>
<!DOCTYPE svg PUBLIC "-//W3C//DTD SVG 1.1//EN" "http://www.w3.org/Graphics/SVG/1.1/DTD/svg11.dtd">
<svg xmlns="http://www.w3.org/2000/svg" version="1.1" width="712px" height="727px" style="shape-rendering:geometricPrecision; text-rendering:geometricPrecision; image-rendering:optimizeQuality; fill-rule:evenodd; clip-rule:evenodd" xmlns:xlink="http://www.w3.org/1999/xlink">
<g><path style="opacity:1" fill="#fefefe" d="M -0.5,-0.5 C 236.833,-0.5 474.167,-0.5 711.5,-0.5C 711.5,165.167 711.5,330.833 711.5,496.5C 711.167,496.5 710.833,496.5 710.5,496.5C 709.379,491.898 708.379,487.232 707.5,482.5C 706.678,472.461 705.678,462.461 704.5,452.5C 703.833,450.5 702.5,449.167 700.5,448.5C 698.055,443.52 694.055,440.187 688.5,438.5C 688.106,436.29 686.773,434.957 684.5,434.5C 678.249,432.374 672.249,429.708 666.5,426.5C 664.54,425.193 662.54,423.86 660.5,422.5C 659.167,421.833 657.833,421.167 656.5,420.5C 653.892,416.888 650.892,413.555 647.5,410.5C 646.122,409.455 645.122,408.122 644.5,406.5C 642.54,405.193 640.54,403.86 638.5,402.5C 637.5,402.5 636.5,402.5 635.5,402.5C 633.684,396.875 631.351,391.541 628.5,386.5C 626.775,382.657 625.441,378.657 624.5,374.5C 624.96,359.82 625.627,345.153 626.5,330.5C 626.028,326.694 624.028,324.027 620.5,322.5C 619.167,321.833 617.833,321.167 616.5,320.5C 616.106,318.29 614.773,316.957 612.5,316.5C 612.5,315.167 612.5,313.833 612.5,312.5C 613.79,311.942 614.623,310.942 615,309.5C 615.203,302.421 615.703,295.421 616.5,288.5C 617.807,286.54 619.14,284.54 620.5,282.5C 622.434,278.112 623.767,273.445 624.5,268.5C 625.746,265.707 625.413,263.04 623.5,260.5C 621.886,258.925 619.886,258.259 617.5,258.5C 615.486,256.155 613.153,254.155 610.5,252.5C 609.167,252.5 608.5,251.833 608.5,250.5C 607.872,244.399 607.205,238.399 606.5,232.5C 608.456,223.925 609.789,215.258 610.5,206.5C 610.665,203.482 610.498,200.482 610,197.5C 609.617,196.944 609.117,196.611 608.5,196.5C 608.5,193.167 608.5,189.833 608.5,186.5C 608.663,184.143 608.497,181.81 608,179.5C 607.617,178.944 607.117,178.611 606.5,178.5C 606.824,174.445 606.491,170.445 605.5,166.5C 600.751,162.422 596.751,157.755 593.5,152.5C 590.92,144.925 588.42,137.259 586,129.5C 585.098,127.569 583.931,125.903 582.5,124.5C 580.395,116.571 579.728,108.571 580.5,100.5C 582.316,98.8816 583.649,96.8816 584.5,94.5C 585.807,92.5401 587.14,90.5401 588.5,88.5C 589.807,86.5401 591.14,84.5401 592.5,82.5C 593.807,80.5401 595.14,78.5401 596.5,76.5C 598.67,74.3084 600.004,71.6417 600.5,68.5C 601.5,68.1667 602.167,67.5 602.5,66.5C 603.807,64.5401 605.14,62.5401 606.5,60.5C 607.504,58.5076 608.17,56.3409 608.5,54C 607.27,49.4753 605.936,44.9753 604.5,40.5C 604.716,38.6161 605.383,36.9494 606.5,35.5C 605.311,34.5713 603.978,34.238 602.5,34.5C 601.817,32.8235 600.483,32.1568 598.5,32.5C 595.833,32.5 593.167,32.5 590.5,32.5C 588.365,30.631 585.698,29.9644 582.5,30.5C 580.5,30.5 578.5,30.5 576.5,30.5C 576.389,29.8826 576.056,29.3826 575.5,29C 572.518,28.502 569.518,28.3354 566.5,28.5C 564.5,28.5 562.5,28.5 560.5,28.5C 559.082,26.6921 557.082,26.0254 554.5,26.5C 551.833,26.5 549.167,26.5 546.5,26.5C 540.926,24.5467 534.926,23.88 528.5,24.5C 528.289,16.0593 526.622,8.05926 523.5,0.5C 521.5,0.5 519.5,0.5 517.5,0.5C 514.612,-0.0101734 512.279,0.656493 510.5,2.5C 508.167,2.5 505.833,2.5 503.5,2.5C 499.671,1.93104 496.337,2.59771 493.5,4.5C 484.5,4.5 475.5,4.5 466.5,4.5C 457.766,3.86496 449.433,4.53163 441.5,6.5C 435.833,6.5 430.167,6.5 424.5,6.5C 413.833,6.5 403.167,6.5 392.5,6.5C 384.401,7.13816 376.401,7.80483 368.5,8.5C 363.833,8.5 359.167,8.5 354.5,8.5C 345.401,9.14139 336.401,9.80806 327.5,10.5C 320.5,10.5 313.5,10.5 306.5,10.5C 305.622,14.3357 304.956,18.3357 304.5,22.5C 303.134,25.0888 302.134,27.9221 301.5,31C 301.57,31.7648 301.903,32.2648 302.5,32.5C 303.735,32.2786 304.735,31.6119 305.5,30.5C 307.489,31.6319 309.156,32.9652 310.5,34.5C 310.5,35.8333 310.5,37.1667 310.5,38.5C 308.718,39.7196 306.718,40.3862 304.5,40.5C 303.763,43.7254 303.097,47.0588 302.5,50.5C 302.672,51.4916 302.338,52.1583 301.5,52.5C 300.883,52.6107 300.383,52.944 300,53.5C 297.385,66.4496 298.885,78.7829 304.5,90.5C 306.121,90.7869 307.121,91.7869 307.5,93.5C 308.689,94.4287 310.022,94.762 311.5,94.5C 311.5,95.5 311.5,96.5 311.5,97.5C 314.385,97.8064 317.052,97.4731 319.5,96.5C 320.222,95.4489 321.222,94.7822 322.5,94.5C 325.127,94.2097 326.794,92.8764 327.5,90.5C 328.833,90.5 330.167,90.5 331.5,90.5C 333.027,90.573 334.027,89.9063 334.5,88.5C 335.167,88.5 335.833,88.5 336.5,88.5C 340.846,88.3343 345.179,88.501 349.5,89C 350.949,90.1022 352.282,91.2689 353.5,92.5C 354.167,94.5 354.833,96.5 355.5,98.5C 355.294,101.495 355.96,104.162 357.5,106.5C 357.054,109.01 357.72,111.01 359.5,112.5C 360.167,113.167 360.833,113.833 361.5,114.5C 363.514,116.845 365.847,118.845 368.5,120.5C 374.114,122.122 379.781,123.455 385.5,124.5C 385.229,126.38 385.896,127.713 387.5,128.5C 388.167,129.167 388.833,129.833 389.5,130.5C 390.018,135.072 391.684,139.072 394.5,142.5C 394.833,142.5 395.167,142.5 395.5,142.5C 396.226,145.288 397.893,147.288 400.5,148.5C 401.93,149.537 403.597,150.204 405.5,150.5C 409.657,149.657 412.657,150.991 414.5,154.5C 412.52,155.484 410.853,156.817 409.5,158.5C 409.167,158.5 408.833,158.5 408.5,158.5C 407.848,159.449 407.514,160.615 407.5,162C 409.79,168.954 410.957,176.121 411,183.5C 411.377,184.942 412.21,185.942 413.5,186.5C 414.167,187.167 414.833,187.833 415.5,188.5C 416.768,191.43 418.434,194.097 420.5,196.5C 421.778,196.782 422.778,197.449 423.5,198.5C 424.029,200.784 425.029,202.784 426.5,204.5C 427.778,204.782 428.778,205.449 429.5,206.5C 430.768,209.43 432.434,212.097 434.5,214.5C 435.376,214.369 436.043,214.702 436.5,215.5C 435.412,216.934 434.078,217.934 432.5,218.5C 429.892,220.103 427.559,222.103 425.5,224.5C 422.866,226.247 420.533,228.247 418.5,230.5C 415.847,232.155 413.514,234.155 411.5,236.5C 410.127,238.207 408.461,239.54 406.5,240.5C 403.847,242.155 401.514,244.155 399.5,246.5C 398.533,247.806 397.199,248.473 395.5,248.5C 391.458,245.507 387.792,242.173 384.5,238.5C 383.833,238.5 383.167,238.5 382.5,238.5C 382.657,237.127 382.49,235.793 382,234.5C 380.45,233.409 379.283,232.076 378.5,230.5C 377.167,230.5 376.5,229.833 376.5,228.5C 375.14,226.46 373.807,224.46 372.5,222.5C 371.222,222.218 370.222,221.551 369.5,220.5C 368.971,218.216 367.971,216.216 366.5,214.5C 365.167,214.5 364.5,213.833 364.5,212.5C 363.14,210.46 361.807,208.46 360.5,206.5C 359.167,206.5 358.5,205.833 358.5,204.5C 357.14,202.46 355.807,200.46 354.5,198.5C 350.5,195.833 347.167,192.5 344.5,188.5C 344.011,187.005 343.345,185.671 342.5,184.5C 341.167,184.5 340.5,183.833 340.5,182.5C 339.503,179.845 337.836,177.845 335.5,176.5C 334.662,176.158 334.328,175.492 334.5,174.5C 333.14,172.46 331.807,170.46 330.5,168.5C 330.167,168.5 329.833,168.5 329.5,168.5C 328.971,166.216 327.971,164.216 326.5,162.5C 325.167,162.5 324.5,161.833 324.5,160.5C 323.974,158.77 322.974,157.436 321.5,156.5C 320.662,156.158 320.328,155.492 320.5,154.5C 319.18,152.183 317.514,150.183 315.5,148.5C 314.662,148.158 314.328,147.492 314.5,146.5C 314.011,145.005 313.345,143.671 312.5,142.5C 312.167,142.5 311.833,142.5 311.5,142.5C 310.232,139.57 308.566,136.903 306.5,134.5C 304.539,133.54 302.873,132.207 301.5,130.5C 300.232,127.57 298.566,124.903 296.5,122.5C 295.766,121.292 295.433,119.959 295.5,118.5C 293.219,118.077 291.552,118.744 290.5,120.5C 284.498,121.552 278.498,122.886 272.5,124.5C 270.517,124.157 269.183,124.824 268.5,126.5C 262.475,127.508 256.475,128.841 250.5,130.5C 248.517,130.157 247.183,130.824 246.5,132.5C 244.219,132.923 242.552,132.256 241.5,130.5C 241.719,129.325 241.386,128.325 240.5,127.5C 237.535,126.727 234.535,126.061 231.5,125.5C 229.539,126.079 228.539,127.413 228.5,129.5C 228.453,131.038 229.12,132.038 230.5,132.5C 230.736,135.609 230.403,138.609 229.5,141.5C 228.625,145.998 228.625,150.665 229.5,155.5C 218.419,155.81 207.419,155.477 196.5,154.5C 178.83,154.333 161.164,154.5 143.5,155C 142.186,157.605 142.186,160.105 143.5,162.5C 143.9,168.725 144.9,174.725 146.5,180.5C 147.219,185.986 147.886,191.486 148.5,197C 147.723,204.163 147.056,211.329 146.5,218.5C 145.598,221.983 144.932,225.65 144.5,229.5C 144.555,232.36 145.555,234.693 147.5,236.5C 147.229,238.38 147.896,239.713 149.5,240.5C 150.461,242.265 150.795,244.265 150.5,246.5C 150.5,247.833 150.5,249.167 150.5,250.5C 150.167,254.5 149.833,258.5 149.5,262.5C 142.106,264.352 134.773,266.519 127.5,269C 126.915,270.302 126.249,271.469 125.5,272.5C 123.896,273.287 123.229,274.62 123.5,276.5C 122.026,277.436 121.026,278.77 120.5,280.5C 119.655,281.671 118.989,283.005 118.5,284.5C 118.672,285.492 118.338,286.158 117.5,286.5C 115.896,287.287 115.229,288.62 115.5,290.5C 115.167,290.5 114.833,290.5 114.5,290.5C 112.849,292.402 112.516,294.402 113.5,296.5C 113.294,299.495 113.96,302.162 115.5,304.5C 116.461,306.265 116.795,308.265 116.5,310.5C 116.421,311.93 116.754,313.264 117.5,314.5C 116.757,315.182 116.091,315.849 115.5,316.5C 91.9302,324.749 68.2635,332.749 44.5,340.5C 40.6707,339.931 37.3373,340.598 34.5,342.5C 31.5,342.5 28.5,342.5 25.5,342.5C 21.6707,341.931 18.3373,342.598 15.5,344.5C 12.5,344.5 9.5,344.5 6.5,344.5C 4.16667,344.5 1.83333,344.5 -0.5,344.5C -0.5,229.5 -0.5,114.5 -0.5,-0.5 Z"/></g>
<g><path style="opacity:1" fill="#a76fa1" d="M 517.5,0.5 C 519.5,0.5 521.5,0.5 523.5,0.5C 525.142,7.06884 526.142,13.7355 526.5,20.5C 526.5,22.5 526.5,24.5 526.5,26.5C 533.167,26.5 539.833,26.5 546.5,26.5C 549.167,26.5 551.833,26.5 554.5,26.5C 555.918,28.3079 557.918,28.9746 560.5,28.5C 562.5,28.5 564.5,28.5 566.5,28.5C 569.337,30.4023 572.671,31.069 576.5,30.5C 578.5,30.5 580.5,30.5 582.5,30.5C 584.635,32.369 587.302,33.0356 590.5,32.5C 593.167,32.5 595.833,32.5 598.5,32.5C 599.183,34.1765 600.517,34.8432 602.5,34.5C 603.978,34.238 605.311,34.5713 606.5,35.5C 605.383,36.9494 604.716,38.6161 604.5,40.5C 605.936,44.9753 607.27,49.4753 608.5,54C 608.17,56.3409 607.504,58.5076 606.5,60.5C 603.687,61.4461 602.354,63.4461 602.5,66.5C 602.167,67.5 601.5,68.1667 600.5,68.5C 598.308,70.7047 596.974,73.3714 596.5,76.5C 593.687,77.4461 592.354,79.4461 592.5,82.5C 589.687,83.4461 588.354,85.4461 588.5,88.5C 585.687,89.4461 584.354,91.4461 584.5,94.5C 582.204,95.733 580.87,97.733 580.5,100.5C 579.252,101.334 578.585,102.667 578.5,104.5C 579.11,109.822 579.61,115.156 580,120.5C 580.608,122.066 581.442,123.4 582.5,124.5C 583.931,125.903 585.098,127.569 586,129.5C 588.42,137.259 590.92,144.925 593.5,152.5C 596.751,157.755 600.751,162.422 605.5,166.5C 606.491,170.445 606.824,174.445 606.5,178.5C 606.963,181.33 607.629,183.997 608.5,186.5C 608.5,189.833 608.5,193.167 608.5,196.5C 609.324,199.764 609.658,203.098 609.5,206.5C 608.932,213.853 607.598,221.186 605.5,228.5C 605.511,230.045 605.844,231.378 606.5,232.5C 605.88,238.926 606.547,244.926 608.5,250.5C 608.5,251.833 609.167,252.5 610.5,252.5C 611.914,255.582 614.248,257.582 617.5,258.5C 619.886,258.259 621.886,258.925 623.5,260.5C 623.833,263.167 624.167,265.833 624.5,268.5C 622.256,272.793 620.923,277.46 620.5,282.5C 617.687,283.446 616.354,285.446 616.5,288.5C 615.021,296.256 613.687,304.256 612.5,312.5C 612.5,313.833 612.5,315.167 612.5,316.5C 613.167,318.5 614.5,319.833 616.5,320.5C 617.833,321.167 619.167,321.833 620.5,322.5C 622.545,324.89 624.212,327.556 625.5,330.5C 624.715,342.814 624.048,355.148 623.5,367.5C 623.503,370.025 623.837,372.359 624.5,374.5C 625.441,378.657 626.775,382.657 628.5,386.5C 629.757,392.344 632.091,397.677 635.5,402.5C 636.5,402.5 637.5,402.5 638.5,402.5C 639.446,405.313 641.446,406.646 644.5,406.5C 645.122,408.122 646.122,409.455 647.5,410.5C 649.447,414.78 652.447,418.113 656.5,420.5C 657.833,421.167 659.167,421.833 660.5,422.5C 661.446,425.313 663.446,426.646 666.5,426.5C 672.249,429.708 678.249,432.374 684.5,434.5C 685.167,436.5 686.5,437.833 688.5,438.5C 694.055,440.187 698.055,443.52 700.5,448.5C 701.167,450.5 702.5,451.833 704.5,452.5C 705.678,462.461 706.678,472.461 707.5,482.5C 708.379,487.232 709.379,491.898 710.5,496.5C 710.448,502.824 709.115,508.824 706.5,514.5C 704.824,515.183 704.157,516.517 704.5,518.5C 702.204,519.733 700.87,521.733 700.5,524.5C 697.764,525.573 696.097,527.573 695.5,530.5C 694.122,531.545 693.122,532.878 692.5,534.5C 688.2,536.465 685.867,539.799 685.5,544.5C 684.662,544.842 684.328,545.508 684.5,546.5C 680.975,548.025 678.975,550.691 678.5,554.5C 677.833,554.5 677.167,554.5 676.5,554.5C 673.918,554.025 671.918,554.692 670.5,556.5C 668.824,557.183 668.157,558.517 668.5,560.5C 666.69,563.372 665.69,566.705 665.5,570.5C 654.891,575.049 650.557,583.049 652.5,594.5C 650.624,597.737 650.29,601.07 651.5,604.5C 652.597,609.93 655.597,613.93 660.5,616.5C 662.701,618.71 664.034,621.376 664.5,624.5C 662.955,625.23 662.122,626.563 662,628.5C 661.211,630.712 661.378,632.712 662.5,634.5C 662.5,635.833 662.5,637.167 662.5,638.5C 663.833,638.5 665.167,638.5 666.5,638.5C 667.334,639.748 668.667,640.415 670.5,640.5C 672.333,640.415 673.666,639.748 674.5,638.5C 681.248,636.266 688.248,635.933 695.5,637.5C 700.359,638.712 702.692,641.712 702.5,646.5C 703.482,649.763 704.149,653.097 704.5,656.5C 703.497,663.139 702.163,669.806 700.5,676.5C 700.5,677.167 700.5,677.833 700.5,678.5C 699.326,679.514 698.66,680.847 698.5,682.5C 698.5,683.167 698.5,683.833 698.5,684.5C 697.265,684.721 696.265,685.388 695.5,686.5C 692.195,693.549 691.529,700.882 693.5,708.5C 690.036,708.559 686.703,707.892 683.5,706.5C 681.696,706.986 680.029,707.653 678.5,708.5C 677.378,710.288 677.211,712.288 678,714.5C 678.417,715.756 679.25,716.423 680.5,716.5C 680.205,718.735 680.539,720.735 681.5,722.5C 680.448,724.256 678.781,724.923 676.5,724.5C 673.833,724.5 671.167,724.5 668.5,724.5C 666.365,722.631 663.698,721.964 660.5,722.5C 657.833,722.5 655.167,722.5 652.5,722.5C 650.012,720.612 647.012,719.945 643.5,720.5C 641.167,720.5 638.833,720.5 636.5,720.5C 634.012,718.612 631.012,717.945 627.5,718.5C 624.833,718.5 622.167,718.5 619.5,718.5C 617.365,716.631 614.698,715.964 611.5,716.5C 608.5,716.5 605.5,716.5 602.5,716.5C 600.365,714.631 597.698,713.964 594.5,714.5C 591.833,714.5 589.167,714.5 586.5,714.5C 584.365,712.631 581.698,711.964 578.5,712.5C 569.226,709.657 560.226,705.99 551.5,701.5C 538.067,699.989 524.733,700.322 511.5,702.5C 509.581,703.612 507.914,704.946 506.5,706.5C 503.721,707.889 500.721,708.722 497.5,709C 494.016,710.672 490.683,712.505 487.5,714.5C 485.463,716.202 483.797,718.202 482.5,720.5C 481.167,720.5 480.5,721.167 480.5,722.5C 477.583,722.635 474.916,721.968 472.5,720.5C 472.545,717.923 471.545,715.923 469.5,714.5C 469.167,714.5 468.833,714.5 468.5,714.5C 467.934,710.68 465.934,708.013 462.5,706.5C 462.672,705.508 462.338,704.842 461.5,704.5C 460.903,701.573 459.236,699.573 456.5,698.5C 455.934,694.68 453.934,692.013 450.5,690.5C 449.943,687.95 448.61,685.95 446.5,684.5C 446.843,682.517 446.176,681.183 444.5,680.5C 443.601,677.449 441.601,675.449 438.5,674.5C 437.833,672.5 436.5,671.167 434.5,670.5C 432.5,670.5 430.5,670.5 428.5,670.5C 428.38,669.414 427.713,668.747 426.5,668.5C 425.287,668.747 424.62,669.414 424.5,670.5C 417.167,670.5 409.833,670.5 402.5,670.5C 398.029,669.911 394.029,670.577 390.5,672.5C 386.5,672.5 382.5,672.5 378.5,672.5C 374.029,671.911 370.029,672.577 366.5,674.5C 360.833,674.5 355.167,674.5 349.5,674.5C 345.655,673.057 341.655,671.724 337.5,670.5C 334.661,669.679 332.328,668.013 330.5,665.5C 328.955,664.548 327.288,664.215 325.5,664.5C 324.817,662.824 323.483,662.157 321.5,662.5C 319.833,662.5 318.167,662.5 316.5,662.5C 315.817,660.824 314.483,660.157 312.5,660.5C 311.167,660.5 309.833,660.5 308.5,660.5C 307.448,658.744 305.781,658.077 303.5,658.5C 302.167,658.5 300.833,658.5 299.5,658.5C 298.817,656.824 297.483,656.157 295.5,656.5C 286.243,654.429 277.243,651.596 268.5,648C 262.13,644.148 255.463,640.815 248.5,638C 247.468,636.373 246.134,635.207 244.5,634.5C 242.428,630.76 239.428,628.093 235.5,626.5C 234.127,624.793 232.461,623.46 230.5,622.5C 229.575,619.74 227.575,618.407 224.5,618.5C 222.667,618.585 221.334,619.252 220.5,620.5C 219.167,620.5 217.833,620.5 216.5,620.5C 213.918,620.025 211.918,620.692 210.5,622.5C 209.167,622.5 207.833,622.5 206.5,622.5C 203.918,622.025 201.918,622.692 200.5,624.5C 198.5,624.5 196.5,624.5 194.5,624.5C 192.517,624.157 191.183,624.824 190.5,626.5C 188.538,631.542 187.205,636.875 186.5,642.5C 185.167,643.167 183.833,643.833 182.5,644.5C 178.351,643.92 174.684,644.586 171.5,646.5C 170.5,646.5 169.5,646.5 168.5,646.5C 166.973,646.427 165.973,647.094 165.5,648.5C 164.167,648.5 162.833,648.5 161.5,648.5C 159.581,649.612 157.914,650.946 156.5,652.5C 154.5,652.5 152.5,652.5 150.5,652.5C 143.833,652.5 137.167,652.5 130.5,652.5C 129.167,652.5 127.833,652.5 126.5,652.5C 125.817,650.824 124.483,650.157 122.5,650.5C 120.833,650.5 119.167,650.5 117.5,650.5C 116.086,648.946 114.419,647.612 112.5,646.5C 112.5,643.167 112.5,639.833 112.5,636.5C 106.5,636.5 100.5,636.5 94.5,636.5C 91.6874,635.554 90.354,633.554 90.5,630.5C 91.5862,630.38 92.2528,629.713 92.5,628.5C 93.2692,625.885 93.6025,623.219 93.5,620.5C 94.5392,616.658 94.5392,612.658 93.5,608.5C 94.5585,607.4 95.3918,606.066 96,604.5C 96.4993,596.488 96.3327,588.488 95.5,580.5C 96.8333,578.5 96.8333,576.5 95.5,574.5C 95.6427,572.738 95.3094,571.071 94.5,569.5C 91.452,566.452 88.452,563.452 85.5,560.5C 85.1667,560.5 84.8333,560.5 84.5,560.5C 84.5449,557.923 83.5449,555.923 81.5,554.5C 81.1667,554.5 80.8333,554.5 80.5,554.5C 80.1808,551.194 78.8475,548.527 76.5,546.5C 76.7678,544.901 76.4345,543.568 75.5,542.5C 74.0078,538.182 72.0078,534.182 69.5,530.5C 67.142,521.899 65.8087,513.232 65.5,504.5C 65.6373,499.876 64.3039,495.876 61.5,492.5C 61.3404,490.847 60.6737,489.514 59.5,488.5C 59.3404,486.847 58.6737,485.514 57.5,484.5C 57.1667,484.5 56.8333,484.5 56.5,484.5C 56.646,481.446 55.3126,479.446 52.5,478.5C 52.6716,477.508 52.3382,476.842 51.5,476.5C 51.3404,474.847 50.6737,473.514 49.5,472.5C 49.3404,470.847 48.6737,469.514 47.5,468.5C 45.0706,468.116 42.7373,467.449 40.5,466.5C 38.5664,464.757 36.8998,462.757 35.5,460.5C 34.9213,457.669 33.588,455.336 31.5,453.5C 30.0279,448.324 30.5279,443.324 33,438.5C 33.5661,433.173 34.0661,427.839 34.5,422.5C 34.4954,420.304 34.162,418.304 33.5,416.5C 32.8333,413.167 32.1667,409.833 31.5,406.5C 30.9432,403.95 29.6099,401.95 27.5,400.5C 24.4793,398.083 21.146,396.083 17.5,394.5C 16.7348,395.612 15.7348,396.279 14.5,396.5C 13.1667,396.5 11.8333,396.5 10.5,396.5C 10.8432,394.517 10.1765,393.183 8.5,392.5C 8.7083,388.915 7.37496,386.249 4.5,384.5C 4.5,383.167 4.5,381.833 4.5,380.5C 4.65836,377.639 3.9917,374.972 2.5,372.5C 3.90486,368.265 4.90486,363.932 5.5,359.5C 5.37642,358.893 5.04309,358.56 4.5,358.5C 4.84316,356.517 4.17649,355.183 2.5,354.5C 1.83333,351.833 1.16667,349.167 0.5,346.5C 3.08209,346.975 5.08209,346.308 6.5,344.5C 9.5,344.5 12.5,344.5 15.5,344.5C 19.3293,345.069 22.6627,344.402 25.5,342.5C 28.5,342.5 31.5,342.5 34.5,342.5C 38.3293,343.069 41.6627,342.402 44.5,340.5C 68.2635,332.749 91.9302,324.749 115.5,316.5C 116.5,316.5 117.5,316.5 118.5,316.5C 118.741,314.102 118.074,312.102 116.5,310.5C 116.795,308.265 116.461,306.265 115.5,304.5C 115.435,301.572 114.768,298.905 113.5,296.5C 114.15,294.565 114.483,292.565 114.5,290.5C 114.833,290.5 115.167,290.5 115.5,290.5C 116.674,289.486 117.34,288.153 117.5,286.5C 118.338,286.158 118.672,285.492 118.5,284.5C 120.176,283.817 120.843,282.483 120.5,280.5C 122.446,279.965 123.446,278.632 123.5,276.5C 124.674,275.486 125.34,274.153 125.5,272.5C 126.249,271.469 126.915,270.302 127.5,269C 134.773,266.519 142.106,264.352 149.5,262.5C 149.833,258.5 150.167,254.5 150.5,250.5C 151.586,250.38 152.253,249.713 152.5,248.5C 152.253,247.287 151.586,246.62 150.5,246.5C 150.795,244.265 150.461,242.265 149.5,240.5C 149.34,238.847 148.674,237.514 147.5,236.5C 146.587,230.559 146.254,224.559 146.5,218.5C 150.313,205.809 150.313,193.143 146.5,180.5C 146.421,174.223 145.421,168.223 143.5,162.5C 143.5,160.5 143.5,158.5 143.5,156.5C 161.167,156.5 178.833,156.5 196.5,156.5C 207.833,156.5 219.167,156.5 230.5,156.5C 230.249,151.493 229.916,146.493 229.5,141.5C 230.403,138.609 230.736,135.609 230.5,132.5C 230.201,130.396 230.534,128.396 231.5,126.5C 234.903,127.841 238.236,129.175 241.5,130.5C 242.552,132.256 244.219,132.923 246.5,132.5C 248.483,132.843 249.817,132.176 250.5,130.5C 256.475,128.841 262.475,127.508 268.5,126.5C 270.483,126.843 271.817,126.176 272.5,124.5C 278.498,122.886 284.498,121.552 290.5,120.5C 292.718,120.614 294.718,121.28 296.5,122.5C 296.934,125.934 298.6,128.601 301.5,130.5C 302.873,132.207 304.539,133.54 306.5,134.5C 306.934,137.934 308.6,140.601 311.5,142.5C 311.833,142.5 312.167,142.5 312.5,142.5C 312.157,144.483 312.824,145.817 314.5,146.5C 314.328,147.492 314.662,148.158 315.5,148.5C 316.097,151.427 317.764,153.427 320.5,154.5C 320.328,155.492 320.662,156.158 321.5,156.5C 321.554,158.632 322.554,159.965 324.5,160.5C 324.5,161.833 325.167,162.5 326.5,162.5C 326.455,165.077 327.455,167.077 329.5,168.5C 329.833,168.5 330.167,168.5 330.5,168.5C 330.354,171.554 331.687,173.554 334.5,174.5C 334.328,175.492 334.662,176.158 335.5,176.5C 336.097,179.427 337.764,181.427 340.5,182.5C 340.5,183.833 341.167,184.5 342.5,184.5C 342.157,186.483 342.824,187.817 344.5,188.5C 347.167,192.5 350.5,195.833 354.5,198.5C 354.354,201.554 355.687,203.554 358.5,204.5C 358.5,205.833 359.167,206.5 360.5,206.5C 360.354,209.554 361.687,211.554 364.5,212.5C 364.5,213.833 365.167,214.5 366.5,214.5C 366.455,217.077 367.455,219.077 369.5,220.5C 370.222,221.551 371.222,222.218 372.5,222.5C 372.354,225.554 373.687,227.554 376.5,228.5C 376.5,229.833 377.167,230.5 378.5,230.5C 378.974,233.629 380.308,236.295 382.5,238.5C 383.167,238.5 383.833,238.5 384.5,238.5C 384.328,240.492 384.995,242.158 386.5,243.5C 389.279,245.692 392.279,247.359 395.5,248.5C 397.199,248.473 398.533,247.806 399.5,246.5C 402.752,245.582 405.086,243.582 406.5,240.5C 408.461,239.54 410.127,238.207 411.5,236.5C 414.752,235.582 417.086,233.582 418.5,230.5C 420.533,228.247 422.866,226.247 425.5,224.5C 428.752,223.582 431.086,221.582 432.5,218.5C 434.078,217.934 435.412,216.934 436.5,215.5C 436.043,214.702 435.376,214.369 434.5,214.5C 434.066,211.066 432.4,208.399 429.5,206.5C 428.778,205.449 427.778,204.782 426.5,204.5C 426.545,201.923 425.545,199.923 423.5,198.5C 422.778,197.449 421.778,196.782 420.5,196.5C 420.066,193.066 418.4,190.399 415.5,188.5C 414.833,187.833 414.167,187.167 413.5,186.5C 412.052,177.141 410.386,167.808 408.5,158.5C 408.833,158.5 409.167,158.5 409.5,158.5C 412.069,158.262 413.735,156.929 414.5,154.5C 412.657,150.991 409.657,149.657 405.5,150.5C 404.365,148.787 402.698,148.12 400.5,148.5C 399.289,146.05 397.622,144.05 395.5,142.5C 395.167,142.5 394.833,142.5 394.5,142.5C 393.787,138.007 392.12,134.007 389.5,130.5C 388.833,129.833 388.167,129.167 387.5,128.5C 387.34,126.847 386.674,125.514 385.5,124.5C 379.781,123.455 374.114,122.122 368.5,120.5C 367.086,117.418 364.752,115.418 361.5,114.5C 360.833,113.833 360.167,113.167 359.5,112.5C 359.125,110.302 358.458,108.302 357.5,106.5C 357.435,103.572 356.768,100.905 355.5,98.5C 354.833,96.5 354.167,94.5 353.5,92.5C 352.063,87.6737 348.73,85.6737 343.5,86.5C 340.731,86.5286 338.397,87.1952 336.5,88.5C 335.833,88.5 335.167,88.5 334.5,88.5C 332.973,88.427 331.973,89.0937 331.5,90.5C 330.167,90.5 328.833,90.5 327.5,90.5C 325.323,91.2794 323.656,92.6127 322.5,94.5C 321.222,94.7822 320.222,95.4489 319.5,96.5C 316.467,96.8685 313.8,96.2018 311.5,94.5C 310.022,94.762 308.689,94.4287 307.5,93.5C 307.121,91.7869 306.121,90.7869 304.5,90.5C 302.209,82.665 300.543,74.665 299.5,66.5C 300.005,61.7877 300.672,57.121 301.5,52.5C 302.338,52.1583 302.672,51.4916 302.5,50.5C 304.402,47.6627 305.069,44.3293 304.5,40.5C 306.718,40.3862 308.718,39.7196 310.5,38.5C 311.586,38.38 312.253,37.7133 312.5,36.5C 312.253,35.2867 311.586,34.62 310.5,34.5C 309.156,32.9652 307.489,31.6319 305.5,30.5C 304.735,31.6119 303.735,32.2786 302.5,32.5C 303.482,29.2365 304.149,25.9032 304.5,22.5C 305.222,22.0825 305.722,21.4158 306,20.5C 306.497,17.854 306.664,15.1873 306.5,12.5C 314.243,13.1299 321.576,12.4633 328.5,10.5C 337.167,10.5 345.833,10.5 354.5,10.5C 359.944,11.1083 364.944,10.4417 369.5,8.5C 377.167,8.5 384.833,8.5 392.5,8.5C 403.552,9.14282 414.219,8.47615 424.5,6.5C 430.167,6.5 435.833,6.5 441.5,6.5C 450.234,7.13504 458.567,6.46837 466.5,4.5C 475.5,4.5 484.5,4.5 493.5,4.5C 497.329,5.06896 500.663,4.40229 503.5,2.5C 505.833,2.5 508.167,2.5 510.5,2.5C 513.388,3.01017 515.721,2.34351 517.5,0.5 Z"/></g>
<g><path style="opacity:1" fill="#9a7f97" d="M 517.5,0.5 C 515.721,2.34351 513.388,3.01017 510.5,2.5C 512.279,0.656493 514.612,-0.0101734 517.5,0.5 Z"/></g>
<g><path style="opacity:1" fill="#9a8097" d="M 503.5,2.5 C 500.663,4.40229 497.329,5.06896 493.5,4.5C 496.337,2.59771 499.671,1.93104 503.5,2.5 Z"/></g>
<g><path style="opacity:1" fill="#9a8197" d="M 466.5,4.5 C 458.567,6.46837 450.234,7.13504 441.5,6.5C 449.433,4.53163 457.766,3.86496 466.5,4.5 Z"/></g>
<g><path style="opacity:1" fill="#d1d1d0" d="M 392.5,6.5 C 392.5,7.16667 392.5,7.83333 392.5,8.5C 384.833,8.5 377.167,8.5 369.5,8.5C 369.167,8.5 368.833,8.5 368.5,8.5C 376.401,7.80483 384.401,7.13816 392.5,6.5 Z"/></g>
<g><path style="opacity:1" fill="#9a7f97" d="M 392.5,6.5 C 403.167,6.5 413.833,6.5 424.5,6.5C 414.219,8.47615 403.552,9.14282 392.5,8.5C 392.5,7.83333 392.5,7.16667 392.5,6.5 Z"/></g>
<g><path style="opacity:1" fill="#d1d1d1" d="M 354.5,8.5 C 354.5,9.16667 354.5,9.83333 354.5,10.5C 345.833,10.5 337.167,10.5 328.5,10.5C 328.167,10.5 327.833,10.5 327.5,10.5C 336.401,9.80806 345.401,9.14139 354.5,8.5 Z"/></g>
<g><path style="opacity:1" fill="#b6acb4" d="M 523.5,0.5 C 526.622,8.05926 528.289,16.0593 528.5,24.5C 527.833,23.1667 527.167,21.8333 526.5,20.5C 526.142,13.7355 525.142,7.06884 523.5,0.5 Z"/></g>
<g><path style="opacity:1" fill="#9a7f96" d="M 354.5,8.5 C 359.167,8.5 363.833,8.5 368.5,8.5C 368.833,8.5 369.167,8.5 369.5,8.5C 364.944,10.4417 359.944,11.1083 354.5,10.5C 354.5,9.83333 354.5,9.16667 354.5,8.5 Z"/></g>
<g><path style="opacity:1" fill="#c4c0c2" d="M 306.5,10.5 C 306.5,11.1667 306.5,11.8333 306.5,12.5C 306.664,15.1873 306.497,17.854 306,20.5C 305.722,21.4158 305.222,22.0825 304.5,22.5C 304.956,18.3357 305.622,14.3357 306.5,10.5 Z"/></g>
<g><path style="opacity:1" fill="#9a8097" d="M 306.5,10.5 C 313.5,10.5 320.5,10.5 327.5,10.5C 327.833,10.5 328.167,10.5 328.5,10.5C 321.576,12.4633 314.243,13.1299 306.5,12.5C 306.5,11.8333 306.5,11.1667 306.5,10.5 Z"/></g>
<g><path style="opacity:1" fill="#9a7d97" d="M 526.5,20.5 C 527.167,21.8333 527.833,23.1667 528.5,24.5C 534.926,23.88 540.926,24.5467 546.5,26.5C 539.833,26.5 533.167,26.5 526.5,26.5C 526.5,24.5 526.5,22.5 526.5,20.5 Z"/></g>
<g><path style="opacity:1" fill="#997f96" d="M 554.5,26.5 C 557.082,26.0254 559.082,26.6921 560.5,28.5C 557.918,28.9746 555.918,28.3079 554.5,26.5 Z"/></g>
<g><path style="opacity:1" fill="#bbb3ba" d="M 304.5,22.5 C 304.149,25.9032 303.482,29.2365 302.5,32.5C 301.903,32.2648 301.57,31.7648 301.5,31C 302.134,27.9221 303.134,25.0888 304.5,22.5 Z"/></g>
<g><path style="opacity:1" fill="#9b8298" d="M 566.5,28.5 C 569.518,28.3354 572.518,28.502 575.5,29C 576.056,29.3826 576.389,29.8826 576.5,30.5C 572.671,31.069 569.337,30.4023 566.5,28.5 Z"/></g>
<g><path style="opacity:1" fill="#9a7e98" d="M 582.5,30.5 C 585.698,29.9644 588.365,30.631 590.5,32.5C 587.302,33.0356 584.635,32.369 582.5,30.5 Z"/></g>
<g><path style="opacity:1" fill="#9a8096" d="M 598.5,32.5 C 600.483,32.1568 601.817,32.8235 602.5,34.5C 600.517,34.8432 599.183,34.1765 598.5,32.5 Z"/></g>
<g><path style="opacity:1" fill="#a0849d" d="M 310.5,34.5 C 311.586,34.62 312.253,35.2867 312.5,36.5C 312.253,37.7133 311.586,38.38 310.5,38.5C 310.5,37.1667 310.5,35.8333 310.5,34.5 Z"/></g>
<g><path style="opacity:1" fill="#c8c6c7" d="M 304.5,40.5 C 305.069,44.3293 304.402,47.6627 302.5,50.5C 303.097,47.0588 303.763,43.7254 304.5,40.5 Z"/></g>
<g><path style="opacity:1" fill="#beb8be" d="M 606.5,60.5 C 605.14,62.5401 603.807,64.5401 602.5,66.5C 602.354,63.4461 603.687,61.4461 606.5,60.5 Z"/></g>
<g><path style="opacity:1" fill="#c4bfc3" d="M 600.5,68.5 C 600.004,71.6417 598.67,74.3084 596.5,76.5C 596.974,73.3714 598.308,70.7047 600.5,68.5 Z"/></g>
<g><path style="opacity:1" fill="#bab3b8" d="M 301.5,52.5 C 300.672,57.121 300.005,61.7877 299.5,66.5C 300.543,74.665 302.209,82.665 304.5,90.5C 298.885,78.7829 297.385,66.4496 300,53.5C 300.383,52.944 300.883,52.6107 301.5,52.5 Z"/></g>
<g><path style="opacity:1" fill="#c7c4c7" d="M 596.5,76.5 C 595.14,78.5401 593.807,80.5401 592.5,82.5C 592.354,79.4461 593.687,77.4461 596.5,76.5 Z"/></g>
<g><path style="opacity:1" fill="#a08a9e" d="M 353.5,92.5 C 352.282,91.2689 350.949,90.1022 349.5,89C 345.179,88.501 340.846,88.3343 336.5,88.5C 338.397,87.1952 340.731,86.5286 343.5,86.5C 348.73,85.6737 352.063,87.6737 353.5,92.5 Z"/></g>
<g><path style="opacity:1" fill="#c5c1c5" d="M 592.5,82.5 C 591.14,84.5401 589.807,86.5401 588.5,88.5C 588.354,85.4461 589.687,83.4461 592.5,82.5 Z"/></g>
<g><path style="opacity:1" fill="#c7c4c7" d="M 588.5,88.5 C 587.14,90.5401 585.807,92.5401 584.5,94.5C 584.354,91.4461 585.687,89.4461 588.5,88.5 Z"/></g>
<g><path style="opacity:1" fill="#afa4ae" d="M 334.5,88.5 C 334.027,89.9063 333.027,90.573 331.5,90.5C 331.973,89.0937 332.973,88.427 334.5,88.5 Z"/></g>
<g><path style="opacity:1" fill="#b1a4b0" d="M 327.5,90.5 C 326.794,92.8764 325.127,94.2097 322.5,94.5C 323.656,92.6127 325.323,91.2794 327.5,90.5 Z"/></g>
<g><path style="opacity:1" fill="#c8c5c8" d="M 584.5,94.5 C 583.649,96.8816 582.316,98.8816 580.5,100.5C 580.87,97.733 582.204,95.733 584.5,94.5 Z"/></g>
<g><path style="opacity:1" fill="#c9c7c9" d="M 311.5,94.5 C 313.8,96.2018 316.467,96.8685 319.5,96.5C 317.052,97.4731 314.385,97.8064 311.5,97.5C 311.5,96.5 311.5,95.5 311.5,94.5 Z"/></g>
<g><path style="opacity:1" fill="#b0a4ae" d="M 355.5,98.5 C 356.768,100.905 357.435,103.572 357.5,106.5C 355.96,104.162 355.294,101.495 355.5,98.5 Z"/></g>
<g><path style="opacity:1" fill="#b4abb3" d="M 357.5,106.5 C 358.458,108.302 359.125,110.302 359.5,112.5C 357.72,111.01 357.054,109.01 357.5,106.5 Z"/></g>
<g><path style="opacity:1" fill="#bab1b9" d="M 580.5,100.5 C 579.728,108.571 580.395,116.571 582.5,124.5C 581.442,123.4 580.608,122.066 580,120.5C 579.61,115.156 579.11,109.822 578.5,104.5C 578.585,102.667 579.252,101.334 580.5,100.5 Z"/></g>
<g><path style="opacity:1" fill="#ab9ca9" d="M 361.5,114.5 C 364.752,115.418 367.086,117.418 368.5,120.5C 365.847,118.845 363.514,116.845 361.5,114.5 Z"/></g>
<g><path style="opacity:1" fill="#a18b9f" d="M 296.5,122.5 C 294.718,121.28 292.718,120.614 290.5,120.5C 291.552,118.744 293.219,118.077 295.5,118.5C 295.433,119.959 295.766,121.292 296.5,122.5 Z"/></g>
<g><path style="opacity:1" fill="#9a8097" d="M 272.5,124.5 C 271.817,126.176 270.483,126.843 268.5,126.5C 269.183,124.824 270.517,124.157 272.5,124.5 Z"/></g>
<g><path style="opacity:1" fill="#b2a7b1" d="M 296.5,122.5 C 298.566,124.903 300.232,127.57 301.5,130.5C 298.6,128.601 296.934,125.934 296.5,122.5 Z"/></g>
<g><path style="opacity:1" fill="#a795a5" d="M 241.5,130.5 C 238.236,129.175 234.903,127.841 231.5,126.5C 230.534,128.396 230.201,130.396 230.5,132.5C 229.12,132.038 228.453,131.038 228.5,129.5C 228.539,127.413 229.539,126.079 231.5,125.5C 234.535,126.061 237.535,126.727 240.5,127.5C 241.386,128.325 241.719,129.325 241.5,130.5 Z"/></g>
<g><path style="opacity:1" fill="#ab9ea9" d="M 385.5,124.5 C 386.674,125.514 387.34,126.847 387.5,128.5C 385.896,127.713 385.229,126.38 385.5,124.5 Z"/></g>
<g><path style="opacity:1" fill="#9a8097" d="M 250.5,130.5 C 249.817,132.176 248.483,132.843 246.5,132.5C 247.183,130.824 248.517,130.157 250.5,130.5 Z"/></g>
<g><path style="opacity:1" fill="#b2a8b1" d="M 306.5,134.5 C 308.566,136.903 310.232,139.57 311.5,142.5C 308.6,140.601 306.934,137.934 306.5,134.5 Z"/></g>
<g><path style="opacity:1" fill="#afa1ad" d="M 389.5,130.5 C 392.12,134.007 393.787,138.007 394.5,142.5C 391.684,139.072 390.018,135.072 389.5,130.5 Z"/></g>
<g><path style="opacity:1" fill="#b0a5af" d="M 312.5,142.5 C 313.345,143.671 314.011,145.005 314.5,146.5C 312.824,145.817 312.157,144.483 312.5,142.5 Z"/></g>
<g><path style="opacity:1" fill="#ac9daa" d="M 395.5,142.5 C 397.622,144.05 399.289,146.05 400.5,148.5C 397.893,147.288 396.226,145.288 395.5,142.5 Z"/></g>
<g><path style="opacity:1" fill="#b0a4ae" d="M 315.5,148.5 C 317.514,150.183 319.18,152.183 320.5,154.5C 317.764,153.427 316.097,151.427 315.5,148.5 Z"/></g>
<g><path style="opacity:1" fill="#b7aeb6" d="M 400.5,148.5 C 402.698,148.12 404.365,148.787 405.5,150.5C 403.597,150.204 401.93,149.537 400.5,148.5 Z"/></g>
<g><path style="opacity:1" fill="#9e889b" d="M 196.5,154.5 C 196.5,155.167 196.5,155.833 196.5,156.5C 178.833,156.5 161.167,156.5 143.5,156.5C 143.5,158.5 143.5,160.5 143.5,162.5C 142.186,160.105 142.186,157.605 143.5,155C 161.164,154.5 178.83,154.333 196.5,154.5 Z"/></g>
<g><path style="opacity:1" fill="#cecdce" d="M 229.5,141.5 C 229.916,146.493 230.249,151.493 230.5,156.5C 219.167,156.5 207.833,156.5 196.5,156.5C 196.5,155.833 196.5,155.167 196.5,154.5C 207.419,155.477 218.419,155.81 229.5,155.5C 228.625,150.665 228.625,145.998 229.5,141.5 Z"/></g>
<g><path style="opacity:1" fill="#aea2ad" d="M 321.5,156.5 C 322.974,157.436 323.974,158.77 324.5,160.5C 322.554,159.965 321.554,158.632 321.5,156.5 Z"/></g>
<g><path style="opacity:1" fill="#aea1ad" d="M 414.5,154.5 C 413.735,156.929 412.069,158.262 409.5,158.5C 410.853,156.817 412.52,155.484 414.5,154.5 Z"/></g>
<g><path style="opacity:1" fill="#b9b1b8" d="M 326.5,162.5 C 327.971,164.216 328.971,166.216 329.5,168.5C 327.455,167.077 326.455,165.077 326.5,162.5 Z"/></g>
<g><path style="opacity:1" fill="#b6adb3" d="M 143.5,162.5 C 145.421,168.223 146.421,174.223 146.5,180.5C 144.9,174.725 143.9,168.725 143.5,162.5 Z"/></g>
<g><path style="opacity:1" fill="#ada1ac" d="M 330.5,168.5 C 331.807,170.46 333.14,172.46 334.5,174.5C 331.687,173.554 330.354,171.554 330.5,168.5 Z"/></g>
<g><path style="opacity:1" fill="#ada1ac" d="M 408.5,158.5 C 410.386,167.808 412.052,177.141 413.5,186.5C 412.21,185.942 411.377,184.942 411,183.5C 410.957,176.121 409.79,168.954 407.5,162C 407.514,160.615 407.848,159.449 408.5,158.5 Z"/></g>
<g><path style="opacity:1" fill="#ac9fab" d="M 606.5,178.5 C 607.117,178.611 607.617,178.944 608,179.5C 608.497,181.81 608.663,184.143 608.5,186.5C 607.629,183.997 606.963,181.33 606.5,178.5 Z"/></g>
<g><path style="opacity:1" fill="#ac9eab" d="M 335.5,176.5 C 337.836,177.845 339.503,179.845 340.5,182.5C 337.764,181.427 336.097,179.427 335.5,176.5 Z"/></g>
<g><path style="opacity:1" fill="#aea2ad" d="M 342.5,184.5 C 343.345,185.671 344.011,187.005 344.5,188.5C 342.824,187.817 342.157,186.483 342.5,184.5 Z"/></g>
<g><path style="opacity:1" fill="#b0a4ae" d="M 146.5,180.5 C 150.313,193.143 150.313,205.809 146.5,218.5C 147.056,211.329 147.723,204.163 148.5,197C 147.886,191.486 147.219,185.986 146.5,180.5 Z"/></g>
<g><path style="opacity:1" fill="#b9b1b8" d="M 415.5,188.5 C 418.4,190.399 420.066,193.066 420.5,196.5C 418.434,194.097 416.768,191.43 415.5,188.5 Z"/></g>
<g><path style="opacity:1" fill="#ac9faa" d="M 608.5,196.5 C 609.117,196.611 609.617,196.944 610,197.5C 610.498,200.482 610.665,203.482 610.5,206.5C 610.167,206.5 609.833,206.5 609.5,206.5C 609.658,203.098 609.324,199.764 608.5,196.5 Z"/></g>
<g><path style="opacity:1" fill="#b5acb3" d="M 423.5,198.5 C 425.545,199.923 426.545,201.923 426.5,204.5C 425.029,202.784 424.029,200.784 423.5,198.5 Z"/></g>
<g><path style="opacity:1" fill="#b0a5af" d="M 354.5,198.5 C 355.807,200.46 357.14,202.46 358.5,204.5C 355.687,203.554 354.354,201.554 354.5,198.5 Z"/></g>
<g><path style="opacity:1" fill="#b8b0b7" d="M 429.5,206.5 C 432.4,208.399 434.066,211.066 434.5,214.5C 432.434,212.097 430.768,209.43 429.5,206.5 Z"/></g>
<g><path style="opacity:1" fill="#b0a4af" d="M 360.5,206.5 C 361.807,208.46 363.14,210.46 364.5,212.5C 361.687,211.554 360.354,209.554 360.5,206.5 Z"/></g>
<g><path style="opacity:1" fill="#aea2ad" d="M 366.5,214.5 C 367.971,216.216 368.971,218.216 369.5,220.5C 367.455,219.077 366.455,217.077 366.5,214.5 Z"/></g>
<g><path style="opacity:1" fill="#ada1ac" d="M 432.5,218.5 C 431.086,221.582 428.752,223.582 425.5,224.5C 427.559,222.103 429.892,220.103 432.5,218.5 Z"/></g>
<g><path style="opacity:1" fill="#beb7be" d="M 609.5,206.5 C 609.833,206.5 610.167,206.5 610.5,206.5C 609.789,215.258 608.456,223.925 606.5,232.5C 605.844,231.378 605.511,230.045 605.5,228.5C 607.598,221.186 608.932,213.853 609.5,206.5 Z"/></g>
<g><path style="opacity:1" fill="#b0a4af" d="M 372.5,222.5 C 373.807,224.46 375.14,226.46 376.5,228.5C 373.687,227.554 372.354,225.554 372.5,222.5 Z"/></g>
<g><path style="opacity:1" fill="#ab97a8" d="M 146.5,218.5 C 146.254,224.559 146.587,230.559 147.5,236.5C 145.555,234.693 144.555,232.36 144.5,229.5C 144.932,225.65 145.598,221.983 146.5,218.5 Z"/></g>
<g><path style="opacity:1" fill="#d0d1d0" d="M 606.5,232.5 C 607.205,238.399 607.872,244.399 608.5,250.5C 606.547,244.926 605.88,238.926 606.5,232.5 Z"/></g>
<g><path style="opacity:1" fill="#a999a8" d="M 418.5,230.5 C 417.086,233.582 414.752,235.582 411.5,236.5C 413.514,234.155 415.847,232.155 418.5,230.5 Z"/></g>
<g><path style="opacity:1" fill="#a695a5" d="M 378.5,230.5 C 379.283,232.076 380.45,233.409 382,234.5C 382.49,235.793 382.657,237.127 382.5,238.5C 380.308,236.295 378.974,233.629 378.5,230.5 Z"/></g>
<g><path style="opacity:1" fill="#b2a7af" d="M 147.5,236.5 C 148.674,237.514 149.34,238.847 149.5,240.5C 147.896,239.713 147.229,238.38 147.5,236.5 Z"/></g>
<g><path style="opacity:1" fill="#a999a8" d="M 406.5,240.5 C 405.086,243.582 402.752,245.582 399.5,246.5C 401.514,244.155 403.847,242.155 406.5,240.5 Z"/></g>
<g><path style="opacity:1" fill="#a0849d" d="M 150.5,246.5 C 151.586,246.62 152.253,247.287 152.5,248.5C 152.253,249.713 151.586,250.38 150.5,250.5C 150.5,249.167 150.5,247.833 150.5,246.5 Z"/></g>
<g><path style="opacity:1" fill="#b1a5b0" d="M 384.5,238.5 C 387.792,242.173 391.458,245.507 395.5,248.5C 392.279,247.359 389.279,245.692 386.5,243.5C 384.995,242.158 384.328,240.492 384.5,238.5 Z"/></g>
<g><path style="opacity:1" fill="#b3a7b1" d="M 610.5,252.5 C 613.153,254.155 615.486,256.155 617.5,258.5C 614.248,257.582 611.914,255.582 610.5,252.5 Z"/></g>
<g><path style="opacity:1" fill="#c4c0c3" d="M 623.5,260.5 C 625.413,263.04 625.746,265.707 624.5,268.5C 624.167,265.833 623.833,263.167 623.5,260.5 Z"/></g>
<g><path style="opacity:1" fill="#c5c1c5" d="M 624.5,268.5 C 623.767,273.445 622.434,278.112 620.5,282.5C 620.923,277.46 622.256,272.793 624.5,268.5 Z"/></g>
<g><path style="opacity:1" fill="#afa4ad" d="M 125.5,272.5 C 125.34,274.153 124.674,275.486 123.5,276.5C 123.229,274.62 123.896,273.287 125.5,272.5 Z"/></g>
<g><path style="opacity:1" fill="#ab9eaa" d="M 123.5,276.5 C 123.446,278.632 122.446,279.965 120.5,280.5C 121.026,278.77 122.026,277.436 123.5,276.5 Z"/></g>
<g><path style="opacity:1" fill="#c7c4c7" d="M 620.5,282.5 C 619.14,284.54 617.807,286.54 616.5,288.5C 616.354,285.446 617.687,283.446 620.5,282.5 Z"/></g>
<g><path style="opacity:1" fill="#b0a5ae" d="M 120.5,280.5 C 120.843,282.483 120.176,283.817 118.5,284.5C 118.989,283.005 119.655,281.671 120.5,280.5 Z"/></g>
<g><path style="opacity:1" fill="#b8b0b5" d="M 117.5,286.5 C 117.34,288.153 116.674,289.486 115.5,290.5C 115.229,288.62 115.896,287.287 117.5,286.5 Z"/></g>
<g><path style="opacity:1" fill="#ada1ab" d="M 114.5,290.5 C 114.483,292.565 114.15,294.565 113.5,296.5C 112.516,294.402 112.849,292.402 114.5,290.5 Z"/></g>
<g><path style="opacity:1" fill="#cac8ca" d="M 616.5,288.5 C 615.703,295.421 615.203,302.421 615,309.5C 614.623,310.942 613.79,311.942 612.5,312.5C 613.687,304.256 615.021,296.256 616.5,288.5 Z"/></g>
<g><path style="opacity:1" fill="#b3a8b1" d="M 113.5,296.5 C 114.768,298.905 115.435,301.572 115.5,304.5C 113.96,302.162 113.294,299.495 113.5,296.5 Z"/></g>
<g><path style="opacity:1" fill="#c3bec2" d="M 116.5,310.5 C 118.074,312.102 118.741,314.102 118.5,316.5C 117.5,316.5 116.5,316.5 115.5,316.5C 116.091,315.849 116.757,315.182 117.5,314.5C 116.754,313.264 116.421,311.93 116.5,310.5 Z"/></g>
<g><path style="opacity:1" fill="#a998a8" d="M 612.5,316.5 C 614.773,316.957 616.106,318.29 616.5,320.5C 614.5,319.833 613.167,318.5 612.5,316.5 Z"/></g>
<g><path style="opacity:1" fill="#c5c0c4" d="M 620.5,322.5 C 624.028,324.027 626.028,326.694 626.5,330.5C 625.627,345.153 624.96,359.82 624.5,374.5C 623.837,372.359 623.503,370.025 623.5,367.5C 624.048,355.148 624.715,342.814 625.5,330.5C 624.212,327.556 622.545,324.89 620.5,322.5 Z"/></g>
<g><path style="opacity:1" fill="#9a7f96" d="M 44.5,340.5 C 41.6627,342.402 38.3293,343.069 34.5,342.5C 37.3373,340.598 40.6707,339.931 44.5,340.5 Z"/></g>
<g><path style="opacity:1" fill="#9a8097" d="M 25.5,342.5 C 22.6627,344.402 19.3293,345.069 15.5,344.5C 18.3373,342.598 21.6707,341.931 25.5,342.5 Z"/></g>
<g><path style="opacity:1" fill="#a696a5" d="M -0.5,344.5 C 1.83333,344.5 4.16667,344.5 6.5,344.5C 5.08209,346.308 3.08209,346.975 0.5,346.5C 1.16667,349.167 1.83333,351.833 2.5,354.5C 1.89992,353.1 0.899922,352.1 -0.5,351.5C -0.5,349.167 -0.5,346.833 -0.5,344.5 Z"/></g>
<g><path style="opacity:1" fill="#fefefe" d="M -0.5,351.5 C 0.899922,352.1 1.89992,353.1 2.5,354.5C 4.17649,355.183 4.84316,356.517 4.5,358.5C 1.90185,364.966 1.23518,371.633 2.5,378.5C 2.74716,379.713 3.41383,380.38 4.5,380.5C 4.5,381.833 4.5,383.167 4.5,384.5C 5.46679,387.434 6.80012,390.1 8.5,392.5C 9.30071,394.042 9.63404,395.708 9.5,397.5C 11.4147,397.784 13.0813,397.451 14.5,396.5C 15.7348,396.279 16.7348,395.612 17.5,394.5C 21.146,396.083 24.4793,398.083 27.5,400.5C 28.037,403.036 29.3703,405.036 31.5,406.5C 32.1667,409.833 32.8333,413.167 33.5,416.5C 33.5464,427.046 32.213,437.38 29.5,447.5C 29.361,449.883 30.0277,451.883 31.5,453.5C 31.3505,454.552 31.5172,455.552 32,456.5C 32.7403,458.319 33.9069,459.652 35.5,460.5C 35.3855,463.98 37.0522,465.98 40.5,466.5C 42.7373,467.449 45.0706,468.116 47.5,468.5C 47.2291,470.38 47.8958,471.713 49.5,472.5C 49.2291,474.38 49.8958,475.713 51.5,476.5C 52.3382,476.842 52.6716,477.508 52.5,478.5C 53.4746,480.795 54.8079,482.795 56.5,484.5C 56.8333,484.5 57.1667,484.5 57.5,484.5C 57.2291,486.38 57.8958,487.713 59.5,488.5C 59.2291,490.38 59.8958,491.713 61.5,492.5C 62.235,496.805 63.5683,500.805 65.5,504.5C 65.3338,510.842 65.5005,517.175 66,523.5C 66.7285,526.187 67.8951,528.52 69.5,530.5C 70.1882,535.278 72.1882,539.278 75.5,542.5C 76.4345,543.568 76.7678,544.901 76.5,546.5C 77.3253,549.484 78.6586,552.151 80.5,554.5C 80.8333,554.5 81.1667,554.5 81.5,554.5C 82.0292,556.784 83.0292,558.784 84.5,560.5C 84.8333,560.5 85.1667,560.5 85.5,560.5C 88.8511,565.18 92.1844,569.846 95.5,574.5C 96.8333,576.5 96.8333,578.5 95.5,580.5C 94.6463,585.658 94.6463,590.992 95.5,596.5C 95.5871,600.665 94.9204,604.665 93.5,608.5C 92.9685,612.307 92.9685,616.307 93.5,620.5C 92.5095,623.743 91.5095,627.076 90.5,630.5C 90.354,633.554 91.6874,635.554 94.5,636.5C 99.9753,637.489 105.642,637.822 111.5,637.5C 111.19,640.713 111.523,643.713 112.5,646.5C 112.384,649.91 114.05,651.244 117.5,650.5C 119.167,650.5 120.833,650.5 122.5,650.5C 123.183,652.176 124.517,652.843 126.5,652.5C 127.833,652.5 129.167,652.5 130.5,652.5C 133.258,653.818 136.424,654.485 140,654.5C 143.167,654.333 146.333,654.167 149.5,654C 150.056,653.617 150.389,653.117 150.5,652.5C 152.5,652.5 154.5,652.5 156.5,652.5C 158.117,651.962 159.784,651.629 161.5,651.5C 161.5,650.5 161.5,649.5 161.5,648.5C 162.833,648.5 164.167,648.5 165.5,648.5C 167.027,648.573 168.027,647.906 168.5,646.5C 169.5,646.5 170.5,646.5 171.5,646.5C 174.85,646.665 178.183,646.498 181.5,646C 182.056,645.617 182.389,645.117 182.5,644.5C 183.833,643.833 185.167,643.167 186.5,642.5C 188.677,637.49 190.01,632.156 190.5,626.5C 192.483,626.843 193.817,626.176 194.5,624.5C 196.5,624.5 198.5,624.5 200.5,624.5C 203.01,624.946 205.01,624.28 206.5,622.5C 207.833,622.5 209.167,622.5 210.5,622.5C 213.01,622.946 215.01,622.28 216.5,620.5C 217.833,620.5 219.167,620.5 220.5,620.5C 222.591,620.682 224.591,620.348 226.5,619.5C 227.569,620.91 228.903,621.91 230.5,622.5C 232.461,623.46 234.127,624.793 235.5,626.5C 238.177,629.509 241.177,632.176 244.5,634.5C 246.134,635.207 247.468,636.373 248.5,638C 255.463,640.815 262.13,644.148 268.5,648C 277.243,651.596 286.243,654.429 295.5,656.5C 296.183,658.176 297.517,658.843 299.5,658.5C 300.833,658.5 302.167,658.5 303.5,658.5C 304.552,660.256 306.219,660.923 308.5,660.5C 309.833,660.5 311.167,660.5 312.5,660.5C 313.183,662.176 314.517,662.843 316.5,662.5C 318.167,662.5 319.833,662.5 321.5,662.5C 322.183,664.176 323.517,664.843 325.5,664.5C 327.288,664.215 328.955,664.548 330.5,665.5C 332.328,668.013 334.661,669.679 337.5,670.5C 337.36,672.124 338.027,673.29 339.5,674C 342.817,674.498 346.15,674.665 349.5,674.5C 355.167,674.5 360.833,674.5 366.5,674.5C 370.971,675.089 374.971,674.423 378.5,672.5C 382.5,672.5 386.5,672.5 390.5,672.5C 394.5,672.5 398.5,672.5 402.5,672.5C 409.933,671.864 417.266,671.198 424.5,670.5C 425.833,670.5 427.167,670.5 428.5,670.5C 430.5,670.5 432.5,670.5 434.5,670.5C 434.894,672.71 436.227,674.043 438.5,674.5C 441.601,675.449 443.601,677.449 444.5,680.5C 444.989,681.995 445.655,683.329 446.5,684.5C 448.61,685.95 449.943,687.95 450.5,690.5C 452.512,693.205 454.512,695.872 456.5,698.5C 457.82,700.817 459.486,702.817 461.5,704.5C 462.338,704.842 462.672,705.508 462.5,706.5C 464.512,709.205 466.512,711.872 468.5,714.5C 468.833,714.5 469.167,714.5 469.5,714.5C 470.029,716.784 471.029,718.784 472.5,720.5C 473.244,722.453 474.744,723.453 477,723.5C 478.385,723.486 479.551,723.152 480.5,722.5C 480.5,721.167 481.167,720.5 482.5,720.5C 485.279,719.391 486.946,717.391 487.5,714.5C 490.683,712.505 494.016,710.672 497.5,709C 500.721,708.722 503.721,707.889 506.5,706.5C 508.117,705.962 509.784,705.629 511.5,705.5C 511.5,704.5 511.5,703.5 511.5,702.5C 524.733,700.322 538.067,699.989 551.5,701.5C 560.226,705.99 569.226,709.657 578.5,712.5C 580.635,714.369 583.302,715.036 586.5,714.5C 589.167,714.5 591.833,714.5 594.5,714.5C 596.635,716.369 599.302,717.036 602.5,716.5C 605.5,716.5 608.5,716.5 611.5,716.5C 613.635,718.369 616.302,719.036 619.5,718.5C 622.167,718.5 624.833,718.5 627.5,718.5C 629.988,720.388 632.988,721.055 636.5,720.5C 638.833,720.5 641.167,720.5 643.5,720.5C 645.988,722.388 648.988,723.055 652.5,722.5C 655.167,722.5 657.833,722.5 660.5,722.5C 662.635,724.369 665.302,725.036 668.5,724.5C 671.167,724.5 673.833,724.5 676.5,724.5C 676.5,725.167 676.5,725.833 676.5,726.5C 450.833,726.5 225.167,726.5 -0.5,726.5C -0.5,601.5 -0.5,476.5 -0.5,351.5 Z"/></g>
<g><path style="opacity:1" fill="#aa95a8" d="M 4.5,358.5 C 5.04309,358.56 5.37642,358.893 5.5,359.5C 4.90486,363.932 3.90486,368.265 2.5,372.5C 3.9917,374.972 4.65836,377.639 4.5,380.5C 3.41383,380.38 2.74716,379.713 2.5,378.5C 1.23518,371.633 1.90185,364.966 4.5,358.5 Z"/></g>
<g><path style="opacity:1" fill="#aea0ac" d="M 4.5,384.5 C 7.37496,386.249 8.7083,388.915 8.5,392.5C 6.80012,390.1 5.46679,387.434 4.5,384.5 Z"/></g>
<g><path style="opacity:1" fill="#c8c4c8" d="M 628.5,386.5 C 631.351,391.541 633.684,396.875 635.5,402.5C 632.091,397.677 629.757,392.344 628.5,386.5 Z"/></g>
<g><path style="opacity:1" fill="#c7c4c7" d="M 8.5,392.5 C 10.1765,393.183 10.8432,394.517 10.5,396.5C 11.8333,396.5 13.1667,396.5 14.5,396.5C 13.0813,397.451 11.4147,397.784 9.5,397.5C 9.63404,395.708 9.30071,394.042 8.5,392.5 Z"/></g>
<g><path style="opacity:1" fill="#b3a9b2" d="M 27.5,400.5 C 29.6099,401.95 30.9432,403.95 31.5,406.5C 29.3703,405.036 28.037,403.036 27.5,400.5 Z"/></g>
<g><path style="opacity:1" fill="#c9c5c8" d="M 638.5,402.5 C 640.54,403.86 642.54,405.193 644.5,406.5C 641.446,406.646 639.446,405.313 638.5,402.5 Z"/></g>
<g><path style="opacity:1" fill="#b3a7b2" d="M 647.5,410.5 C 650.892,413.555 653.892,416.888 656.5,420.5C 652.447,418.113 649.447,414.78 647.5,410.5 Z"/></g>
<g><path style="opacity:1" fill="#bbb4bb" d="M 660.5,422.5 C 662.54,423.86 664.54,425.193 666.5,426.5C 663.446,426.646 661.446,425.313 660.5,422.5 Z"/></g>
<g><path style="opacity:1" fill="#b3a9b3" d="M 33.5,416.5 C 34.162,418.304 34.4954,420.304 34.5,422.5C 34.0661,427.839 33.5661,433.173 33,438.5C 30.5279,443.324 30.0279,448.324 31.5,453.5C 30.0277,451.883 29.361,449.883 29.5,447.5C 32.213,437.38 33.5464,427.046 33.5,416.5 Z"/></g>
<g><path style="opacity:1" fill="#a998a8" d="M 684.5,434.5 C 686.773,434.957 688.106,436.29 688.5,438.5C 686.5,437.833 685.167,436.5 684.5,434.5 Z"/></g>
<g><path style="opacity:1" fill="#b9b1b8" d="M 700.5,448.5 C 702.5,449.167 703.833,450.5 704.5,452.5C 702.5,451.833 701.167,450.5 700.5,448.5 Z"/></g>
<g><path style="opacity:1" fill="#a793a6" d="M 31.5,453.5 C 33.588,455.336 34.9213,457.669 35.5,460.5C 33.9069,459.652 32.7403,458.319 32,456.5C 31.5172,455.552 31.3505,454.552 31.5,453.5 Z"/></g>
<g><path style="opacity:1" fill="#b8aeb6" d="M 35.5,460.5 C 36.8998,462.757 38.5664,464.757 40.5,466.5C 37.0522,465.98 35.3855,463.98 35.5,460.5 Z"/></g>
<g><path style="opacity:1" fill="#ada0ac" d="M 47.5,468.5 C 48.6737,469.514 49.3404,470.847 49.5,472.5C 47.8958,471.713 47.2291,470.38 47.5,468.5 Z"/></g>
<g><path style="opacity:1" fill="#b4a9b3" d="M 49.5,472.5 C 50.6737,473.514 51.3404,474.847 51.5,476.5C 49.8958,475.713 49.2291,474.38 49.5,472.5 Z"/></g>
<g><path style="opacity:1" fill="#b7aeb6" d="M 52.5,478.5 C 55.3126,479.446 56.646,481.446 56.5,484.5C 54.8079,482.795 53.4746,480.795 52.5,478.5 Z"/></g>
<g><path style="opacity:1" fill="#b4a9b4" d="M 57.5,484.5 C 58.6737,485.514 59.3404,486.847 59.5,488.5C 57.8958,487.713 57.2291,486.38 57.5,484.5 Z"/></g>
<g><path style="opacity:1" fill="#b4a9b3" d="M 59.5,488.5 C 60.6737,489.514 61.3404,490.847 61.5,492.5C 59.8958,491.713 59.2291,490.38 59.5,488.5 Z"/></g>
<g><path style="opacity:1" fill="#aa98a9" d="M 61.5,492.5 C 64.3039,495.876 65.6373,499.876 65.5,504.5C 63.5683,500.805 62.235,496.805 61.5,492.5 Z"/></g>
<g><path style="opacity:1" fill="#fefdfe" d="M 711.5,503.5 C 711.5,577.833 711.5,652.167 711.5,726.5C 701.5,726.5 691.5,726.5 681.5,726.5C 682.686,725.039 682.686,723.705 681.5,722.5C 680.539,720.735 680.205,718.735 680.5,716.5C 678.949,714.087 678.283,711.421 678.5,708.5C 680.029,707.653 681.696,706.986 683.5,706.5C 686.703,707.892 690.036,708.559 693.5,708.5C 693.965,703.676 694.132,698.676 694,693.5C 694.984,690.2 696.484,687.2 698.5,684.5C 698.5,683.833 698.5,683.167 698.5,682.5C 700.104,681.713 700.771,680.38 700.5,678.5C 700.5,677.833 700.5,677.167 700.5,676.5C 701.79,675.942 702.623,674.942 703,673.5C 703.904,667.865 704.404,662.198 704.5,656.5C 705.518,653.623 705.351,650.623 704,647.5C 703.617,646.944 703.117,646.611 702.5,646.5C 702.692,641.712 700.359,638.712 695.5,637.5C 688.248,635.933 681.248,636.266 674.5,638.5C 671.833,638.5 669.167,638.5 666.5,638.5C 665.167,638.5 663.833,638.5 662.5,638.5C 662.5,637.167 662.5,635.833 662.5,634.5C 661.378,632.712 661.211,630.712 662,628.5C 662.122,626.563 662.955,625.23 664.5,624.5C 665.911,620.723 664.577,618.056 660.5,616.5C 655.597,613.93 652.597,609.93 651.5,604.5C 651.833,601.167 652.167,597.833 652.5,594.5C 650.557,583.049 654.891,575.049 665.5,570.5C 666.496,570.586 667.329,570.252 668,569.5C 667.636,566.428 667.802,563.428 668.5,560.5C 668.157,558.517 668.824,557.183 670.5,556.5C 673.082,556.975 675.082,556.308 676.5,554.5C 677.167,554.5 677.833,554.5 678.5,554.5C 680.46,551.863 682.46,549.197 684.5,546.5C 684.328,545.508 684.662,544.842 685.5,544.5C 687.403,540.92 689.736,537.586 692.5,534.5C 693.122,532.878 694.122,531.545 695.5,530.5C 697.514,528.817 699.18,526.817 700.5,524.5C 702.316,522.882 703.649,520.882 704.5,518.5C 704.157,516.517 704.824,515.183 706.5,514.5C 709.507,511.402 711.174,507.736 711.5,503.5 Z"/></g>
<g><path style="opacity:1" fill="#c0bac0" d="M 710.5,496.5 C 710.833,496.5 711.167,496.5 711.5,496.5C 711.5,498.833 711.5,501.167 711.5,503.5C 711.174,507.736 709.507,511.402 706.5,514.5C 709.115,508.824 710.448,502.824 710.5,496.5 Z"/></g>
<g><path style="opacity:1" fill="#b9b1b8" d="M 65.5,504.5 C 65.8087,513.232 67.142,521.899 69.5,530.5C 67.8951,528.52 66.7285,526.187 66,523.5C 65.5005,517.175 65.3338,510.842 65.5,504.5 Z"/></g>
<g><path style="opacity:1" fill="#c7c3c7" d="M 704.5,518.5 C 703.649,520.882 702.316,522.882 700.5,524.5C 700.87,521.733 702.204,519.733 704.5,518.5 Z"/></g>
<g><path style="opacity:1" fill="#b4aab4" d="M 700.5,524.5 C 699.18,526.817 697.514,528.817 695.5,530.5C 696.097,527.573 697.764,525.573 700.5,524.5 Z"/></g>
<g><path style="opacity:1" fill="#ac9cab" d="M 69.5,530.5 C 72.0078,534.182 74.0078,538.182 75.5,542.5C 72.1882,539.278 70.1882,535.278 69.5,530.5 Z"/></g>
<g><path style="opacity:1" fill="#bcb4bc" d="M 692.5,534.5 C 689.736,537.586 687.403,540.92 685.5,544.5C 685.867,539.799 688.2,536.465 692.5,534.5 Z"/></g>
<g><path style="opacity:1" fill="#b7afb7" d="M 76.5,546.5 C 78.8475,548.527 80.1808,551.194 80.5,554.5C 78.6586,552.151 77.3253,549.484 76.5,546.5 Z"/></g>
<g><path style="opacity:1" fill="#c1bbc0" d="M 684.5,546.5 C 682.46,549.197 680.46,551.863 678.5,554.5C 678.975,550.691 680.975,548.025 684.5,546.5 Z"/></g>
<g><path style="opacity:1" fill="#9c859a" d="M 676.5,554.5 C 675.082,556.308 673.082,556.975 670.5,556.5C 671.918,554.692 673.918,554.025 676.5,554.5 Z"/></g>
<g><path style="opacity:1" fill="#bab3ba" d="M 81.5,554.5 C 83.5449,555.923 84.5449,557.923 84.5,560.5C 83.0292,558.784 82.0292,556.784 81.5,554.5 Z"/></g>
<g><path style="opacity:1" fill="#b7aeb6" d="M 85.5,560.5 C 88.452,563.452 91.452,566.452 94.5,569.5C 95.3094,571.071 95.6427,572.738 95.5,574.5C 92.1844,569.846 88.8511,565.18 85.5,560.5 Z"/></g>
<g><path style="opacity:1" fill="#b3a6b2" d="M 668.5,560.5 C 667.802,563.428 667.636,566.428 668,569.5C 667.329,570.252 666.496,570.586 665.5,570.5C 665.69,566.705 666.69,563.372 668.5,560.5 Z"/></g>
<g><path style="opacity:1" fill="#b6aeb6" d="M 95.5,580.5 C 96.3327,588.488 96.4993,596.488 96,604.5C 95.3918,606.066 94.5585,607.4 93.5,608.5C 94.9204,604.665 95.5871,600.665 95.5,596.5C 94.6463,590.992 94.6463,585.658 95.5,580.5 Z"/></g>
<g><path style="opacity:1" fill="#c3bec3" d="M 652.5,594.5 C 652.167,597.833 651.833,601.167 651.5,604.5C 650.29,601.07 650.624,597.737 652.5,594.5 Z"/></g>
<g><path style="opacity:1" fill="#b9b0b8" d="M 93.5,608.5 C 94.5392,612.658 94.5392,616.658 93.5,620.5C 92.9685,616.307 92.9685,612.307 93.5,608.5 Z"/></g>
<g><path style="opacity:1" fill="#bbb3ba" d="M 660.5,616.5 C 664.577,618.056 665.911,620.723 664.5,624.5C 664.034,621.376 662.701,618.71 660.5,616.5 Z"/></g>
<g><path style="opacity:1" fill="#a593a2" d="M 230.5,622.5 C 228.903,621.91 227.569,620.91 226.5,619.5C 224.591,620.348 222.591,620.682 220.5,620.5C 221.334,619.252 222.667,618.585 224.5,618.5C 227.575,618.407 229.575,619.74 230.5,622.5 Z"/></g>
<g><path style="opacity:1" fill="#a18ca0" d="M 216.5,620.5 C 215.01,622.28 213.01,622.946 210.5,622.5C 211.918,620.692 213.918,620.025 216.5,620.5 Z"/></g>
<g><path style="opacity:1" fill="#9f899d" d="M 206.5,622.5 C 205.01,624.28 203.01,624.946 200.5,624.5C 201.918,622.692 203.918,622.025 206.5,622.5 Z"/></g>
<g><path style="opacity:1" fill="#9c8599" d="M 194.5,624.5 C 193.817,626.176 192.483,626.843 190.5,626.5C 191.183,624.824 192.517,624.157 194.5,624.5 Z"/></g>
<g><path style="opacity:1" fill="#b4aab3" d="M 664.5,624.5 C 663.207,627.679 662.54,631.012 662.5,634.5C 662.54,631.012 663.207,627.679 664.5,624.5 Z"/></g>
<g><path style="opacity:1" fill="#aea2ad" d="M 93.5,620.5 C 93.6025,623.219 93.2692,625.885 92.5,628.5C 92.2528,629.713 91.5862,630.38 90.5,630.5C 91.5095,627.076 92.5095,623.743 93.5,620.5 Z"/></g>
<g><path style="opacity:1" fill="#afa1ae" d="M 235.5,626.5 C 239.428,628.093 242.428,630.76 244.5,634.5C 241.177,632.176 238.177,629.509 235.5,626.5 Z"/></g>
<g><path style="opacity:1" fill="#bdb6bd" d="M 190.5,626.5 C 190.01,632.156 188.677,637.49 186.5,642.5C 187.205,636.875 188.538,631.542 190.5,626.5 Z"/></g>
<g><path style="opacity:1" fill="#cac8ca" d="M 94.5,636.5 C 100.5,636.5 106.5,636.5 112.5,636.5C 112.5,639.833 112.5,643.167 112.5,646.5C 111.523,643.713 111.19,640.713 111.5,637.5C 105.642,637.822 99.9753,637.489 94.5,636.5 Z"/></g>
<g><path style="opacity:1" fill="#9a7e98" d="M 666.5,638.5 C 669.167,638.5 671.833,638.5 674.5,638.5C 673.666,639.748 672.333,640.415 670.5,640.5C 668.667,640.415 667.334,639.748 666.5,638.5 Z"/></g>
<g><path style="opacity:1" fill="#a08a9e" d="M 182.5,644.5 C 182.389,645.117 182.056,645.617 181.5,646C 178.183,646.498 174.85,646.665 171.5,646.5C 174.684,644.586 178.351,643.92 182.5,644.5 Z"/></g>
<g><path style="opacity:1" fill="#afa4af" d="M 168.5,646.5 C 168.027,647.906 167.027,648.573 165.5,648.5C 165.973,647.094 166.973,646.427 168.5,646.5 Z"/></g>
<g><path style="opacity:1" fill="#9f859c" d="M 112.5,646.5 C 114.419,647.612 116.086,648.946 117.5,650.5C 114.05,651.244 112.384,649.91 112.5,646.5 Z"/></g>
<g><path style="opacity:1" fill="#9c8599" d="M 122.5,650.5 C 124.483,650.157 125.817,650.824 126.5,652.5C 124.517,652.843 123.183,652.176 122.5,650.5 Z"/></g>
<g><path style="opacity:1" fill="#ae9fad" d="M 161.5,648.5 C 161.5,649.5 161.5,650.5 161.5,651.5C 159.784,651.629 158.117,651.962 156.5,652.5C 157.914,650.946 159.581,649.612 161.5,648.5 Z"/></g>
<g><path style="opacity:1" fill="#c2bdc2" d="M 702.5,646.5 C 703.117,646.611 703.617,646.944 704,647.5C 705.351,650.623 705.518,653.623 704.5,656.5C 704.149,653.097 703.482,649.763 702.5,646.5 Z"/></g>
<g><path style="opacity:1" fill="#9f889c" d="M 130.5,652.5 C 137.167,652.5 143.833,652.5 150.5,652.5C 150.389,653.117 150.056,653.617 149.5,654C 146.333,654.167 143.167,654.333 140,654.5C 136.424,654.485 133.258,653.818 130.5,652.5 Z"/></g>
<g><path style="opacity:1" fill="#9c8199" d="M 295.5,656.5 C 297.483,656.157 298.817,656.824 299.5,658.5C 297.517,658.843 296.183,658.176 295.5,656.5 Z"/></g>
<g><path style="opacity:1" fill="#a08a9d" d="M 303.5,658.5 C 305.781,658.077 307.448,658.744 308.5,660.5C 306.219,660.923 304.552,660.256 303.5,658.5 Z"/></g>
<g><path style="opacity:1" fill="#9d869a" d="M 312.5,660.5 C 314.483,660.157 315.817,660.824 316.5,662.5C 314.517,662.843 313.183,662.176 312.5,660.5 Z"/></g>
<g><path style="opacity:1" fill="#9c8199" d="M 321.5,662.5 C 323.483,662.157 324.817,662.824 325.5,664.5C 323.517,664.843 322.183,664.176 321.5,662.5 Z"/></g>
<g><path style="opacity:1" fill="#c0bac0" d="M 704.5,656.5 C 704.404,662.198 703.904,667.865 703,673.5C 702.623,674.942 701.79,675.942 700.5,676.5C 702.163,669.806 703.497,663.139 704.5,656.5 Z"/></g>
<g><path style="opacity:1" fill="#9d869a" d="M 428.5,670.5 C 427.167,670.5 425.833,670.5 424.5,670.5C 424.62,669.414 425.287,668.747 426.5,668.5C 427.713,668.747 428.38,669.414 428.5,670.5 Z"/></g>
<g><path style="opacity:1" fill="#d1d1d1" d="M 402.5,670.5 C 409.833,670.5 417.167,670.5 424.5,670.5C 417.266,671.198 409.933,671.864 402.5,672.5C 402.5,671.833 402.5,671.167 402.5,670.5 Z"/></g>
<g><path style="opacity:1" fill="#9c8499" d="M 402.5,670.5 C 402.5,671.167 402.5,671.833 402.5,672.5C 398.5,672.5 394.5,672.5 390.5,672.5C 394.029,670.577 398.029,669.911 402.5,670.5 Z"/></g>
<g><path style="opacity:1" fill="#a591a2" d="M 337.5,670.5 C 341.655,671.724 345.655,673.057 349.5,674.5C 346.15,674.665 342.817,674.498 339.5,674C 338.027,673.29 337.36,672.124 337.5,670.5 Z"/></g>
<g><path style="opacity:1" fill="#9d869a" d="M 378.5,672.5 C 374.971,674.423 370.971,675.089 366.5,674.5C 370.029,672.577 374.029,671.911 378.5,672.5 Z"/></g>
<g><path style="opacity:1" fill="#aa9aa9" d="M 434.5,670.5 C 436.5,671.167 437.833,672.5 438.5,674.5C 436.227,674.043 434.894,672.71 434.5,670.5 Z"/></g>
<g><path style="opacity:1" fill="#ab9da9" d="M 700.5,678.5 C 700.771,680.38 700.104,681.713 698.5,682.5C 698.66,680.847 699.326,679.514 700.5,678.5 Z"/></g>
<g><path style="opacity:1" fill="#bab1b7" d="M 444.5,680.5 C 446.176,681.183 446.843,682.517 446.5,684.5C 445.655,683.329 444.989,681.995 444.5,680.5 Z"/></g>
<g><path style="opacity:1" fill="#c0b9bf" d="M 698.5,684.5 C 696.484,687.2 694.984,690.2 694,693.5C 694.132,698.676 693.965,703.676 693.5,708.5C 691.529,700.882 692.195,693.549 695.5,686.5C 696.265,685.388 697.265,684.721 698.5,684.5 Z"/></g>
<g><path style="opacity:1" fill="#bcb5bb" d="M 450.5,690.5 C 453.934,692.013 455.934,694.68 456.5,698.5C 454.512,695.872 452.512,693.205 450.5,690.5 Z"/></g>
<g><path style="opacity:1" fill="#b8afb7" d="M 456.5,698.5 C 459.236,699.573 460.903,701.573 461.5,704.5C 459.486,702.817 457.82,700.817 456.5,698.5 Z"/></g>
<g><path style="opacity:1" fill="#af9fad" d="M 511.5,702.5 C 511.5,703.5 511.5,704.5 511.5,705.5C 509.784,705.629 508.117,705.962 506.5,706.5C 507.914,704.946 509.581,703.612 511.5,702.5 Z"/></g>
<g><path style="opacity:1" fill="#bcb4ba" d="M 462.5,706.5 C 465.934,708.013 467.934,710.68 468.5,714.5C 466.512,711.872 464.512,709.205 462.5,706.5 Z"/></g>
<g><path style="opacity:1" fill="#9d869a" d="M 578.5,712.5 C 581.698,711.964 584.365,712.631 586.5,714.5C 583.302,715.036 580.635,714.369 578.5,712.5 Z"/></g>
<g><path style="opacity:1" fill="#c3bec3" d="M 678.5,708.5 C 678.283,711.421 678.949,714.087 680.5,716.5C 679.25,716.423 678.417,715.756 678,714.5C 677.211,712.288 677.378,710.288 678.5,708.5 Z"/></g>
<g><path style="opacity:1" fill="#9d869a" d="M 594.5,714.5 C 597.698,713.964 600.365,714.631 602.5,716.5C 599.302,717.036 596.635,716.369 594.5,714.5 Z"/></g>
<g><path style="opacity:1" fill="#9d859a" d="M 611.5,716.5 C 614.698,715.964 617.365,716.631 619.5,718.5C 616.302,719.036 613.635,718.369 611.5,716.5 Z"/></g>
<g><path style="opacity:1" fill="#c6c3c5" d="M 487.5,714.5 C 486.946,717.391 485.279,719.391 482.5,720.5C 483.797,718.202 485.463,716.202 487.5,714.5 Z"/></g>
<g><path style="opacity:1" fill="#bbb4b9" d="M 469.5,714.5 C 471.545,715.923 472.545,717.923 472.5,720.5C 471.029,718.784 470.029,716.784 469.5,714.5 Z"/></g>
<g><path style="opacity:1" fill="#9c7f98" d="M 627.5,718.5 C 631.012,717.945 634.012,718.612 636.5,720.5C 632.988,721.055 629.988,720.388 627.5,718.5 Z"/></g>
<g><path style="opacity:1" fill="#9d869a" d="M 643.5,720.5 C 647.012,719.945 650.012,720.612 652.5,722.5C 648.988,723.055 645.988,722.388 643.5,720.5 Z"/></g>
<g><path style="opacity:1" fill="#bcb6bb" d="M 472.5,720.5 C 474.916,721.968 477.583,722.635 480.5,722.5C 479.551,723.152 478.385,723.486 477,723.5C 474.744,723.453 473.244,722.453 472.5,720.5 Z"/></g>
<g><path style="opacity:1" fill="#9d869a" d="M 660.5,722.5 C 663.698,721.964 666.365,722.631 668.5,724.5C 665.302,725.036 662.635,724.369 660.5,722.5 Z"/></g>
<g><path style="opacity:1" fill="#a28ea0" d="M 681.5,722.5 C 682.686,723.705 682.686,725.039 681.5,726.5C 679.833,726.5 678.167,726.5 676.5,726.5C 676.5,725.833 676.5,725.167 676.5,724.5C 678.781,724.923 680.448,724.256 681.5,722.5 Z"/></g>
</svg>
