<?xml version="1.0" encoding="UTF-8"?>
<!DOCTYPE svg PUBLIC "-//W3C//DTD SVG 1.1//EN" "http://www.w3.org/Graphics/SVG/1.1/DTD/svg11.dtd">
<svg xmlns="http://www.w3.org/2000/svg" version="1.1" width="598px" height="526px" style="shape-rendering:geometricPrecision; text-rendering:geometricPrecision; image-rendering:optimizeQuality; fill-rule:evenodd; clip-rule:evenodd" xmlns:xlink="http://www.w3.org/1999/xlink">
<g><path style="opacity:1" fill="#fefefe" d="M -0.5,-0.5 C 50.8333,-0.5 102.167,-0.5 153.5,-0.5C 149.972,0.997122 146.638,2.99712 143.5,5.5C 142.833,5.5 142.167,5.5 141.5,5.5C 139.926,5.93709 138.759,6.93709 138,8.5C 128.78,23.1124 118.946,37.279 108.5,51C 95.2895,56.4448 82.2895,61.9448 69.5,67.5C 66.8333,68.1667 64.1667,68.8333 61.5,69.5C 59.6096,69.2965 58.1096,69.9632 57,71.5C 55.8068,73.8864 54.6401,76.2198 53.5,78.5C 52.9002,79.8999 51.9002,80.8999 50.5,81.5C 46.4454,81.1758 42.4454,81.5091 38.5,82.5C 33.5682,89.3756 28.9016,96.3756 24.5,103.5C 20.0311,108.417 16.0311,113.751 12.5,119.5C 7.85385,122.814 3.52052,126.481 -0.5,130.5C -0.5,86.8333 -0.5,43.1667 -0.5,-0.5 Z"/></g>
<g><path style="opacity:1" fill="#fefefe" d="M 156.5,-0.5 C 303.5,-0.5 450.5,-0.5 597.5,-0.5C 597.5,118.167 597.5,236.833 597.5,355.5C 593.032,354.121 588.532,352.788 584,351.5C 576.628,353.32 569.128,353.987 561.5,353.5C 553.326,353.41 545.326,354.077 537.5,355.5C 533.154,355.334 528.821,355.501 524.5,356C 523.944,356.383 523.611,356.883 523.5,357.5C 514.463,357.245 505.463,356.578 496.5,355.5C 494.172,352.801 491.506,350.301 488.5,348C 475.591,344.632 462.591,341.632 449.5,339C 434.965,333.323 420.798,326.823 407,319.5C 403.702,316.449 400.202,313.783 396.5,311.5C 393.401,308.239 390.068,305.072 386.5,302C 385.167,301.833 383.833,301.667 382.5,301.5C 374.506,303.036 366.506,304.536 358.5,306C 356.825,306.985 355.158,307.819 353.5,308.5C 352.041,308.433 350.708,308.766 349.5,309.5C 348.215,312.589 347.549,315.922 347.5,319.5C 346.18,321.463 344.846,323.463 343.5,325.5C 336.323,327.247 328.989,328.747 321.5,330C 319.079,332.094 316.412,333.76 313.5,335C 304.167,335.667 294.833,335.667 285.5,335C 280.304,333.457 274.971,332.29 269.5,331.5C 269.461,327.267 268.795,323.267 267.5,319.5C 262.833,319.5 258.167,319.5 253.5,319.5C 252.051,317.836 250.051,317.002 247.5,317C 246.177,316.184 245.511,315.017 245.5,313.5C 248.626,309.444 249.959,304.777 249.5,299.5C 250.556,296.669 250.556,293.669 249.5,290.5C 251.719,286.156 252.719,281.489 252.5,276.5C 251.495,270.144 251.495,263.81 252.5,257.5C 251.936,255.181 251.436,252.847 251,250.5C 246.553,246.224 242.387,241.891 238.5,237.5C 234.69,228.547 230.357,219.88 225.5,211.5C 223.199,202.87 221.865,194.203 221.5,185.5C 221.167,185.5 220.833,185.5 220.5,185.5C 219.626,182.211 218.959,178.877 218.5,175.5C 217.121,169.958 214.455,165.292 210.5,161.5C 208.769,158.148 206.936,154.815 205,151.5C 200.596,149.102 196.43,146.435 192.5,143.5C 189.945,138.387 187.945,133.053 186.5,127.5C 189.556,117.541 190.556,107.541 189.5,97.5C 190.526,89.2433 187.526,83.2433 180.5,79.5C 179.054,78.0598 177.221,77.3932 175,77.5C 173.028,78.0892 171.195,78.5892 169.5,79C 166.013,73.1854 162.68,67.3521 159.5,61.5C 158.024,53.8398 158.691,46.3398 161.5,39C 159.787,35.075 157.954,31.2417 156,27.5C 156.016,23.975 155.849,20.6417 155.5,17.5C 149.608,11.5818 150.941,7.91518 159.5,6.5C 161.005,5.15848 161.672,3.49181 161.5,1.5C 159.302,1.87988 157.635,1.21321 156.5,-0.5 Z"/></g>
<g><path style="opacity:1" fill="#c2f6a7" d="M 155.5,17.5 C 153.347,25.5449 155.014,32.7115 160.5,39C 157.197,46.5069 156.864,54.0069 159.5,61.5C 161.554,68.1088 164.554,74.2754 168.5,80C 170.776,80.2967 172.943,79.7967 175,78.5C 176.825,78.9434 178.658,79.2767 180.5,79.5C 186.026,84.2809 189.026,90.2809 189.5,97.5C 189.423,107.692 188.09,117.692 185.5,127.5C 186.23,133.618 188.563,138.952 192.5,143.5C 192.281,144.675 192.614,145.675 193.5,146.5C 196.339,148.42 199.339,150.087 202.5,151.5C 204.993,155.028 207.66,158.361 210.5,161.5C 212.994,166.372 215.66,171.039 218.5,175.5C 218.959,178.877 219.626,182.211 220.5,185.5C 219.877,192.255 220.544,198.588 222.5,204.5C 222.935,207.157 223.935,209.491 225.5,211.5C 228.039,218.25 230.872,224.917 234,231.5C 235.277,233.747 236.777,235.747 238.5,237.5C 241.365,242.874 245.198,247.541 250,251.5C 250.378,259.841 250.878,268.174 251.5,276.5C 251.302,281.406 250.302,286.073 248.5,290.5C 248.966,293.492 249.299,296.492 249.5,299.5C 248.406,304.13 247.072,308.797 245.5,313.5C 244.201,315.153 244.534,316.653 246.5,318C 248.708,318.191 250.708,318.691 252.5,319.5C 256.97,320.486 261.637,320.819 266.5,320.5C 266.205,322.735 266.539,324.735 267.5,326.5C 268.461,328.265 268.795,330.265 268.5,332.5C 273.971,333.29 279.304,334.457 284.5,336C 294.5,336.667 304.5,336.667 314.5,336C 323.07,331.019 332.404,328.185 342.5,327.5C 342.863,326.817 343.196,326.15 343.5,325.5C 346.292,324.608 347.625,322.608 347.5,319.5C 349.011,316.456 349.678,313.122 349.5,309.5C 350.708,308.766 352.041,308.433 353.5,308.5C 363.379,307.223 373.046,305.223 382.5,302.5C 383.5,302.667 384.5,302.833 385.5,303C 388.764,306.439 392.43,309.273 396.5,311.5C 398.812,314.479 401.479,317.146 404.5,319.5C 418.585,327.614 433.252,334.447 448.5,340C 461.591,342.632 474.591,345.632 487.5,349C 490.105,351.781 493.105,353.948 496.5,355.5C 502.614,356.984 508.947,357.984 515.5,358.5C 518.686,358.498 521.686,358.165 524.5,357.5C 528.735,356.564 533.069,356.231 537.5,356.5C 545.382,355.356 553.382,354.69 561.5,354.5C 569.169,355.055 576.669,354.388 584,352.5C 586.912,354.066 590.079,354.899 593.5,355C 594.5,355.833 595.5,356.667 596.5,357.5C 558.613,394.223 520.28,430.389 481.5,466C 438.647,485.263 395.98,504.763 353.5,524.5C 353.5,524.167 353.5,523.833 353.5,523.5C 353.682,521.409 353.348,519.409 352.5,517.5C 349.912,516.29 347.412,514.956 345,513.5C 342.26,514.282 339.426,514.782 336.5,515C 335.161,517.016 333.328,518.183 331,518.5C 328.372,517.365 326.205,515.698 324.5,513.5C 322.132,511.129 320.132,508.462 318.5,505.5C 316.138,504.12 313.805,502.787 311.5,501.5C 309.192,499.529 306.858,497.529 304.5,495.5C 301.582,492.781 299.582,489.447 298.5,485.5C 296.08,482.074 293.08,479.408 289.5,477.5C 288.486,476.326 287.153,475.66 285.5,475.5C 283.741,472.726 282.074,469.893 280.5,467C 270.506,466.5 260.506,466.334 250.5,466.5C 248.212,464.896 245.879,463.229 243.5,461.5C 242.294,458.921 240.961,456.421 239.5,454C 238.552,453.517 237.552,453.351 236.5,453.5C 230.501,450.724 224.167,448.724 217.5,447.5C 210.492,443.278 202.825,441.778 194.5,443C 188.94,445.086 183.273,446.753 177.5,448C 127.269,458.563 77.2694,469.396 27.5,480.5C 26.1667,480.333 24.8333,480.167 23.5,480C 21.699,476.853 19.8657,473.687 18,470.5C 17.502,467.518 17.3354,464.518 17.5,461.5C 19.4341,455.751 20.7674,449.751 21.5,443.5C 21.5,443.167 21.5,442.833 21.5,442.5C 23.2764,438.548 25.6098,434.882 28.5,431.5C 33.8701,431.326 38.2034,429.159 41.5,425C 42.448,424.517 43.448,424.351 44.5,424.5C 48.7162,417.233 52.3829,409.566 55.5,401.5C 59.3125,400.833 62.9792,400.166 66.5,399.5C 71.5727,397.709 73.906,394.042 73.5,388.5C 72.3922,380.341 70.5588,372.341 68,364.5C 67.6667,360.167 67.3333,355.833 67,351.5C 64.6413,348.116 62.808,344.449 61.5,340.5C 62.4295,338.394 63.5962,336.394 65,334.5C 65.4644,328.471 65.131,322.471 64,316.5C 63.2432,314.685 62.4098,313.019 61.5,311.5C 61.405,309.214 60.7384,307.214 59.5,305.5C 58.7365,301.863 57.4032,298.53 55.5,295.5C 53.405,285.301 48.7383,276.635 41.5,269.5C 40.1667,266.5 40.1667,263.5 41.5,260.5C 43.5599,258.253 44.3933,255.586 44,252.5C 41.6303,249.961 39.1303,247.628 36.5,245.5C 33.61,243.326 32.2767,240.326 32.5,236.5C 32.6667,234.5 32.8333,232.5 33,230.5C 34.8661,228.481 36.0327,226.148 36.5,223.5C 35.3057,218.416 33.8057,213.416 32,208.5C 31.7034,203.309 31.2034,198.143 30.5,193C 24.8871,186.05 18.8871,179.383 12.5,173C 15.885,168.735 17.385,163.902 17,158.5C 10.7815,150.09 5.28146,141.257 0.5,132C 4.39451,127.602 8.72784,123.768 13.5,120.5C 17.4412,114.935 21.1079,109.268 24.5,103.5C 29.9689,97.2493 34.9689,90.5826 39.5,83.5C 43.3125,82.8329 46.9792,82.1663 50.5,81.5C 51.9002,80.8999 52.9002,79.8999 53.5,78.5C 55.9416,75.271 58.6082,72.271 61.5,69.5C 64.1667,68.8333 66.8333,68.1667 69.5,67.5C 72.5224,67.0192 75.5224,66.3525 78.5,65.5C 89.066,60.5302 99.7327,55.8635 110.5,51.5C 120.85,36.1548 131.184,20.8215 141.5,5.5C 142.167,5.5 142.833,5.5 143.5,5.5C 147.197,4.07345 151.031,3.07345 155,2.5C 156.833,2.83333 158.667,3.16667 160.5,3.5C 157.719,5.54006 154.719,7.20673 151.5,8.5C 149.421,13.0975 150.755,16.0975 155.5,17.5 Z"/></g>
<g><path style="opacity:1" fill="#c7d3c0" d="M 153.5,-0.5 C 154.5,-0.5 155.5,-0.5 156.5,-0.5C 157.635,1.21321 159.302,1.87988 161.5,1.5C 161.672,3.49181 161.005,5.15848 159.5,6.5C 150.941,7.91518 149.608,11.5818 155.5,17.5C 150.755,16.0975 149.421,13.0975 151.5,8.5C 154.719,7.20673 157.719,5.54006 160.5,3.5C 158.667,3.16667 156.833,2.83333 155,2.5C 151.031,3.07345 147.197,4.07345 143.5,5.5C 146.638,2.99712 149.972,0.997122 153.5,-0.5 Z"/></g>
<g><path style="opacity:1" fill="#c0c5be" d="M 155.5,17.5 C 155.849,20.6417 156.016,23.975 156,27.5C 157.954,31.2417 159.787,35.075 161.5,39C 158.691,46.3398 158.024,53.8398 159.5,61.5C 156.864,54.0069 157.197,46.5069 160.5,39C 155.014,32.7115 153.347,25.5449 155.5,17.5 Z"/></g>
<g><path style="opacity:1" fill="#c3c9bf" d="M 141.5,5.5 C 131.184,20.8215 120.85,36.1548 110.5,51.5C 99.7327,55.8635 89.066,60.5302 78.5,65.5C 75.5224,66.3525 72.5224,67.0192 69.5,67.5C 82.2895,61.9448 95.2895,56.4448 108.5,51C 118.946,37.279 128.78,23.1124 138,8.5C 138.759,6.93709 139.926,5.93709 141.5,5.5 Z"/></g>
<g><path style="opacity:1" fill="#c2c8c0" d="M 159.5,61.5 C 162.68,67.3521 166.013,73.1854 169.5,79C 171.195,78.5892 173.028,78.0892 175,77.5C 177.221,77.3932 179.054,78.0598 180.5,79.5C 178.658,79.2767 176.825,78.9434 175,78.5C 172.943,79.7967 170.776,80.2967 168.5,80C 164.554,74.2754 161.554,68.1088 159.5,61.5 Z"/></g>
<g><path style="opacity:1" fill="#c0c8bc" d="M 61.5,69.5 C 58.6082,72.271 55.9416,75.271 53.5,78.5C 54.6401,76.2198 55.8068,73.8864 57,71.5C 58.1096,69.9632 59.6096,69.2965 61.5,69.5 Z"/></g>
<g><path style="opacity:1" fill="#c6cfc0" d="M 50.5,81.5 C 46.9792,82.1663 43.3125,82.8329 39.5,83.5C 34.9689,90.5826 29.9689,97.2493 24.5,103.5C 28.9016,96.3756 33.5682,89.3756 38.5,82.5C 42.4454,81.5091 46.4454,81.1758 50.5,81.5 Z"/></g>
<g><path style="opacity:1" fill="#c1c6c0" d="M 180.5,79.5 C 187.526,83.2433 190.526,89.2433 189.5,97.5C 189.026,90.2809 186.026,84.2809 180.5,79.5 Z"/></g>
<g><path style="opacity:1" fill="#c0c5bd" d="M 189.5,97.5 C 190.556,107.541 189.556,117.541 186.5,127.5C 187.945,133.053 189.945,138.387 192.5,143.5C 188.563,138.952 186.23,133.618 185.5,127.5C 188.09,117.692 189.423,107.692 189.5,97.5 Z"/></g>
<g><path style="opacity:1" fill="#fefefe" d="M -0.5,133.5 C 4.39849,142.435 9.89849,151.102 16,159.5C 16.0978,163.647 14.7645,167.313 12,170.5C 11.2025,172.259 11.3691,173.926 12.5,175.5C 18.7304,181.227 24.3971,187.394 29.5,194C 30.2034,199.143 30.7034,204.309 31,209.5C 32.6008,214.136 34.1008,218.802 35.5,223.5C 34.5705,225.606 33.4038,227.606 32,229.5C 31.1717,234.202 31.3384,238.869 32.5,243.5C 33.5237,244.853 34.857,245.52 36.5,245.5C 38.4033,248.748 40.7366,251.748 43.5,254.5C 41.9137,256.173 41.2471,258.173 41.5,260.5C 40.1667,263.5 40.1667,266.5 41.5,269.5C 42.2351,273.293 44.2351,276.293 47.5,278.5C 50.1882,284.269 52.8549,289.936 55.5,295.5C 55.8723,299.297 57.2057,302.63 59.5,305.5C 60.7384,307.214 61.405,309.214 61.5,311.5C 62.9862,317.376 63.9862,323.376 64.5,329.5C 63.9747,333.534 62.6414,337.2 60.5,340.5C 61.5219,344.877 63.3553,348.877 66,352.5C 66.3333,356.833 66.6667,361.167 67,365.5C 69.3503,373.049 71.1837,380.716 72.5,388.5C 72.2986,390.973 71.632,393.306 70.5,395.5C 68.7252,396.838 67.0586,398.171 65.5,399.5C 61.774,399.177 58.1073,399.511 54.5,400.5C 51.3829,408.566 47.7162,416.233 43.5,423.5C 38.5735,426.461 33.5735,429.128 28.5,431.5C 26.629,431.859 25.129,432.859 24,434.5C 22.4086,436.927 21.5752,439.593 21.5,442.5C 21.5,442.833 21.5,443.167 21.5,443.5C 19.2491,449.182 17.9158,455.182 17.5,461.5C 16.3592,464.64 16.1925,467.973 17,471.5C 18.8657,474.687 20.699,477.853 22.5,481C 24.1667,481.167 25.8333,481.333 27.5,481.5C 81.0015,469.63 134.668,458.13 188.5,447C 194.066,443.792 200.066,442.792 206.5,444C 210.049,445.461 213.716,446.627 217.5,447.5C 224.167,448.724 230.501,450.724 236.5,453.5C 239.207,455.88 241.207,458.88 242.5,462.5C 244.908,464.698 247.575,466.364 250.5,467.5C 260.172,467.334 269.839,467.5 279.5,468C 280.715,471.229 282.715,473.729 285.5,475.5C 287.153,475.66 288.486,476.326 289.5,477.5C 293.987,481.805 297.487,486.805 300,492.5C 301.129,494.141 302.629,495.141 304.5,495.5C 305.612,498.946 307.945,500.946 311.5,501.5C 316.206,505.21 320.539,509.21 324.5,513.5C 325.679,518.83 329.013,520.663 334.5,519C 338.174,515.422 342.507,514.589 347.5,516.5C 351.022,517.678 353.022,520.011 353.5,523.5C 353.5,523.833 353.5,524.167 353.5,524.5C 353.5,524.833 353.5,525.167 353.5,525.5C 235.5,525.5 117.5,525.5 -0.5,525.5C -0.5,394.833 -0.5,264.167 -0.5,133.5 Z"/></g>
<g><path style="opacity:1" fill="#c4cdc0" d="M 192.5,143.5 C 196.43,146.435 200.596,149.102 205,151.5C 206.936,154.815 208.769,158.148 210.5,161.5C 207.66,158.361 204.993,155.028 202.5,151.5C 199.339,150.087 196.339,148.42 193.5,146.5C 192.614,145.675 192.281,144.675 192.5,143.5 Z"/></g>
<g><path style="opacity:1" fill="#c3c8bf" d="M 24.5,103.5 C 21.1079,109.268 17.4412,114.935 13.5,120.5C 8.72784,123.768 4.39451,127.602 0.5,132C 5.28146,141.257 10.7815,150.09 17,158.5C 17.385,163.902 15.885,168.735 12.5,173C 18.8871,179.383 24.8871,186.05 30.5,193C 31.2034,198.143 31.7034,203.309 32,208.5C 33.8057,213.416 35.3057,218.416 36.5,223.5C 36.0327,226.148 34.8661,228.481 33,230.5C 32.8333,232.5 32.6667,234.5 32.5,236.5C 32.2767,240.326 33.61,243.326 36.5,245.5C 34.857,245.52 33.5237,244.853 32.5,243.5C 31.3384,238.869 31.1717,234.202 32,229.5C 33.4038,227.606 34.5705,225.606 35.5,223.5C 34.1008,218.802 32.6008,214.136 31,209.5C 30.7034,204.309 30.2034,199.143 29.5,194C 24.3971,187.394 18.7304,181.227 12.5,175.5C 11.3691,173.926 11.2025,172.259 12,170.5C 14.7645,167.313 16.0978,163.647 16,159.5C 9.89849,151.102 4.39849,142.435 -0.5,133.5C -0.5,132.5 -0.5,131.5 -0.5,130.5C 3.52052,126.481 7.85385,122.814 12.5,119.5C 16.0311,113.751 20.0311,108.417 24.5,103.5 Z"/></g>
<g><path style="opacity:1" fill="#c2c9be" d="M 210.5,161.5 C 214.455,165.292 217.121,169.958 218.5,175.5C 215.66,171.039 212.994,166.372 210.5,161.5 Z"/></g>
<g><path style="opacity:1" fill="#bcc4b9" d="M 221.5,185.5 C 221.865,194.203 223.199,202.87 225.5,211.5C 223.935,209.491 222.935,207.157 222.5,204.5C 221.542,198.256 221.209,191.923 221.5,185.5 Z"/></g>
<g><path style="opacity:1" fill="#cbeebb" d="M 220.5,185.5 C 220.833,185.5 221.167,185.5 221.5,185.5C 221.209,191.923 221.542,198.256 222.5,204.5C 220.544,198.588 219.877,192.255 220.5,185.5 Z"/></g>
<g><path style="opacity:1" fill="#c1c6bf" d="M 225.5,211.5 C 230.357,219.88 234.69,228.547 238.5,237.5C 236.777,235.747 235.277,233.747 234,231.5C 230.872,224.917 228.039,218.25 225.5,211.5 Z"/></g>
<g><path style="opacity:1" fill="#c1c7be" d="M 238.5,237.5 C 242.387,241.891 246.553,246.224 251,250.5C 251.436,252.847 251.936,255.181 252.5,257.5C 251.495,263.81 251.495,270.144 252.5,276.5C 252.719,281.489 251.719,286.156 249.5,290.5C 250.556,293.669 250.556,296.669 249.5,299.5C 249.299,296.492 248.966,293.492 248.5,290.5C 250.302,286.073 251.302,281.406 251.5,276.5C 250.878,268.174 250.378,259.841 250,251.5C 245.198,247.541 241.365,242.874 238.5,237.5 Z"/></g>
<g><path style="opacity:1" fill="#c3c8c0" d="M 36.5,245.5 C 39.1303,247.628 41.6303,249.961 44,252.5C 44.3933,255.586 43.5599,258.253 41.5,260.5C 41.2471,258.173 41.9137,256.173 43.5,254.5C 40.7366,251.748 38.4033,248.748 36.5,245.5 Z"/></g>
<g><path style="opacity:1" fill="#c2c9bf" d="M 41.5,269.5 C 48.7383,276.635 53.405,285.301 55.5,295.5C 52.8549,289.936 50.1882,284.269 47.5,278.5C 44.2351,276.293 42.2351,273.293 41.5,269.5 Z"/></g>
<g><path style="opacity:1" fill="#c1c5bf" d="M 55.5,295.5 C 57.4032,298.53 58.7365,301.863 59.5,305.5C 57.2057,302.63 55.8723,299.297 55.5,295.5 Z"/></g>
<g><path style="opacity:1" fill="#bfc5be" d="M 249.5,299.5 C 249.959,304.777 248.626,309.444 245.5,313.5C 247.072,308.797 248.406,304.13 249.5,299.5 Z"/></g>
<g><path style="opacity:1" fill="#c6cdc3" d="M 396.5,311.5 C 392.43,309.273 388.764,306.439 385.5,303C 384.5,302.833 383.5,302.667 382.5,302.5C 373.046,305.223 363.379,307.223 353.5,308.5C 355.158,307.819 356.825,306.985 358.5,306C 366.506,304.536 374.506,303.036 382.5,301.5C 383.833,301.667 385.167,301.833 386.5,302C 390.068,305.072 393.401,308.239 396.5,311.5 Z"/></g>
<g><path style="opacity:1" fill="#c5ccc1" d="M 245.5,313.5 C 245.511,315.017 246.177,316.184 247.5,317C 250.051,317.002 252.051,317.836 253.5,319.5C 253.167,319.5 252.833,319.5 252.5,319.5C 250.708,318.691 248.708,318.191 246.5,318C 244.534,316.653 244.201,315.153 245.5,313.5 Z"/></g>
<g><path style="opacity:1" fill="#bec4bc" d="M 349.5,309.5 C 349.678,313.122 349.011,316.456 347.5,319.5C 347.549,315.922 348.215,312.589 349.5,309.5 Z"/></g>
<g><path style="opacity:1" fill="#d1ebc4" d="M 252.5,319.5 C 252.833,319.5 253.167,319.5 253.5,319.5C 258.167,319.5 262.833,319.5 267.5,319.5C 267.5,321.833 267.5,324.167 267.5,326.5C 266.539,324.735 266.205,322.735 266.5,320.5C 261.637,320.819 256.97,320.486 252.5,319.5 Z"/></g>
<g><path style="opacity:1" fill="#c1c6bf" d="M 347.5,319.5 C 347.625,322.608 346.292,324.608 343.5,325.5C 344.846,323.463 346.18,321.463 347.5,319.5 Z"/></g>
<g><path style="opacity:1" fill="#c0c6bd" d="M 61.5,311.5 C 62.4098,313.019 63.2432,314.685 64,316.5C 65.131,322.471 65.4644,328.471 65,334.5C 63.5962,336.394 62.4295,338.394 61.5,340.5C 62.808,344.449 64.6413,348.116 67,351.5C 67.3333,355.833 67.6667,360.167 68,364.5C 70.5588,372.341 72.3922,380.341 73.5,388.5C 73.906,394.042 71.5727,397.709 66.5,399.5C 66.1667,399.5 65.8333,399.5 65.5,399.5C 67.0586,398.171 68.7252,396.838 70.5,395.5C 71.632,393.306 72.2986,390.973 72.5,388.5C 71.1837,380.716 69.3503,373.049 67,365.5C 66.6667,361.167 66.3333,356.833 66,352.5C 63.3553,348.877 61.5219,344.877 60.5,340.5C 62.6414,337.2 63.9747,333.534 64.5,329.5C 63.9862,323.376 62.9862,317.376 61.5,311.5 Z"/></g>
<g><path style="opacity:1" fill="#c6cfc1" d="M 267.5,319.5 C 268.795,323.267 269.461,327.267 269.5,331.5C 274.971,332.29 280.304,333.457 285.5,335C 294.833,335.667 304.167,335.667 313.5,335C 316.412,333.76 319.079,332.094 321.5,330C 328.989,328.747 336.323,327.247 343.5,325.5C 343.196,326.15 342.863,326.817 342.5,327.5C 332.404,328.185 323.07,331.019 314.5,336C 304.5,336.667 294.5,336.667 284.5,336C 279.304,334.457 273.971,333.29 268.5,332.5C 268.795,330.265 268.461,328.265 267.5,326.5C 267.5,324.167 267.5,321.833 267.5,319.5 Z"/></g>
<g><path style="opacity:1" fill="#c7d0c2" d="M 396.5,311.5 C 400.202,313.783 403.702,316.449 407,319.5C 420.798,326.823 434.965,333.323 449.5,339C 462.591,341.632 475.591,344.632 488.5,348C 491.506,350.301 494.172,352.801 496.5,355.5C 493.105,353.948 490.105,351.781 487.5,349C 474.591,345.632 461.591,342.632 448.5,340C 433.252,334.447 418.585,327.614 404.5,319.5C 401.479,317.146 398.812,314.479 396.5,311.5 Z"/></g>
<g><path style="opacity:1" fill="#c9d1c4" d="M 561.5,353.5 C 561.5,353.833 561.5,354.167 561.5,354.5C 553.382,354.69 545.382,355.356 537.5,356.5C 537.5,356.167 537.5,355.833 537.5,355.5C 545.326,354.077 553.326,353.41 561.5,353.5 Z"/></g>
<g><path style="opacity:1" fill="#cbd5c5" d="M 496.5,355.5 C 505.463,356.578 514.463,357.245 523.5,357.5C 523.833,357.5 524.167,357.5 524.5,357.5C 521.686,358.165 518.686,358.498 515.5,358.5C 508.947,357.984 502.614,356.984 496.5,355.5 Z"/></g>
<g><path style="opacity:1" fill="#c4c7c3" d="M 537.5,355.5 C 537.5,355.833 537.5,356.167 537.5,356.5C 533.069,356.231 528.735,356.564 524.5,357.5C 524.167,357.5 523.833,357.5 523.5,357.5C 523.611,356.883 523.944,356.383 524.5,356C 528.821,355.501 533.154,355.334 537.5,355.5 Z"/></g>
<g><path style="opacity:1" fill="#fefffe" d="M 597.5,359.5 C 597.5,414.833 597.5,470.167 597.5,525.5C 517.167,525.5 436.833,525.5 356.5,525.5C 398.093,505.347 440.093,485.847 482.5,467C 520.991,431.343 559.324,395.51 597.5,359.5 Z"/></g>
<g><path style="opacity:1" fill="#c4ccbf" d="M 65.5,399.5 C 65.8333,399.5 66.1667,399.5 66.5,399.5C 62.9792,400.166 59.3125,400.833 55.5,401.5C 52.3829,409.566 48.7162,417.233 44.5,424.5C 43.448,424.351 42.448,424.517 41.5,425C 38.2034,429.159 33.8701,431.326 28.5,431.5C 33.5735,429.128 38.5735,426.461 43.5,423.5C 47.7162,416.233 51.3829,408.566 54.5,400.5C 58.1073,399.511 61.774,399.177 65.5,399.5 Z"/></g>
<g><path style="opacity:1" fill="#c3c7bf" d="M 28.5,431.5 C 25.6098,434.882 23.2764,438.548 21.5,442.5C 21.5752,439.593 22.4086,436.927 24,434.5C 25.129,432.859 26.629,431.859 28.5,431.5 Z"/></g>
<g><path style="opacity:1" fill="#c2c5be" d="M 21.5,443.5 C 20.7674,449.751 19.4341,455.751 17.5,461.5C 17.9158,455.182 19.2491,449.182 21.5,443.5 Z"/></g>
<g><path style="opacity:1" fill="#c3c8c0" d="M 236.5,453.5 C 237.552,453.351 238.552,453.517 239.5,454C 240.961,456.421 242.294,458.921 243.5,461.5C 245.879,463.229 248.212,464.896 250.5,466.5C 250.5,466.833 250.5,467.167 250.5,467.5C 247.575,466.364 244.908,464.698 242.5,462.5C 241.207,458.88 239.207,455.88 236.5,453.5 Z"/></g>
<g><path style="opacity:1" fill="#c8d1c3" d="M 217.5,447.5 C 213.716,446.627 210.049,445.461 206.5,444C 200.066,442.792 194.066,443.792 188.5,447C 134.668,458.13 81.0015,469.63 27.5,481.5C 25.8333,481.333 24.1667,481.167 22.5,481C 20.699,477.853 18.8657,474.687 17,471.5C 16.1925,467.973 16.3592,464.64 17.5,461.5C 17.3354,464.518 17.502,467.518 18,470.5C 19.8657,473.687 21.699,476.853 23.5,480C 24.8333,480.167 26.1667,480.333 27.5,480.5C 77.2694,469.396 127.269,458.563 177.5,448C 183.273,446.753 188.94,445.086 194.5,443C 202.825,441.778 210.492,443.278 217.5,447.5 Z"/></g>
<g><path style="opacity:1" fill="#c9d6c2" d="M 250.5,467.5 C 250.5,467.167 250.5,466.833 250.5,466.5C 260.506,466.334 270.506,466.5 280.5,467C 282.074,469.893 283.741,472.726 285.5,475.5C 282.715,473.729 280.715,471.229 279.5,468C 269.839,467.5 260.172,467.334 250.5,467.5 Z"/></g>
<g><path style="opacity:1" fill="#c2c8bf" d="M 289.5,477.5 C 293.08,479.408 296.08,482.074 298.5,485.5C 299.582,489.447 301.582,492.781 304.5,495.5C 302.629,495.141 301.129,494.141 300,492.5C 297.487,486.805 293.987,481.805 289.5,477.5 Z"/></g>
<g><path style="opacity:1" fill="#c4ccc0" d="M 597.5,355.5 C 597.5,356.833 597.5,358.167 597.5,359.5C 559.324,395.51 520.991,431.343 482.5,467C 440.093,485.847 398.093,505.347 356.5,525.5C 355.5,525.5 354.5,525.5 353.5,525.5C 353.5,525.167 353.5,524.833 353.5,524.5C 395.98,504.763 438.647,485.263 481.5,466C 520.28,430.389 558.613,394.223 596.5,357.5C 595.5,356.667 594.5,355.833 593.5,355C 590.079,354.899 586.912,354.066 584,352.5C 576.669,354.388 569.169,355.055 561.5,354.5C 561.5,354.167 561.5,353.833 561.5,353.5C 569.128,353.987 576.628,353.32 584,351.5C 588.532,352.788 593.032,354.121 597.5,355.5 Z"/></g>
<g><path style="opacity:1" fill="#c3c6c0" d="M 304.5,495.5 C 306.858,497.529 309.192,499.529 311.5,501.5C 307.945,500.946 305.612,498.946 304.5,495.5 Z"/></g>
<g><path style="opacity:1" fill="#c3c7bf" d="M 311.5,501.5 C 313.805,502.787 316.138,504.12 318.5,505.5C 320.132,508.462 322.132,511.129 324.5,513.5C 320.539,509.21 316.206,505.21 311.5,501.5 Z"/></g>
<g><path style="opacity:1" fill="#c4ccc0" d="M 324.5,513.5 C 326.205,515.698 328.372,517.365 331,518.5C 333.328,518.183 335.161,517.016 336.5,515C 339.426,514.782 342.26,514.282 345,513.5C 347.412,514.956 349.912,516.29 352.5,517.5C 353.348,519.409 353.682,521.409 353.5,523.5C 353.022,520.011 351.022,517.678 347.5,516.5C 342.507,514.589 338.174,515.422 334.5,519C 329.013,520.663 325.679,518.83 324.5,513.5 Z"/></g>
</svg>
