<?xml version="1.0" encoding="UTF-8"?>
<!DOCTYPE svg PUBLIC "-//W3C//DTD SVG 1.1//EN" "http://www.w3.org/Graphics/SVG/1.1/DTD/svg11.dtd">
<svg xmlns="http://www.w3.org/2000/svg" version="1.1" width="118px" height="90px" style="shape-rendering:geometricPrecision; text-rendering:geometricPrecision; image-rendering:optimizeQuality; fill-rule:evenodd; clip-rule:evenodd" xmlns:xlink="http://www.w3.org/1999/xlink">
<g><path style="opacity:1" fill="#fdfdfe" d="M 29.5,-0.5 C 58.8333,-0.5 88.1667,-0.5 117.5,-0.5C 117.5,8.83333 117.5,18.1667 117.5,27.5C 116.833,27.1667 116.167,26.8333 115.5,26.5C 110.404,23.8063 105.404,21.1396 100.5,18.5C 97.4695,15.814 94.1362,13.4807 90.5,11.5C 88.1786,12.0605 86.1786,13.0605 84.5,14.5C 84.2786,15.7348 83.6119,16.7348 82.5,17.5C 75.5755,22.1202 68.5755,26.4535 61.5,30.5C 59.5915,30.8834 58.0915,31.8834 57,33.5C 56.3444,31.0139 54.8444,29.3472 52.5,28.5C 51.3995,27.3951 50.7329,26.0618 50.5,24.5C 47.7791,19.0869 43.4457,16.4202 37.5,16.5C 34.5995,11.0283 31.9329,5.36165 29.5,-0.5 Z"/></g>
<g><path style="opacity:1" fill="#60b4f1" d="M 26.5,0.5 C 27.3764,0.369118 28.0431,0.702451 28.5,1.5C 30.9869,6.8189 33.6536,11.8189 36.5,16.5C 38.7171,18.0799 41.3837,19.0799 44.5,19.5C 46.2469,21.59 48.2469,23.2567 50.5,24.5C 50.7329,26.0618 51.3995,27.3951 52.5,28.5C 53.7479,30.6502 55.2479,32.6502 57,34.5C 58.9755,33.5345 60.4755,32.2012 61.5,30.5C 68.5755,26.4535 75.5755,22.1202 82.5,17.5C 83.6119,16.7348 84.2786,15.7348 84.5,14.5C 86.6663,14.4211 88.6663,13.7545 90.5,12.5C 92.792,13.7899 94.792,15.4565 96.5,17.5C 97.6888,18.4287 99.0222,18.762 100.5,18.5C 105.404,21.1396 110.404,23.8063 115.5,26.5C 116.36,30.4338 116.693,34.4338 116.5,38.5C 116.799,40.604 116.466,42.604 115.5,44.5C 113.41,46.2469 111.743,48.2469 110.5,50.5C 109.252,51.3339 108.585,52.6672 108.5,54.5C 108.511,56.0451 108.844,57.3784 109.5,58.5C 111.023,61.6348 111.69,64.9682 111.5,68.5C 108.618,69.3789 106.285,71.0456 104.5,73.5C 100.621,75.0855 97.2877,77.4188 94.5,80.5C 93.0222,80.762 91.6888,80.4287 90.5,79.5C 90.0576,78.2613 89.3909,77.2613 88.5,76.5C 87.1637,74.4918 85.8304,72.4918 84.5,70.5C 83.1637,68.4918 81.8304,66.4918 80.5,64.5C 79.1667,61.8333 77.1667,59.8333 74.5,58.5C 74.5,58.1667 74.5,57.8333 74.5,57.5C 74.321,55.3944 73.321,53.7277 71.5,52.5C 69.0776,55.2653 66.4109,57.5986 63.5,59.5C 58.4674,62.0111 53.8008,65.0111 49.5,68.5C 46.1429,68.1058 43.8095,69.4391 42.5,72.5C 42.6682,74.1705 43.3349,75.5039 44.5,76.5C 45.1667,76.5 45.5,76.8333 45.5,77.5C 47.4669,81.0955 49.1335,84.7621 50.5,88.5C 49.209,88.2627 48.209,88.596 47.5,89.5C 46.5,89.5 45.5,89.5 44.5,89.5C 44.0679,88.2905 43.4013,87.2905 42.5,86.5C 39.5214,84.8548 37.1881,82.5214 35.5,79.5C 33.9611,74.6287 30.9611,70.962 26.5,68.5C 23.5296,64.5284 20.1963,60.8617 16.5,57.5C 16.719,56.325 16.3857,55.325 15.5,54.5C 12.0789,51.4193 9.07892,48.0859 6.5,44.5C 5.16667,44.5 4.5,43.8333 4.5,42.5C 3.16372,40.4918 1.83039,38.4918 0.5,36.5C 1.34794,34.9069 2.68127,33.7403 4.5,33C 9.8252,31.8466 14.4919,29.6799 18.5,26.5C 19.3718,25.3876 19.3718,24.0542 18.5,22.5C 17.6152,20.0227 16.2818,18.0227 14.5,16.5C 13.4533,13.4037 12.12,10.4037 10.5,7.5C 10.8333,6.83333 11.1667,6.16667 11.5,5.5C 16.4999,3.69733 21.4999,2.03066 26.5,0.5 Z"/></g>
<g><path style="opacity:1" fill="#aabfd0" d="M 26.5,0.5 C 26.5,0.166667 26.5,-0.166667 26.5,-0.5C 27.5,-0.5 28.5,-0.5 29.5,-0.5C 31.9329,5.36165 34.5995,11.0283 37.5,16.5C 37.1667,16.5 36.8333,16.5 36.5,16.5C 33.6536,11.8189 30.9869,6.8189 28.5,1.5C 28.0431,0.702451 27.3764,0.369118 26.5,0.5 Z"/></g>
<g><path style="opacity:1" fill="#c2cbd2" d="M 100.5,18.5 C 99.0222,18.762 97.6888,18.4287 96.5,17.5C 94.792,15.4565 92.792,13.7899 90.5,12.5C 88.6663,13.7545 86.6663,14.4211 84.5,14.5C 86.1786,13.0605 88.1786,12.0605 90.5,11.5C 94.1362,13.4807 97.4695,15.814 100.5,18.5 Z"/></g>
<g><path style="opacity:1" fill="#cbd1d5" d="M 36.5,16.5 C 36.8333,16.5 37.1667,16.5 37.5,16.5C 43.4457,16.4202 47.7791,19.0869 50.5,24.5C 48.2469,23.2567 46.2469,21.59 44.5,19.5C 41.3837,19.0799 38.7171,18.0799 36.5,16.5 Z"/></g>
<g><path style="opacity:1" fill="#b3c2d0" d="M 14.5,16.5 C 16.2818,18.0227 17.6152,20.0227 18.5,22.5C 19.3718,24.0542 19.3718,25.3876 18.5,26.5C 17.1667,23.1667 15.8333,19.8333 14.5,16.5 Z"/></g>
<g><path style="opacity:1" fill="#93bad6" d="M 115.5,26.5 C 116.167,26.8333 116.833,27.1667 117.5,27.5C 117.5,31.1667 117.5,34.8333 117.5,38.5C 117.167,38.5 116.833,38.5 116.5,38.5C 116.693,34.4338 116.36,30.4338 115.5,26.5 Z"/></g>
<g><path style="opacity:1" fill="#adc3d3" d="M 52.5,28.5 C 54.8444,29.3472 56.3444,31.0139 57,33.5C 58.0915,31.8834 59.5915,30.8834 61.5,30.5C 60.4755,32.2012 58.9755,33.5345 57,34.5C 55.2479,32.6502 53.7479,30.6502 52.5,28.5 Z"/></g>
<g><path style="opacity:1" fill="#fdfdfd" d="M -0.5,-0.5 C 8.5,-0.5 17.5,-0.5 26.5,-0.5C 26.5,-0.166667 26.5,0.166667 26.5,0.5C 21.4999,2.03066 16.4999,3.69733 11.5,5.5C 11.1667,6.16667 10.8333,6.83333 10.5,7.5C 12.12,10.4037 13.4533,13.4037 14.5,16.5C 15.8333,19.8333 17.1667,23.1667 18.5,26.5C 14.4919,29.6799 9.8252,31.8466 4.5,33C 2.68127,33.7403 1.34794,34.9069 0.5,36.5C 0.346917,39.5353 1.68025,41.5353 4.5,42.5C 4.5,43.8333 5.16667,44.5 6.5,44.5C 6.42082,45.9305 6.75415,47.2638 7.5,48.5C 10.548,51.548 13.548,54.548 16.5,57.5C 20.1963,60.8617 23.5296,64.5284 26.5,68.5C 29.5833,72.2351 32.5833,75.9017 35.5,79.5C 37.1881,82.5214 39.5214,84.8548 42.5,86.5C 42.5,87.5 42.5,88.5 42.5,89.5C 28.1667,89.5 13.8333,89.5 -0.5,89.5C -0.5,59.5 -0.5,29.5 -0.5,-0.5 Z"/></g>
<g><path style="opacity:1" fill="#a6bdce" d="M 0.5,36.5 C 1.83039,38.4918 3.16372,40.4918 4.5,42.5C 1.68025,41.5353 0.346917,39.5353 0.5,36.5 Z"/></g>
<g><path style="opacity:1" fill="#fdfdfd" d="M 116.5,38.5 C 116.833,38.5 117.167,38.5 117.5,38.5C 117.5,55.5 117.5,72.5 117.5,89.5C 95.5,89.5 73.5,89.5 51.5,89.5C 51.7989,87.396 51.4656,85.396 50.5,83.5C 49.272,80.9875 47.6054,78.9875 45.5,77.5C 45.5,76.8333 45.1667,76.5 44.5,76.5C 44.5792,75.0695 44.2458,73.7362 43.5,72.5C 45.2615,70.6322 47.2615,69.2989 49.5,68.5C 53.8008,65.0111 58.4674,62.0111 63.5,59.5C 66.5886,59.0938 69.2553,57.7605 71.5,55.5C 72.7387,55.9424 73.7387,56.6091 74.5,57.5C 74.5,57.8333 74.5,58.1667 74.5,58.5C 75.8333,61.1667 77.8333,63.1667 80.5,64.5C 80.3469,67.5353 81.6803,69.5353 84.5,70.5C 84.3469,73.5353 85.6803,75.5353 88.5,76.5C 88.715,80.8345 90.715,82.1678 94.5,80.5C 97.2877,77.4188 100.621,75.0855 104.5,73.5C 107.382,72.6211 109.715,70.9544 111.5,68.5C 111.69,64.9682 111.023,61.6348 109.5,58.5C 109.279,55.7212 109.612,53.0545 110.5,50.5C 111.743,48.2469 113.41,46.2469 115.5,44.5C 116.466,42.604 116.799,40.604 116.5,38.5 Z"/></g>
<g><path style="opacity:1" fill="#b6c3cb" d="M 6.5,44.5 C 9.07892,48.0859 12.0789,51.4193 15.5,54.5C 16.3857,55.325 16.719,56.325 16.5,57.5C 13.548,54.548 10.548,51.548 7.5,48.5C 6.75415,47.2638 6.42082,45.9305 6.5,44.5 Z"/></g>
<g><path style="opacity:1" fill="#d2d2d5" d="M 110.5,50.5 C 109.612,53.0545 109.279,55.7212 109.5,58.5C 108.844,57.3784 108.511,56.0451 108.5,54.5C 108.585,52.6672 109.252,51.3339 110.5,50.5 Z"/></g>
<g><path style="opacity:1" fill="#bfc9d0" d="M 74.5,57.5 C 73.7387,56.6091 72.7387,55.9424 71.5,55.5C 69.2553,57.7605 66.5886,59.0938 63.5,59.5C 66.4109,57.5986 69.0776,55.2653 71.5,52.5C 73.321,53.7277 74.321,55.3944 74.5,57.5 Z"/></g>
<g><path style="opacity:1" fill="#b3c3ce" d="M 74.5,58.5 C 77.1667,59.8333 79.1667,61.8333 80.5,64.5C 77.8333,63.1667 75.8333,61.1667 74.5,58.5 Z"/></g>
<g><path style="opacity:1" fill="#a6bdce" d="M 80.5,64.5 C 81.8304,66.4918 83.1637,68.4918 84.5,70.5C 81.6803,69.5353 80.3469,67.5353 80.5,64.5 Z"/></g>
<g><path style="opacity:1" fill="#b5c4cf" d="M 49.5,68.5 C 47.2615,69.2989 45.2615,70.6322 43.5,72.5C 44.2458,73.7362 44.5792,75.0695 44.5,76.5C 43.3349,75.5039 42.6682,74.1705 42.5,72.5C 43.8095,69.4391 46.1429,68.1058 49.5,68.5 Z"/></g>
<g><path style="opacity:1" fill="#c4cbd0" d="M 111.5,68.5 C 109.715,70.9544 107.382,72.6211 104.5,73.5C 106.285,71.0456 108.618,69.3789 111.5,68.5 Z"/></g>
<g><path style="opacity:1" fill="#bdc7cd" d="M 26.5,68.5 C 30.9611,70.962 33.9611,74.6287 35.5,79.5C 32.5833,75.9017 29.5833,72.2351 26.5,68.5 Z"/></g>
<g><path style="opacity:1" fill="#a6bdce" d="M 84.5,70.5 C 85.8304,72.4918 87.1637,74.4918 88.5,76.5C 85.6803,75.5353 84.3469,73.5353 84.5,70.5 Z"/></g>
<g><path style="opacity:1" fill="#c8cfd5" d="M 88.5,76.5 C 89.3909,77.2613 90.0576,78.2613 90.5,79.5C 91.6888,80.4287 93.0222,80.762 94.5,80.5C 90.715,82.1678 88.715,80.8345 88.5,76.5 Z"/></g>
<g><path style="opacity:1" fill="#aabfd0" d="M 42.5,86.5 C 43.4013,87.2905 44.0679,88.2905 44.5,89.5C 43.8333,89.5 43.1667,89.5 42.5,89.5C 42.5,88.5 42.5,87.5 42.5,86.5 Z"/></g>
<g><path style="opacity:1" fill="#c5cdd2" d="M 45.5,77.5 C 47.6054,78.9875 49.272,80.9875 50.5,83.5C 51.4656,85.396 51.7989,87.396 51.5,89.5C 50.1667,89.5 48.8333,89.5 47.5,89.5C 48.209,88.596 49.209,88.2627 50.5,88.5C 49.1335,84.7621 47.4669,81.0955 45.5,77.5 Z"/></g>
</svg>
