<?xml version="1.0" encoding="UTF-8"?>
<!DOCTYPE svg PUBLIC "-//W3C//DTD SVG 1.1//EN" "http://www.w3.org/Graphics/SVG/1.1/DTD/svg11.dtd">
<svg xmlns="http://www.w3.org/2000/svg" version="1.1" width="82px" height="90px" style="shape-rendering:geometricPrecision; text-rendering:geometricPrecision; image-rendering:optimizeQuality; fill-rule:evenodd; clip-rule:evenodd" xmlns:xlink="http://www.w3.org/1999/xlink">
<g><path style="opacity:1" fill="#fcfcfb" d="M -0.5,-0.5 C 26.8333,-0.5 54.1667,-0.5 81.5,-0.5C 81.5,27.1667 81.5,54.8333 81.5,82.5C 81.1667,82.5 80.8333,82.5 80.5,82.5C 80.5,81.1667 79.8333,80.5 78.5,80.5C 77.3548,76.0142 74.6881,72.6809 70.5,70.5C 67.3623,66.7263 64.029,63.0596 60.5,59.5C 57.1637,58.7604 53.8304,58.0938 50.5,57.5C 49.4249,55.1889 49.4249,52.8555 50.5,50.5C 53.6691,44.993 55.6691,38.993 56.5,32.5C 58.0461,30.1175 58.7128,27.4509 58.5,24.5C 61.0021,20.9942 62.3354,16.9942 62.5,12.5C 62.3874,9.95123 63.0541,7.6179 64.5,5.5C 60.014,3.22763 55.3473,1.56096 50.5,0.5C 46.3953,1.10857 42.3953,1.77523 38.5,2.5C 24.1306,6.51384 11.7972,13.8472 1.5,24.5C 0.833333,24.8333 0.166667,25.1667 -0.5,25.5C -0.5,16.8333 -0.5,8.16667 -0.5,-0.5 Z"/></g>
<g><path style="opacity:1" fill="#b0f65e" d="M 50.5,0.5 C 55.3473,1.56096 60.014,3.22763 64.5,5.5C 63.0541,7.6179 62.3874,9.95123 62.5,12.5C 60.7958,16.279 59.4625,20.279 58.5,24.5C 58.7128,27.4509 58.0461,30.1175 56.5,32.5C 54.1292,38.2791 52.1292,44.2791 50.5,50.5C 49.4249,52.8555 49.4249,55.1889 50.5,57.5C 53.8304,58.0938 57.1637,58.7604 60.5,59.5C 64.029,63.0596 67.3623,66.7263 70.5,70.5C 73.1735,73.8388 75.8401,77.1721 78.5,80.5C 79.8333,80.5 80.5,81.1667 80.5,82.5C 78.6592,84.9535 76.6592,87.2868 74.5,89.5C 73.8333,89.5 73.1667,89.5 72.5,89.5C 70.8119,86.4786 68.4786,84.1452 65.5,82.5C 60.9433,75.2795 54.61,70.2795 46.5,67.5C 45.9329,65.0177 45.2663,62.6843 44.5,60.5C 40.2984,60.8168 36.2984,60.4834 32.5,59.5C 31.4324,58.5655 30.099,58.2322 28.5,58.5C 28.7076,56.0799 28.3742,53.7466 27.5,51.5C 18.7411,43.2175 9.74114,35.2175 0.5,27.5C 1.12723,26.5832 1.46056,25.5832 1.5,24.5C 11.7972,13.8472 24.1306,6.51384 38.5,2.5C 42.9707,3.08943 46.9707,2.42277 50.5,0.5 Z"/></g>
<g><path style="opacity:1" fill="#cee8b0" d="M 50.5,0.5 C 46.9707,2.42277 42.9707,3.08943 38.5,2.5C 42.3953,1.77523 46.3953,1.10857 50.5,0.5 Z"/></g>
<g><path style="opacity:1" fill="#c4d5b2" d="M 62.5,12.5 C 62.3354,16.9942 61.0021,20.9942 58.5,24.5C 59.4625,20.279 60.7958,16.279 62.5,12.5 Z"/></g>
<g><path style="opacity:1" fill="#c6d2b8" d="M 1.5,24.5 C 1.46056,25.5832 1.12723,26.5832 0.5,27.5C 9.74114,35.2175 18.7411,43.2175 27.5,51.5C 28.3742,53.7466 28.7076,56.0799 28.5,58.5C 30.099,58.2322 31.4324,58.5655 32.5,59.5C 30.8333,59.5 29.1667,59.5 27.5,59.5C 27.7076,57.0799 27.3742,54.7466 26.5,52.5C 18.5,45.1667 10.5,37.8333 2.5,30.5C 1.67504,29.6143 0.675044,29.281 -0.5,29.5C -0.5,28.1667 -0.5,26.8333 -0.5,25.5C 0.166667,25.1667 0.833333,24.8333 1.5,24.5 Z"/></g>
<g><path style="opacity:1" fill="#fefefe" d="M -0.5,29.5 C 0.675044,29.281 1.67504,29.6143 2.5,30.5C 10.5,37.8333 18.5,45.1667 26.5,52.5C 27.3742,54.7466 27.7076,57.0799 27.5,59.5C 29.1667,59.5 30.8333,59.5 32.5,59.5C 36.2984,60.4834 40.2984,60.8168 44.5,60.5C 44.2739,63.2492 44.6072,65.9159 45.5,68.5C 48.7698,69.2554 51.7698,70.5887 54.5,72.5C 57.8876,76.2247 61.5542,79.5581 65.5,82.5C 68.4786,84.1452 70.8119,86.4786 72.5,89.5C 48.1667,89.5 23.8333,89.5 -0.5,89.5C -0.5,69.5 -0.5,49.5 -0.5,29.5 Z"/></g>
<g><path style="opacity:1" fill="#c7d7b3" d="M 56.5,32.5 C 55.6691,38.993 53.6691,44.993 50.5,50.5C 52.1292,44.2791 54.1292,38.2791 56.5,32.5 Z"/></g>
<g><path style="opacity:1" fill="#c5d2b3" d="M 44.5,60.5 C 45.2663,62.6843 45.9329,65.0177 46.5,67.5C 54.61,70.2795 60.9433,75.2795 65.5,82.5C 61.5542,79.5581 57.8876,76.2247 54.5,72.5C 51.7698,70.5887 48.7698,69.2554 45.5,68.5C 44.6072,65.9159 44.2739,63.2492 44.5,60.5 Z"/></g>
<g><path style="opacity:1" fill="#c9d3bd" d="M 70.5,70.5 C 74.6881,72.6809 77.3548,76.0142 78.5,80.5C 75.8401,77.1721 73.1735,73.8388 70.5,70.5 Z"/></g>
<g><path style="opacity:1" fill="#c6cebc" d="M 80.5,82.5 C 80.8333,82.5 81.1667,82.5 81.5,82.5C 81.5,83.5 81.5,84.5 81.5,85.5C 79.323,86.2794 77.6563,87.6127 76.5,89.5C 75.8333,89.5 75.1667,89.5 74.5,89.5C 76.6592,87.2868 78.6592,84.9535 80.5,82.5 Z"/></g>
<g><path style="opacity:1" fill="#fefffe" d="M 81.5,85.5 C 81.5,86.8333 81.5,88.1667 81.5,89.5C 79.8333,89.5 78.1667,89.5 76.5,89.5C 77.6563,87.6127 79.323,86.2794 81.5,85.5 Z"/></g>
</svg>
