<?xml version="1.0" encoding="UTF-8"?>
<!DOCTYPE svg PUBLIC "-//W3C//DTD SVG 1.1//EN" "http://www.w3.org/Graphics/SVG/1.1/DTD/svg11.dtd">
<svg xmlns="http://www.w3.org/2000/svg" version="1.1" width="135px" height="86px" style="shape-rendering:geometricPrecision; text-rendering:geometricPrecision; image-rendering:optimizeQuality; fill-rule:evenodd; clip-rule:evenodd" xmlns:xlink="http://www.w3.org/1999/xlink">
<g><path style="opacity:1" fill="#fefffe" d="M -0.5,-0.5 C 10.5,-0.5 21.5,-0.5 32.5,-0.5C 22.4407,9.88861 11.4407,19.2219 -0.5,27.5C -0.5,18.1667 -0.5,8.83333 -0.5,-0.5 Z"/></g>
<g><path style="opacity:1" fill="#fefefe" d="M 36.5,-0.5 C 69.1667,-0.5 101.833,-0.5 134.5,-0.5C 134.5,25.5 134.5,51.5 134.5,77.5C 133.025,75.9934 131.691,74.3268 130.5,72.5C 129.963,69.9641 128.63,67.9641 126.5,66.5C 125.986,64.3016 124.986,62.3016 123.5,60.5C 119.699,58.4109 116.366,55.7442 113.5,52.5C 112.311,51.5713 110.978,51.238 109.5,51.5C 107.156,51.0603 105.156,50.0603 103.5,48.5C 99.2799,46.6286 95.2799,44.2952 91.5,41.5C 91.5,41.1667 91.5,40.8333 91.5,40.5C 88.222,39.6099 84.8887,38.6099 81.5,37.5C 81.5,36.8333 81.1667,36.5 80.5,36.5C 81.0296,30.4212 80.0296,24.7546 77.5,19.5C 76.7261,18.8529 75.7261,18.5195 74.5,18.5C 70.0895,19.778 65.7561,20.778 61.5,21.5C 58.4281,21.8174 55.4281,21.4841 52.5,20.5C 47.8766,12.9007 42.5433,5.90068 36.5,-0.5 Z"/></g>
<g><path style="opacity:1" fill="#7f7553" d="M 61.5,21.5 C 65.7561,20.778 70.0895,19.778 74.5,18.5C 75.7261,18.5195 76.7261,18.8529 77.5,19.5C 78.6257,25.2607 79.6257,30.9274 80.5,36.5C 81.1667,36.5 81.5,36.8333 81.5,37.5C 84.239,40.0242 87.5724,41.0242 91.5,40.5C 91.5,40.8333 91.5,41.1667 91.5,41.5C 93.452,43.452 95.452,45.452 97.5,47.5C 99.396,48.4656 101.396,48.7989 103.5,48.5C 105.156,50.0603 107.156,51.0603 109.5,51.5C 115.562,56.0923 121.228,61.0923 126.5,66.5C 127.057,69.0499 128.39,71.0499 130.5,72.5C 131.15,74.4352 131.483,76.4352 131.5,78.5C 131.539,79.5832 131.873,80.5832 132.5,81.5C 112.483,81.8398 92.8162,82.8398 73.5,84.5C 49.5,84.5 25.5,84.5 1.5,84.5C 2.83082,79.1769 2.83082,73.8436 1.5,68.5C 2.63912,64.2289 4.30579,60.2289 6.5,56.5C 7.15149,55.9094 7.81815,55.2427 8.5,54.5C 10.0052,46.1864 8.00525,38.853 2.5,32.5C 2.16667,32.5 1.83333,32.5 1.5,32.5C 1.46056,31.4168 1.12723,30.4168 0.5,29.5C 12.1372,20.1967 23.4705,10.53 34.5,0.5C 41.3654,6.58434 47.0321,13.5843 51.5,21.5C 54.9798,22.8056 58.3132,22.8056 61.5,21.5 Z"/></g>
<g><path style="opacity:1" fill="#b1aeae" d="M 32.5,-0.5 C 33.8333,-0.5 35.1667,-0.5 36.5,-0.5C 42.5433,5.90068 47.8766,12.9007 52.5,20.5C 55.4281,21.4841 58.4281,21.8174 61.5,21.5C 58.3132,22.8056 54.9798,22.8056 51.5,21.5C 47.0321,13.5843 41.3654,6.58434 34.5,0.5C 23.4705,10.53 12.1372,20.1967 0.5,29.5C 1.12723,30.4168 1.46056,31.4168 1.5,32.5C 0.833333,32.1667 0.166667,31.8333 -0.5,31.5C -0.5,30.1667 -0.5,28.8333 -0.5,27.5C 11.4407,19.2219 22.4407,9.88861 32.5,-0.5 Z"/></g>
<g><path style="opacity:1" fill="#a8a5a6" d="M 77.5,19.5 C 80.0296,24.7546 81.0296,30.4212 80.5,36.5C 79.6257,30.9274 78.6257,25.2607 77.5,19.5 Z"/></g>
<g><path style="opacity:1" fill="#fefefe" d="M -0.5,31.5 C 0.166667,31.8333 0.833333,32.1667 1.5,32.5C 1.83333,32.5 2.16667,32.5 2.5,32.5C 3.2621,35.9872 4.42876,39.3206 6,42.5C 6.49915,47.1548 6.66582,51.8215 6.5,56.5C 4.92558,56.9371 3.75891,57.9371 3,59.5C 1.96833,61.9944 0.801668,64.3277 -0.5,66.5C -0.5,54.8333 -0.5,43.1667 -0.5,31.5 Z"/></g>
<g><path style="opacity:1" fill="#7d786d" d="M 2.5,32.5 C 8.00525,38.853 10.0052,46.1864 8.5,54.5C 7.81815,55.2427 7.15149,55.9094 6.5,56.5C 6.66582,51.8215 6.49915,47.1548 6,42.5C 4.42876,39.3206 3.2621,35.9872 2.5,32.5 Z"/></g>
<g><path style="opacity:1" fill="#bababa" d="M 81.5,37.5 C 84.8887,38.6099 88.222,39.6099 91.5,40.5C 87.5724,41.0242 84.239,40.0242 81.5,37.5 Z"/></g>
<g><path style="opacity:1" fill="#b6b6b6" d="M 91.5,41.5 C 95.2799,44.2952 99.2799,46.6286 103.5,48.5C 101.396,48.7989 99.396,48.4656 97.5,47.5C 95.452,45.452 93.452,43.452 91.5,41.5 Z"/></g>
<g><path style="opacity:1" fill="#b3b3b2" d="M 109.5,51.5 C 110.978,51.238 112.311,51.5713 113.5,52.5C 116.366,55.7442 119.699,58.4109 123.5,60.5C 124.986,62.3016 125.986,64.3016 126.5,66.5C 121.228,61.0923 115.562,56.0923 109.5,51.5 Z"/></g>
<g><path style="opacity:1" fill="#807d74" d="M 6.5,56.5 C 4.30579,60.2289 2.63912,64.2289 1.5,68.5C 2.83082,73.8436 2.83082,79.1769 1.5,84.5C 0.833333,79.1667 0.166667,73.8333 -0.5,68.5C -0.5,67.8333 -0.5,67.1667 -0.5,66.5C 0.801668,64.3277 1.96833,61.9944 3,59.5C 3.75891,57.9371 4.92558,56.9371 6.5,56.5 Z"/></g>
<g><path style="opacity:1" fill="#b0aeae" d="M 126.5,66.5 C 128.63,67.9641 129.963,69.9641 130.5,72.5C 128.39,71.0499 127.057,69.0499 126.5,66.5 Z"/></g>
<g><path style="opacity:1" fill="#c0bfbf" d="M -0.5,68.5 C 0.166667,73.8333 0.833333,79.1667 1.5,84.5C 25.5,84.5 49.5,84.5 73.5,84.5C 93.5,84.5 113.5,84.5 133.5,84.5C 133.975,81.9179 133.308,79.9179 131.5,78.5C 131.483,76.4352 131.15,74.4352 130.5,72.5C 131.691,74.3268 133.025,75.9934 134.5,77.5C 134.5,80.1667 134.5,82.8333 134.5,85.5C 89.5,85.5 44.5,85.5 -0.5,85.5C -0.5,79.8333 -0.5,74.1667 -0.5,68.5 Z"/></g>
<g><path style="opacity:1" fill="#76705f" d="M 131.5,78.5 C 133.308,79.9179 133.975,81.9179 133.5,84.5C 113.5,84.5 93.5,84.5 73.5,84.5C 92.8162,82.8398 112.483,81.8398 132.5,81.5C 131.873,80.5832 131.539,79.5832 131.5,78.5 Z"/></g>
</svg>
