<?xml version="1.0" encoding="UTF-8"?>
<!DOCTYPE svg PUBLIC "-//W3C//DTD SVG 1.1//EN" "http://www.w3.org/Graphics/SVG/1.1/DTD/svg11.dtd">
<svg xmlns="http://www.w3.org/2000/svg" version="1.1" width="79px" height="86px" style="shape-rendering:geometricPrecision; text-rendering:geometricPrecision; image-rendering:optimizeQuality; fill-rule:evenodd; clip-rule:evenodd" xmlns:xlink="http://www.w3.org/1999/xlink">
<g><path style="opacity:1" fill="#de6faa" d="M 78.5,32.5 C 78.5,33.5 78.5,34.5 78.5,35.5C 76.919,39.7197 75.5857,44.053 74.5,48.5C 72.9261,50.1016 72.2594,52.1016 72.5,54.5C 71.7927,60.0507 70.4594,65.384 68.5,70.5C 67.3356,73.9967 66.0023,77.33 64.5,80.5C 61.6146,80.8064 58.9479,80.4731 56.5,79.5C 54.0221,78.8359 51.3555,78.5025 48.5,78.5C 45.4098,78.5217 42.7432,79.1883 40.5,80.5C 38.5355,81.7817 36.5355,83.115 34.5,84.5C 29.7495,81.6568 26.4162,77.6568 24.5,72.5C 23.2034,70.2024 21.5368,68.2024 19.5,66.5C 17.8007,66.4729 16.4674,65.8062 15.5,64.5C 15.1667,63.1667 14.8333,61.8333 14.5,60.5C 15.6935,60.0296 16.3601,59.0296 16.5,57.5C 15.4911,54.2802 13.4911,51.9468 10.5,50.5C 10.1667,50.5 9.83333,50.5 9.5,50.5C 7.55148,48.5221 5.55148,46.5221 3.5,44.5C 2.5,44.5 1.5,44.5 0.5,44.5C 0.5,43.1667 0.5,41.8333 0.5,40.5C 5.34144,37.8087 9.84144,34.4753 14,30.5C 15.2888,32.0854 16.7888,33.4187 18.5,34.5C 20.8807,33.1302 23.214,31.7968 25.5,30.5C 27.1336,29.4188 28.467,28.0855 29.5,26.5C 33.0362,24.8937 36.0362,22.5603 38.5,19.5C 37.6628,17.1558 36.3294,15.1558 34.5,13.5C 35.548,12.452 36.548,11.452 37.5,10.5C 39.1667,8.83333 40.8333,7.16667 42.5,5.5C 44.1634,3.50962 46.1634,1.84296 48.5,0.5C 53.1667,3.5 57.8333,6.5 62.5,9.5C 67.6316,17.4739 72.9649,25.1406 78.5,32.5 Z"/></g>
<g><path style="opacity:1" fill="#fdfcfc" d="M -0.5,-0.5 C 25.8333,-0.5 52.1667,-0.5 78.5,-0.5C 78.5,10.5 78.5,21.5 78.5,32.5C 72.9649,25.1406 67.6316,17.4739 62.5,9.5C 57.8333,6.5 53.1667,3.5 48.5,0.5C 46.1634,1.84296 44.1634,3.50962 42.5,5.5C 39.5,5.83333 37.8333,7.5 37.5,10.5C 36.548,11.452 35.548,12.452 34.5,13.5C 36.3294,15.1558 37.6628,17.1558 38.5,19.5C 36.0362,22.5603 33.0362,24.8937 29.5,26.5C 28.2921,27.2341 26.9587,27.5674 25.5,27.5C 25.5,28.5 25.5,29.5 25.5,30.5C 23.214,31.7968 20.8807,33.1302 18.5,34.5C 16.7888,33.4187 15.2888,32.0854 14,30.5C 9.84144,34.4753 5.34144,37.8087 0.5,40.5C 0.5,41.8333 0.5,43.1667 0.5,44.5C 1.5,44.5 2.5,44.5 3.5,44.5C 4.13395,47.8007 6.13395,49.8007 9.5,50.5C 9.83333,50.5 10.1667,50.5 10.5,50.5C 10.5,51.5 10.5,52.5 10.5,53.5C 14.715,54.2679 16.0483,56.6012 14.5,60.5C 13.1472,62.1284 13.4805,63.4617 15.5,64.5C 16.4674,65.8062 17.8007,66.4729 19.5,66.5C 20.0545,69.3909 21.7211,71.3909 24.5,72.5C 26.4162,77.6568 29.7495,81.6568 34.5,84.5C 36.5355,83.115 38.5355,81.7817 40.5,80.5C 45.7401,79.5509 51.0735,79.2175 56.5,79.5C 58.9479,80.4731 61.6146,80.8064 64.5,80.5C 65.209,81.404 66.209,81.7373 67.5,81.5C 67.423,77.7852 67.7564,74.1185 68.5,70.5C 70.4594,65.384 71.7927,60.0507 72.5,54.5C 73.7384,52.7857 74.405,50.7857 74.5,48.5C 75.5857,44.053 76.919,39.7197 78.5,35.5C 78.5,52.1667 78.5,68.8333 78.5,85.5C 52.1667,85.5 25.8333,85.5 -0.5,85.5C -0.5,56.8333 -0.5,28.1667 -0.5,-0.5 Z"/></g>
<g><path style="opacity:1" fill="#ccaebe" d="M 29.5,26.5 C 28.467,28.0855 27.1336,29.4188 25.5,30.5C 25.5,29.5 25.5,28.5 25.5,27.5C 26.9587,27.5674 28.2921,27.2341 29.5,26.5 Z"/></g>
<g><path style="opacity:1" fill="#cfbdc7" d="M 42.5,5.5 C 40.8333,7.16667 39.1667,8.83333 37.5,10.5C 37.8333,7.5 39.5,5.83333 42.5,5.5 Z"/></g>
<g><path style="opacity:1" fill="#cfbcc6" d="M 3.5,44.5 C 5.55148,46.5221 7.55148,48.5221 9.5,50.5C 6.13395,49.8007 4.13395,47.8007 3.5,44.5 Z"/></g>
<g><path style="opacity:1" fill="#c799b1" d="M 74.5,48.5 C 74.405,50.7857 73.7384,52.7857 72.5,54.5C 72.2594,52.1016 72.9261,50.1016 74.5,48.5 Z"/></g>
<g><path style="opacity:1" fill="#ceb5c2" d="M 10.5,50.5 C 13.4911,51.9468 15.4911,54.2802 16.5,57.5C 16.3601,59.0296 15.6935,60.0296 14.5,60.5C 16.0483,56.6012 14.715,54.2679 10.5,53.5C 10.5,52.5 10.5,51.5 10.5,50.5 Z"/></g>
<g><path style="opacity:1" fill="#c59ab1" d="M 14.5,60.5 C 14.8333,61.8333 15.1667,63.1667 15.5,64.5C 13.4805,63.4617 13.1472,62.1284 14.5,60.5 Z"/></g>
<g><path style="opacity:1" fill="#d0c2ca" d="M 19.5,66.5 C 21.5368,68.2024 23.2034,70.2024 24.5,72.5C 21.7211,71.3909 20.0545,69.3909 19.5,66.5 Z"/></g>
<g><path style="opacity:1" fill="#c98fae" d="M 68.5,70.5 C 67.7564,74.1185 67.423,77.7852 67.5,81.5C 66.209,81.7373 65.209,81.404 64.5,80.5C 66.0023,77.33 67.3356,73.9967 68.5,70.5 Z"/></g>
<g><path style="opacity:1" fill="#d3bbc8" d="M 56.5,79.5 C 51.0735,79.2175 45.7401,79.5509 40.5,80.5C 42.7432,79.1883 45.4098,78.5217 48.5,78.5C 51.3555,78.5025 54.0221,78.8359 56.5,79.5 Z"/></g>
</svg>
