<?xml version="1.0" encoding="UTF-8"?>
<!DOCTYPE svg PUBLIC "-//W3C//DTD SVG 1.1//EN" "http://www.w3.org/Graphics/SVG/1.1/DTD/svg11.dtd">
<svg xmlns="http://www.w3.org/2000/svg" version="1.1" width="141px" height="110px" style="shape-rendering:geometricPrecision; text-rendering:geometricPrecision; image-rendering:optimizeQuality; fill-rule:evenodd; clip-rule:evenodd" xmlns:xlink="http://www.w3.org/1999/xlink">
<g><path style="opacity:1" fill="#fefffe" d="M -0.5,-0.5 C 0.5,-0.5 1.5,-0.5 2.5,-0.5C 2.32588,1.86105 1.99255,4.19438 1.5,6.5C 0.833333,7.5 0.166667,8.5 -0.5,9.5C -0.5,6.16667 -0.5,2.83333 -0.5,-0.5 Z"/></g>
<g><path style="opacity:1" fill="#cecfd0" d="M 2.5,-0.5 C 3.5,-0.5 4.5,-0.5 5.5,-0.5C 5.5,-0.166667 5.5,0.166667 5.5,0.5C 3.87857,2.2299 2.54524,4.2299 1.5,6.5C 1.99255,4.19438 2.32588,1.86105 2.5,-0.5 Z"/></g>
<g><path style="opacity:1" fill="#fefffe" d="M 5.5,0.5 C 5.5,0.166667 5.5,-0.166667 5.5,-0.5C 44.1667,-0.5 82.8333,-0.5 121.5,-0.5C 121.389,0.117425 121.056,0.617425 120.5,1C 108.018,4.26304 95.3518,6.42971 82.5,7.5C 74.1644,6.82865 65.8311,6.16198 57.5,5.5C 54.0613,5.74707 50.728,5.41373 47.5,4.5C 37.02,3.01548 26.3533,2.01548 15.5,1.5C 12.0613,1.74707 8.72797,1.41373 5.5,0.5 Z"/></g>
<g><path style="opacity:1" fill="#fefffe" d="M 131.5,-0.5 C 134.5,-0.5 137.5,-0.5 140.5,-0.5C 140.5,29.1667 140.5,58.8333 140.5,88.5C 139.232,79.4912 137.899,70.4912 136.5,61.5C 136.5,61.1667 136.5,60.8333 136.5,60.5C 135.705,43.6014 134.039,26.9347 131.5,10.5C 131.5,6.83333 131.5,3.16667 131.5,-0.5 Z"/></g>
<g><path style="opacity:1" fill="#83b7d6" d="M 5.5,0.5 C 8.33732,2.40229 11.6707,3.06896 15.5,2.5C 25.8148,3.3996 36.1482,4.06627 46.5,4.5C 46.6107,5.11742 46.944,5.61742 47.5,6C 50.8168,6.49834 54.1501,6.66501 57.5,6.5C 65.6626,7.85719 73.9959,8.52386 82.5,8.5C 86.8333,8.16667 91.1667,7.83333 95.5,7.5C 107.096,4.68311 118.763,2.34977 130.5,0.5C 130.183,4.70159 130.517,8.70159 131.5,12.5C 132.735,28.689 134.402,44.689 136.5,60.5C 136.5,60.8333 136.5,61.1667 136.5,61.5C 137.566,74.4949 138.566,87.4949 139.5,100.5C 134.661,101.214 129.994,102.214 125.5,103.5C 123.585,103.216 121.919,103.549 120.5,104.5C 99.3458,104.305 78.3458,104.972 57.5,106.5C 51.0738,105.88 45.0738,106.547 39.5,108.5C 31.1667,108.5 22.8333,108.5 14.5,108.5C 11.2121,96.0137 8.87872,83.3471 7.5,70.5C 10.5635,62.198 11.7302,53.5313 11,44.5C 8.05666,42.8823 5.55666,40.8823 3.5,38.5C 3.5,37.1667 3.5,35.8333 3.5,34.5C 5.79642,33.267 7.12975,31.267 7.5,28.5C 8.53921,24.6579 8.53921,20.6579 7.5,16.5C 5.16667,15.8333 2.83333,15.1667 0.5,14.5C 0.833333,11.8333 1.16667,9.16667 1.5,6.5C 2.54524,4.2299 3.87857,2.2299 5.5,0.5 Z"/></g>
<g><path style="opacity:1" fill="#a3bac7" d="M 5.5,0.5 C 8.72797,1.41373 12.0613,1.74707 15.5,1.5C 15.5,1.83333 15.5,2.16667 15.5,2.5C 11.6707,3.06896 8.33732,2.40229 5.5,0.5 Z"/></g>
<g><path style="opacity:1" fill="#bbc6cd" d="M 15.5,2.5 C 15.5,2.16667 15.5,1.83333 15.5,1.5C 26.3533,2.01548 37.02,3.01548 47.5,4.5C 47.1667,4.5 46.8333,4.5 46.5,4.5C 36.1482,4.06627 25.8148,3.3996 15.5,2.5 Z"/></g>
<g><path style="opacity:1" fill="#b5c2ca" d="M 121.5,-0.5 C 124.833,-0.5 128.167,-0.5 131.5,-0.5C 131.5,3.16667 131.5,6.83333 131.5,10.5C 131.5,11.1667 131.5,11.8333 131.5,12.5C 130.517,8.70159 130.183,4.70159 130.5,0.5C 118.763,2.34977 107.096,4.68311 95.5,7.5C 91.1667,7.83333 86.8333,8.16667 82.5,8.5C 73.9959,8.52386 65.6626,7.85719 57.5,6.5C 57.5,6.16667 57.5,5.83333 57.5,5.5C 65.8311,6.16198 74.1644,6.82865 82.5,7.5C 95.3518,6.42971 108.018,4.26304 120.5,1C 121.056,0.617425 121.389,0.117425 121.5,-0.5 Z"/></g>
<g><path style="opacity:1" fill="#a3bac6" d="M 46.5,4.5 C 46.8333,4.5 47.1667,4.5 47.5,4.5C 50.728,5.41373 54.0613,5.74707 57.5,5.5C 57.5,5.83333 57.5,6.16667 57.5,6.5C 54.1501,6.66501 50.8168,6.49834 47.5,6C 46.944,5.61742 46.6107,5.11742 46.5,4.5 Z"/></g>
<g><path style="opacity:1" fill="#fefefe" d="M -0.5,15.5 C 1.83333,16.1667 4.16667,16.8333 6.5,17.5C 7.11425,21.1352 7.44759,24.8019 7.5,28.5C 5.68403,30.1184 4.3507,32.1184 3.5,34.5C 3.5,35.8333 3.5,37.1667 3.5,38.5C 4.53439,41.8607 6.70106,44.194 10,45.5C 9.98923,53.891 9.1559,62.2243 7.5,70.5C 6.36594,72.9664 6.19927,75.633 7,78.5C 8.97816,88.8917 11.1448,99.225 13.5,109.5C 8.83333,109.5 4.16667,109.5 -0.5,109.5C -0.5,78.1667 -0.5,46.8333 -0.5,15.5 Z"/></g>
<g><path style="opacity:1" fill="#c2c7cb" d="M 131.5,10.5 C 134.039,26.9347 135.705,43.6014 136.5,60.5C 134.402,44.689 132.735,28.689 131.5,12.5C 131.5,11.8333 131.5,11.1667 131.5,10.5 Z"/></g>
<g><path style="opacity:1" fill="#b9c1c7" d="M 1.5,6.5 C 1.16667,9.16667 0.833333,11.8333 0.5,14.5C 2.83333,15.1667 5.16667,15.8333 7.5,16.5C 8.53921,20.6579 8.53921,24.6579 7.5,28.5C 7.44759,24.8019 7.11425,21.1352 6.5,17.5C 4.16667,16.8333 1.83333,16.1667 -0.5,15.5C -0.5,13.5 -0.5,11.5 -0.5,9.5C 0.166667,8.5 0.833333,7.5 1.5,6.5 Z"/></g>
<g><path style="opacity:1" fill="#c1c7cb" d="M 7.5,28.5 C 7.12975,31.267 5.79642,33.267 3.5,34.5C 4.3507,32.1184 5.68403,30.1184 7.5,28.5 Z"/></g>
<g><path style="opacity:1" fill="#c6cacd" d="M 3.5,38.5 C 5.55666,40.8823 8.05666,42.8823 11,44.5C 11.7302,53.5313 10.5635,62.198 7.5,70.5C 9.1559,62.2243 9.98923,53.891 10,45.5C 6.70106,44.194 4.53439,41.8607 3.5,38.5 Z"/></g>
<g><path style="opacity:1" fill="#c3c9cd" d="M 136.5,61.5 C 137.899,70.4912 139.232,79.4912 140.5,88.5C 140.5,92.8333 140.5,97.1667 140.5,101.5C 135.57,102.595 130.57,103.261 125.5,103.5C 129.994,102.214 134.661,101.214 139.5,100.5C 138.566,87.4949 137.566,74.4949 136.5,61.5 Z"/></g>
<g><path style="opacity:1" fill="#c6cacd" d="M 7.5,70.5 C 8.87872,83.3471 11.2121,96.0137 14.5,108.5C 22.8333,108.5 31.1667,108.5 39.5,108.5C 39.8333,108.5 40.1667,108.5 40.5,108.5C 40.5,108.833 40.5,109.167 40.5,109.5C 31.5,109.5 22.5,109.5 13.5,109.5C 11.1448,99.225 8.97816,88.8917 7,78.5C 6.19927,75.633 6.36594,72.9664 7.5,70.5 Z"/></g>
<g><path style="opacity:1" fill="#fefffe" d="M 140.5,101.5 C 140.5,104.167 140.5,106.833 140.5,109.5C 107.167,109.5 73.8333,109.5 40.5,109.5C 40.5,109.167 40.5,108.833 40.5,108.5C 45.9753,107.511 51.642,107.178 57.5,107.5C 78.5249,106.333 99.5249,105.333 120.5,104.5C 121.919,103.549 123.585,103.216 125.5,103.5C 130.57,103.261 135.57,102.595 140.5,101.5 Z"/></g>
<g><path style="opacity:1" fill="#b8c5cc" d="M 120.5,104.5 C 99.5249,105.333 78.5249,106.333 57.5,107.5C 57.5,107.167 57.5,106.833 57.5,106.5C 78.3458,104.972 99.3458,104.305 120.5,104.5 Z"/></g>
<g><path style="opacity:1" fill="#a2bac7" d="M 57.5,106.5 C 57.5,106.833 57.5,107.167 57.5,107.5C 51.642,107.178 45.9753,107.511 40.5,108.5C 40.1667,108.5 39.8333,108.5 39.5,108.5C 45.0738,106.547 51.0738,105.88 57.5,106.5 Z"/></g>
</svg>
