<?xml version="1.0" encoding="UTF-8"?>
<!DOCTYPE svg PUBLIC "-//W3C//DTD SVG 1.1//EN" "http://www.w3.org/Graphics/SVG/1.1/DTD/svg11.dtd">
<svg xmlns="http://www.w3.org/2000/svg" version="1.1" width="78px" height="110px" style="shape-rendering:geometricPrecision; text-rendering:geometricPrecision; image-rendering:optimizeQuality; fill-rule:evenodd; clip-rule:evenodd" xmlns:xlink="http://www.w3.org/1999/xlink">
<g><path style="opacity:1" fill="#fbfbfb" d="M -0.5,-0.5 C 25.5,-0.5 51.5,-0.5 77.5,-0.5C 77.5,36.1667 77.5,72.8333 77.5,109.5C 53.1667,109.5 28.8333,109.5 4.5,109.5C 4.5,109.167 4.5,108.833 4.5,108.5C 6.5,108.5 8.5,108.5 10.5,108.5C 15.483,107.99 20.1497,106.657 24.5,104.5C 26.1667,104.5 27.8333,104.5 29.5,104.5C 38.1391,103.376 46.4724,101.376 54.5,98.5C 56.1667,98.5 57.8333,98.5 59.5,98.5C 64.8179,98.0417 69.8179,96.7083 74.5,94.5C 75.4124,92.8227 76.0791,90.9893 76.5,89C 74.8191,84.3883 74.1525,79.5549 74.5,74.5C 75.2549,71.9471 75.9216,69.2804 76.5,66.5C 75.1807,56.895 74.3473,47.2284 74,37.5C 73.6174,36.944 73.1174,36.6107 72.5,36.5C 71.9084,33.8728 71.5751,31.2062 71.5,28.5C 73.0233,26.1042 74.0233,23.4375 74.5,20.5C 74.539,17.911 73.539,15.911 71.5,14.5C 68.5118,12.727 65.1785,12.0604 61.5,12.5C 59.1667,13.8333 56.8333,13.8333 54.5,12.5C 47.7284,11.3794 41.0617,10.046 34.5,8.5C 31.3197,6.11156 27.6531,4.77823 23.5,4.5C 22.5,4.5 21.5,4.5 20.5,4.5C 16.8854,2.25694 12.8854,0.923609 8.5,0.5C 5.83333,0.5 3.16667,0.5 0.5,0.5C 0.89578,8.58358 4.89578,14.2502 12.5,17.5C 17.5266,24.265 19.5266,31.9317 18.5,40.5C 17.5661,43.6557 16.8994,46.9891 16.5,50.5C 16.5,53.8333 16.5,57.1667 16.5,60.5C 15.6223,64.3357 14.9557,68.3357 14.5,72.5C 14.3617,79.8827 13.695,87.2161 12.5,94.5C 10.1535,97.8429 7.48681,100.843 4.5,103.5C 2.67761,103.831 1.01094,104.498 -0.5,105.5C -0.5,70.1667 -0.5,34.8333 -0.5,-0.5 Z"/></g>
<g><path style="opacity:1" fill="#ec56f0" d="M 8.5,0.5 C 12.1047,2.4164 16.1047,3.74974 20.5,4.5C 21.5,4.5 22.5,4.5 23.5,4.5C 26.8209,6.26591 30.4876,7.59924 34.5,8.5C 41.0617,10.046 47.7284,11.3794 54.5,12.5C 55.1522,13.7251 56.3189,14.3917 58,14.5C 59.6811,14.3917 60.8478,13.7251 61.5,12.5C 65.1785,12.0604 68.5118,12.727 71.5,14.5C 71.9925,16.8185 72.9925,18.8185 74.5,20.5C 74.0233,23.4375 73.0233,26.1042 71.5,28.5C 70.0829,31.3404 70.4162,34.007 72.5,36.5C 73.1174,36.6107 73.6174,36.944 74,37.5C 74.3473,47.2284 75.1807,56.895 76.5,66.5C 74.631,68.6353 73.9644,71.3019 74.5,74.5C 74.1525,79.5549 74.8191,84.3883 76.5,89C 76.0791,90.9893 75.4124,92.8227 74.5,94.5C 69.1148,95.2296 64.1148,96.5629 59.5,98.5C 57.8333,98.5 56.1667,98.5 54.5,98.5C 45.7917,99.8995 37.4584,101.9 29.5,104.5C 27.8333,104.5 26.1667,104.5 24.5,104.5C 19.4267,105.17 14.7601,106.503 10.5,108.5C 8.5,108.5 6.5,108.5 4.5,108.5C 3.02218,108.762 1.68884,108.429 0.5,107.5C 1.88137,106.119 3.21471,104.785 4.5,103.5C 7.48681,100.843 10.1535,97.8429 12.5,94.5C 13.695,87.2161 14.3617,79.8827 14.5,72.5C 15.2216,72.0825 15.7216,71.4158 16,70.5C 16.4983,67.1832 16.665,63.8499 16.5,60.5C 16.5,57.1667 16.5,53.8333 16.5,50.5C 17.2216,50.0825 17.7216,49.4158 18,48.5C 18.4974,45.854 18.6641,43.1873 18.5,40.5C 19.5266,31.9317 17.5266,24.265 12.5,17.5C 4.89578,14.2502 0.89578,8.58358 0.5,0.5C 3.16667,0.5 5.83333,0.5 8.5,0.5 Z"/></g>
<g><path style="opacity:1" fill="#d7bfd7" d="M 8.5,0.5 C 12.8854,0.923609 16.8854,2.25694 20.5,4.5C 16.1047,3.74974 12.1047,2.4164 8.5,0.5 Z"/></g>
<g><path style="opacity:1" fill="#d6b7d6" d="M 23.5,4.5 C 27.6531,4.77823 31.3197,6.11156 34.5,8.5C 30.4876,7.59924 26.8209,6.26591 23.5,4.5 Z"/></g>
<g><path style="opacity:1" fill="#d094d2" d="M 54.5,12.5 C 56.8333,13.8333 59.1667,13.8333 61.5,12.5C 60.8478,13.7251 59.6811,14.3917 58,14.5C 56.3189,14.3917 55.1522,13.7251 54.5,12.5 Z"/></g>
<g><path style="opacity:1" fill="#ca9dcb" d="M 71.5,14.5 C 73.539,15.911 74.539,17.911 74.5,20.5C 72.9925,18.8185 71.9925,16.8185 71.5,14.5 Z"/></g>
<g><path style="opacity:1" fill="#d086d1" d="M 71.5,28.5 C 71.5751,31.2062 71.9084,33.8728 72.5,36.5C 70.4162,34.007 70.0829,31.3404 71.5,28.5 Z"/></g>
<g><path style="opacity:1" fill="#d183d2" d="M 18.5,40.5 C 18.6641,43.1873 18.4974,45.854 18,48.5C 17.7216,49.4158 17.2216,50.0825 16.5,50.5C 16.8994,46.9891 17.5661,43.6557 18.5,40.5 Z"/></g>
<g><path style="opacity:1" fill="#d085d3" d="M 16.5,60.5 C 16.665,63.8499 16.4983,67.1832 16,70.5C 15.7216,71.4158 15.2216,72.0825 14.5,72.5C 14.9557,68.3357 15.6223,64.3357 16.5,60.5 Z"/></g>
<g><path style="opacity:1" fill="#cf8ed0" d="M 76.5,66.5 C 75.9216,69.2804 75.2549,71.9471 74.5,74.5C 73.9644,71.3019 74.631,68.6353 76.5,66.5 Z"/></g>
<g><path style="opacity:1" fill="#d7b7d7" d="M 74.5,94.5 C 69.8179,96.7083 64.8179,98.0417 59.5,98.5C 64.1148,96.5629 69.1148,95.2296 74.5,94.5 Z"/></g>
<g><path style="opacity:1" fill="#d7bbd7" d="M 54.5,98.5 C 46.4724,101.376 38.1391,103.376 29.5,104.5C 37.4584,101.9 45.7917,99.8995 54.5,98.5 Z"/></g>
<g><path style="opacity:1" fill="#d1aed1" d="M 4.5,103.5 C 3.21471,104.785 1.88137,106.119 0.5,107.5C 1.68884,108.429 3.02218,108.762 4.5,108.5C 4.5,108.833 4.5,109.167 4.5,109.5C 2.83333,109.5 1.16667,109.5 -0.5,109.5C -0.5,108.167 -0.5,106.833 -0.5,105.5C 1.01094,104.498 2.67761,103.831 4.5,103.5 Z"/></g>
<g><path style="opacity:1" fill="#d5b6d5" d="M 24.5,104.5 C 20.1497,106.657 15.483,107.99 10.5,108.5C 14.7601,106.503 19.4267,105.17 24.5,104.5 Z"/></g>
</svg>
