<?xml version="1.0" encoding="UTF-8"?>
<!DOCTYPE svg PUBLIC "-//W3C//DTD SVG 1.1//EN" "http://www.w3.org/Graphics/SVG/1.1/DTD/svg11.dtd">
<svg xmlns="http://www.w3.org/2000/svg" version="1.1" width="76px" height="70px" style="shape-rendering:geometricPrecision; text-rendering:geometricPrecision; image-rendering:optimizeQuality; fill-rule:evenodd; clip-rule:evenodd" xmlns:xlink="http://www.w3.org/1999/xlink">
<g><path style="opacity:1" fill="#fbfbfb" d="M -0.5,-0.5 C 24.8333,-0.5 50.1667,-0.5 75.5,-0.5C 75.5,22.8333 75.5,46.1667 75.5,69.5C 50.1667,69.5 24.8333,69.5 -0.5,69.5C -0.5,46.1667 -0.5,22.8333 -0.5,-0.5 Z"/></g>
<g><path style="opacity:1" fill="#52ac3f" d="M 47.5,60.5 C 46.8485,61.0906 46.1818,61.7573 45.5,62.5C 42.8333,59.8333 40.1667,57.1667 37.5,54.5C 36.8933,54.6236 36.56,54.9569 36.5,55.5C 32.2041,59.961 27.7041,64.2943 23,68.5C 17.7313,64.7355 12.8979,60.4022 8.5,55.5C 5.91355,54.52 3.24688,54.1866 0.5,54.5C 0.336688,52.1432 0.503354,49.8098 1,47.5C 1.94008,44.0917 3.10674,40.7583 4.5,37.5C 16.9114,24.0854 30.2447,11.7521 44.5,0.5C 48.7998,3.79811 52.7998,7.46477 56.5,11.5C 62.8816,18.88 68.8816,26.5467 74.5,34.5C 65.2024,42.7965 56.2024,51.4632 47.5,60.5 Z"/></g>
<g><path style="opacity:1" fill="#c4cdc2" d="M 36.5,55.5 C 36.56,54.9569 36.8933,54.6236 37.5,54.5C 40.1667,57.1667 42.8333,59.8333 45.5,62.5C 46.1818,61.7573 46.8485,61.0906 47.5,60.5C 47.5,61.5 47.5,62.5 47.5,63.5C 46.0222,63.762 44.6888,63.4287 43.5,62.5C 41.1186,60.1186 38.7853,57.7853 36.5,55.5 Z"/></g>
</svg>
