<?xml version="1.0" encoding="UTF-8"?>
<!DOCTYPE svg PUBLIC "-//W3C//DTD SVG 1.1//EN" "http://www.w3.org/Graphics/SVG/1.1/DTD/svg11.dtd">
<svg xmlns="http://www.w3.org/2000/svg" version="1.1" width="67px" height="94px" style="shape-rendering:geometricPrecision; text-rendering:geometricPrecision; image-rendering:optimizeQuality; fill-rule:evenodd; clip-rule:evenodd" xmlns:xlink="http://www.w3.org/1999/xlink">
<g><path style="opacity:1" fill="#fdfdfd" d="M -0.5,-0.5 C 13.8333,-0.5 28.1667,-0.5 42.5,-0.5C 42.5,0.166667 42.5,0.833333 42.5,1.5C 42.1667,2.16667 41.8333,2.83333 41.5,3.5C 38.1179,6.22736 34.7845,8.89402 31.5,11.5C 27.3517,13.4486 23.685,16.1153 20.5,19.5C 18.0483,21.9742 15.3816,23.9742 12.5,25.5C 12.1667,26.5 11.5,27.1667 10.5,27.5C 9.50761,35.3159 9.17428,43.3159 9.5,51.5C 6.36074,51.5988 4.02741,52.9321 2.5,55.5C 1.19376,56.4674 0.527092,57.8007 0.5,59.5C 0.031076,62.3933 1.03108,64.3933 3.5,65.5C 4.23411,66.7079 4.56745,68.0413 4.5,69.5C 4.62057,72.1048 5.62057,74.1048 7.5,75.5C 9.05976,77.9535 10.0598,80.6202 10.5,83.5C 10.6206,86.1048 11.6206,88.1048 13.5,89.5C 13.5,89.8333 13.5,90.1667 13.5,90.5C 13.5,91.5 13.5,92.5 13.5,93.5C 8.83333,93.5 4.16667,93.5 -0.5,93.5C -0.5,62.1667 -0.5,30.8333 -0.5,-0.5 Z"/></g>
<g><path style="opacity:1" fill="#cccdc3" d="M 42.5,-0.5 C 44.8333,-0.5 47.1667,-0.5 49.5,-0.5C 49.4158,3.33087 50.0825,6.99754 51.5,10.5C 49.0237,7.71181 48.0237,4.37848 48.5,0.5C 46.3792,0.325255 44.3792,0.658588 42.5,1.5C 42.5,0.833333 42.5,0.166667 42.5,-0.5 Z"/></g>
<g><path style="opacity:1" fill="#fefffe" d="M 49.5,-0.5 C 55.1667,-0.5 60.8333,-0.5 66.5,-0.5C 66.5,11.5 66.5,23.5 66.5,35.5C 62.412,33.8198 58.0787,33.1532 53.5,33.5C 54.7706,27.5499 55.2706,21.5499 55,15.5C 54.5017,13.4556 53.335,12.1223 51.5,11.5C 51.5,11.1667 51.5,10.8333 51.5,10.5C 50.0825,6.99754 49.4158,3.33087 49.5,-0.5 Z"/></g>
<g><path style="opacity:1" fill="#cfdd83" d="M 51.5,10.5 C 51.5,10.8333 51.5,11.1667 51.5,11.5C 53.0525,13.942 54.0525,16.6087 54.5,19.5C 53.5056,24.4646 52.839,29.4646 52.5,34.5C 57.0787,34.1532 61.412,34.8198 65.5,36.5C 65.3686,40.9522 64.702,45.2856 63.5,49.5C 63.5,51.1667 63.5,52.8333 63.5,54.5C 62.0705,60.7204 60.7371,67.0537 59.5,73.5C 57.9652,74.7879 56.2985,74.7879 54.5,73.5C 52.8201,70.1401 51.1534,66.8068 49.5,63.5C 48.7904,61.2537 48.2904,58.9204 48,56.5C 47.6174,55.944 47.1174,55.6107 46.5,55.5C 45.8333,54.1667 45.1667,54.1667 44.5,55.5C 41.1414,56.1743 38.1414,57.5077 35.5,59.5C 31.6052,60.4624 27.9385,61.7957 24.5,63.5C 22.6231,64.6591 22.1231,66.3258 23,68.5C 24.6966,71.6717 26.5299,74.6717 28.5,77.5C 28.2291,79.3797 28.8958,80.713 30.5,81.5C 30.5,83.1667 30.5,84.8333 30.5,86.5C 24.9193,87.4658 19.7526,89.4658 15,92.5C 14.7216,91.5842 14.2216,90.9175 13.5,90.5C 13.5,90.1667 13.5,89.8333 13.5,89.5C 13.0879,87.1133 12.0879,85.1133 10.5,83.5C 10.0598,80.6202 9.05976,77.9535 7.5,75.5C 7.0879,73.1133 6.0879,71.1133 4.5,69.5C 4.56745,68.0413 4.23411,66.7079 3.5,65.5C 2.48615,63.4261 1.48615,61.4261 0.5,59.5C 0.527092,57.8007 1.19376,56.4674 2.5,55.5C 4.96809,53.9652 7.63475,52.9652 10.5,52.5C 10.5,44.1667 10.5,35.8333 10.5,27.5C 11.5,27.1667 12.1667,26.5 12.5,25.5C 16.6672,25.3157 19.3338,23.3157 20.5,19.5C 23.685,16.1153 27.3517,13.4486 31.5,11.5C 36.0102,10.3249 39.3436,7.65827 41.5,3.5C 41.8333,2.83333 42.1667,2.16667 42.5,1.5C 44.3792,0.658588 46.3792,0.325255 48.5,0.5C 48.0237,4.37848 49.0237,7.71181 51.5,10.5 Z"/></g>
<g><path style="opacity:1" fill="#cccec1" d="M 41.5,3.5 C 39.3436,7.65827 36.0102,10.3249 31.5,11.5C 34.7845,8.89402 38.1179,6.22736 41.5,3.5 Z"/></g>
<g><path style="opacity:1" fill="#cbcdc3" d="M 20.5,19.5 C 19.3338,23.3157 16.6672,25.3157 12.5,25.5C 15.3816,23.9742 18.0483,21.9742 20.5,19.5 Z"/></g>
<g><path style="opacity:1" fill="#cccdca" d="M 10.5,27.5 C 10.5,35.8333 10.5,44.1667 10.5,52.5C 7.63475,52.9652 4.96809,53.9652 2.5,55.5C 4.02741,52.9321 6.36074,51.5988 9.5,51.5C 9.17428,43.3159 9.50761,35.3159 10.5,27.5 Z"/></g>
<g><path style="opacity:1" fill="#cbccc3" d="M 51.5,11.5 C 53.335,12.1223 54.5017,13.4556 55,15.5C 55.2706,21.5499 54.7706,27.5499 53.5,33.5C 58.0787,33.1532 62.412,33.8198 66.5,35.5C 66.5,38.1667 66.5,40.8333 66.5,43.5C 66.0603,45.8439 65.0603,47.8439 63.5,49.5C 64.702,45.2856 65.3686,40.9522 65.5,36.5C 61.412,34.8198 57.0787,34.1532 52.5,34.5C 52.839,29.4646 53.5056,24.4646 54.5,19.5C 54.0525,16.6087 53.0525,13.942 51.5,11.5 Z"/></g>
<g><path style="opacity:1" fill="#fdfdfd" d="M 66.5,43.5 C 66.5,60.1667 66.5,76.8333 66.5,93.5C 49.8333,93.5 33.1667,93.5 16.5,93.5C 20.9975,90.3677 25.9975,88.3677 31.5,87.5C 31.7947,85.2646 31.4614,83.2646 30.5,81.5C 28.8958,80.713 28.2291,79.3797 28.5,77.5C 27.3012,73.6302 25.6345,69.9636 23.5,66.5C 24.1272,65.5832 24.4606,64.5832 24.5,63.5C 27.9385,61.7957 31.6052,60.4624 35.5,59.5C 39.0383,59.0241 42.0383,57.6907 44.5,55.5C 45.1667,54.1667 45.8333,54.1667 46.5,55.5C 46.6614,58.6799 47.6614,61.3465 49.5,63.5C 51.1534,66.8068 52.8201,70.1401 54.5,73.5C 56.2985,74.7879 57.9652,74.7879 59.5,73.5C 60.6935,73.0296 61.3601,72.0296 61.5,70.5C 62.6035,65.214 63.2702,59.8806 63.5,54.5C 63.5,52.8333 63.5,51.1667 63.5,49.5C 65.0603,47.8439 66.0603,45.8439 66.5,43.5 Z"/></g>
<g><path style="opacity:1" fill="#cecfc4" d="M 44.5,55.5 C 42.0383,57.6907 39.0383,59.0241 35.5,59.5C 38.1414,57.5077 41.1414,56.1743 44.5,55.5 Z"/></g>
<g><path style="opacity:1" fill="#cacbc4" d="M 0.5,59.5 C 1.48615,61.4261 2.48615,63.4261 3.5,65.5C 1.03108,64.3933 0.031076,62.3933 0.5,59.5 Z"/></g>
<g><path style="opacity:1" fill="#cacdbc" d="M 46.5,55.5 C 47.1174,55.6107 47.6174,55.944 48,56.5C 48.2904,58.9204 48.7904,61.2537 49.5,63.5C 47.6614,61.3465 46.6614,58.6799 46.5,55.5 Z"/></g>
<g><path style="opacity:1" fill="#cacac4" d="M 63.5,54.5 C 63.2702,59.8806 62.6035,65.214 61.5,70.5C 61.3601,72.0296 60.6935,73.0296 59.5,73.5C 60.7371,67.0537 62.0705,60.7204 63.5,54.5 Z"/></g>
<g><path style="opacity:1" fill="#cbccc5" d="M 4.5,69.5 C 6.0879,71.1133 7.0879,73.1133 7.5,75.5C 5.62057,74.1048 4.62057,72.1048 4.5,69.5 Z"/></g>
<g><path style="opacity:1" fill="#caccc0" d="M 24.5,63.5 C 24.4606,64.5832 24.1272,65.5832 23.5,66.5C 25.6345,69.9636 27.3012,73.6302 28.5,77.5C 26.5299,74.6717 24.6966,71.6717 23,68.5C 22.1231,66.3258 22.6231,64.6591 24.5,63.5 Z"/></g>
<g><path style="opacity:1" fill="#cccebf" d="M 10.5,83.5 C 12.0879,85.1133 13.0879,87.1133 13.5,89.5C 11.6206,88.1048 10.6206,86.1048 10.5,83.5 Z"/></g>
<g><path style="opacity:1" fill="#cdd0bf" d="M 30.5,81.5 C 31.4614,83.2646 31.7947,85.2646 31.5,87.5C 25.9975,88.3677 20.9975,90.3677 16.5,93.5C 15.5,93.5 14.5,93.5 13.5,93.5C 13.5,92.5 13.5,91.5 13.5,90.5C 14.2216,90.9175 14.7216,91.5842 15,92.5C 19.7526,89.4658 24.9193,87.4658 30.5,86.5C 30.5,84.8333 30.5,83.1667 30.5,81.5 Z"/></g>
</svg>
