<?xml version="1.0" encoding="UTF-8"?>
<!DOCTYPE svg PUBLIC "-//W3C//DTD SVG 1.1//EN" "http://www.w3.org/Graphics/SVG/1.1/DTD/svg11.dtd">
<svg xmlns="http://www.w3.org/2000/svg" version="1.1" width="106px" height="80px" style="shape-rendering:geometricPrecision; text-rendering:geometricPrecision; image-rendering:optimizeQuality; fill-rule:evenodd; clip-rule:evenodd" xmlns:xlink="http://www.w3.org/1999/xlink">
<g><path style="opacity:1" fill="#fcfcfc" d="M -0.5,-0.5 C 34.8333,-0.5 70.1667,-0.5 105.5,-0.5C 105.5,26.1667 105.5,52.8333 105.5,79.5C 104.833,79.5 104.167,79.5 103.5,79.5C 103.737,78.209 103.404,77.209 102.5,76.5C 102.054,71.9178 102.721,67.5845 104.5,63.5C 103.627,60.8825 102.961,58.2158 102.5,55.5C 103.314,52.7034 103.981,49.8701 104.5,47C 104.693,44.9919 104.026,43.4919 102.5,42.5C 99.2746,41.7632 95.9412,41.0965 92.5,40.5C 89.6226,37.6111 88.9559,34.1111 90.5,30C 88.7877,28.0772 87.4544,25.9106 86.5,23.5C 85.675,22.6143 84.675,22.281 83.5,22.5C 81.9421,18.9368 79.6088,15.9368 76.5,13.5C 72.9967,9.96948 71.6634,5.63614 72.5,0.5C 61.6765,2.0544 51.6765,5.88774 42.5,12C 30.7364,16.0864 19.0698,20.2531 7.5,24.5C 4.99017,24.9267 2.65683,25.5933 0.5,26.5C 0.61856,31.1902 1.95189,35.5235 4.5,39.5C 8.1337,44.6362 11.967,49.6362 16,54.5C 18.0253,62.3468 19.1919,70.3468 19.5,78.5C 37.5,78.5 55.5,78.5 73.5,78.5C 73.5,78.8333 73.5,79.1667 73.5,79.5C 48.8333,79.5 24.1667,79.5 -0.5,79.5C -0.5,52.8333 -0.5,26.1667 -0.5,-0.5 Z"/></g>
<g><path style="opacity:1" fill="#98364b" d="M 76.5,13.5 C 78.0579,17.0632 80.3912,20.0632 83.5,22.5C 84.675,22.281 85.675,22.6143 86.5,23.5C 87.4544,25.9106 88.7877,28.0772 90.5,30C 88.9559,34.1111 89.6226,37.6111 92.5,40.5C 95.3373,42.4023 98.6707,43.069 102.5,42.5C 104.026,43.4919 104.693,44.9919 104.5,47C 103.981,49.8701 103.314,52.7034 102.5,55.5C 102.961,58.2158 103.627,60.8825 104.5,63.5C 102.721,67.5845 102.054,71.9178 102.5,76.5C 93.2245,78.4733 83.5578,79.14 73.5,78.5C 55.5,78.5 37.5,78.5 19.5,78.5C 19.1919,70.3468 18.0253,62.3468 16,54.5C 11.967,49.6362 8.1337,44.6362 4.5,39.5C 1.95189,35.5235 0.61856,31.1902 0.5,26.5C 2.5273,26.6621 4.5273,26.4955 6.5,26C 7.05596,25.6174 7.38929,25.1174 7.5,24.5C 19.0698,20.2531 30.7364,16.0864 42.5,12C 51.6765,5.88774 61.6765,2.0544 72.5,0.5C 71.6634,5.63614 72.9967,9.96948 76.5,13.5 Z"/></g>
<g><path style="opacity:1" fill="#c1b4b7" d="M 76.5,13.5 C 79.6088,15.9368 81.9421,18.9368 83.5,22.5C 80.3912,20.0632 78.0579,17.0632 76.5,13.5 Z"/></g>
<g><path style="opacity:1" fill="#976c75" d="M 7.5,24.5 C 7.38929,25.1174 7.05596,25.6174 6.5,26C 4.5273,26.4955 2.5273,26.6621 0.5,26.5C 2.65683,25.5933 4.99017,24.9267 7.5,24.5 Z"/></g>
<g><path style="opacity:1" fill="#966f76" d="M 92.5,40.5 C 95.9412,41.0965 99.2746,41.7632 102.5,42.5C 98.6707,43.069 95.3373,42.4023 92.5,40.5 Z"/></g>
<g><path style="opacity:1" fill="#946d75" d="M 102.5,76.5 C 103.404,77.209 103.737,78.209 103.5,79.5C 93.5,79.5 83.5,79.5 73.5,79.5C 73.5,79.1667 73.5,78.8333 73.5,78.5C 83.5578,79.14 93.2245,78.4733 102.5,76.5 Z"/></g>
</svg>
