<?xml version="1.0" encoding="UTF-8"?>
<!DOCTYPE svg PUBLIC "-//W3C//DTD SVG 1.1//EN" "http://www.w3.org/Graphics/SVG/1.1/DTD/svg11.dtd">
<svg xmlns="http://www.w3.org/2000/svg" version="1.1" width="122px" height="78px" style="shape-rendering:geometricPrecision; text-rendering:geometricPrecision; image-rendering:optimizeQuality; fill-rule:evenodd; clip-rule:evenodd" xmlns:xlink="http://www.w3.org/1999/xlink">
<g><path style="opacity:1" fill="#fbfbfb" d="M -0.5,-0.5 C 17.1667,-0.5 34.8333,-0.5 52.5,-0.5C 51.791,0.403972 50.791,0.737305 49.5,0.5C 47.8212,0.285191 46.8212,0.951857 46.5,2.5C 43.3356,2.55779 40.3356,3.22446 37.5,4.5C 35.8212,4.28519 34.8212,4.95186 34.5,6.5C 33.8333,6.5 33.1667,6.5 32.5,6.5C 30.9731,6.42702 29.9731,7.09368 29.5,8.5C 28.5,8.5 27.5,8.5 26.5,8.5C 24.9731,8.42702 23.9731,9.09368 23.5,10.5C 22.5,10.5 21.5,10.5 20.5,10.5C 18.9731,10.427 17.9731,11.0937 17.5,12.5C 16.5,12.5 15.5,12.5 14.5,12.5C 12.9731,12.427 11.9731,13.0937 11.5,14.5C 10.5,14.5 9.5,14.5 8.5,14.5C 6.97306,14.427 5.97306,15.0937 5.5,16.5C 4.5,16.5 3.5,16.5 2.5,16.5C 1.60895,17.1098 0.608953,17.4431 -0.5,17.5C -0.5,11.5 -0.5,5.5 -0.5,-0.5 Z"/></g>
<g><path style="opacity:1" fill="#fdfdfd" d="M 56.5,-0.5 C 78.1667,-0.5 99.8333,-0.5 121.5,-0.5C 121.5,13.5 121.5,27.5 121.5,41.5C 120.167,40.5 118.833,39.5 117.5,38.5C 114.8,36.1351 112.467,33.4685 110.5,30.5C 107.803,27.1423 105.136,23.8089 102.5,20.5C 101.833,20.5 101.167,20.5 100.5,20.5C 100.579,19.0695 100.246,17.7362 99.5,16.5C 97.8149,14.4293 96.1482,12.4293 94.5,10.5C 92.5833,9.5944 90.9166,8.26106 89.5,6.5C 88.0834,8.26106 86.4167,9.5944 84.5,10.5C 81.0951,13.5783 77.4284,16.245 73.5,18.5C 72.6618,18.1583 72.3284,17.4916 72.5,16.5C 68.467,11.4702 64.1336,6.8035 59.5,2.5C 58.5,1.5 57.5,0.5 56.5,-0.5 Z"/></g>
<g><path style="opacity:1" fill="#ab9cee" d="M 52.5,-0.5 C 53.8333,-0.5 55.1667,-0.5 56.5,-0.5C 57.5,0.5 58.5,1.5 59.5,2.5C 62.7873,8.1213 67.1207,12.788 72.5,16.5C 72.3284,17.4916 72.6618,18.1583 73.5,18.5C 73.811,19.4778 74.4777,20.1445 75.5,20.5C 78.9147,17.425 81.9147,14.0917 84.5,10.5C 86.4167,9.5944 88.0834,8.26106 89.5,6.5C 90.9166,8.26106 92.5833,9.5944 94.5,10.5C 95.7127,14.363 97.7127,17.6964 100.5,20.5C 101.167,20.5 101.833,20.5 102.5,20.5C 103.708,25.0376 106.375,28.3709 110.5,30.5C 112.467,33.4685 114.8,36.1351 117.5,38.5C 117.722,40.6075 118.722,42.2742 120.5,43.5C 114.167,49.8333 107.833,56.1667 101.5,62.5C 100.148,66.6079 98.8149,70.6079 97.5,74.5C 96.5,74.5 95.5,74.5 94.5,74.5C 92.3366,70.3333 89.0033,67.6666 84.5,66.5C 84.5,65.1667 83.8333,64.5 82.5,64.5C 78.6273,62.5698 74.294,61.9031 69.5,62.5C 67.5,62.5 65.5,62.5 63.5,62.5C 61.9653,60.4616 59.9653,58.7949 57.5,57.5C 52.8761,55.5173 48.2095,53.8507 43.5,52.5C 40.4678,54.1988 38.1345,56.5321 36.5,59.5C 35.8333,59.5 35.1667,59.5 34.5,59.5C 32.7976,57.4632 30.7976,55.7966 28.5,54.5C 28.5,53.1667 27.8333,52.5 26.5,52.5C 26.2786,51.2652 25.6119,50.2652 24.5,49.5C 20.6869,47.7603 17.0202,45.7603 13.5,43.5C 12.9422,40.873 11.9422,38.5396 10.5,36.5C 10.5,35.1667 9.83333,34.5 8.5,34.5C 6.97493,32.9642 4.97493,31.9642 2.5,31.5C -0.109281,26.4509 -0.109281,21.4509 2.5,16.5C 3.5,16.5 4.5,16.5 5.5,16.5C 7.17876,16.7148 8.17876,16.0481 8.5,14.5C 9.5,14.5 10.5,14.5 11.5,14.5C 13.1788,14.7148 14.1788,14.0481 14.5,12.5C 15.5,12.5 16.5,12.5 17.5,12.5C 19.1788,12.7148 20.1788,12.0481 20.5,10.5C 21.5,10.5 22.5,10.5 23.5,10.5C 25.1788,10.7148 26.1788,10.0481 26.5,8.5C 27.5,8.5 28.5,8.5 29.5,8.5C 31.1788,8.71481 32.1788,8.04814 32.5,6.5C 33.1667,6.5 33.8333,6.5 34.5,6.5C 36.1788,6.71481 37.1788,6.04814 37.5,4.5C 40.3356,3.22446 43.3356,2.55779 46.5,2.5C 47.7095,2.06795 48.7095,1.40128 49.5,0.5C 50.791,0.737305 51.791,0.403972 52.5,-0.5 Z"/></g>
<g><path style="opacity:1" fill="#aea8c5" d="M 49.5,0.5 C 48.7095,1.40128 47.7095,2.06795 46.5,2.5C 46.8212,0.951857 47.8212,0.285191 49.5,0.5 Z"/></g>
<g><path style="opacity:1" fill="#ada6c9" d="M 37.5,4.5 C 37.1788,6.04814 36.1788,6.71481 34.5,6.5C 34.8212,4.95186 35.8212,4.28519 37.5,4.5 Z"/></g>
<g><path style="opacity:1" fill="#b0abc9" d="M 32.5,6.5 C 32.1788,8.04814 31.1788,8.71481 29.5,8.5C 29.9731,7.09368 30.9731,6.42702 32.5,6.5 Z"/></g>
<g><path style="opacity:1" fill="#bdbbca" d="M 59.5,2.5 C 64.1336,6.8035 68.467,11.4702 72.5,16.5C 67.1207,12.788 62.7873,8.1213 59.5,2.5 Z"/></g>
<g><path style="opacity:1" fill="#b1acc9" d="M 26.5,8.5 C 26.1788,10.0481 25.1788,10.7148 23.5,10.5C 23.9731,9.09368 24.9731,8.42702 26.5,8.5 Z"/></g>
<g><path style="opacity:1" fill="#b0aac9" d="M 20.5,10.5 C 20.1788,12.0481 19.1788,12.7148 17.5,12.5C 17.9731,11.0937 18.9731,10.427 20.5,10.5 Z"/></g>
<g><path style="opacity:1" fill="#bab7c7" d="M 94.5,10.5 C 96.1482,12.4293 97.8149,14.4293 99.5,16.5C 100.246,17.7362 100.579,19.0695 100.5,20.5C 97.7127,17.6964 95.7127,14.363 94.5,10.5 Z"/></g>
<g><path style="opacity:1" fill="#b1acc9" d="M 14.5,12.5 C 14.1788,14.0481 13.1788,14.7148 11.5,14.5C 11.9731,13.0937 12.9731,12.427 14.5,12.5 Z"/></g>
<g><path style="opacity:1" fill="#b2aac9" d="M 8.5,14.5 C 8.17876,16.0481 7.17876,16.7148 5.5,16.5C 5.97306,15.0937 6.97306,14.427 8.5,14.5 Z"/></g>
<g><path style="opacity:1" fill="#bcb8ca" d="M 84.5,10.5 C 81.9147,14.0917 78.9147,17.425 75.5,20.5C 74.4777,20.1445 73.811,19.4778 73.5,18.5C 77.4284,16.245 81.0951,13.5783 84.5,10.5 Z"/></g>
<g><path style="opacity:1" fill="#c6c4cd" d="M 2.5,16.5 C -0.109281,21.4509 -0.109281,26.4509 2.5,31.5C 4.97493,31.9642 6.97493,32.9642 8.5,34.5C 4.99841,34.1177 1.99841,32.7843 -0.5,30.5C -0.5,26.1667 -0.5,21.8333 -0.5,17.5C 0.608953,17.4431 1.60895,17.1098 2.5,16.5 Z"/></g>
<g><path style="opacity:1" fill="#bdbac7" d="M 102.5,20.5 C 105.136,23.8089 107.803,27.1423 110.5,30.5C 106.375,28.3709 103.708,25.0376 102.5,20.5 Z"/></g>
<g><path style="opacity:1" fill="#fefefe" d="M -0.5,30.5 C 1.99841,32.7843 4.99841,34.1177 8.5,34.5C 9.83333,34.5 10.5,35.1667 10.5,36.5C 10.278,39.3903 10.9447,42.057 12.5,44.5C 16.9264,47.5943 21.593,50.261 26.5,52.5C 27.8333,52.5 28.5,53.1667 28.5,54.5C 29.6091,57.2789 31.6091,58.9455 34.5,59.5C 35.1667,59.5 35.8333,59.5 36.5,59.5C 39.1004,58.0812 41.6004,56.4146 44,54.5C 50.9884,55.8874 57.4884,58.554 63.5,62.5C 65.5,62.5 67.5,62.5 69.5,62.5C 73.7297,63.2202 78.063,63.8868 82.5,64.5C 83.8333,64.5 84.5,65.1667 84.5,66.5C 88.4929,69.1596 91.8262,72.4929 94.5,76.5C 94.5,76.8333 94.5,77.1667 94.5,77.5C 62.8333,77.5 31.1667,77.5 -0.5,77.5C -0.5,61.8333 -0.5,46.1667 -0.5,30.5 Z"/></g>
<g><path style="opacity:1" fill="#fefffe" d="M 121.5,45.5 C 121.5,56.1667 121.5,66.8333 121.5,77.5C 113.833,77.5 106.167,77.5 98.5,77.5C 99.5209,72.7508 100.854,68.0841 102.5,63.5C 108.572,57.0913 114.905,51.0913 121.5,45.5 Z"/></g>
<g><path style="opacity:1" fill="#bdbbc7" d="M 117.5,38.5 C 118.833,39.5 120.167,40.5 121.5,41.5C 121.5,42.8333 121.5,44.1667 121.5,45.5C 114.905,51.0913 108.572,57.0913 102.5,63.5C 100.854,68.0841 99.5209,72.7508 98.5,77.5C 98.1667,77.5 97.8333,77.5 97.5,77.5C 97.5,76.5 97.5,75.5 97.5,74.5C 98.8149,70.6079 100.148,66.6079 101.5,62.5C 107.833,56.1667 114.167,49.8333 120.5,43.5C 118.722,42.2742 117.722,40.6075 117.5,38.5 Z"/></g>
<g><path style="opacity:1" fill="#bdb9c9" d="M 10.5,36.5 C 11.9422,38.5396 12.9422,40.873 13.5,43.5C 17.0202,45.7603 20.6869,47.7603 24.5,49.5C 25.6119,50.2652 26.2786,51.2652 26.5,52.5C 21.593,50.261 16.9264,47.5943 12.5,44.5C 10.9447,42.057 10.278,39.3903 10.5,36.5 Z"/></g>
<g><path style="opacity:1" fill="#c9c8cc" d="M 28.5,54.5 C 30.7976,55.7966 32.7976,57.4632 34.5,59.5C 31.6091,58.9455 29.6091,57.2789 28.5,54.5 Z"/></g>
<g><path style="opacity:1" fill="#bab6ca" d="M 63.5,62.5 C 57.4884,58.554 50.9884,55.8874 44,54.5C 41.6004,56.4146 39.1004,58.0812 36.5,59.5C 38.1345,56.5321 40.4678,54.1988 43.5,52.5C 48.2095,53.8507 52.8761,55.5173 57.5,57.5C 59.9653,58.7949 61.9653,60.4616 63.5,62.5 Z"/></g>
<g><path style="opacity:1" fill="#b0a9ce" d="M 69.5,62.5 C 74.294,61.9031 78.6273,62.5698 82.5,64.5C 78.063,63.8868 73.7297,63.2202 69.5,62.5 Z"/></g>
<g><path style="opacity:1" fill="#bfbdc8" d="M 84.5,66.5 C 89.0033,67.6666 92.3366,70.3333 94.5,74.5C 94.5,75.1667 94.5,75.8333 94.5,76.5C 91.8262,72.4929 88.4929,69.1596 84.5,66.5 Z"/></g>
<g><path style="opacity:1" fill="#aca3d4" d="M 94.5,74.5 C 95.5,74.5 96.5,74.5 97.5,74.5C 97.5,75.5 97.5,76.5 97.5,77.5C 96.5,77.5 95.5,77.5 94.5,77.5C 94.5,77.1667 94.5,76.8333 94.5,76.5C 94.5,75.8333 94.5,75.1667 94.5,74.5 Z"/></g>
</svg>
