<?xml version="1.0" encoding="UTF-8"?>
<!DOCTYPE svg PUBLIC "-//W3C//DTD SVG 1.1//EN" "http://www.w3.org/Graphics/SVG/1.1/DTD/svg11.dtd">
<svg xmlns="http://www.w3.org/2000/svg" version="1.1" width="77px" height="152px" style="shape-rendering:geometricPrecision; text-rendering:geometricPrecision; image-rendering:optimizeQuality; fill-rule:evenodd; clip-rule:evenodd" xmlns:xlink="http://www.w3.org/1999/xlink">
<g><path style="opacity:1" fill="#fcfcfc" d="M -0.5,-0.5 C 25.1667,-0.5 50.8333,-0.5 76.5,-0.5C 76.5,10.8333 76.5,22.1667 76.5,33.5C 74.5153,32.9525 72.8486,31.9525 71.5,30.5C 71.2695,27.3056 71.9362,24.3056 73.5,21.5C 72.9136,18.6511 71.5803,16.3178 69.5,14.5C 68.8333,13.8333 68.1667,13.1667 67.5,12.5C 67.6311,8.71496 68.2978,5.04829 69.5,1.5C 66.9407,1.19845 64.6074,1.53178 62.5,2.5C 60.9773,4.28183 58.9773,5.61517 56.5,6.5C 51.4657,3.71067 46.1323,1.71067 40.5,0.5C 38.0759,1.02106 35.7426,1.68772 33.5,2.5C 33.5,7.83333 33.5,13.1667 33.5,18.5C 28.5696,19.5946 23.5696,20.2612 18.5,20.5C 13.7833,20.8747 9.44993,22.208 5.5,24.5C 5.53944,25.5832 5.87277,26.5832 6.5,27.5C 4.99304,28.3886 3.65971,29.3886 2.5,30.5C 1.39105,30.5569 0.391047,30.8902 -0.5,31.5C -0.5,20.8333 -0.5,10.1667 -0.5,-0.5 Z"/></g>
<g><path style="opacity:1" fill="#655183" d="M 62.5,2.5 C 64.604,2.2011 66.604,2.53443 68.5,3.5C 65.0384,6.29331 64.705,9.29331 67.5,12.5C 68.1667,13.1667 68.8333,13.8333 69.5,14.5C 70.2122,16.9279 71.2122,19.2612 72.5,21.5C 70.3399,24.4163 70.0066,27.4163 71.5,30.5C 72.8486,31.9525 74.5153,32.9525 76.5,33.5C 76.5,34.5 76.5,35.5 76.5,36.5C 73.8083,39.9055 72.1417,43.9055 71.5,48.5C 70.6586,50.8121 69.6586,53.1454 68.5,55.5C 67.8333,55.5 67.5,55.8333 67.5,56.5C 62.0953,56.2153 58.4287,58.5487 56.5,63.5C 56.5,63.8333 56.5,64.1667 56.5,64.5C 55.2057,66.0478 54.5391,68.0478 54.5,70.5C 54.8333,72.5 55.1667,74.5 55.5,76.5C 58.2627,79.2627 60.9294,81.9294 63.5,84.5C 63.5,84.8333 63.5,85.1667 63.5,85.5C 64.5218,87.8552 66.1884,89.5218 68.5,90.5C 68.5,90.8333 68.5,91.1667 68.5,91.5C 70.4728,94.816 72.4728,98.1494 74.5,101.5C 73.0905,102.569 72.0905,103.903 71.5,105.5C 70.791,106.404 69.791,106.737 68.5,106.5C 66.5,107.167 65.1667,108.5 64.5,110.5C 58.4778,113.21 56.1445,117.877 57.5,124.5C 59.1251,127.216 58.7918,129.549 56.5,131.5C 55.0998,132.1 54.0998,133.1 53.5,134.5C 51.2156,135.029 49.2156,136.029 47.5,137.5C 47.5,137.833 47.5,138.167 47.5,138.5C 45.2156,139.029 43.2156,140.029 41.5,141.5C 41.5,141.833 41.5,142.167 41.5,142.5C 38.7616,142.706 36.4282,143.706 34.5,145.5C 32.1329,146.97 29.7995,148.637 27.5,150.5C 25.7628,149.103 24.4295,147.436 23.5,145.5C 21.1965,142.681 19.0299,139.681 17,136.5C 16.6124,133.151 16.7791,129.817 17.5,126.5C 19.8021,118.792 21.1354,110.792 21.5,102.5C 22.2663,100.316 22.9329,97.9823 23.5,95.5C 23.0431,94.7025 22.3764,94.3691 21.5,94.5C 18.1008,93.011 14.4342,92.011 10.5,91.5C 9.87277,90.5832 9.53944,89.5832 9.5,88.5C 11.3734,84.1104 11.8734,79.4438 11,74.5C 8.86791,71.228 7.03458,67.8947 5.5,64.5C 6.06896,60.6707 5.40229,57.3373 3.5,54.5C 2.16667,51.8333 2.16667,49.1667 3.5,46.5C 4.12395,46.0831 4.45728,45.4164 4.5,44.5C 3.062,40.857 1.72867,37.1903 0.5,33.5C 1.61191,32.7348 2.27858,31.7348 2.5,30.5C 3.65971,29.3886 4.99304,28.3886 6.5,27.5C 5.87277,26.5832 5.53944,25.5832 5.5,24.5C 10.2046,23.6932 14.538,22.3599 18.5,20.5C 23.5696,20.2612 28.5696,19.5946 33.5,18.5C 33.5,13.1667 33.5,7.83333 33.5,2.5C 35.7426,1.68772 38.0759,1.02106 40.5,0.5C 46.1323,1.71067 51.4657,3.71067 56.5,6.5C 58.9773,5.61517 60.9773,4.28183 62.5,2.5 Z"/></g>
<g><path style="opacity:1" fill="#a09ea5" d="M 62.5,2.5 C 64.6074,1.53178 66.9407,1.19845 69.5,1.5C 68.2978,5.04829 67.6311,8.71496 67.5,12.5C 64.705,9.29331 65.0384,6.29331 68.5,3.5C 66.604,2.53443 64.604,2.2011 62.5,2.5 Z"/></g>
<g><path style="opacity:1" fill="#c9c9c9" d="M 18.5,20.5 C 14.538,22.3599 10.2046,23.6932 5.5,24.5C 9.44993,22.208 13.7833,20.8747 18.5,20.5 Z"/></g>
<g><path style="opacity:1" fill="#918e98" d="M 69.5,14.5 C 71.5803,16.3178 72.9136,18.6511 73.5,21.5C 71.9362,24.3056 71.2695,27.3056 71.5,30.5C 70.0066,27.4163 70.3399,24.4163 72.5,21.5C 71.2122,19.2612 70.2122,16.9279 69.5,14.5 Z"/></g>
<g><path style="opacity:1" fill="#827c8c" d="M 2.5,30.5 C 2.27858,31.7348 1.61191,32.7348 0.5,33.5C 1.72867,37.1903 3.062,40.857 4.5,44.5C 4.45728,45.4164 4.12395,46.0831 3.5,46.5C 2.7941,43.3725 1.46076,40.7058 -0.5,38.5C -0.5,36.1667 -0.5,33.8333 -0.5,31.5C 0.391047,30.8902 1.39105,30.5569 2.5,30.5 Z"/></g>
<g><path style="opacity:1" fill="#fdfdfd" d="M 76.5,36.5 C 76.5,74.8333 76.5,113.167 76.5,151.5C 50.8333,151.5 25.1667,151.5 -0.5,151.5C -0.5,113.833 -0.5,76.1667 -0.5,38.5C 1.46076,40.7058 2.7941,43.3725 3.5,46.5C 2.00691,47.3121 1.34024,48.6455 1.5,50.5C 1.34024,52.3545 2.00691,53.6879 3.5,54.5C 3.44179,57.8625 4.10846,61.1958 5.5,64.5C 6.70526,69.6546 8.37193,74.6546 10.5,79.5C 9.69779,82.4486 9.36446,85.4486 9.5,88.5C 9.53944,89.5832 9.87277,90.5832 10.5,91.5C 14.4342,92.011 18.1008,93.011 21.5,94.5C 21.5,97.1667 21.5,99.8333 21.5,102.5C 19.687,110.297 18.3537,118.297 17.5,126.5C 13.4876,134.793 15.4876,141.126 23.5,145.5C 24.4295,147.436 25.7628,149.103 27.5,150.5C 29.7995,148.637 32.1329,146.97 34.5,145.5C 37.2384,145.294 39.5718,144.294 41.5,142.5C 41.5,142.167 41.5,141.833 41.5,141.5C 44.0772,141.545 46.0772,140.545 47.5,138.5C 47.5,138.167 47.5,137.833 47.5,137.5C 50.0772,137.545 52.0772,136.545 53.5,134.5C 54.0998,133.1 55.0998,132.1 56.5,131.5C 57.5,131.5 58.5,131.5 59.5,131.5C 59.6621,129.473 59.4955,127.473 59,125.5C 58.6174,124.944 58.1174,124.611 57.5,124.5C 56.1445,117.877 58.4778,113.21 64.5,110.5C 66.7727,110.043 68.106,108.71 68.5,106.5C 69.791,106.737 70.791,106.404 71.5,105.5C 75.9893,103.484 76.656,100.484 73.5,96.5C 72.0305,94.4871 70.3638,92.8204 68.5,91.5C 68.5,91.1667 68.5,90.8333 68.5,90.5C 67.4782,88.1448 65.8116,86.4782 63.5,85.5C 63.5,85.1667 63.5,84.8333 63.5,84.5C 61.9552,80.947 59.6219,77.947 56.5,75.5C 55.2418,71.7897 55.2418,68.123 56.5,64.5C 56.5,64.1667 56.5,63.8333 56.5,63.5C 59.4552,60.0859 63.1218,57.7526 67.5,56.5C 67.5,55.8333 67.8333,55.5 68.5,55.5C 69.7498,55.4226 70.5831,54.756 71,53.5C 71.4935,51.8659 71.6602,50.1992 71.5,48.5C 72.1417,43.9055 73.8083,39.9055 76.5,36.5 Z"/></g>
<g><path style="opacity:1" fill="#908d98" d="M 3.5,46.5 C 2.16667,49.1667 2.16667,51.8333 3.5,54.5C 2.00691,53.6879 1.34024,52.3545 1.5,50.5C 1.34024,48.6455 2.00691,47.3121 3.5,46.5 Z"/></g>
<g><path style="opacity:1" fill="#c5c4c5" d="M 71.5,48.5 C 71.6602,50.1992 71.4935,51.8659 71,53.5C 70.5831,54.756 69.7498,55.4226 68.5,55.5C 69.6586,53.1454 70.6586,50.8121 71.5,48.5 Z"/></g>
<g><path style="opacity:1" fill="#c6c5c6" d="M 67.5,56.5 C 63.1218,57.7526 59.4552,60.0859 56.5,63.5C 58.4287,58.5487 62.0953,56.2153 67.5,56.5 Z"/></g>
<g><path style="opacity:1" fill="#7a7285" d="M 3.5,54.5 C 5.40229,57.3373 6.06896,60.6707 5.5,64.5C 4.10846,61.1958 3.44179,57.8625 3.5,54.5 Z"/></g>
<g><path style="opacity:1" fill="#837e8d" d="M 5.5,64.5 C 7.03458,67.8947 8.86791,71.228 11,74.5C 11.8734,79.4438 11.3734,84.1104 9.5,88.5C 9.36446,85.4486 9.69779,82.4486 10.5,79.5C 8.37193,74.6546 6.70526,69.6546 5.5,64.5 Z"/></g>
<g><path style="opacity:1" fill="#c2c2c4" d="M 56.5,64.5 C 55.2418,68.123 55.2418,71.7897 56.5,75.5C 59.6219,77.947 61.9552,80.947 63.5,84.5C 60.9294,81.9294 58.2627,79.2627 55.5,76.5C 55.1667,74.5 54.8333,72.5 54.5,70.5C 54.5391,68.0478 55.2057,66.0478 56.5,64.5 Z"/></g>
<g><path style="opacity:1" fill="#c4c4c5" d="M 63.5,85.5 C 65.8116,86.4782 67.4782,88.1448 68.5,90.5C 66.1884,89.5218 64.5218,87.8552 63.5,85.5 Z"/></g>
<g><path style="opacity:1" fill="#8e8b96" d="M 21.5,94.5 C 22.3764,94.3691 23.0431,94.7025 23.5,95.5C 22.9329,97.9823 22.2663,100.316 21.5,102.5C 21.5,99.8333 21.5,97.1667 21.5,94.5 Z"/></g>
<g><path style="opacity:1" fill="#c5c4c5" d="M 68.5,91.5 C 70.3638,92.8204 72.0305,94.4871 73.5,96.5C 76.656,100.484 75.9893,103.484 71.5,105.5C 72.0905,103.903 73.0905,102.569 74.5,101.5C 72.4728,98.1494 70.4728,94.816 68.5,91.5 Z"/></g>
<g><path style="opacity:1" fill="#817b8b" d="M 68.5,106.5 C 68.106,108.71 66.7727,110.043 64.5,110.5C 65.1667,108.5 66.5,107.167 68.5,106.5 Z"/></g>
<g><path style="opacity:1" fill="#888591" d="M 21.5,102.5 C 21.1354,110.792 19.8021,118.792 17.5,126.5C 18.3537,118.297 19.687,110.297 21.5,102.5 Z"/></g>
<g><path style="opacity:1" fill="#b9babd" d="M 57.5,124.5 C 58.1174,124.611 58.6174,124.944 59,125.5C 59.4955,127.473 59.6621,129.473 59.5,131.5C 58.5,131.5 57.5,131.5 56.5,131.5C 58.7918,129.549 59.1251,127.216 57.5,124.5 Z"/></g>
<g><path style="opacity:1" fill="#c5c5c6" d="M 53.5,134.5 C 52.0772,136.545 50.0772,137.545 47.5,137.5C 49.2156,136.029 51.2156,135.029 53.5,134.5 Z"/></g>
<g><path style="opacity:1" fill="#b0aeb3" d="M 17.5,126.5 C 16.7791,129.817 16.6124,133.151 17,136.5C 19.0299,139.681 21.1965,142.681 23.5,145.5C 15.4876,141.126 13.4876,134.793 17.5,126.5 Z"/></g>
<g><path style="opacity:1" fill="#c1c2c3" d="M 47.5,138.5 C 46.0772,140.545 44.0772,141.545 41.5,141.5C 43.2156,140.029 45.2156,139.029 47.5,138.5 Z"/></g>
<g><path style="opacity:1" fill="#c2c2c3" d="M 41.5,142.5 C 39.5718,144.294 37.2384,145.294 34.5,145.5C 36.4282,143.706 38.7616,142.706 41.5,142.5 Z"/></g>
</svg>
