<?xml version="1.0" encoding="UTF-8"?>
<!DOCTYPE svg PUBLIC "-//W3C//DTD SVG 1.1//EN" "http://www.w3.org/Graphics/SVG/1.1/DTD/svg11.dtd">
<svg xmlns="http://www.w3.org/2000/svg" version="1.1" width="142px" height="158px" style="shape-rendering:geometricPrecision; text-rendering:geometricPrecision; image-rendering:optimizeQuality; fill-rule:evenodd; clip-rule:evenodd" xmlns:xlink="http://www.w3.org/1999/xlink">
<g><path style="opacity:1" fill="#f7f6f5" d="M -0.5,-0.5 C 3.16667,-0.5 6.83333,-0.5 10.5,-0.5C 8.21471,1.78529 5.88137,4.11863 3.5,6.5C 2.28467,9.80896 1.28467,13.1423 0.5,16.5C 0.166667,16.5 -0.166667,16.5 -0.5,16.5C -0.5,10.8333 -0.5,5.16667 -0.5,-0.5 Z"/></g>
<g><path style="opacity:1" fill="#fefefe" d="M 14.5,0.5 C 14.5,0.166667 14.5,-0.166667 14.5,-0.5C 56.8333,-0.5 99.1667,-0.5 141.5,-0.5C 141.5,51.1667 141.5,102.833 141.5,154.5C 141.167,154.5 140.833,154.5 140.5,154.5C 139.833,151.833 139.167,149.167 138.5,146.5C 138.5,145.833 138.5,145.167 138.5,144.5C 137.095,139.496 135.095,134.829 132.5,130.5C 131.167,129.833 129.833,129.167 128.5,128.5C 128.653,125.465 127.32,123.465 124.5,122.5C 124.771,120.62 124.104,119.287 122.5,118.5C 122.5,117.167 121.833,116.5 120.5,116.5C 120.5,115.5 120.5,114.5 120.5,113.5C 117.418,111.44 114.085,109.773 110.5,108.5C 115.179,101.822 113.513,97.1553 105.5,94.5C 104.533,93.1938 103.199,92.5271 101.5,92.5C 101.5,91.5 101.5,90.5 101.5,89.5C 99.712,89.7852 98.0453,89.4519 96.5,88.5C 93.0797,85.401 89.4131,82.7343 85.5,80.5C 85.1667,80.5 84.8333,80.5 84.5,80.5C 84.1179,77.1007 82.4512,74.434 79.5,72.5C 76.3229,70.1573 72.9895,68.1573 69.5,66.5C 69.1667,66.5 68.8333,66.5 68.5,66.5C 65.9826,64.3273 62.9826,63.3273 59.5,63.5C 59.5,64.8333 59.5,66.1667 59.5,67.5C 68.9116,74.3325 78.2449,81.3325 87.5,88.5C 87.8333,88.5 88.1667,88.5 88.5,88.5C 89.4281,92.3621 90.9281,96.0288 93,99.5C 93.498,102.482 93.6646,105.482 93.5,108.5C 92.6618,108.842 92.3284,109.508 92.5,110.5C 91.2101,111.058 90.3768,112.058 90,113.5C 86.2893,123.888 83.7893,134.554 82.5,145.5C 81.5269,147.948 81.1936,150.615 81.5,153.5C 85.8333,153.5 90.1667,153.5 94.5,153.5C 99.5947,153.221 104.595,153.555 109.5,154.5C 113.167,154.5 116.833,154.5 120.5,154.5C 124.395,155.225 128.395,155.891 132.5,156.5C 135.5,156.5 138.5,156.5 141.5,156.5C 141.5,156.833 141.5,157.167 141.5,157.5C 94.1667,157.5 46.8333,157.5 -0.5,157.5C -0.5,114.833 -0.5,72.1667 -0.5,29.5C 1.03005,30.2112 2.36339,31.2112 3.5,32.5C 5.84924,36.5413 7.68257,40.8746 9,45.5C 9.05227,52.8597 8.55227,60.193 7.5,67.5C 10.1951,67.6815 12.5284,68.6815 14.5,70.5C 14.5,71.1667 14.5,71.8333 14.5,72.5C 14.7634,76.3465 16.0967,79.6798 18.5,82.5C 18.56,83.0431 18.8933,83.3764 19.5,83.5C 20.8422,80.8157 22.1755,78.149 23.5,75.5C 27.0649,69.3737 30.3982,63.0404 33.5,56.5C 34.9587,56.5674 36.2921,56.2341 37.5,55.5C 38.8333,55.5 40.1667,55.5 41.5,55.5C 41.3965,52.0614 39.7298,49.7281 36.5,48.5C 36.5,47.8333 36.5,47.1667 36.5,46.5C 36.9382,46.5654 37.2716,46.3988 37.5,46C 35.6956,43.5478 34.029,41.0478 32.5,38.5C 32.7709,36.6203 32.1042,35.287 30.5,34.5C 30.7709,32.6203 30.1042,31.287 28.5,30.5C 28.7709,28.6203 28.1042,27.287 26.5,26.5C 26.7709,24.6203 26.1042,23.287 24.5,22.5C 23.103,19.1334 21.7696,15.8 20.5,12.5C 20.7709,10.6203 20.1042,9.28696 18.5,8.5C 18.7709,6.6203 18.1042,5.28696 16.5,4.5C 16.7709,2.6203 16.1042,1.28696 14.5,0.5 Z"/></g>
<g><path style="opacity:1" fill="#e59c5d" d="M 10.5,-0.5 C 11.8333,-0.5 13.1667,-0.5 14.5,-0.5C 14.5,-0.166667 14.5,0.166667 14.5,0.5C 14.6596,2.15298 15.3263,3.48631 16.5,4.5C 16.6596,6.15298 17.3263,7.48631 18.5,8.5C 18.6596,10.153 19.3263,11.4863 20.5,12.5C 21.7696,15.8 23.103,19.1334 24.5,22.5C 24.6596,24.153 25.3263,25.4863 26.5,26.5C 26.6596,28.153 27.3263,29.4863 28.5,30.5C 28.6596,32.153 29.3263,33.4863 30.5,34.5C 30.6596,36.153 31.3263,37.4863 32.5,38.5C 32.8192,41.806 34.1525,44.4726 36.5,46.5C 36.5,47.1667 36.5,47.8333 36.5,48.5C 37.4056,50.4167 38.7389,52.0834 40.5,53.5C 39.3984,54.1757 38.3984,54.8423 37.5,55.5C 36.2921,56.2341 34.9587,56.5674 33.5,56.5C 28.8919,62.0446 25.5586,68.378 23.5,75.5C 22.1755,78.149 20.8422,80.8157 19.5,83.5C 18.8933,83.3764 18.56,83.0431 18.5,82.5C 17.6891,78.8897 16.3558,75.5563 14.5,72.5C 14.5,71.8333 14.5,71.1667 14.5,70.5C 13.5539,67.6874 11.5539,66.354 8.5,66.5C 11.7635,55.8603 11.0968,45.527 6.5,35.5C 5.45196,34.452 4.45196,33.452 3.5,32.5C 1.00374,27.5329 0.00373647,22.1996 0.5,16.5C 1.28467,13.1423 2.28467,9.80896 3.5,6.5C 5.88137,4.11863 8.21471,1.78529 10.5,-0.5 Z"/></g>
<g><path style="opacity:1" fill="#d0b39b" d="M 14.5,0.5 C 16.1042,1.28696 16.7709,2.6203 16.5,4.5C 15.3263,3.48631 14.6596,2.15298 14.5,0.5 Z"/></g>
<g><path style="opacity:1" fill="#d0b69f" d="M 16.5,4.5 C 18.1042,5.28696 18.7709,6.6203 18.5,8.5C 17.3263,7.48631 16.6596,6.15298 16.5,4.5 Z"/></g>
<g><path style="opacity:1" fill="#d0b49e" d="M 18.5,8.5 C 20.1042,9.28696 20.7709,10.6203 20.5,12.5C 19.3263,11.4863 18.6596,10.153 18.5,8.5 Z"/></g>
<g><path style="opacity:1" fill="#caac92" d="M 24.5,22.5 C 26.1042,23.287 26.7709,24.6203 26.5,26.5C 25.3263,25.4863 24.6596,24.153 24.5,22.5 Z"/></g>
<g><path style="opacity:1" fill="#d6c1b0" d="M -0.5,16.5 C -0.166667,16.5 0.166667,16.5 0.5,16.5C 0.00373647,22.1996 1.00374,27.5329 3.5,32.5C 2.36339,31.2112 1.03005,30.2112 -0.5,29.5C -0.5,25.1667 -0.5,20.8333 -0.5,16.5 Z"/></g>
<g><path style="opacity:1" fill="#d0b49e" d="M 26.5,26.5 C 28.1042,27.287 28.7709,28.6203 28.5,30.5C 27.3263,29.4863 26.6596,28.153 26.5,26.5 Z"/></g>
<g><path style="opacity:1" fill="#d0b69f" d="M 28.5,30.5 C 30.1042,31.287 30.7709,32.6203 30.5,34.5C 29.3263,33.4863 28.6596,32.153 28.5,30.5 Z"/></g>
<g><path style="opacity:1" fill="#d0b39d" d="M 30.5,34.5 C 32.1042,35.287 32.7709,36.6203 32.5,38.5C 31.3263,37.4863 30.6596,36.153 30.5,34.5 Z"/></g>
<g><path style="opacity:1" fill="#d1c2b6" d="M 3.5,32.5 C 4.45196,33.452 5.45196,34.452 6.5,35.5C 11.0968,45.527 11.7635,55.8603 8.5,66.5C 11.5539,66.354 13.5539,67.6874 14.5,70.5C 12.5284,68.6815 10.1951,67.6815 7.5,67.5C 8.55227,60.193 9.05227,52.8597 9,45.5C 7.68257,40.8746 5.84924,36.5413 3.5,32.5 Z"/></g>
<g><path style="opacity:1" fill="#d9cabf" d="M 32.5,38.5 C 34.029,41.0478 35.6956,43.5478 37.5,46C 37.2716,46.3988 36.9382,46.5654 36.5,46.5C 34.1525,44.4726 32.8192,41.806 32.5,38.5 Z"/></g>
<g><path style="opacity:1" fill="#ddd5d0" d="M 36.5,48.5 C 39.7298,49.7281 41.3965,52.0614 41.5,55.5C 40.1667,55.5 38.8333,55.5 37.5,55.5C 38.3984,54.8423 39.3984,54.1757 40.5,53.5C 38.7389,52.0834 37.4056,50.4167 36.5,48.5 Z"/></g>
<g><path style="opacity:1" fill="#d0bfb0" d="M 33.5,56.5 C 30.3982,63.0404 27.0649,69.3737 23.5,75.5C 25.5586,68.378 28.8919,62.0446 33.5,56.5 Z"/></g>
<g><path style="opacity:1" fill="#d3c1b2" d="M 69.5,66.5 C 72.9895,68.1573 76.3229,70.1573 79.5,72.5C 82.4512,74.434 84.1179,77.1007 84.5,80.5C 82.9268,77.9172 80.9268,75.5839 78.5,73.5C 75.0455,71.5417 72.0455,69.2083 69.5,66.5 Z"/></g>
<g><path style="opacity:1" fill="#d1c4b9" d="M 68.5,66.5 C 66.3337,66.4211 64.3337,65.7545 62.5,64.5C 61.8333,64.8333 61.1667,65.1667 60.5,65.5C 69.9673,72.7953 78.9673,80.462 87.5,88.5C 78.2449,81.3325 68.9116,74.3325 59.5,67.5C 59.5,66.1667 59.5,64.8333 59.5,63.5C 62.9826,63.3273 65.9826,64.3273 68.5,66.5 Z"/></g>
<g><path style="opacity:1" fill="#d0bfb0" d="M 14.5,72.5 C 16.3558,75.5563 17.6891,78.8897 18.5,82.5C 16.0967,79.6798 14.7634,76.3465 14.5,72.5 Z"/></g>
<g><path style="opacity:1" fill="#e59c5d" d="M 68.5,66.5 C 68.8333,66.5 69.1667,66.5 69.5,66.5C 72.0455,69.2083 75.0455,71.5417 78.5,73.5C 80.9268,75.5839 82.9268,77.9172 84.5,80.5C 84.8333,80.5 85.1667,80.5 85.5,80.5C 89.7063,85.972 95.0396,89.972 101.5,92.5C 103.199,92.5271 104.533,93.1938 105.5,94.5C 107.748,96.7478 110.081,99.0811 112.5,101.5C 111.167,103.5 109.833,105.5 108.5,107.5C 108.957,108.298 109.624,108.631 110.5,108.5C 113.78,111.101 117.114,113.768 120.5,116.5C 121.833,116.5 122.5,117.167 122.5,118.5C 122.66,120.153 123.326,121.486 124.5,122.5C 125.836,124.508 127.17,126.508 128.5,128.5C 129.833,129.167 131.167,129.833 132.5,130.5C 133.601,135.602 135.601,140.268 138.5,144.5C 138.5,145.167 138.5,145.833 138.5,146.5C 137.624,146.369 136.957,146.702 136.5,147.5C 137.608,150.059 138.941,152.392 140.5,154.5C 140.833,154.5 141.167,154.5 141.5,154.5C 141.5,155.167 141.5,155.833 141.5,156.5C 138.5,156.5 135.5,156.5 132.5,156.5C 128.971,154.577 124.971,153.911 120.5,154.5C 116.833,154.5 113.167,154.5 109.5,154.5C 104.944,152.558 99.9443,151.892 94.5,152.5C 90.5,152.5 86.5,152.5 82.5,152.5C 82.5,150.5 82.5,148.5 82.5,146.5C 83.2216,146.082 83.7216,145.416 84,144.5C 85.125,132.699 87.9583,121.366 92.5,110.5C 92.3284,109.508 92.6618,108.842 93.5,108.5C 95.47,101.053 93.8034,94.3866 88.5,88.5C 88.1667,88.5 87.8333,88.5 87.5,88.5C 78.9673,80.462 69.9673,72.7953 60.5,65.5C 61.1667,65.1667 61.8333,64.8333 62.5,64.5C 64.3337,65.7545 66.3337,66.4211 68.5,66.5 Z"/></g>
<g><path style="opacity:1" fill="#d5c8bd" d="M 85.5,80.5 C 89.4131,82.7343 93.0797,85.401 96.5,88.5C 98.0453,89.4519 99.712,89.7852 101.5,89.5C 101.5,90.5 101.5,91.5 101.5,92.5C 95.0396,89.972 89.7063,85.972 85.5,80.5 Z"/></g>
<g><path style="opacity:1" fill="#d1b298" d="M 88.5,88.5 C 93.8034,94.3866 95.47,101.053 93.5,108.5C 93.6646,105.482 93.498,102.482 93,99.5C 90.9281,96.0288 89.4281,92.3621 88.5,88.5 Z"/></g>
<g><path style="opacity:1" fill="#d2c6bc" d="M 105.5,94.5 C 113.513,97.1553 115.179,101.822 110.5,108.5C 109.624,108.631 108.957,108.298 108.5,107.5C 109.833,105.5 111.167,103.5 112.5,101.5C 110.081,99.0811 107.748,96.7478 105.5,94.5 Z"/></g>
<g><path style="opacity:1" fill="#d6c5b8" d="M 110.5,108.5 C 114.085,109.773 117.418,111.44 120.5,113.5C 120.5,114.5 120.5,115.5 120.5,116.5C 117.114,113.768 113.78,111.101 110.5,108.5 Z"/></g>
<g><path style="opacity:1" fill="#cfb29b" d="M 122.5,118.5 C 124.104,119.287 124.771,120.62 124.5,122.5C 123.326,121.486 122.66,120.153 122.5,118.5 Z"/></g>
<g><path style="opacity:1" fill="#d2c4b8" d="M 124.5,122.5 C 127.32,123.465 128.653,125.465 128.5,128.5C 127.17,126.508 125.836,124.508 124.5,122.5 Z"/></g>
<g><path style="opacity:1" fill="#cfbdab" d="M 92.5,110.5 C 87.9583,121.366 85.125,132.699 84,144.5C 83.7216,145.416 83.2216,146.082 82.5,146.5C 82.5,146.167 82.5,145.833 82.5,145.5C 83.7893,134.554 86.2893,123.888 90,113.5C 90.3768,112.058 91.2101,111.058 92.5,110.5 Z"/></g>
<g><path style="opacity:1" fill="#cebcac" d="M 132.5,130.5 C 135.095,134.829 137.095,139.496 138.5,144.5C 135.601,140.268 133.601,135.602 132.5,130.5 Z"/></g>
<g><path style="opacity:1" fill="#cab5a4" d="M 138.5,146.5 C 139.167,149.167 139.833,151.833 140.5,154.5C 138.941,152.392 137.608,150.059 136.5,147.5C 136.957,146.702 137.624,146.369 138.5,146.5 Z"/></g>
<g><path style="opacity:1" fill="#d9d8d6" d="M 82.5,145.5 C 82.5,145.833 82.5,146.167 82.5,146.5C 82.5,148.5 82.5,150.5 82.5,152.5C 86.5,152.5 90.5,152.5 94.5,152.5C 94.5,152.833 94.5,153.167 94.5,153.5C 90.1667,153.5 85.8333,153.5 81.5,153.5C 81.1936,150.615 81.5269,147.948 82.5,145.5 Z"/></g>
<g><path style="opacity:1" fill="#d4b9a1" d="M 94.5,153.5 C 94.5,153.167 94.5,152.833 94.5,152.5C 99.9443,151.892 104.944,152.558 109.5,154.5C 104.595,153.555 99.5947,153.221 94.5,153.5 Z"/></g>
<g><path style="opacity:1" fill="#d4bba4" d="M 120.5,154.5 C 124.971,153.911 128.971,154.577 132.5,156.5C 128.395,155.891 124.395,155.225 120.5,154.5 Z"/></g>
</svg>
