<?xml version="1.0" encoding="UTF-8"?>
<!DOCTYPE svg PUBLIC "-//W3C//DTD SVG 1.1//EN" "http://www.w3.org/Graphics/SVG/1.1/DTD/svg11.dtd">
<svg xmlns="http://www.w3.org/2000/svg" version="1.1" width="85px" height="58px" style="shape-rendering:geometricPrecision; text-rendering:geometricPrecision; image-rendering:optimizeQuality; fill-rule:evenodd; clip-rule:evenodd" xmlns:xlink="http://www.w3.org/1999/xlink">
<g><path style="opacity:1" fill="#fbfbfb" d="M -0.5,-0.5 C 27.8333,-0.5 56.1667,-0.5 84.5,-0.5C 84.5,11.8333 84.5,24.1667 84.5,36.5C 84.1667,36.5 83.8333,36.5 83.5,36.5C 82.2223,36.2178 81.2223,35.5511 80.5,34.5C 78.5592,30.8924 76.2258,27.5591 73.5,24.5C 71.5393,23.5398 69.8726,22.2065 68.5,20.5C 67.2809,17.2765 65.2809,14.6098 62.5,12.5C 61.1667,11.1667 59.8333,9.83333 58.5,8.5C 58.7709,6.6203 58.1042,5.28696 56.5,4.5C 55.1667,3.83333 53.8333,3.16667 52.5,2.5C 51.4855,1.23532 49.9855,0.568651 48,0.5C 46.0145,0.568651 44.5145,1.23532 43.5,2.5C 39.1539,2.33432 34.8206,2.50098 30.5,3C 20.4492,5.84952 10.4492,9.01619 0.5,12.5C 0.166667,12.5 -0.166667,12.5 -0.5,12.5C -0.5,8.16667 -0.5,3.83333 -0.5,-0.5 Z"/></g>
<g><path style="opacity:1" fill="#65785b" d="M 52.5,2.5 C 49.5,2.5 46.5,2.5 43.5,2.5C 44.5145,1.23532 46.0145,0.568651 48,0.5C 49.9855,0.568651 51.4855,1.23532 52.5,2.5 Z"/></g>
<g><path style="opacity:1" fill="#5e804c" d="M 43.5,2.5 C 46.5,2.5 49.5,2.5 52.5,2.5C 53.8333,3.16667 55.1667,3.83333 56.5,4.5C 56.6596,6.15298 57.3263,7.48631 58.5,8.5C 59.8333,9.83333 61.1667,11.1667 62.5,12.5C 63.7376,15.7377 65.7376,18.4044 68.5,20.5C 69.8726,22.2065 71.5393,23.5398 73.5,24.5C 74.6215,28.6311 76.9548,31.9644 80.5,34.5C 81.2223,35.5511 82.2223,36.2178 83.5,36.5C 81.3084,42.0294 77.6417,46.3627 72.5,49.5C 70.7976,51.5368 68.7976,53.2034 66.5,54.5C 65.5326,55.8062 64.1993,56.4729 62.5,56.5C 61.8333,56.5 61.5,56.1667 61.5,55.5C 61.1667,52.5 59.5,50.8333 56.5,50.5C 55.9432,47.9501 54.6099,45.9501 52.5,44.5C 51.1274,42.7935 49.4607,41.4602 47.5,40.5C 47.0663,37.0656 45.3996,34.3989 42.5,32.5C 41.2223,32.2178 40.2223,31.5511 39.5,30.5C 39.0663,27.0656 37.3996,24.3989 34.5,22.5C 34.1667,22.5 33.8333,22.5 33.5,22.5C 32.0304,18.2311 30.3637,17.8978 28.5,21.5C 24.409,24.7771 20.7423,28.4438 17.5,32.5C 15.5393,31.5398 13.8726,30.2065 12.5,28.5C 9.38066,26.2373 6.71399,23.5706 4.5,20.5C 3.16667,17.8333 1.83333,15.1667 0.5,12.5C 10.4492,9.01619 20.4492,5.84952 30.5,3C 34.8206,2.50098 39.1539,2.33432 43.5,2.5 Z"/></g>
<g><path style="opacity:1" fill="#a7a8a2" d="M 56.5,4.5 C 58.1042,5.28696 58.7709,6.6203 58.5,8.5C 57.3263,7.48631 56.6596,6.15298 56.5,4.5 Z"/></g>
<g><path style="opacity:1" fill="#8b9387" d="M 62.5,12.5 C 65.2809,14.6098 67.2809,17.2765 68.5,20.5C 65.7376,18.4044 63.7376,15.7377 62.5,12.5 Z"/></g>
<g><path style="opacity:1" fill="#fefefe" d="M -0.5,15.5 C 1.16667,17.1667 2.83333,18.8333 4.5,20.5C 6.71399,23.5706 9.38066,26.2373 12.5,28.5C 12.4802,30.143 13.1468,31.4763 14.5,32.5C 15.6136,33.7759 16.6136,33.7759 17.5,32.5C 20.7423,28.4438 24.409,24.7771 28.5,21.5C 30.2915,21.366 31.9582,21.6993 33.5,22.5C 33.8333,22.5 34.1667,22.5 34.5,22.5C 35.7676,25.4304 37.4342,28.0971 39.5,30.5C 40.2223,31.5511 41.2223,32.2178 42.5,32.5C 43.7676,35.4304 45.4342,38.0971 47.5,40.5C 49.4607,41.4602 51.1274,42.7935 52.5,44.5C 53.037,47.0359 54.3703,49.0359 56.5,50.5C 58.1667,52.1667 59.8333,53.8333 61.5,55.5C 61.5,56.1667 61.8333,56.5 62.5,56.5C 62.5,56.8333 62.5,57.1667 62.5,57.5C 41.5,57.5 20.5,57.5 -0.5,57.5C -0.5,43.5 -0.5,29.5 -0.5,15.5 Z"/></g>
<g><path style="opacity:1" fill="#8b9286" d="M -0.5,12.5 C -0.166667,12.5 0.166667,12.5 0.5,12.5C 1.83333,15.1667 3.16667,17.8333 4.5,20.5C 2.83333,18.8333 1.16667,17.1667 -0.5,15.5C -0.5,14.5 -0.5,13.5 -0.5,12.5 Z"/></g>
<g><path style="opacity:1" fill="#babcb9" d="M 33.5,22.5 C 31.9582,21.6993 30.2915,21.366 28.5,21.5C 30.3637,17.8978 32.0304,18.2311 33.5,22.5 Z"/></g>
<g><path style="opacity:1" fill="#a5a8a2" d="M 34.5,22.5 C 37.3996,24.3989 39.0663,27.0656 39.5,30.5C 37.4342,28.0971 35.7676,25.4304 34.5,22.5 Z"/></g>
<g><path style="opacity:1" fill="#8f978b" d="M 73.5,24.5 C 76.2258,27.5591 78.5592,30.8924 80.5,34.5C 76.9548,31.9644 74.6215,28.6311 73.5,24.5 Z"/></g>
<g><path style="opacity:1" fill="#adafaa" d="M 12.5,28.5 C 13.8726,30.2065 15.5393,31.5398 17.5,32.5C 16.6136,33.7759 15.6136,33.7759 14.5,32.5C 13.1468,31.4763 12.4802,30.143 12.5,28.5 Z"/></g>
<g><path style="opacity:1" fill="#a2a59e" d="M 42.5,32.5 C 45.3996,34.3989 47.0663,37.0656 47.5,40.5C 45.4342,38.0971 43.7676,35.4304 42.5,32.5 Z"/></g>
<g><path style="opacity:1" fill="#babcb9" d="M 83.5,36.5 C 83.8333,36.5 84.1667,36.5 84.5,36.5C 84.5,38.1667 84.5,39.8333 84.5,41.5C 81.5768,43.4155 78.9101,45.7488 76.5,48.5C 75.3112,49.4287 73.9778,49.762 72.5,49.5C 77.6417,46.3627 81.3084,42.0294 83.5,36.5 Z"/></g>
<g><path style="opacity:1" fill="#fcfcfc" d="M 84.5,41.5 C 84.5,46.8333 84.5,52.1667 84.5,57.5C 78.5,57.5 72.5,57.5 66.5,57.5C 66.5,56.5 66.5,55.5 66.5,54.5C 68.7976,53.2034 70.7976,51.5368 72.5,49.5C 73.9778,49.762 75.3112,49.4287 76.5,48.5C 78.9101,45.7488 81.5768,43.4155 84.5,41.5 Z"/></g>
<g><path style="opacity:1" fill="#a6a9a3" d="M 52.5,44.5 C 54.6099,45.9501 55.9432,47.9501 56.5,50.5C 54.3703,49.0359 53.037,47.0359 52.5,44.5 Z"/></g>
<g><path style="opacity:1" fill="#979d93" d="M 56.5,50.5 C 59.5,50.8333 61.1667,52.5 61.5,55.5C 59.8333,53.8333 58.1667,52.1667 56.5,50.5 Z"/></g>
<g><path style="opacity:1" fill="#9a9f96" d="M 66.5,54.5 C 66.5,55.5 66.5,56.5 66.5,57.5C 65.1667,57.5 63.8333,57.5 62.5,57.5C 62.5,57.1667 62.5,56.8333 62.5,56.5C 64.1993,56.4729 65.5326,55.8062 66.5,54.5 Z"/></g>
</svg>
