<?xml version="1.0" encoding="UTF-8"?>
<!DOCTYPE svg PUBLIC "-//W3C//DTD SVG 1.1//EN" "http://www.w3.org/Graphics/SVG/1.1/DTD/svg11.dtd">
<svg xmlns="http://www.w3.org/2000/svg" version="1.1" width="90px" height="54px" style="shape-rendering:geometricPrecision; text-rendering:geometricPrecision; image-rendering:optimizeQuality; fill-rule:evenodd; clip-rule:evenodd" xmlns:xlink="http://www.w3.org/1999/xlink">
<g><path style="opacity:1" fill="#fefefe" d="M -0.5,-0.5 C 25.1667,-0.5 50.8333,-0.5 76.5,-0.5C 76.5,-0.166667 76.5,0.166667 76.5,0.5C 73.4707,1.67631 70.8041,3.34298 68.5,5.5C 65.1517,5.71077 62.1517,6.71077 59.5,8.5C 58.0867,9.93479 56.42,10.9348 54.5,11.5C 48.2296,13.3082 42.2296,15.6416 36.5,18.5C 36.5,18.8333 36.5,19.1667 36.5,19.5C 32.9089,19.9446 29.5756,20.9446 26.5,22.5C 26.5,22.8333 26.5,23.1667 26.5,23.5C 22.9089,23.9446 19.5756,24.9446 16.5,26.5C 16.5,26.8333 16.5,27.1667 16.5,27.5C 10.8842,29.0384 5.21755,30.3717 -0.5,31.5C -0.5,20.8333 -0.5,10.1667 -0.5,-0.5 Z"/></g>
<g><path style="opacity:1" fill="#fefffe" d="M 85.5,-0.5 C 86.8333,-0.5 88.1667,-0.5 89.5,-0.5C 89.5,13.5 89.5,27.5 89.5,41.5C 87.9201,39.2829 86.9201,36.6163 86.5,33.5C 83.1316,22.2143 82.7983,10.8809 85.5,-0.5 Z"/></g>
<g><path style="opacity:1" fill="#5e828b" d="M 76.5,0.5 C 79.1667,0.5 81.8333,0.5 84.5,0.5C 81.6601,15.7782 82.9935,30.7782 88.5,45.5C 88.1971,47.1143 87.5305,48.4477 86.5,49.5C 74.011,50.4954 61.3443,50.8287 48.5,50.5C 39.8269,50.3336 31.1603,50.5002 22.5,51C 21.944,51.3826 21.6107,51.8826 21.5,52.5C 14.5,52.5 7.5,52.5 0.5,52.5C 0.5,45.8333 0.5,39.1667 0.5,32.5C 6.22593,31.812 11.5593,30.1454 16.5,27.5C 16.5,27.1667 16.5,26.8333 16.5,26.5C 20.2211,26.4793 23.5545,25.4793 26.5,23.5C 26.5,23.1667 26.5,22.8333 26.5,22.5C 30.2211,22.4793 33.5545,21.4793 36.5,19.5C 36.5,19.1667 36.5,18.8333 36.5,18.5C 42.9756,17.2573 48.9756,14.924 54.5,11.5C 56.42,10.9348 58.0867,9.93479 59.5,8.5C 62.8483,8.28923 65.8483,7.28923 68.5,5.5C 70.8041,3.34298 73.4707,1.67631 76.5,0.5 Z"/></g>
<g><path style="opacity:1" fill="#b9b9b9" d="M 68.5,5.5 C 65.8483,7.28923 62.8483,8.28923 59.5,8.5C 62.1517,6.71077 65.1517,5.71077 68.5,5.5 Z"/></g>
<g><path style="opacity:1" fill="#b4b5b5" d="M 54.5,11.5 C 48.9756,14.924 42.9756,17.2573 36.5,18.5C 42.2296,15.6416 48.2296,13.3082 54.5,11.5 Z"/></g>
<g><path style="opacity:1" fill="#b9b9b9" d="M 36.5,19.5 C 33.5545,21.4793 30.2211,22.4793 26.5,22.5C 29.5756,20.9446 32.9089,19.9446 36.5,19.5 Z"/></g>
<g><path style="opacity:1" fill="#b9baba" d="M 26.5,23.5 C 23.5545,25.4793 20.2211,26.4793 16.5,26.5C 19.5756,24.9446 22.9089,23.9446 26.5,23.5 Z"/></g>
<g><path style="opacity:1" fill="#bababa" d="M 76.5,0.5 C 76.5,0.166667 76.5,-0.166667 76.5,-0.5C 79.5,-0.5 82.5,-0.5 85.5,-0.5C 82.7983,10.8809 83.1316,22.2143 86.5,33.5C 86.9201,36.6163 87.9201,39.2829 89.5,41.5C 89.5,44.1667 89.5,46.8333 89.5,49.5C 88.5,49.5 87.5,49.5 86.5,49.5C 87.5305,48.4477 88.1971,47.1143 88.5,45.5C 82.9935,30.7782 81.6601,15.7782 84.5,0.5C 81.8333,0.5 79.1667,0.5 76.5,0.5 Z"/></g>
<g><path style="opacity:1" fill="#bababa" d="M 16.5,27.5 C 11.5593,30.1454 6.22593,31.812 0.5,32.5C 0.5,39.1667 0.5,45.8333 0.5,52.5C 7.5,52.5 14.5,52.5 21.5,52.5C 30.5,52.5 39.5,52.5 48.5,52.5C 48.5,52.8333 48.5,53.1667 48.5,53.5C 32.1667,53.5 15.8333,53.5 -0.5,53.5C -0.5,46.1667 -0.5,38.8333 -0.5,31.5C 5.21755,30.3717 10.8842,29.0384 16.5,27.5 Z"/></g>
<g><path style="opacity:1" fill="#efefef" d="M 86.5,49.5 C 87.5,49.5 88.5,49.5 89.5,49.5C 89.5,50.8333 89.5,52.1667 89.5,53.5C 75.8333,53.5 62.1667,53.5 48.5,53.5C 48.5,53.1667 48.5,52.8333 48.5,52.5C 48.5,51.8333 48.5,51.1667 48.5,50.5C 61.3443,50.8287 74.011,50.4954 86.5,49.5 Z"/></g>
<g><path style="opacity:1" fill="#64767b" d="M 48.5,50.5 C 48.5,51.1667 48.5,51.8333 48.5,52.5C 39.5,52.5 30.5,52.5 21.5,52.5C 21.6107,51.8826 21.944,51.3826 22.5,51C 31.1603,50.5002 39.8269,50.3336 48.5,50.5 Z"/></g>
</svg>
