<?xml version="1.0" encoding="UTF-8"?>
<!DOCTYPE svg PUBLIC "-//W3C//DTD SVG 1.1//EN" "http://www.w3.org/Graphics/SVG/1.1/DTD/svg11.dtd">
<svg xmlns="http://www.w3.org/2000/svg" version="1.1" width="132px" height="156px" style="shape-rendering:geometricPrecision; text-rendering:geometricPrecision; image-rendering:optimizeQuality; fill-rule:evenodd; clip-rule:evenodd" xmlns:xlink="http://www.w3.org/1999/xlink">
<g><path style="opacity:1" fill="#fdfdfd" d="M -0.5,-0.5 C 43.5,-0.5 87.5,-0.5 131.5,-0.5C 131.5,41.8333 131.5,84.1667 131.5,126.5C 130.022,126.762 128.689,126.429 127.5,125.5C 115.174,117.486 103.174,109.152 91.5,100.5C 91.0198,97.5568 90.0198,94.8902 88.5,92.5C 87.5655,91.4324 87.2322,90.099 87.5,88.5C 86.9382,71.5211 84.9382,54.8545 81.5,38.5C 80.5655,37.4324 80.2322,36.099 80.5,34.5C 80.6558,30.2357 79.9891,26.2357 78.5,22.5C 76.899,17.4005 75.899,12.0672 75.5,6.5C 75.7406,4.10163 75.0739,2.10163 73.5,0.5C 72.1667,0.5 70.8333,0.5 69.5,0.5C 67.3736,1.04816 65.3736,1.71482 63.5,2.5C 60.8333,2.5 58.1667,2.5 55.5,2.5C 53.3736,3.04816 51.3736,3.71482 49.5,4.5C 46.8333,4.5 44.1667,4.5 41.5,4.5C 38.0588,5.09654 34.7254,5.76321 31.5,6.5C 26.0279,6.1486 20.6945,6.81527 15.5,8.5C 10.4225,11.3616 5.75585,14.695 1.5,18.5C 0.833333,19.1667 0.166667,19.8333 -0.5,20.5C -0.5,13.5 -0.5,6.5 -0.5,-0.5 Z"/></g>
<g><path style="opacity:1" fill="#2e7f30" d="M 69.5,0.5 C 70.8333,0.5 72.1667,0.5 73.5,0.5C 73.0254,3.08209 73.6921,5.08209 75.5,6.5C 75.899,12.0672 76.899,17.4005 78.5,22.5C 78.5387,26.7329 79.2053,30.7329 80.5,34.5C 80.2322,36.099 80.5655,37.4324 81.5,38.5C 83.5108,55.302 85.5108,71.9687 87.5,88.5C 87.2322,90.099 87.5655,91.4324 88.5,92.5C 88.4152,95.6489 89.4152,98.3155 91.5,100.5C 103.174,109.152 115.174,117.486 127.5,125.5C 128.689,126.429 130.022,126.762 131.5,126.5C 131.5,127.833 131.5,129.167 131.5,130.5C 129.247,131.743 127.247,133.41 125.5,135.5C 121.996,141.844 117.996,147.844 113.5,153.5C 112.667,153.833 111.833,154.167 111,154.5C 107.848,153.004 104.682,151.671 101.5,150.5C 97.2853,148.564 92.6186,147.897 87.5,148.5C 86.0222,148.762 84.6888,148.429 83.5,147.5C 76.1033,143.128 69.4367,137.795 63.5,131.5C 53.1855,126.174 42.8522,121.174 32.5,116.5C 31.7769,114.836 32.1103,113.169 33.5,111.5C 32.0805,106.298 30.4138,101.298 28.5,96.5C 28.1249,94.3024 27.4582,92.3024 26.5,90.5C 26.0702,86.9131 24.9035,83.5798 23,80.5C 22.5026,77.854 22.3359,75.1873 22.5,72.5C 25.4124,71.2601 27.7457,69.2601 29.5,66.5C 31.3079,65.0821 31.9746,63.0821 31.5,60.5C 33.3863,50.9172 29.7197,44.9172 20.5,42.5C 20.1788,40.9519 19.1788,40.2852 17.5,40.5C 9.70106,38.7039 4.36773,34.0373 1.5,26.5C 1.5,23.8333 1.5,21.1667 1.5,18.5C 5.75585,14.695 10.4225,11.3616 15.5,8.5C 20.6945,6.81527 26.0279,6.1486 31.5,6.5C 35.3293,7.06896 38.6627,6.40229 41.5,4.5C 44.1667,4.5 46.8333,4.5 49.5,4.5C 52.0821,4.97461 54.0821,4.30794 55.5,2.5C 58.1667,2.5 60.8333,2.5 63.5,2.5C 66.0821,2.97461 68.0821,2.30794 69.5,0.5 Z"/></g>
<g><path style="opacity:1" fill="#5f8461" d="M 69.5,0.5 C 68.0821,2.30794 66.0821,2.97461 63.5,2.5C 65.3736,1.71482 67.3736,1.04816 69.5,0.5 Z"/></g>
<g><path style="opacity:1" fill="#638664" d="M 55.5,2.5 C 54.0821,4.30794 52.0821,4.97461 49.5,4.5C 51.3736,3.71482 53.3736,3.04816 55.5,2.5 Z"/></g>
<g><path style="opacity:1" fill="#638864" d="M 73.5,0.5 C 75.0739,2.10163 75.7406,4.10163 75.5,6.5C 73.6921,5.08209 73.0254,3.08209 73.5,0.5 Z"/></g>
<g><path style="opacity:1" fill="#6c8c6c" d="M 41.5,4.5 C 38.6627,6.40229 35.3293,7.06896 31.5,6.5C 34.7254,5.76321 38.0588,5.09654 41.5,4.5 Z"/></g>
<g><path style="opacity:1" fill="#5f8660" d="M 1.5,18.5 C 1.5,21.1667 1.5,23.8333 1.5,26.5C 0.833333,26.5 0.166667,26.5 -0.5,26.5C -0.5,24.5 -0.5,22.5 -0.5,20.5C 0.166667,19.8333 0.833333,19.1667 1.5,18.5 Z"/></g>
<g><path style="opacity:1" fill="#fdfdfd" d="M -0.5,26.5 C 0.166667,26.5 0.833333,26.5 1.5,26.5C 4.36773,34.0373 9.70106,38.7039 17.5,40.5C 18.2905,41.4013 19.2905,42.0679 20.5,42.5C 29.7197,44.9172 33.3863,50.9172 31.5,60.5C 30.7148,62.3736 30.0482,64.3736 29.5,66.5C 27.7457,69.2601 25.4124,71.2601 22.5,72.5C 22.3359,75.1873 22.5026,77.854 23,80.5C 24.9035,83.5798 26.0702,86.9131 26.5,90.5C 26.0535,93.0101 26.7202,95.0101 28.5,96.5C 30.4138,101.298 32.0805,106.298 33.5,111.5C 32.1103,113.169 31.7769,114.836 32.5,116.5C 42.8522,121.174 53.1855,126.174 63.5,131.5C 69.4367,137.795 76.1033,143.128 83.5,147.5C 84.6888,148.429 86.0222,148.762 87.5,148.5C 92.0638,149.216 96.7305,149.883 101.5,150.5C 104.682,151.671 107.848,153.004 111,154.5C 111.833,154.167 112.667,153.833 113.5,153.5C 117.996,147.844 121.996,141.844 125.5,135.5C 127.247,133.41 129.247,131.743 131.5,130.5C 131.5,138.833 131.5,147.167 131.5,155.5C 87.5,155.5 43.5,155.5 -0.5,155.5C -0.5,112.5 -0.5,69.5 -0.5,26.5 Z"/></g>
<g><path style="opacity:1" fill="#b2bdb3" d="M 78.5,22.5 C 79.9891,26.2357 80.6558,30.2357 80.5,34.5C 79.2053,30.7329 78.5387,26.7329 78.5,22.5 Z"/></g>
<g><path style="opacity:1" fill="#8ca18e" d="M 17.5,40.5 C 19.1788,40.2852 20.1788,40.9519 20.5,42.5C 19.2905,42.0679 18.2905,41.4013 17.5,40.5 Z"/></g>
<g><path style="opacity:1" fill="#bac3bb" d="M 81.5,38.5 C 84.9382,54.8545 86.9382,71.5211 87.5,88.5C 85.5108,71.9687 83.5108,55.302 81.5,38.5 Z"/></g>
<g><path style="opacity:1" fill="#5f855f" d="M 31.5,60.5 C 31.9746,63.0821 31.3079,65.0821 29.5,66.5C 30.0482,64.3736 30.7148,62.3736 31.5,60.5 Z"/></g>
<g><path style="opacity:1" fill="#a2b0a4" d="M 26.5,90.5 C 27.4582,92.3024 28.1249,94.3024 28.5,96.5C 26.7202,95.0101 26.0535,93.0101 26.5,90.5 Z"/></g>
<g><path style="opacity:1" fill="#b4bfb5" d="M 88.5,92.5 C 90.0198,94.8902 91.0198,97.5568 91.5,100.5C 89.4152,98.3155 88.4152,95.6489 88.5,92.5 Z"/></g>
<g><path style="opacity:1" fill="#688969" d="M 87.5,148.5 C 92.6186,147.897 97.2853,148.564 101.5,150.5C 96.7305,149.883 92.0638,149.216 87.5,148.5 Z"/></g>
</svg>
