<?xml version="1.0" encoding="UTF-8"?>
<!DOCTYPE svg PUBLIC "-//W3C//DTD SVG 1.1//EN" "http://www.w3.org/Graphics/SVG/1.1/DTD/svg11.dtd">
<svg xmlns="http://www.w3.org/2000/svg" version="1.1" width="163px" height="142px" style="shape-rendering:geometricPrecision; text-rendering:geometricPrecision; image-rendering:optimizeQuality; fill-rule:evenodd; clip-rule:evenodd" xmlns:xlink="http://www.w3.org/1999/xlink">
<g><path style="opacity:1" fill="#fefefe" d="M -0.5,-0.5 C 53.8333,-0.5 108.167,-0.5 162.5,-0.5C 162.5,9.16667 162.5,18.8333 162.5,28.5C 162.167,28.5 161.833,28.5 161.5,28.5C 160.539,26.7354 160.205,24.7354 160.5,22.5C 161.036,19.3019 160.369,16.6353 158.5,14.5C 158.428,10.3735 157.761,6.37353 156.5,2.5C 154.8,2.37394 153.3,1.70728 152,0.5C 150.989,1.05558 150.156,1.72225 149.5,2.5C 148.026,3.43634 147.026,4.76967 146.5,6.5C 146.672,7.49162 146.338,8.15829 145.5,8.5C 143.461,9.91104 142.461,11.911 142.5,14.5C 142.167,14.5 141.833,14.5 141.5,14.5C 140.026,15.4363 139.026,16.7697 138.5,18.5C 138.768,20.099 138.434,21.4324 137.5,22.5C 134.544,27.3543 132.544,32.6876 131.5,38.5C 127.338,47.999 124.338,57.999 122.5,68.5C 120.924,77.7415 115.924,84.4082 107.5,88.5C 107.771,86.6203 107.104,85.287 105.5,84.5C 103.5,82.5 101.5,80.5 99.5,78.5C 96.931,73.9249 93.5976,69.9249 89.5,66.5C 86.8333,63.8333 84.1667,61.1667 81.5,58.5C 80.2809,55.2765 78.2809,52.6098 75.5,50.5C 74.1667,49.1667 72.8333,47.8333 71.5,46.5C 70.2809,43.2765 68.2809,40.6098 65.5,38.5C 64.1224,37.4549 63.1224,36.1216 62.5,34.5C 60.5103,31.5117 58.1769,28.8451 55.5,26.5C 54.4928,25.1716 53.1595,24.1716 51.5,23.5C 49.1304,25.2166 46.797,26.8833 44.5,28.5C 41.7839,29.8826 39.7839,31.8826 38.5,34.5C 33.2394,38.7562 28.2394,43.4229 23.5,48.5C 22.5713,49.6888 22.238,51.0222 22.5,52.5C 21.0222,52.762 19.6888,52.4287 18.5,51.5C 16.0899,48.7488 13.4232,46.4155 10.5,44.5C 6.81421,47.5233 3.14754,50.5233 -0.5,53.5C -0.5,35.5 -0.5,17.5 -0.5,-0.5 Z"/></g>
<g><path style="opacity:1" fill="#5aaa6b" d="M 158.5,14.5 C 158.111,17.5533 158.777,20.22 160.5,22.5C 160.205,24.7354 160.539,26.7354 161.5,28.5C 161.784,38.5522 161.45,48.5522 160.5,58.5C 160.167,58.5 159.833,58.5 159.5,58.5C 158.167,58.5 157.5,59.1667 157.5,60.5C 156.833,61.1667 156.167,61.8333 155.5,62.5C 152.828,62.9477 150.828,64.281 149.5,66.5C 148.778,67.5511 147.778,68.2178 146.5,68.5C 144.992,70.1815 143.992,72.1815 143.5,74.5C 138.657,78.1837 133.99,82.1837 129.5,86.5C 128.418,89.0176 129.085,91.0176 131.5,92.5C 133.413,96.4158 136.08,99.7492 139.5,102.5C 141.5,104.5 143.5,106.5 145.5,108.5C 146.774,112.106 149.107,114.773 152.5,116.5C 154.871,119.213 156.871,122.213 158.5,125.5C 154.554,131.448 149.887,136.781 144.5,141.5C 143.833,141.5 143.167,141.5 142.5,141.5C 130.211,140.969 122.878,134.636 120.5,122.5C 121.036,119.302 120.369,116.635 118.5,114.5C 116.5,111.167 113.833,108.5 110.5,106.5C 108.718,105.28 106.718,104.614 104.5,104.5C 103.833,102.5 102.5,101.167 100.5,100.5C 96.715,100.631 93.0483,101.298 89.5,102.5C 88.1667,102.5 87.5,103.167 87.5,104.5C 86.1067,105.26 84.6067,105.926 83,106.5C 81.6349,106.156 80.4682,105.489 79.5,104.5C 76.6772,100.199 75.0105,95.5326 74.5,90.5C 74.7406,88.1016 74.0739,86.1016 72.5,84.5C 70.9709,83.6532 69.3042,82.9865 67.5,82.5C 65.6958,82.9865 64.0291,83.6532 62.5,84.5C 61.1667,84.5 60.5,85.1667 60.5,86.5C 54.9486,88.1884 49.2819,88.6884 43.5,88C 37.4652,85.3596 31.7985,82.193 26.5,78.5C 25.8333,76.5 24.5,75.1667 22.5,74.5C 21.8333,74.5 21.1667,74.5 20.5,74.5C 19.8333,72.5 18.5,71.1667 16.5,70.5C 12.1855,66.6759 7.51883,63.3425 2.5,60.5C 1.89213,59.2003 1.22547,57.8669 0.5,56.5C 3.87945,52.4615 7.21279,48.4615 10.5,44.5C 13.4232,46.4155 16.0899,48.7488 18.5,51.5C 19.6888,52.4287 21.0222,52.762 22.5,52.5C 22.238,51.0222 22.5713,49.6888 23.5,48.5C 28.2394,43.4229 33.2394,38.7562 38.5,34.5C 41.1667,33.1667 43.1667,31.1667 44.5,28.5C 46.797,26.8833 49.1304,25.2166 51.5,23.5C 53.1595,24.1716 54.4928,25.1716 55.5,26.5C 56.7736,30.1062 59.107,32.7728 62.5,34.5C 63.1224,36.1216 64.1224,37.4549 65.5,38.5C 66.7376,41.7377 68.7376,44.4044 71.5,46.5C 72.8333,47.8333 74.1667,49.1667 75.5,50.5C 76.7376,53.7377 78.7376,56.4044 81.5,58.5C 84.1667,61.1667 86.8333,63.8333 89.5,66.5C 92.0864,71.0896 95.4198,75.0896 99.5,78.5C 101.5,80.5 103.5,82.5 105.5,84.5C 105.66,86.153 106.326,87.4863 107.5,88.5C 115.924,84.4082 120.924,77.7415 122.5,68.5C 126.471,58.9102 129.471,48.9102 131.5,38.5C 134.097,33.4846 136.097,28.1513 137.5,22.5C 138.434,21.4324 138.768,20.099 138.5,18.5C 140.446,17.9653 141.446,16.632 141.5,14.5C 141.833,14.5 142.167,14.5 142.5,14.5C 144.008,12.8185 145.008,10.8185 145.5,8.5C 146.338,8.15829 146.672,7.49162 146.5,6.5C 148.446,5.96528 149.446,4.63195 149.5,2.5C 150.156,1.72225 150.989,1.05558 152,0.5C 153.3,1.70728 154.8,2.37394 156.5,2.5C 157.761,6.37353 158.428,10.3735 158.5,14.5 Z"/></g>
<g><path style="opacity:1" fill="#98ab9c" d="M 149.5,2.5 C 149.446,4.63195 148.446,5.96528 146.5,6.5C 147.026,4.76967 148.026,3.43634 149.5,2.5 Z"/></g>
<g><path style="opacity:1" fill="#90a894" d="M 145.5,8.5 C 145.008,10.8185 144.008,12.8185 142.5,14.5C 142.461,11.911 143.461,9.91104 145.5,8.5 Z"/></g>
<g><path style="opacity:1" fill="#7ea085" d="M 158.5,14.5 C 160.369,16.6353 161.036,19.3019 160.5,22.5C 158.777,20.22 158.111,17.5533 158.5,14.5 Z"/></g>
<g><path style="opacity:1" fill="#99ab9c" d="M 141.5,14.5 C 141.446,16.632 140.446,17.9653 138.5,18.5C 139.026,16.7697 140.026,15.4363 141.5,14.5 Z"/></g>
<g><path style="opacity:1" fill="#9cafa0" d="M 137.5,22.5 C 136.097,28.1513 134.097,33.4846 131.5,38.5C 132.544,32.6876 134.544,27.3543 137.5,22.5 Z"/></g>
<g><path style="opacity:1" fill="#9dafa2" d="M 55.5,26.5 C 58.1769,28.8451 60.5103,31.5117 62.5,34.5C 59.107,32.7728 56.7736,30.1062 55.5,26.5 Z"/></g>
<g><path style="opacity:1" fill="#8da291" d="M 161.5,28.5 C 161.833,28.5 162.167,28.5 162.5,28.5C 162.5,38.1667 162.5,47.8333 162.5,57.5C 161.833,57.8333 161.167,58.1667 160.5,58.5C 161.45,48.5522 161.784,38.5522 161.5,28.5 Z"/></g>
<g><path style="opacity:1" fill="#9eb3a4" d="M 44.5,28.5 C 43.1667,31.1667 41.1667,33.1667 38.5,34.5C 39.7839,31.8826 41.7839,29.8826 44.5,28.5 Z"/></g>
<g><path style="opacity:1" fill="#a6b5a9" d="M 65.5,38.5 C 68.2809,40.6098 70.2809,43.2765 71.5,46.5C 68.7376,44.4044 66.7376,41.7377 65.5,38.5 Z"/></g>
<g><path style="opacity:1" fill="#a9b8ac" d="M 10.5,44.5 C 7.21279,48.4615 3.87945,52.4615 0.5,56.5C 1.22547,57.8669 1.89213,59.2003 2.5,60.5C 1.60895,59.8902 0.608953,59.5569 -0.5,59.5C -0.5,57.5 -0.5,55.5 -0.5,53.5C 3.14754,50.5233 6.81421,47.5233 10.5,44.5 Z"/></g>
<g><path style="opacity:1" fill="#a3b2a6" d="M 75.5,50.5 C 78.2809,52.6098 80.2809,55.2765 81.5,58.5C 78.7376,56.4044 76.7376,53.7377 75.5,50.5 Z"/></g>
<g><path style="opacity:1" fill="#fbfcfb" d="M 162.5,57.5 C 162.5,85.5 162.5,113.5 162.5,141.5C 156.5,141.5 150.5,141.5 144.5,141.5C 149.887,136.781 154.554,131.448 158.5,125.5C 156.871,122.213 154.871,119.213 152.5,116.5C 150.51,113.512 148.177,110.845 145.5,108.5C 143.5,106.5 141.5,104.5 139.5,102.5C 137.604,98.5985 134.938,95.2652 131.5,92.5C 129.085,91.0176 128.418,89.0176 129.5,86.5C 133.99,82.1837 138.657,78.1837 143.5,74.5C 145.614,73.216 146.614,71.216 146.5,68.5C 147.778,68.2178 148.778,67.5511 149.5,66.5C 152.05,65.9432 154.05,64.6099 155.5,62.5C 156.167,61.8333 156.833,61.1667 157.5,60.5C 158.833,60.5 159.5,59.8333 159.5,58.5C 159.833,58.5 160.167,58.5 160.5,58.5C 161.167,58.1667 161.833,57.8333 162.5,57.5 Z"/></g>
<g><path style="opacity:1" fill="#fefefe" d="M -0.5,59.5 C 0.608953,59.5569 1.60895,59.8902 2.5,60.5C 7.51883,63.3425 12.1855,66.6759 16.5,70.5C 16.894,72.7099 18.2273,74.0432 20.5,74.5C 21.1667,74.5 21.8333,74.5 22.5,74.5C 22.894,76.7099 24.2273,78.0432 26.5,78.5C 31.7985,82.193 37.4652,85.3596 43.5,88C 49.2819,88.6884 54.9486,88.1884 60.5,86.5C 61.8333,86.5 62.5,85.8333 62.5,84.5C 64.0291,83.6532 65.6958,82.9865 67.5,82.5C 69.3042,82.9865 70.9709,83.6532 72.5,84.5C 72.0535,87.0101 72.7202,89.0101 74.5,90.5C 75.0105,95.5326 76.6772,100.199 79.5,104.5C 80.4682,105.489 81.6349,106.156 83,106.5C 84.6067,105.926 86.1067,105.26 87.5,104.5C 88.8333,104.5 89.5,103.833 89.5,102.5C 93.0483,101.298 96.715,100.631 100.5,100.5C 100.894,102.71 102.227,104.043 104.5,104.5C 106.718,104.614 108.718,105.28 110.5,106.5C 112.451,109.785 115.118,112.451 118.5,114.5C 118.337,116.857 118.503,119.19 119,121.5C 119.383,122.056 119.883,122.389 120.5,122.5C 122.878,134.636 130.211,140.969 142.5,141.5C 94.8333,141.5 47.1667,141.5 -0.5,141.5C -0.5,114.167 -0.5,86.8333 -0.5,59.5 Z"/></g>
<g><path style="opacity:1" fill="#86a28c" d="M 159.5,58.5 C 159.5,59.8333 158.833,60.5 157.5,60.5C 157.5,59.1667 158.167,58.5 159.5,58.5 Z"/></g>
<g><path style="opacity:1" fill="#97ac9c" d="M 131.5,38.5 C 129.471,48.9102 126.471,58.9102 122.5,68.5C 124.338,57.999 127.338,47.999 131.5,38.5 Z"/></g>
<g><path style="opacity:1" fill="#91a997" d="M 155.5,62.5 C 154.05,64.6099 152.05,65.9432 149.5,66.5C 150.828,64.281 152.828,62.9477 155.5,62.5 Z"/></g>
<g><path style="opacity:1" fill="#a7b5aa" d="M 89.5,66.5 C 93.5976,69.9249 96.931,73.9249 99.5,78.5C 95.4198,75.0896 92.0864,71.0896 89.5,66.5 Z"/></g>
<g><path style="opacity:1" fill="#8da893" d="M 146.5,68.5 C 146.614,71.216 145.614,73.216 143.5,74.5C 143.992,72.1815 144.992,70.1815 146.5,68.5 Z"/></g>
<g><path style="opacity:1" fill="#95ab99" d="M 16.5,70.5 C 18.5,71.1667 19.8333,72.5 20.5,74.5C 18.2273,74.0432 16.894,72.7099 16.5,70.5 Z"/></g>
<g><path style="opacity:1" fill="#95ab9a" d="M 22.5,74.5 C 24.5,75.1667 25.8333,76.5 26.5,78.5C 24.2273,78.0432 22.894,76.7099 22.5,74.5 Z"/></g>
<g><path style="opacity:1" fill="#84a28b" d="M 62.5,84.5 C 62.5,85.8333 61.8333,86.5 60.5,86.5C 60.5,85.1667 61.1667,84.5 62.5,84.5 Z"/></g>
<g><path style="opacity:1" fill="#83a28b" d="M 72.5,84.5 C 74.0739,86.1016 74.7406,88.1016 74.5,90.5C 72.7202,89.0101 72.0535,87.0101 72.5,84.5 Z"/></g>
<g><path style="opacity:1" fill="#93a997" d="M 105.5,84.5 C 107.104,85.287 107.771,86.6203 107.5,88.5C 106.326,87.4863 105.66,86.153 105.5,84.5 Z"/></g>
<g><path style="opacity:1" fill="#a6b4a9" d="M 131.5,92.5 C 134.938,95.2652 137.604,98.5985 139.5,102.5C 136.08,99.7492 133.413,96.4158 131.5,92.5 Z"/></g>
<g><path style="opacity:1" fill="#82a189" d="M 89.5,102.5 C 89.5,103.833 88.8333,104.5 87.5,104.5C 87.5,103.167 88.1667,102.5 89.5,102.5 Z"/></g>
<g><path style="opacity:1" fill="#95ac98" d="M 100.5,100.5 C 102.5,101.167 103.833,102.5 104.5,104.5C 102.227,104.043 100.894,102.71 100.5,100.5 Z"/></g>
<g><path style="opacity:1" fill="#a0b2a4" d="M 110.5,106.5 C 113.833,108.5 116.5,111.167 118.5,114.5C 115.118,112.451 112.451,109.785 110.5,106.5 Z"/></g>
<g><path style="opacity:1" fill="#a5b4a8" d="M 145.5,108.5 C 148.177,110.845 150.51,113.512 152.5,116.5C 149.107,114.773 146.774,112.106 145.5,108.5 Z"/></g>
<g><path style="opacity:1" fill="#84a28b" d="M 118.5,114.5 C 120.369,116.635 121.036,119.302 120.5,122.5C 119.883,122.389 119.383,122.056 119,121.5C 118.503,119.19 118.337,116.857 118.5,114.5 Z"/></g>
</svg>
