<?xml version="1.0" encoding="UTF-8"?>
<!DOCTYPE svg PUBLIC "-//W3C//DTD SVG 1.1//EN" "http://www.w3.org/Graphics/SVG/1.1/DTD/svg11.dtd">
<svg xmlns="http://www.w3.org/2000/svg" version="1.1" width="129px" height="98px" style="shape-rendering:geometricPrecision; text-rendering:geometricPrecision; image-rendering:optimizeQuality; fill-rule:evenodd; clip-rule:evenodd" xmlns:xlink="http://www.w3.org/1999/xlink">
<g><path style="opacity:1" fill="#fefffe" d="M -0.5,-0.5 C 6.16667,-0.5 12.8333,-0.5 19.5,-0.5C 13.1484,2.7334 6.4817,5.40007 -0.5,7.5C -0.5,4.83333 -0.5,2.16667 -0.5,-0.5 Z"/></g>
<g><path style="opacity:1" fill="#fefffe" d="M 50.5,-0.5 C 76.5,-0.5 102.5,-0.5 128.5,-0.5C 128.5,16.5 128.5,33.5 128.5,50.5C 125.865,49.5265 123.865,47.8598 122.5,45.5C 120.187,41.362 121.021,37.6954 125,34.5C 125.956,30.428 125.456,26.5946 123.5,23C 121.527,22.5045 119.527,22.3379 117.5,22.5C 117.887,16.395 118.887,10.395 120.5,4.5C 115.105,4.73349 109.772,4.40016 104.5,3.5C 91.4848,3.10981 78.4848,2.44315 65.5,1.5C 60.5,0.833333 55.5,0.166667 50.5,-0.5 Z"/></g>
<g><path style="opacity:1" fill="#bababa" d="M 49.5,-0.5 C 49.8333,-0.5 50.1667,-0.5 50.5,-0.5C 55.5,0.166667 60.5,0.833333 65.5,1.5C 65.1667,1.5 64.8333,1.5 64.5,1.5C 59.5,1.5 54.5,1.5 49.5,1.5C 49.5,0.833333 49.5,0.166667 49.5,-0.5 Z"/></g>
<g><path style="opacity:1" fill="#a5b6b4" d="M 19.5,-0.5 C 29.5,-0.5 39.5,-0.5 49.5,-0.5C 49.5,0.166667 49.5,0.833333 49.5,1.5C 39.1613,1.33351 28.828,1.50017 18.5,2C 13.2802,4.30486 7.94688,6.30486 2.5,8C 1.83333,8.66667 1.16667,9.33333 0.5,10C 2.49499,12.1572 3.82833,14.6572 4.5,17.5C 2.83333,15.5 1.16667,13.5 -0.5,11.5C -0.5,10.1667 -0.5,8.83333 -0.5,7.5C 6.4817,5.40007 13.1484,2.7334 19.5,-0.5 Z"/></g>
<g><path style="opacity:1" fill="#81c3bc" d="M 49.5,1.5 C 54.5,1.5 59.5,1.5 64.5,1.5C 77.7697,3.95078 91.4364,5.28411 105.5,5.5C 109.833,5.5 114.167,5.5 118.5,5.5C 117.046,11.3687 116.379,17.3687 116.5,23.5C 121.915,22.6498 124.582,24.9831 124.5,30.5C 123.02,34.2812 121.354,37.9479 119.5,41.5C 119.668,43.1705 120.335,44.5039 121.5,45.5C 122.184,48.8506 124.184,50.8506 127.5,51.5C 127.74,54.5788 127.407,57.5788 126.5,60.5C 109.563,67.5713 92.8968,75.0713 76.5,83C 64.6773,87.7858 52.6773,91.9524 40.5,95.5C 39.7775,86.1635 38.9441,76.8302 38,67.5C 36.1191,60.293 34.7858,52.9597 34,45.5C 30.2834,43.8131 26.4501,42.4797 22.5,41.5C 21.5,41.1667 20.8333,40.5 20.5,39.5C 19.9342,35.6799 17.9342,33.0133 14.5,31.5C 14.6427,29.7376 14.3094,28.0709 13.5,26.5C 11.7906,23.4571 9.45722,21.1238 6.5,19.5C 5.5,19.1667 4.83333,18.5 4.5,17.5C 3.82833,14.6572 2.49499,12.1572 0.5,10C 1.16667,9.33333 1.83333,8.66667 2.5,8C 7.94688,6.30486 13.2802,4.30486 18.5,2C 28.828,1.50017 39.1613,1.33351 49.5,1.5 Z"/></g>
<g><path style="opacity:1" fill="#a0b6b3" d="M 64.5,1.5 C 64.8333,1.5 65.1667,1.5 65.5,1.5C 78.4848,2.44315 91.4848,3.10981 104.5,3.5C 104.833,4.16667 105.167,4.83333 105.5,5.5C 91.4364,5.28411 77.7697,3.95078 64.5,1.5 Z"/></g>
<g><path style="opacity:1" fill="#fefffe" d="M -0.5,11.5 C 1.16667,13.5 2.83333,15.5 4.5,17.5C 4.83333,18.5 5.5,19.1667 6.5,19.5C 9.17982,23.5368 11.8465,27.5368 14.5,31.5C 16.1468,34.4735 18.1468,37.1401 20.5,39.5C 20.8333,40.5 21.5,41.1667 22.5,41.5C 25.5734,43.8301 29.0734,45.4968 33,46.5C 33.7858,53.9597 35.1191,61.293 37,68.5C 37.9611,78.1623 38.7945,87.829 39.5,97.5C 26.1667,97.5 12.8333,97.5 -0.5,97.5C -0.5,68.8333 -0.5,40.1667 -0.5,11.5 Z"/></g>
<g><path style="opacity:1" fill="#aeb7b7" d="M 6.5,19.5 C 9.45722,21.1238 11.7906,23.4571 13.5,26.5C 14.3094,28.0709 14.6427,29.7376 14.5,31.5C 11.8465,27.5368 9.17982,23.5368 6.5,19.5 Z"/></g>
<g><path style="opacity:1" fill="#b5b9b9" d="M 104.5,3.5 C 109.772,4.40016 115.105,4.73349 120.5,4.5C 118.887,10.395 117.887,16.395 117.5,22.5C 119.527,22.3379 121.527,22.5045 123.5,23C 125.456,26.5946 125.956,30.428 125,34.5C 121.021,37.6954 120.187,41.362 122.5,45.5C 122.167,45.5 121.833,45.5 121.5,45.5C 120.335,44.5039 119.668,43.1705 119.5,41.5C 121.354,37.9479 123.02,34.2812 124.5,30.5C 124.582,24.9831 121.915,22.6498 116.5,23.5C 116.379,17.3687 117.046,11.3687 118.5,5.5C 114.167,5.5 109.833,5.5 105.5,5.5C 105.167,4.83333 104.833,4.16667 104.5,3.5 Z"/></g>
<g><path style="opacity:1" fill="#b1b7b7" d="M 14.5,31.5 C 17.9342,33.0133 19.9342,35.6799 20.5,39.5C 18.1468,37.1401 16.1468,34.4735 14.5,31.5 Z"/></g>
<g><path style="opacity:1" fill="#aeb8b7" d="M 22.5,41.5 C 26.4501,42.4797 30.2834,43.8131 34,45.5C 34.7858,52.9597 36.1191,60.293 38,67.5C 38.9441,76.8302 39.7775,86.1635 40.5,95.5C 52.6773,91.9524 64.6773,87.7858 76.5,83C 92.8968,75.0713 109.563,67.5713 126.5,60.5C 127.407,57.5788 127.74,54.5788 127.5,51.5C 124.184,50.8506 122.184,48.8506 121.5,45.5C 121.833,45.5 122.167,45.5 122.5,45.5C 123.865,47.8598 125.865,49.5265 128.5,50.5C 128.5,53.8333 128.5,57.1667 128.5,60.5C 127.596,61.209 127.263,62.209 127.5,63.5C 110.341,69.0551 93.6742,75.8885 77.5,84C 65.5733,88.8074 53.5733,93.3074 41.5,97.5C 40.8333,97.5 40.1667,97.5 39.5,97.5C 38.7945,87.829 37.9611,78.1623 37,68.5C 35.1191,61.293 33.7858,53.9597 33,46.5C 29.0734,45.4968 25.5734,43.8301 22.5,41.5 Z"/></g>
<g><path style="opacity:1" fill="#fefefe" d="M 128.5,60.5 C 128.5,72.8333 128.5,85.1667 128.5,97.5C 99.5,97.5 70.5,97.5 41.5,97.5C 53.5733,93.3074 65.5733,88.8074 77.5,84C 93.6742,75.8885 110.341,69.0551 127.5,63.5C 127.263,62.209 127.596,61.209 128.5,60.5 Z"/></g>
</svg>
