<?xml version="1.0" encoding="UTF-8"?>
<!DOCTYPE svg PUBLIC "-//W3C//DTD SVG 1.1//EN" "http://www.w3.org/Graphics/SVG/1.1/DTD/svg11.dtd">
<svg xmlns="http://www.w3.org/2000/svg" version="1.1" width="100px" height="96px" style="shape-rendering:geometricPrecision; text-rendering:geometricPrecision; image-rendering:optimizeQuality; fill-rule:evenodd; clip-rule:evenodd" xmlns:xlink="http://www.w3.org/1999/xlink">
<g><path style="opacity:1" fill="#fefefe" d="M -0.5,-0.5 C 7.5,-0.5 15.5,-0.5 23.5,-0.5C 22.4975,1.01094 21.8308,2.67761 21.5,4.5C 21.5,4.83333 21.5,5.16667 21.5,5.5C 17.5154,7.15532 15.5154,10.1553 15.5,14.5C 14.1667,20.5 14.1667,26.5 15.5,32.5C 15.7413,34.8863 15.0746,36.8863 13.5,38.5C 13.5,38.8333 13.5,39.1667 13.5,39.5C 10.9228,39.4551 8.9228,40.4551 7.5,42.5C 5.13513,45.1995 2.46846,47.5328 -0.5,49.5C -0.5,32.8333 -0.5,16.1667 -0.5,-0.5 Z"/></g>
<g><path style="opacity:1" fill="#c3c4c4" d="M 23.5,-0.5 C 25.5,-0.5 27.5,-0.5 29.5,-0.5C 29.5,-0.166667 29.5,0.166667 29.5,0.5C 26.0032,0.294458 23.3365,1.62779 21.5,4.5C 21.8308,2.67761 22.4975,1.01094 23.5,-0.5 Z"/></g>
<g><path style="opacity:1" fill="#fefefe" d="M 29.5,-0.5 C 52.8333,-0.5 76.1667,-0.5 99.5,-0.5C 99.5,19.5 99.5,39.5 99.5,59.5C 98.1667,58.8333 96.8333,58.1667 95.5,57.5C 89.6964,51.018 83.3631,45.3513 76.5,40.5C 75.0813,39.5489 73.4147,39.2155 71.5,39.5C 71.5,36.8333 71.5,34.1667 71.5,31.5C 66.5,31.5 61.5,31.5 56.5,31.5C 56.5,31.1667 56.5,30.8333 56.5,30.5C 56.089,26.6666 54.4223,23.6666 51.5,21.5C 50.4489,20.7777 49.7822,19.7777 49.5,18.5C 46.9644,14.9548 43.6311,12.6215 39.5,11.5C 35.8037,8.1383 32.4704,4.47163 29.5,0.5C 29.5,0.166667 29.5,-0.166667 29.5,-0.5 Z"/></g>
<g><path style="opacity:1" fill="#588b7c" d="M 29.5,0.5 C 32.4704,4.47163 35.8037,8.1383 39.5,11.5C 42.5591,14.2258 45.8924,16.5592 49.5,18.5C 49.7822,19.7777 50.4489,20.7777 51.5,21.5C 52.9731,24.7959 54.6398,27.7959 56.5,30.5C 56.5,30.8333 56.5,31.1667 56.5,31.5C 57.5676,32.4345 58.901,32.7678 60.5,32.5C 62.6353,34.369 65.3019,35.0356 68.5,34.5C 68.0254,37.0821 68.6921,39.0821 70.5,40.5C 72.5,40.5 74.5,40.5 76.5,40.5C 83.3631,45.3513 89.6964,51.018 95.5,57.5C 96.4839,59.4799 97.8173,61.1466 99.5,62.5C 99.5,63.1667 99.5,63.8333 99.5,64.5C 97.7872,65.305 96.1206,66.305 94.5,67.5C 96.1206,68.695 97.7872,69.695 99.5,70.5C 99.5,71.1667 99.5,71.8333 99.5,72.5C 95.8281,76.3207 91.8281,79.654 87.5,82.5C 85.5,83.1667 83.5,83.8333 81.5,84.5C 81.0296,83.3065 80.0296,82.6399 78.5,82.5C 74.777,83.6483 71.777,85.6483 69.5,88.5C 67.323,89.2794 65.6563,90.6127 64.5,92.5C 63.5,93.5 62.5,94.5 61.5,95.5C 60.1667,95.5 58.8333,95.5 57.5,95.5C 54.8244,92.0674 51.8244,89.0674 48.5,86.5C 48.6235,82.9601 46.9568,80.9601 43.5,80.5C 39.6662,79.0183 36.3328,76.685 33.5,73.5C 28.8056,72.1461 24.1389,70.8128 19.5,69.5C 19.5792,68.0695 19.2458,66.7362 18.5,65.5C 14.401,63.4368 10.0676,62.1035 5.5,61.5C 4.14682,60.4763 3.48015,59.143 3.5,57.5C 3.06795,56.2905 2.40128,55.2905 1.5,54.5C 1.5,54.1667 1.5,53.8333 1.5,53.5C 1.19607,52.8501 0.862734,52.1835 0.5,51.5C 3.58275,48.7576 6.24942,45.7576 8.5,42.5C 10.2879,41.6396 11.9545,40.6396 13.5,39.5C 13.5,39.1667 13.5,38.8333 13.5,38.5C 15.0746,36.8863 15.7413,34.8863 15.5,32.5C 14.1667,26.5 14.1667,20.5 15.5,14.5C 17.0389,11.2754 19.0389,8.27542 21.5,5.5C 21.5,5.16667 21.5,4.83333 21.5,4.5C 23.3365,1.62779 26.0032,0.294458 29.5,0.5 Z"/></g>
<g><path style="opacity:1" fill="#c5c6c5" d="M 21.5,5.5 C 19.0389,8.27542 17.0389,11.2754 15.5,14.5C 15.5154,10.1553 17.5154,7.15532 21.5,5.5 Z"/></g>
<g><path style="opacity:1" fill="#c2c3c1" d="M 39.5,11.5 C 43.6311,12.6215 46.9644,14.9548 49.5,18.5C 45.8924,16.5592 42.5591,14.2258 39.5,11.5 Z"/></g>
<g><path style="opacity:1" fill="#c6c7c7" d="M 51.5,21.5 C 54.4223,23.6666 56.089,26.6666 56.5,30.5C 54.6398,27.7959 52.9731,24.7959 51.5,21.5 Z"/></g>
<g><path style="opacity:1" fill="#cbcbcb" d="M 56.5,31.5 C 61.5,31.5 66.5,31.5 71.5,31.5C 71.5,34.1667 71.5,36.8333 71.5,39.5C 73.4147,39.2155 75.0813,39.5489 76.5,40.5C 74.5,40.5 72.5,40.5 70.5,40.5C 70.5,37.8333 70.5,35.1667 70.5,32.5C 67.1667,32.5 63.8333,32.5 60.5,32.5C 58.901,32.7678 57.5676,32.4345 56.5,31.5 Z"/></g>
<g><path style="opacity:1" fill="#cccccc" d="M 15.5,32.5 C 16.4614,34.2646 16.7947,36.2646 16.5,38.5C 15.5,38.5 14.5,38.5 13.5,38.5C 14.5,38.5 15.5,38.5 16.5,38.5C 16.7947,36.2646 16.4614,34.2646 15.5,32.5 Z"/></g>
<g><path style="opacity:1" fill="#637e76" d="M 60.5,32.5 C 63.8333,32.5 67.1667,32.5 70.5,32.5C 70.5,35.1667 70.5,37.8333 70.5,40.5C 68.6921,39.0821 68.0254,37.0821 68.5,34.5C 65.3019,35.0356 62.6353,34.369 60.5,32.5 Z"/></g>
<g><path style="opacity:1" fill="#c8c8c8" d="M 13.5,39.5 C 11.9545,40.6396 10.2879,41.6396 8.5,42.5C 8.16667,42.5 7.83333,42.5 7.5,42.5C 8.9228,40.4551 10.9228,39.4551 13.5,39.5 Z"/></g>
<g><path style="opacity:1" fill="#919b98" d="M 7.5,42.5 C 7.83333,42.5 8.16667,42.5 8.5,42.5C 6.24942,45.7576 3.58275,48.7576 0.5,51.5C 0.862734,52.1835 1.19607,52.8501 1.5,53.5C 0.833333,53.5 0.166667,53.5 -0.5,53.5C -0.5,52.1667 -0.5,50.8333 -0.5,49.5C 2.46846,47.5328 5.13513,45.1995 7.5,42.5 Z"/></g>
<g><path style="opacity:1" fill="#fdfdfd" d="M -0.5,53.5 C 0.166667,53.5 0.833333,53.5 1.5,53.5C 1.5,53.8333 1.5,54.1667 1.5,54.5C 1.28519,56.1788 1.95186,57.1788 3.5,57.5C 3.48015,59.143 4.14682,60.4763 5.5,61.5C 10.0676,62.1035 14.401,63.4368 18.5,65.5C 19.2458,66.7362 19.5792,68.0695 19.5,69.5C 24.1389,70.8128 28.8056,72.1461 33.5,73.5C 36.3328,76.685 39.6662,79.0183 43.5,80.5C 45.5512,82.2145 47.2179,84.2145 48.5,86.5C 51.8244,89.0674 54.8244,92.0674 57.5,95.5C 38.1667,95.5 18.8333,95.5 -0.5,95.5C -0.5,81.5 -0.5,67.5 -0.5,53.5 Z"/></g>
<g><path style="opacity:1" fill="#a9adac" d="M 1.5,54.5 C 2.40128,55.2905 3.06795,56.2905 3.5,57.5C 1.95186,57.1788 1.28519,56.1788 1.5,54.5 Z"/></g>
<g><path style="opacity:1" fill="#c4c5c4" d="M 95.5,57.5 C 96.8333,58.1667 98.1667,58.8333 99.5,59.5C 99.5,60.5 99.5,61.5 99.5,62.5C 97.8173,61.1466 96.4839,59.4799 95.5,57.5 Z"/></g>
<g><path style="opacity:1" fill="#f1f0f0" d="M 99.5,64.5 C 99.5,66.5 99.5,68.5 99.5,70.5C 97.7872,69.695 96.1206,68.695 94.5,67.5C 96.1206,66.305 97.7872,65.305 99.5,64.5 Z"/></g>
<g><path style="opacity:1" fill="#fcfcfc" d="M 99.5,72.5 C 99.5,80.1667 99.5,87.8333 99.5,95.5C 86.8333,95.5 74.1667,95.5 61.5,95.5C 62.5,94.5 63.5,93.5 64.5,92.5C 66.889,92.0212 68.5557,90.6879 69.5,88.5C 71.777,85.6483 74.777,83.6483 78.5,82.5C 80.0296,82.6399 81.0296,83.3065 81.5,84.5C 83.9091,85.6522 85.9091,84.9855 87.5,82.5C 91.8281,79.654 95.8281,76.3207 99.5,72.5 Z"/></g>
<g><path style="opacity:1" fill="#8b9693" d="M 43.5,80.5 C 46.9568,80.9601 48.6235,82.9601 48.5,86.5C 47.2179,84.2145 45.5512,82.2145 43.5,80.5 Z"/></g>
<g><path style="opacity:1" fill="#97a09d" d="M 87.5,82.5 C 85.9091,84.9855 83.9091,85.6522 81.5,84.5C 83.5,83.8333 85.5,83.1667 87.5,82.5 Z"/></g>
<g><path style="opacity:1" fill="#c6c7c7" d="M 69.5,88.5 C 68.5557,90.6879 66.889,92.0212 64.5,92.5C 65.6563,90.6127 67.323,89.2794 69.5,88.5 Z"/></g>
</svg>
