<?xml version="1.0" encoding="UTF-8"?>
<!DOCTYPE svg PUBLIC "-//W3C//DTD SVG 1.1//EN" "http://www.w3.org/Graphics/SVG/1.1/DTD/svg11.dtd">
<svg xmlns="http://www.w3.org/2000/svg" version="1.1" width="72px" height="104px" style="shape-rendering:geometricPrecision; text-rendering:geometricPrecision; image-rendering:optimizeQuality; fill-rule:evenodd; clip-rule:evenodd" xmlns:xlink="http://www.w3.org/1999/xlink">
<g><path style="opacity:1" fill="#cc70da" d="M 69.5,39.5 C 70.9706,45.0689 70.3039,50.4022 67.5,55.5C 63.768,67.8972 60.768,80.5639 58.5,93.5C 51.7408,94.1772 45.0742,95.1772 38.5,96.5C 35.5096,97.4774 32.8429,98.8107 30.5,100.5C 28.2776,100.178 26.4443,100.845 25,102.5C 24.112,95.1147 23.9453,87.7814 24.5,80.5C 26.9163,78.7051 26.9163,76.7051 24.5,74.5C 24.1048,68.4447 20.7715,65.4447 14.5,65.5C 14.1277,62.6169 14.1277,59.6169 14.5,56.5C 15.6737,55.4863 16.3404,54.153 16.5,52.5C 16.5,51.8333 16.5,51.1667 16.5,50.5C 17.3764,50.6309 18.0431,50.2975 18.5,49.5C 18.0576,48.2613 17.3909,47.2613 16.5,46.5C 13.8333,44.5 11.1667,42.5 8.5,40.5C 8.17876,38.9519 7.17876,38.2852 5.5,38.5C 4.5,38.5 3.5,38.5 2.5,38.5C 2.42865,35.6887 1.76199,33.022 0.5,30.5C 5.1085,21.6168 9.44184,12.6168 13.5,3.5C 17.8228,0.593638 22.4894,-0.073029 27.5,1.5C 39.3741,10.53 51.0408,19.8634 62.5,29.5C 65.8282,32.1631 68.1615,35.4965 69.5,39.5 Z"/></g>
<g><path style="opacity:1" fill="#fcfcfc" d="M -0.5,-0.5 C 23.5,-0.5 47.5,-0.5 71.5,-0.5C 71.5,12.8333 71.5,26.1667 71.5,39.5C 70.8333,39.5 70.1667,39.5 69.5,39.5C 68.1615,35.4965 65.8282,32.1631 62.5,29.5C 51.0408,19.8634 39.3741,10.53 27.5,1.5C 22.4894,-0.073029 17.8228,0.593638 13.5,3.5C 9.44184,12.6168 5.1085,21.6168 0.5,30.5C 1.76199,33.022 2.42865,35.6887 2.5,38.5C 3.5,38.5 4.5,38.5 5.5,38.5C 6.29049,39.4013 7.29049,40.0679 8.5,40.5C 11.1667,42.5 13.8333,44.5 16.5,46.5C 16.5,47.8333 16.5,49.1667 16.5,50.5C 16.5,51.1667 16.5,51.8333 16.5,52.5C 14.8958,53.287 14.2291,54.6203 14.5,56.5C 14.1277,59.6169 14.1277,62.6169 14.5,65.5C 20.7715,65.4447 24.1048,68.4447 24.5,74.5C 24.5,76.5 24.5,78.5 24.5,80.5C 23.9453,87.7814 24.112,95.1147 25,102.5C 26.4443,100.845 28.2776,100.178 30.5,100.5C 33.856,100.286 36.5226,98.9531 38.5,96.5C 45.0742,95.1772 51.7408,94.1772 58.5,93.5C 60.768,80.5639 63.768,67.8972 67.5,55.5C 69.1214,53.7701 70.4548,51.7701 71.5,49.5C 71.5,67.5 71.5,85.5 71.5,103.5C 47.5,103.5 23.5,103.5 -0.5,103.5C -0.5,68.8333 -0.5,34.1667 -0.5,-0.5 Z"/></g>
<g><path style="opacity:1" fill="#be9ac4" d="M 5.5,38.5 C 7.17876,38.2852 8.17876,38.9519 8.5,40.5C 7.29049,40.0679 6.29049,39.4013 5.5,38.5 Z"/></g>
<g><path style="opacity:1" fill="#bf9ec4" d="M 16.5,46.5 C 17.3909,47.2613 18.0576,48.2613 18.5,49.5C 18.0431,50.2975 17.3764,50.6309 16.5,50.5C 16.5,49.1667 16.5,47.8333 16.5,46.5 Z"/></g>
<g><path style="opacity:1" fill="#c7bfcb" d="M 69.5,39.5 C 70.1667,39.5 70.8333,39.5 71.5,39.5C 71.5,42.8333 71.5,46.1667 71.5,49.5C 70.4548,51.7701 69.1214,53.7701 67.5,55.5C 70.3039,50.4022 70.9706,45.0689 69.5,39.5 Z"/></g>
<g><path style="opacity:1" fill="#c09ac6" d="M 16.5,52.5 C 16.3404,54.153 15.6737,55.4863 14.5,56.5C 14.2291,54.6203 14.8958,53.287 16.5,52.5 Z"/></g>
<g><path style="opacity:1" fill="#c28aca" d="M 24.5,74.5 C 26.9163,76.7051 26.9163,78.7051 24.5,80.5C 24.5,78.5 24.5,76.5 24.5,74.5 Z"/></g>
<g><path style="opacity:1" fill="#ccbacf" d="M 38.5,96.5 C 36.5226,98.9531 33.856,100.286 30.5,100.5C 32.8429,98.8107 35.5096,97.4774 38.5,96.5 Z"/></g>
</svg>
