<?xml version="1.0" encoding="UTF-8"?>
<!DOCTYPE svg PUBLIC "-//W3C//DTD SVG 1.1//EN" "http://www.w3.org/Graphics/SVG/1.1/DTD/svg11.dtd">
<svg xmlns="http://www.w3.org/2000/svg" version="1.1" width="488px" height="352px" style="shape-rendering:geometricPrecision; text-rendering:geometricPrecision; image-rendering:optimizeQuality; fill-rule:evenodd; clip-rule:evenodd" xmlns:xlink="http://www.w3.org/1999/xlink">
<g><path style="opacity:1" fill="#fefefe" d="M -0.5,-0.5 C 162.167,-0.5 324.833,-0.5 487.5,-0.5C 487.5,71.8333 487.5,144.167 487.5,216.5C 487.167,216.5 486.833,216.5 486.5,216.5C 485.372,204.671 483.372,193.004 480.5,181.5C 478.516,180.294 476.516,180.294 474.5,181.5C 472.092,180.784 470.092,179.451 468.5,177.5C 462.537,176.504 456.537,176.171 450.5,176.5C 446.089,178.172 441.922,177.838 438,175.5C 437.831,158.995 437.331,142.662 436.5,126.5C 434.777,125.2 432.61,124.533 430,124.5C 416.933,127.192 403.766,129.192 390.5,130.5C 387.72,131.078 385.053,131.745 382.5,132.5C 378.5,133.167 374.5,133.833 370.5,134.5C 370.762,133.022 370.429,131.689 369.5,130.5C 361.608,117.941 352.941,105.941 343.5,94.5C 340.97,85.0162 339.637,75.3496 339.5,65.5C 341.929,64.7352 343.262,63.0685 343.5,60.5C 346.487,57.8429 349.153,54.8429 351.5,51.5C 345.595,35.3789 340.595,19.0456 336.5,2.5C 322.421,6.86692 308.254,10.8669 294,14.5C 292.342,14.3248 291.009,13.6582 290,12.5C 288.846,8.553 288.013,4.553 287.5,0.5C 281.197,1.42709 274.863,2.09375 268.5,2.5C 265.059,3.09654 261.725,3.76321 258.5,4.5C 238.845,9.36733 219.512,15.3673 200.5,22.5C 197.203,20.2046 194.203,17.538 191.5,14.5C 190.554,14.0133 189.554,13.6799 188.5,13.5C 171.316,19.3378 153.982,24.5045 136.5,29C 131.81,32.9793 126.477,35.8127 120.5,37.5C 119.066,36.0642 117.9,34.3975 117,32.5C 115.55,26.3966 114.05,20.3966 112.5,14.5C 88.8253,19.1683 65.1586,23.835 41.5,28.5C 41.1667,29.1667 40.8333,29.8333 40.5,30.5C 45.835,49.5134 51.1683,68.5134 56.5,87.5C 46.427,93.2032 36.0937,98.3698 25.5,103C 22.5847,106.085 19.2514,108.585 15.5,110.5C 15.1667,111.167 14.8333,111.833 14.5,112.5C 16.5236,117.205 19.5236,121.205 23.5,124.5C 24.4287,125.689 24.762,127.022 24.5,128.5C 23.0222,128.238 21.6888,128.571 20.5,129.5C 17.9465,131.679 15.2798,133.679 12.5,135.5C 7.82422,145.832 3.49089,156.165 -0.5,166.5C -0.5,110.833 -0.5,55.1667 -0.5,-0.5 Z"/></g>
<g><path style="opacity:1" fill="#a1613b" d="M 343.5,60.5 C 341.817,61.8534 340.484,63.5201 339.5,65.5C 339.637,75.3496 340.97,85.0162 343.5,94.5C 352.941,105.941 361.608,117.941 369.5,130.5C 370.429,131.689 370.762,133.022 370.5,134.5C 374.5,133.833 378.5,133.167 382.5,132.5C 385.698,133.036 388.365,132.369 390.5,130.5C 403.766,129.192 416.933,127.192 430,124.5C 432.61,124.533 434.777,125.2 436.5,126.5C 436.5,143.833 436.5,161.167 436.5,178.5C 441.619,179.103 446.285,178.436 450.5,176.5C 456.537,176.171 462.537,176.504 468.5,177.5C 470.092,179.451 472.092,180.784 474.5,181.5C 476.516,180.294 478.516,180.294 480.5,181.5C 483.372,193.004 485.372,204.671 486.5,216.5C 486.762,217.978 486.429,219.311 485.5,220.5C 480.304,224.68 476.304,229.68 473.5,235.5C 473.674,242.795 472.507,249.795 470,256.5C 469.501,262.157 469.334,267.824 469.5,273.5C 470.126,279.268 470.793,284.934 471.5,290.5C 471.898,293.483 472.232,296.483 472.5,299.5C 472.647,302.253 471.98,304.753 470.5,307C 446.497,310.834 422.497,314.667 398.5,318.5C 394.594,301.171 390.594,283.838 386.5,266.5C 386.919,265.328 387.585,264.328 388.5,263.5C 387.333,263.167 386.167,262.833 385,262.5C 374.613,266.089 364.113,269.256 353.5,272C 328.526,277.444 303.526,282.444 278.5,287C 267.286,290.516 255.953,293.849 244.5,297C 216.962,310.599 189.962,324.932 163.5,340C 155.938,343.728 148.271,347.228 140.5,350.5C 142.477,339.75 138.143,333.75 127.5,332.5C 125.347,328.823 124.014,324.823 123.5,320.5C 122.018,318.517 120.351,316.684 118.5,315C 113.942,312.222 109.275,309.722 104.5,307.5C 102.38,302.031 100.713,296.364 99.5,290.5C 97.974,289.094 96.3073,287.928 94.5,287C 90.6818,286.628 87.0151,285.794 83.5,284.5C 83.6653,280.818 83.4986,277.152 83,273.5C 82.7508,272.376 82.2508,271.376 81.5,270.5C 77.6054,267.056 73.2721,264.389 68.5,262.5C 68.4022,256.751 69.0688,251.085 70.5,245.5C 69.1224,236.745 65.1224,229.412 58.5,223.5C 53.8804,222.507 49.2137,222.173 44.5,222.5C 43.0821,220.692 41.0821,220.025 38.5,220.5C 25.7214,217.068 15.7214,209.735 8.5,198.5C 7.25665,196.247 5.58999,194.247 3.5,192.5C 2.83129,190.369 2.16462,188.369 1.5,186.5C 1.72361,180.261 1.05694,174.261 -0.5,168.5C -0.5,167.833 -0.5,167.167 -0.5,166.5C 3.49089,156.165 7.82422,145.832 12.5,135.5C 15.2798,133.679 17.9465,131.679 20.5,129.5C 21.6888,128.571 23.0222,128.238 24.5,128.5C 24.762,127.022 24.4287,125.689 23.5,124.5C 19.5236,121.205 16.5236,117.205 14.5,112.5C 14.8333,111.833 15.1667,111.167 15.5,110.5C 19.2514,108.585 22.5847,106.085 25.5,103C 36.0937,98.3698 46.427,93.2032 56.5,87.5C 51.1683,68.5134 45.835,49.5134 40.5,30.5C 40.8333,29.8333 41.1667,29.1667 41.5,28.5C 65.1586,23.835 88.8253,19.1683 112.5,14.5C 114.05,20.3966 115.55,26.3966 117,32.5C 117.9,34.3975 119.066,36.0642 120.5,37.5C 126.477,35.8127 131.81,32.9793 136.5,29C 153.982,24.5045 171.316,19.3378 188.5,13.5C 189.554,13.6799 190.554,14.0133 191.5,14.5C 194.203,17.538 197.203,20.2046 200.5,22.5C 219.512,15.3673 238.845,9.36733 258.5,4.5C 262.329,5.06896 265.663,4.40229 268.5,2.5C 274.863,2.09375 281.197,1.42709 287.5,0.5C 288.013,4.553 288.846,8.553 290,12.5C 291.009,13.6582 292.342,14.3248 294,14.5C 308.254,10.8669 322.421,6.86692 336.5,2.5C 340.595,19.0456 345.595,35.3789 351.5,51.5C 349.153,54.8429 346.487,57.8429 343.5,60.5 Z"/></g>
<g><path style="opacity:1" fill="#a58c7d" d="M 268.5,2.5 C 265.663,4.40229 262.329,5.06896 258.5,4.5C 261.725,3.76321 265.059,3.09654 268.5,2.5 Z"/></g>
<g><path style="opacity:1" fill="#c5bdb8" d="M 343.5,60.5 C 343.262,63.0685 341.929,64.7352 339.5,65.5C 340.484,63.5201 341.817,61.8534 343.5,60.5 Z"/></g>
<g><path style="opacity:1" fill="#997660" d="M 436.5,126.5 C 437.331,142.662 437.831,158.995 438,175.5C 441.922,177.838 446.089,178.172 450.5,176.5C 446.285,178.436 441.619,179.103 436.5,178.5C 436.5,161.167 436.5,143.833 436.5,126.5 Z"/></g>
<g><path style="opacity:1" fill="#aa9487" d="M 390.5,130.5 C 388.365,132.369 385.698,133.036 382.5,132.5C 385.053,131.745 387.72,131.078 390.5,130.5 Z"/></g>
<g><path style="opacity:1" fill="#cec6c4" d="M 1.5,186.5 C 2.16462,188.369 2.83129,190.369 3.5,192.5C 5.58999,194.247 7.25665,196.247 8.5,198.5C 3.22691,196.225 0.893576,192.225 1.5,186.5 Z"/></g>
<g><path style="opacity:1" fill="#aa9487" d="M 38.5,220.5 C 41.0821,220.025 43.0821,220.692 44.5,222.5C 42.3736,221.952 40.3736,221.285 38.5,220.5 Z"/></g>
<g><path style="opacity:1" fill="#fefefe" d="M -0.5,168.5 C 1.05694,174.261 1.72361,180.261 1.5,186.5C 0.893576,192.225 3.22691,196.225 8.5,198.5C 15.7214,209.735 25.7214,217.068 38.5,220.5C 40.3736,221.285 42.3736,221.952 44.5,222.5C 49.2137,222.173 53.8804,222.507 58.5,223.5C 65.1224,229.412 69.1224,236.745 70.5,245.5C 69.0688,251.085 68.4022,256.751 68.5,262.5C 73.2721,264.389 77.6054,267.056 81.5,270.5C 82.2508,271.376 82.7508,272.376 83,273.5C 83.4986,277.152 83.6653,280.818 83.5,284.5C 87.0151,285.794 90.6818,286.628 94.5,287C 96.3073,287.928 97.974,289.094 99.5,290.5C 100.713,296.364 102.38,302.031 104.5,307.5C 109.275,309.722 113.942,312.222 118.5,315C 120.351,316.684 122.018,318.517 123.5,320.5C 124.014,324.823 125.347,328.823 127.5,332.5C 138.143,333.75 142.477,339.75 140.5,350.5C 148.271,347.228 155.938,343.728 163.5,340C 189.962,324.932 216.962,310.599 244.5,297C 255.953,293.849 267.286,290.516 278.5,287C 303.526,282.444 328.526,277.444 353.5,272C 364.113,269.256 374.613,266.089 385,262.5C 386.167,262.833 387.333,263.167 388.5,263.5C 387.585,264.328 386.919,265.328 386.5,266.5C 390.594,283.838 394.594,301.171 398.5,318.5C 422.497,314.667 446.497,310.834 470.5,307C 471.98,304.753 472.647,302.253 472.5,299.5C 472.232,296.483 471.898,293.483 471.5,290.5C 472.117,284.402 471.45,278.735 469.5,273.5C 469.334,267.824 469.501,262.157 470,256.5C 472.507,249.795 473.674,242.795 473.5,235.5C 477.446,230.221 482.112,225.554 487.5,221.5C 487.5,264.833 487.5,308.167 487.5,351.5C 324.833,351.5 162.167,351.5 -0.5,351.5C -0.5,290.5 -0.5,229.5 -0.5,168.5 Z"/></g>
<g><path style="opacity:1" fill="#c7c0bc" d="M 486.5,216.5 C 486.833,216.5 487.167,216.5 487.5,216.5C 487.5,218.167 487.5,219.833 487.5,221.5C 482.112,225.554 477.446,230.221 473.5,235.5C 476.304,229.68 480.304,224.68 485.5,220.5C 486.429,219.311 486.762,217.978 486.5,216.5 Z"/></g>
<g><path style="opacity:1" fill="#d5d0cf" d="M 469.5,273.5 C 471.45,278.735 472.117,284.402 471.5,290.5C 470.793,284.934 470.126,279.268 469.5,273.5 Z"/></g>
</svg>
