<?xml version="1.0" encoding="UTF-8"?>
<!DOCTYPE svg PUBLIC "-//W3C//DTD SVG 1.1//EN" "http://www.w3.org/Graphics/SVG/1.1/DTD/svg11.dtd">
<svg xmlns="http://www.w3.org/2000/svg" version="1.1" width="208px" height="282px" style="shape-rendering:geometricPrecision; text-rendering:geometricPrecision; image-rendering:optimizeQuality; fill-rule:evenodd; clip-rule:evenodd" xmlns:xlink="http://www.w3.org/1999/xlink">
<g><path style="opacity:1" fill="#fefefe" d="M -0.5,-0.5 C 56.8333,-0.5 114.167,-0.5 171.5,-0.5C 167.116,0.821375 162.782,2.48804 158.5,4.5C 156.833,4.5 155.167,4.5 153.5,4.5C 146.075,5.43552 139.075,7.43552 132.5,10.5C 130.5,10.5 128.5,10.5 126.5,10.5C 125.005,10.9887 123.671,11.6554 122.5,12.5C 120.5,12.5 118.5,12.5 116.5,12.5C 115.005,12.9887 113.671,13.6554 112.5,14.5C 110.5,14.5 108.5,14.5 106.5,14.5C 105.005,14.9887 103.671,15.6554 102.5,16.5C 101.209,16.2627 100.209,16.596 99.5,17.5C 91.9029,19.0946 84.9029,22.0946 78.5,26.5C 75.9501,28.0772 73.9501,30.0772 72.5,32.5C 71.8333,32.5 71.1667,32.5 70.5,32.5C 68.4599,33.8601 66.4599,35.1934 64.5,36.5C 62.0268,38.0615 60.0268,40.0615 58.5,42.5C 57.8333,42.5 57.1667,42.5 56.5,42.5C 52.493,45.9494 48.1597,48.9494 43.5,51.5C 42.6143,52.325 42.281,53.325 42.5,54.5C 41.8333,54.5 41.1667,54.5 40.5,54.5C 35.8017,58.5369 31.135,62.5369 26.5,66.5C 25.8333,68.5 24.5,69.8333 22.5,70.5C 23.9841,78.7336 26.3175,87.067 29.5,95.5C 29.7472,96.7133 30.4138,97.38 31.5,97.5C 31.5,97.8333 31.5,98.1667 31.5,98.5C 32.5258,104.269 34.0258,109.935 36,115.5C 36.5864,118.019 37.7531,120.019 39.5,121.5C 39.5,121.833 39.5,122.167 39.5,122.5C 43.5811,136.005 48.2478,149.338 53.5,162.5C 52.7573,163.182 52.0906,163.849 51.5,164.5C 51.5,164.833 51.5,165.167 51.5,165.5C 45.9088,167.619 40.2421,169.786 34.5,172C 33.6195,172.708 32.9528,173.542 32.5,174.5C 31.8333,174.5 31.1667,174.5 30.5,174.5C 26.4208,175.089 22.7542,176.422 19.5,178.5C 19.5,178.833 19.5,179.167 19.5,179.5C 17.8008,179.34 16.1341,179.506 14.5,180C 11.9861,180.881 9.98613,182.381 8.5,184.5C 7.83333,184.5 7.16667,184.5 6.5,184.5C 4.10551,185.015 1.77218,185.681 -0.5,186.5C -0.5,124.167 -0.5,61.8333 -0.5,-0.5 Z"/></g>
<g><path style="opacity:1" fill="#fefefe" d="M 178.5,-0.5 C 188.167,-0.5 197.833,-0.5 207.5,-0.5C 207.5,32.8333 207.5,66.1667 207.5,99.5C 207.167,99.5 206.833,99.5 206.5,99.5C 206.693,96.1889 205.693,93.5223 203.5,91.5C 203.167,89.5 202.833,87.5 202.5,85.5C 202.077,80.4599 200.744,75.7932 198.5,71.5C 198.737,70.209 198.404,69.209 197.5,68.5C 196.773,63.5818 195.44,58.9151 193.5,54.5C 192.715,52.6264 192.048,50.6264 191.5,48.5C 191.318,44.5109 190.318,40.8442 188.5,37.5C 188.125,35.3024 187.458,33.3024 186.5,31.5C 184.743,25.0547 183.076,18.5547 181.5,12C 181.316,10.6244 180.649,9.79106 179.5,9.5C 179.5,9.16667 179.5,8.83333 179.5,8.5C 179.296,5.48237 178.963,2.48237 178.5,-0.5 Z"/></g>
<g><path style="opacity:1" fill="#6abe98" d="M 179.5,8.5 C 179.5,8.83333 179.5,9.16667 179.5,9.5C 180.851,17.2167 183.184,24.55 186.5,31.5C 186.054,34.0101 186.72,36.0101 188.5,37.5C 188.682,41.4891 189.682,45.1558 191.5,48.5C 192.048,50.6264 192.715,52.6264 193.5,54.5C 193.923,59.5401 195.256,64.2068 197.5,68.5C 198.404,69.209 198.737,70.209 198.5,71.5C 199.227,76.4182 200.56,81.0849 202.5,85.5C 202.833,87.5 203.167,89.5 203.5,91.5C 204.205,94.3542 205.205,97.0209 206.5,99.5C 206.5,101.167 206.5,102.833 206.5,104.5C 195.13,109.352 184.13,115.019 173.5,121.5C 169.823,123.844 166.823,126.844 164.5,130.5C 164.453,132.038 165.12,133.038 166.5,133.5C 166.5,134.167 166.833,134.5 167.5,134.5C 169.056,137.736 171.056,140.736 173.5,143.5C 172.388,144.265 171.721,145.265 171.5,146.5C 171.167,146.5 170.833,146.5 170.5,146.5C 167.523,148.157 165.19,150.49 163.5,153.5C 163.5,153.833 163.5,154.167 163.5,154.5C 160.432,158.644 158.432,163.31 157.5,168.5C 154.575,172.689 152.409,177.356 151,182.5C 150.211,184.712 150.378,186.712 151.5,188.5C 151.5,189.5 151.5,190.5 151.5,191.5C 152.238,198.46 153.071,205.46 154,212.5C 154.383,213.056 154.883,213.389 155.5,213.5C 156.926,214.341 158.26,215.341 159.5,216.5C 161.413,220.416 164.08,223.749 167.5,226.5C 168.833,227.833 170.167,229.167 171.5,230.5C 172.007,231.859 173.007,232.859 174.5,233.5C 142.796,249.017 111.13,264.683 79.5,280.5C 78.2613,280.058 77.2613,279.391 76.5,278.5C 74.5,277.167 72.5,275.833 70.5,274.5C 67.7128,270.084 63.7128,267.084 58.5,265.5C 56.604,264.534 54.604,264.201 52.5,264.5C 51.5543,262.868 50.5543,261.201 49.5,259.5C 51.2166,257.13 52.8833,254.797 54.5,252.5C 56.3023,251.685 57.3023,250.185 57.5,248C 57.2926,246.05 56.2926,244.884 54.5,244.5C 53.2316,241.606 50.8983,240.273 47.5,240.5C 40.9185,242.382 34.2518,243.716 27.5,244.5C 27.3893,243.883 27.056,243.383 26.5,243C 23.854,242.503 21.1873,242.336 18.5,242.5C 15.1667,237.833 11.1667,233.833 6.5,230.5C 5.25665,228.247 3.58999,226.247 1.5,224.5C 0.816171,217.723 1.6495,211.057 4,204.5C 4.8075,200.973 4.64084,197.64 3.5,194.5C 3.5,194.167 3.5,193.833 3.5,193.5C 2.72856,191.886 1.72856,190.386 0.5,189C 2.26995,187.218 4.26995,185.718 6.5,184.5C 7.16667,184.5 7.83333,184.5 8.5,184.5C 12.3398,183.007 16.0065,181.341 19.5,179.5C 19.5,179.167 19.5,178.833 19.5,178.5C 21.1992,178.66 22.8659,178.494 24.5,178C 26.7582,177.124 28.7582,175.957 30.5,174.5C 31.1667,174.5 31.8333,174.5 32.5,174.5C 39.2643,172.283 45.5976,169.283 51.5,165.5C 51.5,165.167 51.5,164.833 51.5,164.5C 52.5,164.5 53.5,164.5 54.5,164.5C 50.5223,150.062 45.5223,136.062 39.5,122.5C 39.5,122.167 39.5,121.833 39.5,121.5C 37.4084,113.555 34.7417,105.889 31.5,98.5C 31.5,98.1667 31.5,97.8333 31.5,97.5C 28.3405,88.5181 25.3405,79.5181 22.5,70.5C 24.5,69.8333 25.8333,68.5 26.5,66.5C 27.9778,66.762 29.3112,66.4287 30.5,65.5C 34.2753,62.0665 37.6087,58.3998 40.5,54.5C 41.1667,54.5 41.8333,54.5 42.5,54.5C 45.4265,51.6934 48.7598,49.36 52.5,47.5C 54.2611,46.0834 55.5944,44.4167 56.5,42.5C 57.1667,42.5 57.8333,42.5 58.5,42.5C 61.4036,41.3856 63.4036,39.3856 64.5,36.5C 67.5539,36.646 69.5539,35.3126 70.5,32.5C 71.1667,32.5 71.8333,32.5 72.5,32.5C 75.4378,31.378 77.4378,29.378 78.5,26.5C 85.6817,23.6704 92.6817,20.6704 99.5,17.5C 100.209,16.596 101.209,16.2627 102.5,16.5C 104.483,16.8432 105.817,16.1765 106.5,14.5C 108.5,14.5 110.5,14.5 112.5,14.5C 114.483,14.8432 115.817,14.1765 116.5,12.5C 118.5,12.5 120.5,12.5 122.5,12.5C 124.483,12.8432 125.817,12.1765 126.5,10.5C 128.5,10.5 130.5,10.5 132.5,10.5C 139.065,8.69285 145.732,7.19285 152.5,6C 153.056,5.61742 153.389,5.11742 153.5,4.5C 155.167,4.5 156.833,4.5 158.5,4.5C 164.765,3.16773 171.099,1.83439 177.5,0.5C 177.565,3.42816 178.232,6.09483 179.5,8.5 Z"/></g>
<g><path style="opacity:1" fill="#abc0b6" d="M 171.5,-0.5 C 173.833,-0.5 176.167,-0.5 178.5,-0.5C 178.963,2.48237 179.296,5.48237 179.5,8.5C 178.232,6.09483 177.565,3.42816 177.5,0.5C 171.099,1.83439 164.765,3.16773 158.5,4.5C 162.782,2.48804 167.116,0.821375 171.5,-0.5 Z"/></g>
<g><path style="opacity:1" fill="#adc3b8" d="M 153.5,4.5 C 153.389,5.11742 153.056,5.61742 152.5,6C 145.732,7.19285 139.065,8.69285 132.5,10.5C 139.075,7.43552 146.075,5.43552 153.5,4.5 Z"/></g>
<g><path style="opacity:1" fill="#96b9a8" d="M 126.5,10.5 C 125.817,12.1765 124.483,12.8432 122.5,12.5C 123.671,11.6554 125.005,10.9887 126.5,10.5 Z"/></g>
<g><path style="opacity:1" fill="#99baab" d="M 116.5,12.5 C 115.817,14.1765 114.483,14.8432 112.5,14.5C 113.671,13.6554 115.005,12.9887 116.5,12.5 Z"/></g>
<g><path style="opacity:1" fill="#97b9a9" d="M 106.5,14.5 C 105.817,16.1765 104.483,16.8432 102.5,16.5C 103.671,15.6554 105.005,14.9887 106.5,14.5 Z"/></g>
<g><path style="opacity:1" fill="#9bbbab" d="M 179.5,9.5 C 180.649,9.79106 181.316,10.6244 181.5,12C 183.076,18.5547 184.743,25.0547 186.5,31.5C 183.184,24.55 180.851,17.2167 179.5,9.5 Z"/></g>
<g><path style="opacity:1" fill="#b9c6c0" d="M 99.5,17.5 C 92.6817,20.6704 85.6817,23.6704 78.5,26.5C 84.9029,22.0946 91.9029,19.0946 99.5,17.5 Z"/></g>
<g><path style="opacity:1" fill="#b3c3bb" d="M 78.5,26.5 C 77.4378,29.378 75.4378,31.378 72.5,32.5C 73.9501,30.0772 75.9501,28.0772 78.5,26.5 Z"/></g>
<g><path style="opacity:1" fill="#99b9aa" d="M 186.5,31.5 C 187.458,33.3024 188.125,35.3024 188.5,37.5C 186.72,36.0101 186.054,34.0101 186.5,31.5 Z"/></g>
<g><path style="opacity:1" fill="#c0c9c5" d="M 70.5,32.5 C 69.5539,35.3126 67.5539,36.646 64.5,36.5C 66.4599,35.1934 68.4599,33.8601 70.5,32.5 Z"/></g>
<g><path style="opacity:1" fill="#afc2ba" d="M 64.5,36.5 C 63.4036,39.3856 61.4036,41.3856 58.5,42.5C 60.0268,40.0615 62.0268,38.0615 64.5,36.5 Z"/></g>
<g><path style="opacity:1" fill="#b5c1bb" d="M 188.5,37.5 C 190.318,40.8442 191.318,44.5109 191.5,48.5C 189.682,45.1558 188.682,41.4891 188.5,37.5 Z"/></g>
<g><path style="opacity:1" fill="#b0c2ba" d="M 56.5,42.5 C 55.5944,44.4167 54.2611,46.0834 52.5,47.5C 48.7598,49.36 45.4265,51.6934 42.5,54.5C 42.281,53.325 42.6143,52.325 43.5,51.5C 48.1597,48.9494 52.493,45.9494 56.5,42.5 Z"/></g>
<g><path style="opacity:1" fill="#b2beb9" d="M 193.5,54.5 C 195.44,58.9151 196.773,63.5818 197.5,68.5C 195.256,64.2068 193.923,59.5401 193.5,54.5 Z"/></g>
<g><path style="opacity:1" fill="#b6c4be" d="M 40.5,54.5 C 37.6087,58.3998 34.2753,62.0665 30.5,65.5C 29.3112,66.4287 27.9778,66.762 26.5,66.5C 31.135,62.5369 35.8017,58.5369 40.5,54.5 Z"/></g>
<g><path style="opacity:1" fill="#b0bfb8" d="M 198.5,71.5 C 200.744,75.7932 202.077,80.4599 202.5,85.5C 200.56,81.0849 199.227,76.4182 198.5,71.5 Z"/></g>
<g><path style="opacity:1" fill="#b9c4be" d="M 22.5,70.5 C 25.3405,79.5181 28.3405,88.5181 31.5,97.5C 30.4138,97.38 29.7472,96.7133 29.5,95.5C 26.3175,87.067 23.9841,78.7336 22.5,70.5 Z"/></g>
<g><path style="opacity:1" fill="#aebdb7" d="M 203.5,91.5 C 205.693,93.5223 206.693,96.1889 206.5,99.5C 205.205,97.0209 204.205,94.3542 203.5,91.5 Z"/></g>
<g><path style="opacity:1" fill="#fefefe" d="M 207.5,105.5 C 207.5,164.167 207.5,222.833 207.5,281.5C 165.833,281.5 124.167,281.5 82.5,281.5C 112.864,265.134 143.864,249.801 175.5,235.5C 175.5,234.167 175.5,232.833 175.5,231.5C 174.041,231.567 172.708,231.234 171.5,230.5C 170.167,229.167 168.833,227.833 167.5,226.5C 165.604,222.599 162.938,219.265 159.5,216.5C 158.26,215.341 156.926,214.341 155.5,213.5C 154.552,205.837 153.219,198.504 151.5,191.5C 151.5,190.5 151.5,189.5 151.5,188.5C 152.582,181.495 154.582,174.828 157.5,168.5C 159.995,164.164 161.995,159.497 163.5,154.5C 163.5,154.167 163.5,153.833 163.5,153.5C 165.589,151.746 167.922,150.413 170.5,149.5C 170.5,148.5 170.5,147.5 170.5,146.5C 170.833,146.5 171.167,146.5 171.5,146.5C 173.926,145.647 174.76,143.981 174,141.5C 171.967,138.97 169.8,136.637 167.5,134.5C 166.833,134.5 166.5,134.167 166.5,133.5C 166.461,132.417 166.127,131.417 165.5,130.5C 168.259,127.551 171.259,124.884 174.5,122.5C 185.13,116.019 196.13,110.352 207.5,105.5 Z"/></g>
<g><path style="opacity:1" fill="#b8c4be" d="M 31.5,98.5 C 34.7417,105.889 37.4084,113.555 39.5,121.5C 37.7531,120.019 36.5864,118.019 36,115.5C 34.0258,109.935 32.5258,104.269 31.5,98.5 Z"/></g>
<g><path style="opacity:1" fill="#b7c5be" d="M 206.5,99.5 C 206.833,99.5 207.167,99.5 207.5,99.5C 207.5,101.5 207.5,103.5 207.5,105.5C 196.13,110.352 185.13,116.019 174.5,122.5C 171.259,124.884 168.259,127.551 165.5,130.5C 166.127,131.417 166.461,132.417 166.5,133.5C 165.12,133.038 164.453,132.038 164.5,130.5C 166.823,126.844 169.823,123.844 173.5,121.5C 184.13,115.019 195.13,109.352 206.5,104.5C 206.5,102.833 206.5,101.167 206.5,99.5 Z"/></g>
<g><path style="opacity:1" fill="#aabeb4" d="M 167.5,134.5 C 169.8,136.637 171.967,138.97 174,141.5C 174.76,143.981 173.926,145.647 171.5,146.5C 171.721,145.265 172.388,144.265 173.5,143.5C 171.056,140.736 169.056,137.736 167.5,134.5 Z"/></g>
<g><path style="opacity:1" fill="#b5c3bd" d="M 39.5,122.5 C 45.5223,136.062 50.5223,150.062 54.5,164.5C 53.5,164.5 52.5,164.5 51.5,164.5C 52.0906,163.849 52.7573,163.182 53.5,162.5C 48.2478,149.338 43.5811,136.005 39.5,122.5 Z"/></g>
<g><path style="opacity:1" fill="#b5c1bc" d="M 170.5,146.5 C 170.5,147.5 170.5,148.5 170.5,149.5C 167.922,150.413 165.589,151.746 163.5,153.5C 165.19,150.49 167.523,148.157 170.5,146.5 Z"/></g>
<g><path style="opacity:1" fill="#acbdb5" d="M 163.5,154.5 C 161.995,159.497 159.995,164.164 157.5,168.5C 158.432,163.31 160.432,158.644 163.5,154.5 Z"/></g>
<g><path style="opacity:1" fill="#b2c4bc" d="M 51.5,165.5 C 45.5976,169.283 39.2643,172.283 32.5,174.5C 32.9528,173.542 33.6195,172.708 34.5,172C 40.2421,169.786 45.9088,167.619 51.5,165.5 Z"/></g>
<g><path style="opacity:1" fill="#b9c6c0" d="M 30.5,174.5 C 28.7582,175.957 26.7582,177.124 24.5,178C 22.8659,178.494 21.1992,178.66 19.5,178.5C 22.7542,176.422 26.4208,175.089 30.5,174.5 Z"/></g>
<g><path style="opacity:1" fill="#b1c3bb" d="M 19.5,179.5 C 16.0065,181.341 12.3398,183.007 8.5,184.5C 9.98613,182.381 11.9861,180.881 14.5,180C 16.1341,179.506 17.8008,179.34 19.5,179.5 Z"/></g>
<g><path style="opacity:1" fill="#afbeb7" d="M 157.5,168.5 C 154.582,174.828 152.582,181.495 151.5,188.5C 150.378,186.712 150.211,184.712 151,182.5C 152.409,177.356 154.575,172.689 157.5,168.5 Z"/></g>
<g><path style="opacity:1" fill="#afc0b9" d="M 6.5,184.5 C 4.26995,185.718 2.26995,187.218 0.5,189C 1.72856,190.386 2.72856,191.886 3.5,193.5C 2.16667,192.833 0.833333,192.167 -0.5,191.5C -0.5,189.833 -0.5,188.167 -0.5,186.5C 1.77218,185.681 4.10551,185.015 6.5,184.5 Z"/></g>
<g><path style="opacity:1" fill="#fefffe" d="M -0.5,191.5 C 0.833333,192.167 2.16667,192.833 3.5,193.5C 3.5,193.833 3.5,194.167 3.5,194.5C 3.40763,202.173 2.07429,209.507 -0.5,216.5C -0.5,208.167 -0.5,199.833 -0.5,191.5 Z"/></g>
<g><path style="opacity:1" fill="#b5bfbc" d="M 151.5,191.5 C 153.219,198.504 154.552,205.837 155.5,213.5C 154.883,213.389 154.383,213.056 154,212.5C 153.071,205.46 152.238,198.46 151.5,191.5 Z"/></g>
<g><path style="opacity:1" fill="#c5cbc8" d="M 3.5,194.5 C 4.64084,197.64 4.8075,200.973 4,204.5C 1.6495,211.057 0.816171,217.723 1.5,224.5C 3.58999,226.247 5.25665,228.247 6.5,230.5C 4.16667,228.833 1.83333,227.167 -0.5,225.5C -0.5,222.5 -0.5,219.5 -0.5,216.5C 2.07429,209.507 3.40763,202.173 3.5,194.5 Z"/></g>
<g><path style="opacity:1" fill="#b2c1ba" d="M 159.5,216.5 C 162.938,219.265 165.604,222.599 167.5,226.5C 164.08,223.749 161.413,220.416 159.5,216.5 Z"/></g>
<g><path style="opacity:1" fill="#fefefe" d="M -0.5,225.5 C 1.83333,227.167 4.16667,228.833 6.5,230.5C 11.1667,233.833 15.1667,237.833 18.5,242.5C 21.0529,243.255 23.7196,243.922 26.5,244.5C 29.6399,245.641 32.9733,245.808 36.5,245C 40.0137,243.552 43.6804,242.385 47.5,241.5C 50.2082,241.753 52.5415,242.753 54.5,244.5C 56.7308,247.034 56.7308,249.701 54.5,252.5C 47.6489,255.838 46.9822,259.838 52.5,264.5C 58.7224,267.257 64.7224,270.591 70.5,274.5C 72.5,275.833 74.5,277.167 76.5,278.5C 76.5,279.5 76.5,280.5 76.5,281.5C 50.8333,281.5 25.1667,281.5 -0.5,281.5C -0.5,262.833 -0.5,244.167 -0.5,225.5 Z"/></g>
<g><path style="opacity:1" fill="#bfc9c4" d="M 54.5,244.5 C 52.5415,242.753 50.2082,241.753 47.5,241.5C 43.6804,242.385 40.0137,243.552 36.5,245C 32.9733,245.808 29.6399,245.641 26.5,244.5C 26.8333,244.5 27.1667,244.5 27.5,244.5C 34.2518,243.716 40.9185,242.382 47.5,240.5C 50.8983,240.273 53.2316,241.606 54.5,244.5 Z"/></g>
<g><path style="opacity:1" fill="#a3beb1" d="M 18.5,242.5 C 21.1873,242.336 23.854,242.503 26.5,243C 27.056,243.383 27.3893,243.883 27.5,244.5C 27.1667,244.5 26.8333,244.5 26.5,244.5C 23.7196,243.922 21.0529,243.255 18.5,242.5 Z"/></g>
<g><path style="opacity:1" fill="#cdd0ce" d="M 54.5,244.5 C 56.2926,244.884 57.2926,246.05 57.5,248C 57.3023,250.185 56.3023,251.685 54.5,252.5C 56.7308,249.701 56.7308,247.034 54.5,244.5 Z"/></g>
<g><path style="opacity:1" fill="#bac6c1" d="M 54.5,252.5 C 52.8833,254.797 51.2166,257.13 49.5,259.5C 50.5543,261.201 51.5543,262.868 52.5,264.5C 46.9822,259.838 47.6489,255.838 54.5,252.5 Z"/></g>
<g><path style="opacity:1" fill="#b6c4bd" d="M 52.5,264.5 C 54.604,264.201 56.604,264.534 58.5,265.5C 63.7128,267.084 67.7128,270.084 70.5,274.5C 64.7224,270.591 58.7224,267.257 52.5,264.5 Z"/></g>
<g><path style="opacity:1" fill="#bac7c1" d="M 171.5,230.5 C 172.708,231.234 174.041,231.567 175.5,231.5C 175.5,232.833 175.5,234.167 175.5,235.5C 143.864,249.801 112.864,265.134 82.5,281.5C 80.5,281.5 78.5,281.5 76.5,281.5C 76.5,280.5 76.5,279.5 76.5,278.5C 77.2613,279.391 78.2613,280.058 79.5,280.5C 111.13,264.683 142.796,249.017 174.5,233.5C 173.007,232.859 172.007,231.859 171.5,230.5 Z"/></g>
</svg>
