<?xml version="1.0" encoding="UTF-8"?>
<!DOCTYPE svg PUBLIC "-//W3C//DTD SVG 1.1//EN" "http://www.w3.org/Graphics/SVG/1.1/DTD/svg11.dtd">
<svg xmlns="http://www.w3.org/2000/svg" version="1.1" width="855px" height="654px" style="shape-rendering:geometricPrecision; text-rendering:geometricPrecision; image-rendering:optimizeQuality; fill-rule:evenodd; clip-rule:evenodd" xmlns:xlink="http://www.w3.org/1999/xlink">
<g><path style="opacity:1" fill="#5b8daf" d="M 567.5,2.5 C 567.111,5.5533 567.777,8.21997 569.5,10.5C 569.581,15.4767 570.581,20.1434 572.5,24.5C 572.565,27.4282 573.232,30.0948 574.5,32.5C 574.565,35.4282 575.232,38.0948 576.5,40.5C 576.658,44.8414 577.658,48.8414 579.5,52.5C 579.484,54.4841 580.484,55.4841 582.5,55.5C 605.207,52.0183 627.874,48.3516 650.5,44.5C 649.274,47.0025 648.274,49.6692 647.5,52.5C 647.964,55.8868 648.631,59.2201 649.5,62.5C 649.238,63.9778 649.571,65.3112 650.5,66.5C 653.309,69.9922 656.643,72.6589 660.5,74.5C 661.878,75.5451 662.878,76.8784 663.5,78.5C 665.121,82.317 666.121,86.317 666.5,90.5C 664.637,105.792 663.304,121.126 662.5,136.5C 661.674,141.316 661.174,146.316 661,151.5C 655.291,155.042 650.791,159.708 647.5,165.5C 647.342,167.319 648.009,168.652 649.5,169.5C 714.186,156.03 778.853,142.696 843.5,129.5C 845.069,139.735 845.903,150.068 846,160.5C 851.258,178.924 852.424,197.59 849.5,216.5C 848.314,219.938 847.647,223.604 847.5,227.5C 847.556,229.64 848.223,231.306 849.5,232.5C 849.157,234.483 849.824,235.817 851.5,236.5C 851.565,239.428 852.232,242.095 853.5,244.5C 853.904,249.478 852.904,254.145 850.5,258.5C 844.935,260.782 839.269,262.782 833.5,264.5C 832.287,264.747 831.62,265.414 831.5,266.5C 828.687,267.446 827.354,269.446 827.5,272.5C 824.358,276.77 821.691,281.437 819.5,286.5C 816.201,288.413 815.201,291.08 816.5,294.5C 817.239,299.121 818.239,303.621 819.5,308C 819.309,310.05 818.642,311.883 817.5,313.5C 795.5,320.833 773.5,328.167 751.5,335.5C 737.176,337.227 722.842,338.893 708.5,340.5C 707.167,340.167 705.833,339.833 704.5,339.5C 705.374,337.253 705.708,334.92 705.5,332.5C 702.988,332.577 700.988,331.577 699.5,329.5C 704.545,328.464 708.545,325.797 711.5,321.5C 710.115,320.449 709.115,319.116 708.5,317.5C 706.667,317.167 704.833,316.833 703,316.5C 697.711,317.725 692.544,319.391 687.5,321.5C 685.718,324.757 683.718,327.757 681.5,330.5C 678.687,331.446 677.354,333.446 677.5,336.5C 677.167,336.5 676.833,336.5 676.5,336.5C 674.455,337.923 673.455,339.923 673.5,342.5C 673.167,342.5 672.833,342.5 672.5,342.5C 670.455,343.923 669.455,345.923 669.5,348.5C 666.889,351.971 664.389,355.637 662,359.5C 659.016,361.984 656.182,364.65 653.5,367.5C 645.823,371.006 638.157,374.506 630.5,378C 621.695,380.78 613.028,383.614 604.5,386.5C 602.455,387.923 601.455,389.923 601.5,392.5C 597.202,395.899 592.202,397.232 586.5,396.5C 584.455,397.923 583.455,399.923 583.5,402.5C 581.649,405.499 579.315,408.166 576.5,410.5C 574.455,411.923 573.455,413.923 573.5,416.5C 572.167,416.5 571.5,417.167 571.5,418.5C 569.554,419.035 568.554,420.368 568.5,422.5C 567.662,422.842 567.328,423.508 567.5,424.5C 564.687,425.446 563.354,427.446 563.5,430.5C 560.687,431.446 559.354,433.446 559.5,436.5C 557.678,436.831 556.011,437.498 554.5,438.5C 550.471,442.194 546.804,446.194 543.5,450.5C 540.577,452.415 537.91,454.749 535.5,457.5C 520.167,466.833 504.833,476.167 489.5,485.5C 471.889,494.306 454.556,503.639 437.5,513.5C 364.721,557.892 290.721,600.225 215.5,640.5C 197.202,644.685 178.868,648.685 160.5,652.5C 159.833,652.167 159.167,651.833 158.5,651.5C 160.167,648.167 161.833,644.833 163.5,641.5C 159.68,633.314 155.347,625.314 150.5,617.5C 145.834,615.834 141.167,614.167 136.5,612.5C 136.167,611.5 135.833,610.5 135.5,609.5C 137.145,604.632 137.811,599.632 137.5,594.5C 139.011,591.456 139.678,588.122 139.5,584.5C 139.328,583.508 139.662,582.842 140.5,582.5C 142.862,579.104 142.862,575.771 140.5,572.5C 139.662,572.158 139.328,571.492 139.5,570.5C 139.843,568.517 139.176,567.183 137.5,566.5C 137.545,563.923 136.545,561.923 134.5,560.5C 133.223,559.306 132.556,557.64 132.5,555.5C 132.507,553.631 132.84,551.964 133.5,550.5C 135.223,548.22 135.889,545.553 135.5,542.5C 140.034,540.654 144.701,538.987 149.5,537.5C 151.215,535.785 152.881,534.119 154.5,532.5C 155.5,532.5 156.5,532.5 157.5,532.5C 158.004,528.815 158.67,525.149 159.5,521.5C 159.564,519.443 158.898,517.777 157.5,516.5C 157.5,516.167 157.5,515.833 157.5,515.5C 157.829,512.772 157.163,510.438 155.5,508.5C 155.585,505.351 154.585,502.684 152.5,500.5C 151.943,497.95 150.61,495.95 148.5,494.5C 145.126,492.306 141.459,490.306 137.5,488.5C 132.596,486.691 127.596,485.358 122.5,484.5C 121.64,480.566 121.307,476.566 121.5,472.5C 121.328,471.508 121.662,470.842 122.5,470.5C 124.545,469.077 125.545,467.077 125.5,464.5C 127.582,460.774 128.915,456.774 129.5,452.5C 131.13,450.641 132.796,448.641 134.5,446.5C 135.355,442.744 136.355,439.077 137.5,435.5C 137.5,435.167 137.5,434.833 137.5,434.5C 138.043,434.44 138.376,434.107 138.5,433.5C 137.942,430.873 136.942,428.54 135.5,426.5C 129.926,424.547 123.926,423.88 117.5,424.5C 112.684,424.68 110.684,422.347 111.5,417.5C 111.759,414.134 112.759,411.134 114.5,408.5C 115.473,406.052 115.806,403.385 115.5,400.5C 109.5,400.5 103.5,400.5 97.5,400.5C 96.8333,400.5 96.5,400.167 96.5,399.5C 98.8503,398.89 98.517,398.556 95.5,398.5C 94.8333,395.833 94.1667,393.167 93.5,390.5C 95.2483,387.332 96.7483,383.999 98,380.5C 99.897,378.984 102.064,378.317 104.5,378.5C 108.25,376.269 109.917,372.936 109.5,368.5C 108.932,361.947 109.599,355.613 111.5,349.5C 109.021,346.261 105.688,344.594 101.5,344.5C 100.735,342.071 99.0685,340.738 96.5,340.5C 91.0558,335.268 84.7225,331.268 77.5,328.5C 77.2786,327.265 76.6119,326.265 75.5,325.5C 71.8927,324.511 68.226,324.177 64.5,324.5C 63.2905,324.068 62.2905,323.401 61.5,322.5C 61.8432,320.517 61.1765,319.183 59.5,318.5C 60.5974,313.679 60.5974,309.013 59.5,304.5C 59.5449,301.923 58.5449,299.923 56.5,298.5C 49.0193,295.801 41.6859,292.635 34.5,289C 32.6339,286.637 30.6339,284.47 28.5,282.5C 28.1703,279.843 27.837,277.176 27.5,274.5C 28.4707,270.891 29.1373,267.224 29.5,263.5C 29.5,262.833 29.8333,262.5 30.5,262.5C 32.6145,258.888 33.6145,254.888 33.5,250.5C 33.8204,247.102 33.487,243.768 32.5,240.5C 28.6786,237.823 25.0119,235.157 21.5,232.5C 20.7352,230.071 19.0685,228.738 16.5,228.5C 14.7202,227.01 14.0535,225.01 14.5,222.5C 17.0414,220.401 20.0414,219.068 23.5,218.5C 27.0248,216.975 29.0248,214.309 29.5,210.5C 29.8134,207.753 29.48,205.086 28.5,202.5C 26.6805,200.872 25.3472,198.872 24.5,196.5C 20.1138,194.344 15.4471,193.01 10.5,192.5C 8.41254,190.255 7.07921,187.588 6.5,184.5C 3.61914,183.896 1.28581,182.562 -0.5,180.5C -0.5,179.833 -0.5,179.167 -0.5,178.5C 19.4685,169.845 39.4685,161.178 59.5,152.5C 62.7488,151.188 66.0821,150.188 69.5,149.5C 71.8333,151.833 74.1667,154.167 76.5,156.5C 79.8215,160.152 83.4882,163.485 87.5,166.5C 165.068,140.725 242.568,115.392 320,90.5C 356.575,70.5739 393.575,51.2406 431,32.5C 439.423,30.8033 447.589,28.3033 455.5,25C 492.289,18.8091 528.623,10.6424 564.5,0.5C 566.03,0.639851 567.03,1.30652 567.5,2.5 Z"/></g>
<g><path style="opacity:1" fill="#fefefe" d="M -0.5,-0.5 C 284.5,-0.5 569.5,-0.5 854.5,-0.5C 854.5,217.5 854.5,435.5 854.5,653.5C 569.5,653.5 284.5,653.5 -0.5,653.5C -0.5,495.833 -0.5,338.167 -0.5,180.5C 1.28581,182.562 3.61914,183.896 6.5,184.5C 7.07921,187.588 8.41254,190.255 10.5,192.5C 15.4471,193.01 20.1138,194.344 24.5,196.5C 25.3472,198.872 26.6805,200.872 28.5,202.5C 29.48,205.086 29.8134,207.753 29.5,210.5C 27.162,212.848 25.162,215.515 23.5,218.5C 20.0414,219.068 17.0414,220.401 14.5,222.5C 14.0535,225.01 14.7202,227.01 16.5,228.5C 17.8534,230.183 19.5201,231.516 21.5,232.5C 25.0119,235.157 28.6786,237.823 32.5,240.5C 33.487,243.768 33.8204,247.102 33.5,250.5C 31.9734,254.267 30.9734,258.267 30.5,262.5C 29.8333,262.5 29.5,262.833 29.5,263.5C 26.0465,269.692 25.7131,276.025 28.5,282.5C 30.6339,284.47 32.6339,286.637 34.5,289C 41.6859,292.635 49.0193,295.801 56.5,298.5C 57.0292,300.784 58.0292,302.784 59.5,304.5C 59.0856,309.364 59.0856,314.031 59.5,318.5C 59.9887,319.995 60.6554,321.329 61.5,322.5C 62.2905,323.401 63.2905,324.068 64.5,324.5C 69.0496,324.949 73.3829,326.282 77.5,328.5C 84.7225,331.268 91.0558,335.268 96.5,340.5C 97.5794,342.543 99.246,343.876 101.5,344.5C 105.688,344.594 109.021,346.261 111.5,349.5C 109.599,355.613 108.932,361.947 109.5,368.5C 108.305,372.04 106.638,375.373 104.5,378.5C 102.064,378.317 99.897,378.984 98,380.5C 96.7483,383.999 95.2483,387.332 93.5,390.5C 92.3569,393.068 92.5236,395.735 94,398.5C 94.6708,399.252 95.5041,399.586 96.5,399.5C 96.5,400.167 96.8333,400.5 97.5,400.5C 102.975,401.489 108.642,401.822 114.5,401.5C 114.5,403.833 114.5,406.167 114.5,408.5C 112.759,411.134 111.759,414.134 111.5,417.5C 110.684,422.347 112.684,424.68 117.5,424.5C 123.399,425.205 129.399,425.872 135.5,426.5C 135.858,429.267 136.525,431.933 137.5,434.5C 137.5,434.833 137.5,435.167 137.5,435.5C 135.285,441.314 132.618,446.981 129.5,452.5C 128.915,456.774 127.582,460.774 125.5,464.5C 124.029,466.216 123.029,468.216 122.5,470.5C 121.662,470.842 121.328,471.508 121.5,472.5C 120.357,475.976 120.19,479.642 121,483.5C 121.383,484.056 121.883,484.389 122.5,484.5C 127.596,485.358 132.596,486.691 137.5,488.5C 141.459,490.306 145.126,492.306 148.5,494.5C 149.037,497.036 150.37,499.036 152.5,500.5C 152.98,503.443 153.98,506.11 155.5,508.5C 155.721,511.067 156.388,513.401 157.5,515.5C 157.5,515.833 157.5,516.167 157.5,516.5C 158.716,522.294 157.716,527.627 154.5,532.5C 152.881,534.119 151.215,535.785 149.5,537.5C 144.701,538.987 140.034,540.654 135.5,542.5C 134.469,544.961 133.802,547.627 133.5,550.5C 132.84,551.964 132.507,553.631 132.5,555.5C 132.556,557.64 133.223,559.306 134.5,560.5C 135.029,562.784 136.029,564.784 137.5,566.5C 137.989,567.995 138.655,569.329 139.5,570.5C 139.328,571.492 139.662,572.158 140.5,572.5C 141.247,575.753 141.247,579.086 140.5,582.5C 139.662,582.842 139.328,583.508 139.5,584.5C 138.215,587.589 137.549,590.922 137.5,594.5C 137.811,599.632 137.145,604.632 135.5,609.5C 135.833,610.5 136.167,611.5 136.5,612.5C 141.167,614.167 145.834,615.834 150.5,617.5C 155.347,625.314 159.68,633.314 163.5,641.5C 161.833,644.833 160.167,648.167 158.5,651.5C 159.167,651.833 159.833,652.167 160.5,652.5C 178.868,648.685 197.202,644.685 215.5,640.5C 290.721,600.225 364.721,557.892 437.5,513.5C 454.556,503.639 471.889,494.306 489.5,485.5C 504.833,476.167 520.167,466.833 535.5,457.5C 537.91,454.749 540.577,452.415 543.5,450.5C 548.255,447.416 551.921,443.416 554.5,438.5C 556.011,437.498 557.678,436.831 559.5,436.5C 559.354,433.446 560.687,431.446 563.5,430.5C 564.807,428.54 566.14,426.54 567.5,424.5C 567.328,423.508 567.662,422.842 568.5,422.5C 569.974,421.564 570.974,420.23 571.5,418.5C 571.5,417.167 572.167,416.5 573.5,416.5C 574.971,414.784 575.971,412.784 576.5,410.5C 579.315,408.166 581.649,405.499 583.5,402.5C 584.971,400.784 585.971,398.784 586.5,396.5C 592.202,397.232 597.202,395.899 601.5,392.5C 602.971,390.784 603.971,388.784 604.5,386.5C 613.028,383.614 621.695,380.78 630.5,378C 638.157,374.506 645.823,371.006 653.5,367.5C 656.182,364.65 659.016,361.984 662,359.5C 664.389,355.637 666.889,351.971 669.5,348.5C 670.971,346.784 671.971,344.784 672.5,342.5C 672.833,342.5 673.167,342.5 673.5,342.5C 674.971,340.784 675.971,338.784 676.5,336.5C 676.833,336.5 677.167,336.5 677.5,336.5C 678.807,334.54 680.14,332.54 681.5,330.5C 683.718,327.757 685.718,324.757 687.5,321.5C 692.544,319.391 697.711,317.725 703,316.5C 704.833,316.833 706.667,317.167 708.5,317.5C 709.115,319.116 710.115,320.449 711.5,321.5C 708.545,325.797 704.545,328.464 699.5,329.5C 700.988,331.577 702.988,332.577 705.5,332.5C 705.708,334.92 705.374,337.253 704.5,339.5C 705.833,339.833 707.167,340.167 708.5,340.5C 722.842,338.893 737.176,337.227 751.5,335.5C 773.5,328.167 795.5,320.833 817.5,313.5C 818.642,311.883 819.309,310.05 819.5,308C 818.239,303.621 817.239,299.121 816.5,294.5C 816.94,291.62 817.94,288.954 819.5,286.5C 821.691,281.437 824.358,276.77 827.5,272.5C 828.807,270.54 830.14,268.54 831.5,266.5C 831.62,265.414 832.287,264.747 833.5,264.5C 839.269,262.782 844.935,260.782 850.5,258.5C 852.904,254.145 853.904,249.478 853.5,244.5C 853.706,241.505 853.04,238.838 851.5,236.5C 849.824,235.817 849.157,234.483 849.5,232.5C 848.649,227.239 848.649,221.906 849.5,216.5C 852.424,197.59 851.258,178.924 846,160.5C 845.903,150.068 845.069,139.735 843.5,129.5C 778.853,142.696 714.186,156.03 649.5,169.5C 648.009,168.652 647.342,167.319 647.5,165.5C 650.791,159.708 655.291,155.042 661,151.5C 661.174,146.316 661.674,141.316 662.5,136.5C 664.417,121.344 666.084,106.011 667.5,90.5C 667.393,87.433 666.893,84.433 666,81.5C 665.623,80.0577 664.79,79.0577 663.5,78.5C 662.878,76.8784 661.878,75.5451 660.5,74.5C 656.457,70.7931 652.791,66.7931 649.5,62.5C 648.631,59.2201 647.964,55.8868 647.5,52.5C 648.274,49.6692 649.274,47.0025 650.5,44.5C 627.874,48.3516 605.207,52.0183 582.5,55.5C 580.484,55.4841 579.484,54.4841 579.5,52.5C 579.13,48.226 578.13,44.226 576.5,40.5C 576.706,37.5049 576.04,34.8383 574.5,32.5C 574.706,29.5049 574.04,26.8383 572.5,24.5C 572.102,19.5881 571.102,14.9215 569.5,10.5C 569.198,7.62749 568.531,4.96082 567.5,2.5C 567.03,1.30652 566.03,0.639851 564.5,0.5C 528.623,10.6424 492.289,18.8091 455.5,25C 447.589,28.3033 439.423,30.8033 431,32.5C 393.575,51.2406 356.575,70.5739 320,90.5C 242.568,115.392 165.068,140.725 87.5,166.5C 83.4882,163.485 79.8215,160.152 76.5,156.5C 75.5,152.833 73.1667,150.5 69.5,149.5C 66.0821,150.188 62.7488,151.188 59.5,152.5C 39.4685,161.178 19.4685,169.845 -0.5,178.5C -0.5,118.833 -0.5,59.1667 -0.5,-0.5 Z"/></g>
<g><path style="opacity:1" fill="#9ba6ae" d="M 851.5,236.5 C 853.04,238.838 853.706,241.505 853.5,244.5C 852.232,242.095 851.565,239.428 851.5,236.5 Z"/></g>
<g><path style="opacity:1" fill="#abb3b9" d="M 16.5,228.5 C 19.0685,228.738 20.7352,230.071 21.5,232.5C 19.5201,231.516 17.8534,230.183 16.5,228.5 Z"/></g>
<g><path style="opacity:1" fill="#b2babe" d="M 849.5,216.5 C 848.649,221.906 848.649,227.239 849.5,232.5C 848.223,231.306 847.556,229.64 847.5,227.5C 847.647,223.604 848.314,219.938 849.5,216.5 Z"/></g>
<g><path style="opacity:1" fill="#899caa" d="M 29.5,210.5 C 29.0248,214.309 27.0248,216.975 23.5,218.5C 25.162,215.515 27.162,212.848 29.5,210.5 Z"/></g>
<g><path style="opacity:1" fill="#b0b8be" d="M 69.5,149.5 C 73.1667,150.5 75.5,152.833 76.5,156.5C 74.1667,154.167 71.8333,151.833 69.5,149.5 Z"/></g>
<g><path style="opacity:1" fill="#a4aeb3" d="M 663.5,78.5 C 664.79,79.0577 665.623,80.0577 666,81.5C 666.893,84.433 667.393,87.433 667.5,90.5C 666.084,106.011 664.417,121.344 662.5,136.5C 663.304,121.126 664.637,105.792 666.5,90.5C 666.121,86.317 665.121,82.317 663.5,78.5 Z"/></g>
<g><path style="opacity:1" fill="#b4bcc0" d="M 649.5,62.5 C 652.791,66.7931 656.457,70.7931 660.5,74.5C 656.643,72.6589 653.309,69.9922 650.5,66.5C 649.571,65.3112 649.238,63.9778 649.5,62.5 Z"/></g>
<g><path style="opacity:1" fill="#a3adb3" d="M 576.5,40.5 C 578.13,44.226 579.13,48.226 579.5,52.5C 577.658,48.8414 576.658,44.8414 576.5,40.5 Z"/></g>
<g><path style="opacity:1" fill="#acb3b8" d="M 574.5,32.5 C 576.04,34.8383 576.706,37.5049 576.5,40.5C 575.232,38.0948 574.565,35.4282 574.5,32.5 Z"/></g>
<g><path style="opacity:1" fill="#aeb6ba" d="M 572.5,24.5 C 574.04,26.8383 574.706,29.5049 574.5,32.5C 573.232,30.0948 572.565,27.4282 572.5,24.5 Z"/></g>
<g><path style="opacity:1" fill="#a3adb3" d="M 569.5,10.5 C 571.102,14.9215 572.102,19.5881 572.5,24.5C 570.581,20.1434 569.581,15.4767 569.5,10.5 Z"/></g>
<g><path style="opacity:1" fill="#a8b1b6" d="M 567.5,2.5 C 568.531,4.96082 569.198,7.62749 569.5,10.5C 567.777,8.21997 567.111,5.5533 567.5,2.5 Z"/></g>
<g><path style="opacity:1" fill="#afb5bb" d="M 33.5,250.5 C 33.6145,254.888 32.6145,258.888 30.5,262.5C 30.9734,258.267 31.9734,254.267 33.5,250.5 Z"/></g>
<g><path style="opacity:1" fill="#c2c7c9" d="M 831.5,266.5 C 830.14,268.54 828.807,270.54 827.5,272.5C 827.354,269.446 828.687,267.446 831.5,266.5 Z"/></g>
<g><path style="opacity:1" fill="#a9b1b7" d="M 29.5,263.5 C 29.1373,267.224 28.4707,270.891 27.5,274.5C 27.837,277.176 28.1703,279.843 28.5,282.5C 25.7131,276.025 26.0465,269.692 29.5,263.5 Z"/></g>
<g><path style="opacity:1" fill="#c4c9ca" d="M 819.5,286.5 C 817.94,288.954 816.94,291.62 816.5,294.5C 815.201,291.08 816.201,288.413 819.5,286.5 Z"/></g>
<g><path style="opacity:1" fill="#b2b8bd" d="M 56.5,298.5 C 58.5449,299.923 59.5449,301.923 59.5,304.5C 58.0292,302.784 57.0292,300.784 56.5,298.5 Z"/></g>
<g><path style="opacity:1" fill="#9aa5ad" d="M 59.5,304.5 C 60.5974,309.013 60.5974,313.679 59.5,318.5C 59.0856,314.031 59.0856,309.364 59.5,304.5 Z"/></g>
<g><path style="opacity:1" fill="#b0b6bc" d="M 59.5,318.5 C 61.1765,319.183 61.8432,320.517 61.5,322.5C 60.6554,321.329 59.9887,319.995 59.5,318.5 Z"/></g>
<g><path style="opacity:1" fill="#d0d2d4" d="M 64.5,324.5 C 68.226,324.177 71.8927,324.511 75.5,325.5C 76.6119,326.265 77.2786,327.265 77.5,328.5C 73.3829,326.282 69.0496,324.949 64.5,324.5 Z"/></g>
<g><path style="opacity:1" fill="#bbc0c5" d="M 681.5,330.5 C 680.14,332.54 678.807,334.54 677.5,336.5C 677.354,333.446 678.687,331.446 681.5,330.5 Z"/></g>
<g><path style="opacity:1" fill="#c4c6ca" d="M 676.5,336.5 C 675.971,338.784 674.971,340.784 673.5,342.5C 673.455,339.923 674.455,337.923 676.5,336.5 Z"/></g>
<g><path style="opacity:1" fill="#97a5ae" d="M 96.5,340.5 C 99.0685,340.738 100.735,342.071 101.5,344.5C 99.246,343.876 97.5794,342.543 96.5,340.5 Z"/></g>
<g><path style="opacity:1" fill="#c4c6cb" d="M 672.5,342.5 C 671.971,344.784 670.971,346.784 669.5,348.5C 669.455,345.923 670.455,343.923 672.5,342.5 Z"/></g>
<g><path style="opacity:1" fill="#aab3b9" d="M 109.5,368.5 C 109.917,372.936 108.25,376.269 104.5,378.5C 106.638,375.373 108.305,372.04 109.5,368.5 Z"/></g>
<g><path style="opacity:1" fill="#c4c6ca" d="M 604.5,386.5 C 603.971,388.784 602.971,390.784 601.5,392.5C 601.455,389.923 602.455,387.923 604.5,386.5 Z"/></g>
<g><path style="opacity:1" fill="#859aa8" d="M 93.5,390.5 C 94.1667,393.167 94.8333,395.833 95.5,398.5C 98.517,398.556 98.8503,398.89 96.5,399.5C 95.5041,399.586 94.6708,399.252 94,398.5C 92.5236,395.735 92.3569,393.068 93.5,390.5 Z"/></g>
<g><path style="opacity:1" fill="#b9bec3" d="M 586.5,396.5 C 585.971,398.784 584.971,400.784 583.5,402.5C 583.455,399.923 584.455,397.923 586.5,396.5 Z"/></g>
<g><path style="opacity:1" fill="#d6d7d8" d="M 97.5,400.5 C 103.5,400.5 109.5,400.5 115.5,400.5C 115.806,403.385 115.473,406.052 114.5,408.5C 114.5,406.167 114.5,403.833 114.5,401.5C 108.642,401.822 102.975,401.489 97.5,400.5 Z"/></g>
<g><path style="opacity:1" fill="#c5c7cb" d="M 576.5,410.5 C 575.971,412.784 574.971,414.784 573.5,416.5C 573.455,413.923 574.455,411.923 576.5,410.5 Z"/></g>
<g><path style="opacity:1" fill="#aab3b8" d="M 571.5,418.5 C 570.974,420.23 569.974,421.564 568.5,422.5C 568.554,420.368 569.554,419.035 571.5,418.5 Z"/></g>
<g><path style="opacity:1" fill="#859aa9" d="M 117.5,424.5 C 123.926,423.88 129.926,424.547 135.5,426.5C 129.399,425.872 123.399,425.205 117.5,424.5 Z"/></g>
<g><path style="opacity:1" fill="#bbc0c4" d="M 567.5,424.5 C 566.14,426.54 564.807,428.54 563.5,430.5C 563.354,427.446 564.687,425.446 567.5,424.5 Z"/></g>
<g><path style="opacity:1" fill="#a1aab3" d="M 135.5,426.5 C 136.942,428.54 137.942,430.873 138.5,433.5C 138.376,434.107 138.043,434.44 137.5,434.5C 136.525,431.933 135.858,429.267 135.5,426.5 Z"/></g>
<g><path style="opacity:1" fill="#b4bbc0" d="M 554.5,438.5 C 551.921,443.416 548.255,447.416 543.5,450.5C 546.804,446.194 550.471,442.194 554.5,438.5 Z"/></g>
<g><path style="opacity:1" fill="#b2b8bd" d="M 137.5,435.5 C 136.355,439.077 135.355,442.744 134.5,446.5C 132.796,448.641 131.13,450.641 129.5,452.5C 132.618,446.981 135.285,441.314 137.5,435.5 Z"/></g>
<g><path style="opacity:1" fill="#b0b6bd" d="M 125.5,464.5 C 125.545,467.077 124.545,469.077 122.5,470.5C 123.029,468.216 124.029,466.216 125.5,464.5 Z"/></g>
<g><path style="opacity:1" fill="#b1b6bc" d="M 121.5,472.5 C 121.307,476.566 121.64,480.566 122.5,484.5C 121.883,484.389 121.383,484.056 121,483.5C 120.19,479.642 120.357,475.976 121.5,472.5 Z"/></g>
<g><path style="opacity:1" fill="#a0aab1" d="M 148.5,494.5 C 150.61,495.95 151.943,497.95 152.5,500.5C 150.37,499.036 149.037,497.036 148.5,494.5 Z"/></g>
<g><path style="opacity:1" fill="#a8b0b6" d="M 152.5,500.5 C 154.585,502.684 155.585,505.351 155.5,508.5C 153.98,506.11 152.98,503.443 152.5,500.5 Z"/></g>
<g><path style="opacity:1" fill="#a5aeb5" d="M 155.5,508.5 C 157.163,510.438 157.829,512.772 157.5,515.5C 156.388,513.401 155.721,511.067 155.5,508.5 Z"/></g>
<g><path style="opacity:1" fill="#a7b0b7" d="M 157.5,516.5 C 158.898,517.777 159.564,519.443 159.5,521.5C 158.67,525.149 158.004,528.815 157.5,532.5C 156.5,532.5 155.5,532.5 154.5,532.5C 157.716,527.627 158.716,522.294 157.5,516.5 Z"/></g>
<g><path style="opacity:1" fill="#abb3b8" d="M 135.5,542.5 C 135.889,545.553 135.223,548.22 133.5,550.5C 133.802,547.627 134.469,544.961 135.5,542.5 Z"/></g>
<g><path style="opacity:1" fill="#b6bbc0" d="M 134.5,560.5 C 136.545,561.923 137.545,563.923 137.5,566.5C 136.029,564.784 135.029,562.784 134.5,560.5 Z"/></g>
<g><path style="opacity:1" fill="#b2b9bd" d="M 137.5,566.5 C 139.176,567.183 139.843,568.517 139.5,570.5C 138.655,569.329 137.989,567.995 137.5,566.5 Z"/></g>
<g><path style="opacity:1" fill="#b4b9be" d="M 140.5,572.5 C 142.862,575.771 142.862,579.104 140.5,582.5C 141.247,579.086 141.247,575.753 140.5,572.5 Z"/></g>
<g><path style="opacity:1" fill="#9ca7ae" d="M 139.5,584.5 C 139.678,588.122 139.011,591.456 137.5,594.5C 137.549,590.922 138.215,587.589 139.5,584.5 Z"/></g>
</svg>
