<?xml version="1.0" encoding="UTF-8"?>
<!DOCTYPE svg PUBLIC "-//W3C//DTD SVG 1.1//EN" "http://www.w3.org/Graphics/SVG/1.1/DTD/svg11.dtd">
<svg xmlns="http://www.w3.org/2000/svg" version="1.1" width="396px" height="444px" style="shape-rendering:geometricPrecision; text-rendering:geometricPrecision; image-rendering:optimizeQuality; fill-rule:evenodd; clip-rule:evenodd" xmlns:xlink="http://www.w3.org/1999/xlink">
<g><path style="opacity:1" fill="#754eb8" d="M 156.5,10.5 C 159.082,10.9746 161.082,10.3079 162.5,8.5C 169.425,7.96626 176.092,8.7996 182.5,11C 196.506,11.5665 210.506,11.3999 224.5,10.5C 237.832,11.2619 251.165,11.9285 264.5,12.5C 268.715,14.4364 273.381,15.1031 278.5,14.5C 296.187,15.1687 313.521,16.502 330.5,18.5C 329.609,19.2613 328.942,20.2613 328.5,21.5C 328.957,22.2975 329.624,22.6309 330.5,22.5C 331.564,25.6268 332.897,28.6268 334.5,31.5C 334.014,33.3042 333.347,34.9709 332.5,36.5C 329.833,39.1667 329.833,41.8333 332.5,44.5C 338.443,60.3881 344.943,76.0548 352,91.5C 353.07,99.0807 352.404,106.414 350,113.5C 345.999,120.84 341.499,127.84 336.5,134.5C 335.66,140.474 335.66,146.474 336.5,152.5C 336.334,157.179 336.501,161.845 337,166.5C 337.278,167.416 337.778,168.082 338.5,168.5C 344.398,170.728 348.731,174.728 351.5,180.5C 353.001,181.752 354.668,182.752 356.5,183.5C 358.799,188.071 361.466,192.405 364.5,196.5C 366.299,204.43 369.466,211.764 374,218.5C 374.495,220.473 374.662,222.473 374.5,224.5C 374.336,227.187 374.503,229.854 375,232.5C 375.278,233.416 375.778,234.082 376.5,234.5C 378.13,237.173 380.463,239.173 383.5,240.5C 384.501,243.173 386.001,245.507 388,247.5C 388.494,249.134 388.66,250.801 388.5,252.5C 388.259,254.898 388.926,256.898 390.5,258.5C 391.877,264.688 393.544,270.688 395.5,276.5C 395.5,278.5 395.5,280.5 395.5,282.5C 394.833,283.167 394.167,283.833 393.5,284.5C 392.84,285.964 392.507,287.631 392.5,289.5C 392.316,292.205 392.983,294.538 394.5,296.5C 394.194,299.385 394.527,302.052 395.5,304.5C 395.5,307.833 395.5,311.167 395.5,314.5C 394.677,317.977 394.177,321.644 394,325.5C 388.058,342.931 382.892,360.598 378.5,378.5C 375.615,378.806 372.948,378.473 370.5,377.5C 368.022,376.836 365.355,376.503 362.5,376.5C 359.41,376.522 356.743,377.188 354.5,378.5C 351.167,378.5 347.833,378.5 344.5,378.5C 340.671,377.931 337.337,378.598 334.5,380.5C 327.744,380.285 321.077,380.952 314.5,382.5C 306.663,386.555 298.663,390.222 290.5,393.5C 288.995,394.842 288.328,396.508 288.5,398.5C 281.853,400.494 275.519,403.16 269.5,406.5C 266.294,405.303 263.627,403.303 261.5,400.5C 259.365,401.881 257.032,402.881 254.5,403.5C 244.258,410.405 234.591,418.072 225.5,426.5C 222.393,427.647 219.393,427.314 216.5,425.5C 214.044,419.926 211.711,414.259 209.5,408.5C 208.083,406.739 206.417,405.406 204.5,404.5C 203.817,402.824 202.483,402.157 200.5,402.5C 199.022,402.238 197.689,402.571 196.5,403.5C 176.943,416.649 157.277,429.649 137.5,442.5C 134.379,435.933 130.046,430.267 124.5,425.5C 116.684,422.339 108.684,419.839 100.5,418C 98.4535,416.378 97.4535,414.212 97.5,411.5C 98.5446,403.699 100.211,396.033 102.5,388.5C 100.607,386.048 99.2737,383.381 98.5,380.5C 96.1667,380.5 93.8333,380.5 91.5,380.5C 90.8478,379.275 89.6811,378.608 88,378.5C 86.3189,378.608 85.1522,379.275 84.5,380.5C 75.1667,381.167 65.8333,381.833 56.5,382.5C 55.8166,380.824 54.4832,380.157 52.5,380.5C 48.845,380.528 46.1783,378.861 44.5,375.5C 37.8725,363.084 33.0391,350.084 30,336.5C 26.5332,330.551 23.3666,324.551 20.5,318.5C 15.7478,317.427 12.0811,314.76 9.5,310.5C 6.60169,305.374 4.26836,300.041 2.5,294.5C 2.88934,291.447 2.22267,288.78 0.5,286.5C 1.00932,280.798 1.84265,275.132 3,269.5C 5.57304,265.358 7.90637,261.024 10,256.5C 10.1512,248.356 11.1512,240.356 13,232.5C 13.2118,221.806 13.7118,211.14 14.5,200.5C 15.5,198.5 16.5,196.5 17.5,194.5C 21.235,191.269 24.4017,187.603 27,183.5C 30.1482,167.899 33.1482,152.232 36,136.5C 35.4981,128.486 35.6648,120.486 36.5,112.5C 37.2216,112.082 37.7216,111.416 38,110.5C 38.8174,104.984 38.6507,99.6503 37.5,94.5C 36.5206,91.3752 36.1872,88.0419 36.5,84.5C 38.5838,82.007 38.9171,79.3404 37.5,76.5C 34.8269,68.5089 33.1602,60.1756 32.5,51.5C 35.9469,39.3789 38.2802,27.0455 39.5,14.5C 41.6179,13.0541 43.9512,12.3874 46.5,12.5C 48.4832,12.8432 49.8166,12.1765 50.5,10.5C 69.0041,7.18416 87.6708,3.85082 106.5,0.5C 109.167,0.833333 111.833,1.16667 114.5,1.5C 116.921,6.67626 120.088,11.3429 124,15.5C 128.133,13.1904 131.966,10.5237 135.5,7.5C 137.45,10.6188 139.95,13.2854 143,15.5C 147.079,12.5375 151.579,10.8708 156.5,10.5 Z"/></g>
<g><path style="opacity:1" fill="#f6f5f6" d="M 395.5,282.5 C 395.5,289.833 395.5,297.167 395.5,304.5C 394.527,302.052 394.194,299.385 394.5,296.5C 393.728,292.548 393.395,288.548 393.5,284.5C 394.167,283.833 394.833,283.167 395.5,282.5 Z"/></g>
<g><path style="opacity:1" fill="#8c79ab" d="M 0.5,286.5 C 2.22267,288.78 2.88934,291.447 2.5,294.5C 1.46899,292.039 0.802327,289.373 0.5,286.5 Z"/></g>
<g><path style="opacity:1" fill="#826ea6" d="M 393.5,284.5 C 393.395,288.548 393.728,292.548 394.5,296.5C 392.983,294.538 392.316,292.205 392.5,289.5C 392.507,287.631 392.84,285.964 393.5,284.5 Z"/></g>
<g><path style="opacity:1" fill="#fefefe" d="M -0.5,-0.5 C 131.5,-0.5 263.5,-0.5 395.5,-0.5C 395.5,91.8333 395.5,184.167 395.5,276.5C 393.544,270.688 391.877,264.688 390.5,258.5C 390.405,256.214 389.738,254.214 388.5,252.5C 388.66,250.801 388.494,249.134 388,247.5C 386.001,245.507 384.501,243.173 383.5,240.5C 380.463,239.173 378.13,237.173 376.5,234.5C 376.101,230.989 375.434,227.656 374.5,224.5C 374.662,222.473 374.495,220.473 374,218.5C 369.466,211.764 366.299,204.43 364.5,196.5C 361.466,192.405 358.799,188.071 356.5,183.5C 354.668,182.752 353.001,181.752 351.5,180.5C 348.731,174.728 344.398,170.728 338.5,168.5C 337.982,163.014 337.315,157.681 336.5,152.5C 335.66,146.474 335.66,140.474 336.5,134.5C 341.499,127.84 345.999,120.84 350,113.5C 352.404,106.414 353.07,99.0807 352,91.5C 344.943,76.0548 338.443,60.3881 332.5,44.5C 331.167,41.8333 331.167,39.1667 332.5,36.5C 333.347,34.9709 334.014,33.3042 334.5,31.5C 332.897,28.6268 331.564,25.6268 330.5,22.5C 330.5,21.1667 330.5,19.8333 330.5,18.5C 313.521,16.502 296.187,15.1687 278.5,14.5C 273.936,13.7838 269.269,13.1171 264.5,12.5C 251.165,11.9285 237.832,11.2619 224.5,10.5C 210.506,11.3999 196.506,11.5665 182.5,11C 176.092,8.7996 169.425,7.96626 162.5,8.5C 160.374,9.04816 158.374,9.71482 156.5,10.5C 151.579,10.8708 147.079,12.5375 143,15.5C 139.95,13.2854 137.45,10.6188 135.5,7.5C 131.966,10.5237 128.133,13.1904 124,15.5C 120.088,11.3429 116.921,6.67626 114.5,1.5C 111.833,1.16667 109.167,0.833333 106.5,0.5C 87.6708,3.85082 69.0041,7.18416 50.5,10.5C 49.0048,10.9887 47.6715,11.6554 46.5,12.5C 43.9512,12.3874 41.6179,13.0541 39.5,14.5C 38.2802,27.0455 35.9469,39.3789 32.5,51.5C 33.1602,60.1756 34.8269,68.5089 37.5,76.5C 37.4249,79.2062 37.0916,81.8728 36.5,84.5C 36.1872,88.0419 36.5206,91.3752 37.5,94.5C 37.6968,100.545 37.3635,106.545 36.5,112.5C 35.6648,120.486 35.4981,128.486 36,136.5C 33.1482,152.232 30.1482,167.899 27,183.5C 24.4017,187.603 21.235,191.269 17.5,194.5C 16.5,196.5 15.5,198.5 14.5,200.5C 13.7118,211.14 13.2118,221.806 13,232.5C 11.1512,240.356 10.1512,248.356 10,256.5C 7.90637,261.024 5.57304,265.358 3,269.5C 1.84265,275.132 1.00932,280.798 0.5,286.5C 0.802327,289.373 1.46899,292.039 2.5,294.5C 4.26836,300.041 6.60169,305.374 9.5,310.5C 12.0811,314.76 15.7478,317.427 20.5,318.5C 23.3666,324.551 26.5332,330.551 30,336.5C 33.0391,350.084 37.8725,363.084 44.5,375.5C 46.1783,378.861 48.845,380.528 52.5,380.5C 53.6715,381.345 55.0048,382.011 56.5,382.5C 65.8333,381.833 75.1667,381.167 84.5,380.5C 86.8333,379.167 89.1667,379.167 91.5,380.5C 93.8333,380.5 96.1667,380.5 98.5,380.5C 99.2737,383.381 100.607,386.048 102.5,388.5C 100.211,396.033 98.5446,403.699 97.5,411.5C 97.4535,414.212 98.4535,416.378 100.5,418C 108.684,419.839 116.684,422.339 124.5,425.5C 130.046,430.267 134.379,435.933 137.5,442.5C 157.277,429.649 176.943,416.649 196.5,403.5C 197.689,402.571 199.022,402.238 200.5,402.5C 201.671,403.345 203.005,404.011 204.5,404.5C 206.417,405.406 208.083,406.739 209.5,408.5C 211.711,414.259 214.044,419.926 216.5,425.5C 219.393,427.314 222.393,427.647 225.5,426.5C 234.591,418.072 244.258,410.405 254.5,403.5C 257.032,402.881 259.365,401.881 261.5,400.5C 263.627,403.303 266.294,405.303 269.5,406.5C 275.519,403.16 281.853,400.494 288.5,398.5C 288.328,396.508 288.995,394.842 290.5,393.5C 298.663,390.222 306.663,386.555 314.5,382.5C 321.077,380.952 327.744,380.285 334.5,380.5C 337.941,379.903 341.275,379.237 344.5,378.5C 347.833,378.5 351.167,378.5 354.5,378.5C 359.74,377.551 365.073,377.218 370.5,377.5C 372.948,378.473 375.615,378.806 378.5,378.5C 382.892,360.598 388.058,342.931 394,325.5C 394.177,321.644 394.677,317.977 395.5,314.5C 395.5,357.5 395.5,400.5 395.5,443.5C 263.5,443.5 131.5,443.5 -0.5,443.5C -0.5,295.5 -0.5,147.5 -0.5,-0.5 Z"/></g>
<g><path style="opacity:1" fill="#9181ae" d="M 388.5,252.5 C 389.738,254.214 390.405,256.214 390.5,258.5C 388.926,256.898 388.259,254.898 388.5,252.5 Z"/></g>
<g><path style="opacity:1" fill="#816ca6" d="M 374.5,224.5 C 375.434,227.656 376.101,230.989 376.5,234.5C 375.778,234.082 375.278,233.416 375,232.5C 374.503,229.854 374.336,227.187 374.5,224.5 Z"/></g>
<g><path style="opacity:1" fill="#8573a8" d="M 336.5,152.5 C 337.315,157.681 337.982,163.014 338.5,168.5C 337.778,168.082 337.278,167.416 337,166.5C 336.501,161.845 336.334,157.179 336.5,152.5 Z"/></g>
<g><path style="opacity:1" fill="#816ba5" d="M 37.5,94.5 C 38.6507,99.6503 38.8174,104.984 38,110.5C 37.7216,111.416 37.2216,112.082 36.5,112.5C 37.3635,106.545 37.6968,100.545 37.5,94.5 Z"/></g>
<g><path style="opacity:1" fill="#8470a7" d="M 37.5,76.5 C 38.9171,79.3404 38.5838,82.007 36.5,84.5C 37.0916,81.8728 37.4249,79.2062 37.5,76.5 Z"/></g>
<g><path style="opacity:1" fill="#846fa8" d="M 332.5,36.5 C 331.167,39.1667 331.167,41.8333 332.5,44.5C 329.833,41.8333 329.833,39.1667 332.5,36.5 Z"/></g>
<g><path style="opacity:1" fill="#9789b1" d="M 330.5,18.5 C 330.5,19.8333 330.5,21.1667 330.5,22.5C 329.624,22.6309 328.957,22.2975 328.5,21.5C 328.942,20.2613 329.609,19.2613 330.5,18.5 Z"/></g>
<g><path style="opacity:1" fill="#9283ac" d="M 264.5,12.5 C 269.269,13.1171 273.936,13.7838 278.5,14.5C 273.381,15.1031 268.715,14.4364 264.5,12.5 Z"/></g>
<g><path style="opacity:1" fill="#9587ad" d="M 50.5,10.5 C 49.8166,12.1765 48.4832,12.8432 46.5,12.5C 47.6715,11.6554 49.0048,10.9887 50.5,10.5 Z"/></g>
<g><path style="opacity:1" fill="#9384ac" d="M 162.5,8.5 C 161.082,10.3079 159.082,10.9746 156.5,10.5C 158.374,9.71482 160.374,9.04816 162.5,8.5 Z"/></g>
<g><path style="opacity:1" fill="#9384ac" d="M 370.5,377.5 C 365.073,377.218 359.74,377.551 354.5,378.5C 356.743,377.188 359.41,376.522 362.5,376.5C 365.355,376.503 368.022,376.836 370.5,377.5 Z"/></g>
<g><path style="opacity:1" fill="#8e7cab" d="M 91.5,380.5 C 89.1667,379.167 86.8333,379.167 84.5,380.5C 85.1522,379.275 86.3189,378.608 88,378.5C 89.6811,378.608 90.8478,379.275 91.5,380.5 Z"/></g>
<g><path style="opacity:1" fill="#9081aa" d="M 344.5,378.5 C 341.275,379.237 337.941,379.903 334.5,380.5C 337.337,378.598 340.671,377.931 344.5,378.5 Z"/></g>
<g><path style="opacity:1" fill="#9281ac" d="M 52.5,380.5 C 54.4832,380.157 55.8166,380.824 56.5,382.5C 55.0048,382.011 53.6715,381.345 52.5,380.5 Z"/></g>
<g><path style="opacity:1" fill="#9181ab" d="M 200.5,402.5 C 202.483,402.157 203.817,402.824 204.5,404.5C 203.005,404.011 201.671,403.345 200.5,402.5 Z"/></g>
</svg>
