<?xml version="1.0" encoding="UTF-8"?>
<!DOCTYPE svg PUBLIC "-//W3C//DTD SVG 1.1//EN" "http://www.w3.org/Graphics/SVG/1.1/DTD/svg11.dtd">
<svg xmlns="http://www.w3.org/2000/svg" version="1.1" width="75px" height="96px" style="shape-rendering:geometricPrecision; text-rendering:geometricPrecision; image-rendering:optimizeQuality; fill-rule:evenodd; clip-rule:evenodd" xmlns:xlink="http://www.w3.org/1999/xlink">
<g><path style="opacity:1" fill="#fefffe" d="M -0.5,-0.5 C 5.16667,-0.5 10.8333,-0.5 16.5,-0.5C 10.8185,18.2414 5.15188,36.908 -0.5,55.5C -0.5,36.8333 -0.5,18.1667 -0.5,-0.5 Z"/></g>
<g><path style="opacity:1" fill="#fefefe" d="M 22.5,-0.5 C 39.8333,-0.5 57.1667,-0.5 74.5,-0.5C 74.5,15.5 74.5,31.5 74.5,47.5C 71.9851,41.1129 69.3184,34.7795 66.5,28.5C 66.2378,25.309 64.9045,22.6423 62.5,20.5C 57.6519,15.4849 52.6519,10.6515 47.5,6C 40.6471,4.10139 33.6471,3.10139 26.5,3C 24.6813,2.25974 23.3479,1.09307 22.5,-0.5 Z"/></g>
<g><path style="opacity:1" fill="#b7b06d" d="M 66.5,28.5 C 68.3698,35.6423 70.7032,42.6423 73.5,49.5C 66.8333,51.5 60.1667,53.5 53.5,55.5C 52.435,57.8528 52.6017,60.1861 54,62.5C 55.7201,67.9602 58.8868,72.2935 63.5,75.5C 58.6894,81.8115 53.6894,87.9782 48.5,94C 46.4021,93.9678 44.4021,93.3011 42.5,92C 37.9552,88.6163 33.2885,85.4496 28.5,82.5C 22.5214,74.5223 15.8547,67.189 8.5,60.5C 8.38929,59.8826 8.05596,59.3826 7.5,59C 5.5273,58.5045 3.5273,58.3379 1.5,58.5C 0.956913,58.44 0.62358,58.1067 0.5,57.5C 6.01912,38.4165 11.6858,19.4165 17.5,0.5C 20.4927,0.880765 23.1594,2.04743 25.5,4C 32.6471,4.10139 39.6471,5.10139 46.5,7C 54.1067,13.4347 60.7734,20.6014 66.5,28.5 Z"/></g>
<g><path style="opacity:1" fill="#bebdb5" d="M 16.5,-0.5 C 18.5,-0.5 20.5,-0.5 22.5,-0.5C 23.3479,1.09307 24.6813,2.25974 26.5,3C 33.6471,3.10139 40.6471,4.10139 47.5,6C 52.6519,10.6515 57.6519,15.4849 62.5,20.5C 64.9045,22.6423 66.2378,25.309 66.5,28.5C 60.7734,20.6014 54.1067,13.4347 46.5,7C 39.6471,5.10139 32.6471,4.10139 25.5,4C 23.1594,2.04743 20.4927,0.880765 17.5,0.5C 11.6858,19.4165 6.01912,38.4165 0.5,57.5C 0.62358,58.1067 0.956913,58.44 1.5,58.5C 1.5,58.8333 1.5,59.1667 1.5,59.5C 0.833333,59.5 0.166667,59.5 -0.5,59.5C -0.5,58.1667 -0.5,56.8333 -0.5,55.5C 5.15188,36.908 10.8185,18.2414 16.5,-0.5 Z"/></g>
<g><path style="opacity:1" fill="#fefffe" d="M 74.5,51.5 C 74.5,66.1667 74.5,80.8333 74.5,95.5C 66.1667,95.5 57.8333,95.5 49.5,95.5C 53.7406,89.4183 58.574,83.7517 64,78.5C 64.1667,77.6667 64.3333,76.8333 64.5,76C 59.5857,70.8524 55.919,64.8524 53.5,58C 54.1667,57.3333 54.8333,56.6667 55.5,56C 61.828,54.0936 68.1613,52.5936 74.5,51.5 Z"/></g>
<g><path style="opacity:1" fill="#b5b293" d="M 1.5,59.5 C 1.5,59.1667 1.5,58.8333 1.5,58.5C 3.5273,58.3379 5.5273,58.5045 7.5,59C 8.05596,59.3826 8.38929,59.8826 8.5,60.5C 8.16667,60.5 7.83333,60.5 7.5,60.5C 5.6208,59.6586 3.6208,59.3253 1.5,59.5 Z"/></g>
<g><path style="opacity:1" fill="#fefffe" d="M -0.5,59.5 C 0.166667,59.5 0.833333,59.5 1.5,59.5C 3.6208,59.3253 5.6208,59.6586 7.5,60.5C 14.5173,67.8514 21.1839,75.518 27.5,83.5C 33.4533,87.1426 39.12,91.1426 44.5,95.5C 29.5,95.5 14.5,95.5 -0.5,95.5C -0.5,83.5 -0.5,71.5 -0.5,59.5 Z"/></g>
<g><path style="opacity:1" fill="#bebeb5" d="M 66.5,28.5 C 69.3184,34.7795 71.9851,41.1129 74.5,47.5C 74.5,48.8333 74.5,50.1667 74.5,51.5C 68.1613,52.5936 61.828,54.0936 55.5,56C 54.8333,56.6667 54.1667,57.3333 53.5,58C 55.919,64.8524 59.5857,70.8524 64.5,76C 64.3333,76.8333 64.1667,77.6667 64,78.5C 58.574,83.7517 53.7406,89.4183 49.5,95.5C 47.8333,95.5 46.1667,95.5 44.5,95.5C 39.12,91.1426 33.4533,87.1426 27.5,83.5C 21.1839,75.518 14.5173,67.8514 7.5,60.5C 7.83333,60.5 8.16667,60.5 8.5,60.5C 15.8547,67.189 22.5214,74.5223 28.5,82.5C 33.2885,85.4496 37.9552,88.6163 42.5,92C 44.4021,93.3011 46.4021,93.9678 48.5,94C 53.6894,87.9782 58.6894,81.8115 63.5,75.5C 58.8868,72.2935 55.7201,67.9602 54,62.5C 52.6017,60.1861 52.435,57.8528 53.5,55.5C 60.1667,53.5 66.8333,51.5 73.5,49.5C 70.7032,42.6423 68.3698,35.6423 66.5,28.5 Z"/></g>
</svg>
