<?xml version="1.0" encoding="UTF-8"?>
<!DOCTYPE svg PUBLIC "-//W3C//DTD SVG 1.1//EN" "http://www.w3.org/Graphics/SVG/1.1/DTD/svg11.dtd">
<svg xmlns="http://www.w3.org/2000/svg" version="1.1" width="76px" height="70px" style="shape-rendering:geometricPrecision; text-rendering:geometricPrecision; image-rendering:optimizeQuality; fill-rule:evenodd; clip-rule:evenodd" xmlns:xlink="http://www.w3.org/1999/xlink">
<g><path style="opacity:1" fill="#d9d7dc" d="M 22.5,0.5 C 22.5,0.166667 22.5,-0.166667 22.5,-0.5C 37.5,-0.5 52.5,-0.5 67.5,-0.5C 67.5,0.5 67.5,1.5 67.5,2.5C 67.1667,2.5 66.8333,2.5 66.5,2.5C 52.2048,0.516735 37.5381,-0.149932 22.5,0.5 Z"/></g>
<g><path style="opacity:1" fill="#fafafb" d="M 67.5,-0.5 C 70.1667,-0.5 72.8333,-0.5 75.5,-0.5C 75.5,18.5 75.5,37.5 75.5,56.5C 74.5085,51.9496 73.5085,47.2829 72.5,42.5C 72.1977,39.6275 71.531,36.9608 70.5,34.5C 70.6234,28.3997 69.9568,22.3997 68.5,16.5C 67.6864,11.8809 67.3531,7.21425 67.5,2.5C 67.5,1.5 67.5,0.5 67.5,-0.5 Z"/></g>
<g><path style="opacity:1" fill="#b17fef" d="M 22.5,0.5 C 37.5381,-0.149932 52.2048,0.516735 66.5,2.5C 66.3345,6.51383 66.5012,10.5138 67,14.5C 67.2784,15.4158 67.7784,16.0825 68.5,16.5C 69.9568,22.3997 70.6234,28.3997 70.5,34.5C 70.1107,37.5533 70.7773,40.22 72.5,42.5C 73.5085,47.2829 74.5085,51.9496 75.5,56.5C 75.5,58.1667 75.5,59.8333 75.5,61.5C 74.209,61.2627 73.209,61.596 72.5,62.5C 56.3536,64.0977 40.3536,65.7643 24.5,67.5C 23.4324,68.4345 22.099,68.7678 20.5,68.5C 20.6795,66.0459 20.0128,63.8792 18.5,62C 12.0795,54.1169 6.0795,45.9503 0.5,37.5C 1.5,34.5 2.5,31.5 3.5,28.5C 6.26279,26.4033 9.26279,24.7366 12.5,23.5C 14.0134,22.1537 15.3467,20.6537 16.5,19C 18.4173,12.6994 20.4173,6.53276 22.5,0.5 Z"/></g>
<g><path style="opacity:1" fill="#b195d2" d="M 66.5,2.5 C 66.8333,2.5 67.1667,2.5 67.5,2.5C 67.3531,7.21425 67.6864,11.8809 68.5,16.5C 67.7784,16.0825 67.2784,15.4158 67,14.5C 66.5012,10.5138 66.3345,6.51383 66.5,2.5 Z"/></g>
<g><path style="opacity:1" fill="#b197d1" d="M 70.5,34.5 C 71.531,36.9608 72.1977,39.6275 72.5,42.5C 70.7773,40.22 70.1107,37.5533 70.5,34.5 Z"/></g>
<g><path style="opacity:1" fill="#fbfafb" d="M -0.5,-0.5 C 7.16667,-0.5 14.8333,-0.5 22.5,-0.5C 22.5,-0.166667 22.5,0.166667 22.5,0.5C 20.4173,6.53276 18.4173,12.6994 16.5,19C 15.3467,20.6537 14.0134,22.1537 12.5,23.5C 9.26279,24.7366 6.26279,26.4033 3.5,28.5C 2.5,31.5 1.5,34.5 0.5,37.5C 6.0795,45.9503 12.0795,54.1169 18.5,62C 20.0128,63.8792 20.6795,66.0459 20.5,68.5C 22.099,68.7678 23.4324,68.4345 24.5,67.5C 40.7807,67.2166 56.7807,65.55 72.5,62.5C 73.209,61.596 74.209,61.2627 75.5,61.5C 75.5,64.1667 75.5,66.8333 75.5,69.5C 50.1667,69.5 24.8333,69.5 -0.5,69.5C -0.5,46.1667 -0.5,22.8333 -0.5,-0.5 Z"/></g>
<g><path style="opacity:1" fill="#cec6d8" d="M 72.5,62.5 C 56.7807,65.55 40.7807,67.2166 24.5,67.5C 40.3536,65.7643 56.3536,64.0977 72.5,62.5 Z"/></g>
</svg>
