<?xml version="1.0" encoding="UTF-8"?>
<!DOCTYPE svg PUBLIC "-//W3C//DTD SVG 1.1//EN" "http://www.w3.org/Graphics/SVG/1.1/DTD/svg11.dtd">
<svg xmlns="http://www.w3.org/2000/svg" version="1.1" width="186px" height="90px" style="shape-rendering:geometricPrecision; text-rendering:geometricPrecision; image-rendering:optimizeQuality; fill-rule:evenodd; clip-rule:evenodd" xmlns:xlink="http://www.w3.org/1999/xlink">
<g><path style="opacity:1" fill="#fdfefd" d="M -0.5,-0.5 C 61.5,-0.5 123.5,-0.5 185.5,-0.5C 185.5,10.5 185.5,21.5 185.5,32.5C 173.553,28.3759 161.553,24.3759 149.5,20.5C 146.52,22.1337 143.52,23.8004 140.5,25.5C 138.604,26.4656 136.604,26.7989 134.5,26.5C 122.447,22.9547 110.114,20.288 97.5,18.5C 95.8333,18.5 94.1667,18.5 92.5,18.5C 82.9322,17.8098 73.2655,17.1432 63.5,16.5C 61.2188,16.9227 59.5521,16.256 58.5,14.5C 57.9196,10.8581 57.4196,7.19139 57,3.5C 56.6174,2.94404 56.1174,2.61071 55.5,2.5C 49.5642,1.36097 43.5642,0.694306 37.5,0.5C 28.401,1.14139 19.401,1.80806 10.5,2.5C 8.7428,3.29197 7.40947,4.62531 6.5,6.5C 5.43118,11.1558 5.43118,15.8224 6.5,20.5C 6.91378,22.8083 7.24711,25.1417 7.5,27.5C 6.78614,31.2562 5.78614,34.9229 4.5,38.5C 1.88725,39.7331 0.220579,41.7331 -0.5,44.5C -0.5,29.5 -0.5,14.5 -0.5,-0.5 Z"/></g>
<g><path style="opacity:1" fill="#57e678" d="M 37.5,0.5 C 43.5642,0.694306 49.5642,1.36097 55.5,2.5C 55.8545,6.78975 56.8545,10.7898 58.5,14.5C 59.5521,16.256 61.2188,16.9227 63.5,16.5C 72.7755,18.4733 82.4422,19.14 92.5,18.5C 94.1667,18.5 95.8333,18.5 97.5,18.5C 109.463,21.763 121.796,24.4297 134.5,26.5C 136.604,26.7989 138.604,26.4656 140.5,25.5C 143.52,23.8004 146.52,22.1337 149.5,20.5C 161.553,24.3759 173.553,28.3759 185.5,32.5C 185.5,33.8333 185.5,35.1667 185.5,36.5C 180.071,45.7797 176.405,55.7797 174.5,66.5C 173.778,66.9175 173.278,67.5842 173,68.5C 172.333,73.1667 172.333,77.8333 173,82.5C 173.278,83.4158 173.778,84.0825 174.5,84.5C 174.5,85.8333 174.5,87.1667 174.5,88.5C 157.829,87.722 141.162,86.722 124.5,85.5C 111.856,82.5471 99.1893,79.5471 86.5,76.5C 83.6118,73.8879 80.6118,71.2213 77.5,68.5C 76.1181,65.7363 74.7848,63.0696 73.5,60.5C 72.735,59.3398 71.735,58.3398 70.5,57.5C 66.1008,58.1444 61.7675,59.1444 57.5,60.5C 49.4541,57.7534 41.1207,55.7534 32.5,54.5C 28.8953,52.5836 24.8953,51.2503 20.5,50.5C 13.4,49.1516 6.39998,47.485 -0.5,45.5C -0.5,45.1667 -0.5,44.8333 -0.5,44.5C 0.220579,41.7331 1.88725,39.7331 4.5,38.5C 8.86448,32.8503 9.53114,26.8503 6.5,20.5C 5.43118,15.8224 5.43118,11.1558 6.5,6.5C 7.40947,4.62531 8.7428,3.29197 10.5,2.5C 19.8955,3.13773 28.8955,2.47106 37.5,0.5 Z"/></g>
<g><path style="opacity:1" fill="#bfdac5" d="M 37.5,0.5 C 28.8955,2.47106 19.8955,3.13773 10.5,2.5C 19.401,1.80806 28.401,1.14139 37.5,0.5 Z"/></g>
<g><path style="opacity:1" fill="#8ed39f" d="M 55.5,2.5 C 56.1174,2.61071 56.6174,2.94404 57,3.5C 57.4196,7.19139 57.9196,10.8581 58.5,14.5C 56.8545,10.7898 55.8545,6.78975 55.5,2.5 Z"/></g>
<g><path style="opacity:1" fill="#a3d8af" d="M 63.5,16.5 C 73.2655,17.1432 82.9322,17.8098 92.5,18.5C 82.4422,19.14 72.7755,18.4733 63.5,16.5 Z"/></g>
<g><path style="opacity:1" fill="#c1dac6" d="M 97.5,18.5 C 110.114,20.288 122.447,22.9547 134.5,26.5C 121.796,24.4297 109.463,21.763 97.5,18.5 Z"/></g>
<g><path style="opacity:1" fill="#93d1a1" d="M 6.5,20.5 C 9.53114,26.8503 8.86448,32.8503 4.5,38.5C 5.78614,34.9229 6.78614,31.2562 7.5,27.5C 7.24711,25.1417 6.91378,22.8083 6.5,20.5 Z"/></g>
<g><path style="opacity:1" fill="#fcfdfc" d="M 185.5,36.5 C 185.5,54.1667 185.5,71.8333 185.5,89.5C 123.5,89.5 61.5,89.5 -0.5,89.5C -0.5,74.8333 -0.5,60.1667 -0.5,45.5C 6.39998,47.485 13.4,49.1516 20.5,50.5C 24.1146,52.7431 28.1146,54.0764 32.5,54.5C 41.1207,55.7534 49.4541,57.7534 57.5,60.5C 61.7675,59.1444 66.1008,58.1444 70.5,57.5C 71.735,58.3398 72.735,59.3398 73.5,60.5C 74.4941,68.4987 78.8275,73.832 86.5,76.5C 99.1893,79.5471 111.856,82.5471 124.5,85.5C 141.162,86.722 157.829,87.722 174.5,88.5C 174.5,87.1667 174.5,85.8333 174.5,84.5C 173.167,78.5 173.167,72.5 174.5,66.5C 176.405,55.7797 180.071,45.7797 185.5,36.5 Z"/></g>
<g><path style="opacity:1" fill="#c1dac6" d="M 20.5,50.5 C 24.8953,51.2503 28.8953,52.5836 32.5,54.5C 28.1146,54.0764 24.1146,52.7431 20.5,50.5 Z"/></g>
<g><path style="opacity:1" fill="#b9cfbe" d="M 73.5,60.5 C 74.7848,63.0696 76.1181,65.7363 77.5,68.5C 80.6118,71.2213 83.6118,73.8879 86.5,76.5C 78.8275,73.832 74.4941,68.4987 73.5,60.5 Z"/></g>
<g><path style="opacity:1" fill="#8ed29e" d="M 174.5,66.5 C 173.167,72.5 173.167,78.5 174.5,84.5C 173.778,84.0825 173.278,83.4158 173,82.5C 172.333,77.8333 172.333,73.1667 173,68.5C 173.278,67.5842 173.778,66.9175 174.5,66.5 Z"/></g>
</svg>
