<?xml version="1.0" encoding="UTF-8"?>
<!DOCTYPE svg PUBLIC "-//W3C//DTD SVG 1.1//EN" "http://www.w3.org/Graphics/SVG/1.1/DTD/svg11.dtd">
<svg xmlns="http://www.w3.org/2000/svg" version="1.1" width="120px" height="135px" style="shape-rendering:geometricPrecision; text-rendering:geometricPrecision; image-rendering:optimizeQuality; fill-rule:evenodd; clip-rule:evenodd" xmlns:xlink="http://www.w3.org/1999/xlink">
<g><path style="opacity:1" fill="#f7f7f7" d="M -0.5,-0.5 C 14.8333,-0.5 30.1667,-0.5 45.5,-0.5C 45.1667,0.166667 44.8333,0.833333 44.5,1.5C 42.1667,1.5 39.8333,1.5 37.5,1.5C 33.9878,0.945498 30.9878,1.61216 28.5,3.5C 25.5,3.5 22.5,3.5 19.5,3.5C 16.3447,3.98956 13.3447,4.65622 10.5,5.5C 7.5,5.5 4.5,5.5 1.5,5.5C 0.833333,5.83333 0.166667,6.16667 -0.5,6.5C -0.5,4.16667 -0.5,1.83333 -0.5,-0.5 Z"/></g>
<g><path style="opacity:1" fill="#fefefe" d="M 50.5,0.5 C 50.5,0.166667 50.5,-0.166667 50.5,-0.5C 73.5,-0.5 96.5,-0.5 119.5,-0.5C 119.5,38.5 119.5,77.5 119.5,116.5C 118.1,115.9 117.1,114.9 116.5,113.5C 115.265,113.279 114.265,112.612 113.5,111.5C 111.546,107.02 110.546,102.353 110.5,97.5C 110.011,96.0048 109.345,94.6715 108.5,93.5C 106.5,92.8333 105.167,91.5 104.5,89.5C 98.8992,85.6548 92.5658,83.6548 85.5,83.5C 78.3149,76.7584 70.3149,71.0917 61.5,66.5C 59.921,61.6561 59.0876,56.6561 59,51.5C 56.5725,50.2186 54.0725,49.2186 51.5,48.5C 52.2497,39.8407 52.4164,31.1741 52,22.5C 50.5476,20.1021 50.881,17.7687 53,15.5C 53.6667,11.8333 53.6667,8.16667 53,4.5C 52.3918,2.93356 51.5585,1.60023 50.5,0.5 Z"/></g>
<g><path style="opacity:1" fill="#a59a88" d="M 45.5,-0.5 C 47.1667,-0.5 48.8333,-0.5 50.5,-0.5C 50.5,-0.166667 50.5,0.166667 50.5,0.5C 50.5,0.833333 50.5,1.16667 50.5,1.5C 48.5,1.5 46.5,1.5 44.5,1.5C 44.8333,0.833333 45.1667,0.166667 45.5,-0.5 Z"/></g>
<g><path style="opacity:1" fill="#ac946c" d="M 37.5,1.5 C 39.8333,1.5 42.1667,1.5 44.5,1.5C 46.5,1.5 48.5,1.5 50.5,1.5C 53.3181,7.6396 52.9847,13.6396 49.5,19.5C 50.9666,22.9977 51.6332,26.6644 51.5,30.5C 50.8898,36.8213 50.5565,43.1546 50.5,49.5C 52.9084,50.201 55.2418,51.201 57.5,52.5C 58.0425,57.6005 59.0425,62.6005 60.5,67.5C 66.3729,71.3024 72.3729,74.9691 78.5,78.5C 80.058,80.9564 82.058,82.9564 84.5,84.5C 91.3576,85.5668 98.0243,87.2335 104.5,89.5C 105.167,91.5 106.5,92.8333 108.5,93.5C 108.157,95.4832 108.824,96.8166 110.5,97.5C 110.546,102.353 111.546,107.02 113.5,111.5C 114.265,112.612 115.265,113.279 116.5,113.5C 116.614,115.718 117.28,117.718 118.5,119.5C 118.167,119.5 117.833,119.5 117.5,119.5C 114.248,120.418 111.914,122.418 110.5,125.5C 110.167,125.5 109.833,125.5 109.5,125.5C 106.248,126.418 103.914,128.418 102.5,131.5C 100.712,131.785 99.0453,131.452 97.5,130.5C 95.7906,127.457 93.4572,125.124 90.5,123.5C 90.1298,120.733 88.7964,118.733 86.5,117.5C 86.1519,114.793 84.8186,112.793 82.5,111.5C 79.7901,112.876 77.7901,114.876 76.5,117.5C 76.1667,117.5 75.8333,117.5 75.5,117.5C 72.2478,118.418 69.9145,120.418 68.5,123.5C 65.858,123.488 64.5246,124.821 64.5,127.5C 61.1839,128.149 59.1839,130.149 58.5,133.5C 56.7179,132.28 54.7179,131.614 52.5,131.5C 51.7352,129.071 50.0685,127.738 47.5,127.5C 46.5539,124.687 44.5539,123.354 41.5,123.5C 40.1906,120.549 37.8573,119.216 34.5,119.5C 33.1074,116.765 31.1074,114.432 28.5,112.5C 24.9091,109.994 21.2424,107.661 17.5,105.5C 16.4164,104.335 15.5831,103.002 15,101.5C 11.4686,70.9777 6.6353,40.6443 0.5,10.5C 0.728363,8.7927 1.0617,7.12603 1.5,5.5C 4.5,5.5 7.5,5.5 10.5,5.5C 13.1873,5.66409 15.854,5.49742 18.5,5C 19.056,4.61742 19.3893,4.11742 19.5,3.5C 22.5,3.5 25.5,3.5 28.5,3.5C 31.1873,3.66409 33.854,3.49742 36.5,3C 37.056,2.61742 37.3893,2.11742 37.5,1.5 Z"/></g>
<g><path style="opacity:1" fill="#a59887" d="M 37.5,1.5 C 37.3893,2.11742 37.056,2.61742 36.5,3C 33.854,3.49742 31.1873,3.66409 28.5,3.5C 30.9878,1.61216 33.9878,0.945498 37.5,1.5 Z"/></g>
<g><path style="opacity:1" fill="#a59987" d="M 19.5,3.5 C 19.3893,4.11742 19.056,4.61742 18.5,5C 15.854,5.49742 13.1873,5.66409 10.5,5.5C 13.3447,4.65622 16.3447,3.98956 19.5,3.5 Z"/></g>
<g><path style="opacity:1" fill="#b6b0ab" d="M 1.5,5.5 C 1.0617,7.12603 0.728363,8.7927 0.5,10.5C 6.6353,40.6443 11.4686,70.9777 15,101.5C 15.5831,103.002 16.4164,104.335 17.5,105.5C 21.2424,107.661 24.9091,109.994 28.5,112.5C 31.1074,114.432 33.1074,116.765 34.5,119.5C 27.518,114.351 20.6847,109.017 14,103.5C 11.3759,90.6434 9.70925,77.6434 9,64.5C 6.51114,47.5625 3.34448,30.8958 -0.5,14.5C -0.5,11.8333 -0.5,9.16667 -0.5,6.5C 0.166667,6.16667 0.833333,5.83333 1.5,5.5 Z"/></g>
<g><path style="opacity:1" fill="#fefffe" d="M -0.5,14.5 C 3.34448,30.8958 6.51114,47.5625 9,64.5C 9.70925,77.6434 11.3759,90.6434 14,103.5C 20.6847,109.017 27.518,114.351 34.5,119.5C 36.7912,120.765 39.1246,122.098 41.5,123.5C 43.2048,125.192 45.2048,126.525 47.5,127.5C 48.8534,129.183 50.5201,130.516 52.5,131.5C 53.9002,132.1 54.9002,133.1 55.5,134.5C 36.8333,134.5 18.1667,134.5 -0.5,134.5C -0.5,94.5 -0.5,54.5 -0.5,14.5 Z"/></g>
<g><path style="opacity:1" fill="#bbb6af" d="M 50.5,0.5 C 51.5585,1.60023 52.3918,2.93356 53,4.5C 53.6667,8.16667 53.6667,11.8333 53,15.5C 50.881,17.7687 50.5476,20.1021 52,22.5C 52.4164,31.1741 52.2497,39.8407 51.5,48.5C 54.0725,49.2186 56.5725,50.2186 59,51.5C 59.0876,56.6561 59.921,61.6561 61.5,66.5C 70.3149,71.0917 78.3149,76.7584 85.5,83.5C 92.5658,83.6548 98.8992,85.6548 104.5,89.5C 98.0243,87.2335 91.3576,85.5668 84.5,84.5C 82.058,82.9564 80.058,80.9564 78.5,78.5C 72.3729,74.9691 66.3729,71.3024 60.5,67.5C 59.0425,62.6005 58.0425,57.6005 57.5,52.5C 55.2418,51.201 52.9084,50.201 50.5,49.5C 50.5565,43.1546 50.8898,36.8213 51.5,30.5C 51.6332,26.6644 50.9666,22.9977 49.5,19.5C 52.9847,13.6396 53.3181,7.6396 50.5,1.5C 50.5,1.16667 50.5,0.833333 50.5,0.5 Z"/></g>
<g><path style="opacity:1" fill="#b8b4ac" d="M 108.5,93.5 C 109.345,94.6715 110.011,96.0048 110.5,97.5C 108.824,96.8166 108.157,95.4832 108.5,93.5 Z"/></g>
<g><path style="opacity:1" fill="#bdbab6" d="M 86.5,117.5 C 84.9458,116.086 83.6125,114.419 82.5,112.5C 80.7726,114.567 78.7726,116.233 76.5,117.5C 77.7901,114.876 79.7901,112.876 82.5,111.5C 84.8186,112.793 86.1519,114.793 86.5,117.5 Z"/></g>
<g><path style="opacity:1" fill="#fefefe" d="M 86.5,117.5 C 87.3507,119.882 88.684,121.882 90.5,123.5C 92.6133,126.216 94.6133,129.05 96.5,132C 98.7116,132.789 100.712,132.622 102.5,131.5C 105.153,129.845 107.486,127.845 109.5,125.5C 109.833,125.5 110.167,125.5 110.5,125.5C 113.153,123.845 115.486,121.845 117.5,119.5C 117.833,119.5 118.167,119.5 118.5,119.5C 118.833,119.5 119.167,119.5 119.5,119.5C 119.5,124.5 119.5,129.5 119.5,134.5C 99.1667,134.5 78.8333,134.5 58.5,134.5C 58.5,134.167 58.5,133.833 58.5,133.5C 60.8333,131.833 62.8333,129.833 64.5,127.5C 66.1667,126.5 67.5,125.167 68.5,123.5C 71.153,121.845 73.4864,119.845 75.5,117.5C 75.8333,117.5 76.1667,117.5 76.5,117.5C 78.7726,116.233 80.7726,114.567 82.5,112.5C 83.6125,114.419 84.9458,116.086 86.5,117.5 Z"/></g>
<g><path style="opacity:1" fill="#bebcb7" d="M 116.5,113.5 C 117.1,114.9 118.1,115.9 119.5,116.5C 119.5,117.5 119.5,118.5 119.5,119.5C 119.167,119.5 118.833,119.5 118.5,119.5C 117.28,117.718 116.614,115.718 116.5,113.5 Z"/></g>
<g><path style="opacity:1" fill="#b8b3ae" d="M 86.5,117.5 C 88.7964,118.733 90.1298,120.733 90.5,123.5C 88.684,121.882 87.3507,119.882 86.5,117.5 Z"/></g>
<g><path style="opacity:1" fill="#b8b3ac" d="M 75.5,117.5 C 73.4864,119.845 71.153,121.845 68.5,123.5C 69.9145,120.418 72.2478,118.418 75.5,117.5 Z"/></g>
<g><path style="opacity:1" fill="#b9b4af" d="M 34.5,119.5 C 37.8573,119.216 40.1906,120.549 41.5,123.5C 39.1246,122.098 36.7912,120.765 34.5,119.5 Z"/></g>
<g><path style="opacity:1" fill="#b9b4ad" d="M 117.5,119.5 C 115.486,121.845 113.153,123.845 110.5,125.5C 111.914,122.418 114.248,120.418 117.5,119.5 Z"/></g>
<g><path style="opacity:1" fill="#b6aea6" d="M 68.5,123.5 C 67.5,125.167 66.1667,126.5 64.5,127.5C 64.5246,124.821 65.858,123.488 68.5,123.5 Z"/></g>
<g><path style="opacity:1" fill="#b7b2aa" d="M 41.5,123.5 C 44.5539,123.354 46.5539,124.687 47.5,127.5C 45.2048,126.525 43.2048,125.192 41.5,123.5 Z"/></g>
<g><path style="opacity:1" fill="#b8b2ab" d="M 90.5,123.5 C 93.4572,125.124 95.7906,127.457 97.5,130.5C 99.0453,131.452 100.712,131.785 102.5,131.5C 100.712,132.622 98.7116,132.789 96.5,132C 94.6133,129.05 92.6133,126.216 90.5,123.5 Z"/></g>
<g><path style="opacity:1" fill="#b6afa6" d="M 64.5,127.5 C 62.8333,129.833 60.8333,131.833 58.5,133.5C 59.1839,130.149 61.1839,128.149 64.5,127.5 Z"/></g>
<g><path style="opacity:1" fill="#b9b4ae" d="M 109.5,125.5 C 107.486,127.845 105.153,129.845 102.5,131.5C 103.914,128.418 106.248,126.418 109.5,125.5 Z"/></g>
<g><path style="opacity:1" fill="#c3c2c0" d="M 47.5,127.5 C 50.0685,127.738 51.7352,129.071 52.5,131.5C 50.5201,130.516 48.8534,129.183 47.5,127.5 Z"/></g>
<g><path style="opacity:1" fill="#bdb9b5" d="M 52.5,131.5 C 54.7179,131.614 56.7179,132.28 58.5,133.5C 58.5,133.833 58.5,134.167 58.5,134.5C 57.5,134.5 56.5,134.5 55.5,134.5C 54.9002,133.1 53.9002,132.1 52.5,131.5 Z"/></g>
</svg>
