<?xml version="1.0" encoding="UTF-8"?>
<!DOCTYPE svg PUBLIC "-//W3C//DTD SVG 1.1//EN" "http://www.w3.org/Graphics/SVG/1.1/DTD/svg11.dtd">
<svg xmlns="http://www.w3.org/2000/svg" version="1.1" width="64px" height="58px" style="shape-rendering:geometricPrecision; text-rendering:geometricPrecision; image-rendering:optimizeQuality; fill-rule:evenodd; clip-rule:evenodd" xmlns:xlink="http://www.w3.org/1999/xlink">
<g><path style="opacity:1" fill="#fcfcfc" d="M -0.5,-0.5 C 9.16667,-0.5 18.8333,-0.5 28.5,-0.5C 28.5,-0.166667 28.5,0.166667 28.5,0.5C 24.8333,0.5 21.1667,0.5 17.5,0.5C 17.405,2.7857 16.7384,4.7857 15.5,6.5C 13.8958,7.28696 13.2291,8.6203 13.5,10.5C 10.2478,11.4182 7.91449,13.4182 6.5,16.5C 5.21009,17.0577 4.37675,18.0577 4,19.5C 3.82831,24.2018 3.32831,28.8685 2.5,33.5C 1.92002,36.447 0.92002,39.1137 -0.5,41.5C -0.5,27.5 -0.5,13.5 -0.5,-0.5 Z"/></g>
<g><path style="opacity:1" fill="#9eb2d5" d="M 28.5,0.5 C 28.5,0.166667 28.5,-0.166667 28.5,-0.5C 34.1667,-0.5 39.8333,-0.5 45.5,-0.5C 45.366,1.29152 45.6993,2.95819 46.5,4.5C 44.8235,3.81658 44.1568,2.48324 44.5,0.5C 39.1667,0.5 33.8333,0.5 28.5,0.5 Z"/></g>
<g><path style="opacity:1" fill="#f9f9f9" d="M 45.5,-0.5 C 51.5,-0.5 57.5,-0.5 63.5,-0.5C 63.5,1.16667 63.5,2.83333 63.5,4.5C 57.8333,4.5 52.1667,4.5 46.5,4.5C 45.6993,2.95819 45.366,1.29152 45.5,-0.5 Z"/></g>
<g><path style="opacity:1" fill="#659af5" d="M 28.5,0.5 C 33.8333,0.5 39.1667,0.5 44.5,0.5C 44.1568,2.48324 44.8235,3.81658 46.5,4.5C 52.1667,4.5 57.8333,4.5 63.5,4.5C 63.5,5.83333 63.5,7.16667 63.5,8.5C 62.8741,15.7759 61.8741,23.1093 60.5,30.5C 60.5,31.1667 60.5,31.8333 60.5,32.5C 58.8235,33.1834 58.1568,34.5168 58.5,36.5C 58.5,37.1667 58.5,37.8333 58.5,38.5C 56.9261,40.1016 56.2594,42.1016 56.5,44.5C 56.5,45.1667 56.5,45.8333 56.5,46.5C 54.8235,47.1834 54.1568,48.5168 54.5,50.5C 54.5,51.8333 54.5,53.1667 54.5,54.5C 48.9641,54.7486 43.6308,54.0819 38.5,52.5C 29.1972,54.5899 19.8639,54.9232 10.5,53.5C 7.30222,53.9713 4.63556,55.3047 2.5,57.5C 1.83333,57.5 1.16667,57.5 0.5,57.5C 0.334072,52.4889 0.500738,47.4889 1,42.5C 3.43663,33.9288 5.26997,25.2622 6.5,16.5C 7.91449,13.4182 10.2478,11.4182 13.5,10.5C 14.6737,9.48631 15.3404,8.15298 15.5,6.5C 16.7384,4.7857 17.405,2.7857 17.5,0.5C 21.1667,0.5 24.8333,0.5 28.5,0.5 Z"/></g>
<g><path style="opacity:1" fill="#a9b6ce" d="M 15.5,6.5 C 15.3404,8.15298 14.6737,9.48631 13.5,10.5C 13.2291,8.6203 13.8958,7.28696 15.5,6.5 Z"/></g>
<g><path style="opacity:1" fill="#cdcfd7" d="M 63.5,8.5 C 63.5,14.8333 63.5,21.1667 63.5,27.5C 62.1001,28.0998 61.1001,29.0998 60.5,30.5C 61.8741,23.1093 62.8741,15.7759 63.5,8.5 Z"/></g>
<g><path style="opacity:1" fill="#b2bdce" d="M 6.5,16.5 C 5.26997,25.2622 3.43663,33.9288 1,42.5C 0.500738,47.4889 0.334072,52.4889 0.5,57.5C 0.166667,57.5 -0.166667,57.5 -0.5,57.5C -0.5,52.1667 -0.5,46.8333 -0.5,41.5C 0.92002,39.1137 1.92002,36.447 2.5,33.5C 3.32831,28.8685 3.82831,24.2018 4,19.5C 4.37675,18.0577 5.21009,17.0577 6.5,16.5 Z"/></g>
<g><path style="opacity:1" fill="#f5f6f8" d="M 63.5,27.5 C 63.5,37.5 63.5,47.5 63.5,57.5C 43.1667,57.5 22.8333,57.5 2.5,57.5C 4.63556,55.3047 7.30222,53.9713 10.5,53.5C 19.8639,54.9232 29.1972,54.5899 38.5,52.5C 43.6308,54.0819 48.9641,54.7486 54.5,54.5C 54.5,53.1667 54.5,51.8333 54.5,50.5C 55.3446,49.3285 56.0113,47.9952 56.5,46.5C 56.5,45.8333 56.5,45.1667 56.5,44.5C 57.7384,42.7857 58.405,40.7857 58.5,38.5C 58.5,37.8333 58.5,37.1667 58.5,36.5C 59.3446,35.3285 60.0113,33.9952 60.5,32.5C 60.5,31.8333 60.5,31.1667 60.5,30.5C 61.1001,29.0998 62.1001,28.0998 63.5,27.5 Z"/></g>
<g><path style="opacity:1" fill="#93abd5" d="M 60.5,32.5 C 60.0113,33.9952 59.3446,35.3285 58.5,36.5C 58.1568,34.5168 58.8235,33.1834 60.5,32.5 Z"/></g>
<g><path style="opacity:1" fill="#95a9d1" d="M 58.5,38.5 C 58.405,40.7857 57.7384,42.7857 56.5,44.5C 56.2594,42.1016 56.9261,40.1016 58.5,38.5 Z"/></g>
<g><path style="opacity:1" fill="#93abd5" d="M 56.5,46.5 C 56.0113,47.9952 55.3446,49.3285 54.5,50.5C 54.1568,48.5168 54.8235,47.1834 56.5,46.5 Z"/></g>
</svg>
