<?xml version="1.0" encoding="UTF-8"?>
<!DOCTYPE svg PUBLIC "-//W3C//DTD SVG 1.1//EN" "http://www.w3.org/Graphics/SVG/1.1/DTD/svg11.dtd">
<svg xmlns="http://www.w3.org/2000/svg" version="1.1" width="140px" height="166px" style="shape-rendering:geometricPrecision; text-rendering:geometricPrecision; image-rendering:optimizeQuality; fill-rule:evenodd; clip-rule:evenodd" xmlns:xlink="http://www.w3.org/1999/xlink">
<g><path style="opacity:1" fill="#fcfbfb" d="M -0.5,-0.5 C 17.1667,-0.5 34.8333,-0.5 52.5,-0.5C 52.5,-0.166667 52.5,0.166667 52.5,0.5C 52.4211,2.66634 51.7545,4.66634 50.5,6.5C 52.1644,8.98073 52.6644,11.6474 52,14.5C 48.2583,18.7606 44.0916,22.4273 39.5,25.5C 31.8771,31.6172 24.0438,31.9505 16,26.5C 10.6788,30.2387 5.17884,33.5721 -0.5,36.5C -0.5,24.1667 -0.5,11.8333 -0.5,-0.5 Z"/></g>
<g><path style="opacity:1" fill="#d3b3b4" d="M 52.5,0.5 C 52.5,0.166667 52.5,-0.166667 52.5,-0.5C 53.5,-0.5 54.5,-0.5 55.5,-0.5C 55.366,1.29152 55.6993,2.95819 56.5,4.5C 55.1667,3.16667 53.8333,1.83333 52.5,0.5 Z"/></g>
<g><path style="opacity:1" fill="#fefefe" d="M 55.5,-0.5 C 83.5,-0.5 111.5,-0.5 139.5,-0.5C 139.5,37.5 139.5,75.5 139.5,113.5C 136.061,113.747 132.728,113.414 129.5,112.5C 128.325,112.719 127.325,112.386 126.5,111.5C 123.551,107.214 120.218,103.214 116.5,99.5C 107.869,96.9738 101.202,91.9738 96.5,84.5C 96.7709,82.6203 96.1042,81.287 94.5,80.5C 93.3608,77.9963 92.6941,75.3297 92.5,72.5C 91.9035,69.0588 91.2368,65.7254 90.5,62.5C 90.5,59.8333 90.5,57.1667 90.5,54.5C 89.8413,51.5448 89.5079,48.5448 89.5,45.5C 87.0504,45.702 84.717,45.3686 82.5,44.5C 80.5833,43.5944 78.9166,42.2611 77.5,40.5C 76.8333,35.8333 76.1667,31.1667 75.5,26.5C 71.2355,23.6438 66.9022,20.9772 62.5,18.5C 62.7709,16.6203 62.1042,15.287 60.5,14.5C 60.7709,12.6203 60.1042,11.287 58.5,10.5C 58.2964,8.31455 57.6298,6.31455 56.5,4.5C 55.6993,2.95819 55.366,1.29152 55.5,-0.5 Z"/></g>
<g><path style="opacity:1" fill="#e55059" d="M 52.5,0.5 C 53.8333,1.83333 55.1667,3.16667 56.5,4.5C 57.6298,6.31455 58.2964,8.31455 58.5,10.5C 58.6596,12.153 59.3263,13.4863 60.5,14.5C 60.6596,16.153 61.3263,17.4863 62.5,18.5C 66.9022,20.9772 71.2355,23.6438 75.5,26.5C 76.1667,31.1667 76.8333,35.8333 77.5,40.5C 78.9166,42.2611 80.5833,43.5944 82.5,44.5C 83.9179,46.3079 85.9179,46.9746 88.5,46.5C 88.1107,49.5533 88.7773,52.22 90.5,54.5C 90.5,57.1667 90.5,59.8333 90.5,62.5C 89.931,66.3293 90.5977,69.6627 92.5,72.5C 92.6941,75.3297 93.3608,77.9963 94.5,80.5C 94.6596,82.153 95.3263,83.4863 96.5,84.5C 101.202,91.9738 107.869,96.9738 116.5,99.5C 120.218,103.214 123.551,107.214 126.5,111.5C 127.325,112.386 128.325,112.719 129.5,112.5C 131.988,114.388 134.988,115.055 138.5,114.5C 138.768,118.083 138.101,121.416 136.5,124.5C 135.594,126.417 134.261,128.083 132.5,129.5C 127.221,133.108 122.221,137.108 117.5,141.5C 116.691,143.071 116.357,144.738 116.5,146.5C 114.777,148.78 114.111,151.447 114.5,154.5C 113.167,154.5 111.833,154.5 110.5,154.5C 108.219,154.077 106.552,154.744 105.5,156.5C 101.124,156.637 96.7909,156.804 92.5,157C 89.9849,153.327 87.3182,149.827 84.5,146.5C 81.7995,142.134 78.1329,138.801 73.5,136.5C 70.2152,137.456 67.8819,139.456 66.5,142.5C 56.851,149.819 47.5177,157.486 38.5,165.5C 37.5,165.5 36.5,165.5 35.5,165.5C 27.0827,160.31 23.4161,152.643 24.5,142.5C 25.675,142.719 26.675,142.386 27.5,141.5C 28.1667,139.5 28.8333,137.5 29.5,135.5C 27.6713,129.986 25.338,124.653 22.5,119.5C 21.1073,113.239 20.4406,106.906 20.5,100.5C 22.2227,98.22 22.8893,95.5533 22.5,92.5C 21.9691,78.7232 24.6357,65.7232 30.5,53.5C 29.8178,51.1591 29.1511,48.8257 28.5,46.5C 27.5,46.5 26.5,46.5 25.5,46.5C 20.226,44.4987 14.5594,43.1653 8.5,42.5C 5.09879,41.964 2.09879,40.6307 -0.5,38.5C -0.5,37.8333 -0.5,37.1667 -0.5,36.5C 5.17884,33.5721 10.6788,30.2387 16,26.5C 24.0438,31.9505 31.8771,31.6172 39.5,25.5C 44.0916,22.4273 48.2583,18.7606 52,14.5C 52.6644,11.6474 52.1644,8.98073 50.5,6.5C 51.7545,4.66634 52.4211,2.66634 52.5,0.5 Z"/></g>
<g><path style="opacity:1" fill="#c7898d" d="M 58.5,10.5 C 60.1042,11.287 60.7709,12.6203 60.5,14.5C 59.3263,13.4863 58.6596,12.153 58.5,10.5 Z"/></g>
<g><path style="opacity:1" fill="#c78c8f" d="M 60.5,14.5 C 62.1042,15.287 62.7709,16.6203 62.5,18.5C 61.3263,17.4863 60.6596,16.153 60.5,14.5 Z"/></g>
<g><path style="opacity:1" fill="#fdfdfd" d="M -0.5,38.5 C 2.09879,40.6307 5.09879,41.964 8.5,42.5C 13.8935,44.6364 19.5601,45.9697 25.5,46.5C 26.5,46.5 27.5,46.5 28.5,46.5C 29.1511,48.8257 29.8178,51.1591 30.5,53.5C 24.6357,65.7232 21.9691,78.7232 22.5,92.5C 21.469,94.9608 20.8023,97.6275 20.5,100.5C 20.4406,106.906 21.1073,113.239 22.5,119.5C 25.338,124.653 27.6713,129.986 29.5,135.5C 28.8333,137.5 28.1667,139.5 27.5,141.5C 26.675,142.386 25.675,142.719 24.5,142.5C 23.4161,152.643 27.0827,160.31 35.5,165.5C 23.5,165.5 11.5,165.5 -0.5,165.5C -0.5,123.167 -0.5,80.8333 -0.5,38.5 Z"/></g>
<g><path style="opacity:1" fill="#d4b6b6" d="M 8.5,42.5 C 14.5594,43.1653 20.226,44.4987 25.5,46.5C 19.5601,45.9697 13.8935,44.6364 8.5,42.5 Z"/></g>
<g><path style="opacity:1" fill="#d3b2b3" d="M 82.5,44.5 C 84.717,45.3686 87.0504,45.702 89.5,45.5C 89.5079,48.5448 89.8413,51.5448 90.5,54.5C 88.7773,52.22 88.1107,49.5533 88.5,46.5C 85.9179,46.9746 83.9179,46.3079 82.5,44.5 Z"/></g>
<g><path style="opacity:1" fill="#c88387" d="M 90.5,62.5 C 91.2368,65.7254 91.9035,69.0588 92.5,72.5C 90.5977,69.6627 89.931,66.3293 90.5,62.5 Z"/></g>
<g><path style="opacity:1" fill="#c78a8d" d="M 94.5,80.5 C 96.1042,81.287 96.7709,82.6203 96.5,84.5C 95.3263,83.4863 94.6596,82.153 94.5,80.5 Z"/></g>
<g><path style="opacity:1" fill="#c77e80" d="M 22.5,92.5 C 22.8893,95.5533 22.2227,98.22 20.5,100.5C 20.8023,97.6275 21.469,94.9608 22.5,92.5 Z"/></g>
<g><path style="opacity:1" fill="#d0b4b5" d="M 129.5,112.5 C 132.728,113.414 136.061,113.747 139.5,113.5C 139.5,116.833 139.5,120.167 139.5,123.5C 138.391,123.557 137.391,123.89 136.5,124.5C 138.101,121.416 138.768,118.083 138.5,114.5C 134.988,115.055 131.988,114.388 129.5,112.5 Z"/></g>
<g><path style="opacity:1" fill="#fcfcfc" d="M 139.5,123.5 C 139.5,137.5 139.5,151.5 139.5,165.5C 105.833,165.5 72.1667,165.5 38.5,165.5C 47.5177,157.486 56.851,149.819 66.5,142.5C 68.8152,140.858 71.1485,139.192 73.5,137.5C 77.1858,140.523 80.8525,143.523 84.5,146.5C 87.3182,149.827 89.9849,153.327 92.5,157C 96.7909,156.804 101.124,156.637 105.5,156.5C 107.306,155.976 108.972,155.309 110.5,154.5C 111.833,154.5 113.167,154.5 114.5,154.5C 115.531,152.039 116.198,149.373 116.5,146.5C 116.357,144.738 116.691,143.071 117.5,141.5C 122.221,137.108 127.221,133.108 132.5,129.5C 134.261,128.083 135.594,126.417 136.5,124.5C 137.391,123.89 138.391,123.557 139.5,123.5 Z"/></g>
<g><path style="opacity:1" fill="#cdbbbc" d="M 84.5,146.5 C 80.8525,143.523 77.1858,140.523 73.5,137.5C 71.1485,139.192 68.8152,140.858 66.5,142.5C 67.8819,139.456 70.2152,137.456 73.5,136.5C 78.1329,138.801 81.7995,142.134 84.5,146.5 Z"/></g>
<g><path style="opacity:1" fill="#c77d82" d="M 116.5,146.5 C 116.198,149.373 115.531,152.039 114.5,154.5C 114.111,151.447 114.777,148.78 116.5,146.5 Z"/></g>
<g><path style="opacity:1" fill="#c7888b" d="M 110.5,154.5 C 108.972,155.309 107.306,155.976 105.5,156.5C 106.552,154.744 108.219,154.077 110.5,154.5 Z"/></g>
</svg>
