<?xml version="1.0" encoding="UTF-8"?>
<!DOCTYPE svg PUBLIC "-//W3C//DTD SVG 1.1//EN" "http://www.w3.org/Graphics/SVG/1.1/DTD/svg11.dtd">
<svg xmlns="http://www.w3.org/2000/svg" version="1.1" width="154px" height="166px" style="shape-rendering:geometricPrecision; text-rendering:geometricPrecision; image-rendering:optimizeQuality; fill-rule:evenodd; clip-rule:evenodd" xmlns:xlink="http://www.w3.org/1999/xlink">
<g><path style="opacity:1" fill="#fdfdfd" d="M -0.5,-0.5 C 50.8333,-0.5 102.167,-0.5 153.5,-0.5C 153.5,54.8333 153.5,110.167 153.5,165.5C 140.833,165.5 128.167,165.5 115.5,165.5C 117.912,162.759 119.912,159.759 121.5,156.5C 125.018,145.219 128.018,133.886 130.5,122.5C 132.539,121.089 133.539,119.089 133.5,116.5C 135.671,110.467 137.838,104.467 140,98.5C 144.417,92.0015 148.584,85.3348 152.5,78.5C 150.911,75.7472 148.578,73.9138 145.5,73C 140.5,72.6667 135.5,72.3333 130.5,72C 124.7,69.0242 119.033,65.8575 113.5,62.5C 113.167,59.5 111.5,57.8333 108.5,57.5C 106.122,55.2426 103.455,53.2426 100.5,51.5C 92.0481,47.0515 83.3814,43.0515 74.5,39.5C 73.0307,33.0651 71.3641,26.7318 69.5,20.5C 69.9819,17.1694 68.9819,14.5027 66.5,12.5C 59.5729,19.1222 51.5729,23.7889 42.5,26.5C 42.762,25.0222 42.4287,23.6888 41.5,22.5C 37.0038,16.8441 33.0038,10.8441 29.5,4.5C 28.1218,2.78663 26.4552,1.4533 24.5,0.5C 16.2214,5.01836 8.22145,10.0184 0.5,15.5C 1.61191,16.2652 2.27858,17.2652 2.5,18.5C 1.60895,17.8902 0.608953,17.5569 -0.5,17.5C -0.5,11.5 -0.5,5.5 -0.5,-0.5 Z"/></g>
<g><path style="opacity:1" fill="#aa4693" d="M 66.5,12.5 C 67.5122,15.2572 68.5122,17.9239 69.5,20.5C 71.3641,26.7318 73.0307,33.0651 74.5,39.5C 83.3814,43.0515 92.0481,47.0515 100.5,51.5C 103.455,53.2426 106.122,55.2426 108.5,57.5C 110.167,59.1667 111.833,60.8333 113.5,62.5C 119.033,65.8575 124.7,69.0242 130.5,72C 135.5,72.3333 140.5,72.6667 145.5,73C 148.578,73.9138 150.911,75.7472 152.5,78.5C 148.584,85.3348 144.417,92.0015 140,98.5C 137.838,104.467 135.671,110.467 133.5,116.5C 131.992,118.181 130.992,120.181 130.5,122.5C 128.018,133.886 125.018,145.219 121.5,156.5C 118.881,159.119 116.215,161.785 113.5,164.5C 110.785,161.785 108.119,159.119 105.5,156.5C 102.5,153.5 99.5,150.5 96.5,147.5C 94.2674,143.261 91.2674,139.595 87.5,136.5C 79.1667,126.833 70.8333,117.167 62.5,107.5C 60.9421,103.937 58.6088,100.937 55.5,98.5C 50.5367,91.6014 44.8701,85.2681 38.5,79.5C 36.2674,75.2614 33.2674,71.5947 29.5,68.5C 20.885,58.5449 12.2184,48.5449 3.5,38.5C 2.01183,34.7901 3.34516,32.6235 7.5,32C 8.08142,31.1074 8.41476,30.1074 8.5,29C 6.60882,25.3778 4.60882,21.8778 2.5,18.5C 2.27858,17.2652 1.61191,16.2652 0.5,15.5C 8.22145,10.0184 16.2214,5.01836 24.5,0.5C 26.4552,1.4533 28.1218,2.78663 29.5,4.5C 33.0038,10.8441 37.0038,16.8441 41.5,22.5C 42.4287,23.6888 42.762,25.0222 42.5,26.5C 51.5729,23.7889 59.5729,19.1222 66.5,12.5 Z"/></g>
<g><path style="opacity:1" fill="#a6789b" d="M 66.5,12.5 C 68.9819,14.5027 69.9819,17.1694 69.5,20.5C 68.5122,17.9239 67.5122,15.2572 66.5,12.5 Z"/></g>
<g><path style="opacity:1" fill="#fefefe" d="M -0.5,17.5 C 0.608953,17.5569 1.60895,17.8902 2.5,18.5C 4.60882,21.8778 6.60882,25.3778 8.5,29C 8.41476,30.1074 8.08142,31.1074 7.5,32C 3.34516,32.6235 2.01183,34.7901 3.5,38.5C 12.2184,48.5449 20.885,58.5449 29.5,68.5C 31.7326,72.7386 34.7326,76.4053 38.5,79.5C 44.8701,85.2681 50.5367,91.6014 55.5,98.5C 57.0579,102.063 59.3912,105.063 62.5,107.5C 70.8333,117.167 79.1667,126.833 87.5,136.5C 89.7326,140.739 92.7326,144.405 96.5,147.5C 99.5,150.5 102.5,153.5 105.5,156.5C 107.088,159.759 109.088,162.759 111.5,165.5C 74.1667,165.5 36.8333,165.5 -0.5,165.5C -0.5,116.167 -0.5,66.8333 -0.5,17.5 Z"/></g>
<g><path style="opacity:1" fill="#c1b2be" d="M 108.5,57.5 C 111.5,57.8333 113.167,59.5 113.5,62.5C 111.833,60.8333 110.167,59.1667 108.5,57.5 Z"/></g>
<g><path style="opacity:1" fill="#c6b8c3" d="M 29.5,68.5 C 33.2674,71.5947 36.2674,75.2614 38.5,79.5C 34.7326,76.4053 31.7326,72.7386 29.5,68.5 Z"/></g>
<g><path style="opacity:1" fill="#cbbfc8" d="M 55.5,98.5 C 58.6088,100.937 60.9421,103.937 62.5,107.5C 59.3912,105.063 57.0579,102.063 55.5,98.5 Z"/></g>
<g><path style="opacity:1" fill="#a87d9e" d="M 133.5,116.5 C 133.539,119.089 132.539,121.089 130.5,122.5C 130.992,120.181 131.992,118.181 133.5,116.5 Z"/></g>
<g><path style="opacity:1" fill="#c6b8c2" d="M 87.5,136.5 C 91.2674,139.595 94.2674,143.261 96.5,147.5C 92.7326,144.405 89.7326,140.739 87.5,136.5 Z"/></g>
<g><path style="opacity:1" fill="#c9bcc6" d="M 105.5,156.5 C 108.119,159.119 110.785,161.785 113.5,164.5C 116.215,161.785 118.881,159.119 121.5,156.5C 119.912,159.759 117.912,162.759 115.5,165.5C 114.167,165.5 112.833,165.5 111.5,165.5C 109.088,162.759 107.088,159.759 105.5,156.5 Z"/></g>
</svg>
