<?xml version="1.0" encoding="UTF-8"?>
<!DOCTYPE svg PUBLIC "-//W3C//DTD SVG 1.1//EN" "http://www.w3.org/Graphics/SVG/1.1/DTD/svg11.dtd">
<svg xmlns="http://www.w3.org/2000/svg" version="1.1" width="119px" height="94px" style="shape-rendering:geometricPrecision; text-rendering:geometricPrecision; image-rendering:optimizeQuality; fill-rule:evenodd; clip-rule:evenodd" xmlns:xlink="http://www.w3.org/1999/xlink">
<g><path style="opacity:1" fill="#fefefe" d="M -0.5,-0.5 C 17.8333,-0.5 36.1667,-0.5 54.5,-0.5C 49.2258,1.13675 43.5592,2.13675 37.5,2.5C 35.8352,7.25166 32.8352,10.585 28.5,12.5C 27.791,13.404 26.791,13.7373 25.5,13.5C 24.5,13.5 23.5,13.5 22.5,13.5C 20.7781,18.6107 18.7781,23.6107 16.5,28.5C 14.8958,29.287 14.2291,30.6203 14.5,32.5C 11.6004,34.3989 9.93369,37.0656 9.5,40.5C 5.84252,43.1584 2.50918,46.1584 -0.5,49.5C -0.5,32.8333 -0.5,16.1667 -0.5,-0.5 Z"/></g>
<g><path style="opacity:1" fill="#f1f1f1" d="M 58.5,-0.5 C 66.1667,-0.5 73.8333,-0.5 81.5,-0.5C 81.5,-0.166667 81.5,0.166667 81.5,0.5C 78.2319,1.82218 74.5652,2.48885 70.5,2.5C 66.8333,2.33333 63.1667,2.16667 59.5,2C 58.944,1.61742 58.6107,1.11742 58.5,0.5C 58.5,0.166667 58.5,-0.166667 58.5,-0.5 Z"/></g>
<g><path style="opacity:1" fill="#fdfdfd" d="M 92.5,-0.5 C 101.167,-0.5 109.833,-0.5 118.5,-0.5C 118.5,2.16667 118.5,4.83333 118.5,7.5C 117.391,7.44312 116.391,7.10978 115.5,6.5C 114.833,6.5 114.167,6.5 113.5,6.5C 109.167,5.83333 104.833,5.16667 100.5,4.5C 97.685,2.92234 95.0183,1.25567 92.5,-0.5 Z"/></g>
<g><path style="opacity:1" fill="#628e3f" d="M 58.5,0.5 C 58.6107,1.11742 58.944,1.61742 59.5,2C 63.1667,2.16667 66.8333,2.33333 70.5,2.5C 74.5652,2.48885 78.2319,1.82218 81.5,0.5C 87.8764,0.307831 93.8764,1.64116 99.5,4.5C 103.715,6.43644 108.381,7.1031 113.5,6.5C 114.167,6.5 114.833,6.5 115.5,6.5C 116.108,7.79974 116.775,9.13307 117.5,10.5C 116.533,12.7617 115.866,15.095 115.5,17.5C 110.729,16.5769 106.062,15.2435 101.5,13.5C 95.456,13.7873 89.7893,14.7873 84.5,16.5C 79.0564,16.7161 74.0564,18.3827 69.5,21.5C 60.5612,26.1145 53.2279,32.4479 47.5,40.5C 45.507,43.1613 43.507,45.828 41.5,48.5C 34.1771,55.8045 31.5104,64.4712 33.5,74.5C 33.5789,76.6663 34.2455,78.6663 35.5,80.5C 35.2528,81.7133 34.5862,82.38 33.5,82.5C 29.5344,85.7921 25.5344,89.1255 21.5,92.5C 20.1331,91.7745 18.7997,91.1079 17.5,90.5C 17.5,90.1667 17.5,89.8333 17.5,89.5C 17.416,86.3183 16.0827,83.985 13.5,82.5C 13.5,82.1667 13.5,81.8333 13.5,81.5C 12.3045,76.1191 10.3045,71.1191 7.5,66.5C 6.41613,63.9959 5.0828,61.6626 3.5,59.5C 3.07608,56.646 2.07608,53.9793 0.5,51.5C 3.54656,47.7951 6.54656,44.1284 9.5,40.5C 9.93369,37.0656 11.6004,34.3989 14.5,32.5C 15.6737,31.4863 16.3404,30.153 16.5,28.5C 19.7516,23.6657 22.7516,18.6657 25.5,13.5C 26.791,13.7373 27.791,13.404 28.5,12.5C 30.288,12.7852 31.9547,12.4519 33.5,11.5C 35.1667,8.83333 36.8333,6.16667 38.5,3.5C 45.2922,2.91859 51.9589,1.91859 58.5,0.5 Z"/></g>
<g><path style="opacity:1" fill="#bec0bc" d="M 54.5,-0.5 C 55.8333,-0.5 57.1667,-0.5 58.5,-0.5C 58.5,-0.166667 58.5,0.166667 58.5,0.5C 51.9589,1.91859 45.2922,2.91859 38.5,3.5C 36.8333,6.16667 35.1667,8.83333 33.5,11.5C 31.9547,12.4519 30.288,12.7852 28.5,12.5C 32.8352,10.585 35.8352,7.25166 37.5,2.5C 43.5592,2.13675 49.2258,1.13675 54.5,-0.5 Z"/></g>
<g><path style="opacity:1" fill="#bec1bc" d="M 81.5,0.5 C 81.5,0.166667 81.5,-0.166667 81.5,-0.5C 85.1667,-0.5 88.8333,-0.5 92.5,-0.5C 95.0183,1.25567 97.685,2.92234 100.5,4.5C 100.167,4.5 99.8333,4.5 99.5,4.5C 93.8764,1.64116 87.8764,0.307831 81.5,0.5 Z"/></g>
<g><path style="opacity:1" fill="#7c906b" d="M 99.5,4.5 C 99.8333,4.5 100.167,4.5 100.5,4.5C 104.833,5.16667 109.167,5.83333 113.5,6.5C 108.381,7.1031 103.715,6.43644 99.5,4.5 Z"/></g>
<g><path style="opacity:1" fill="#bbbfb9" d="M 115.5,6.5 C 116.391,7.10978 117.391,7.44312 118.5,7.5C 118.5,9.5 118.5,11.5 118.5,13.5C 117.5,14.8333 116.5,16.1667 115.5,17.5C 115.866,15.095 116.533,12.7617 117.5,10.5C 116.775,9.13307 116.108,7.79974 115.5,6.5 Z"/></g>
<g><path style="opacity:1" fill="#fefefe" d="M 115.5,17.5 C 116.5,16.1667 117.5,14.8333 118.5,13.5C 118.5,40.1667 118.5,66.8333 118.5,93.5C 87.1667,93.5 55.8333,93.5 24.5,93.5C 26.5719,89.7599 29.5719,87.0933 33.5,85.5C 33.5,84.5 33.5,83.5 33.5,82.5C 34.5862,82.38 35.2528,81.7133 35.5,80.5C 34.2455,78.6663 33.5789,76.6663 33.5,74.5C 33.3054,70.0848 33.8054,65.7514 35,61.5C 37.0297,57.0068 39.1963,52.6735 41.5,48.5C 45.0399,46.9635 47.0399,44.2968 47.5,40.5C 58.093,29.6589 70.4263,21.6589 84.5,16.5C 89.7893,14.7873 95.456,13.7873 101.5,13.5C 106.062,15.2435 110.729,16.5769 115.5,17.5 Z"/></g>
<g><path style="opacity:1" fill="#b2b7ae" d="M 84.5,16.5 C 70.4263,21.6589 58.093,29.6589 47.5,40.5C 53.2279,32.4479 60.5612,26.1145 69.5,21.5C 74.0564,18.3827 79.0564,16.7161 84.5,16.5 Z"/></g>
<g><path style="opacity:1" fill="#a5ada1" d="M 25.5,13.5 C 22.7516,18.6657 19.7516,23.6657 16.5,28.5C 18.7781,23.6107 20.7781,18.6107 22.5,13.5C 23.5,13.5 24.5,13.5 25.5,13.5 Z"/></g>
<g><path style="opacity:1" fill="#a2aa9e" d="M 16.5,28.5 C 16.3404,30.153 15.6737,31.4863 14.5,32.5C 14.2291,30.6203 14.8958,29.287 16.5,28.5 Z"/></g>
<g><path style="opacity:1" fill="#a3ab9c" d="M 9.5,40.5 C 6.54656,44.1284 3.54656,47.7951 0.5,51.5C 2.07608,53.9793 3.07608,56.646 3.5,59.5C 2.16667,57.5 0.833333,55.5 -0.5,53.5C -0.5,52.1667 -0.5,50.8333 -0.5,49.5C 2.50918,46.1584 5.84252,43.1584 9.5,40.5 Z"/></g>
<g><path style="opacity:1" fill="#bbbfb9" d="M 47.5,40.5 C 47.0399,44.2968 45.0399,46.9635 41.5,48.5C 43.507,45.828 45.507,43.1613 47.5,40.5 Z"/></g>
<g><path style="opacity:1" fill="#acb2a7" d="M 41.5,48.5 C 39.1963,52.6735 37.0297,57.0068 35,61.5C 33.8054,65.7514 33.3054,70.0848 33.5,74.5C 31.5104,64.4712 34.1771,55.8045 41.5,48.5 Z"/></g>
<g><path style="opacity:1" fill="#fdfdfd" d="M -0.5,53.5 C 0.833333,55.5 2.16667,57.5 3.5,59.5C 5.0828,61.6626 6.41613,63.9959 7.5,66.5C 8.7042,71.8954 10.7042,76.8954 13.5,81.5C 13.5,81.8333 13.5,82.1667 13.5,82.5C 14.5957,85.0316 15.9291,87.3649 17.5,89.5C 17.5,89.8333 17.5,90.1667 17.5,90.5C 18.1098,91.391 18.4431,92.391 18.5,93.5C 12.1667,93.5 5.83333,93.5 -0.5,93.5C -0.5,80.1667 -0.5,66.8333 -0.5,53.5 Z"/></g>
<g><path style="opacity:1" fill="#b5bab3" d="M 7.5,66.5 C 10.3045,71.1191 12.3045,76.1191 13.5,81.5C 10.7042,76.8954 8.7042,71.8954 7.5,66.5 Z"/></g>
<g><path style="opacity:1" fill="#bec2bd" d="M 13.5,82.5 C 16.0827,83.985 17.416,86.3183 17.5,89.5C 15.9291,87.3649 14.5957,85.0316 13.5,82.5 Z"/></g>
<g><path style="opacity:1" fill="#c4c6c3" d="M 33.5,82.5 C 33.5,83.5 33.5,84.5 33.5,85.5C 29.5719,87.0933 26.5719,89.7599 24.5,93.5C 22.5,93.5 20.5,93.5 18.5,93.5C 18.4431,92.391 18.1098,91.391 17.5,90.5C 18.7997,91.1079 20.1331,91.7745 21.5,92.5C 25.5344,89.1255 29.5344,85.7921 33.5,82.5 Z"/></g>
</svg>
