<?xml version="1.0" encoding="UTF-8"?>
<!DOCTYPE svg PUBLIC "-//W3C//DTD SVG 1.1//EN" "http://www.w3.org/Graphics/SVG/1.1/DTD/svg11.dtd">
<svg xmlns="http://www.w3.org/2000/svg" version="1.1" width="80px" height="60px" style="shape-rendering:geometricPrecision; text-rendering:geometricPrecision; image-rendering:optimizeQuality; fill-rule:evenodd; clip-rule:evenodd" xmlns:xlink="http://www.w3.org/1999/xlink">
<g><path style="opacity:1" fill="#faf9f9" d="M 18.5,0.5 C 18.5,0.166667 18.5,-0.166667 18.5,-0.5C 38.8333,-0.5 59.1667,-0.5 79.5,-0.5C 79.5,7.16667 79.5,14.8333 79.5,22.5C 76.7151,20.199 73.7151,18.199 70.5,16.5C 67.0283,14.2619 63.3617,12.2619 59.5,10.5C 59.1667,10.5 58.8333,10.5 58.5,10.5C 58.7709,8.6203 58.1042,7.28696 56.5,6.5C 56.7709,4.6203 56.1042,3.28696 54.5,2.5C 42.8799,0.520893 30.8799,-0.145774 18.5,0.5 Z"/></g>
<g><path style="opacity:1" fill="#ec8b64" d="M 18.5,0.5 C 30.8799,-0.145774 42.8799,0.520893 54.5,2.5C 54.6596,4.15298 55.3263,5.48631 56.5,6.5C 56.6596,8.15298 57.3263,9.48631 58.5,10.5C 58.8333,10.5 59.1667,10.5 59.5,10.5C 62.3616,13.7681 66.0283,15.7681 70.5,16.5C 73.7151,18.199 76.7151,20.199 79.5,22.5C 79.5,23.1667 79.5,23.8333 79.5,24.5C 77.5654,25.81 75.5654,27.1433 73.5,28.5C 73.1667,29.1667 72.8333,29.8333 72.5,30.5C 72.7472,31.7133 73.4138,32.38 74.5,32.5C 71.8564,34.4325 70.1897,37.0992 69.5,40.5C 69.1667,40.5 68.8333,40.5 68.5,40.5C 65.9179,40.0254 63.9179,40.6921 62.5,42.5C 61.3263,43.5137 60.6596,44.847 60.5,46.5C 60.8333,49.1667 61.1667,51.8333 61.5,54.5C 44.9694,55.5972 28.6361,57.2639 12.5,59.5C 11.1667,59.5 9.83333,59.5 8.5,59.5C 7.29585,50.4796 5.96252,41.4796 4.5,32.5C 4.66409,29.8127 4.49742,27.146 4,24.5C 3.72158,23.5842 3.22158,22.9175 2.5,22.5C 1.27149,15.2295 0.604826,7.89621 0.5,0.5C 6.5,0.5 12.5,0.5 18.5,0.5 Z"/></g>
<g><path style="opacity:1" fill="#cfa998" d="M 54.5,2.5 C 56.1042,3.28696 56.7709,4.6203 56.5,6.5C 55.3263,5.48631 54.6596,4.15298 54.5,2.5 Z"/></g>
<g><path style="opacity:1" fill="#cfaa9c" d="M 56.5,6.5 C 58.1042,7.28696 58.7709,8.6203 58.5,10.5C 57.3263,9.48631 56.6596,8.15298 56.5,6.5 Z"/></g>
<g><path style="opacity:1" fill="#d6c5bf" d="M 59.5,10.5 C 63.3617,12.2619 67.0283,14.2619 70.5,16.5C 66.0283,15.7681 62.3616,13.7681 59.5,10.5 Z"/></g>
<g><path style="opacity:1" fill="#fefffe" d="M -0.5,15.5 C 1.09843,17.8567 2.09843,20.5234 2.5,23.5C 3.29895,26.4299 3.63228,29.4299 3.5,32.5C 4.70415,41.5204 6.03748,50.5204 7.5,59.5C 4.83333,59.5 2.16667,59.5 -0.5,59.5C -0.5,44.8333 -0.5,30.1667 -0.5,15.5 Z"/></g>
<g><path style="opacity:1" fill="#d3beb4" d="M -0.5,-0.5 C 5.83333,-0.5 12.1667,-0.5 18.5,-0.5C 18.5,-0.166667 18.5,0.166667 18.5,0.5C 12.5,0.5 6.5,0.5 0.5,0.5C 0.604826,7.89621 1.27149,15.2295 2.5,22.5C 2.5,22.8333 2.5,23.1667 2.5,23.5C 2.09843,20.5234 1.09843,17.8567 -0.5,15.5C -0.5,10.1667 -0.5,4.83333 -0.5,-0.5 Z"/></g>
<g><path style="opacity:1" fill="#d7c9c3" d="M 79.5,24.5 C 79.5,25.5 79.5,26.5 79.5,27.5C 75.5545,27.4364 73.8878,29.1031 74.5,32.5C 73.4138,32.38 72.7472,31.7133 72.5,30.5C 72.8333,29.8333 73.1667,29.1667 73.5,28.5C 75.5654,27.1433 77.5654,25.81 79.5,24.5 Z"/></g>
<g><path style="opacity:1" fill="#d5a28f" d="M 2.5,22.5 C 3.22158,22.9175 3.72158,23.5842 4,24.5C 4.49742,27.146 4.66409,29.8127 4.5,32.5C 4.16667,32.5 3.83333,32.5 3.5,32.5C 3.63228,29.4299 3.29895,26.4299 2.5,23.5C 2.5,23.1667 2.5,22.8333 2.5,22.5 Z"/></g>
<g><path style="opacity:1" fill="#fefefe" d="M 79.5,27.5 C 79.5,38.1667 79.5,48.8333 79.5,59.5C 62.8333,59.5 46.1667,59.5 29.5,59.5C 39.9725,57.4784 50.6392,55.8117 61.5,54.5C 61.1667,51.8333 60.8333,49.1667 60.5,46.5C 62.1042,45.713 62.7709,44.3797 62.5,42.5C 64.6264,41.9518 66.6264,41.2852 68.5,40.5C 68.8333,40.5 69.1667,40.5 69.5,40.5C 70.9649,39.5943 71.9649,38.261 72.5,36.5C 73.325,35.6143 74.325,35.281 75.5,35.5C 75.7373,34.209 75.404,33.209 74.5,32.5C 73.8878,29.1031 75.5545,27.4364 79.5,27.5 Z"/></g>
<g><path style="opacity:1" fill="#cdb6ad" d="M 74.5,32.5 C 75.404,33.209 75.7373,34.209 75.5,35.5C 74.325,35.281 73.325,35.6143 72.5,36.5C 71.9649,38.261 70.9649,39.5943 69.5,40.5C 70.1897,37.0992 71.8564,34.4325 74.5,32.5 Z"/></g>
<g><path style="opacity:1" fill="#d4b1a3" d="M 68.5,40.5 C 66.6264,41.2852 64.6264,41.9518 62.5,42.5C 63.9179,40.6921 65.9179,40.0254 68.5,40.5 Z"/></g>
<g><path style="opacity:1" fill="#d0a28f" d="M 62.5,42.5 C 62.7709,44.3797 62.1042,45.713 60.5,46.5C 60.6596,44.847 61.3263,43.5137 62.5,42.5 Z"/></g>
<g><path style="opacity:1" fill="#d0beb4" d="M 3.5,32.5 C 3.83333,32.5 4.16667,32.5 4.5,32.5C 5.96252,41.4796 7.29585,50.4796 8.5,59.5C 8.16667,59.5 7.83333,59.5 7.5,59.5C 6.03748,50.5204 4.70415,41.5204 3.5,32.5 Z"/></g>
<g><path style="opacity:1" fill="#d7c8c2" d="M 61.5,54.5 C 50.6392,55.8117 39.9725,57.4784 29.5,59.5C 23.8333,59.5 18.1667,59.5 12.5,59.5C 28.6361,57.2639 44.9694,55.5972 61.5,54.5 Z"/></g>
</svg>
