<?xml version="1.0" standalone="no"?>
<!DOCTYPE svg PUBLIC "-//W3C//DTD SVG 20010904//EN"
 "http://www.w3.org/TR/2001/REC-SVG-20010904/DTD/svg10.dtd">
<svg version="1.0" xmlns="http://www.w3.org/2000/svg"
 width="115.000000pt" height="116.000000pt" viewBox="0 0 115.000000 116.000000"
 preserveAspectRatio="xMidYMid meet">

<g transform="translate(0.000000,116.000000) scale(0.100000,-0.100000)"
fill="#000000" stroke="none">
<path d="M970 1140 c0 -5 -13 -10 -30 -10 -16 0 -30 -4 -30 -10 0 -5 -11 -10
-25 -10 -14 0 -25 -4 -25 -10 0 -5 -9 -10 -20 -10 -11 0 -20 -4 -20 -10 0 -5
-9 -10 -20 -10 -11 0 -20 -4 -20 -10 0 -5 -7 -10 -15 -10 -8 0 -15 -4 -15 -10
0 -5 -7 -10 -15 -10 -8 0 -15 -4 -15 -10 0 -5 -9 -10 -20 -10 -11 0 -20 -4
-20 -10 0 -5 -9 -10 -20 -10 -11 0 -20 -4 -20 -10 0 -5 -11 -10 -25 -10 -14 0
-25 -4 -25 -10 0 -5 -11 -10 -25 -10 -14 0 -25 -4 -25 -10 0 -5 -11 -10 -25
-10 -14 0 -25 -4 -25 -10 0 -5 -11 -10 -25 -10 -14 0 -25 -4 -25 -10 0 -5 -9
-10 -20 -10 -11 0 -20 -4 -20 -10 0 -5 -9 -10 -20 -10 -11 0 -20 -4 -20 -10 0
-5 -9 -10 -20 -10 -11 0 -20 -4 -20 -10 0 -5 -9 -10 -20 -10 -11 0 -20 -4 -20
-10 0 -5 -11 -10 -25 -10 -14 0 -25 -4 -25 -10 0 -5 -7 -10 -15 -10 -8 0 -15
-4 -15 -10 0 -5 5 -10 11 -10 16 0 5 -127 -16 -200 -9 -30 -22 -73 -28 -95 -6
-22 -17 -46 -23 -52 -7 -7 -14 -17 -16 -23 -1 -5 -27 -13 -57 -17 -58 -9 -71
-21 -46 -46 8 -9 15 -21 15 -27 0 -14 25 -40 39 -40 6 0 11 -4 11 -10 0 -6 35
-10 85 -10 50 0 85 -4 85 -10 0 -5 8 -10 18 -10 10 0 24 -9 32 -20 8 -11 20
-20 28 -20 37 0 58 -67 39 -132 -10 -37 14 -59 56 -51 18 3 34 10 35 15 2 4
17 8 33 8 16 0 29 5 29 10 0 6 14 10 30 10 17 0 30 5 30 10 0 6 14 10 30 10
17 0 30 5 30 10 0 6 7 10 16 10 11 0 14 5 9 18 -4 9 -9 24 -12 34 -3 9 -15 19
-28 22 -49 12 -98 254 -64 318 15 27 116 128 129 128 5 0 10 5 10 10 0 6 9 10
20 10 11 0 20 5 20 10 0 6 14 10 30 10 17 0 30 5 30 10 0 6 11 10 25 10 14 0
25 5 25 10 0 6 11 10 25 10 14 0 25 5 25 10 0 6 9 10 20 10 11 0 20 5 20 10 0
6 11 10 25 10 14 0 25 5 25 10 0 6 11 10 25 10 14 0 25 5 25 10 0 6 11 10 25
10 14 0 25 5 25 10 0 6 9 10 20 10 16 0 20 7 20 30 0 17 -4 30 -8 30 -4 0 -14
21 -21 48 -8 26 -17 49 -20 52 -3 3 -12 20 -18 38 -7 17 -19 47 -25 65 -7 17
-16 34 -19 37 -3 3 -9 17 -13 33 -4 18 -13 27 -26 27 -11 0 -20 -4 -20 -10z"/>
</g>
</svg>
