<?xml version="1.0" standalone="no"?>
<!DOCTYPE svg PUBLIC "-//W3C//DTD SVG 20010904//EN"
 "http://www.w3.org/TR/2001/REC-SVG-20010904/DTD/svg10.dtd">
<svg version="1.0" xmlns="http://www.w3.org/2000/svg"
 width="93.000000pt" height="66.000000pt" viewBox="0 0 93.000000 66.000000"
 preserveAspectRatio="xMidYMid meet">

<g transform="translate(0.000000,66.000000) scale(0.100000,-0.100000)"
fill="#000000" stroke="none">
<path d="M527 653 c-15 -2 -25 -9 -22 -14 4 -5 -8 -9 -25 -9 -18 0 -29 -4 -25
-10 4 -6 -7 -10 -25 -10 -18 0 -29 -4 -25 -10 4 -6 -7 -10 -25 -10 -18 0 -29
-4 -25 -10 4 -6 -7 -10 -25 -10 -18 0 -29 -4 -25 -10 4 -6 -5 -10 -20 -10 -15
0 -24 -4 -20 -10 4 -6 -8 -10 -30 -10 -22 0 -34 -4 -30 -10 4 -6 -7 -10 -24
-10 -17 0 -31 -4 -31 -10 0 -5 -9 -10 -21 -10 -11 0 -17 -4 -14 -10 3 -5 1
-10 -5 -10 -6 0 -31 -20 -56 -45 l-45 -45 2 -95 c1 -52 5 -95 10 -95 5 0 9
-13 9 -30 0 -16 5 -30 10 -30 6 0 10 -7 10 -15 0 -8 6 -15 13 -15 19 0 47 -37
49 -65 2 -20 8 -25 31 -25 16 0 26 4 22 10 -4 6 7 10 25 10 18 0 29 4 25 10
-4 6 8 10 30 10 22 0 34 4 30 10 -4 6 8 10 30 10 22 0 34 4 30 10 -4 6 8 10
30 10 22 0 34 4 30 10 -4 6 7 10 25 10 18 0 29 4 25 10 -4 6 7 10 25 10 18 0
29 4 25 10 -4 6 8 10 30 10 22 0 34 4 30 10 -4 6 7 10 24 10 17 0 31 5 31 10
0 6 18 10 41 10 24 0 38 4 34 10 -4 6 18 10 60 10 42 0 64 4 60 10 -4 6 16 10
53 10 66 0 78 6 56 27 -8 8 -12 19 -9 24 4 5 -1 9 -10 9 -9 0 -13 5 -10 10 3
6 -2 10 -11 10 -10 0 -15 3 -11 6 3 3 -28 39 -69 80 -41 41 -72 79 -69 84 4 6
-1 10 -10 10 -9 0 -13 5 -10 10 3 6 -1 10 -10 10 -9 0 -13 5 -10 10 3 6 -2 10
-11 10 -10 0 -14 3 -11 6 3 4 -7 19 -23 34 -16 15 -30 33 -32 41 -3 15 -38 50
-47 48 -3 -1 -18 -4 -34 -6z"/>
</g>
</svg>
