<?xml version="1.0" standalone="no"?>
<!DOCTYPE svg PUBLIC "-//W3C//DTD SVG 20010904//EN"
 "http://www.w3.org/TR/2001/REC-SVG-20010904/DTD/svg10.dtd">
<svg version="1.0" xmlns="http://www.w3.org/2000/svg"
 width="148.000000pt" height="180.000000pt" viewBox="0 0 148.000000 180.000000"
 preserveAspectRatio="xMidYMid meet">

<g transform="translate(0.000000,180.000000) scale(0.100000,-0.100000)"
fill="#000000" stroke="none">
<path d="M1005 1780 c-3 -5 -17 -10 -31 -10 -13 0 -24 -4 -24 -8 0 -4 -26 -9
-57 -10 -31 -1 -60 -6 -63 -10 -3 -5 -48 -10 -100 -11 -52 -1 -97 -6 -100 -10
-8 -11 -94 -8 -102 3 -5 7 -16 8 -35 0 -15 -5 -62 -11 -103 -13 -41 -1 -77 -6
-80 -9 -3 -4 -43 -9 -90 -10 -46 -2 -92 -8 -102 -13 -9 -5 -38 -9 -64 -9 l-47
0 7 -82 c4 -46 12 -137 16 -203 8 -105 23 -262 59 -630 29 -291 43 -407 56
-470 7 -38 16 -89 20 -112 5 -33 11 -43 25 -43 10 0 20 5 22 11 3 9 9 9 24 1
10 -5 51 -13 89 -16 39 -3 98 -10 133 -16 111 -18 186 -26 217 -25 17 1 32 -1
35 -6 3 -4 32 -10 65 -13 92 -9 139 -17 151 -27 6 -5 32 -10 58 -11 25 -1 46
-6 46 -10 0 -4 7 -8 16 -8 22 0 53 37 60 69 3 14 9 45 15 68 5 23 9 112 9 198
0 96 4 164 11 177 17 32 77 88 94 88 8 0 15 5 15 10 0 6 7 10 15 10 8 0 15 5
15 10 0 6 7 10 15 10 8 0 15 5 15 10 0 6 7 10 15 10 22 0 58 39 74 80 63 165
83 240 63 240 -4 0 -14 21 -22 47 -15 54 -49 93 -80 93 -11 0 -20 5 -20 10 0
6 -9 10 -19 10 -11 0 -23 5 -26 10 -3 6 -17 10 -31 10 -13 0 -24 5 -24 10 0 6
-5 10 -11 10 -6 0 -29 19 -51 42 -39 41 -40 44 -35 94 6 60 38 124 63 124 13
0 44 43 44 61 0 9 5 19 12 21 8 3 3 14 -14 31 -19 19 -37 27 -62 27 -25 0 -36
5 -41 19 -9 30 5 72 38 105 l29 31 -38 3 c-21 2 -40 -1 -42 -7 -5 -16 -51 -13
-68 3 -8 8 -14 22 -14 30 0 18 -35 22 -45 6z"/>
</g>
</svg>
