<?xml version="1.0" encoding="UTF-8"?>
<!DOCTYPE svg PUBLIC "-//W3C//DTD SVG 1.1//EN" "http://www.w3.org/Graphics/SVG/1.1/DTD/svg11.dtd">
<svg xmlns="http://www.w3.org/2000/svg" version="1.1" width="212px" height="168px" style="shape-rendering:geometricPrecision; text-rendering:geometricPrecision; image-rendering:optimizeQuality; fill-rule:evenodd; clip-rule:evenodd" xmlns:xlink="http://www.w3.org/1999/xlink">
<g><path style="opacity:1" fill="#fefefe" d="M -0.5,-0.5 C 46.5,-0.5 93.5,-0.5 140.5,-0.5C 139.26,0.972969 138.26,2.63964 137.5,4.5C 131.459,5.11015 125.792,6.44349 120.5,8.5C 120.167,8.5 119.833,8.5 119.5,8.5C 117.956,8.70311 116.622,9.36977 115.5,10.5C 111.516,9.23007 107.516,9.23007 103.5,10.5C 97.9101,28.8002 92.5768,47.1335 87.5,65.5C 82.0248,64.797 76.5248,64.1303 71,63.5C 67.9792,63.5022 65.1459,63.8356 62.5,64.5C 59.9455,65.388 57.2788,65.7214 54.5,65.5C 44.3259,66.846 33.9926,67.6793 23.5,68C 15.6965,71.688 8.02978,75.5214 0.5,79.5C 0.166667,79.5 -0.166667,79.5 -0.5,79.5C -0.5,52.8333 -0.5,26.1667 -0.5,-0.5 Z"/></g>
<g><path style="opacity:1" fill="#fefefe" d="M 150.5,-0.5 C 170.833,-0.5 191.167,-0.5 211.5,-0.5C 211.5,31.1667 211.5,62.8333 211.5,94.5C 204.869,70.3159 198.369,45.9825 192,21.5C 190.847,19.503 189.347,19.1696 187.5,20.5C 184.945,22.6989 183.279,25.3656 182.5,28.5C 181.167,29.1667 179.833,29.8333 178.5,30.5C 177.21,31.0577 176.377,32.0577 176,33.5C 174.701,30.853 173.368,28.1863 172,25.5C 169.356,23.69 166.856,21.69 164.5,19.5C 161.315,14.614 158.982,9.28062 157.5,3.5C 155.096,2.15675 152.762,0.82342 150.5,-0.5 Z"/></g>
<g><path style="opacity:1" fill="#8edda1" d="M 178.5,30.5 C 179.833,29.8333 181.167,29.1667 182.5,28.5C 184.782,25.8784 187.115,23.2117 189.5,20.5C 197.737,46.7776 204.737,73.4443 210.5,100.5C 193.374,105.734 176.708,112.067 160.5,119.5C 152.709,125.139 144.542,130.139 136,134.5C 133.801,135.835 131.968,137.502 130.5,139.5C 117.783,148.7 104.783,157.534 91.5,166C 87.4117,166.604 84.9117,164.77 84,160.5C 80.9845,157.317 77.8178,154.317 74.5,151.5C 58.5626,140.898 42.8959,129.898 27.5,118.5C 17.268,106.619 8.26799,93.9519 0.5,80.5C 8.28299,76.5878 16.283,72.9211 24.5,69.5C 34.637,68.7197 44.637,67.7197 54.5,66.5C 57.1873,66.6641 59.854,66.4974 62.5,66C 63.056,65.6174 63.3893,65.1174 63.5,64.5C 71.8763,64.7284 80.2096,65.395 88.5,66.5C 93.5768,48.1335 98.9101,29.8002 104.5,11.5C 108.399,10.0083 112.065,10.3416 115.5,12.5C 117.375,11.5905 118.708,10.2572 119.5,8.5C 119.833,8.5 120.167,8.5 120.5,8.5C 126.437,7.63141 132.437,6.63141 138.5,5.5C 139.885,4.44946 140.885,3.11613 141.5,1.5C 142.833,1.16667 144.167,0.833333 145.5,0.5C 149.733,1.24427 153.733,2.5776 157.5,4.5C 157.421,7.27065 157.921,9.93731 159,12.5C 161.276,14.7181 162.776,17.3848 163.5,20.5C 169.112,23.7628 172.778,28.4295 174.5,34.5C 177.142,34.5123 178.475,33.179 178.5,30.5 Z"/></g>
<g><path style="opacity:1" fill="#b7c4ba" d="M 140.5,-0.5 C 143.833,-0.5 147.167,-0.5 150.5,-0.5C 152.762,0.82342 155.096,2.15675 157.5,3.5C 158.982,9.28062 161.315,14.614 164.5,19.5C 166.856,21.69 169.356,23.69 172,25.5C 173.368,28.1863 174.701,30.853 176,33.5C 176.377,32.0577 177.21,31.0577 178.5,30.5C 178.475,33.179 177.142,34.5123 174.5,34.5C 172.778,28.4295 169.112,23.7628 163.5,20.5C 162.776,17.3848 161.276,14.7181 159,12.5C 157.921,9.93731 157.421,7.27065 157.5,4.5C 153.733,2.5776 149.733,1.24427 145.5,0.5C 144.167,0.833333 142.833,1.16667 141.5,1.5C 140.885,3.11613 139.885,4.44946 138.5,5.5C 132.437,6.63141 126.437,7.63141 120.5,8.5C 125.792,6.44349 131.459,5.11015 137.5,4.5C 138.26,2.63964 139.26,0.972969 140.5,-0.5 Z"/></g>
<g><path style="opacity:1" fill="#b9c2ba" d="M 119.5,8.5 C 118.708,10.2572 117.375,11.5905 115.5,12.5C 112.065,10.3416 108.399,10.0083 104.5,11.5C 98.9101,29.8002 93.5768,48.1335 88.5,66.5C 80.2096,65.395 71.8763,64.7284 63.5,64.5C 63.1667,64.5 62.8333,64.5 62.5,64.5C 65.1459,63.8356 67.9792,63.5022 71,63.5C 76.5248,64.1303 82.0248,64.797 87.5,65.5C 92.5768,47.1335 97.9101,28.8002 103.5,10.5C 107.516,9.23007 111.516,9.23007 115.5,10.5C 116.622,9.36977 117.956,8.70311 119.5,8.5 Z"/></g>
<g><path style="opacity:1" fill="#bac3bb" d="M 211.5,94.5 C 211.5,96.8333 211.5,99.1667 211.5,101.5C 194.775,106.599 178.442,112.766 162.5,120C 151.944,126.784 141.277,133.284 130.5,139.5C 131.968,137.502 133.801,135.835 136,134.5C 144.542,130.139 152.709,125.139 160.5,119.5C 176.708,112.067 193.374,105.734 210.5,100.5C 204.737,73.4443 197.737,46.7776 189.5,20.5C 187.115,23.2117 184.782,25.8784 182.5,28.5C 183.279,25.3656 184.945,22.6989 187.5,20.5C 189.347,19.1696 190.847,19.503 192,21.5C 198.369,45.9825 204.869,70.3159 211.5,94.5 Z"/></g>
<g><path style="opacity:1" fill="#a8ccb0" d="M 62.5,64.5 C 62.8333,64.5 63.1667,64.5 63.5,64.5C 63.3893,65.1174 63.056,65.6174 62.5,66C 59.854,66.4974 57.1873,66.6641 54.5,66.5C 54.5,66.1667 54.5,65.8333 54.5,65.5C 57.2788,65.7214 59.9455,65.388 62.5,64.5 Z"/></g>
<g><path style="opacity:1" fill="#b5c6b9" d="M 54.5,65.5 C 54.5,65.8333 54.5,66.1667 54.5,66.5C 44.637,67.7197 34.637,68.7197 24.5,69.5C 16.283,72.9211 8.28299,76.5878 0.5,80.5C 0.5,80.1667 0.5,79.8333 0.5,79.5C 8.02978,75.5214 15.6965,71.688 23.5,68C 33.9926,67.6793 44.3259,66.846 54.5,65.5 Z"/></g>
<g><path style="opacity:1" fill="#fefffe" d="M -0.5,83.5 C 7.97457,95.6961 16.9746,107.696 26.5,119.5C 42.2224,131.222 58.2224,142.555 74.5,153.5C 79.617,157.278 83.617,161.945 86.5,167.5C 57.5,167.5 28.5,167.5 -0.5,167.5C -0.5,139.5 -0.5,111.5 -0.5,83.5 Z"/></g>
<g><path style="opacity:1" fill="#fefffe" d="M 211.5,101.5 C 211.5,123.5 211.5,145.5 211.5,167.5C 171.833,167.5 132.167,167.5 92.5,167.5C 99.6574,162.53 106.991,157.696 114.5,153C 120.346,148.978 125.679,144.478 130.5,139.5C 141.277,133.284 151.944,126.784 162.5,120C 178.442,112.766 194.775,106.599 211.5,101.5 Z"/></g>
<g><path style="opacity:1" fill="#b9c2bb" d="M -0.5,79.5 C -0.166667,79.5 0.166667,79.5 0.5,79.5C 0.5,79.8333 0.5,80.1667 0.5,80.5C 8.26799,93.9519 17.268,106.619 27.5,118.5C 42.8959,129.898 58.5626,140.898 74.5,151.5C 77.8178,154.317 80.9845,157.317 84,160.5C 84.9117,164.77 87.4117,166.604 91.5,166C 104.783,157.534 117.783,148.7 130.5,139.5C 125.679,144.478 120.346,148.978 114.5,153C 106.991,157.696 99.6574,162.53 92.5,167.5C 90.5,167.5 88.5,167.5 86.5,167.5C 83.617,161.945 79.617,157.278 74.5,153.5C 58.2224,142.555 42.2224,131.222 26.5,119.5C 16.9746,107.696 7.97457,95.6961 -0.5,83.5C -0.5,82.1667 -0.5,80.8333 -0.5,79.5 Z"/></g>
</svg>
