<?xml version="1.0" standalone="no"?>
<!DOCTYPE svg PUBLIC "-//W3C//DTD SVG 20010904//EN"
 "http://www.w3.org/TR/2001/REC-SVG-20010904/DTD/svg10.dtd">
<svg version="1.0" xmlns="http://www.w3.org/2000/svg"
 width="331.000000pt" height="410.000000pt" viewBox="0 0 331.000000 410.000000"
 preserveAspectRatio="xMidYMid meet">

<g transform="translate(0.000000,410.000000) scale(0.100000,-0.100000)"
fill="#000000" stroke="none">
<path d="M60 4047 c0 -54 -7 -77 -25 -77 -16 0 -30 -33 -16 -38 6 -2 11 -10
11 -19 0 -8 7 -21 15 -29 19 -20 19 -53 -1 -93 -13 -25 -14 -40 -6 -69 12 -44
35 -105 42 -112 3 -3 11 -21 18 -40 8 -19 19 -48 25 -65 7 -16 14 -32 17 -35
3 -3 11 -21 18 -40 8 -19 23 -57 34 -85 11 -27 26 -66 34 -85 7 -19 13 -62 14
-95 0 -59 -28 -175 -42 -175 -4 0 -8 -9 -8 -20 0 -11 -4 -20 -9 -20 -5 0 -13
-9 -16 -20 -4 -11 -17 -31 -30 -44 -13 -13 -33 -43 -45 -67 -22 -41 -22 -48
-11 -136 6 -50 11 -115 11 -142 0 -39 4 -51 15 -51 8 0 15 -4 15 -10 0 -5 5
-10 11 -10 13 0 89 -78 89 -91 0 -5 5 -9 10 -9 17 0 60 -47 60 -65 0 -8 5 -15
10 -15 6 0 10 -7 10 -15 0 -9 11 -27 24 -40 13 -13 27 -40 31 -61 6 -36 60
-154 75 -164 11 -8 30 -95 30 -138 0 -36 25 -82 45 -82 9 0 45 -40 45 -51 0
-4 6 -14 13 -21 12 -11 27 -65 79 -263 18 -71 21 -137 7 -146 -11 -6 -11 -29
0 -129 8 -68 10 -149 6 -185 l-6 -64 38 -6 c21 -4 45 -9 53 -11 9 -2 22 5 30
16 10 13 26 20 50 20 62 0 140 12 140 22 0 5 8 17 17 26 21 21 154 25 161 4 2
-6 10 -12 19 -12 21 0 43 -25 43 -50 0 -26 17 -60 42 -81 10 -9 18 -28 18 -43
0 -17 5 -26 15 -26 20 0 65 -45 65 -65 0 -31 33 -13 100 55 38 39 71 70 73 70
3 0 8 -12 11 -28 7 -28 20 -80 36 -142 5 -19 23 -87 40 -150 17 -63 36 -133
41 -155 6 -22 14 -56 19 -75 76 -296 74 -290 94 -290 35 0 136 24 136 32 0 4
9 8 19 8 11 0 22 4 25 9 3 4 25 11 48 15 87 12 113 18 133 26 24 11 124 26
270 40 134 14 421 46 530 60 44 6 145 18 225 28 164 20 150 7 135 115 -7 55
-35 87 -77 87 -15 0 -28 5 -28 10 0 6 -9 10 -20 10 -11 0 -20 5 -20 10 0 6 -6
10 -13 10 -7 0 -19 9 -27 20 -8 11 -20 20 -27 20 -7 0 -13 5 -13 10 0 6 -5 10
-10 10 -6 0 -34 24 -63 53 -49 49 -65 81 -81 159 -7 31 -78 108 -100 108 -9 0
-16 7 -16 15 0 28 -44 105 -60 105 -8 0 -22 9 -30 20 -8 11 -22 20 -31 20 -9
0 -22 14 -29 30 -7 17 -16 30 -21 30 -5 0 -9 9 -9 20 0 11 -4 20 -10 20 -5 0
-10 9 -10 20 0 11 -4 20 -10 20 -5 0 -10 9 -10 20 0 11 -4 20 -10 20 -5 0 -10
9 -10 20 0 11 -4 20 -9 20 -5 0 -12 8 -16 19 -8 25 -40 61 -54 61 -6 0 -11 5
-11 10 0 6 -7 10 -15 10 -8 0 -15 5 -15 10 0 6 -9 10 -20 10 -11 0 -20 5 -20
10 0 6 -9 10 -20 10 -11 0 -20 5 -20 10 0 6 -11 10 -25 10 -14 0 -25 5 -25 10
0 6 -9 10 -20 10 -11 0 -20 5 -20 10 0 6 -9 10 -20 10 -11 0 -20 5 -20 10 0 6
-6 10 -14 10 -8 0 -17 9 -21 19 -3 11 -20 35 -36 52 -26 27 -30 38 -24 66 5
27 1 38 -19 58 -14 14 -32 25 -41 25 -8 0 -15 5 -15 10 0 6 -8 10 -18 10 -41
0 -51 123 -22 263 14 67 1 117 -31 117 -11 0 -19 5 -19 10 0 6 -5 10 -11 10
-15 0 -39 26 -39 43 0 9 -4 17 -9 19 -5 2 -19 50 -31 108 -21 101 -47 169 -76
198 -8 7 -14 17 -14 22 0 13 -117 130 -129 130 -6 0 -11 5 -11 10 0 6 -6 10
-13 10 -7 0 -19 9 -27 20 -8 11 -20 20 -27 20 -16 0 -123 105 -123 120 0 24
-46 101 -64 107 -12 3 -46 7 -76 8 -30 1 -60 3 -67 4 -7 0 -17 20 -23 44 -6
23 -16 57 -23 74 -11 33 -11 33 -65 26 -41 -4 -56 -3 -63 8 -13 20 -11 46 4
61 8 7 19 24 26 36 21 39 -5 52 -103 52 -83 0 -86 1 -86 23 0 12 -10 47 -21
77 -12 30 -26 70 -33 88 -6 17 -14 32 -18 32 -5 0 -8 9 -8 20 0 11 -4 20 -10
20 -5 0 -10 9 -10 20 0 11 -4 20 -10 20 -5 0 -10 9 -10 20 0 11 -4 20 -8 20
-5 0 -15 12 -23 28 -16 31 -54 72 -67 72 -4 0 -18 9 -30 20 -17 16 -44 22
-132 30 -73 6 -116 14 -125 24 -10 10 -15 35 -15 74 0 73 -6 92 -31 92 -10 0
-19 5 -19 10 0 6 -7 10 -15 10 -8 0 -15 9 -15 20 0 11 -4 20 -9 20 -5 0 -11
13 -14 29 -10 49 -48 77 -119 90 -35 6 -73 14 -85 17 -21 6 -23 3 -23 -39z"/>
</g>
</svg>
