<?xml version="1.0" standalone="no"?>
<!DOCTYPE svg PUBLIC "-//W3C//DTD SVG 20010904//EN"
 "http://www.w3.org/TR/2001/REC-SVG-20010904/DTD/svg10.dtd">
<svg version="1.0" xmlns="http://www.w3.org/2000/svg"
 width="338.000000pt" height="252.000000pt" viewBox="0 0 338.000000 252.000000"
 preserveAspectRatio="xMidYMid meet">

<g transform="translate(0.000000,252.000000) scale(0.100000,-0.100000)"
fill="#000000" stroke="none">
<path d="M2710 2500 c0 -6 -33 -10 -80 -10 -47 0 -80 -4 -80 -10 0 -6 -33 -10
-80 -10 -47 0 -80 -4 -80 -10 0 -6 -37 -10 -90 -10 -53 0 -90 -4 -90 -10 0 -6
-33 -10 -80 -10 -47 0 -80 -4 -80 -10 0 -6 -40 -10 -100 -10 -60 0 -100 -4
-100 -10 0 -6 -33 -10 -80 -10 -47 0 -80 -4 -80 -10 0 -5 -18 -10 -40 -10 -22
0 -40 -4 -40 -10 0 -5 -22 -10 -50 -10 -27 0 -50 -4 -50 -10 0 -5 -18 -10 -41
-10 -24 0 -38 -4 -34 -10 4 -6 -7 -10 -25 -10 -18 0 -29 -4 -25 -10 4 -6 -10
-10 -34 -10 -23 0 -41 -4 -41 -10 0 -5 -21 -10 -46 -10 -27 0 -43 -4 -39 -10
4 -6 -7 -10 -24 -10 -17 0 -31 -4 -31 -10 0 -5 -13 -10 -30 -10 -16 0 -30 -4
-30 -10 0 -5 -12 -10 -26 -10 -14 0 -23 -4 -19 -10 4 -6 -8 -10 -30 -10 -22 0
-34 -4 -30 -10 4 -6 -8 -10 -30 -10 -22 0 -34 -4 -30 -10 4 -6 -7 -10 -25 -10
-18 0 -29 -4 -25 -10 4 -6 -7 -10 -25 -10 -18 0 -29 -4 -25 -10 4 -6 -5 -10
-20 -10 -15 0 -24 -4 -20 -10 4 -6 -5 -10 -20 -10 -15 0 -24 -4 -20 -10 4 -6
-7 -10 -25 -10 -18 0 -29 -4 -25 -10 3 -5 -3 -10 -15 -10 -12 0 -18 -4 -15
-10 3 -5 -3 -10 -15 -10 -12 0 -18 -4 -15 -10 3 -5 -3 -10 -15 -10 -12 0 -18
-4 -15 -10 3 -5 -3 -10 -15 -10 -12 0 -18 -4 -15 -10 4 -6 -5 -10 -20 -10 -15
0 -24 -4 -20 -10 3 -5 -3 -10 -15 -10 -12 0 -18 -4 -15 -10 3 -5 -3 -10 -14
-10 -12 0 -21 -4 -21 -10 0 -5 -9 -10 -21 -10 -11 0 -17 -4 -14 -10 3 -5 -1
-10 -9 -10 -9 0 -16 -4 -16 -10 0 -5 -7 -10 -16 -10 -8 0 -12 -4 -9 -10 3 -5
-3 -10 -15 -10 -12 0 -18 -4 -15 -10 3 -5 -1 -10 -9 -10 -9 0 -16 -4 -16 -10
0 -5 -7 -10 -16 -10 -8 0 -12 -4 -9 -10 3 -5 -3 -10 -15 -10 -12 0 -18 -4 -15
-10 3 -5 -1 -10 -9 -10 -9 0 -16 -4 -16 -10 0 -5 -7 -10 -16 -10 -8 0 -12 -4
-9 -10 3 -5 -3 -10 -15 -10 -12 0 -18 -4 -15 -10 3 -5 -3 -10 -15 -10 -12 0
-18 -4 -15 -10 3 -5 -3 -10 -15 -10 -12 0 -18 -4 -15 -10 3 -5 -3 -10 -15 -10
-12 0 -18 -4 -15 -10 3 -5 -3 -10 -15 -10 -12 0 -18 -4 -15 -10 4 -6 -5 -10
-20 -10 -15 0 -24 -4 -20 -10 3 -5 1 -10 -5 -10 -6 0 -18 -7 -27 -15 -14 -14
-13 -18 5 -34 12 -9 22 -24 24 -32 2 -8 11 -21 20 -30 9 -8 18 -22 20 -30 2
-8 11 -21 20 -30 9 -8 18 -22 20 -30 2 -8 11 -21 20 -30 9 -8 18 -22 20 -30 2
-8 11 -21 20 -30 9 -8 18 -22 20 -29 2 -8 13 -25 26 -38 12 -13 20 -27 18 -31
-3 -4 4 -14 15 -21 10 -8 19 -22 19 -31 0 -10 4 -19 9 -21 5 -1 11 -10 13 -18
2 -8 9 -21 16 -28 7 -8 10 -17 8 -21 -3 -4 4 -14 15 -21 10 -8 19 -22 19 -31
0 -10 4 -19 9 -21 5 -2 11 -10 13 -18 2 -8 11 -22 21 -31 9 -9 17 -23 17 -32
0 -8 4 -17 9 -19 5 -2 11 -10 13 -18 2 -8 13 -25 26 -38 12 -13 20 -27 18 -31
-3 -4 4 -14 15 -21 10 -8 19 -22 19 -31 0 -10 4 -19 9 -21 5 -1 11 -10 13 -18
2 -8 6 -17 10 -20 3 -3 8 -12 10 -20 2 -8 11 -22 20 -31 9 -8 18 -22 20 -29 2
-8 9 -21 16 -28 7 -8 10 -17 8 -21 -3 -4 4 -14 15 -21 10 -8 19 -22 19 -31 0
-10 4 -19 9 -21 5 -2 11 -10 13 -18 2 -8 11 -22 21 -31 9 -9 17 -23 17 -32 0
-8 4 -17 9 -19 5 -1 11 -10 13 -18 5 -23 51 -66 56 -52 2 7 12 12 23 12 10 0
19 5 19 10 0 6 12 10 26 10 14 0 23 4 19 10 -4 6 7 10 25 10 18 0 29 4 25 10
-4 6 8 10 29 10 20 0 36 5 36 10 0 6 23 10 50 10 28 0 50 5 50 10 0 6 23 10
50 10 28 0 50 5 50 10 0 6 23 10 50 10 28 0 50 5 50 10 0 6 18 10 40 10 22 0
40 5 40 10 0 6 18 10 40 10 22 0 40 5 40 10 0 6 23 10 50 10 28 0 50 5 50 10
0 6 23 10 50 10 28 0 50 5 50 10 0 6 16 10 36 10 19 0 33 -4 30 -9 -4 -5 -2
-11 3 -13 5 -1 11 -14 13 -28 1 -14 6 -28 10 -31 5 -3 9 -17 10 -32 1 -15 6
-27 10 -27 4 0 8 -13 8 -29 0 -16 4 -31 10 -33 5 -1 10 -20 12 -40 1 -21 6
-38 10 -38 4 0 8 -13 8 -30 0 -16 5 -30 10 -30 6 0 10 -13 10 -30 0 -16 5 -30
10 -30 6 0 10 -13 10 -30 0 -28 2 -30 40 -30 22 0 40 5 40 10 0 6 27 10 60 10
33 0 60 4 60 10 0 6 23 10 50 10 28 0 50 5 50 10 0 6 27 10 60 10 33 0 60 4
60 10 0 6 23 10 50 10 28 0 50 5 50 10 0 6 27 10 60 10 33 0 60 4 60 10 0 6
16 10 36 10 21 0 33 4 29 10 -4 6 7 10 24 10 28 0 36 -8 32 -32 0 -5 3 -8 9
-8 5 0 10 -13 10 -29 0 -16 4 -31 10 -33 5 -2 10 -20 12 -40 1 -21 6 -38 10
-38 4 0 8 -13 8 -30 0 -17 5 -30 10 -30 6 0 10 5 10 10 0 6 9 10 20 10 11 0
20 5 20 10 0 6 12 10 26 10 14 0 23 4 19 10 -3 6 3 10 15 10 12 0 18 4 15 10
-3 5 1 10 9 10 9 0 16 5 16 10 0 6 18 10 40 10 22 0 40 5 40 10 0 6 16 10 36
10 21 0 33 4 29 10 -4 6 7 10 24 10 17 0 31 5 31 10 0 6 18 10 40 10 22 0 40
5 40 10 0 6 14 10 30 10 17 0 30 5 30 10 0 6 16 10 36 10 21 0 33 4 29 10 -4
6 10 10 34 10 23 0 41 5 41 10 0 6 9 10 20 10 14 0 20 6 18 18 -2 9 -6 19 -10
22 -4 3 -8 67 -9 143 0 75 -5 137 -10 137 -5 0 -9 12 -9 26 0 14 -7 32 -15 41
-8 8 -13 19 -10 24 4 5 -1 9 -10 9 -9 0 -13 4 -10 10 3 6 -2 10 -11 10 -10 0
-15 3 -11 6 3 3 -10 22 -29 41 -19 19 -32 38 -29 44 4 5 -2 9 -11 9 -10 0 -15
3 -11 6 3 4 -12 23 -33 44 -22 21 -41 44 -42 51 -2 8 -15 26 -30 40 -15 14
-28 32 -30 40 -2 8 -11 21 -20 30 -9 8 -18 32 -20 52 -1 20 -6 37 -10 37 -4 0
-8 36 -8 79 0 44 -4 81 -9 83 -6 2 -11 42 -12 91 -1 48 -6 87 -10 87 -5 0 -9
14 -9 30 0 17 -4 30 -10 30 -5 0 -10 9 -10 20 0 11 4 20 8 20 5 0 8 14 8 30 0
19 -5 30 -13 30 -8 0 -11 5 -8 10 4 6 -7 10 -25 10 -18 0 -29 4 -25 10 3 6 -3
10 -15 10 -12 0 -18 5 -15 10 3 6 -2 10 -11 10 -10 0 -15 3 -11 6 3 4 -1 13
-9 21 -8 8 -12 19 -9 24 4 5 1 9 -4 9 -6 0 -11 14 -11 30 0 17 5 30 10 30 6 0
9 3 9 8 -4 22 3 32 22 32 11 0 17 5 14 10 -3 6 1 10 9 10 14 0 14 3 4 20 -7
11 -23 20 -36 20 -13 0 -20 4 -17 10 3 6 1 10 -4 10 -6 0 -11 14 -11 30 0 17
4 30 9 30 6 0 9 9 8 20 -1 11 -5 20 -9 20 -4 0 -8 9 -8 20 0 11 5 20 11 20 5
0 7 5 4 10 -3 6 1 10 10 10 9 0 13 5 10 10 -3 6 1 10 10 10 9 0 13 5 10 10 -3
6 3 10 15 10 12 0 18 5 15 10 -3 6 2 10 12 10 13 0 19 8 21 27 1 15 8 30 15
35 6 4 8 8 3 8 -4 0 -1 11 8 24 8 14 11 26 6 28 -5 2 -11 15 -12 31 -1 15 -8
27 -16 27 -7 0 -10 5 -7 10 3 6 -1 10 -10 10 -9 0 -13 5 -10 10 3 6 -1 10 -10
10 -9 0 -13 5 -10 10 3 6 -3 10 -15 10 -12 0 -18 5 -15 10 3 6 -1 10 -9 10
-13 0 -16 13 -16 70 l0 70 -50 0 c-27 0 -50 -4 -50 -10z"/>
</g>
</svg>
