<?xml version="1.0" encoding="UTF-8"?>
<!DOCTYPE svg PUBLIC "-//W3C//DTD SVG 1.1//EN" "http://www.w3.org/Graphics/SVG/1.1/DTD/svg11.dtd">
<svg xmlns="http://www.w3.org/2000/svg" version="1.1" width="152px" height="112px" style="shape-rendering:geometricPrecision; text-rendering:geometricPrecision; image-rendering:optimizeQuality; fill-rule:evenodd; clip-rule:evenodd" xmlns:xlink="http://www.w3.org/1999/xlink">
<g><path style="opacity:1" fill="#fdfcfd" d="M -0.5,-0.5 C 50.1667,-0.5 100.833,-0.5 151.5,-0.5C 151.5,26.8333 151.5,54.1667 151.5,81.5C 149.299,79.4963 147.299,77.163 145.5,74.5C 144.675,73.6143 143.675,73.281 142.5,73.5C 134.299,68.5652 126.632,62.8985 119.5,56.5C 116.08,53.5518 112.414,50.8852 108.5,48.5C 102.311,44.8181 96.3106,40.8181 90.5,36.5C 89.3678,32.3611 87.0345,29.0278 83.5,26.5C 82.3403,25.3886 81.007,24.3886 79.5,23.5C 74.8333,16.1667 70.1667,8.83333 65.5,1.5C 64.8333,1.16667 64.1667,0.833333 63.5,0.5C 57.31,3.64166 50.9767,6.30832 44.5,8.5C 43.5,9.83333 42.5,9.83333 41.5,8.5C 36.9747,6.55875 32.3081,6.22542 27.5,7.5C 24.763,9.90525 21.763,11.9053 18.5,13.5C 12.942,19.2873 6.94199,24.6207 0.5,29.5C 1.45645,31.0754 2.12312,32.742 2.5,34.5C 1.27187,33.6935 0.271873,32.6935 -0.5,31.5C -0.5,20.8333 -0.5,10.1667 -0.5,-0.5 Z"/></g>
<g><path style="opacity:1" fill="#c26bf2" d="M 83.5,26.5 C 85.4513,30.1151 87.7846,33.4484 90.5,36.5C 96.3106,40.8181 102.311,44.8181 108.5,48.5C 111.25,52.3357 114.916,55.0024 119.5,56.5C 126.632,62.8985 134.299,68.5652 142.5,73.5C 145.739,76.9829 148.739,80.6496 151.5,84.5C 151.5,85.1667 151.5,85.8333 151.5,86.5C 139.162,94.096 126.995,102.096 115,110.5C 114.235,110.43 113.735,110.097 113.5,109.5C 112.861,106.228 111.194,103.561 108.5,101.5C 104.423,99.1342 100.423,96.8009 96.5,94.5C 95.2223,94.2178 94.2223,93.5511 93.5,92.5C 92.9935,91.1411 91.9935,90.1411 90.5,89.5C 86.7314,87.8106 83.0648,86.144 79.5,84.5C 77.4727,84.6621 75.4727,84.4955 73.5,84C 71.9162,80.2466 69.2495,77.7466 65.5,76.5C 65.0415,71.4629 66.0415,66.7962 68.5,62.5C 68.244,59.0744 66.5774,56.5744 63.5,55C 58.6894,55.2065 53.856,55.7065 49,56.5C 40.4085,55.3523 32.2418,53.019 24.5,49.5C 18.5,48.8333 12.5,48.1667 6.5,47.5C 5.06053,43.187 3.7272,38.8537 2.5,34.5C 2.12312,32.742 1.45645,31.0754 0.5,29.5C 6.94199,24.6207 12.942,19.2873 18.5,13.5C 21.763,11.9053 24.763,9.90525 27.5,7.5C 32.3081,6.22542 36.9747,6.55875 41.5,8.5C 42.5,11.1667 43.5,11.1667 44.5,8.5C 50.9767,6.30832 57.31,3.64166 63.5,0.5C 64.1667,0.833333 64.8333,1.16667 65.5,1.5C 70.1667,8.83333 74.8333,16.1667 79.5,23.5C 81.007,24.3886 82.3403,25.3886 83.5,26.5 Z"/></g>
<g><path style="opacity:1" fill="#bb97cf" d="M 41.5,8.5 C 42.5,9.83333 43.5,9.83333 44.5,8.5C 43.5,11.1667 42.5,11.1667 41.5,8.5 Z"/></g>
<g><path style="opacity:1" fill="#fdfdfd" d="M -0.5,31.5 C 0.271873,32.6935 1.27187,33.6935 2.5,34.5C 3.7272,38.8537 5.06053,43.187 6.5,47.5C 12.5,48.1667 18.5,48.8333 24.5,49.5C 32.2418,53.019 40.4085,55.3523 49,56.5C 53.856,55.7065 58.6894,55.2065 63.5,55C 66.5774,56.5744 68.244,59.0744 68.5,62.5C 66.0415,66.7962 65.0415,71.4629 65.5,76.5C 69.2495,77.7466 71.9162,80.2466 73.5,84C 75.4727,84.4955 77.4727,84.6621 79.5,84.5C 79.5,85.5 79.5,86.5 79.5,87.5C 84.567,88.0329 89.2337,89.6996 93.5,92.5C 94.2223,93.5511 95.2223,94.2178 96.5,94.5C 96.5,95.5 96.5,96.5 96.5,97.5C 103.972,99.1441 109.638,103.144 113.5,109.5C 113.735,110.097 114.235,110.43 115,110.5C 126.995,102.096 139.162,94.096 151.5,86.5C 151.5,94.8333 151.5,103.167 151.5,111.5C 100.833,111.5 50.1667,111.5 -0.5,111.5C -0.5,84.8333 -0.5,58.1667 -0.5,31.5 Z"/></g>
<g><path style="opacity:1" fill="#c5b2ce" d="M 83.5,26.5 C 87.0345,29.0278 89.3678,32.3611 90.5,36.5C 87.7846,33.4484 85.4513,30.1151 83.5,26.5 Z"/></g>
<g><path style="opacity:1" fill="#c8b4d1" d="M 108.5,48.5 C 112.414,50.8852 116.08,53.5518 119.5,56.5C 114.916,55.0024 111.25,52.3357 108.5,48.5 Z"/></g>
<g><path style="opacity:1" fill="#cdc3d0" d="M 142.5,73.5 C 143.675,73.281 144.675,73.6143 145.5,74.5C 147.299,77.163 149.299,79.4963 151.5,81.5C 151.5,82.5 151.5,83.5 151.5,84.5C 148.739,80.6496 145.739,76.9829 142.5,73.5 Z"/></g>
<g><path style="opacity:1" fill="#cab9d1" d="M 79.5,84.5 C 83.0648,86.144 86.7314,87.8106 90.5,89.5C 91.9935,90.1411 92.9935,91.1411 93.5,92.5C 89.2337,89.6996 84.567,88.0329 79.5,87.5C 79.5,86.5 79.5,85.5 79.5,84.5 Z"/></g>
<g><path style="opacity:1" fill="#c9bccf" d="M 96.5,94.5 C 100.423,96.8009 104.423,99.1342 108.5,101.5C 111.194,103.561 112.861,106.228 113.5,109.5C 109.638,103.144 103.972,99.1441 96.5,97.5C 96.5,96.5 96.5,95.5 96.5,94.5 Z"/></g>
</svg>
