<?xml version="1.0" encoding="UTF-8"?>
<!DOCTYPE svg PUBLIC "-//W3C//DTD SVG 1.1//EN" "http://www.w3.org/Graphics/SVG/1.1/DTD/svg11.dtd">
<svg xmlns="http://www.w3.org/2000/svg" version="1.1" width="530px" height="650px" style="shape-rendering:geometricPrecision; text-rendering:geometricPrecision; image-rendering:optimizeQuality; fill-rule:evenodd; clip-rule:evenodd" xmlns:xlink="http://www.w3.org/1999/xlink">
<g><path style="opacity:1" fill="#fefefe" d="M -0.5,-0.5 C 176.167,-0.5 352.833,-0.5 529.5,-0.5C 529.5,180.833 529.5,362.167 529.5,543.5C 528.833,543.167 528.167,542.833 527.5,542.5C 523.769,542.815 520.435,541.815 517.5,539.5C 515.082,535.494 513.749,531.161 513.5,526.5C 513.167,523.5 511.5,521.833 508.5,521.5C 504.129,518.706 499.463,516.373 494.5,514.5C 492.869,508.273 490.869,502.273 488.5,496.5C 487.817,494.824 486.483,494.157 484.5,494.5C 482.285,493.732 479.952,493.065 477.5,492.5C 476.167,491.167 474.833,489.833 473.5,488.5C 473.5,484.167 473.5,479.833 473.5,475.5C 472.041,475.567 470.708,475.234 469.5,474.5C 459.262,471.956 455.262,465.622 457.5,455.5C 460.925,447.816 459.592,440.816 453.5,434.5C 453.167,434.5 452.833,434.5 452.5,434.5C 452.579,433.07 452.246,431.736 451.5,430.5C 446.117,429.789 440.784,429.122 435.5,428.5C 428.719,427.958 422.386,425.958 416.5,422.5C 383.023,438.202 349.689,454.202 316.5,470.5C 315.85,470.804 315.183,471.137 314.5,471.5C 314.124,467.307 312.124,464.307 308.5,462.5C 303.195,459.223 297.529,456.223 291.5,453.5C 289.198,452.198 287.198,450.532 285.5,448.5C 284.167,446.5 284.167,444.5 285.5,442.5C 287.59,440.753 289.257,438.753 290.5,436.5C 293.317,434.097 292.984,432.097 289.5,430.5C 284.29,430.299 279.29,430.966 274.5,432.5C 271.167,433.833 267.833,433.833 264.5,432.5C 261.612,433.01 259.279,432.344 257.5,430.5C 254.158,426.826 250.492,423.492 246.5,420.5C 242.737,418.219 239.403,415.552 236.5,412.5C 235.167,409.167 235.167,405.833 236.5,402.5C 236.5,401.167 236.5,399.833 236.5,398.5C 237.738,396.786 238.405,394.786 238.5,392.5C 241.35,384.576 239.35,378.243 232.5,373.5C 250.268,365.088 268.268,357.088 286.5,349.5C 287.167,348.833 287.833,348.167 288.5,347.5C 287.054,345.382 286.387,343.049 286.5,340.5C 286.011,339.005 285.345,337.671 284.5,336.5C 284.296,334.315 283.63,332.315 282.5,330.5C 282.771,328.62 282.104,327.287 280.5,326.5C 280.5,325.833 280.5,325.167 280.5,324.5C 280.771,322.62 280.104,321.287 278.5,320.5C 278.5,319.833 278.5,319.167 278.5,318.5C 278.011,317.005 277.345,315.671 276.5,314.5C 276.296,312.315 275.63,310.315 274.5,308.5C 274.771,306.62 274.104,305.287 272.5,304.5C 272.5,303.833 272.5,303.167 272.5,302.5C 272.771,300.62 272.104,299.287 270.5,298.5C 270.5,297.833 270.5,297.167 270.5,296.5C 270.771,294.62 270.104,293.287 268.5,292.5C 268.5,291.833 268.5,291.167 268.5,290.5C 268.771,288.62 268.104,287.287 266.5,286.5C 266.5,285.833 266.5,285.167 266.5,284.5C 266.771,282.62 266.104,281.287 264.5,280.5C 264.5,279.833 264.5,279.167 264.5,278.5C 264.771,276.62 264.104,275.287 262.5,274.5C 262.5,273.833 262.5,273.167 262.5,272.5C 262.771,270.62 262.104,269.287 260.5,268.5C 260.5,267.833 260.5,267.167 260.5,266.5C 260.771,264.62 260.104,263.287 258.5,262.5C 258.5,260.5 258.5,258.5 258.5,256.5C 261.279,255.391 262.946,253.391 263.5,250.5C 268.128,247.537 272.461,244.204 276.5,240.5C 279.68,237.38 283.346,235.047 287.5,233.5C 287.5,232.5 287.5,231.5 287.5,230.5C 291.348,227.273 295.681,224.606 300.5,222.5C 305.235,219.008 310.235,216.008 315.5,213.5C 315.5,212.5 315.5,211.5 315.5,210.5C 317.078,209.934 318.412,208.934 319.5,207.5C 317.566,205.276 315.899,202.942 314.5,200.5C 314.539,197.911 313.539,195.911 311.5,194.5C 310.5,193.167 309.5,191.833 308.5,190.5C 308.539,187.911 307.539,185.911 305.5,184.5C 304.326,183.486 303.66,182.153 303.5,180.5C 302.247,177.88 300.914,175.213 299.5,172.5C 299.043,171.702 298.376,171.369 297.5,171.5C 296.737,169.632 295.737,167.965 294.5,166.5C 294.539,163.911 293.539,161.911 291.5,160.5C 288.777,157.443 286.444,154.11 284.5,150.5C 284.539,147.911 283.539,145.911 281.5,144.5C 280.008,140.848 278.008,137.515 275.5,134.5C 274.326,133.486 273.66,132.153 273.5,130.5C 272.008,126.848 270.008,123.515 267.5,120.5C 266.963,117.964 265.63,115.964 263.5,114.5C 262.963,111.964 261.63,109.964 259.5,108.5C 258.963,105.964 257.63,103.964 255.5,102.5C 254.963,99.9641 253.63,97.9641 251.5,96.5C 250.963,93.9641 249.63,91.9641 247.5,90.5C 246.963,87.9641 245.63,85.9641 243.5,84.5C 242.849,83.9094 242.182,83.2427 241.5,82.5C 228.64,91.5213 215.474,100.188 202,108.5C 199.926,107.928 198.76,106.595 198.5,104.5C 198.771,102.62 198.104,101.287 196.5,100.5C 192.996,97.584 189.329,94.9173 185.5,92.5C 184.147,90.8173 182.48,89.4839 180.5,88.5C 179.222,88.2178 178.222,87.5511 177.5,86.5C 175.293,84.4851 172.626,83.4851 169.5,83.5C 165.558,82.9122 161.892,81.5789 158.5,79.5C 157.833,76.1667 155.833,74.1667 152.5,73.5C 151.109,71.3799 150.442,69.0466 150.5,66.5C 151.681,62.5073 152.514,58.5073 153,54.5C 150.894,52.709 148.394,52.0423 145.5,52.5C 140.167,53.8333 134.833,53.8333 129.5,52.5C 122.95,51.094 116.617,49.094 110.5,46.5C 105.268,45.7901 99.9349,45.1235 94.5,44.5C 93.8333,44.5 93.1667,44.5 92.5,44.5C 91.0077,39.8904 89.341,35.5571 87.5,31.5C 87.4139,29.323 86.7472,27.323 85.5,25.5C 82.3484,24.7454 79.3484,23.7454 76.5,22.5C 76.7709,20.6203 76.1042,19.287 74.5,18.5C 74.362,13.3947 72.6954,9.06134 69.5,5.5C 67.0994,0.975245 63.4327,-0.358088 58.5,1.5C 39.3774,14.3139 20.0441,26.6472 0.5,38.5C 0.5,39.8333 0.5,41.1667 0.5,42.5C 0.594955,44.7857 1.26162,46.7857 2.5,48.5C 2.70356,50.6854 3.37023,52.6854 4.5,54.5C 4.98869,55.9952 5.65536,57.3285 6.5,58.5C 6.5,59.1667 6.5,59.8333 6.5,60.5C 7.73977,63.4455 7.73977,66.4455 6.5,69.5C 6.45344,71.0377 7.12011,72.0377 8.5,72.5C 9.16667,72.5 9.83333,72.5 10.5,72.5C 14.3503,75.0074 18.6836,76.0074 23.5,75.5C 24.209,76.404 25.209,76.7373 26.5,76.5C 29.7254,77.2368 33.0588,77.9035 36.5,78.5C 37.6005,79.6049 38.2671,80.9382 38.5,82.5C 39.8333,87.1667 39.8333,91.8333 38.5,96.5C 38.3354,99.5184 38.502,102.518 39,105.5C 39.3826,106.056 39.8826,106.389 40.5,106.5C 41.9306,111.367 43.9306,116.033 46.5,120.5C 47.7658,121.362 49.0992,122.029 50.5,122.5C 52.0109,123.502 53.6776,124.169 55.5,124.5C 55.5,125.5 55.5,126.5 55.5,127.5C 58.3652,127.965 61.0319,128.965 63.5,130.5C 64.4674,131.806 65.8007,132.473 67.5,132.5C 67.7377,135.069 69.071,136.735 71.5,137.5C 71.5,137.833 71.5,138.167 71.5,138.5C 71.4201,144.023 70.4201,149.357 68.5,154.5C 64.5487,158.744 64.882,162.744 69.5,166.5C 69.8333,166.5 70.1667,166.5 70.5,166.5C 70.3469,169.535 71.6803,171.535 74.5,172.5C 74.5,173.833 75.1667,174.5 76.5,174.5C 77.4598,179.086 79.4598,183.086 82.5,186.5C 82.5,187.833 82.5,189.167 82.5,190.5C 83.8333,190.5 85.1667,190.5 86.5,190.5C 87.6715,191.345 89.0048,192.011 90.5,192.5C 92.5,193.167 93.8333,194.5 94.5,196.5C 94.4311,205.468 97.0978,213.468 102.5,220.5C 102.229,222.38 102.896,223.713 104.5,224.5C 105.428,228.362 106.928,232.029 109,235.5C 109.5,243.159 109.666,250.826 109.5,258.5C 109.425,261.206 109.092,263.873 108.5,266.5C 108.5,268.5 108.5,270.5 108.5,272.5C 107.469,274.961 106.802,277.627 106.5,280.5C 106.5,282.5 106.5,284.5 106.5,286.5C 104.485,288.707 103.485,291.374 103.5,294.5C 101.125,297.417 98.1251,299.417 94.5,300.5C 95.5204,306.849 98.8537,311.515 104.5,314.5C 105.53,317.229 105.53,319.896 104.5,322.5C 100.821,324.166 96.8208,325.499 92.5,326.5C 91.8614,327.097 91.528,327.93 91.5,329C 94.7259,333.262 96.2259,338.095 96,343.5C 96.7568,345.315 97.5902,346.981 98.5,348.5C 98.2872,351.451 98.9539,354.118 100.5,356.5C 101.744,362.456 101.744,368.456 100.5,374.5C 98.8958,375.287 98.2291,376.62 98.5,378.5C 95.6739,379.887 95.0073,381.887 96.5,384.5C 96.5,385.167 96.5,385.833 96.5,386.5C 96.4642,389.461 97.4642,391.794 99.5,393.5C 101.773,396.777 104.44,399.777 107.5,402.5C 108.549,404.528 109.549,406.528 110.5,408.5C 111.325,411.484 112.659,414.151 114.5,416.5C 115.224,420.673 116.558,424.673 118.5,428.5C 120.576,433.934 121.909,439.601 122.5,445.5C 123.145,447.826 124.478,449.493 126.5,450.5C 127.833,452.5 129.167,454.5 130.5,456.5C 131.109,460.605 131.775,464.605 132.5,468.5C 132.87,471.267 134.204,473.267 136.5,474.5C 136.96,478.297 138.96,480.964 142.5,482.5C 142.5,483.167 142.5,483.833 142.5,484.5C 144.142,492.564 146.975,500.231 151,507.5C 150.984,512.214 150.65,516.881 150,521.5C 150.656,523.986 152.156,525.653 154.5,526.5C 156.5,529.167 158.5,531.833 160.5,534.5C 160.989,535.995 161.655,537.329 162.5,538.5C 161.357,541.264 160.023,543.931 158.5,546.5C 155.27,547.728 153.604,550.061 153.5,553.5C 155.833,553.5 158.167,553.5 160.5,553.5C 163.201,554.249 165.868,555.249 168.5,556.5C 168.5,557.833 168.5,559.167 168.5,560.5C 168.034,563.624 166.701,566.29 164.5,568.5C 162.896,569.287 162.229,570.62 162.5,572.5C 159.289,574.921 157.622,578.254 157.5,582.5C 157.556,584.64 158.223,586.306 159.5,587.5C 161.261,589.593 162.594,591.926 163.5,594.5C 170.159,596.923 177.159,597.923 184.5,597.5C 185.209,598.404 186.209,598.737 187.5,598.5C 187.468,600.619 188.468,601.952 190.5,602.5C 190.5,603.167 190.5,603.833 190.5,604.5C 189.543,616.506 189.543,628.506 190.5,640.5C 190.5,641.833 190.5,643.167 190.5,644.5C 195.217,644.984 199.717,646.317 204,648.5C 227.961,636.582 252.461,625.916 277.5,616.5C 281.462,618.8 285.129,621.467 288.5,624.5C 288.96,628.297 290.96,630.964 294.5,632.5C 296.924,632.808 299.257,632.474 301.5,631.5C 375.734,606.974 449.734,582.974 523.5,559.5C 525.718,559.386 527.718,558.72 529.5,557.5C 529.5,588.167 529.5,618.833 529.5,649.5C 352.833,649.5 176.167,649.5 -0.5,649.5C -0.5,432.833 -0.5,216.167 -0.5,-0.5 Z"/></g>
<g><path style="opacity:1" fill="#50d099" d="M 69.5,5.5 C 71.1916,9.92106 72.8582,14.2544 74.5,18.5C 74.6596,20.153 75.3263,21.4863 76.5,22.5C 79.3484,23.7454 82.3484,24.7454 85.5,25.5C 86.7472,27.323 87.4139,29.323 87.5,31.5C 87.8085,36.4052 89.4752,40.7386 92.5,44.5C 93.1667,44.5 93.8333,44.5 94.5,44.5C 99.3958,46.4461 104.729,47.1128 110.5,46.5C 116.617,49.094 122.95,51.094 129.5,52.5C 131.743,53.8117 134.41,54.4783 137.5,54.5C 140.59,54.4783 143.257,53.8117 145.5,52.5C 148.394,52.0423 150.894,52.709 153,54.5C 152.514,58.5073 151.681,62.5073 150.5,66.5C 150.442,69.0466 151.109,71.3799 152.5,73.5C 155.833,74.1667 157.833,76.1667 158.5,79.5C 161.892,81.5789 165.558,82.9122 169.5,83.5C 171.896,85.0233 174.562,86.0233 177.5,86.5C 178.222,87.5511 179.222,88.2178 180.5,88.5C 181.265,90.929 182.931,92.2623 185.5,92.5C 189.329,94.9173 192.996,97.584 196.5,100.5C 196.66,102.153 197.326,103.486 198.5,104.5C 198.76,106.595 199.926,107.928 202,108.5C 215.474,100.188 228.64,91.5213 241.5,82.5C 242.182,83.2427 242.849,83.9094 243.5,84.5C 244.057,87.0499 245.39,89.0499 247.5,90.5C 248.057,93.0499 249.39,95.0499 251.5,96.5C 252.057,99.0499 253.39,101.05 255.5,102.5C 256.057,105.05 257.39,107.05 259.5,108.5C 260.057,111.05 261.39,113.05 263.5,114.5C 264.057,117.05 265.39,119.05 267.5,120.5C 268.498,124.505 270.498,127.839 273.5,130.5C 273.66,132.153 274.326,133.486 275.5,134.5C 276.498,138.505 278.498,141.839 281.5,144.5C 281.992,146.819 282.992,148.819 284.5,150.5C 286.444,154.11 288.777,157.443 291.5,160.5C 291.992,162.819 292.992,164.819 294.5,166.5C 295.737,167.965 296.737,169.632 297.5,171.5C 298.769,175.054 300.769,178.054 303.5,180.5C 303.66,182.153 304.326,183.486 305.5,184.5C 305.992,186.819 306.992,188.819 308.5,190.5C 309.5,191.833 310.5,193.167 311.5,194.5C 311.992,196.819 312.992,198.819 314.5,200.5C 315.899,202.942 317.566,205.276 319.5,207.5C 318.412,208.934 317.078,209.934 315.5,210.5C 311.336,213.611 307.002,216.611 302.5,219.5C 301.388,220.265 300.721,221.265 300.5,222.5C 295.681,224.606 291.348,227.273 287.5,230.5C 283.056,233.014 279.389,236.347 276.5,240.5C 272.461,244.204 268.128,247.537 263.5,250.5C 261.463,252.202 259.797,254.202 258.5,256.5C 258.5,258.5 258.5,260.5 258.5,262.5C 258.66,264.153 259.326,265.486 260.5,266.5C 260.5,267.167 260.5,267.833 260.5,268.5C 260.66,270.153 261.326,271.486 262.5,272.5C 262.5,273.167 262.5,273.833 262.5,274.5C 262.66,276.153 263.326,277.486 264.5,278.5C 264.5,279.167 264.5,279.833 264.5,280.5C 264.66,282.153 265.326,283.486 266.5,284.5C 266.5,285.167 266.5,285.833 266.5,286.5C 266.66,288.153 267.326,289.486 268.5,290.5C 268.5,291.167 268.5,291.833 268.5,292.5C 268.66,294.153 269.326,295.486 270.5,296.5C 270.5,297.167 270.5,297.833 270.5,298.5C 270.66,300.153 271.326,301.486 272.5,302.5C 272.5,303.167 272.5,303.833 272.5,304.5C 272.66,306.153 273.326,307.486 274.5,308.5C 275.63,310.315 276.296,312.315 276.5,314.5C 276.157,316.483 276.824,317.817 278.5,318.5C 278.5,319.167 278.5,319.833 278.5,320.5C 278.66,322.153 279.326,323.486 280.5,324.5C 280.5,325.167 280.5,325.833 280.5,326.5C 280.66,328.153 281.326,329.486 282.5,330.5C 283.63,332.315 284.296,334.315 284.5,336.5C 284.157,338.483 284.824,339.817 286.5,340.5C 286.387,343.049 287.054,345.382 288.5,347.5C 287.833,348.167 287.167,348.833 286.5,349.5C 268.268,357.088 250.268,365.088 232.5,373.5C 239.35,378.243 241.35,384.576 238.5,392.5C 236.926,394.102 236.259,396.102 236.5,398.5C 236.5,399.833 236.5,401.167 236.5,402.5C 235.223,403.694 234.556,405.36 234.5,407.5C 234.556,409.64 235.223,411.306 236.5,412.5C 239.403,415.552 242.737,418.219 246.5,420.5C 249.233,424.901 252.899,428.235 257.5,430.5C 259.279,432.344 261.612,433.01 264.5,432.5C 265.694,433.777 267.36,434.444 269.5,434.5C 271.64,434.444 273.306,433.777 274.5,432.5C 279.29,430.966 284.29,430.299 289.5,430.5C 289.721,431.735 290.388,432.735 291.5,433.5C 290.873,434.417 290.539,435.417 290.5,436.5C 289.257,438.753 287.59,440.753 285.5,442.5C 284.167,444.5 284.167,446.5 285.5,448.5C 287.198,450.532 289.198,452.198 291.5,453.5C 297.529,456.223 303.195,459.223 308.5,462.5C 309.066,464.078 310.066,465.412 311.5,466.5C 312.466,468.396 312.799,470.396 312.5,472.5C 314.483,472.843 315.817,472.176 316.5,470.5C 349.689,454.202 383.023,438.202 416.5,422.5C 422.386,425.958 428.719,427.958 435.5,428.5C 440.1,430.131 445.1,431.131 450.5,431.5C 450.942,432.739 451.609,433.739 452.5,434.5C 452.833,434.5 453.167,434.5 453.5,434.5C 454.714,437.93 456.214,441.264 458,444.5C 458.755,448.255 458.589,451.922 457.5,455.5C 455.262,465.622 459.262,471.956 469.5,474.5C 469.821,476.048 470.821,476.715 472.5,476.5C 472.183,480.702 472.517,484.702 473.5,488.5C 474.833,489.833 476.167,491.167 477.5,492.5C 479.279,494.344 481.612,495.01 484.5,494.5C 486.483,494.157 487.817,494.824 488.5,496.5C 489.324,502.972 491.324,508.972 494.5,514.5C 499.463,516.373 504.129,518.706 508.5,521.5C 510.167,523.167 511.833,524.833 513.5,526.5C 513.749,531.161 515.082,535.494 517.5,539.5C 520.435,541.815 523.769,542.815 527.5,542.5C 528.324,545.764 528.658,549.098 528.5,552.5C 528.353,555.972 526.687,558.305 523.5,559.5C 449.734,582.974 375.734,606.974 301.5,631.5C 299.257,632.474 296.924,632.808 294.5,632.5C 292.493,629.828 290.493,627.161 288.5,624.5C 285.129,621.467 281.462,618.8 277.5,616.5C 252.461,625.916 227.961,636.582 204,648.5C 199.717,646.317 195.217,644.984 190.5,644.5C 190.5,643.167 190.5,641.833 190.5,640.5C 190.08,630.377 190.747,620.377 192.5,610.5C 192.461,608.048 191.794,606.048 190.5,604.5C 190.5,603.833 190.5,603.167 190.5,602.5C 189.878,600.878 188.878,599.545 187.5,598.5C 186.209,598.737 185.209,598.404 184.5,597.5C 177.625,596.518 170.625,595.518 163.5,594.5C 162.594,591.926 161.261,589.593 159.5,587.5C 158.107,582.064 159.107,577.064 162.5,572.5C 163.674,571.486 164.34,570.153 164.5,568.5C 166.701,566.29 168.034,563.624 168.5,560.5C 169.376,560.631 170.043,560.298 170.5,559.5C 170.058,558.261 169.391,557.261 168.5,556.5C 165.868,555.249 163.201,554.249 160.5,553.5C 158.631,552.835 156.631,552.169 154.5,551.5C 156.261,550.083 157.594,548.417 158.5,546.5C 160.023,543.931 161.357,541.264 162.5,538.5C 162.843,536.517 162.176,535.183 160.5,534.5C 158.5,531.833 156.5,529.167 154.5,526.5C 152.664,524.161 151.33,521.494 150.5,518.5C 152.365,514.674 152.865,510.674 152,506.5C 148.409,500.991 146.243,494.991 145.5,488.5C 144.943,486.668 143.943,485.335 142.5,484.5C 142.5,483.833 142.5,483.167 142.5,482.5C 140.493,479.828 138.493,477.161 136.5,474.5C 134.204,473.267 132.87,471.267 132.5,468.5C 133.089,464.029 132.423,460.029 130.5,456.5C 129.167,454.5 127.833,452.5 126.5,450.5C 123.565,444.945 121.898,438.945 121.5,432.5C 120.943,430.668 119.943,429.335 118.5,428.5C 116.558,424.673 115.224,420.673 114.5,416.5C 114.181,413.194 112.847,410.527 110.5,408.5C 109.549,406.528 108.549,404.528 107.5,402.5C 104.44,399.777 101.773,396.777 99.5,393.5C 98.9451,390.904 97.9451,388.571 96.5,386.5C 96.5,385.833 96.5,385.167 96.5,384.5C 96.6138,382.282 97.2804,380.282 98.5,378.5C 99.6737,377.486 100.34,376.153 100.5,374.5C 101.222,374.082 101.722,373.416 102,372.5C 102.167,369.833 102.333,367.167 102.5,364.5C 102.478,361.41 101.812,358.743 100.5,356.5C 98.9539,354.118 98.2872,351.451 98.5,348.5C 97.1805,343.96 96.3471,339.294 96,334.5C 94.0981,332.116 92.9314,329.449 92.5,326.5C 96.8208,325.499 100.821,324.166 104.5,322.5C 105.693,322.03 106.36,321.03 106.5,319.5C 106.564,317.443 105.898,315.777 104.5,314.5C 98.8537,311.515 95.5204,306.849 94.5,300.5C 98.1251,299.417 101.125,297.417 103.5,294.5C 105.023,292.104 106.023,289.438 106.5,286.5C 106.5,284.5 106.5,282.5 106.5,280.5C 108.223,278.22 108.889,275.553 108.5,272.5C 108.5,270.5 108.5,268.5 108.5,266.5C 110.223,264.22 110.889,261.553 110.5,258.5C 110.666,250.493 110.5,242.493 110,234.5C 108.392,230.944 106.559,227.611 104.5,224.5C 102.896,223.713 102.229,222.38 102.5,220.5C 98.569,212.703 95.9023,204.703 94.5,196.5C 93.8333,194.5 92.5,193.167 90.5,192.5C 89.8166,190.824 88.4832,190.157 86.5,190.5C 85.1667,190.5 83.8333,190.5 82.5,190.5C 82.5,189.167 82.5,187.833 82.5,186.5C 81.0078,182.182 79.0078,178.182 76.5,174.5C 75.1667,174.5 74.5,173.833 74.5,172.5C 73.1637,170.492 71.8304,168.492 70.5,166.5C 70.1667,166.5 69.8333,166.5 69.5,166.5C 68.7878,164.072 67.7878,161.739 66.5,159.5C 68.0049,158.158 68.6715,156.492 68.5,154.5C 71.9572,149.552 72.9572,144.219 71.5,138.5C 71.5,138.167 71.5,137.833 71.5,137.5C 70.5161,135.52 69.1827,133.853 67.5,132.5C 65.8007,132.473 64.4674,131.806 63.5,130.5C 61.2446,128.03 58.5779,126.03 55.5,124.5C 53.6776,124.169 52.0109,123.502 50.5,122.5C 46.6856,117.553 43.3523,112.22 40.5,106.5C 39.8826,106.389 39.3826,106.056 39,105.5C 38.502,102.518 38.3354,99.5184 38.5,96.5C 40.0173,94.5379 40.6839,92.2046 40.5,89.5C 40.6839,86.7954 40.0173,84.4621 38.5,82.5C 38.2671,80.9382 37.6005,79.6049 36.5,78.5C 33.6627,76.5977 30.3293,75.931 26.5,76.5C 25.209,76.7373 24.209,76.404 23.5,75.5C 19.2497,74.5917 14.9163,73.5917 10.5,72.5C 9.83333,72.5 9.16667,72.5 8.5,72.5C 7.7368,69.9316 7.7368,67.2649 8.5,64.5C 8.41456,62.6672 7.7479,61.3339 6.5,60.5C 6.5,59.8333 6.5,59.1667 6.5,58.5C 6.84316,56.5168 6.17649,55.1834 4.5,54.5C 3.37023,52.6854 2.70356,50.6854 2.5,48.5C 2.74061,46.1016 2.07394,44.1016 0.5,42.5C 0.5,41.1667 0.5,39.8333 0.5,38.5C 20.0441,26.6472 39.3774,14.3139 58.5,1.5C 63.4327,-0.358088 67.0994,0.975245 69.5,5.5 Z"/></g>
<g><path style="opacity:1" fill="#adc9bc" d="M 69.5,5.5 C 72.6954,9.06134 74.362,13.3947 74.5,18.5C 72.8582,14.2544 71.1916,9.92106 69.5,5.5 Z"/></g>
<g><path style="opacity:1" fill="#94c4af" d="M 74.5,18.5 C 76.1042,19.287 76.7709,20.6203 76.5,22.5C 75.3263,21.4863 74.6596,20.153 74.5,18.5 Z"/></g>
<g><path style="opacity:1" fill="#9bc1b0" d="M 87.5,31.5 C 89.341,35.5571 91.0077,39.8904 92.5,44.5C 89.4752,40.7386 87.8085,36.4052 87.5,31.5 Z"/></g>
<g><path style="opacity:1" fill="#8bc1aa" d="M 0.5,42.5 C 2.07394,44.1016 2.74061,46.1016 2.5,48.5C 1.26162,46.7857 0.594955,44.7857 0.5,42.5 Z"/></g>
<g><path style="opacity:1" fill="#9dcbb8" d="M 94.5,44.5 C 99.9349,45.1235 105.268,45.7901 110.5,46.5C 104.729,47.1128 99.3958,46.4461 94.5,44.5 Z"/></g>
<g><path style="opacity:1" fill="#97cab5" d="M 129.5,52.5 C 134.833,53.8333 140.167,53.8333 145.5,52.5C 143.257,53.8117 140.59,54.4783 137.5,54.5C 134.41,54.4783 131.743,53.8117 129.5,52.5 Z"/></g>
<g><path style="opacity:1" fill="#9ac0b0" d="M 4.5,54.5 C 6.17649,55.1834 6.84316,56.5168 6.5,58.5C 5.65536,57.3285 4.98869,55.9952 4.5,54.5 Z"/></g>
<g><path style="opacity:1" fill="#88c4a9" d="M 6.5,60.5 C 7.7479,61.3339 8.41456,62.6672 8.5,64.5C 7.7368,67.2649 7.7368,69.9316 8.5,72.5C 7.12011,72.0377 6.45344,71.0377 6.5,69.5C 7.73977,66.4455 7.73977,63.4455 6.5,60.5 Z"/></g>
<g><path style="opacity:1" fill="#cedbd5" d="M 10.5,72.5 C 14.9163,73.5917 19.2497,74.5917 23.5,75.5C 18.6836,76.0074 14.3503,75.0074 10.5,72.5 Z"/></g>
<g><path style="opacity:1" fill="#a2cbba" d="M 26.5,76.5 C 30.3293,75.931 33.6627,76.5977 36.5,78.5C 33.0588,77.9035 29.7254,77.2368 26.5,76.5 Z"/></g>
<g><path style="opacity:1" fill="#84c3a7" d="M 38.5,82.5 C 40.0173,84.4621 40.6839,86.7954 40.5,89.5C 40.6839,92.2046 40.0173,94.5379 38.5,96.5C 39.8333,91.8333 39.8333,87.1667 38.5,82.5 Z"/></g>
<g><path style="opacity:1" fill="#bfd2c9" d="M 169.5,83.5 C 172.626,83.4851 175.293,84.4851 177.5,86.5C 174.562,86.0233 171.896,85.0233 169.5,83.5 Z"/></g>
<g><path style="opacity:1" fill="#bcccc4" d="M 243.5,84.5 C 245.63,85.9641 246.963,87.9641 247.5,90.5C 245.39,89.0499 244.057,87.0499 243.5,84.5 Z"/></g>
<g><path style="opacity:1" fill="#c0cfc8" d="M 180.5,88.5 C 182.48,89.4839 184.147,90.8173 185.5,92.5C 182.931,92.2623 181.265,90.929 180.5,88.5 Z"/></g>
<g><path style="opacity:1" fill="#bcccc4" d="M 247.5,90.5 C 249.63,91.9641 250.963,93.9641 251.5,96.5C 249.39,95.0499 248.057,93.0499 247.5,90.5 Z"/></g>
<g><path style="opacity:1" fill="#bcccc4" d="M 251.5,96.5 C 253.63,97.9641 254.963,99.9641 255.5,102.5C 253.39,101.05 252.057,99.0499 251.5,96.5 Z"/></g>
<g><path style="opacity:1" fill="#85bca5" d="M 196.5,100.5 C 198.104,101.287 198.771,102.62 198.5,104.5C 197.326,103.486 196.66,102.153 196.5,100.5 Z"/></g>
<g><path style="opacity:1" fill="#bcccc4" d="M 255.5,102.5 C 257.63,103.964 258.963,105.964 259.5,108.5C 257.39,107.05 256.057,105.05 255.5,102.5 Z"/></g>
<g><path style="opacity:1" fill="#bdccc5" d="M 259.5,108.5 C 261.63,109.964 262.963,111.964 263.5,114.5C 261.39,113.05 260.057,111.05 259.5,108.5 Z"/></g>
<g><path style="opacity:1" fill="#a9c7b9" d="M 40.5,106.5 C 43.3523,112.22 46.6856,117.553 50.5,122.5C 49.0992,122.029 47.7658,121.362 46.5,120.5C 43.9306,116.033 41.9306,111.367 40.5,106.5 Z"/></g>
<g><path style="opacity:1" fill="#bcccc4" d="M 263.5,114.5 C 265.63,115.964 266.963,117.964 267.5,120.5C 265.39,119.05 264.057,117.05 263.5,114.5 Z"/></g>
<g><path style="opacity:1" fill="#aac5b9" d="M 267.5,120.5 C 270.008,123.515 272.008,126.848 273.5,130.5C 270.498,127.839 268.498,124.505 267.5,120.5 Z"/></g>
<g><path style="opacity:1" fill="#b6cec3" d="M 55.5,124.5 C 58.5779,126.03 61.2446,128.03 63.5,130.5C 61.0319,128.965 58.3652,127.965 55.5,127.5C 55.5,126.5 55.5,125.5 55.5,124.5 Z"/></g>
<g><path style="opacity:1" fill="#b5c6bf" d="M 67.5,132.5 C 69.1827,133.853 70.5161,135.52 71.5,137.5C 69.071,136.735 67.7377,135.069 67.5,132.5 Z"/></g>
<g><path style="opacity:1" fill="#a9c5b8" d="M 275.5,134.5 C 278.008,137.515 280.008,140.848 281.5,144.5C 278.498,141.839 276.498,138.505 275.5,134.5 Z"/></g>
<g><path style="opacity:1" fill="#b5cdc2" d="M 71.5,138.5 C 72.9572,144.219 71.9572,149.552 68.5,154.5C 70.4201,149.357 71.4201,144.023 71.5,138.5 Z"/></g>
<g><path style="opacity:1" fill="#9dc2b2" d="M 281.5,144.5 C 283.539,145.911 284.539,147.911 284.5,150.5C 282.992,148.819 281.992,146.819 281.5,144.5 Z"/></g>
<g><path style="opacity:1" fill="#a9c7b9" d="M 68.5,154.5 C 68.6715,156.492 68.0049,158.158 66.5,159.5C 67.7878,161.739 68.7878,164.072 69.5,166.5C 64.882,162.744 64.5487,158.744 68.5,154.5 Z"/></g>
<g><path style="opacity:1" fill="#9dc2b2" d="M 291.5,160.5 C 293.539,161.911 294.539,163.911 294.5,166.5C 292.992,164.819 291.992,162.819 291.5,160.5 Z"/></g>
<g><path style="opacity:1" fill="#a0c5b4" d="M 70.5,166.5 C 71.8304,168.492 73.1637,170.492 74.5,172.5C 71.6803,171.535 70.3469,169.535 70.5,166.5 Z"/></g>
<g><path style="opacity:1" fill="#aec6bb" d="M 297.5,171.5 C 298.376,171.369 299.043,171.702 299.5,172.5C 300.914,175.213 302.247,177.88 303.5,180.5C 300.769,178.054 298.769,175.054 297.5,171.5 Z"/></g>
<g><path style="opacity:1" fill="#a8c6b9" d="M 76.5,174.5 C 79.0078,178.182 81.0078,182.182 82.5,186.5C 79.4598,183.086 77.4598,179.086 76.5,174.5 Z"/></g>
<g><path style="opacity:1" fill="#9dc3b1" d="M 305.5,184.5 C 307.539,185.911 308.539,187.911 308.5,190.5C 306.992,188.819 305.992,186.819 305.5,184.5 Z"/></g>
<g><path style="opacity:1" fill="#9bc8b5" d="M 86.5,190.5 C 88.4832,190.157 89.8166,190.824 90.5,192.5C 89.0048,192.011 87.6715,191.345 86.5,190.5 Z"/></g>
<g><path style="opacity:1" fill="#9dc2b2" d="M 311.5,194.5 C 313.539,195.911 314.539,197.911 314.5,200.5C 312.992,198.819 311.992,196.819 311.5,194.5 Z"/></g>
<g><path style="opacity:1" fill="#aecfc0" d="M 94.5,196.5 C 95.9023,204.703 98.569,212.703 102.5,220.5C 97.0978,213.468 94.4311,205.468 94.5,196.5 Z"/></g>
<g><path style="opacity:1" fill="#bacfc5" d="M 315.5,210.5 C 315.5,211.5 315.5,212.5 315.5,213.5C 310.235,216.008 305.235,219.008 300.5,222.5C 300.721,221.265 301.388,220.265 302.5,219.5C 307.002,216.611 311.336,213.611 315.5,210.5 Z"/></g>
<g><path style="opacity:1" fill="#c7d3ce" d="M 287.5,230.5 C 287.5,231.5 287.5,232.5 287.5,233.5C 283.346,235.047 279.68,237.38 276.5,240.5C 279.389,236.347 283.056,233.014 287.5,230.5 Z"/></g>
<g><path style="opacity:1" fill="#c3d0ca" d="M 104.5,224.5 C 106.559,227.611 108.392,230.944 110,234.5C 110.5,242.493 110.666,250.493 110.5,258.5C 110.167,258.5 109.833,258.5 109.5,258.5C 109.666,250.826 109.5,243.159 109,235.5C 106.928,232.029 105.428,228.362 104.5,224.5 Z"/></g>
<g><path style="opacity:1" fill="#bdcdc6" d="M 263.5,250.5 C 262.946,253.391 261.279,255.391 258.5,256.5C 259.797,254.202 261.463,252.202 263.5,250.5 Z"/></g>
<g><path style="opacity:1" fill="#84c4a9" d="M 109.5,258.5 C 109.833,258.5 110.167,258.5 110.5,258.5C 110.889,261.553 110.223,264.22 108.5,266.5C 109.092,263.873 109.425,261.206 109.5,258.5 Z"/></g>
<g><path style="opacity:1" fill="#84bda4" d="M 258.5,262.5 C 260.104,263.287 260.771,264.62 260.5,266.5C 259.326,265.486 258.66,264.153 258.5,262.5 Z"/></g>
<g><path style="opacity:1" fill="#84bca4" d="M 260.5,268.5 C 262.104,269.287 262.771,270.62 262.5,272.5C 261.326,271.486 260.66,270.153 260.5,268.5 Z"/></g>
<g><path style="opacity:1" fill="#84c4a8" d="M 108.5,272.5 C 108.889,275.553 108.223,278.22 106.5,280.5C 106.802,277.627 107.469,274.961 108.5,272.5 Z"/></g>
<g><path style="opacity:1" fill="#83bca3" d="M 262.5,274.5 C 264.104,275.287 264.771,276.62 264.5,278.5C 263.326,277.486 262.66,276.153 262.5,274.5 Z"/></g>
<g><path style="opacity:1" fill="#84bca5" d="M 264.5,280.5 C 266.104,281.287 266.771,282.62 266.5,284.5C 265.326,283.486 264.66,282.153 264.5,280.5 Z"/></g>
<g><path style="opacity:1" fill="#84bda4" d="M 266.5,286.5 C 268.104,287.287 268.771,288.62 268.5,290.5C 267.326,289.486 266.66,288.153 266.5,286.5 Z"/></g>
<g><path style="opacity:1" fill="#aacabc" d="M 106.5,286.5 C 106.023,289.438 105.023,292.104 103.5,294.5C 103.485,291.374 104.485,288.707 106.5,286.5 Z"/></g>
<g><path style="opacity:1" fill="#84bca4" d="M 268.5,292.5 C 270.104,293.287 270.771,294.62 270.5,296.5C 269.326,295.486 268.66,294.153 268.5,292.5 Z"/></g>
<g><path style="opacity:1" fill="#86bda4" d="M 270.5,298.5 C 272.104,299.287 272.771,300.62 272.5,302.5C 271.326,301.486 270.66,300.153 270.5,298.5 Z"/></g>
<g><path style="opacity:1" fill="#84bca4" d="M 272.5,304.5 C 274.104,305.287 274.771,306.62 274.5,308.5C 273.326,307.486 272.66,306.153 272.5,304.5 Z"/></g>
<g><path style="opacity:1" fill="#92c5ae" d="M 276.5,314.5 C 277.345,315.671 278.011,317.005 278.5,318.5C 276.824,317.817 276.157,316.483 276.5,314.5 Z"/></g>
<g><path style="opacity:1" fill="#b6cbc3" d="M 104.5,314.5 C 105.898,315.777 106.564,317.443 106.5,319.5C 106.36,321.03 105.693,322.03 104.5,322.5C 105.53,319.896 105.53,317.229 104.5,314.5 Z"/></g>
<g><path style="opacity:1" fill="#94c4af" d="M 278.5,320.5 C 280.104,321.287 280.771,322.62 280.5,324.5C 279.326,323.486 278.66,322.153 278.5,320.5 Z"/></g>
<g><path style="opacity:1" fill="#b6ccc2" d="M 92.5,326.5 C 92.9314,329.449 94.0981,332.116 96,334.5C 96.3471,339.294 97.1805,343.96 98.5,348.5C 97.5902,346.981 96.7568,345.315 96,343.5C 96.2259,338.095 94.7259,333.262 91.5,329C 91.528,327.93 91.8614,327.097 92.5,326.5 Z"/></g>
<g><path style="opacity:1" fill="#84bca4" d="M 280.5,326.5 C 282.104,327.287 282.771,328.62 282.5,330.5C 281.326,329.486 280.66,328.153 280.5,326.5 Z"/></g>
<g><path style="opacity:1" fill="#92c5ae" d="M 284.5,336.5 C 285.345,337.671 286.011,339.005 286.5,340.5C 284.824,339.817 284.157,338.483 284.5,336.5 Z"/></g>
<g><path style="opacity:1" fill="#b3cbc0" d="M 100.5,356.5 C 101.812,358.743 102.478,361.41 102.5,364.5C 102.333,367.167 102.167,369.833 102,372.5C 101.722,373.416 101.222,374.082 100.5,374.5C 101.744,368.456 101.744,362.456 100.5,356.5 Z"/></g>
<g><path style="opacity:1" fill="#92c4ab" d="M 100.5,374.5 C 100.34,376.153 99.6737,377.486 98.5,378.5C 98.2291,376.62 98.8958,375.287 100.5,374.5 Z"/></g>
<g><path style="opacity:1" fill="#abcabd" d="M 98.5,378.5 C 97.2804,380.282 96.6138,382.282 96.5,384.5C 95.0073,381.887 95.6739,379.887 98.5,378.5 Z"/></g>
<g><path style="opacity:1" fill="#bacbc3" d="M 96.5,386.5 C 97.9451,388.571 98.9451,390.904 99.5,393.5C 97.4642,391.794 96.4642,389.461 96.5,386.5 Z"/></g>
<g><path style="opacity:1" fill="#8ac1a8" d="M 238.5,392.5 C 238.405,394.786 237.738,396.786 236.5,398.5C 236.259,396.102 236.926,394.102 238.5,392.5 Z"/></g>
<g><path style="opacity:1" fill="#85c6a9" d="M 236.5,402.5 C 235.167,405.833 235.167,409.167 236.5,412.5C 235.223,411.306 234.556,409.64 234.5,407.5C 234.556,405.36 235.223,403.694 236.5,402.5 Z"/></g>
<g><path style="opacity:1" fill="#a6c7b9" d="M 110.5,408.5 C 112.847,410.527 114.181,413.194 114.5,416.5C 112.659,414.151 111.325,411.484 110.5,408.5 Z"/></g>
<g><path style="opacity:1" fill="#c5d3cd" d="M 246.5,420.5 C 250.492,423.492 254.158,426.826 257.5,430.5C 252.899,428.235 249.233,424.901 246.5,420.5 Z"/></g>
<g><path style="opacity:1" fill="#9fcab8" d="M 435.5,428.5 C 440.784,429.122 446.117,429.789 451.5,430.5C 452.246,431.736 452.579,433.07 452.5,434.5C 451.609,433.739 450.942,432.739 450.5,431.5C 445.1,431.131 440.1,430.131 435.5,428.5 Z"/></g>
<g><path style="opacity:1" fill="#9bc8b6" d="M 264.5,432.5 C 267.833,433.833 271.167,433.833 274.5,432.5C 273.306,433.777 271.64,434.444 269.5,434.5C 267.36,434.444 265.694,433.777 264.5,432.5 Z"/></g>
<g><path style="opacity:1" fill="#91c7af" d="M 289.5,430.5 C 292.984,432.097 293.317,434.097 290.5,436.5C 290.539,435.417 290.873,434.417 291.5,433.5C 290.388,432.735 289.721,431.735 289.5,430.5 Z"/></g>
<g><path style="opacity:1" fill="#b4cfc3" d="M 118.5,428.5 C 119.943,429.335 120.943,430.668 121.5,432.5C 121.898,438.945 123.565,444.945 126.5,450.5C 124.478,449.493 123.145,447.826 122.5,445.5C 121.909,439.601 120.576,433.934 118.5,428.5 Z"/></g>
<g><path style="opacity:1" fill="#9fc4b3" d="M 453.5,434.5 C 459.592,440.816 460.925,447.816 457.5,455.5C 458.589,451.922 458.755,448.255 458,444.5C 456.214,441.264 454.714,437.93 453.5,434.5 Z"/></g>
<g><path style="opacity:1" fill="#86c7ab" d="M 130.5,456.5 C 132.423,460.029 133.089,464.029 132.5,468.5C 131.775,464.605 131.109,460.605 130.5,456.5 Z"/></g>
<g><path style="opacity:1" fill="#c7d6cf" d="M 308.5,462.5 C 312.124,464.307 314.124,467.307 314.5,471.5C 315.183,471.137 315.85,470.804 316.5,470.5C 315.817,472.176 314.483,472.843 312.5,472.5C 312.799,470.396 312.466,468.396 311.5,466.5C 310.066,465.412 309.066,464.078 308.5,462.5 Z"/></g>
<g><path style="opacity:1" fill="#c2cdc9" d="M 469.5,474.5 C 470.708,475.234 472.041,475.567 473.5,475.5C 473.5,479.833 473.5,484.167 473.5,488.5C 472.517,484.702 472.183,480.702 472.5,476.5C 470.821,476.715 469.821,476.048 469.5,474.5 Z"/></g>
<g><path style="opacity:1" fill="#adc8bc" d="M 136.5,474.5 C 138.493,477.161 140.493,479.828 142.5,482.5C 138.96,480.964 136.96,478.297 136.5,474.5 Z"/></g>
<g><path style="opacity:1" fill="#96cab4" d="M 477.5,492.5 C 479.952,493.065 482.285,493.732 484.5,494.5C 481.612,495.01 479.279,494.344 477.5,492.5 Z"/></g>
<g><path style="opacity:1" fill="#aacabb" d="M 142.5,484.5 C 143.943,485.335 144.943,486.668 145.5,488.5C 146.243,494.991 148.409,500.991 152,506.5C 152.865,510.674 152.365,514.674 150.5,518.5C 151.33,521.494 152.664,524.161 154.5,526.5C 152.156,525.653 150.656,523.986 150,521.5C 150.65,516.881 150.984,512.214 151,507.5C 146.975,500.231 144.142,492.564 142.5,484.5 Z"/></g>
<g><path style="opacity:1" fill="#a3c8b7" d="M 488.5,496.5 C 490.869,502.273 492.869,508.273 494.5,514.5C 491.324,508.972 489.324,502.972 488.5,496.5 Z"/></g>
<g><path style="opacity:1" fill="#b7ccc3" d="M 508.5,521.5 C 511.5,521.833 513.167,523.5 513.5,526.5C 511.833,524.833 510.167,523.167 508.5,521.5 Z"/></g>
<g><path style="opacity:1" fill="#9ac0b0" d="M 160.5,534.5 C 162.176,535.183 162.843,536.517 162.5,538.5C 161.655,537.329 160.989,535.995 160.5,534.5 Z"/></g>
<g><path style="opacity:1" fill="#8bc6ac" d="M 527.5,542.5 C 528.167,542.833 528.833,543.167 529.5,543.5C 529.5,546.5 529.5,549.5 529.5,552.5C 529.167,552.5 528.833,552.5 528.5,552.5C 528.658,549.098 528.324,545.764 527.5,542.5 Z"/></g>
<g><path style="opacity:1" fill="#bed0c8" d="M 158.5,546.5 C 157.594,548.417 156.261,550.083 154.5,551.5C 156.631,552.169 158.631,552.835 160.5,553.5C 158.167,553.5 155.833,553.5 153.5,553.5C 153.604,550.061 155.27,547.728 158.5,546.5 Z"/></g>
<g><path style="opacity:1" fill="#bfd2c9" d="M 528.5,552.5 C 528.833,552.5 529.167,552.5 529.5,552.5C 529.5,554.167 529.5,555.833 529.5,557.5C 527.718,558.72 525.718,559.386 523.5,559.5C 526.687,558.305 528.353,555.972 528.5,552.5 Z"/></g>
<g><path style="opacity:1" fill="#8ab9a5" d="M 168.5,556.5 C 169.391,557.261 170.058,558.261 170.5,559.5C 170.043,560.298 169.376,560.631 168.5,560.5C 168.5,559.167 168.5,557.833 168.5,556.5 Z"/></g>
<g><path style="opacity:1" fill="#92c4ac" d="M 164.5,568.5 C 164.34,570.153 163.674,571.486 162.5,572.5C 162.229,570.62 162.896,569.287 164.5,568.5 Z"/></g>
<g><path style="opacity:1" fill="#bbccc4" d="M 162.5,572.5 C 159.107,577.064 158.107,582.064 159.5,587.5C 158.223,586.306 157.556,584.64 157.5,582.5C 157.622,578.254 159.289,574.921 162.5,572.5 Z"/></g>
<g><path style="opacity:1" fill="#d0dbd6" d="M 163.5,594.5 C 170.625,595.518 177.625,596.518 184.5,597.5C 177.159,597.923 170.159,596.923 163.5,594.5 Z"/></g>
<g><path style="opacity:1" fill="#9fc2b3" d="M 187.5,598.5 C 188.878,599.545 189.878,600.878 190.5,602.5C 188.468,601.952 187.468,600.619 187.5,598.5 Z"/></g>
<g><path style="opacity:1" fill="#a2cab8" d="M 190.5,604.5 C 191.794,606.048 192.461,608.048 192.5,610.5C 190.747,620.377 190.08,630.377 190.5,640.5C 189.543,628.506 189.543,616.506 190.5,604.5 Z"/></g>
<g><path style="opacity:1" fill="#b9ccc3" d="M 288.5,624.5 C 290.493,627.161 292.493,629.828 294.5,632.5C 290.96,630.964 288.96,628.297 288.5,624.5 Z"/></g>
</svg>
